<svg width="19" height="22" viewBox="0 0 19 22" fill="none" xmlns="http://www.w3.org/2000/svg">
<path fill-rule="evenodd" clip-rule="evenodd" d="M18.8496 7.12012C18.8571 7.06369 18.8571 7.00662 18.8496 6.9502V6.8999C18.8181 6.82923 18.7752 6.76492 18.7207 6.70996L12.2207 0.209961C12.1625 0.15484 12.0935 0.110904 12.0195 0.0800781H11.8496H7.5293C6.78669 0.0800781 6.07588 0.375289 5.55078 0.900391C5.02568 1.42549 4.73047 2.13728 4.73047 2.87988V3.25977H3.2207C2.4781 3.25977 1.76534 3.55498 1.24023 4.08008C0.715133 4.60518 0.419922 5.31745 0.419922 6.06006V19C0.419922 19.7426 0.715133 20.4549 1.24023 20.98C1.76534 21.5051 2.4781 21.7998 3.2207 21.7998H11.8496C12.5922 21.7998 13.305 21.5051 13.8301 20.98C14.3552 20.4549 14.6504 19.7426 14.6504 19V18.6201H16.1602C16.9028 18.6201 17.6155 18.3249 18.1406 17.7998C18.6657 17.2747 18.9609 16.5624 18.9609 15.8198V7.16992L18.8496 7.12012ZM12.3594 2.20996L16.6699 6.52002H13.8809C13.4795 6.51738 13.0954 6.35606 12.8125 6.07129C12.5296 5.78652 12.3691 5.4014 12.3691 5V2.20996H12.3594ZM8.05078 8.20996V5.41992L12.3594 9.72998H9.57031C9.16718 9.72998 8.78115 9.56972 8.49609 9.28467C8.21104 8.99961 8.05078 8.61309 8.05078 8.20996ZM17.5801 15.7998C17.5801 16.2029 17.4198 16.5899 17.1348 16.875C16.8497 17.1601 16.4637 17.3198 16.0605 17.3198H14.5508V10.3198C14.5583 10.2634 14.5583 10.2063 14.5508 10.1499V10.0898C14.5199 10.0188 14.4749 9.95441 14.4199 9.8999L7.91992 3.40039C7.86769 3.34982 7.80701 3.30904 7.74023 3.28027H7.67969H7.50977H5.9707V2.90039C5.9707 2.49726 6.13096 2.11025 6.41602 1.8252C6.70107 1.54014 7.08711 1.37988 7.49023 1.37988H11.1406V5.08008C11.1406 5.82268 11.4358 6.53496 11.9609 7.06006C12.486 7.58516 13.1968 7.87988 13.9395 7.87988H17.6406L17.5801 15.7998Z" fill="#7A8091"/>
</svg>
