<svg width="18" height="24" viewBox="0 0 18 24" fill="none" xmlns="http://www.w3.org/2000/svg">
<path fill-rule="evenodd" clip-rule="evenodd" d="M17.8398 9.49902C17.8398 16.419 10.0293 22.8193 10.0293 22.8193C9.79296 23.0051 9.49982 23.1033 9.19922 23.0986C8.89862 23.1033 8.60548 23.0051 8.36914 22.8193C8.36914 22.8193 0.560547 16.409 0.560547 9.49902C0.560547 7.20755 1.46953 5.00996 3.08984 3.38965C4.71016 1.76933 6.90775 0.859375 9.19922 0.859375C11.4907 0.859375 13.6883 1.76933 15.3086 3.38965C16.9289 5.00996 17.8398 7.20755 17.8398 9.49902ZM9.19922 13.8193C10.345 13.8193 11.4437 13.3639 12.2539 12.5537C13.0641 11.7436 13.5195 10.6448 13.5195 9.49902C13.5195 8.35329 13.0641 7.25449 12.2539 6.44434C11.4437 5.63418 10.345 5.17871 9.19922 5.17871C8.05348 5.17871 6.95469 5.63418 6.14453 6.44434C5.33437 7.25449 4.88086 8.35329 4.88086 9.49902C4.87823 10.068 4.9872 10.6318 5.20312 11.1582C5.41905 11.6846 5.73726 12.1631 6.13867 12.5664C6.54008 12.9697 7.01753 13.2895 7.54297 13.5078C8.0684 13.7262 8.63022 13.8389 9.19922 13.8389V13.8193Z" fill="#7A8091"/>
</svg>
