<svg width="20" height="19" viewBox="0 0 20 19" fill="none" xmlns="http://www.w3.org/2000/svg">
<path fill-rule="evenodd" clip-rule="evenodd" d="M18.2598 0.5H1.66016C1.2199 0.5 0.797639 0.675018 0.486328 0.986328C0.175018 1.29764 0 1.7199 0 2.16016V12.9502C0 13.3905 0.175018 13.8127 0.486328 14.124C0.797639 14.4353 1.2199 14.6104 1.66016 14.6104H3.91016C2.87547 13.7035 2.14925 12.497 1.83203 11.1582C1.51482 9.81944 1.62283 8.41432 2.14062 7.13965H0.820312V3.82031H5.08008C6.06232 3.27572 7.16595 2.98926 8.28906 2.98926C9.41217 2.98926 10.5178 3.27572 11.5 3.82031H19.0801V7.13965H14.4395C14.8782 8.21651 15.025 9.39021 14.8652 10.542C14.7055 11.6938 14.2446 12.7834 13.5293 13.7002L12.9395 13.1104C13.8193 11.9324 14.2221 10.4647 14.0645 9.00293C13.9068 7.54114 13.2007 6.19368 12.0898 5.23047C10.9784 4.26824 9.5434 3.76154 8.07422 3.81348C6.60504 3.86542 5.21063 4.47145 4.16992 5.50977C3.13161 6.55048 2.52655 7.94586 2.47461 9.41504C2.42267 10.8842 2.9284 12.3182 3.89062 13.4297C4.85384 14.5405 6.20031 15.2456 7.66211 15.4033C9.1239 15.561 10.5916 15.1601 11.7695 14.2803L16.0098 18.5195L17.1797 17.3496L14.4492 14.6201H18.2598C18.7 14.6201 19.1223 14.4451 19.4336 14.1338C19.7449 13.8225 19.9199 13.4002 19.9199 12.96V2.16992C19.9199 1.72966 19.7449 1.3074 19.4336 0.996094C19.1223 0.684783 18.7 0.509766 18.2598 0.509766V0.5ZM8.25977 13.7803C7.43988 13.7796 6.63867 13.5357 5.95703 13.0801C5.2754 12.6245 4.74381 11.977 4.42969 11.2197C4.1162 10.4617 4.03513 9.62773 4.19531 8.82324C4.3555 8.01875 4.75015 7.28032 5.33008 6.7002C5.9102 6.12027 6.64864 5.72464 7.45312 5.56445C8.25761 5.40427 9.09159 5.48632 9.84961 5.7998C10.6069 6.11393 11.2553 6.64551 11.7109 7.32715C12.1665 8.00878 12.4095 8.81 12.4102 9.62988C12.3997 10.7167 11.9638 11.7559 11.1953 12.5244C10.4268 13.2929 9.38759 13.7298 8.30078 13.7402L8.25977 13.7803Z" fill="#7A8091"/>
<path d="M8.2998 10.4198C8.7582 10.4198 9.12964 10.0481 9.12964 9.58975C9.12964 9.13136 8.7582 8.75977 8.2998 8.75977C7.84141 8.75977 7.46973 9.13136 7.46973 9.58975C7.46973 10.0481 7.84141 10.4198 8.2998 10.4198Z" fill="#7A8091"/>
<path d="M10.79 10.4198C11.2484 10.4198 11.6201 10.0481 11.6201 9.58975C11.6201 9.13136 11.2484 8.75977 10.79 8.75977C10.3316 8.75977 9.95996 9.13136 9.95996 9.58975C9.95996 10.0481 10.3316 10.4198 10.79 10.4198Z" fill="#7A8091"/>
<path d="M5.81006 10.4198C6.26845 10.4198 6.63989 10.0481 6.63989 9.58975C6.63989 9.13136 6.26845 8.75977 5.81006 8.75977C5.35166 8.75977 4.97998 9.13136 4.97998 9.58975C4.97998 10.0481 5.35166 10.4198 5.81006 10.4198Z" fill="#7A8091"/>
</svg>
