<svg width="18" height="20" viewBox="0 0 18 20" fill="none" xmlns="http://www.w3.org/2000/svg">
<path fill-rule="evenodd" clip-rule="evenodd" d="M15.1504 0.150391H3.24023C2.64085 0.150391 2.06641 0.387691 1.64258 0.811523C1.21875 1.23536 0.980469 1.81077 0.980469 2.41016V17.5996C0.980469 18.199 1.21875 18.7744 1.64258 19.1982C2.06641 19.6221 2.64085 19.8604 3.24023 19.8604H15.1504C15.7498 19.8604 16.3242 19.6221 16.748 19.1982C17.1719 18.7744 17.4102 18.199 17.4102 17.5996V2.41016C17.4102 1.81077 17.1719 1.23536 16.748 0.811523C16.3242 0.387691 15.7498 0.150391 15.1504 0.150391ZM7.36914 15.5195C7.48334 15.6355 7.54883 15.7923 7.54883 15.9551C7.54883 16.1179 7.48334 16.2737 7.36914 16.3896C7.31158 16.4476 7.24355 16.4935 7.16797 16.5244C7.09239 16.5553 7.01134 16.5713 6.92969 16.5703C6.84803 16.5713 6.76699 16.5553 6.69141 16.5244C6.61583 16.4935 6.54779 16.4476 6.49023 16.3896L5.90039 15.7998L5.31055 16.3896C5.25299 16.4476 5.183 16.4935 5.10742 16.5244C5.03184 16.5553 4.9508 16.5713 4.86914 16.5703C4.78749 16.5713 4.70644 16.5553 4.63086 16.5244C4.55528 16.4935 4.48725 16.4476 4.42969 16.3896C4.31548 16.2737 4.25195 16.1179 4.25195 15.9551C4.25195 15.7923 4.31548 15.6355 4.42969 15.5195L5.01953 14.9297L4.42969 14.3398C4.31548 14.2239 4.25195 14.068 4.25195 13.9053C4.25195 13.7425 4.31548 13.5857 4.42969 13.4697C4.54567 13.3555 4.70246 13.292 4.86523 13.292C5.02801 13.292 5.1848 13.3555 5.30078 13.4697L5.89062 14.0596L6.48047 13.4697C6.59645 13.3555 6.75129 13.292 6.91406 13.292C7.07683 13.292 7.23362 13.3555 7.34961 13.4697C7.46381 13.5857 7.52734 13.7425 7.52734 13.9053C7.52734 14.068 7.46381 14.2239 7.34961 14.3398L6.75977 14.9297L7.34961 15.5195H7.36914ZM6.92969 10.6201H6.51953V11.0303C6.51953 11.1947 6.45416 11.3525 6.33789 11.4688C6.22162 11.585 6.06483 11.6504 5.90039 11.6504C5.73596 11.6504 5.57721 11.585 5.46094 11.4688C5.34467 11.3525 5.2793 11.1947 5.2793 11.0303V10.6201H4.86914C4.70471 10.6201 4.54791 10.5547 4.43164 10.4385C4.31537 10.3222 4.25 10.1644 4.25 10C4.25 9.91858 4.26572 9.83792 4.29688 9.7627C4.32803 9.68747 4.37407 9.6191 4.43164 9.56152C4.48921 9.50395 4.55759 9.45792 4.63281 9.42676C4.70803 9.3956 4.78772 9.37988 4.86914 9.37988H5.2793V8.96973C5.2793 8.80529 5.34467 8.64752 5.46094 8.53125C5.57721 8.41498 5.73596 8.34961 5.90039 8.34961C6.06483 8.34961 6.22162 8.41498 6.33789 8.53125C6.45416 8.64752 6.51953 8.80529 6.51953 8.96973V9.37988H6.92969C7.01111 9.37988 7.09275 9.3956 7.16797 9.42676C7.24319 9.45792 7.31157 9.50395 7.36914 9.56152C7.42671 9.6191 7.4708 9.68747 7.50195 9.7627C7.53311 9.83792 7.55078 9.91858 7.55078 10C7.55078 10.1644 7.48541 10.3222 7.36914 10.4385C7.25287 10.5547 7.09412 10.6201 6.92969 10.6201ZM13.5 16.6201H11.4492C11.3678 16.6201 11.2881 16.6044 11.2129 16.5732C11.1377 16.5421 11.0693 16.496 11.0117 16.4385C10.9541 16.3809 10.9081 16.3125 10.877 16.2373C10.8458 16.1621 10.8301 16.0814 10.8301 16C10.8301 15.8356 10.8954 15.6778 11.0117 15.5615C11.128 15.4453 11.2848 15.3799 11.4492 15.3799H13.5C13.6644 15.3799 13.8212 15.4453 13.9375 15.5615C14.0538 15.6778 14.1191 15.8356 14.1191 16C14.1191 16.0814 14.1034 16.1621 14.0723 16.2373C14.0411 16.3125 13.9951 16.3809 13.9375 16.4385C13.8799 16.496 13.8116 16.5421 13.7363 16.5732C13.6611 16.6044 13.5814 16.6201 13.5 16.6201ZM13.5 14.5703H11.4492C11.3678 14.5703 11.2881 14.5536 11.2129 14.5225C11.1377 14.4913 11.0693 14.4462 11.0117 14.3887C10.9541 14.3311 10.9081 14.2627 10.877 14.1875C10.8458 14.1123 10.8301 14.0316 10.8301 13.9502C10.8301 13.8688 10.8458 13.7881 10.877 13.7129C10.9081 13.6377 10.9541 13.5693 11.0117 13.5117C11.0693 13.4541 11.1377 13.4081 11.2129 13.377C11.2881 13.3458 11.3678 13.3301 11.4492 13.3301H13.5C13.5814 13.3301 13.6611 13.3458 13.7363 13.377C13.8116 13.4081 13.8799 13.4541 13.9375 13.5117C13.9951 13.5693 14.0411 13.6377 14.0723 13.7129C14.1034 13.7881 14.1191 13.8688 14.1191 13.9502C14.1191 14.0316 14.1034 14.1123 14.0723 14.1875C14.0411 14.2627 13.9951 14.3311 13.9375 14.3887C13.8799 14.4462 13.8116 14.4913 13.7363 14.5225C13.6611 14.5536 13.5814 14.5703 13.5 14.5703ZM13.5 10.8701H11.4492C11.3678 10.8701 11.2881 10.8544 11.2129 10.8232C11.1377 10.7921 11.0693 10.746 11.0117 10.6885C10.9541 10.6309 10.9081 10.5625 10.877 10.4873C10.8458 10.4121 10.8301 10.3314 10.8301 10.25C10.8301 10.1686 10.8458 10.0879 10.877 10.0127C10.9081 9.93747 10.9541 9.8691 11.0117 9.81152C11.0693 9.75395 11.1377 9.70792 11.2129 9.67676C11.2881 9.6456 11.3678 9.62988 11.4492 9.62988H13.5C13.5814 9.62988 13.6611 9.6456 13.7363 9.67676C13.8116 9.70792 13.8799 9.75395 13.9375 9.81152C13.9951 9.8691 14.0411 9.93747 14.0723 10.0127C14.1034 10.0879 14.1191 10.1686 14.1191 10.25C14.1191 10.3314 14.1034 10.4121 14.0723 10.4873C14.0411 10.5625 13.9951 10.6309 13.9375 10.6885C13.8799 10.746 13.8116 10.7921 13.7363 10.8232C13.6611 10.8544 13.5814 10.8701 13.5 10.8701ZM14.9395 5.33008C14.9395 5.71199 14.7876 6.07858 14.5176 6.34863C14.2475 6.61869 13.8819 6.76953 13.5 6.76953H4.88086C4.49895 6.76953 4.13138 6.61869 3.86133 6.34863C3.59128 6.07858 3.43945 5.71199 3.43945 5.33008V4.09961C3.43945 3.7177 3.59128 3.35208 3.86133 3.08203C4.13138 2.81198 4.49895 2.66016 4.88086 2.66016H13.5C13.8819 2.66016 14.2475 2.81198 14.5176 3.08203C14.7876 3.35208 14.9395 3.7177 14.9395 4.09961V5.33008Z" fill="#7A8091"/>
</svg>
