<svg width="20" height="20" viewBox="0 0 20 20" fill="none" xmlns="http://www.w3.org/2000/svg">
<path fill-rule="evenodd" clip-rule="evenodd" d="M10.1992 0.650391C12.679 0.650391 15.0571 1.63521 16.8105 3.38867C18.564 5.14214 19.5508 7.52023 19.5508 10C19.5508 12.4798 18.564 14.8579 16.8105 16.6113C15.0571 18.3648 12.679 19.3496 10.1992 19.3496C7.71944 19.3496 5.34136 18.3648 3.58789 16.6113C1.83443 14.8579 0.849609 12.4798 0.849609 10C0.849609 7.52023 1.83443 5.14214 3.58789 3.38867C5.34136 1.63521 7.71944 0.650391 10.1992 0.650391ZM13.6191 11.6504C13.4722 11.5489 13.2978 11.4941 13.1191 11.4941C12.9405 11.4941 12.7661 11.5489 12.6191 11.6504L12.1895 11.9404C11.961 12.1056 11.6862 12.1943 11.4043 12.1943C11.1224 12.1943 10.8476 12.1056 10.6191 11.9404C10.1862 11.6071 9.77397 11.2496 9.38086 10.8701C9.00141 10.477 8.64388 10.0628 8.31055 9.62988C8.14542 9.40144 8.05664 9.1266 8.05664 8.84473C8.05664 8.56286 8.14542 8.28801 8.31055 8.05957L8.59961 7.62988C8.7011 7.4829 8.75586 7.3085 8.75586 7.12988C8.75586 6.95126 8.7011 6.77687 8.59961 6.62988L7.36914 4.82031C7.20556 4.57703 6.95802 4.40205 6.67383 4.33008C6.38964 4.25811 6.08973 4.29358 5.83008 4.42969C5.31317 4.70883 4.9221 5.17511 4.73633 5.73242C4.55056 6.28974 4.58404 6.89623 4.83008 7.42969C5.53905 9.02237 6.49412 10.494 7.66016 11.79L8.5293 12.6602C9.82521 13.8263 11.2979 14.7814 12.8906 15.4902C13.4241 15.7363 14.0306 15.7698 14.5879 15.584C15.1452 15.3982 15.6115 15.0071 15.8906 14.4902C16.0267 14.2306 16.0622 13.9297 15.9902 13.6455C15.9183 13.3613 15.7433 13.1138 15.5 12.9502L13.6191 11.6504Z" fill="#7A8091"/>
</svg>
