<svg width="20" height="20" viewBox="0 0 20 20" fill="none" xmlns="http://www.w3.org/2000/svg">
    <path fill-rule="evenodd" clip-rule="evenodd" d="M9.29765 9.93486V8.06055C9.29765 7.08739 10.7334 6.60076 10.7214 8.46298C10.7214 9.94676 10.4932 9.57464 11.8448 10.9022C12.77 11.8093 11.7125 12.7945 10.8654 11.9294C10.451 11.5029 9.29765 10.6257 9.29765 9.93486V9.93486ZM3.59082 9.80287V10.3373C3.66543 11.9447 4.33757 13.4667 5.4754 14.6045C6.61324 15.7423 8.13492 16.4142 9.74233 16.4888H10.2768C11.886 16.4196 13.4109 15.7493 14.5498 14.6104C15.6888 13.4714 16.3591 11.9465 16.4283 10.3373V9.80287C16.3604 8.19318 15.6905 6.66784 14.5513 5.52861C13.4121 4.38938 11.8864 3.7192 10.2768 3.65137H9.74233C8.12841 3.71332 6.5968 4.38058 5.45253 5.5204C4.30825 6.66022 3.63502 8.18921 3.56677 9.80287H3.59082Z" fill="#7A8090"/>
    <path fill-rule="evenodd" clip-rule="evenodd" d="M10.6988 0.709247C10.6988 1.95874 9.66544 1.18372 7.22652 1.96466C4.13282 2.95584 1.38154 6.16969 1.38154 9.774V10.3747C1.38154 14.6759 5.32825 18.6223 9.6294 18.6223H10.2301C16.0511 18.6223 20.3284 12.1164 17.7453 6.5117C17.3106 5.55485 16.6991 4.68867 15.9431 3.95864C15.9431 4.43922 16.0273 4.72165 15.6008 4.95593C15.5202 5.00448 15.4305 5.03679 15.3374 5.05038C15.2443 5.06397 15.1493 5.05861 15.0582 5.03513C14.967 5.01164 14.8815 4.9706 14.8065 4.91369C14.7315 4.85679 14.6685 4.78515 14.6214 4.70368C14.4079 3.86199 14.2833 3.00069 14.2492 2.13302C14.2492 1.41817 15.3725 1.43586 16.0032 1.34575C17.2047 1.18356 17.8054 1.02146 17.8054 2.04268C17.8054 2.52325 17.2407 2.64361 16.7782 2.70969C16.9043 2.89591 17.3307 3.31017 17.5229 3.52042C17.7655 3.80192 17.992 4.09656 18.2017 4.40332C19.6699 6.59591 20.2241 9.27559 19.7457 11.8707C19.4612 13.3925 18.8238 14.8265 17.8849 16.0575C16.946 17.2885 15.7317 18.2822 14.3392 18.959C7.64122 22.317 0 17.0487 0 10.3266V9.6115C0 4.60751 4.60151 0 9.6115 0H10.0559C10.2302 0.0215369 10.3911 0.105143 10.5091 0.235242C10.627 0.365342 10.6944 0.533681 10.6988 0.709247Z" fill="#7A8090"/>
</svg>
