<svg width="22" height="22" viewBox="0 0 22 22" fill="none" xmlns="http://www.w3.org/2000/svg">
<path fill-rule="evenodd" clip-rule="evenodd" d="M12.9502 0.990234H3.08008C2.45417 0.990234 1.85372 1.23905 1.41113 1.68164C0.968547 2.12423 0.719727 2.7237 0.719727 3.34961V16.6504C0.719727 17.2763 0.968547 17.8758 1.41113 18.3184C1.85372 18.7609 2.45417 19.0098 3.08008 19.0098H9.41016L9.59961 17.9502C9.68385 17.4741 9.91088 17.035 10.25 16.6904L15.2998 11.6904V3.38965C15.2998 2.76374 15.051 2.16427 14.6084 1.72168C14.1658 1.27909 13.5654 1.03027 12.9395 1.03027L12.9502 0.990234ZM4.16016 4.41992H7.58984C7.81793 4.41992 8.03696 4.51059 8.19824 4.67188C8.35952 4.83316 8.4502 5.05219 8.4502 5.28027C8.4502 5.50836 8.35952 5.72641 8.19824 5.8877C8.03696 6.04898 7.81793 6.13965 7.58984 6.13965H4.16016C4.04722 6.13965 3.93539 6.11744 3.83105 6.07422C3.72671 6.031 3.63162 5.96755 3.55176 5.8877C3.4719 5.80784 3.40845 5.71372 3.36523 5.60938C3.32202 5.50503 3.2998 5.39321 3.2998 5.28027C3.2998 5.16734 3.32202 5.05551 3.36523 4.95117C3.40845 4.84683 3.4719 4.75173 3.55176 4.67188C3.63162 4.59202 3.72671 4.52857 3.83105 4.48535C3.93539 4.44213 4.04722 4.41992 4.16016 4.41992ZM8.4502 13H4.16016C4.04722 13 3.93539 12.9778 3.83105 12.9346C3.72671 12.8914 3.63162 12.8279 3.55176 12.748C3.4719 12.6682 3.40845 12.5731 3.36523 12.4688C3.32202 12.3644 3.2998 12.2526 3.2998 12.1396C3.2998 12.0267 3.32202 11.9149 3.36523 11.8105C3.40845 11.7062 3.4719 11.6121 3.55176 11.5322C3.63162 11.4524 3.72671 11.3889 3.83105 11.3457C3.93539 11.3025 4.04722 11.2803 4.16016 11.2803H8.4502C8.67828 11.2803 8.89634 11.3709 9.05762 11.5322C9.2189 11.6935 9.30957 11.9116 9.30957 12.1396C9.30957 12.3677 9.2189 12.5868 9.05762 12.748C8.89634 12.9093 8.67828 13 8.4502 13ZM11.8799 9.57031H4.16016C4.04722 9.57031 3.93539 9.5481 3.83105 9.50488C3.72671 9.46166 3.63162 9.39822 3.55176 9.31836C3.4719 9.2385 3.40845 9.1434 3.36523 9.03906C3.32202 8.93472 3.2998 8.8229 3.2998 8.70996C3.2998 8.48187 3.39048 8.26284 3.55176 8.10156C3.71304 7.94028 3.93207 7.84961 4.16016 7.84961H11.8799C12.108 7.84961 12.327 7.94028 12.4883 8.10156C12.6496 8.26284 12.7402 8.48187 12.7402 8.70996C12.7402 8.8229 12.718 8.93472 12.6748 9.03906C12.6316 9.1434 12.5681 9.2385 12.4883 9.31836C12.4084 9.39822 12.3133 9.46166 12.209 9.50488C12.1046 9.5481 11.9928 9.57031 11.8799 9.57031Z" fill="#7A8091"/>
<path fill-rule="evenodd" clip-rule="evenodd" d="M11.4693 21.5788C11.3001 21.5775 11.1381 21.5087 11.0191 21.3884C10.945 21.3152 10.8903 21.2251 10.8589 21.1257C10.8276 21.0264 10.8207 20.9216 10.8394 20.8191L11.2896 18.239C11.3133 18.1099 11.3758 17.9913 11.4693 17.8992L17.8394 11.529C17.9511 11.374 18.0955 11.2445 18.2622 11.1511C18.429 11.0577 18.6137 11.0023 18.8042 10.988C18.9948 10.9737 19.187 11.0016 19.3658 11.0691C19.5445 11.1366 19.7058 11.242 19.8394 11.3786L20.8999 12.4392C21.1679 12.7048 21.3246 13.0622 21.3394 13.4392C21.3236 13.816 21.1671 14.173 20.8999 14.4392L14.5298 20.8083C14.4376 20.9018 14.3181 20.9653 14.189 20.989L11.6099 21.4392H11.4995L11.4693 21.5788Z" fill="#7A8091"/>
</svg>
