<svg width="21" height="14" viewBox="0 0 21 14" fill="none" xmlns="http://www.w3.org/2000/svg">
<path fill-rule="evenodd" clip-rule="evenodd" d="M19.0605 0.121094H2.65039C2.173 0.121094 1.71452 0.310872 1.37695 0.648438C1.03939 0.986003 0.849609 1.44351 0.849609 1.9209V12.0811C0.849609 12.5584 1.03939 13.016 1.37695 13.3535C1.71452 13.6911 2.173 13.8809 2.65039 13.8809H19.0605C19.5379 13.8809 19.9945 13.6911 20.332 13.3535C20.6696 13.016 20.8594 12.5584 20.8594 12.0811V1.9209C20.8594 1.44351 20.6696 0.986003 20.332 0.648438C19.9945 0.310872 19.5379 0.121094 19.0605 0.121094ZM7.06055 5.59082C7.06055 5.96478 6.91091 6.32346 6.64648 6.58789C6.38206 6.85232 6.02435 7.00098 5.65039 7.00098H4.71094C4.33698 7.00098 3.97732 6.85232 3.71289 6.58789C3.44846 6.32346 3.30078 5.96478 3.30078 5.59082V4.65137C3.30078 4.27741 3.44846 3.91872 3.71289 3.6543C3.97732 3.38987 4.33698 3.24121 4.71094 3.24121H5.65039C6.02435 3.24121 6.38206 3.38987 6.64648 3.6543C6.91091 3.91872 7.06055 4.27741 7.06055 4.65137V5.59082ZM15.0605 8.78125C14.9195 8.78353 14.7814 8.73779 14.6699 8.65137C14.6049 8.60066 14.5501 8.53679 14.5098 8.46484C14.4694 8.3929 14.4449 8.31437 14.4355 8.23242C14.4262 8.15047 14.4339 8.06744 14.457 7.98828C14.4802 7.90912 14.5183 7.83452 14.5703 7.77051C14.7446 7.55165 14.8393 7.28075 14.8398 7.00098C14.8393 6.7212 14.7446 6.4503 14.5703 6.23145C14.5183 6.16744 14.4802 6.09283 14.457 6.01367C14.4339 5.93451 14.4262 5.85148 14.4355 5.76953C14.4449 5.68758 14.4694 5.60905 14.5098 5.53711C14.5501 5.46516 14.6049 5.40129 14.6699 5.35059C14.7339 5.29857 14.8076 5.26046 14.8867 5.2373C14.9659 5.21415 15.0489 5.20651 15.1309 5.21582C15.2128 5.22513 15.2933 5.25069 15.3652 5.29102C15.4372 5.33135 15.5001 5.38612 15.5508 5.45117C15.8994 5.89272 16.0886 6.43839 16.0898 7.00098C16.0886 7.56356 15.8994 8.10923 15.5508 8.55078C15.4928 8.62551 15.417 8.68594 15.332 8.72754C15.2471 8.76914 15.1551 8.79103 15.0605 8.79102V8.78125ZM17.0605 10.1211C17.0018 10.1877 16.9287 10.2411 16.8477 10.2773C16.7666 10.3136 16.6787 10.3318 16.5898 10.3311C16.4348 10.3321 16.285 10.2749 16.1699 10.1709C16.0551 10.0532 15.9902 9.89587 15.9902 9.73145C15.9902 9.56703 16.0551 9.40869 16.1699 9.29102C16.7355 8.66227 17.0498 7.84669 17.0508 7.00098C17.0498 6.15526 16.7355 5.33968 16.1699 4.71094C16.0551 4.59326 15.9902 4.43493 15.9902 4.27051C15.9902 4.10609 16.0551 3.94873 16.1699 3.83105C16.2876 3.71622 16.445 3.65234 16.6094 3.65234C16.7738 3.65234 16.9331 3.71622 17.0508 3.83105C17.8235 4.69043 18.2502 5.80523 18.25 6.96094C18.2905 8.11594 17.9024 9.24503 17.1602 10.1309L17.0605 10.1211Z" fill="#7A8091"/>
</svg>
