<svg width="20" height="20" viewBox="0 0 20 20" fill="none" xmlns="http://www.w3.org/2000/svg">
<path fill-rule="evenodd" clip-rule="evenodd" d="M3.25 3.35986C5.00335 1.60728 7.38031 0.623047 9.85938 0.623047C12.3384 0.623047 14.7174 1.60728 16.4707 3.35986C18.2233 5.11321 19.207 7.49115 19.207 9.97021C19.207 12.4493 18.2233 14.8267 16.4707 16.5801C14.7174 18.3327 12.3384 19.3169 9.85938 19.3169C7.38031 19.3169 5.00335 18.3327 3.25 16.5801C1.49742 14.8267 0.513672 12.4493 0.513672 9.97021C0.513672 7.49115 1.49742 5.11321 3.25 3.35986ZM6.99023 6.06006L5.92969 7.12012L8.83008 10.02L6.08984 12.7598L7.08984 13.7598L9.83008 11.02L12.7305 13.9199L13.791 12.8599L10.8906 9.95996L13.6406 7.20996L12.6406 6.20996L9.89062 8.95996L6.99023 6.06006Z" fill="#7A8091"/>
</svg>
