<svg width="17" height="22" viewBox="0 0 17 22" fill="none" xmlns="http://www.w3.org/2000/svg">
<path fill-rule="evenodd" clip-rule="evenodd" d="M5.16992 4.5V0.669924C5.08987 0.669722 5.01135 0.685397 4.9375 0.716311C4.86365 0.747224 4.79628 0.792926 4.74024 0.8501L0.859377 4.72998C0.802204 4.78602 0.757478 4.85291 0.726564 4.92676C0.695651 5.00061 0.679488 5.0801 0.679689 5.16016H4.50977C4.68245 5.1528 4.84654 5.08071 4.96875 4.9585C5.09097 4.83628 5.16257 4.67268 5.16992 4.5Z" fill="#7A8091"/>
<path fill-rule="evenodd" clip-rule="evenodd" d="M14.1797 0.679688H6.38086V4.50928C6.38086 4.75879 6.33181 5.0063 6.23633 5.23682C6.14084 5.46734 6.00065 5.6766 5.82422 5.85303C5.64779 6.02946 5.43755 6.16916 5.20703 6.26465C4.97651 6.36013 4.72998 6.40967 4.48047 6.40967H0.650391V19.4097C0.650391 19.9136 0.850712 20.3966 1.20703 20.7529C1.56335 21.1092 2.04687 21.3096 2.55078 21.3096H14.1797C14.4296 21.3109 14.6771 21.2625 14.9082 21.1675C15.1393 21.0725 15.3506 20.9326 15.5273 20.7559C15.704 20.5792 15.8425 20.3693 15.9375 20.1382C16.0325 19.9071 16.0814 19.6595 16.0801 19.4097V2.60938C16.0814 2.35949 16.0325 2.11198 15.9375 1.88086C15.8425 1.64974 15.704 1.43988 15.5273 1.26318C15.3506 1.08649 15.1393 0.946577 14.9082 0.851562C14.6771 0.756548 14.4296 0.708147 14.1797 0.709473V0.679688ZM5.34961 11.1895C5.40535 11.1335 5.47199 11.0894 5.54492 11.0591C5.61785 11.0288 5.69642 11.0132 5.77539 11.0132C5.85436 11.0132 5.93293 11.0288 6.00586 11.0591C6.07879 11.0894 6.14348 11.1335 6.19922 11.1895L7.75 12.7397V8.37939C7.75 8.22026 7.81326 8.0676 7.92578 7.95508C8.0383 7.84256 8.19048 7.7793 8.34961 7.7793C8.50874 7.7793 8.66092 7.84256 8.77344 7.95508C8.88596 8.0676 8.94922 8.22026 8.94922 8.37939V12.7397L10.5 11.1895C10.5557 11.1335 10.6224 11.0894 10.6953 11.0591C10.7682 11.0288 10.8468 11.0132 10.9258 11.0132C11.0047 11.0132 11.0814 11.0288 11.1543 11.0591C11.2272 11.0894 11.2939 11.1335 11.3496 11.1895C11.4055 11.2452 11.4502 11.3113 11.4805 11.3843C11.5108 11.4572 11.5273 11.5358 11.5273 11.6147C11.5273 11.6937 11.5108 11.7718 11.4805 11.8447C11.4502 11.9177 11.4055 11.9838 11.3496 12.0396L8.76953 14.6196C8.71379 14.6756 8.64715 14.7197 8.57422 14.75C8.50129 14.7803 8.42467 14.7959 8.3457 14.7959C8.26673 14.7959 8.18817 14.7803 8.11523 14.75C8.0423 14.7197 7.97566 14.6756 7.91992 14.6196L5.33984 12.0396C5.28391 11.9838 5.23927 11.9177 5.20898 11.8447C5.1787 11.7718 5.16406 11.6937 5.16406 11.6147C5.16406 11.5358 5.1787 11.4572 5.20898 11.3843C5.23927 11.3113 5.28391 11.2452 5.33984 11.1895H5.34961ZM10.9492 17.3896H5.7793C5.62017 17.3896 5.46799 17.3264 5.35547 17.2139C5.24295 17.1013 5.17969 16.9487 5.17969 16.7896C5.17969 16.6304 5.24295 16.4778 5.35547 16.3652C5.46799 16.2527 5.62017 16.1895 5.7793 16.1895H10.9492C11.1083 16.1895 11.2625 16.2527 11.375 16.3652C11.4875 16.4778 11.5508 16.6304 11.5508 16.7896C11.5508 16.8692 11.5347 16.948 11.5039 17.0215C11.4731 17.0949 11.4279 17.1614 11.3711 17.2173C11.3143 17.2731 11.2458 17.3171 11.1719 17.3467C11.0979 17.3762 11.0191 17.391 10.9395 17.3896H10.9492Z" fill="#7A8091"/>
</svg>
