<svg width="16" height="22" viewBox="0 0 16 22" fill="none" xmlns="http://www.w3.org/2000/svg">
<path fill-rule="evenodd" clip-rule="evenodd" d="M11.5 1.61136C11.6196 1.5881 11.743 1.59103 11.8613 1.62015C11.9796 1.64927 12.0904 1.70322 12.1855 1.77933C12.2807 1.85544 12.3577 1.95156 12.4121 2.06058C12.4665 2.16961 12.4964 2.28939 12.5 2.41117V3.30082H5.38086L11.4805 1.61136H11.5ZM12.0195 14.3614H4.30078C4.18784 14.3614 4.07504 14.3392 3.9707 14.2959C3.86636 14.2527 3.77126 14.1893 3.69141 14.1094C3.61155 14.0296 3.54908 13.9345 3.50586 13.8301C3.46264 13.7258 3.43945 13.6139 3.43945 13.501C3.43945 13.3881 3.46264 13.2762 3.50586 13.1719C3.54908 13.0676 3.61155 12.9725 3.69141 12.8926C3.77126 12.8128 3.86636 12.7493 3.9707 12.7061C4.07504 12.6629 4.18784 12.6407 4.30078 12.6407H12.0195C12.2476 12.6407 12.4676 12.7313 12.6289 12.8926C12.7902 13.0539 12.8809 13.2729 12.8809 13.501C12.8809 13.7291 12.7902 13.9481 12.6289 14.1094C12.4676 14.2707 12.2476 14.3614 12.0195 14.3614ZM10.1895 17.791H5.90039C5.78745 17.791 5.67465 17.7688 5.57031 17.7256C5.46597 17.6824 5.37087 17.619 5.29102 17.5391C5.21116 17.4592 5.14869 17.3641 5.10547 17.2598C5.06225 17.1555 5.03906 17.0436 5.03906 16.9307C5.03906 16.7026 5.12973 16.4846 5.29102 16.3233C5.4523 16.162 5.6723 16.0713 5.90039 16.0713H10.1895C10.4175 16.0713 10.6375 16.162 10.7988 16.3233C10.9601 16.4846 11.0508 16.7026 11.0508 16.9307C11.0508 17.0436 11.0276 17.1555 10.9844 17.2598C10.9412 17.3641 10.8787 17.4592 10.7988 17.5391C10.719 17.619 10.6239 17.6824 10.5195 17.7256C10.4152 17.7688 10.3024 17.791 10.1895 17.791ZM14.1895 3.30082H13.3301V2.41117C13.3302 2.15557 13.2722 1.90357 13.1602 1.67386C13.0481 1.44416 12.8851 1.24218 12.6836 1.085C12.482 0.927809 12.2462 0.819396 11.9961 0.766636C11.746 0.713876 11.4881 0.718907 11.2402 0.781285L2.10938 3.30082C1.67513 3.32625 1.26786 3.51624 0.96875 3.83207C0.66964 4.1479 0.5018 4.56603 0.5 5.00101V19.5508C0.5 20.0043 0.679313 20.4391 1 20.7598C1.32069 21.0805 1.75742 21.2608 2.21094 21.2608H14.2109C14.6645 21.2608 15.0992 21.0805 15.4199 20.7598C15.7406 20.4391 15.9199 20.0043 15.9199 19.5508V5.00101C15.9186 4.7756 15.8729 4.55238 15.7852 4.34476C15.6974 4.13714 15.569 3.94904 15.4082 3.79105C15.2474 3.63306 15.0568 3.50897 14.8477 3.42484C14.6385 3.34071 14.4149 3.29818 14.1895 3.30082Z" fill="#7A8091"/>
</svg>
