<svg width="18" height="24" viewBox="0 0 18 24" fill="none" xmlns="http://www.w3.org/2000/svg">
<path fill-rule="evenodd" clip-rule="evenodd" d="M15.3398 9.16016H14.6211V6.27979C14.6211 4.75214 14.0138 3.28724 12.9336 2.20703C11.8534 1.12682 10.387 0.519531 8.85938 0.519531C7.33173 0.519531 5.86732 1.12682 4.78711 2.20703C3.7069 3.28724 3.09961 4.75214 3.09961 6.27979V9.16016H2.38086C1.80799 9.16016 1.25859 9.3874 0.853516 9.79248C0.448437 10.1976 0.220703 10.747 0.220703 11.3198V21.3999C0.220703 21.9728 0.448437 22.5222 0.853516 22.9272C1.25859 23.3323 1.80799 23.5601 2.38086 23.5601H15.3809C15.9537 23.5601 16.5031 23.3323 16.9082 22.9272C17.3133 22.5222 17.541 21.9728 17.541 21.3999V11.3198C17.541 10.747 17.3133 10.1976 16.9082 9.79248C16.5031 9.3874 15.9537 9.16016 15.3809 9.16016H15.3398ZM5.01953 6.27979C5.01953 5.26135 5.42439 4.28459 6.14453 3.56445C6.86467 2.84431 7.84094 2.44043 8.85938 2.44043C9.87781 2.44043 10.856 2.84431 11.5762 3.56445C12.2963 4.28459 12.6992 5.26135 12.6992 6.27979V9.16016H5.01953V6.27979ZM9.82031 16.5698V18.7598C9.82031 19.025 9.71488 19.2797 9.52734 19.4673C9.33981 19.6548 9.08553 19.7598 8.82031 19.7598C8.5551 19.7598 8.30082 19.6548 8.11328 19.4673C7.92575 19.2797 7.82031 19.025 7.82031 18.7598V16.5698C7.52217 16.4083 7.27145 16.1703 7.0957 15.8804C6.91996 15.5904 6.82553 15.259 6.82031 14.9199C6.82031 14.4107 7.02274 13.9226 7.38281 13.5625C7.74288 13.2024 8.23102 13 8.74023 13C9.24945 13 9.73759 13.2024 10.0977 13.5625C10.4577 13.9226 10.6602 14.4107 10.6602 14.9199C10.6715 15.2436 10.6001 15.5649 10.4531 15.8535C10.3062 16.1422 10.0887 16.3886 9.82031 16.5698Z" fill="#7A8091"/>
</svg>
