<svg width="21" height="22" viewBox="0 0 21 22" fill="none" xmlns="http://www.w3.org/2000/svg">
<path fill-rule="evenodd" clip-rule="evenodd" d="M3.41016 5.39941C3.18207 5.39941 2.96402 5.30874 2.80273 5.14746C2.64145 4.98618 2.55078 4.76764 2.55078 4.53955V1.53955C2.55078 1.31146 2.64145 1.09292 2.80273 0.931641C2.96402 0.770359 3.18207 0.679688 3.41016 0.679688C3.52309 0.679687 3.63394 0.701898 3.73828 0.745117C3.84262 0.788336 3.93772 0.851782 4.01758 0.931641C4.09744 1.0115 4.16186 1.10611 4.20508 1.21045C4.2483 1.31479 4.26953 1.42661 4.26953 1.53955V4.53955C4.26953 4.65249 4.2483 4.76431 4.20508 4.86865C4.16186 4.97299 4.09744 5.0676 4.01758 5.14746C3.93772 5.22732 3.84262 5.29077 3.73828 5.33398C3.63394 5.3772 3.52309 5.39941 3.41016 5.39941Z" fill="#7A8091"/>
<path fill-rule="evenodd" clip-rule="evenodd" d="M7.5 5.39941C7.27191 5.39941 7.05386 5.30874 6.89258 5.14746C6.7313 4.98618 6.64062 4.76764 6.64062 4.53955V1.53955C6.64062 1.31146 6.7313 1.09292 6.89258 0.931641C7.05386 0.770359 7.27191 0.679688 7.5 0.679688C7.61294 0.679687 7.72574 0.701898 7.83008 0.745117C7.93442 0.788336 8.02756 0.851782 8.10742 0.931641C8.18728 1.0115 8.2517 1.10611 8.29492 1.21045C8.33814 1.31479 8.35938 1.42661 8.35938 1.53955V4.53955C8.35938 4.65249 8.33814 4.76431 8.29492 4.86865C8.2517 4.97299 8.18728 5.0676 8.10742 5.14746C8.02756 5.22732 7.93442 5.29077 7.83008 5.33398C7.72574 5.3772 7.61294 5.39941 7.5 5.39941Z" fill="#7A8091"/>
<path fill-rule="evenodd" clip-rule="evenodd" d="M11.5605 5.39941C11.3325 5.39941 11.1125 5.30874 10.9512 5.14746C10.7899 4.98618 10.6992 4.76764 10.6992 4.53955V1.53955C10.6992 1.31146 10.7899 1.09292 10.9512 0.931641C11.1125 0.770359 11.3325 0.679688 11.5605 0.679688C11.7886 0.679688 12.0067 0.770359 12.168 0.931641C12.3293 1.09292 12.4199 1.31146 12.4199 1.53955V4.53955C12.4199 4.76764 12.3293 4.98618 12.168 5.14746C12.0067 5.30874 11.7886 5.39941 11.5605 5.39941Z" fill="#7A8091"/>
<path fill-rule="evenodd" clip-rule="evenodd" d="M12.4199 2.60938H2.55078C1.92487 2.60938 1.32345 2.8582 0.880859 3.30078C0.438274 3.74337 0.189453 4.34382 0.189453 4.96973V16.3394C0.189453 16.9653 0.438274 17.5657 0.880859 18.0083C1.32345 18.4509 1.92487 18.6997 2.55078 18.6997H8.88086L9.07031 17.6396C9.15455 17.1636 9.38158 16.724 9.7207 16.3794L14.7695 11.3794V5.00928C14.7695 4.38337 14.5207 3.78341 14.0781 3.34082C13.6355 2.89823 13.0361 2.64941 12.4102 2.64941L12.4199 2.60938ZM7.06055 6.68945C7.28863 6.68945 7.50669 6.78013 7.66797 6.94141C7.82925 7.10269 7.91992 7.32123 7.91992 7.54932C7.91992 7.7774 7.82925 7.99643 7.66797 8.15771C7.50669 8.319 7.28863 8.40967 7.06055 8.40967H3.63086C3.51792 8.40967 3.40512 8.38746 3.30078 8.34424C3.19644 8.30102 3.10134 8.23757 3.02148 8.15771C2.94163 8.07786 2.87916 7.98276 2.83594 7.87842C2.79272 7.77408 2.76953 7.66225 2.76953 7.54932C2.76953 7.43638 2.79272 7.32455 2.83594 7.22021C2.87916 7.11587 2.94163 7.02126 3.02148 6.94141C3.10134 6.86155 3.19644 6.7981 3.30078 6.75488C3.40512 6.71166 3.51792 6.68945 3.63086 6.68945H7.06055ZM9.63086 11.8394H3.63086C3.51792 11.8394 3.40512 11.8171 3.30078 11.7739C3.19644 11.7307 3.10134 11.6673 3.02148 11.5874C2.94163 11.5075 2.87916 11.4129 2.83594 11.3086C2.79272 11.2043 2.76953 11.0924 2.76953 10.9795C2.76953 10.8666 2.79272 10.7547 2.83594 10.6504C2.87916 10.5461 2.94163 10.4514 3.02148 10.3716C3.10134 10.2917 3.19644 10.2283 3.30078 10.1851C3.40512 10.1418 3.51792 10.1196 3.63086 10.1196H9.63086C9.85895 10.1196 10.077 10.2103 10.2383 10.3716C10.3996 10.5329 10.4902 10.7514 10.4902 10.9795C10.4876 11.2058 10.3954 11.4219 10.2344 11.5811C10.0734 11.7402 9.85722 11.8296 9.63086 11.8296V11.8394Z" fill="#7A8091"/>
<path fill-rule="evenodd" clip-rule="evenodd" d="M10.94 21.2703C10.7708 21.2689 10.6097 21.2007 10.4908 21.0803C10.4166 21.0072 10.362 20.917 10.3306 20.8177C10.2992 20.7183 10.2924 20.6125 10.3111 20.51L10.7603 17.9304C10.784 17.8013 10.8465 17.6823 10.94 17.5901L17.3111 11.2205C17.4227 11.0654 17.5662 10.9365 17.7329 10.843C17.8997 10.7496 18.0853 10.6938 18.2759 10.6795C18.4665 10.6652 18.6577 10.6925 18.8365 10.76C19.0152 10.8275 19.1775 10.9334 19.3111 11.0701L20.3697 12.1302C20.6368 12.3963 20.7953 12.7534 20.8111 13.1302C20.7953 13.5069 20.6368 13.864 20.3697 14.1302L14.0005 20.5003C13.9083 20.5937 13.7898 20.6567 13.6607 20.6804L11.0806 21.1302H10.9712L10.94 21.2703Z" fill="#7A8091"/>
</svg>
