<svg width="19" height="20" viewBox="0 0 19 20" fill="none" xmlns="http://www.w3.org/2000/svg">
<path fill-rule="evenodd" clip-rule="evenodd" d="M9.43945 0.5C6.95968 0.5 4.58159 1.48482 2.82812 3.23828C1.07466 4.99175 0.0898437 7.36983 0.0898438 9.84961C0.0898437 12.3294 1.07466 14.7084 2.82812 16.4619C4.58159 18.2154 6.95968 19.2002 9.43945 19.2002C11.9192 19.2002 14.2973 18.2154 16.0508 16.4619C17.8042 14.7084 18.7891 12.3294 18.7891 9.84961C18.7891 7.36983 17.8042 4.99175 16.0508 3.23828C14.2973 1.48482 11.9192 0.5 9.43945 0.5ZM9.43945 3.2998C10.259 3.2998 11.0455 3.62559 11.625 4.20508C12.2045 4.78457 12.5293 5.57013 12.5293 6.38965C12.5293 7.20917 12.2045 7.99571 11.625 8.5752C11.0455 9.15468 10.259 9.48047 9.43945 9.48047C8.61993 9.48047 7.83535 9.15468 7.25586 8.5752C6.67637 7.99571 6.34961 7.20917 6.34961 6.38965C6.34961 5.57013 6.67637 4.78457 7.25586 4.20508C7.83535 3.62559 8.61993 3.2998 9.43945 3.2998ZM9.43945 16.7598C7.80033 16.7606 6.21615 16.176 4.9707 15.1104C4.82659 14.9866 4.71025 14.8327 4.63086 14.6602C4.55147 14.4876 4.50997 14.3003 4.50977 14.1104C4.50976 13.6998 4.59063 13.2933 4.74805 12.9141C4.90547 12.5349 5.13696 12.1902 5.42773 11.9004C5.71851 11.6105 6.06367 11.3808 6.44336 11.2246C6.82305 11.0684 7.23006 10.9889 7.64062 10.9902H11.2402C11.6512 10.9876 12.0592 11.0659 12.4395 11.2217C12.8197 11.3774 13.164 11.6073 13.4551 11.8975C13.7461 12.1876 13.9778 12.5323 14.1348 12.9121C14.2917 13.2919 14.3705 13.6994 14.3691 14.1104C14.3689 14.3003 14.3294 14.4876 14.25 14.6602C14.1706 14.8327 14.0543 14.9866 13.9102 15.1104C12.6661 16.1796 11.0799 16.7676 9.43945 16.7695V16.7598Z" fill="#7A8091"/>
</svg>
