<svg width="20" height="19" viewBox="0 0 20 19" fill="none" xmlns="http://www.w3.org/2000/svg">
    <path fill-rule="evenodd" clip-rule="evenodd" d="M18.3242 0H1.66601C1.2242 0 0.800453 0.175635 0.488044 0.488044C0.175635 0.800453 0 1.2242 0 1.66601V12.4941C0 12.9359 0.175635 13.3597 0.488044 13.6721C0.800453 13.9845 1.2242 14.1601 1.66601 14.1601H3.93375C2.89541 13.2501 2.16663 12.0393 1.84829 10.6958C1.52996 9.35232 1.63836 7.94224 2.15798 6.66307H0.833007V3.33203H5.1078C6.09351 2.78552 7.20201 2.49804 8.32909 2.49804C9.45616 2.49804 10.5647 2.78552 11.5504 3.33203H19.1572V6.66307H14.5012C14.9415 7.74374 15.0888 8.92158 14.9285 10.0774C14.7681 11.2333 14.3056 12.3267 13.5878 13.2468L12.9959 12.6548C13.8788 11.4727 14.2811 9.99988 14.1229 8.53293C13.9647 7.06598 13.257 5.71377 12.1423 4.74716C11.0269 3.78154 9.58784 3.27304 8.11348 3.32517C6.63913 3.37729 5.23882 3.98546 4.19443 5.02744C3.15246 6.07182 2.54428 7.47213 2.49216 8.94649C2.44004 10.4209 2.94853 11.8599 3.91415 12.9753C4.88076 14.09 6.23297 14.7977 7.69992 14.9559C9.16687 15.1141 10.6397 14.7119 11.8218 13.8289L16.076 18.0831L17.2511 16.9091L14.511 14.1699H18.334C18.7758 14.1699 19.1995 13.9943 19.512 13.6819C19.8244 13.3695 20 12.9457 20 12.5039V1.67581C20 1.234 19.8244 0.810253 19.512 0.497844C19.1995 0.185435 18.7758 0.00980008 18.334 0.00980008L18.3242 0ZM8.28891 13.3271C7.46613 13.3265 6.66209 13.0817 5.97805 12.6245C5.29401 12.1672 4.76055 11.5175 4.44532 10.7575C4.13072 9.99686 4.04936 9.15993 4.21011 8.35261C4.37086 7.54528 4.76691 6.80424 5.34888 6.22207C5.93105 5.6401 6.67209 5.24307 7.47942 5.08232C8.28675 4.92157 9.12367 5.00391 9.88436 5.3185C10.6444 5.63373 11.2941 6.16719 11.7513 6.85123C12.2085 7.53527 12.4533 8.33932 12.4539 9.16209C12.4435 10.2527 12.0051 11.2956 11.2338 12.0668C10.4626 12.8381 9.41973 13.2765 8.32909 13.2869L8.28891 13.3271Z" fill="#7A8091"/>
    <path d="M8.32812 9.95492C8.78814 9.95492 9.16089 9.58199 9.16089 9.12198C9.16089 8.66196 8.78814 8.28906 8.32812 8.28906C7.86811 8.28906 7.49512 8.66196 7.49512 9.12198C7.49512 9.58199 7.86811 9.95492 8.32812 9.95492Z" fill="#7A8091"/>
    <path d="M10.8291 9.95492C11.2891 9.95492 11.6621 9.58199 11.6621 9.12198C11.6621 8.66196 11.2891 8.28906 10.8291 8.28906C10.3691 8.28906 9.99609 8.66196 9.99609 9.12198C9.99609 9.58199 10.3691 9.95492 10.8291 9.95492Z" fill="#7A8091"/>
    <path d="M5.82715 9.95492C6.28716 9.95492 6.65991 9.58199 6.65991 9.12198C6.65991 8.66196 6.28716 8.28906 5.82715 8.28906C5.36713 8.28906 4.99414 8.66196 4.99414 9.12198C4.99414 9.58199 5.36713 9.95492 5.82715 9.95492Z" fill="#7A8091"/>
</svg>
