<svg width="23" height="18" viewBox="0 0 23 18" fill="none" xmlns="http://www.w3.org/2000/svg">
    <path fill-rule="evenodd" clip-rule="evenodd" d="M19.4324 6.91548H18.3558C18.1448 6.91548 17.9424 6.83169 17.7933 6.68255C17.6442 6.53341 17.5603 6.33113 17.5603 6.12021C17.5603 5.90929 17.6442 5.70695 17.7933 5.55781C17.9424 5.40866 18.1448 5.32487 18.3558 5.32487H19.3437C19.4483 5.31957 19.5529 5.33515 19.6514 5.37064C19.75 5.40613 19.8405 5.46086 19.9177 5.53164C19.9949 5.60242 20.0571 5.68786 20.101 5.78296C20.1449 5.87806 20.1696 5.98092 20.1734 6.0856C20.1814 6.18842 20.1689 6.29179 20.1362 6.38962C20.1036 6.48745 20.0515 6.57779 19.9833 6.65517C19.9152 6.73256 19.8322 6.79545 19.7392 6.84017C19.6463 6.88488 19.5456 6.91051 19.4426 6.91548H19.4324ZM13.9299 0H8.53583C8.09921 0.00142842 7.66963 0.10919 7.28404 0.314033C6.89845 0.518877 6.56825 0.814635 6.32265 1.17563L5.02841 3.15149H2.68739C2.33414 3.15018 1.98411 3.21878 1.6575 3.35336C1.33088 3.48794 1.03416 3.68582 0.784377 3.9356C0.534591 4.18539 0.336718 4.48211 0.202138 4.80872C0.067558 5.13533 -0.00128769 5.48537 1.82366e-05 5.83862V15.3129C-0.00128769 15.6661 0.067558 16.0161 0.202138 16.3427C0.336718 16.6693 0.534591 16.9661 0.784377 17.2159C1.03416 17.4656 1.33088 17.6635 1.6575 17.7981C1.98411 17.9327 2.33414 18.0013 2.68739 18H19.7783C20.1316 18.0013 20.4816 17.9327 20.8082 17.7981C21.1348 17.6635 21.4315 17.4656 21.6813 17.2159C21.9311 16.9661 22.129 16.6693 22.2636 16.3427C22.3981 16.0161 22.467 15.6661 22.4657 15.3129V5.83862C22.467 5.48537 22.3981 5.13533 22.2636 4.80872C22.129 4.48211 21.9311 4.18539 21.6813 3.9356C21.4315 3.68582 21.1348 3.48794 20.8082 3.35336C20.4816 3.21878 20.1316 3.15018 19.7783 3.15149H17.4368L16.1426 1.17563C15.897 0.814635 15.5672 0.518877 15.1817 0.314033C14.7961 0.10919 14.3665 0.00142842 13.9299 0ZM11.2329 15.8068C10.0366 15.8049 8.86788 15.448 7.87448 14.7816C6.88108 14.1152 6.10765 13.1691 5.65213 12.063C5.19662 10.9569 5.07942 9.74055 5.31543 8.56783C5.55144 7.39512 6.1298 6.31874 6.97773 5.47496C7.82566 4.63118 8.90513 4.05792 10.079 3.82767C11.2528 3.59742 12.4686 3.72051 13.5724 4.18144C14.6763 4.64237 15.6185 5.4204 16.2801 6.41706C16.9416 7.41371 17.2926 8.58421 17.2887 9.78043C17.2731 11.3763 16.6283 12.9015 15.4942 14.0244C14.3602 15.1473 12.8288 15.7772 11.2329 15.7771V15.8068Z" fill="#7A8091"/>
    <path fill-rule="evenodd" clip-rule="evenodd" d="M11.2382 6.38184C10.5734 6.3838 9.92428 6.58297 9.37279 6.95413C8.82129 7.32528 8.39193 7.85174 8.13981 8.46683C7.88769 9.08191 7.82417 9.758 7.9565 10.4095C8.08883 11.0609 8.41104 11.6584 8.88317 12.1264C9.35529 12.5944 9.95606 12.9117 10.6087 13.0383C11.2613 13.1648 11.9365 13.095 12.5493 12.8374C13.1621 12.5799 13.6847 12.1462 14.051 11.5915C14.4172 11.0367 14.6106 10.3858 14.6067 9.72103C14.5963 8.83352 14.2375 7.98573 13.6072 7.3609C12.9768 6.73607 12.1257 6.38437 11.2382 6.38184Z" fill="#7A8091"/>
</svg>
