<svg width="19" height="20" viewBox="0 0 19 20" fill="none" xmlns="http://www.w3.org/2000/svg">
<path fill-rule="evenodd" clip-rule="evenodd" d="M9.50001 12.7495C9.14019 12.7495 8.78362 12.6787 8.45118 12.541C8.11875 12.4033 7.81694 12.2012 7.56251 11.9468C7.30808 11.6923 7.10646 11.3905 6.96876 11.0581C6.83106 10.7257 6.75978 10.3691 6.75978 10.0093C6.75978 9.64946 6.83106 9.29337 6.96876 8.96094C7.10646 8.62851 7.30808 8.3267 7.56251 8.07227C7.81694 7.81783 8.11875 7.61573 8.45118 7.47803C8.78362 7.34033 9.14019 7.26953 9.50001 7.26953C9.85983 7.26953 10.2164 7.34033 10.5488 7.47803C10.8813 7.61573 11.1831 7.81783 11.4375 8.07227C11.6919 8.3267 11.8936 8.62851 12.0313 8.96094C12.169 9.29337 12.2402 9.64946 12.2402 10.0093C12.2402 10.3691 12.169 10.7257 12.0313 11.0581C11.8936 11.3905 11.6919 11.6923 11.4375 11.9468C11.1831 12.2012 10.8813 12.4033 10.5488 12.541C10.2164 12.6787 9.85983 12.7495 9.50001 12.7495ZM18.5 8.38965L16.3106 7.84961C16.1896 7.46378 16.0348 7.08894 15.8496 6.72949L16.9707 4.86963C17.0354 4.76546 17.0614 4.64228 17.0469 4.52051C17.0323 4.39873 16.9781 4.2857 16.8906 4.19971L15.3301 2.63965C15.2441 2.55221 15.1315 2.49647 15.0098 2.48193C14.888 2.46739 14.7643 2.49484 14.6602 2.55957L12.8008 3.67969C12.4413 3.49461 12.0655 3.34075 11.6797 3.21973L11.1504 1.0293C11.1195 0.909456 11.0489 0.803527 10.9512 0.727539C10.8535 0.651551 10.7332 0.609865 10.6094 0.609375H8.41993C8.29616 0.609865 8.17584 0.651551 8.07814 0.727539C7.98044 0.803527 7.91181 0.909456 7.88087 1.0293L7.34962 3.21973C6.96379 3.34066 6.58993 3.49452 6.23048 3.67969L4.36915 2.55957C4.26499 2.49484 4.14327 2.46739 4.0215 2.48193C3.89972 2.49647 3.78523 2.55221 3.69923 2.63965L2.14064 4.19971C2.0532 4.2857 1.99697 4.39873 1.98243 4.52051C1.96789 4.64228 1.99583 4.76546 2.06056 4.86963L3.1797 6.72949C2.99453 7.08894 2.84165 7.46378 2.72071 7.84961L0.609386 8.38965C0.489497 8.41697 0.383022 8.48419 0.306652 8.58057C0.230282 8.67694 0.188667 8.79647 0.189464 8.91943V11.1094C0.188667 11.2323 0.230282 11.3519 0.306652 11.4482C0.383022 11.5446 0.489497 11.6123 0.609386 11.6396L2.72071 12.1797C2.84141 12.5656 2.9943 12.94 3.1797 13.2993L2.06056 15.1597C1.99583 15.2638 1.96789 15.387 1.98243 15.5088C1.99697 15.6306 2.0532 15.7436 2.14064 15.8296L3.69923 17.3896C3.78523 17.4771 3.89972 17.5323 4.0215 17.5469C4.14327 17.5614 4.26499 17.5345 4.36915 17.4697L6.23048 16.3496C6.58983 16.535 6.9637 16.6889 7.34962 16.8096L7.88087 18.9297C7.91181 19.0495 7.98044 19.1555 8.07814 19.2314C8.17584 19.3074 8.29616 19.3491 8.41993 19.3496H10.6094C10.7332 19.3491 10.8535 19.3074 10.9512 19.2314C11.0489 19.1555 11.1195 19.0495 11.1504 18.9297L11.6797 16.8096C12.0655 16.6886 12.4413 16.5347 12.8008 16.3496L14.6602 17.4697C14.7643 17.5345 14.888 17.5614 15.0098 17.5469C15.1315 17.5323 15.2441 17.4771 15.3301 17.3896L16.8906 15.8296C16.9781 15.7436 17.0323 15.6306 17.0469 15.5088C17.0614 15.387 17.0354 15.2638 16.9707 15.1597L15.8496 13.2993C16.035 12.94 16.1899 12.5656 16.3106 12.1797L18.5 11.6396C18.6199 11.6123 18.7264 11.5446 18.8027 11.4482C18.8791 11.3519 18.9207 11.2323 18.9199 11.1094V8.91943C18.9178 8.78462 18.866 8.65569 18.7734 8.55762C18.6809 8.45954 18.5544 8.39962 18.4199 8.38965H18.5Z" fill="#7A8091"/>
</svg>
