<svg width="19" height="20" viewBox="0 0 19 20" fill="none" xmlns="http://www.w3.org/2000/svg">
<path fill-rule="evenodd" clip-rule="evenodd" d="M18.8398 9.97119C18.8372 7.49223 17.8505 5.1152 16.0977 3.3623C14.3448 1.60941 11.9692 0.623741 9.49023 0.621094C7.01127 0.623741 4.63375 1.60941 2.88086 3.3623C1.12797 5.1152 0.143272 7.49223 0.140625 9.97119C0.140238 11.6424 0.588075 13.2831 1.43945 14.7212L0.179688 19.2808L4.74023 18.021C6.17837 18.8724 7.81898 19.3212 9.49023 19.3208C11.9692 19.3182 14.3448 18.3325 16.0977 16.5796C17.8505 14.8267 18.8372 12.4502 18.8398 9.97119ZM8.06055 7.79102H6.63086C6.63086 7.02984 6.93247 6.29995 7.4707 5.76172C8.00893 5.22349 8.73883 4.9209 9.5 4.9209C10.2612 4.9209 10.9911 5.22349 11.5293 5.76172C12.0675 6.29995 12.3691 7.02984 12.3691 7.79102C12.3692 8.1895 12.287 8.58382 12.127 8.94873C11.9669 9.31364 11.7327 9.64133 11.4395 9.91113L10.2207 11.0308V12.1509H8.78906V10.4009L10.4805 8.86084C10.629 8.72717 10.7471 8.56401 10.8281 8.38135C10.9091 8.19869 10.9499 8.00059 10.9492 7.80078C10.9466 7.42233 10.795 7.06009 10.5273 6.79248C10.2597 6.52487 9.89798 6.37371 9.51953 6.37109C9.14108 6.37371 8.77933 6.52487 8.51172 6.79248C8.24411 7.06009 8.09246 7.42233 8.08984 7.80078L8.06055 7.79102ZM8.7793 13.5811H10.2109V15.0107H8.7793V13.5811Z" fill="#7A8091"/>
</svg>
