<svg width="83" height="92" viewBox="0 0 83 92" fill="none" xmlns="http://www.w3.org/2000/svg">
<path fill-rule="evenodd" clip-rule="evenodd" d="M47.6798 40.73C47.6798 31.6967 46.2865 24.0969 43.4998 17.9302C40.997 12.0593 36.6701 7.15035 31.1598 3.93023C26.6698 1.34023 23.4598 0.580229 20.8198 1.93023L20.4698 2.04986L19.9498 2.35992L19.7398 2.4898L7.33984 9.85992L14.7698 17.0298C14.6898 18.4798 14.6398 20.0302 14.6398 21.6802C14.6398 30.6402 16.0265 38.1901 18.7998 44.3301C20.9853 49.372 24.5137 53.7167 28.9998 56.8902L29.1098 67.7598L42.2198 60.0201C42.7296 59.7323 43.1974 59.3755 43.6098 58.96C46.3231 56.1467 47.6798 50.07 47.6798 40.73Z" fill="#AEC2D4" stroke="#AEC2D4" stroke-width="0.216" stroke-miterlimit="22.9256"/>
<path fill-rule="evenodd" clip-rule="evenodd" d="M8.16949 9.93034L15.2895 16.8V17.0299C15.2095 18.4899 15.1595 20.0301 15.1595 21.6501C15.1595 30.4901 16.5395 38.05 19.2795 44.09C21.4255 49.0435 24.8832 53.3175 29.2795 56.4504L29.4895 56.6003L29.5995 66.86L41.9595 59.5402C42.4308 59.2682 42.8616 58.9316 43.2395 58.5402C45.8395 55.8702 47.1595 49.8704 47.1595 40.7004C47.1595 31.7804 45.7695 24.1803 43.0295 18.1003C40.554 12.3414 36.2996 7.52611 30.8895 4.36002C26.4295 1.79002 23.3895 1.16002 21.0295 2.36002L20.6195 2.50993L19.9795 2.90006L8.14954 9.90006L8.16949 9.93034ZM28.6295 68.61L28.5095 57.13C24.0497 53.9008 20.5405 49.5316 18.3495 44.4801C15.5595 38.3001 14.1395 30.6103 14.1395 21.6203C14.1395 20.0803 14.1395 18.6203 14.2595 17.1803L6.51953 9.71012L19.5195 2.00016L19.6595 1.92008L20.2495 1.56998L20.6995 1.41032C23.3295 0.100316 26.6995 0.729906 31.4495 3.48991C37.0417 6.7618 41.4397 11.7382 43.9995 17.6901C46.7995 23.9001 48.2195 31.6901 48.2195 40.6901C48.2195 50.2601 46.8395 56.3201 44.0095 59.2301C43.6413 59.6118 43.2283 59.9475 42.7795 60.2301L42.5195 60.4103L28.6295 68.61Z" fill="#150035"/>
<path fill-rule="evenodd" clip-rule="evenodd" d="M11.1407 22.8901L10.4707 51.9902L17.0007 59.29L24.8807 60.48L25.4707 54.3398L23.8807 22.1602L17.9707 17.2202L11.1407 22.8901Z" fill="#AEC2D4" stroke="#AEC2D4" stroke-width="0.216" stroke-miterlimit="22.9256"/>
<path fill-rule="evenodd" clip-rule="evenodd" d="M15.0008 49.07L21.9408 44.8703C21.9408 44.8703 26.3908 38.5802 26.3908 38.3302C26.3908 38.0802 21.4508 20.3302 21.4508 20.3302C21.4508 20.3302 14.0208 16.8101 13.5008 16.7301C12.9808 16.6501 9.30078 24.1899 9.30078 25.9899C9.30078 27.7899 9.6308 40.9903 9.6308 41.4503C9.6308 41.9103 11.5608 49.4503 11.5608 49.4503L12.9008 49.7003L15.0008 49.07Z" fill="#150035"/>
<path fill-rule="evenodd" clip-rule="evenodd" d="M23.6397 45.5898L16.4297 50.2002C16.4297 50.2002 19.5297 56.4 23.6397 52.71C27.7497 49.02 23.6397 45.5898 23.6397 45.5898Z" fill="#FDFDFD"/>
<path fill-rule="evenodd" clip-rule="evenodd" d="M13.4894 36.7C13.4894 42.7 13.8228 46.9933 14.4894 49.5799C15.1561 52.1666 16.2394 53.913 17.7394 54.8197C19.2794 55.713 20.3695 55.1863 21.0095 53.2396C21.6495 51.2929 21.9828 47.4066 22.0095 41.5799C22.1316 37.27 21.7964 32.9593 21.0095 28.7201C20.3428 26.0001 19.2595 24.1997 17.7595 23.3197C16.2595 22.4397 15.1761 22.9464 14.5095 24.8397C13.8428 26.733 13.5095 30.6898 13.5095 36.7098L13.4894 36.7ZM34.2294 48.7C34.2294 58.0334 32.8728 64.0966 30.1594 66.89C27.4461 69.6833 23.2961 69.4601 17.7095 66.2201C12.201 63.0193 7.86767 58.1317 5.34943 52.2796C2.57609 46.1396 1.18945 38.5897 1.18945 29.6297C1.18945 20.2364 2.54613 14.133 5.25946 11.3197C7.97279 8.50634 12.1228 8.71002 17.7095 11.93C23.2193 15.1507 27.546 20.0595 30.0494 25.93C32.8428 32.0634 34.2394 39.6431 34.2394 48.6698L34.2294 48.7Z" fill="#AEC2D4" stroke="#AEC2D4" stroke-width="0.216" stroke-miterlimit="22.9256"/>
<path fill-rule="evenodd" clip-rule="evenodd" d="M30.3398 7.06011C25.8498 4.47011 22.6398 3.71011 19.9998 5.06011L19.6498 5.18023L19.1298 5.4898L18.9097 5.62017L6.50977 12.9898C9.10977 11.8798 12.5098 12.5501 16.8698 15.0401C20.8103 17.3148 24.1552 20.4918 26.6298 24.3101L40.0997 16.4C37.6344 12.5556 34.2888 9.35407 30.3398 7.06011Z" fill="#FDFDFD"/>
<path fill-rule="evenodd" clip-rule="evenodd" d="M20.5095 53.0802C20.2195 53.9602 19.8495 54.5001 19.3995 54.6701C19.1546 54.7309 18.8991 54.7363 18.6518 54.6862C18.4044 54.636 18.1714 54.5315 17.9695 54.38C16.5795 53.58 15.5595 51.9201 14.9695 49.4601C14.3795 47.0001 13.9695 42.6103 13.9695 36.7003C13.9695 30.7903 14.2895 26.8199 14.9095 24.9899C15.1995 24.1399 15.5695 23.6201 16.0195 23.4601C16.1348 23.4182 16.2569 23.3978 16.3795 23.4C16.7603 23.4228 17.1289 23.5435 17.4495 23.7501C18.8395 24.5501 19.8595 26.2602 20.4495 28.8302C21.2289 33.03 21.5641 37.3 21.4495 41.57C21.4495 47.31 21.1395 51.18 20.5195 53.07L20.5095 53.0802ZM17.9995 22.88C17.6712 22.6519 17.2956 22.501 16.9008 22.4386C16.5059 22.3763 16.1021 22.4043 15.7195 22.5202C15.2942 22.7297 14.9209 23.0315 14.6268 23.4035C14.3328 23.7754 14.1253 24.2079 14.0195 24.6701C13.3495 26.6701 13.0195 30.5601 13.0195 36.6701C13.0195 42.7801 13.3495 47.0301 14.0195 49.6701C14.6895 52.3101 15.8695 54.2803 17.5095 55.2203C17.9812 55.5177 18.5224 55.6863 19.0795 55.7101C19.3255 55.7114 19.5695 55.6674 19.7995 55.5802C20.2325 55.3617 20.611 55.0489 20.9069 54.6647C21.2029 54.2805 21.4088 53.8344 21.5095 53.36C22.1695 51.36 22.5095 47.4799 22.5095 41.5499C22.6346 37.1935 22.2994 32.836 21.5095 28.5499C20.7895 25.7499 19.6095 23.83 17.9995 22.88Z" fill="#150035"/>
<path fill-rule="evenodd" clip-rule="evenodd" d="M18.0005 65.76C12.5894 62.6013 8.33162 57.7936 5.85046 52.0403C3.12046 46.0403 1.73047 38.4403 1.73047 29.6003C1.73047 20.3903 3.05046 14.3403 5.66046 11.6003C6.22399 11.0106 6.90501 10.5456 7.65948 10.2356C8.41396 9.92551 9.22509 9.77694 10.0405 9.80002C12.1205 9.80002 14.6105 10.63 17.4905 12.3C22.9006 15.4661 27.1549 20.2814 29.6305 26.0403C32.3705 32.1203 33.7605 39.7204 33.7605 48.6404C33.7605 57.8004 32.4405 63.8002 29.8405 66.4802C27.2405 69.1602 23.3405 68.8102 18.0005 65.7302V65.76ZM47.2105 29.8801L44.7005 22.4001L32.0805 29.7004C31.6385 28.3407 31.1244 27.0055 30.5405 25.7004C27.9862 19.7429 23.5917 14.7595 18.0005 11.4802C12.2105 8.1302 7.82049 7.96041 4.94049 10.9504C2.06049 13.9404 0.730469 19.9501 0.730469 29.6101C0.730469 38.6101 2.15049 46.2904 4.94049 52.4704C7.50829 58.4127 11.9094 63.3779 17.5005 66.6404C20.5738 68.4137 23.2405 69.3 25.5005 69.3C26.4323 69.3167 27.3575 69.1409 28.2179 68.7829C29.0783 68.425 29.8555 67.8931 30.5005 67.2204C30.8055 66.9089 31.0863 66.5746 31.3405 66.2204L39.9905 61.3401L44.6205 57.6501L46.7105 51.6501L47.6405 42.6501L47.2105 29.8801Z" fill="#150035"/>
<path fill-rule="evenodd" clip-rule="evenodd" d="M68.4808 48.54C71.0707 50.0639 73.3532 52.058 75.2109 54.4199C77.2208 56.9244 78.7991 59.7465 79.8809 62.77C80.9825 65.7817 81.5477 68.9631 81.5508 72.1699C81.5508 77.7433 80.0975 81.1831 77.1909 82.4897C74.2842 83.7964 69.8842 82.7465 63.9908 79.3398C59.3612 76.7609 55.1858 73.4401 51.6309 69.5098V58.48C53.4427 60.4751 55.3836 62.349 57.4409 64.0898C59.1743 65.6165 61.0381 66.9885 63.0109 68.1899C65.1775 69.4433 66.8442 69.8764 68.0109 69.4897C69.1775 69.1031 69.7575 67.8731 69.7509 65.7998C69.7339 63.8291 69.1164 61.9105 67.9808 60.2998C66.5676 58.3424 64.7279 56.7319 62.6008 55.5898C60.7557 54.5254 58.7494 53.769 56.6608 53.3501L52.3708 48.4199L54.0009 23L78.6608 37.2397V48.48L63.9409 39.98L63.4108 46.2598C64.531 46.6337 65.6266 47.078 66.6909 47.5898C67.3309 47.9032 67.9275 48.22 68.4808 48.54Z" fill="#AEC2D4"/>
<path fill-rule="evenodd" clip-rule="evenodd" d="M52.1208 69.3198C55.618 73.1443 59.7067 76.3826 64.2308 78.9102C69.9508 82.2102 74.2308 83.26 76.9808 82.04C79.7308 80.82 81.0508 77.5102 81.0508 72.1802C81.0451 69.0315 80.4901 65.9081 79.4108 62.9502C78.3443 59.9821 76.7933 57.211 74.8209 54.75C73.0002 52.4382 70.7655 50.4847 68.2308 48.9897C67.6908 48.6797 67.0909 48.3497 66.4409 47.9897C65.3956 47.49 64.3201 47.056 63.2208 46.6899L62.8608 46.5601L63.4908 39.1099L78.1509 47.5698V37.48L54.4409 23.79L52.8809 48.2002L56.8809 52.8501C58.9642 53.2866 60.9655 54.0491 62.8109 55.1099C65.0037 56.2905 66.9011 57.9523 68.3608 59.9702C69.5501 61.6612 70.1987 63.6726 70.2208 65.7397C70.2208 68.0397 69.5209 69.4399 68.1309 69.8999C66.7409 70.3599 65.0508 69.9001 62.7308 68.5601C60.7297 67.341 58.8392 65.9488 57.0809 64.3999C55.3304 62.9213 53.6613 61.349 52.0809 59.6899V69.29L52.1208 69.3198ZM74.4009 83.54C71.6109 83.54 68.0908 82.2898 63.7308 79.7798C59.0579 77.1672 54.8426 73.8098 51.2509 69.8398L51.1309 69.7002V57.1499L52.0009 58.1499C53.7981 60.1263 55.7222 61.9837 57.7609 63.71C59.473 65.2173 61.3133 66.5722 63.2609 67.7598C65.2609 68.9298 66.8308 69.35 67.8508 69.02C68.8708 68.69 69.2509 67.6301 69.2509 65.8101C69.2297 63.939 68.6403 62.1183 67.5609 60.5898C66.1879 58.6948 64.4032 57.1357 62.3409 56.0298C60.5416 54.9946 58.5861 54.2586 56.5508 53.8501H56.3909L51.8608 48.6401V48.4399L53.9808 22.4399L79.1409 36.9702V48.77L78.6409 49.0601L64.3508 40.8101L63.9208 45.9302C64.9456 46.2771 65.9475 46.6879 66.9208 47.1602C67.5808 47.5102 68.1808 47.8402 68.7408 48.1602C71.3829 49.7171 73.7125 51.7517 75.6108 54.1602C77.6522 56.7084 79.2573 59.577 80.3608 62.6499C81.4793 65.7169 82.0546 68.9557 82.0609 72.2202C82.0609 77.9802 80.4908 81.6097 77.4108 82.9897C76.4607 83.3815 75.4379 83.5656 74.4108 83.5298L74.4009 83.54Z" fill="#1C2A40"/>
<path fill-rule="evenodd" clip-rule="evenodd" d="M53.9902 22.9702L40.6602 30.8501L65.3202 45.0801L78.6502 37.21L53.9902 22.9702Z" fill="#AEC2D4"/>
<path fill-rule="evenodd" clip-rule="evenodd" d="M38.2891 66.3198L51.1091 58.9399L59.6491 68.6602V78.79L50.0591 81.3701C50.0591 81.3701 42.8091 75.3701 42.4691 74.6401C42.1291 73.9101 39.3091 72.1499 39.3091 72.1499L38.2891 66.3198Z" fill="#AEC2D4"/>
<path fill-rule="evenodd" clip-rule="evenodd" d="M39.7698 71.8398C40.6198 72.3698 42.5897 73.6702 42.9297 74.4302C45.2374 76.6777 47.6571 78.8069 50.1797 80.8101L59.1797 78.3999V68.8398L51.0298 59.5698L38.8698 66.5698L39.7997 71.8301L39.7698 71.8398ZM49.9398 81.9102L49.7397 81.75C47.5297 79.93 42.3598 75.6098 42.0198 74.8398C41.136 73.9408 40.1253 73.1759 39.0198 72.5698L38.8298 72.4502L37.7598 66.3599V66.0298L51.1797 58.2998L60.1097 68.4702V79.1802L49.9398 81.9102Z" fill="#150035"/>
<path fill-rule="evenodd" clip-rule="evenodd" d="M75.2102 54.48C73.3526 52.118 71.07 50.124 68.4802 48.6001C67.9268 48.2801 67.3268 47.9468 66.6802 47.6001C65.616 47.088 64.5205 46.6437 63.4002 46.27L52.4002 48.4399L46.9102 55.4399L61.3102 66.2397L64.0202 79.4199L64.1302 79.48L64.4402 90.1699L78.0102 82.1699C80.3902 80.6199 81.5802 77.3501 81.5802 72.3101C81.5771 69.1032 81.0118 65.9218 79.9102 62.9102C78.8271 59.8566 77.2383 57.0067 75.2102 54.48Z" fill="#AEC2D4"/>
<path fill-rule="evenodd" clip-rule="evenodd" d="M64.4299 79.0298L64.5499 79.3599L64.83 89.2002L77.6599 81.5898C79.8799 80.1398 81.0099 76.9601 81.0099 72.1401C81.0042 68.9915 80.4492 65.868 79.3699 62.9102C78.3034 59.9421 76.7524 57.171 74.78 54.71C72.9593 52.3981 70.7246 50.4452 68.1899 48.9502C67.6433 48.6369 67.0466 48.3035 66.4 47.9502C65.3971 47.4666 64.365 47.0455 63.3099 46.6899L52.5999 48.7998L47.5399 55.23L61.6799 65.8398L64.3799 78.9897L64.4299 79.0298ZM64.83 90.4102L63.4999 79.4102L60.83 66.4102L46.1699 55.4102L52.09 47.8999L63.4299 45.6699H63.5599C64.7046 46.0509 65.8236 46.5051 66.9099 47.0298C67.5699 47.3798 68.1699 47.7098 68.7299 48.0298C71.3723 49.5863 73.7019 51.621 75.5999 54.0298C77.6413 56.578 79.2463 59.4471 80.3499 62.52C81.4684 65.587 82.0437 68.8253 82.0499 72.0898C82.0499 77.0898 80.8499 80.51 78.4799 82.21L78.2299 82.3799L64.83 90.4102Z" fill="#150035"/>
<path fill-rule="evenodd" clip-rule="evenodd" d="M43.1699 68.0601C43.1699 68.0601 51.2599 77.1601 54.9699 76.0601C58.6799 74.9601 57.2399 68.0601 57.2399 68.0601L52.3699 62.8398L43.1699 68.0601Z" fill="#F2F4F9"/>
<path fill-rule="evenodd" clip-rule="evenodd" d="M55.1508 56.4199C57.7406 57.944 60.023 59.938 61.8808 62.2998C63.8909 64.8041 65.4692 67.6263 66.5508 70.6499C67.653 73.6614 68.2183 76.8429 68.2208 80.0498C68.2208 85.6298 66.7674 89.0701 63.8608 90.3701C60.9541 91.6701 56.5541 90.6202 50.6608 87.2202C46.0309 84.6416 41.8554 81.3207 38.3008 77.3901V66.3301C40.1126 68.3252 42.0534 70.1991 44.1108 71.9399C45.8441 73.4668 47.7079 74.8388 49.6808 76.04C51.8475 77.2934 53.5141 77.7265 54.6808 77.3398C55.8475 76.9532 56.4308 75.7232 56.4308 73.6499C56.4138 71.6792 55.7963 69.7606 54.6608 68.1499C53.2457 66.1942 51.4065 64.584 49.2808 63.4399C47.4352 62.3788 45.4288 61.6256 43.3408 61.21L39.0508 56.2798L40.6708 30.8599L65.3308 45.1001V56.3301L50.6108 47.8301L50.0808 54.1099C51.2012 54.4832 52.2968 54.9275 53.3608 55.4399C54.0008 55.7733 54.5975 56.0999 55.1508 56.4199Z" fill="#AEC2D4"/>
<path fill-rule="evenodd" clip-rule="evenodd" d="M53.9902 27.02L40.6602 34.8999L65.3202 49.1401L78.6502 41.2598L53.9902 27.02Z" fill="#F2F4F9"/>
<path fill-rule="evenodd" clip-rule="evenodd" d="M63.6501 89.9102C60.9101 91.1402 56.6501 90.0898 50.9001 86.7798C46.376 84.2521 42.2873 81.0143 38.79 77.1899V67.5898C40.3711 69.2483 42.0402 70.8205 43.79 72.2998C45.5479 73.8493 47.4385 75.2415 49.4401 76.46C51.7601 77.8 53.5301 78.2398 54.8401 77.7998C56.1501 77.3598 56.9301 75.9401 56.9301 73.6401C56.9106 71.5694 56.2619 69.5533 55.0701 67.8599C53.6101 65.8422 51.7128 64.1809 49.5201 63C47.6748 61.9391 45.6734 61.1761 43.5901 60.7397L39.5901 56.0898L41.1501 31.6802L64.86 45.3701V55.48L56.5801 50.7002L50.2101 47.02L49.6201 54.02V54.3901L50.2001 54.6699C51.224 55.0152 52.2258 55.4228 53.2001 55.8901C53.8667 56.2301 54.46 56.5635 54.98 56.8901C57.5147 58.3851 59.7494 60.3381 61.5701 62.6499C63.5436 65.1102 65.0946 67.8815 66.16 70.8501C67.2395 73.8079 67.7945 76.9314 67.8 80.0801C67.8 85.4201 66.43 88.7399 63.73 89.9399L63.6501 89.9102ZM54.0001 23.5498L41.6501 30.8501L65.3201 44.48L75.54 38.48L77.66 37.23L54.0001 23.5498ZM79.8801 62.77L66.8801 70.0498C65.7894 67.1347 64.2436 64.4111 62.3 61.98C60.405 59.5721 58.0788 57.5375 55.4401 55.98C54.8801 55.66 54.2701 55.32 53.6201 54.98C52.8472 54.5998 52.0525 54.2659 51.2401 53.98L55.6201 51.2598L65.3701 56.8901L79.2001 48.7202V36.9199L54.0001 22.3901L40.1901 30.5498L38.55 56.23V56.4399L43.0801 61.6499H43.2501C45.2852 62.0588 47.2406 62.7952 49.04 63.8301C51.1012 64.9377 52.8856 66.4965 54.2601 68.3901C55.3389 69.9189 55.9283 71.7389 55.9501 73.6099C55.9501 75.4299 55.48 76.5201 54.55 76.8301C53.62 77.1401 51.9901 76.7398 49.9601 75.5698C48.0124 74.3824 46.1721 73.0274 44.4601 71.52C42.4214 69.7937 40.4973 67.9364 38.7001 65.96L38.4301 65.6602L37.8301 66V77.54L37.9501 77.6802C41.5423 81.6497 45.7576 85.007 50.4301 87.6201C54.7901 90.1401 58.32 91.3799 61.1 91.3799C62.1307 91.3999 63.1537 91.1989 64.1 90.79C65.0694 90.3404 65.9089 89.6523 66.54 88.79L79.1901 81L81.0901 77L81.5901 70.48L79.8801 62.77Z" fill="#150035"/>
</svg>
