<svg width="85" height="93" viewBox="0 0 85 93" fill="none" xmlns="http://www.w3.org/2000/svg">
<path fill-rule="evenodd" clip-rule="evenodd" d="M47.0602 40.2203C47.0602 31.1736 45.6668 23.5599 42.8802 17.3799C40.3691 11.508 36.0356 6.59951 30.5201 3.37994C26.0301 0.789936 22.8002 0.0299361 20.1702 1.37994L19.8202 1.50005L19.3001 1.81011L19.0801 1.93999L6.66016 9.31988L14.1002 16.5001C14.0202 17.9501 13.9702 19.5 13.9702 21.15C13.9702 30.1233 15.3602 37.6866 18.1402 43.8399C20.3307 48.8899 23.8659 53.2415 28.3601 56.42L28.4702 67.3101L41.6002 59.48C42.1098 59.2113 42.5807 58.875 43.0002 58.48C45.7068 55.66 47.0602 49.5736 47.0602 40.2203Z" fill="#AEC2D4" stroke="#AEC2D4" stroke-width="0.216" stroke-miterlimit="22.9256"/>
<path fill-rule="evenodd" clip-rule="evenodd" d="M7.48938 9.37015L14.6194 16.25V16.48C14.5394 17.95 14.4894 19.4799 14.4894 21.1099C14.4894 29.9699 15.8794 37.5299 18.6094 43.5899C20.754 48.5497 24.2116 52.8305 28.6094 55.9702L28.8194 56.1202L28.9294 66.3902L41.3094 59.0498C41.7841 58.7785 42.2183 58.4419 42.5994 58.0498C45.2094 55.3698 46.5294 49.36 46.5294 40.19C46.5294 31.26 45.1394 23.6401 42.3894 17.5601C39.9092 11.7928 35.6479 6.97055 30.2294 3.79984C25.7594 1.21984 22.7194 0.599838 20.3594 1.79984L19.9394 1.95023L19.2994 2.33988L7.4494 9.33988L7.48938 9.37015ZM27.9994 68.1402L27.8794 56.6402C23.415 53.4149 19.8991 49.0492 17.6994 44C14.8994 37.81 13.4894 30.1099 13.4894 21.1099C13.4894 19.5699 13.4894 18.1102 13.6094 16.6602L5.85938 9.18021L18.8594 1.45999L18.9994 1.37992L19.5894 1.02982L20.0394 0.859897C22.6794 -0.450103 26.0394 0.179975 30.8094 2.93998C36.41 6.2165 40.8149 11.1998 43.3794 17.1602C46.1894 23.3802 47.6094 31.1602 47.6094 40.1602C47.6094 49.7402 46.2294 55.82 43.3994 58.73C43.0311 59.1116 42.6181 59.4474 42.1694 59.73L41.9094 59.9102L27.9994 68.1402Z" fill="#150035"/>
<path fill-rule="evenodd" clip-rule="evenodd" d="M10.459 22.3501L9.78906 51.5L16.329 58.7998L24.2191 60L24.8091 53.8501L23.2191 21.6201L17.299 16.6699L10.459 22.3501Z" fill="#AEC2D4" stroke="#AEC2D4" stroke-width="0.216" stroke-miterlimit="22.9256"/>
<path fill-rule="evenodd" clip-rule="evenodd" d="M14.3295 48.57L21.2795 44.3703C21.2795 44.3703 25.7296 38.07 25.7296 37.82C25.7296 37.57 20.7296 19.82 20.7296 19.82C20.7296 19.82 13.2896 16.2901 12.7296 16.2101C12.1696 16.1301 8.51953 23.6801 8.51953 25.4801C8.51953 27.2801 8.85953 40.4804 8.85953 40.9704C8.85953 41.4604 10.7896 49.0299 10.7896 49.0299L12.1295 49.2799L14.3295 48.57Z" fill="#150035"/>
<path fill-rule="evenodd" clip-rule="evenodd" d="M22.9993 45.0801L15.7793 49.7002C15.7793 49.7002 18.8793 55.9102 22.9993 52.2202C27.1193 48.5302 22.9993 45.0801 22.9993 45.0801Z" fill="#FDFDFD"/>
<path fill-rule="evenodd" clip-rule="evenodd" d="M12.82 36.1803C12.82 42.1803 13.1533 46.4802 13.82 49.0802C14.4867 51.6802 15.5733 53.4302 17.08 54.3302C18.6267 55.2236 19.7167 54.6968 20.35 52.7502C20.9833 50.8035 21.3167 46.91 21.35 41.07C21.4724 36.7534 21.1372 32.4361 20.35 28.1901C19.6833 25.4634 18.5967 23.6599 17.09 22.7799C15.5833 21.8999 14.4967 22.4066 13.83 24.3C13.1633 26.1933 12.83 30.1568 12.83 36.1901L12.82 36.1803ZM33.59 48.1803C33.59 57.5137 32.2333 63.5867 29.52 66.4001C26.8067 69.2134 22.65 68.9901 17.05 65.7301C11.5266 62.5144 7.18572 57.6055 4.67001 51.7301C1.89001 45.5768 0.5 38.0135 0.5 29.0402C0.5 19.6335 1.85999 13.5204 4.57999 10.7004C7.29999 7.88036 11.4567 8.08355 17.05 11.3102C22.5654 14.5298 26.8989 19.4382 29.41 25.3102C32.1967 31.5102 33.59 39.1301 33.59 48.1701V48.1803Z" fill="#AEC2D4" stroke="#AEC2D4" stroke-width="0.216" stroke-miterlimit="22.9256"/>
<path fill-rule="evenodd" clip-rule="evenodd" d="M29.6901 6.48003C25.2001 3.89003 21.9701 3.13003 19.3401 4.48003L18.9901 4.60015L18.4701 4.91021L18.2501 5.04009L5.83008 12.42C8.43008 11.31 11.8901 11.9803 16.2001 14.4703C20.1493 16.7494 23.5012 19.9329 25.9801 23.7598L39.4701 15.8399C37.0004 11.9869 33.6477 8.77835 29.6901 6.48003Z" fill="#FDFDFD"/>
<path fill-rule="evenodd" clip-rule="evenodd" d="M19.8503 52.5897C19.5603 53.4697 19.1903 54.01 18.7403 54.18C18.4954 54.2409 18.24 54.2463 17.9926 54.1962C17.7453 54.146 17.5122 54.0415 17.3103 53.89C15.9203 53.08 14.9003 51.4198 14.3103 48.9598C13.7203 46.4998 13.3103 42.1 13.3103 36.18C13.3103 30.26 13.6303 26.2898 14.2503 24.4598C14.5403 23.6098 14.9203 23.09 15.3603 22.93C15.4756 22.8881 15.5976 22.8677 15.7203 22.87C16.1011 22.8928 16.4696 23.0134 16.7903 23.2201C18.1803 24.0301 19.2003 25.7399 19.7903 28.3099C20.5702 32.5164 20.9054 36.7931 20.7903 41.0697C20.7903 46.8197 20.4803 50.6997 19.8603 52.5897H19.8503ZM17.3103 22.3397C16.9817 22.1123 16.6061 21.9621 16.2114 21.8998C15.8167 21.8374 15.413 21.8647 15.0303 21.9798C14.6035 22.1888 14.2286 22.4903 13.9329 22.8622C13.6371 23.2341 13.4278 23.6669 13.3203 24.1298C12.6503 26.1298 12.3203 30.0298 12.3203 36.1298C12.3203 42.2298 12.6503 46.5098 13.3203 49.1298C13.9903 51.7498 15.1803 53.7498 16.8203 54.6898C17.2949 54.9888 17.8398 55.158 18.4003 55.18C18.6463 55.1814 18.8903 55.1369 19.1203 55.0497C19.5529 54.8306 19.931 54.5178 20.2269 54.1337C20.5228 53.7495 20.7289 53.3041 20.8303 52.8299C21.4903 50.8299 21.8303 46.9399 21.8303 40.9999C21.9548 36.6434 21.6196 32.286 20.8303 27.9999C20.1203 25.2099 18.9403 23.2897 17.3003 22.3397H17.3103Z" fill="#150035"/>
<path fill-rule="evenodd" clip-rule="evenodd" d="M17.3 65.2903C11.8805 62.1269 7.61581 57.3118 5.13 51.55C2.39 45.49 1 37.93 1 29.07C1 19.84 2.31999 13.79 4.92999 11.07C5.49504 10.4795 6.17775 10.0144 6.93396 9.70432C7.69017 9.39425 8.50305 9.24637 9.32001 9.27024C11.4 9.27024 13.9 10.1102 16.79 11.7702C22.2292 14.9347 26.5091 19.7615 29 25.5403C31.75 31.6303 33.14 39.2401 33.14 48.1701C33.14 57.3501 31.82 63.3603 29.21 66.0403C26.6 68.7203 22.7 68.3803 17.35 65.2903H17.3ZM46.56 29.3503L44.05 21.8601L31.41 29.1804C30.968 27.8207 30.4539 26.4855 29.87 25.1804C27.3055 19.22 22.9006 14.2367 17.3 10.9602C11.5 7.61018 7.09999 7.44039 4.20999 10.4304C1.31999 13.4204 0 19.48 0 29.07C0 38.07 1.41999 45.7702 4.20999 51.9602C6.78244 57.9109 11.1905 62.883 16.79 66.1501C19.87 67.9235 22.5367 68.8103 24.79 68.8103C25.7217 68.8263 26.6467 68.6496 27.507 68.2917C28.3674 67.9338 29.1446 67.4023 29.79 66.7302C30.0949 66.4186 30.3757 66.0843 30.63 65.7302L39.3 60.8401L43.94 57.1501L46.04 51.1501L46.97 42.1501L46.56 29.3503Z" fill="#150035"/>
<path fill-rule="evenodd" clip-rule="evenodd" d="M54.6309 35.1899L68.7108 27.1299L79.6108 33.4199L65.5309 41.48L54.6309 35.1899Z" fill="#AEC2D4" stroke="#AEC2D4" stroke-width="0.216" stroke-miterlimit="22.9256"/>
<path fill-rule="evenodd" clip-rule="evenodd" d="M65.5293 91.9102L79.6093 83.8501V74.0898L65.5293 82.1499V91.9102Z" fill="#150035"/>
<path fill-rule="evenodd" clip-rule="evenodd" d="M66.0002 82.48V91.0801L79.0703 83.5898V74.9897L66.0002 82.48ZM65.4902 92.48L64.9902 92.1899V81.8398L80.0802 73.2002V84.1201L65.4902 92.48Z" fill="#150035"/>
<path fill-rule="evenodd" clip-rule="evenodd" d="M65.5293 71.98L79.6093 63.9102L84.4193 66.6899L70.3393 74.75L65.5293 71.98Z" fill="#AEC2D4" stroke="#AEC2D4" stroke-width="0.216" stroke-miterlimit="22.9256"/>
<path fill-rule="evenodd" clip-rule="evenodd" d="M53.881 65.25V59.3901C53.881 58.2901 53.9143 56.82 53.981 54.98C54.0476 53.14 54.101 52.1899 54.141 52.1299L53.8109 51.9399C53.1856 53.237 52.4139 54.4584 51.511 55.5801L46.671 61.1001L53.8709 65.2598L53.881 65.25ZM70.3409 84.9302L65.5309 82.1499V91.9102L53.881 85.1802V75.4199L36.4609 65.3701V55.3701L54.6209 35.1899L65.5209 41.4897V71.98L70.3309 74.7598L70.3409 84.9302Z" fill="#AEC2D4" stroke="#AEC2D4" stroke-width="0.216" stroke-miterlimit="22.9256"/>
<path fill-rule="evenodd" clip-rule="evenodd" d="M54.6309 38.6602L68.7009 30.6001L79.6108 36.8901L65.5309 44.96L54.6309 38.6602Z" fill="#FDFDFD"/>
<path fill-rule="evenodd" clip-rule="evenodd" d="M65.5293 74.1001L79.6093 66.0298L84.4193 68.8101L70.3393 76.8701L65.5293 74.1001Z" fill="#FDFDFD"/>
<path fill-rule="evenodd" clip-rule="evenodd" d="M53.6006 51.2397L53.3606 51.7202C52.7523 52.977 52.0043 54.1609 51.1306 55.25L45.8906 61.25L54.3706 66.1499V59.4102C54.3706 58.3102 54.4039 56.8467 54.4706 55.02C54.5492 54.1457 54.5826 53.2679 54.5706 52.3901V51.8398L53.6006 51.2397Z" fill="#150035"/>
<path fill-rule="evenodd" clip-rule="evenodd" d="M68.601 73.1699L66.541 71.98L69.1909 70.46L79.6109 64.46L83.4109 66.6499L70.3409 74.1299L68.601 73.1299V73.1699ZM69.8309 84.0601V75.0601L67.671 73.8101L65.5209 72.5698L65.0209 72.2798V41.7798L63.3309 40.7798L54.7209 35.7798L37.0009 55.5601V65.0801L54.421 75.1299V84.8901L65.0609 91.04V81.2798L69.8709 84.0601H69.8309ZM68.701 27.71L78.5909 33.4199L78.0509 33.73L65.5209 40.8999L63.951 40L55.6209 35.1899L68.6909 27.71H68.701ZM80.1109 63.6201V33.1299L79.6109 32.8398L68.7109 26.5498L54.631 34.6099L54.3109 34.79L53.8409 35.3101L36.0909 55.0298L35.9609 55.1699V65.6602L53.381 75.71V85.48L65.5309 92.48L66.041 92.1899V83.0098L69.8409 85.21L70.3409 85.5L70.8409 85.21L84.921 77.1499V66.3901L80.1109 63.6201Z" fill="#150035"/>
<path fill-rule="evenodd" clip-rule="evenodd" d="M70.5703 85.48V84.2202L79.4403 79.0801V80.3599L70.5703 85.48Z" fill="#FDFDFD"/>
</svg>
