<svg width="75" height="94" viewBox="0 0 75 94" fill="none" xmlns="http://www.w3.org/2000/svg">
<path fill-rule="evenodd" clip-rule="evenodd" d="M47.7609 40.78C47.7609 31.7934 46.3742 24.2301 43.6009 18.0901C41.1042 12.2597 36.799 7.38664 31.3209 4.19018C26.8509 1.61018 23.6509 0.860185 21.0409 2.19018L20.6909 2.3103L20.1808 2.62036L19.9709 2.75024L7.63086 10.0901L15.0208 17.2205C14.9408 18.6605 14.8975 20.2001 14.8909 21.8401C14.8909 30.7534 16.2709 38.2668 19.0309 44.3801C21.2062 49.3974 24.7171 53.7211 29.1808 56.8801L29.2909 67.7004L42.2909 60.0002C42.7968 59.7151 43.2611 59.362 43.6709 58.9504C46.3975 56.1371 47.7609 50.08 47.7609 40.78Z" fill="#AEC2D4" stroke="#AEC2D4" stroke-width="0.216" stroke-miterlimit="22.9256"/>
<path fill-rule="evenodd" clip-rule="evenodd" d="M8.4408 10.1402L15.5208 16.98V17.21C15.4408 18.67 15.3908 20.2101 15.3908 21.8101C15.3908 30.6101 16.7708 38.1302 19.4908 44.1402C21.6395 49.0758 25.0977 53.3291 29.4908 56.44L29.7008 56.5899L29.8108 66.7998L42.1108 59.5098C42.5823 59.2383 43.0132 58.9016 43.3908 58.5098C45.9808 55.8498 47.2908 49.8798 47.2908 40.7598C47.2908 31.8898 45.9108 24.3201 43.1808 18.2701C40.7168 12.5406 36.4836 7.7503 31.1008 4.60013C26.6608 2.04013 23.6408 1.42013 21.2908 2.60013L20.8808 2.75003L20.2508 3.14017L8.47079 10.1402H8.4408ZM28.8008 68.48L28.6808 57.0498C24.2469 53.8441 20.7553 49.5062 18.5708 44.4898C15.7908 38.3398 14.3808 30.6898 14.3808 21.7398C14.3808 20.2098 14.3808 18.7399 14.5008 17.3199L6.80078 9.89017L19.7008 2.22025L19.8408 2.14017L20.4308 1.79007L20.8708 1.62992C23.4908 0.329917 26.8108 0.960229 31.5708 3.70023C37.1357 6.95622 41.5125 11.9076 44.0608 17.8301C46.8508 24.0101 48.2608 31.71 48.2608 40.73C48.2608 50.25 46.8908 56.2802 44.0708 59.1802C43.7059 59.5615 43.2963 59.8972 42.8508 60.1802L42.5908 60.3599L28.8008 68.48Z" fill="#150035"/>
<path fill-rule="evenodd" clip-rule="evenodd" d="M11.3907 23.0298L10.7207 51.9902L17.2307 59.25L25.0707 60.4302L25.6507 54.3301L24.0607 22.2998L18.1907 17.3799L11.3907 23.0298Z" fill="#AEC2D4" stroke="#AEC2D4" stroke-width="0.216" stroke-miterlimit="22.9256"/>
<path fill-rule="evenodd" clip-rule="evenodd" d="M15.2408 49.0799L22.1408 44.8997C22.1408 44.8997 26.5608 38.6497 26.5608 38.3997C26.5608 38.1497 21.6408 20.47 21.6408 20.47C21.6408 20.47 14.2408 16.9697 13.7308 16.8797C13.2208 16.7897 9.55078 24.2997 9.55078 26.0897C9.55078 27.8797 9.8808 40.9798 9.8808 41.4798C9.8808 41.9798 11.8008 49.4798 11.8008 49.4798L13.1308 49.7298L15.2408 49.0799Z" fill="#150035"/>
<path fill-rule="evenodd" clip-rule="evenodd" d="M23.8301 45.6201L16.6602 50.21C16.6602 50.21 19.7401 56.38 23.8301 52.71C27.9201 49.04 23.8301 45.6201 23.8301 45.6201Z" fill="#FDFDFD"/>
<path fill-rule="evenodd" clip-rule="evenodd" d="M13.7408 36.7699C13.7408 42.7165 14.0741 46.9866 14.7408 49.5799C15.4075 52.1733 16.4875 53.9099 17.9808 54.7899C19.5141 55.6766 20.5975 55.1534 21.2308 53.2201C21.8641 51.2867 22.1975 47.42 22.2308 41.62C22.3505 37.33 22.0153 33.039 21.2308 28.8197C20.5641 26.113 19.4841 24.3198 17.9908 23.4398C16.4974 22.5598 15.4175 23.0634 14.7508 24.95C14.0841 26.83 13.7508 30.7663 13.7508 36.7596L13.7408 36.7699ZM34.3808 48.6898C34.3808 57.9898 33.0475 64.0232 30.3808 66.7899C27.7141 69.5566 23.5841 69.3364 17.9908 66.1297C12.5075 62.9429 8.19509 58.0766 5.6908 52.2498C2.9308 46.1365 1.55078 38.6231 1.55078 29.7098C1.55078 20.3765 2.88411 14.3029 5.55078 11.4896C8.21745 8.67626 12.3475 8.87995 17.9408 12.0999C23.4189 15.2964 27.7241 20.1694 30.2208 25.9998C32.9941 32.1398 34.3808 39.7031 34.3808 48.6898Z" fill="#AEC2D4" stroke="#AEC2D4" stroke-width="0.216" stroke-miterlimit="22.9256"/>
<path fill-rule="evenodd" clip-rule="evenodd" d="M30.5005 7.28003C26.0306 4.70003 22.8306 3.95003 20.2206 5.28003L19.8705 5.40015L19.3605 5.70044L19.1505 5.83032L6.81055 13.1702C9.40055 12.0702 12.8105 12.7302 17.1205 15.1702C21.0416 17.4356 24.3694 20.5989 26.8305 24.4001L40.2405 16.53C37.7742 12.7172 34.4355 9.5464 30.5005 7.28003Z" fill="#FDFDFD"/>
<path fill-rule="evenodd" clip-rule="evenodd" d="M20.7205 53.0697C20.4305 53.9497 20.0604 54.4797 19.6104 54.6497C19.3671 54.7097 19.1134 54.715 18.8678 54.6649C18.6222 54.6147 18.3908 54.5103 18.1905 54.3597C16.8005 53.5597 15.7905 51.9098 15.1905 49.4598C14.5905 47.0098 14.1905 42.6399 14.1905 36.7699C14.1905 30.8999 14.5105 26.94 15.1305 25.12C15.4205 24.27 15.7905 23.7599 16.2305 23.5999C16.3426 23.5592 16.4611 23.5388 16.5804 23.5399C16.9579 23.5639 17.3229 23.6845 17.6405 23.89C19.0205 24.69 20.0305 26.39 20.6405 28.95C21.4177 33.1299 21.7529 37.3797 21.6405 41.6297C21.6405 47.3397 21.3304 51.1899 20.7104 53.0799L20.7205 53.0697ZM18.1905 23.0199C17.8637 22.7926 17.4898 22.6423 17.0967 22.5799C16.7036 22.5176 16.3015 22.545 15.9205 22.66C15.4977 22.8691 15.1267 23.1693 14.8344 23.5394C14.5421 23.9095 14.3358 24.3399 14.2305 24.7997C13.5605 26.7497 13.2305 30.6697 13.2305 36.7997C13.2305 42.9297 13.5605 47.1098 14.2305 49.7298C14.9005 52.3498 16.0705 54.3196 17.7005 55.2596C18.1699 55.5526 18.7076 55.718 19.2605 55.7396C19.5064 55.7409 19.7505 55.6969 19.9805 55.6097C20.4113 55.3923 20.7878 55.0811 21.0821 54.6986C21.3763 54.316 21.5808 53.872 21.6805 53.3997C22.3405 51.3997 22.6805 47.55 22.6805 41.64C22.8015 37.3135 22.4663 32.9861 21.6805 28.7298C21.0005 25.8798 19.8205 23.9599 18.1905 23.0199Z" fill="#150035"/>
<path fill-rule="evenodd" clip-rule="evenodd" d="M18.1902 65.69C12.806 62.5477 8.56925 57.7644 6.10025 52.0401C3.38025 46.0401 2.00024 38.51 2.00024 29.71C2.00024 20.54 3.32025 14.5301 5.91025 11.8301C6.47123 11.2432 7.14919 10.7805 7.90024 10.4722C8.65129 10.1639 9.45869 10.0167 10.2702 10.0401C12.3402 10.0401 14.8202 10.8698 17.6902 12.5298C23.073 15.68 27.3062 20.4708 29.7702 26.2002C32.5002 32.2002 33.8802 39.81 33.8802 48.69C33.8802 57.81 32.5703 63.78 29.9803 66.44C27.3903 69.1 23.5103 68.76 18.2003 65.69H18.1902ZM47.2603 29.98L44.7603 22.5401L32.2003 29.8101C31.7618 28.4505 31.2511 27.1153 30.6703 25.8101C28.122 19.8876 23.7452 14.9362 18.1802 11.6802C12.4202 8.35021 8.04024 8.18019 5.18024 11.1602C2.32024 14.1402 0.990234 20.16 0.990234 29.73C0.990234 38.67 2.40024 46.33 5.18024 52.48C7.73588 58.3933 12.116 63.3341 17.6802 66.5801C20.7402 68.3501 23.4102 69.23 25.6802 69.23C26.6115 69.2498 27.5368 69.0761 28.3975 68.7198C29.2581 68.3634 30.0355 67.8325 30.6802 67.1602C30.9853 66.8488 31.2661 66.5145 31.5202 66.1602L40.1302 61.2998L44.7402 57.6299L46.8203 51.71L47.7502 42.7701L47.2603 29.98Z" fill="#150035"/>
<path fill-rule="evenodd" clip-rule="evenodd" d="M61.0201 39.6699L74.4001 31.7598L63.2101 25.2998L49.8301 33.21L61.0201 39.6699Z" fill="#AEC2D4" stroke="#AEC2D4" stroke-width="0.216" stroke-miterlimit="22.9256"/>
<path fill-rule="evenodd" clip-rule="evenodd" d="M61 92.7397L48.41 85.48V57.3799C48.41 53.9665 48.4733 50.8801 48.6 48.1201C47.7179 48.8255 46.7461 49.4103 45.71 49.8599L40.49 51.8599L34 38.9399L49.78 33.21L60.97 39.6699L61 92.7397Z" fill="#AEC2D4" stroke="#AEC2D4" stroke-width="0.216" stroke-miterlimit="22.9256"/>
<path fill-rule="evenodd" clip-rule="evenodd" d="M47.4308 31.0298L34.0508 38.9399L49.8308 33.21L63.2108 25.2998L47.4308 31.0298Z" fill="#AEC2D4" stroke="#AEC2D4" stroke-width="0.216" stroke-miterlimit="22.9256"/>
<path fill-rule="evenodd" clip-rule="evenodd" d="M74.4002 35.8999L63.2102 29.4399L48.6302 34.7598L35.2402 42.6699L49.8402 37.3599L61.0202 43.8101L74.4002 35.8999Z" fill="#FDFDFD"/>
<path fill-rule="evenodd" clip-rule="evenodd" d="M50.8196 33.2002L63.2096 25.8799L73.4096 31.77L69.1496 34.29L61.0196 39.1001L50.8196 33.21V33.2002ZM60.5196 91.8701V39.96L49.7796 33.7598L34.7796 39.2202L40.7796 51.2202L45.5796 49.4199C46.5647 48.9888 47.4892 48.4306 48.3296 47.7598L49.1996 47.04L49.1496 48.1699C49.0196 50.9099 48.9596 54.0199 48.9596 57.3999V85.21L60.5696 91.9102L60.5196 91.8701ZM47.6396 31.48L38.9396 36.6201L48.8496 33.02L49.5996 32.75L58.2996 27.6099L47.6396 31.48ZM63.1996 24.71L62.9896 24.8398L47.2496 30.5601L33.8296 38.48L33.3496 38.6499L40.2496 52.4199L45.9196 50.29C46.6637 49.9591 47.3794 49.5679 48.0596 49.1201C47.9596 51.6101 47.9096 54.3801 47.9096 57.3501V85.7397L61.0196 93.3101L74.8996 85.1099V31.48L63.1996 24.71Z" fill="#150035"/>
</svg>
