<svg width="90" height="93" viewBox="0 0 90 93" fill="none" xmlns="http://www.w3.org/2000/svg">
<path fill-rule="evenodd" clip-rule="evenodd" d="M48.3203 40.8303C48.3203 31.7036 46.9137 24.037 44.1003 17.8303C41.5676 11.9068 37.1953 6.95584 31.6304 3.71017C27.1004 1.09017 23.8503 0.330115 21.1903 1.65011L20.8403 1.77023L20.3203 2.08029L20.1003 2.21017L7.57031 9.66037L15.0703 16.9001C14.9836 18.3601 14.9403 19.9234 14.9403 21.5901C14.9403 30.6434 16.3437 38.2735 19.1504 44.4802C21.3606 49.5742 24.9268 53.9637 29.4603 57.1701L29.5803 68.1701L42.8203 60.3503C43.3338 60.0595 43.8049 59.6991 44.2203 59.28C46.9537 56.42 48.3203 50.2703 48.3203 40.8303Z" fill="#AEC2D4" stroke="#AEC2D4" stroke-width="0.216" stroke-miterlimit="22.9256"/>
<path fill-rule="evenodd" clip-rule="evenodd" d="M8.40051 9.7098L15.5905 16.6497V16.8797C15.5105 18.3597 15.4604 19.8796 15.4604 21.5496C15.4604 30.4896 16.8605 38.1198 19.6205 44.2298C21.7975 49.2375 25.3001 53.5562 29.7505 56.7201L29.9705 56.87L30.0804 67.2298L42.5704 59.8299C43.0483 59.5588 43.4859 59.2222 43.8705 58.8299C46.5005 56.1299 47.8705 50.0699 47.8705 40.8299C47.8705 31.8299 46.4704 24.1398 43.7004 17.9998C41.2017 12.1795 36.9054 7.31184 31.4404 4.1097C26.9404 1.5097 23.8604 0.879698 21.4404 2.1097L21.0205 2.2596L20.3805 2.65999L8.38049 9.76985L8.40051 9.7098ZM29.0704 68.9998L28.9504 57.3997C24.4464 54.1468 20.8995 49.7433 18.6805 44.6497C15.8605 38.4097 14.4305 30.6499 14.4305 21.5599C14.4305 20.0099 14.4305 18.4997 14.5505 17.0697L6.73047 9.51985L19.8304 1.72982L19.9705 1.64974L20.5704 1.28987L21.0205 1.11995C23.6805 -0.200048 27.0205 0.44005 31.8805 3.22005C37.5308 6.52691 41.9744 11.5552 44.5605 17.5697C47.3905 23.8397 48.8204 31.6697 48.8204 40.8197C48.8204 50.4897 47.4304 56.6096 44.5704 59.5496C44.1987 59.9315 43.7824 60.2672 43.3304 60.5496L43.0605 60.7298L29.0704 68.9998Z" fill="#150035"/>
<path fill-rule="evenodd" clip-rule="evenodd" d="M11.391 22.8101L10.7109 52.21L17.3209 59.5801L25.281 60.7798L25.871 54.5801L24.261 22.0698L18.291 17.0698L11.391 22.8101Z" fill="#AEC2D4" stroke="#AEC2D4" stroke-width="0.216" stroke-miterlimit="22.9256"/>
<path fill-rule="evenodd" clip-rule="evenodd" d="M15.2991 49.2599L22.2991 45.0202C22.2991 45.0202 26.7891 38.6701 26.7891 38.4201C26.7891 38.1701 21.7891 20.2101 21.7891 20.2101C21.7891 20.2101 14.2791 16.65 13.7891 16.57C13.2991 16.49 9.53906 24.1003 9.53906 25.9303C9.53906 27.7603 9.87903 41.0499 9.87903 41.5499C9.87903 42.0499 11.829 49.6803 11.829 49.6803L13.189 49.9303L15.2991 49.2599Z" fill="#150035"/>
<path fill-rule="evenodd" clip-rule="evenodd" d="M24.0007 45.7397L16.7207 50.3999C16.7207 50.3999 19.8507 56.6699 24.0007 52.9399C28.1507 49.2099 24.0007 45.7397 24.0007 45.7397Z" fill="#FDFDFD"/>
<path fill-rule="evenodd" clip-rule="evenodd" d="M13.7709 36.76C13.7709 42.7933 14.1042 47.1266 14.7709 49.76C15.4375 52.3933 16.5342 54.1567 18.0609 55.05C19.6209 55.95 20.7208 55.4171 21.3608 53.4504C22.0008 51.4837 22.3342 47.5568 22.3608 41.6701C22.4877 37.3136 22.1525 32.956 21.3608 28.6701C20.6942 25.9168 19.5975 24.0968 18.0708 23.2102C16.5441 22.3235 15.4476 22.8333 14.7809 24.74C14.1142 26.6466 13.7809 30.6466 13.7809 36.74L13.7709 36.76ZM34.7709 48.8601C34.7709 58.3001 33.4009 64.4266 30.6609 67.24C27.9209 70.0533 23.7275 69.83 18.0808 66.57C12.5133 63.3354 8.13419 58.3955 5.59082 52.4802C2.79082 46.2735 1.38753 38.6434 1.38086 29.59C1.38086 20.0967 2.75084 13.9269 5.49084 11.0803C8.23084 8.23362 12.4241 8.4404 18.0708 11.7004C23.6357 14.9461 28.0081 19.8965 30.5409 25.82C33.3342 32.0534 34.7308 39.7334 34.7308 48.8601H34.7709Z" fill="#AEC2D4" stroke="#AEC2D4" stroke-width="0.216" stroke-miterlimit="22.9256"/>
<path fill-rule="evenodd" clip-rule="evenodd" d="M30.8003 6.81027C26.2703 4.19027 23.0202 3.43021 20.3602 4.75021L20.0103 4.87033L19.4902 5.18039L19.2703 5.31027L6.74023 12.76C9.37023 11.64 12.8502 12.3203 17.2102 14.8303C21.1919 17.1296 24.5711 20.341 27.0702 24.2004L40.6803 16.2004C38.1798 12.3299 34.7929 9.11087 30.8003 6.81027Z" fill="#FDFDFD"/>
<path fill-rule="evenodd" clip-rule="evenodd" d="M20.8595 53.31C20.5695 54.2 20.1895 54.7399 19.7395 54.9199C19.493 54.9816 19.2359 54.9876 18.9868 54.9374C18.7377 54.8873 18.503 54.7821 18.2996 54.6298C16.8896 53.8198 15.8696 52.1398 15.2996 49.6298C14.7296 47.1198 14.2996 42.7097 14.2996 36.7397C14.2996 30.7697 14.6196 26.7401 15.2996 24.9101C15.5996 24.0501 15.9696 23.5298 16.4196 23.3598C16.5349 23.3179 16.6569 23.2975 16.7795 23.2998C17.1636 23.3217 17.5355 23.4424 17.8595 23.6499C19.2695 24.4599 20.2895 26.19 20.8595 28.79C21.6439 33.0363 21.9791 37.3533 21.8595 41.6699C21.8595 47.4699 21.5396 51.38 20.9196 53.29L20.8595 53.31ZM18.2896 22.79C17.9579 22.5609 17.5789 22.4094 17.1807 22.3471C16.7824 22.2848 16.3753 22.3133 15.9895 22.4301C15.5599 22.6417 15.1826 22.9459 14.8851 23.3212C14.5877 23.6965 14.3774 24.1335 14.2695 24.6C13.5895 26.6 13.2695 30.5997 13.2695 36.7597C13.2695 42.9197 13.5995 47.2301 14.2695 49.8901C14.9395 52.5501 16.1396 54.5499 17.7996 55.4999C18.2777 55.7993 18.8258 55.968 19.3895 55.9897C19.6388 55.9922 19.8864 55.9483 20.1195 55.8598C20.5572 55.6399 20.9399 55.3247 21.2394 54.937C21.5388 54.5492 21.7473 54.0992 21.8495 53.6201C22.5095 51.6201 22.8495 47.6801 22.8495 41.6801C22.9776 37.2871 22.6424 32.8925 21.8495 28.5698C21.1395 25.6898 19.9996 23.75 18.2896 22.79Z" fill="#150035"/>
<path fill-rule="evenodd" clip-rule="evenodd" d="M18.2897 66.1203C12.8212 62.9303 8.51773 58.0729 6.00964 52.26C3.24964 46.15 1.84961 38.5203 1.84961 29.5803C1.84961 20.2703 3.18961 14.1604 5.84961 11.4304C6.41937 10.8337 7.10819 10.363 7.87134 10.0495C8.63448 9.73598 9.45497 9.58623 10.2797 9.61005C12.3797 9.61005 14.8997 10.4503 17.8097 12.1403C23.2751 15.3419 27.5715 20.2093 30.0696 26.03C32.8396 32.17 34.2396 39.85 34.2396 48.8601C34.2396 58.12 32.9096 64.18 30.2396 66.8601C27.5696 69.5401 23.6696 69.2203 18.2396 66.1003L18.2897 66.1203ZM47.8097 29.8601L45.2797 22.3L32.5297 29.6804C32.0865 28.2936 31.5691 26.9315 30.9796 25.6003C28.3934 19.5858 23.95 14.557 18.2997 11.2502C12.4497 7.87019 8.00961 7.7004 5.09961 10.7204C2.18961 13.7404 0.849609 19.8603 0.849609 29.5803C0.849609 38.6603 2.27961 46.4301 5.09961 52.6701C7.69315 58.6753 12.14 63.693 17.7897 66.9899C20.8963 68.7833 23.5997 69.6804 25.8997 69.6804C26.8474 69.7027 27.7893 69.5273 28.6656 69.1657C29.542 68.8042 30.3334 68.2644 30.9896 67.5803C31.2978 67.2689 31.582 66.9346 31.8396 66.5803L40.5796 61.6403L45.2596 57.9103L47.3796 51.9103L48.3196 42.8303L47.8097 29.8601Z" fill="#150035"/>
<path d="M64.7499 60.8398H49.4199V80.6299H64.7499V60.8398Z" fill="#AEC2D4"/>
<path fill-rule="evenodd" clip-rule="evenodd" d="M53.5398 73.5498L60.9397 69.0298L58.9897 65.2998L54.9397 63.3198L52.9298 64.1099L52.2598 67.7402L53.5398 73.5498Z" fill="#150035"/>
<path fill-rule="evenodd" clip-rule="evenodd" d="M57.4999 75.71C58.8332 76.4766 59.9165 76.5234 60.7499 75.8501C61.5832 75.1768 61.9999 73.5667 61.9999 71.02C61.9999 70.68 61.9999 70.35 61.9999 70.02L55.6699 74.0898C56.1788 74.7343 56.7985 75.283 57.4999 75.71Z" fill="#F2F4F9"/>
<path fill-rule="evenodd" clip-rule="evenodd" d="M49.08 42.1099L48.9201 42.54C45.1601 52.61 45.2501 52.7998 45.3801 53.0498C45.5101 53.2998 46.2901 55.57 46.7801 56.98L46.8901 57.1699C47.7201 58.0699 48.8901 59.1699 49.5901 59.1699H49.6801C49.7994 59.1553 49.9135 59.1123 50.0127 59.0444C50.1119 58.9766 50.1933 58.8857 50.2501 58.7798C50.5001 58.3198 51.2501 57.1398 51.6601 56.5498L56.8801 58.5498L57.0901 58.46C58.9501 57.61 63.3001 55.4601 63.5601 54.1001C63.8201 52.7401 65.0501 45.8301 65.0501 45.8301L65.1401 45.3101L49.08 42.1099Z" fill="#150035"/>
<path fill-rule="evenodd" clip-rule="evenodd" d="M67.1606 42.1203L70.6707 42.7302L76.9307 39.0603C77.6807 39.4103 78.4606 39.8003 79.2906 40.2903C81.697 41.6736 83.9967 43.2345 86.1707 44.9602V33.6404C84.0558 32.0406 81.8522 30.5614 79.5706 29.2102C74.2839 26.1569 69.8373 24.6867 66.2306 24.8C64.9983 24.8282 63.7844 25.1037 62.6606 25.6101C62.2125 25.8216 61.7842 26.0726 61.3806 26.3601L45.8906 35.4304L50.4606 39.2004L55.6306 40.1003L67.1606 42.1203Z" fill="#AEC2D4"/>
<path fill-rule="evenodd" clip-rule="evenodd" d="M76.9006 38.4798L77.1506 38.5999C78.0006 38.9899 78.7807 39.3999 79.5507 39.8499C81.6598 41.0534 83.6905 42.3894 85.6306 43.8499V33.8499C83.5996 32.3221 81.4864 30.9064 79.3007 29.6097C74.1307 26.6097 69.7906 25.1498 66.2406 25.2698C65.0777 25.2948 63.9317 25.553 62.8706 26.0296H62.7506C62.36 26.2227 61.9855 26.4472 61.6306 26.7L46.7606 35.3997L50.6306 38.5999L70.5406 42.0496L76.8806 38.3396L76.9006 38.4798ZM86.7206 45.2796L85.9506 45.47L85.8506 45.3899C83.6943 43.6838 81.4148 42.1395 79.0306 40.7698C78.3606 40.3798 77.6806 40.0297 76.9606 39.6897L70.7706 43.3196L50.1906 39.7498L45.3906 35.1497L61.0706 25.95C61.4854 25.6524 61.9274 25.3946 62.3906 25.18L62.6006 25.0496C63.747 24.578 64.9712 24.3237 66.2106 24.2996C69.8906 24.1796 74.4806 25.6896 79.8306 28.7796C82.1281 30.1455 84.3482 31.638 86.4806 33.2498L86.7006 33.4099L86.7206 45.2796Z" fill="#1C2A40"/>
<path fill-rule="evenodd" clip-rule="evenodd" d="M55.7198 40.3999L55.5898 40.1099C55.5898 40.2299 55.5898 40.36 55.5898 40.48L55.7198 40.3999Z" fill="#AEC2D4"/>
<path fill-rule="evenodd" clip-rule="evenodd" d="M54.9395 41.3999L55.0596 40.0601L55.3295 40.02L55.3195 40L55.4795 39.9302L55.5095 39.9902L56.0795 39.8999L56.4095 40.6499L54.9395 41.3999Z" fill="#252422"/>
<path fill-rule="evenodd" clip-rule="evenodd" d="M76.1304 45.8101C73.3904 44.2301 71.1304 43.8099 69.3804 44.5699L68.7203 44.7701L66.6104 46.0401L55.6104 52.65L54.1504 53.5298V53.96L56.2604 56.5401C56.9988 60.0945 58.2236 63.5302 59.9004 66.7501C60.9803 68.8166 62.2597 70.7724 63.7203 72.5899L68.7203 91.5899L84.7203 82.21C87.5937 80.4634 89.0304 76.6465 89.0304 70.7598C89.1101 65.6326 87.9397 60.5631 85.6204 55.9898C83.5114 51.7478 80.2142 48.2111 76.1304 45.8101Z" fill="#AEC2D4"/>
<path fill-rule="evenodd" clip-rule="evenodd" d="M54.7408 53.8101L56.8009 56.4302C57.5305 59.9355 58.7384 63.3237 60.3909 66.5C61.455 68.534 62.7142 70.4597 64.1509 72.25L64.2509 72.4502L69.1208 90.73L84.5509 81.73C87.2309 80.1 88.5509 76.4 88.5509 70.73C88.6266 65.6869 87.4769 60.701 85.2008 56.2002C83.0977 52.0538 79.8357 48.6072 75.8109 46.2798C73.2509 44.7998 71.1409 44.3898 69.5409 45.0698L68.8208 45.2901L66.8208 46.5L54.6709 53.8101H54.7408ZM69.0808 91.9898L63.2509 72.8301C61.7973 71.0095 60.5215 69.0536 59.4408 66.9898C57.7639 63.7644 56.5327 60.3267 55.7809 56.77L53.6309 54.1402V53.2202L68.4408 44.3101L69.2208 44.0601C71.1008 43.2601 73.5309 43.6899 76.3909 45.3399C80.5923 47.7708 83.9969 51.3703 86.1908 55.7002C88.5419 60.3466 89.7326 65.4934 89.6609 70.7002C89.6609 76.7602 88.1208 80.7601 85.0908 82.6001L69.0808 91.9898Z" fill="#1C2A40"/>
<path fill-rule="evenodd" clip-rule="evenodd" d="M56.9997 77.78C58.333 78.5467 59.4163 78.5935 60.2497 77.9201C61.083 77.2468 61.4997 75.6367 61.4997 73.0901C61.4997 68.7434 60.0397 65.7434 57.1197 64.0901C55.6797 63.2567 54.5097 63.1436 53.6097 63.7502C53.1233 64.1452 52.7445 64.6567 52.5085 65.237C52.2725 65.8174 52.1869 66.4477 52.2597 67.07C52.2385 69.3098 52.6811 71.5297 53.5597 73.5901C54.2147 75.3344 55.4183 76.8188 56.9897 77.82L56.9997 77.78ZM39.7997 55.9504C39.7997 48.4771 40.7263 42.9601 42.5796 39.4001C44.433 35.8401 47.163 34.0037 50.7697 33.8904C54.3764 33.777 58.823 35.2467 64.1097 38.3C66.391 39.6518 68.5944 41.131 70.7096 42.7302V54.05C68.5352 52.325 66.2355 50.7641 63.8296 49.3801C59.643 46.9601 56.523 46.2204 54.4697 47.1604C52.4163 48.1004 51.2963 50.9203 51.1097 55.6203L51.4897 55.8401C53.3897 52.7867 56.4464 52.4771 60.6597 54.9104C64.7785 57.2839 68.1149 60.8077 70.2597 65.05C72.5794 69.6232 73.7499 74.6928 73.6697 79.82C73.6697 85.7067 72.233 89.5236 69.3597 91.2702C66.4863 93.0169 62.4664 92.4001 57.2997 89.4201C51.7983 86.2295 47.3359 81.5174 44.4496 75.8503C41.2807 69.7014 39.6735 62.8672 39.7697 55.9504H39.7997Z" fill="#AEC2D4"/>
<path fill-rule="evenodd" clip-rule="evenodd" d="M72.7104 71.1201L88.1105 62.3901L89.1005 69.0898L88.6005 76.9502L85.3705 81.9399L70.8105 90.2598L73.0905 85.0898L73.6205 77.1899L72.7104 71.1201Z" fill="#150035"/>
<path fill-rule="evenodd" clip-rule="evenodd" d="M67.7504 67.2798C68.0904 67.9398 68.4003 68.6098 68.6903 69.2798L84.0004 60.48C83.7104 59.8 83.4004 59.13 83.0604 58.48C82.3165 57.0528 81.4427 55.6973 80.4503 54.4302L65.1504 63.2002C66.1386 64.4788 67.0088 65.844 67.7504 67.2798Z" fill="#F2F4F9"/>
<path fill-rule="evenodd" clip-rule="evenodd" d="M79.001 32.4304C73.7143 29.3771 69.2677 27.9069 65.661 28.0202C64.4287 28.0478 63.2145 28.3234 62.0909 28.8303C61.6432 29.0425 61.215 29.2935 60.811 29.5803L46.4609 37.9802C47.6303 37.4215 48.9052 37.1179 50.2009 37.0901C53.8076 36.9767 58.2543 38.4469 63.541 41.5002C65.8226 42.8516 68.026 44.3308 70.141 45.9304L76.401 42.26L85.651 36.8401C83.5195 35.2455 81.2992 33.7735 79.001 32.4304Z" fill="#F2F4F9"/>
<path fill-rule="evenodd" clip-rule="evenodd" d="M53.8897 64.1498C54.6097 63.6598 55.5697 63.7797 56.8297 64.5097C59.5997 66.1097 60.9397 68.9097 60.9397 73.0897C60.9397 76.0297 60.3697 77.0899 59.8797 77.4999C59.6397 77.6899 58.8797 78.2897 57.2297 77.3197C55.7599 76.366 54.6375 74.963 54.0297 73.3197C53.1811 71.3252 52.7522 69.1772 52.7697 67.0097C52.7024 66.4753 52.7685 65.9326 52.9622 65.4301C53.1559 64.9275 53.4712 64.4808 53.8797 64.1298L53.8897 64.1498ZM56.6997 78.2499C57.3571 78.6667 58.1121 78.9045 58.8897 78.9398C59.5 78.9445 60.092 78.7317 60.5598 78.3397C61.5598 77.5497 62.0097 75.83 62.0097 73.1C62.0097 68.57 60.4497 65.3697 57.3697 63.5897C55.7497 62.6497 54.3698 62.5899 53.2998 63.2699C52.7393 63.7136 52.3004 64.2923 52.0241 64.9516C51.7478 65.6108 51.643 66.3292 51.7197 67.0399C51.6997 69.3515 52.1559 71.6423 53.0598 73.7699C53.7604 75.6128 55.0369 77.1802 56.6997 78.2396V78.2499Z" fill="#150035"/>
<path fill-rule="evenodd" clip-rule="evenodd" d="M68.9995 90.7998C66.3195 92.4298 62.4495 91.7999 57.4895 88.9399C52.0795 85.7943 47.6909 81.1559 44.8495 75.5801C41.747 69.5042 40.1781 62.7614 40.2796 55.9399C40.2796 48.5899 41.1895 43.1101 42.9995 39.6401C44.8095 36.1701 47.2995 34.5299 50.7295 34.4199H51.1095C54.5395 34.4199 58.7996 35.8798 63.7896 38.7598C65.9753 40.0566 68.0884 41.4723 70.1195 43V53C68.1792 51.5398 66.1486 50.2038 64.0396 49C59.6496 46.47 56.4195 45.7298 54.1895 46.7598C51.9595 47.7898 50.7195 50.7602 50.5195 55.6802V56L51.6295 56.6401L51.8996 56.2002C53.6396 53.4102 56.3995 53.2002 60.3495 55.4502C64.3743 57.7776 67.6364 61.2237 69.7395 65.3701C72.0157 69.871 73.1652 74.8568 73.0895 79.8999C73.0895 85.5599 71.7296 89.2499 69.0296 90.8999L68.9995 90.7998ZM60.8495 54.4302C56.8495 52.1002 53.7195 52.1699 51.6195 54.6299C51.9095 50.7599 52.9095 48.4099 54.6195 47.6299C56.4995 46.7699 59.4795 47.5098 63.4895 49.8198C65.8495 51.1798 70.5995 54.6699 70.5995 54.6699L86.6895 45.2397V33.3501L86.1596 33L70.6796 42.0698C68.6381 40.536 66.5149 39.1141 64.3195 37.8101C58.9695 34.7201 54.3195 33.2201 50.6995 33.3301C47.0795 33.4401 43.9896 35.4099 42.0596 39.1299C40.1296 42.8499 39.2195 48.4002 39.2195 55.9302C39.1164 62.9256 40.7266 69.8396 43.9096 76.0698C46.8461 81.8268 51.3806 86.6148 56.9695 89.8599C60.2995 91.7799 63.1996 92.7397 65.6496 92.7397C67.0237 92.7765 68.3809 92.4302 69.5695 91.7397C72.5695 89.8997 74.1395 85.8898 74.1395 79.8398C74.2108 74.633 73.0203 69.4864 70.6696 64.8398C68.4779 60.5117 65.0769 56.9129 60.8795 54.48L60.8495 54.4302Z" fill="#150035"/>
</svg>
