<svg width="85" height="93" viewBox="0 0 85 93" fill="none" xmlns="http://www.w3.org/2000/svg">
<path fill-rule="evenodd" clip-rule="evenodd" d="M48.3503 41.0801C48.3503 31.9134 46.937 24.1968 44.1104 17.9302C41.563 11.9817 37.17 7.01008 31.5803 3.74998C27.0303 1.11998 23.7603 0.350156 21.0903 1.68016L20.7303 1.79979L20.2103 2.10984L19.9904 2.23973L7.40039 9.7202L14.9403 17C14.8536 18.4666 14.8104 20.0402 14.8104 21.7202C14.8104 30.8135 16.2171 38.4802 19.0304 44.7202C21.2525 49.8434 24.8397 54.2573 29.4004 57.48L29.5204 68.48L42.8203 60.6201C43.3371 60.3297 43.8116 59.9694 44.2303 59.5498C46.977 56.7231 48.3503 50.5667 48.3503 41.0801Z" fill="#AEC2D4" stroke="#AEC2D4" stroke-width="0.216" stroke-miterlimit="22.9256"/>
<path fill-rule="evenodd" clip-rule="evenodd" d="M8.25037 9.82991L15.4803 16.8299V17.0599C15.4003 18.5499 15.3503 20.1198 15.3503 21.7498C15.3503 30.7498 16.7604 38.3896 19.5304 44.5296C21.7175 49.5593 25.2376 53.8955 29.7103 57.0697L29.9304 57.2201L30.0404 67.6297L42.5803 60.2C43.058 59.9287 43.4956 59.5922 43.8804 59.2C46.5204 56.49 47.8804 50.3999 47.8804 41.0999C47.8804 32.0499 46.4703 24.33 43.6903 18.16C41.1789 12.3136 36.8615 7.42471 31.3704 4.2098C26.8404 1.5998 23.7604 0.959737 21.3704 2.14974L20.9503 2.29964L20.3004 2.70003L8.30042 9.83968L8.25037 9.82991ZM29.0004 69.3797L28.8804 57.7298C24.3587 54.46 20.798 50.0359 18.5703 44.9198C15.7403 38.6498 14.3004 30.84 14.3004 21.72C14.3004 20.16 14.3004 18.6398 14.4204 17.2098L6.57031 9.62972L19.7303 1.80989L19.8704 1.72982L20.4703 1.36995L20.9204 1.20003C23.5904 -0.12997 26.9803 0.509894 31.8303 3.30989C37.5064 6.63007 41.9708 11.6799 44.5703 17.72C47.4103 24.0201 48.8503 31.8799 48.8503 41.0799C48.8503 50.7899 47.4503 56.9497 44.5803 59.8997C44.2052 60.2819 43.7855 60.6176 43.3303 60.8997L43.0604 61.0799L29.0004 69.3797Z" fill="#150035"/>
<path fill-rule="evenodd" clip-rule="evenodd" d="M11.2601 22.98L10.5801 52.52L17.2101 59.9199L25.2101 61.1299L25.8002 54.8999L24.1802 22.2402L18.1901 17.2202L11.2601 22.98Z" fill="#AEC2D4" stroke="#AEC2D4" stroke-width="0.216" stroke-miterlimit="22.9256"/>
<path fill-rule="evenodd" clip-rule="evenodd" d="M15.1794 49.5496L22.1794 45.2898C22.1794 45.2898 26.6893 38.91 26.6893 38.66C26.6893 38.41 21.6893 20.3699 21.6893 20.3699C21.6893 20.3699 14.1494 16.7998 13.6194 16.7098C13.0894 16.6198 9.35938 24.2797 9.35938 26.1097C9.35938 27.9397 9.69934 41.2896 9.69934 41.7996C9.69934 42.3096 11.6993 49.97 11.6993 49.97L13.0594 50.2298L15.1794 49.5496Z" fill="#150035"/>
<path fill-rule="evenodd" clip-rule="evenodd" d="M23.9508 46.0098L16.6309 50.6899C16.6309 50.6899 19.7808 56.9797 23.9508 53.2397C28.1208 49.4997 23.9508 46.0098 23.9508 46.0098Z" fill="#FDFDFD"/>
<path fill-rule="evenodd" clip-rule="evenodd" d="M13.6501 36.9899C13.6501 43.0499 13.9835 47.4069 14.6501 50.0602C15.3168 52.7135 16.4167 54.4867 17.9501 55.38C19.5167 56.2867 20.6235 55.7501 21.2701 53.7701C21.9168 51.7901 22.2501 47.8467 22.2701 41.9401C22.2701 36.0001 21.9368 31.6503 21.2701 28.8903C20.6035 26.1303 19.5034 24.3036 17.9701 23.4103C16.4234 22.5169 15.3235 23.0303 14.6702 24.9503C14.0168 26.8703 13.6835 30.8703 13.6702 36.9503L13.6501 36.9899ZM34.7001 49.1403C34.7001 58.6269 33.3234 64.7802 30.5701 67.6002C27.8167 70.4202 23.6035 70.1934 17.9302 66.92C12.3407 63.6705 7.94425 58.7097 5.39014 52.7701C2.5768 46.5368 1.16682 38.8701 1.16016 29.7701C1.16016 20.2368 2.53683 14.0403 5.29016 11.1803C8.04349 8.3203 12.2568 8.5266 17.9302 11.7999C23.5199 15.06 27.9128 20.0317 30.4601 25.9801C33.2868 32.2601 34.7001 39.9834 34.7001 49.15V49.1403Z" fill="#AEC2D4" stroke="#AEC2D4" stroke-width="0.216" stroke-miterlimit="22.9256"/>
<path fill-rule="evenodd" clip-rule="evenodd" d="M30.7504 6.91002C26.2004 4.28002 22.9304 3.5097 20.2604 4.8397L19.9004 4.95982L19.3804 5.26988L19.1604 5.39976L6.57031 12.8797C9.21031 11.7497 12.7103 12.4298 17.0803 14.9598C21.0815 17.2685 24.4779 20.4936 26.9904 24.37L40.6604 16.37C38.1546 12.4749 34.7576 9.2322 30.7504 6.91002Z" fill="#FDFDFD"/>
<path fill-rule="evenodd" clip-rule="evenodd" d="M20.7704 53.62C20.4804 54.52 20.1004 55.0599 19.6404 55.2299C19.3923 55.2924 19.1334 55.2986 18.8826 55.2484C18.6317 55.1982 18.3952 55.0929 18.1903 54.9398C16.7803 54.1198 15.7504 52.4398 15.1304 49.9398C14.5104 47.4398 14.1304 42.9396 14.1304 36.9896C14.1304 31.0396 14.4504 26.9897 15.1304 25.1097C15.4304 24.2497 15.8104 23.7197 16.2504 23.5497C16.3657 23.5078 16.4877 23.4874 16.6104 23.4896C16.9953 23.5151 17.3671 23.6394 17.6903 23.85C19.1003 24.67 20.1304 26.3996 20.7504 29.0096C21.537 33.2759 21.8721 37.6136 21.7504 41.9501C21.7504 47.7801 21.4304 51.71 20.8104 53.62H20.7704ZM18.1903 22.9701C17.8572 22.7402 17.4765 22.5881 17.0765 22.5258C16.6766 22.4634 16.2677 22.4921 15.8804 22.6097C15.4482 22.8218 15.0687 23.1277 14.7694 23.5048C14.4702 23.8819 14.2587 24.3208 14.1504 24.7899C13.4704 26.7899 13.1504 30.7899 13.1504 36.9999C13.1504 43.2099 13.4904 47.5198 14.1504 50.1898C14.8104 52.8598 16.0303 54.87 17.6903 55.83C18.1715 56.1306 18.7234 56.2993 19.2904 56.3197C19.5397 56.3223 19.7873 56.2783 20.0204 56.1898C20.4584 55.9677 20.8411 55.6505 21.1405 55.2611C21.4399 54.8718 21.6482 54.4202 21.7504 53.9398C22.4204 51.9398 22.7504 47.9398 22.7504 41.9398C22.8807 37.5269 22.5455 33.1126 21.7504 28.7699C21.0004 25.8799 19.8603 23.9298 18.1903 22.9598V22.9701Z" fill="#150035"/>
<path fill-rule="evenodd" clip-rule="evenodd" d="M18.1903 66.4798C12.6999 63.2748 8.37917 58.397 5.86035 52.5598C3.09035 46.4198 1.68042 38.7596 1.68042 29.7796C1.68042 20.4296 3.02042 14.2898 5.68042 11.5398C6.25234 10.9398 6.94404 10.4669 7.71069 10.1516C8.47735 9.83636 9.30177 9.68563 10.1304 9.70974C12.2404 9.70974 14.7703 10.5598 17.7003 12.2498C23.1919 15.4641 27.5095 20.3532 30.0204 26.2C32.8004 32.37 34.2103 40.0899 34.2103 49.1399C34.2103 58.4399 32.8703 64.5295 30.2103 67.2395C27.5503 69.9495 23.6103 69.6098 18.2103 66.4798H18.1903ZM47.8403 30.0598L45.2904 22.47L32.4803 29.8797C32.0339 28.4861 31.5132 27.1174 30.9204 25.7796C28.3209 19.7394 23.8565 14.6901 18.1804 11.3699C12.3004 7.9699 7.84041 7.79963 4.92041 10.8396C2.00041 13.8796 0.650391 20.0196 0.650391 29.7796C0.650391 38.8996 2.09041 46.7098 4.92041 52.9798C7.5273 59.0107 11.995 64.0494 17.6704 67.3596C20.7904 69.1596 23.5038 70.0598 25.8104 70.0598C26.7636 70.0833 27.7112 69.9075 28.5928 69.5442C29.4743 69.1809 30.2705 68.6382 30.9304 67.95C31.2384 67.6384 31.5225 67.3041 31.7804 66.95L40.5604 61.95L45.2604 58.2097L47.3904 52.2097L48.3403 43.0896L47.8403 30.0598Z" fill="#150035"/>
<path fill-rule="evenodd" clip-rule="evenodd" d="M43.7305 51.5698L55.8705 44.46L59.6205 52.9897L56.6205 60.3398L49.0305 57.3398C49.0305 57.3398 45.4505 55.7698 45.3705 55.3398C45.2905 54.9098 43.7305 51.5698 43.7305 51.5698Z" fill="#AEC2D4" stroke="#AEC2D4" stroke-width="0.216" stroke-miterlimit="22.9256"/>
<path fill-rule="evenodd" clip-rule="evenodd" d="M45.88 55.1499C46.9564 55.8316 48.0908 56.4172 49.27 56.8999L56.36 59.6699L59.05 53.0098L55.62 45.2202L44.4 51.79C44.86 52.79 45.69 54.5802 45.88 55.1602V55.1499ZM56.95 61.02L48.88 57.8701C45.03 56.1801 44.94 55.72 44.88 55.48C44.82 55.24 44 53.4001 43.25 51.8101V51.7002V51.2798L56.16 43.7202L60.24 52.9897L56.95 61.02Z" fill="#150035"/>
<path fill-rule="evenodd" clip-rule="evenodd" d="M36.6797 65.79L47.1497 59.3799L53.9996 63.48C53.9996 63.48 60.9996 70.8199 60.7196 71.8599C60.4396 72.8999 58.3796 80.9302 58.3796 80.9302C58.3796 80.9302 45.7896 82.2501 45.6196 81.3301C45.4496 80.4101 39.2496 75 39.2496 75L36.6797 65.79Z" fill="#AEC2D4" stroke="#AEC2D4" stroke-width="0.216" stroke-miterlimit="22.9256"/>
<path fill-rule="evenodd" clip-rule="evenodd" d="M46.0004 81.02C47.0004 81.33 52.6704 81.0202 57.9104 80.4502C58.3104 78.8902 59.9104 72.65 60.1504 71.73C60.0504 71.06 56.6904 67.1201 53.6104 63.8901L47.1404 60L37.2804 66L39.6604 74.6802C41.8804 76.6202 45.4104 79.8097 46.0004 80.9897V81.02ZM48.1304 82.1899C45.2004 82.1899 45.1304 81.7502 45.0504 81.4302C44.8404 80.8602 41.7303 77.9102 38.8503 75.4302L38.7303 75.3301L36.1504 65.9302V65.5298L47.1504 58.7998L54.3403 63.1499C59.1003 68.1499 61.4103 71.15 61.1903 72.02C60.9303 73.02 58.8503 81.1001 58.8503 81.1001L58.7604 81.4502H58.4004C53.2204 82.0002 50.0704 82.1899 48.1404 82.1899H48.1304Z" fill="#150035"/>
<path fill-rule="evenodd" clip-rule="evenodd" d="M84.1591 74.5498C84.1591 67.9631 80.9623 62.0933 74.569 56.9399C73.569 56.4299 57.7991 64.2398 57.7991 64.2398C57.7991 64.2398 57.1591 68.7398 56.5391 73.2398C57.1791 73.7898 57.8191 74.31 58.4291 74.79C59.0391 75.27 59.7491 75.7902 60.4291 76.2202L61.709 81.6802L65.769 91.3101L80.249 82.7798C80.6456 82.6018 81.0212 82.3808 81.369 82.1201C83.229 80.7001 84.1591 78.1765 84.1591 74.5498Z" fill="#AEC2D4" stroke="#AEC2D4" stroke-width="0.216" stroke-miterlimit="22.9256"/>
<path fill-rule="evenodd" clip-rule="evenodd" d="M57.1005 73.03C57.6605 73.51 58.2105 73.9601 58.7505 74.3801C59.2905 74.8001 59.7505 75.1104 60.2605 75.4704L60.8805 75.9103L62.2104 81.5602L66.0105 90.5602L80.0105 82.3303C80.363 82.1681 80.6981 81.9701 81.0105 81.7399L81.0804 81.6901C82.7804 80.3901 83.6505 77.9902 83.6505 74.5602C83.6505 68.2202 80.5305 62.4601 74.3705 57.4601C73.0905 57.5801 65.2705 61.17 58.2905 64.61C58.1505 65.61 57.6205 69.3 57.1105 73.05L57.1005 73.03ZM65.5105 92.03L61.2205 81.8503L59.9604 76.5099L59.6605 76.3C59.1305 75.93 58.6105 75.5604 58.1105 75.1804C57.6105 74.8004 56.8504 74.1803 56.2004 73.6203L55.9805 73.4304V73.1501C56.5905 68.6501 57.2405 64.1501 57.2405 64.1501V63.8801L57.4905 63.7599C68.1505 58.4999 73.9605 56.0404 74.7405 56.4704C81.3105 61.7604 84.6005 67.8202 84.6005 74.5402C84.6005 78.1502 83.6805 80.76 81.8705 82.3L81.5704 82.4899C81.1978 82.7673 80.7953 83.0023 80.3705 83.1901L65.5105 92.03Z" fill="#252422"/>
<path fill-rule="evenodd" clip-rule="evenodd" d="M58.8507 53.3401L61.6508 54.9504C62.2308 55.2838 62.7841 55.6171 63.3108 55.9504L65.1508 63.3503L65.2407 63.4602L69.4407 61.01L75.4407 57.53L79.6608 55.0701L79.8008 54.99L79.8907 54.9402C80.0671 54.8367 80.2374 54.7234 80.4008 54.6003C82.1208 53.267 82.9807 50.9738 82.9807 47.7205C82.8824 43.6518 81.4802 39.7218 78.9807 36.51C76.0171 32.5587 72.2471 29.283 67.9208 26.9001C65.2196 25.2612 62.3101 23.9931 59.2708 23.1301C56.8617 22.4942 54.3366 22.4361 51.9008 22.9602L36.7207 31.8601L58.8907 43.0002L58.8507 53.3401Z" fill="#AEC2D4" stroke="#AEC2D4" stroke-width="0.216" stroke-miterlimit="22.9256"/>
<path fill-rule="evenodd" clip-rule="evenodd" d="M59.3807 53.0399L61.9108 54.4999C62.5008 54.8399 63.0607 55.1799 63.5907 55.4999L63.7708 55.6098L65.5308 62.6801L79.6007 54.4701C79.7599 54.3794 79.9136 54.2789 80.0608 54.1698C81.6408 52.9398 82.4407 50.7601 82.4407 47.7001C82.3318 43.743 80.962 39.9237 78.5308 36.7997C73.5546 30.5316 66.7823 25.9334 59.1207 23.62C56.8161 23.0166 54.4031 22.9548 52.0707 23.4398L37.7908 31.81L59.3907 42.6601V53.0399H59.3807ZM65.1207 64.1498L64.6508 63.4799L62.8607 56.2899C62.3941 55.9966 61.9041 55.7034 61.3907 55.4101L58.3307 53.64V43.31L36.3307 32.31L36.0508 31.6298L51.7207 22.4701C54.2389 21.9287 56.8491 21.9869 59.3407 22.64C62.4249 23.5199 65.3777 24.808 68.1207 26.4701C72.5073 28.8956 76.331 32.2215 79.3407 36.2299C81.9031 39.5301 83.3432 43.5629 83.4507 47.7397C83.4507 51.1397 82.5108 53.5999 80.6708 55.0399L80.4807 55.1801L80.0907 55.3998L79.9707 55.4701L79.8507 55.5399L65.1207 64.1498Z" fill="#150035"/>
<path fill-rule="evenodd" clip-rule="evenodd" d="M67.8296 56.5901C67.8296 59.8434 66.9696 62.1371 65.2496 63.4705C63.5296 64.8038 61.0463 65.06 57.7997 64.24V64.4602C65.3797 69.9335 69.1663 76.2669 69.1597 83.4602C69.1597 88.3402 67.493 91.2137 64.1597 92.0803C60.8263 92.947 56.1829 91.6636 50.2296 88.2302C47.8677 86.8735 45.5992 85.3603 43.4396 83.7004C41.049 81.8137 38.7905 79.7652 36.6797 77.5701V65.8103C38.5406 67.999 40.5701 70.0387 42.7496 71.9104C44.5228 73.4541 46.4304 74.8361 48.4496 76.0403C51.1163 77.5936 53.0796 78.2901 54.3396 78.1301C55.5996 77.9701 56.2162 76.9701 56.1896 75.1301C56.198 73.7752 55.8534 72.4412 55.1896 71.26C54.3671 69.9049 53.3147 68.7038 52.0796 67.7102C50.3341 66.2724 48.4634 64.9941 46.4896 63.8904L43.6996 62.28V51.6301L46.5597 53.28C52.793 56.88 55.9097 56.8368 55.9097 53.1501C55.9012 51.738 55.4148 50.3706 54.5297 49.2703C53.5126 47.986 52.2517 46.9156 50.8196 46.1204C48.121 44.4891 44.9409 43.8424 41.8196 44.2903L36.7296 31.8801C39.1654 31.356 41.6906 31.4142 44.0996 32.05C47.139 32.913 50.0485 34.1811 52.7496 35.8201C57.0753 38.204 60.8452 41.48 63.8097 45.4304C66.3063 48.6261 67.7149 52.5364 67.8296 56.5901Z" fill="#AEC2D4" stroke="#AEC2D4" stroke-width="0.216" stroke-miterlimit="22.9256"/>
<path fill-rule="evenodd" clip-rule="evenodd" d="M47.561 56.2002C53.7944 59.8002 56.911 59.7565 56.911 56.0698C56.9018 54.6579 56.4154 53.2906 55.531 52.1899C54.7927 51.2435 53.9122 50.4168 52.921 49.7397L44.7109 54.5498L47.561 56.2002Z" fill="#FDFDFD"/>
<path fill-rule="evenodd" clip-rule="evenodd" d="M43.4794 75.48C45.2524 77.0238 47.1601 78.4059 49.1794 79.6099C51.8461 81.1632 53.8061 81.8602 55.0594 81.7002C56.3128 81.5402 56.9294 80.5402 56.9094 78.7002C56.9179 77.3452 56.5732 76.0113 55.9094 74.8301C55.0869 73.475 54.0345 72.2734 52.7994 71.2798C51.054 69.8419 49.1831 68.5637 47.2094 67.46L44.4094 65.8501L43.3094 65.7798L37.3594 69.4199C39.2369 71.5976 41.2833 73.624 43.4794 75.48Z" fill="#FDFDFD"/>
<path fill-rule="evenodd" clip-rule="evenodd" d="M67.8804 76.3999L82.9503 67.8101L84.1604 73.3101L83.8804 78.4302L81.1504 82.4302L67.1504 90.0498L68.7804 87.2002C68.7804 87.2002 69.0104 81.4401 69.1304 81.1201C68.8083 79.5232 68.3909 77.9469 67.8804 76.3999Z" fill="#150035"/>
<path fill-rule="evenodd" clip-rule="evenodd" d="M63.4592 69.5898L78.6293 60.79L75.4093 57.5298L64.6293 63.77L60.6793 64.7002L58.2793 64.5898L63.4592 69.5898Z" fill="#150035"/>
<path fill-rule="evenodd" clip-rule="evenodd" d="M62.619 46.0401L77.899 37.3199C75.3036 34.5456 72.2988 32.1849 68.989 30.3199C66.2876 28.6814 63.3782 27.4134 60.339 26.5498C57.93 25.9136 55.4048 25.8554 52.969 26.3799L37.7891 35.2798H37.879V35.2202C40.3148 34.6961 42.84 34.7543 45.249 35.3902C48.2881 36.2541 51.1974 37.5221 53.899 39.1602C57.1321 41.0065 60.0712 43.3253 62.619 46.0401Z" fill="#FDFDFD"/>
<path fill-rule="evenodd" clip-rule="evenodd" d="M65.7795 52.5801C65.9195 53.1101 66.0496 53.7 66.1696 54.25L81.2695 45.71C81.1099 44.1117 80.74 42.5416 80.1696 41.04L64.6895 49.7397C65.1422 50.6496 65.5072 51.6009 65.7795 52.5801Z" fill="#FDFDFD"/>
<path fill-rule="evenodd" clip-rule="evenodd" d="M37.2003 77.3399C39.2491 79.4572 41.4373 81.4349 43.7504 83.2598C45.8912 84.9047 48.1395 86.405 50.4803 87.75C56.2703 91.09 60.8204 92.3801 64.0104 91.5401C67.2004 90.7001 68.6304 88.0802 68.6304 83.4302C68.6304 76.4302 64.8803 70.2299 57.4803 64.8799L57.2604 64.7203V63.5699L57.9104 63.7398C60.9804 64.5198 63.3404 64.2901 64.9104 63.0601C66.4804 61.8301 67.2904 59.6499 67.2904 56.5899C67.1822 52.6327 65.8122 48.8137 63.3804 45.69C58.4164 39.4158 51.6549 34.807 44.0004 32.48C41.8725 31.9202 39.6495 31.8213 37.4803 32.19L42.1804 43.6402C45.2939 43.2875 48.4366 43.9727 51.1204 45.5899C52.6096 46.4196 53.9212 47.5343 54.9803 48.8702C55.9354 50.0627 56.4603 51.5421 56.4703 53.0699C56.5377 53.6346 56.4494 54.207 56.215 54.7251C55.9806 55.2433 55.609 55.6875 55.1404 56.0098C53.5504 56.9198 50.6803 56.1499 46.3403 53.6499L44.2704 52.4502V61.8902L46.8004 63.3501C48.8022 64.472 50.6997 65.7703 52.4703 67.23C53.7496 68.264 54.8391 69.5125 55.6903 70.92C56.3738 72.1875 56.7183 73.61 56.6903 75.0499C56.6903 77.7398 55.4404 78.4699 54.3904 78.6099C53.0204 78.7799 50.9904 78.0802 48.1704 76.4502C46.1232 75.2279 44.1888 73.8253 42.3904 72.2598C40.5406 70.6757 38.8 68.9686 37.1804 67.1499V77.3101L37.2003 77.3399ZM61.9904 92.8301C58.8004 92.8301 54.7604 91.4302 49.9904 88.6602C47.6114 87.2904 45.3264 85.7634 43.1504 84.0899C40.7436 82.1894 38.4684 80.1281 36.3403 77.92L36.1903 77.7701V65.48L36.8203 65.0899L37.1104 65.4302C38.9518 67.5827 40.9578 69.5888 43.1104 71.4302C44.8591 72.9541 46.7398 74.3191 48.7303 75.5098C51.9403 77.3598 53.5304 77.6398 54.2904 77.5098C54.8904 77.4298 55.6804 77.0898 55.6804 74.9898C55.6976 73.7257 55.3875 72.479 54.7804 71.3702C53.9853 70.0685 52.9702 68.9145 51.7804 67.96C50.0598 66.5445 48.2157 65.2864 46.2704 64.2002L43.2103 62.4302V51.1802L43.7303 50.8702L46.8503 52.67C51.7403 55.5 53.7703 55.5198 54.6003 55.0298C55.1403 54.7198 55.4104 54.0298 55.4104 53.0298C55.3988 51.7342 54.9514 50.4807 54.1404 49.4703C53.1621 48.2464 51.9523 47.227 50.5803 46.4703C47.98 44.9003 44.918 44.2751 41.9104 44.7002L41.5004 44.7598L36.0703 31.5401L36.5803 31.2701C39.0984 30.7271 41.709 30.7853 44.2003 31.44C47.2845 32.3198 50.2374 33.608 52.9803 35.2701C57.3673 37.695 61.1911 41.0211 64.2003 45.0298C66.7633 48.3297 68.2036 52.3632 68.3104 56.5401C68.3104 59.9401 67.3704 62.3999 65.5304 63.8399C64.6655 64.4403 63.6881 64.8597 62.657 65.0728C61.6259 65.2859 60.5624 65.2885 59.5304 65.0801C66.2604 70.3901 69.6704 76.5402 69.6704 83.3902C69.6704 88.5102 67.8504 91.5798 64.2604 92.5098C63.5234 92.7107 62.7641 92.8185 62.0004 92.8301H61.9904Z" fill="#150035"/>
</svg>
