<svg width="80" height="93" viewBox="0 0 80 93" fill="none" xmlns="http://www.w3.org/2000/svg">
<path fill-rule="evenodd" clip-rule="evenodd" d="M46.9402 39.48C46.9402 30.5734 45.5669 23.08 42.8202 17C40.3458 11.2233 36.0791 6.39559 30.6502 3.23002C26.2302 0.680018 23.0602 -0.0699819 20.4602 1.23002L20.1102 1.35014L19.6002 1.64994L19.3902 1.77982L7.16016 9.04984L14.4802 16.1202C14.4002 17.5468 14.3568 19.0736 14.3502 20.7002C14.3502 29.5336 15.7169 36.9765 18.4502 43.0298C20.6054 48.0033 24.0853 52.2893 28.5102 55.42L28.6202 66.1402L41.5402 58.5098C42.0399 58.2399 42.5007 57.9035 42.9102 57.5098C45.5968 54.6965 46.9402 48.6867 46.9402 39.48Z" fill="#AEC2D4" stroke="#AEC2D4" stroke-width="0.216" stroke-miterlimit="22.9256"/>
<path fill-rule="evenodd" clip-rule="evenodd" d="M8.00085 9.11999L15.0009 15.89V16.12C14.9209 17.56 14.8809 19.1198 14.8809 20.6698C14.8809 29.3898 16.2509 36.8297 18.9409 42.7997C21.0644 47.6888 24.4844 51.9041 28.8309 54.9896L29.0408 55.14L29.1509 65.2499L41.3309 58.0297C41.7993 57.7579 42.2268 57.4212 42.6008 57.0297C45.1708 54.3997 46.4708 48.4801 46.4708 39.4501C46.4708 30.6601 45.1009 23.1598 42.4009 17.1698C39.9525 11.4863 35.7467 6.73746 30.4009 3.61999C26.0009 1.07999 23.0108 0.469987 20.6808 1.61999L20.2709 1.76989L19.6409 2.16003L8.00085 9.11999ZM28.1708 66.9701L28.0508 55.6498C23.6643 52.4728 20.2108 48.1767 18.0508 43.2098C15.3008 37.1198 13.9009 29.54 13.9009 20.68C13.9009 19.17 13.9009 17.6797 14.0109 16.2997L6.38086 8.93981L19.1608 1.33971L19.2908 1.25964L19.8809 0.910026L20.3209 0.74987C22.9209 -0.54013 26.2008 0.0796745 30.9208 2.79967C36.4328 6.02643 40.7675 10.9323 43.2908 16.7997C46.0508 22.9197 47.4509 30.5496 47.4509 39.4896C47.4509 48.9196 46.0908 54.8999 43.3008 57.7699C42.9395 58.151 42.5332 58.4867 42.0909 58.7699L41.8309 58.9501L28.1708 66.9701Z" fill="#150035"/>
<path fill-rule="evenodd" clip-rule="evenodd" d="M10.91 21.8901L10.25 50.5801L16.69 57.77L24.46 58.9502L25.04 52.8999L23.47 21.1699L17.64 16.2998L10.91 21.8901Z" fill="#AEC2D4" stroke="#AEC2D4" stroke-width="0.216" stroke-miterlimit="22.9256"/>
<path fill-rule="evenodd" clip-rule="evenodd" d="M14.7198 47.7003L21.5598 43.5602C21.5598 43.5602 25.9398 37.3603 25.9398 37.1203C25.9398 36.8803 21.0698 19.36 21.0698 19.36C21.0698 19.36 13.7398 15.8902 13.2298 15.8102C12.7198 15.7302 9.08984 23.1601 9.08984 24.9401C9.08984 26.7201 9.4198 39.6903 9.4198 40.1803C9.4198 40.6703 11.3198 48.11 11.3198 48.11L12.6398 48.36L14.7198 47.7003Z" fill="#150035"/>
<path fill-rule="evenodd" clip-rule="evenodd" d="M23.2406 44.27L16.1406 48.8101C16.1406 48.8101 19.2006 54.92 23.2406 51.29C27.2806 47.66 23.2406 44.27 23.2406 44.27Z" fill="#FDFDFD"/>
<path fill-rule="evenodd" clip-rule="evenodd" d="M13.2291 35.4802C13.2291 41.3668 13.5625 45.6004 14.2291 48.1804C14.8958 50.7604 15.9658 52.4836 17.4391 53.3503C18.9591 54.2303 20.0325 53.7102 20.6591 51.7902C21.2858 49.8702 21.5991 46.04 21.5991 40.3C21.7148 36.0499 21.3796 31.7998 20.5991 27.6203C19.9325 24.9536 18.8625 23.1769 17.3892 22.2902C15.9158 21.4036 14.8458 21.9036 14.1791 23.7902C13.5125 25.6569 13.1791 29.5566 13.1791 35.4899L13.2291 35.4802ZM33.6791 47.2902C33.6791 56.5036 32.3458 62.4804 29.6791 65.2204C27.0125 67.9604 22.9192 67.7403 17.3992 64.5603C11.9694 61.4021 7.69911 56.5814 5.21912 50.8103C2.48578 44.7569 1.11914 37.3135 1.11914 28.4802C1.11914 19.2202 2.45247 13.2001 5.11914 10.4201C7.78581 7.64012 11.8758 7.84022 17.3892 11.0202C22.818 14.1858 27.0847 19.0135 29.5591 24.7902C32.3058 30.8969 33.6791 38.4036 33.6791 47.3103V47.2902Z" fill="#AEC2D4" stroke="#AEC2D4" stroke-width="0.216" stroke-miterlimit="22.9256"/>
<path fill-rule="evenodd" clip-rule="evenodd" d="M29.8394 6.29008C25.4194 3.74008 22.2494 2.99008 19.6494 4.29008L19.2994 4.41019L18.7894 4.71L18.5794 4.83988L6.35938 12.1099C8.91937 11.0199 12.3594 11.6799 16.5694 14.1099C20.4537 16.3529 23.7506 19.4855 26.1894 23.25L39.4694 15.4502C37.0308 11.6767 33.7301 8.5369 29.8394 6.29008Z" fill="#FDFDFD"/>
<path fill-rule="evenodd" clip-rule="evenodd" d="M20.1508 51.6498C19.8608 52.5198 19.5007 53.0501 19.0507 53.2201C18.8097 53.2814 18.558 53.2876 18.3141 53.2392C18.0701 53.1908 17.8401 53.0886 17.6407 52.9399C16.2707 52.1499 15.2707 50.51 14.6407 48.08C14.0107 45.65 13.7007 41.3299 13.7007 35.4999C13.7007 29.6699 14.0107 25.7599 14.6307 23.9599C14.9207 23.1199 15.2907 22.6101 15.7207 22.4501C15.8329 22.4094 15.9514 22.389 16.0707 22.3901C16.4449 22.4149 16.8065 22.535 17.1207 22.7397C18.4907 23.5297 19.4907 25.2197 20.1207 27.7397C20.8738 31.8818 21.1889 36.0917 21.0607 40.2997C21.0607 45.9597 20.7507 49.7801 20.1407 51.6401L20.1508 51.6498ZM17.6508 21.8798C17.3262 21.6559 16.9553 21.5083 16.5657 21.4477C16.1762 21.3871 15.778 21.415 15.4008 21.5297C14.9809 21.7361 14.6122 22.0336 14.3216 22.4003C14.031 22.767 13.8257 23.1939 13.7207 23.6498C13.0607 25.5798 12.7207 29.4597 12.7207 35.5097C12.7207 41.5597 13.0507 45.7298 13.7207 48.3198C14.3907 50.9098 15.5507 52.8597 17.1607 53.7997C17.6266 54.0924 18.161 54.2578 18.7108 54.2797C18.9533 54.2798 19.1939 54.2359 19.4207 54.1498C19.8464 53.9333 20.2183 53.6245 20.509 53.2455C20.7997 52.8666 21.0019 52.4272 21.1007 51.9599C21.7507 49.9599 22.1007 46.16 22.1007 40.31C22.2179 36.0234 21.8827 31.7363 21.1007 27.52C20.4207 24.71 19.2607 22.8098 17.6407 21.8798H17.6508Z" fill="#150035"/>
<path fill-rule="evenodd" clip-rule="evenodd" d="M17.6392 64.15C12.2972 61.0414 8.09169 56.3031 5.63916 50.6299C2.94916 44.6299 1.57916 37.2201 1.57916 28.5001C1.57916 19.4201 2.87916 13.5001 5.44916 10.7901C6.00505 10.2089 6.67687 9.75078 7.42108 9.44586C8.16529 9.14094 8.96527 8.996 9.76917 9.02008C12.3899 9.20218 14.9203 10.0523 17.1191 11.4898C22.4655 14.6067 26.6714 19.3562 29.1191 25.0401C31.8191 31.0401 33.1891 38.5299 33.1891 47.3199C33.1891 56.3199 31.8892 62.3202 29.3192 64.9102C26.7492 67.5002 22.9092 67.21 17.6492 64.17L17.6392 64.15ZM46.4391 28.7701L43.9691 21.4L31.5292 28.6002C31.098 27.2407 30.5939 25.9054 30.0192 24.6002C27.4958 18.7328 23.1611 13.8269 17.6492 10.6002C11.9392 7.30016 7.64917 7.13014 4.76917 10.0801C1.88916 13.0301 0.619141 19 0.619141 28.48C0.619141 37.34 2.01917 44.9198 4.76917 51.0098C7.29716 56.8805 11.6393 61.7869 17.1591 65.0098C20.1858 66.7565 22.8225 67.6299 25.0692 67.6299C25.9959 67.663 26.9193 67.5022 27.7803 67.1578C28.6413 66.8134 29.4209 66.293 30.0692 65.6299C30.3711 65.3184 30.6486 64.9841 30.8992 64.6299L39.4291 59.8101L43.9991 56.1802L46.0591 50.3101L46.9791 41.4503L46.4391 28.7701Z" fill="#150035"/>
<path fill-rule="evenodd" clip-rule="evenodd" d="M58.2194 46.6902L59.0095 51.0403L62.7795 64.1501L68.9794 60.76C70.3294 60.08 71.3594 59.5203 71.9794 59.1003C73.3045 58.2975 74.4901 57.2842 75.4894 56.1003C76.3979 54.9989 77.0778 53.7272 77.4894 52.3601C77.9375 50.7321 78.1497 49.0483 78.1194 47.3601C78.0776 44.5678 77.4615 41.8142 76.3094 39.2703C75.0582 36.4114 73.3378 33.7815 71.2194 31.49C69.0596 29.1186 66.5467 27.0947 63.7695 25.49C61.8858 24.3586 59.8709 23.462 57.7695 22.8201C56.1767 22.3368 54.5113 22.1372 52.8494 22.2302C50.9041 22.4684 49.0138 23.0367 47.2595 23.9104L34.6895 31.1702L50.5195 36.1702L58.2194 46.6902Z" fill="#AEC2D4" stroke="#AEC2D4" stroke-width="0.216" stroke-miterlimit="22.9256"/>
<path fill-rule="evenodd" clip-rule="evenodd" d="M35.94 30.9896L50.86 35.7099L58.71 46.6L59.5 50.9501L63.08 63.4198L68.74 60.33C70.1 59.64 71.12 59.0901 71.74 58.6801C73.0201 57.9001 74.1651 56.9171 75.13 55.7699C75.9826 54.7148 76.6181 53.5017 77 52.2001C77.4362 50.6077 77.6416 48.9607 77.61 47.31C77.5633 44.5869 76.9611 41.9019 75.84 39.4198C74.6086 36.6135 72.9189 34.0314 70.84 31.7797C68.7108 29.4451 66.2352 27.4521 63.5 25.87C61.6563 24.7603 59.6854 23.8768 57.63 23.2396C56.0918 22.7752 54.4844 22.5824 52.88 22.6698C50.9936 22.9063 49.161 23.4609 47.46 24.31L35.91 30.9896H35.94ZM62.07 64.9897L58.53 51.1601L57.75 46.8798L50.24 36.5399L34 30.89L47 23.4398C48.8197 22.5308 50.7812 21.939 52.8 21.6898C54.5219 21.5922 56.2478 21.7953 57.9 22.2899C60.0356 22.9474 62.0837 23.8605 64 25.0097C66.8212 26.6429 69.3744 28.7003 71.57 31.1098C73.7237 33.4407 75.4743 36.114 76.75 39.0199C77.9271 41.6277 78.5567 44.4492 78.6 47.31C78.6476 49.0531 78.4456 50.794 78 52.4799C77.5964 53.9019 76.9168 55.2306 76 56.39C74.9673 57.6201 73.7413 58.6735 72.37 59.5097C71.7 59.9397 70.66 60.5101 69.28 61.2001L62.07 64.9897Z" fill="#150035"/>
<path fill-rule="evenodd" clip-rule="evenodd" d="M66.3809 91.8099L35.1809 73.8099V64.9799L45.6809 58.7797C47.7193 57.5654 49.6828 56.2296 51.5609 54.7797C52.3504 54.1486 53.0065 53.3669 53.4909 52.4799C53.8732 51.643 54.058 50.7296 54.0309 49.8099C54.0252 48.5046 53.647 47.2277 52.9409 46.1298C52.1777 44.9265 51.1258 43.9329 49.8809 43.2396C48.647 42.499 47.2173 42.1503 45.7809 42.2396C44.1601 42.3989 42.576 42.8211 41.0909 43.4896L34.7109 31.1801C36.4652 30.3064 38.3556 29.7381 40.3009 29.4999C41.9661 29.4065 43.6348 29.6061 45.2309 30.0897C47.3317 30.7332 49.3465 31.6297 51.2309 32.7597C54.0087 34.3636 56.5217 36.3875 58.6809 38.7597C60.7993 41.0512 62.5197 43.6811 63.7709 46.5399C64.9227 49.0839 65.5388 51.8375 65.5809 54.6298C65.6112 56.318 65.399 58.0018 64.9509 59.6298C64.539 60.9968 63.8591 62.2684 62.9509 63.37C61.9514 64.5538 60.7659 65.567 59.4409 66.37C56.4157 68.0876 53.3013 69.6428 50.1109 71.0297V71.37L66.3709 80.7597L66.3809 91.8099Z" fill="#AEC2D4" stroke="#AEC2D4" stroke-width="0.216" stroke-miterlimit="22.9256"/>
<path fill-rule="evenodd" clip-rule="evenodd" d="M62.4609 43.8901L75.1909 36.9102L78.1309 43.8901V49.8999L76.5009 54.6802L72.6709 58.6699L62.7809 64.1401L65.1709 60.4302L66.0209 55.0098L65.6209 50.6299L62.4609 43.8901Z" fill="#150035"/>
<path fill-rule="evenodd" clip-rule="evenodd" d="M59.8897 42.2498L59.9997 42.3797L72.3797 34.8997C70.2396 32.5618 67.7541 30.5654 65.0097 28.9798C63.1258 27.849 61.1109 26.9524 59.0097 26.3099C57.417 25.8264 55.7516 25.6268 54.0897 25.72C52.1444 25.9579 50.2538 26.5257 48.4997 27.3997L35.9297 34.66C37.6841 33.7865 39.5745 33.2182 41.5197 32.9798C43.1816 32.8866 44.847 33.0862 46.4397 33.5697C48.5409 34.2122 50.5558 35.1088 52.4397 36.2396C55.218 37.8469 57.7311 39.8744 59.8897 42.2498Z" fill="#FDFDFD"/>
<path fill-rule="evenodd" clip-rule="evenodd" d="M50.1309 71.02L62.7009 64.1001L78.9609 73.48L66.3809 80.7402L50.1309 71.3501V71.02Z" fill="#AEC2D4" stroke="#AEC2D4" stroke-width="0.216" stroke-miterlimit="22.9256"/>
<path fill-rule="evenodd" clip-rule="evenodd" d="M50.6406 74.04L63.2206 67.1201L79.4706 76.5098L66.9006 83.77L50.6406 74.3799V74.04Z" fill="#FDFDFD"/>
<path fill-rule="evenodd" clip-rule="evenodd" d="M65.8903 90.9598L35.6802 73.4798V65.22L45.9503 59.16C48.0111 57.9253 49.9948 56.5658 51.8903 55.0897C52.7117 54.4087 53.3913 53.5729 53.8903 52.6297C54.3072 51.7245 54.5124 50.736 54.4902 49.7396C54.4855 48.3396 54.0833 46.9701 53.3303 45.7899C52.5231 44.5212 51.4131 43.4728 50.1002 42.7396C48.7843 41.9411 47.2569 41.5611 45.7202 41.6497C44.1989 41.7924 42.7084 42.1666 41.3002 42.7596L35.3702 31.3196C36.9286 30.5787 38.597 30.0961 40.3102 29.89C41.9147 29.8009 43.5224 29.9937 45.0602 30.4598C47.1159 31.0962 49.0869 31.9792 50.9302 33.0897C53.6656 34.6715 56.1412 36.665 58.2703 38.9998C60.3497 41.2511 62.0395 43.8333 63.2703 46.64C64.3932 49.1214 64.9956 51.8063 65.0402 54.5296C65.0715 56.1804 64.8661 57.8273 64.4302 59.4197C64.0476 60.7211 63.4121 61.934 62.5602 62.9896C61.5948 64.1363 60.4499 65.1191 59.1702 65.8997C56.1599 67.6041 53.0624 69.1495 49.8903 70.5296L49.6002 70.66V71.5999L65.8602 80.9896V90.91L65.8903 90.9598ZM78.9603 72.9598L66.3903 80.22L50.8802 71.22C53.9076 69.8995 56.8618 68.417 59.7302 66.7796C61.1006 65.9422 62.3264 64.8889 63.3602 63.66C64.2769 62.5004 64.9564 61.1717 65.3602 59.7498C65.8225 58.0663 66.0414 56.3254 66.0103 54.5799C65.9667 51.7192 65.337 48.8977 64.1602 46.2899C62.8849 43.3838 61.1342 40.7104 58.9802 38.3797C56.7848 35.97 54.2316 33.9125 51.4102 32.2796C49.494 31.1303 47.4458 30.2173 45.3102 29.5599C43.6579 29.0654 41.9322 28.8623 40.2103 28.9598C38.2095 29.2067 36.2651 29.7916 34.4603 30.6898L33.9902 30.91L40.8203 44.0897L41.2402 43.91C42.6748 43.2642 44.2047 42.8556 45.7703 42.7C47.115 42.6433 48.4458 42.9917 49.5903 43.7C50.7645 44.3527 51.7577 45.2872 52.4802 46.4197C53.1296 47.4426 53.4763 48.6281 53.4802 49.8397C53.5064 50.6863 53.3388 51.5277 52.9902 52.2996C52.5363 53.124 51.9247 53.8513 51.1902 54.4398C49.3344 55.8869 47.3944 57.2226 45.3802 58.4398L34.6403 64.7796V74.18L65.8403 92.18L66.3403 92.47L66.8403 92.18L79.4102 84.9197V73.2796L78.9603 72.9598Z" fill="#150035"/>
<path fill-rule="evenodd" clip-rule="evenodd" d="M63.2802 63.8398H63.2002L62.2002 64.3599L78.0002 73.48L66.4202 80.1699L50.9102 71.1699L49.6602 71.6001L66.1702 81.1299L66.4202 81.27L79.4902 73.7202V73.1499L63.2802 63.8398Z" fill="#150035"/>
</svg>
