<svg width="146" height="115" viewBox="0 0 146 115" fill="none" xmlns="http://www.w3.org/2000/svg">
<path fill-rule="evenodd" clip-rule="evenodd" d="M79.26 79.1451L84.0522 113.414L101.646 71.6523L101.738 56.7128L1.65486 1.68932L40.7275 63.3092L79.2256 79.1221L79.26 79.1451Z" fill="#AFC3D5"/>
<path fill-rule="evenodd" clip-rule="evenodd" d="M80.5701 79.0417L84.7072 108.564L100.371 71.3995L100.463 57.4713L5.49315 5.25183L41.6468 62.2634L80.5701 78.2372V79.0417V79.0417ZM84.8911 114.897L82.857 114.563L82.7421 113.552L78.0534 80.0644L39.8771 64.3779L39.6472 64.0332L0 1.50544L1.41351 0L2.33287 0.494146L103.094 55.8968V56.6668L102.887 72.1465L84.8911 114.897Z" fill="#1C2A40"/>
<path fill-rule="evenodd" clip-rule="evenodd" d="M11.239 6.76874L101.842 70.1928L140.788 56.8622L11.239 6.76874ZM101.416 73.1233L100.876 72.7556L0.0343933 2.14899L1.10314 0.0919189L2.25233 0.471173L145.994 56.0578V57.816L145.132 58.1493L101.416 73.1233Z" fill="#1C2A40"/>
<path d="M90.3527 82.9785L88.1531 88.3283L90.0908 89.125L92.2904 83.7752L90.3527 82.9785Z" fill="#1C2A40"/>
<path d="M96.4906 68.0568L91.4485 80.3142L93.3861 81.1112L98.4282 68.8539L96.4906 68.0568Z" fill="#1C2A40"/>
<path d="M88.9422 62.9266L84.6366 73.1095L86.5997 73.9396L90.9054 63.7567L88.9422 62.9266Z" fill="#1C2A40"/>
<path d="M12.1294 64.3271L9.98975 64.8642L11.9161 72.5389L14.0557 72.0018L12.1294 64.3271Z" fill="#1C2A40"/>
<path d="M7.88962 47.4479L5.75 47.9849L9.2384 61.8831L11.378 61.3461L7.88962 47.4479Z" fill="#1C2A40"/>
<path d="M60.5773 64.4966L59.4688 66.2021L64.4987 69.471L65.6071 67.7655L60.5773 64.4966Z" fill="#AFC3D5"/>
<path fill-rule="evenodd" clip-rule="evenodd" d="M84.0292 113.449L36.7169 74.1346L79.2371 79.1681L84.0292 113.46V113.449Z" fill="#1C2A40"/>
<path fill-rule="evenodd" clip-rule="evenodd" d="M40.9461 75.9274L82.3172 110.288L78.1226 80.3288L40.9806 75.9388L40.9461 75.9274ZM83.8341 115L83.1676 114.402L35.1542 74.4909L35.8552 72.6521L36.878 72.7441L80.5474 77.9154V79.0646L85.4659 114.104L83.8341 115Z" fill="#1C2A40"/>
<path d="M66.3416 86.25L64.2083 86.5517L65.6104 96.4665L67.7437 96.1648L66.3416 86.25Z" fill="#AFC3D5"/>
<path d="M72.8291 89.125L70.8329 89.4073L71.3827 93.2954L73.3789 93.0131L72.8291 89.125Z" fill="#AFC3D5"/>
<path d="M73.6019 94.505L71.6066 94.7929L72.5667 101.447L74.562 101.159L73.6019 94.505Z" fill="#AFC3D5"/>
<path fill-rule="evenodd" clip-rule="evenodd" d="M7.66666 4.82426L101.503 70.9167L141.833 57.0179L7.67744 4.79166L7.66666 4.82426Z" fill="#FEFEFE"/>
<path fill-rule="evenodd" clip-rule="evenodd" d="M75.2839 19.6282C70.8251 20.0649 69.7333 23.0758 64.0448 28.5805C59.1434 33.3604 55.4418 39.2317 53.2423 45.715C51.0818 52.1505 49.7947 56.0577 50.9439 60.0684L50.5532 63.9987L56.6554 67.9634L56.8164 68.0439C61.0109 70.5951 67.0442 69.7332 74.1462 64.8491C81.185 59.9131 86.4889 52.8842 89.3041 44.7612C93.3493 33.3382 91.6025 25.1559 86.6954 21.7773L86.4656 21.6049L80.6047 17.7896L75.2839 19.6282Z" fill="#1C2A40"/>
<path fill-rule="evenodd" clip-rule="evenodd" d="M51.9205 63.3321L57.3447 66.8602C61.3554 69.2735 66.998 68.1588 73.376 63.7574C80.1758 58.9675 85.3038 52.1675 88.0397 44.313C91.5448 34.3954 90.7404 26.1672 85.9252 22.823L85.6494 22.6162L80.4206 19.1686L75.4101 20.9039C72.7095 21.1682 71.5258 22.4783 68.9171 25.3512C67.8829 26.5004 66.6188 27.891 64.9754 29.4884C60.2263 34.1262 56.6392 39.8197 54.5062 46.1057C52.3113 52.6102 51.2195 56.1612 52.2078 59.6777L52.2768 59.919L51.9435 63.2977L51.9205 63.3321ZM62.022 70.756C59.9441 70.7847 57.8991 70.2357 56.1151 69.1701L55.9198 69.0667L49.1625 64.7112L49.5992 60.2178C48.45 55.8394 49.9669 51.415 52.0125 45.3358C54.282 38.6535 58.0974 32.6015 63.1482 27.6726C64.7226 26.1327 65.9292 24.8111 66.9865 23.639C69.6411 20.7085 71.4109 18.7664 75.0309 18.3642L80.7769 16.3186L87.4996 20.72C93.3605 24.7996 94.5212 33.9702 90.545 45.2208C87.6151 53.5809 82.1419 60.8143 74.893 65.9064C70.2387 69.1241 65.8488 70.756 62.022 70.756Z" fill="#1C2A40"/>
<path fill-rule="evenodd" clip-rule="evenodd" d="M66.7569 18.3871C77.8466 12.7446 86.2932 18.2377 85.6382 30.6605C84.9831 43.0833 75.4678 57.7241 64.3781 63.3666C53.2883 69.0092 44.8417 63.516 45.4968 51.0932C46.1518 38.6704 55.6672 24.0297 66.7569 18.3871Z" fill="#FEFEFE"/>
<path fill-rule="evenodd" clip-rule="evenodd" d="M74.9394 17.4792C72.2834 17.5709 69.6858 18.2833 67.3547 19.5593V19.5593C56.6557 24.995 47.4506 39.1761 46.8185 51.1507C46.5312 56.6668 48.1057 60.8384 51.2545 62.884C54.4033 64.9295 58.8621 64.6767 63.7807 62.1829C74.4682 56.7357 83.6847 42.5662 84.3168 30.5916C84.6041 25.0754 83.0297 20.9039 79.8809 18.8583C78.4034 17.9279 76.685 17.4523 74.9394 17.4907V17.4792ZM56.173 66.8946C53.9198 66.9304 51.7058 66.303 49.8065 65.0904C45.8302 62.5047 43.8192 57.5057 44.1639 51.0013C44.8419 38.1763 54.702 23.0184 66.148 17.1919C71.894 14.2385 77.3297 14.0432 81.3059 16.6288C85.2821 19.2145 87.2817 24.2135 86.937 30.718C86.2589 43.543 76.3988 58.7009 64.9644 64.5273C62.2608 65.9981 59.2494 66.813 56.173 66.9061V66.8946Z" fill="#1C2A40"/>
<path fill-rule="evenodd" clip-rule="evenodd" d="M67.2279 25.7075C59.942 29.948 53.2997 40.1759 52.3803 48.542C51.461 56.9082 56.6209 60.2638 63.8723 56.0233C71.1237 51.7828 77.8005 41.5549 78.7199 33.1888C79.6393 24.8226 74.5024 21.4785 67.2279 25.7075Z" fill="#1C2A40"/>
<path fill-rule="evenodd" clip-rule="evenodd" d="M67.8945 26.8567C60.9993 30.9019 54.5753 40.647 53.7019 48.6914C53.3227 52.139 54.0811 54.8051 55.7934 55.9199C57.5057 57.0346 60.2179 56.6553 63.2402 54.8971C70.1354 50.8519 76.5594 41.1067 77.4328 33.0623C77.812 29.6148 77.0536 26.9486 75.3413 25.8339C73.629 24.7192 70.9169 25.0984 67.8945 26.8567ZM58.1263 59.2065C56.7885 59.2285 55.4738 58.8569 54.3455 58.1378C51.7368 56.437 50.5646 52.9894 51.0703 48.4156C52.0356 39.6932 58.9882 28.9942 66.5614 24.5813C70.5377 22.2829 74.1576 21.9267 76.7778 23.6275C79.3979 25.3283 80.5586 28.7758 80.053 33.3496C79.0991 42.072 72.1465 52.7711 64.5618 57.184C62.6293 58.4053 60.4104 59.0987 58.1263 59.1951V59.2065Z" fill="#1C2A40"/>
<path fill-rule="evenodd" clip-rule="evenodd" d="M70.6754 27.9369C63.4009 32.1775 56.7471 42.4053 55.8277 50.7715C55.3884 53.1596 55.7948 55.6261 56.9769 57.7471C59.4062 57.9961 61.8458 57.3861 63.8721 56.0233C71.1465 51.7828 77.8004 41.5549 78.7197 33.1888C79.1417 30.794 78.7149 28.327 77.5131 26.2132C75.1029 25.9778 72.6859 26.5872 70.6754 27.9369V27.9369Z" fill="#AFC3D5"/>
<path fill-rule="evenodd" clip-rule="evenodd" d="M57.839 56.5289C59.7548 56.5126 61.6256 55.9462 63.2287 54.8971C70.1239 50.8519 76.5479 41.1067 77.4328 33.0624C77.7378 31.1682 77.4946 29.2262 76.7318 27.4658C74.8133 27.4882 72.9405 28.054 71.3306 29.0977V29.0977C64.4354 33.1428 58.0114 42.888 57.138 50.9324C56.8284 52.8265 57.0718 54.7697 57.839 56.5289V56.5289ZM58.1493 59.1721C57.7025 59.1717 57.2565 59.1333 56.8162 59.0571L56.2646 58.9652L55.9543 58.4941C54.5782 56.1199 54.0742 53.3397 54.5293 50.6336C55.4947 41.9112 62.4358 31.2122 70.0205 26.7993C72.3088 25.2891 75.0514 24.6227 77.7775 24.9146L78.3292 25.018L78.6394 25.4892C80.0138 27.8598 80.5178 30.6357 80.0645 33.3382C79.1106 42.0606 72.158 52.7596 64.5733 57.1725C62.6417 58.3958 60.4222 59.0894 58.1378 59.1836L58.1493 59.1721Z" fill="#1C2A40"/>
<path d="M86.0774 34.5984L84.969 36.3039L89.9988 39.5729L91.1073 37.8673L86.0774 34.5984Z" fill="#AFC3D5"/>
<path d="M59.5866 32.7167L58.4772 34.4217L61.7234 36.5338L62.8327 34.8288L59.5866 32.7167Z" fill="#AFC3D5"/>
<path fill-rule="evenodd" clip-rule="evenodd" d="M56.1268 51.6678L58.8848 53.4606L62.7691 50.5646L61.0338 46.8987V46.8182L77.5248 38.4291C77.9743 37.1293 78.3201 35.7959 78.5591 34.4414L78.6625 32.4533L75.9044 30.6605L56.7818 43.589L56.1268 51.6678Z" fill="#1C2A40"/>
<path fill-rule="evenodd" clip-rule="evenodd" d="M57.2067 51.1507L58.8616 52.2309L61.5162 50.2543L60.0223 47.1055V46.2666L60.5509 45.9218L76.6396 37.7166C77.0113 36.5902 77.2994 35.4378 77.5015 34.269L77.5705 32.9819L75.8697 31.8327L57.7009 44.1061L57.2067 51.1507ZM58.942 54.7017L55.0807 52.1964L55.8277 43.0029L75.9156 29.4194L79.7195 31.9017L79.5816 34.4759C79.3377 35.9251 78.9725 37.3513 78.4898 38.7394L78.3519 39.1301L62.3436 47.2779L64.0445 50.8634L58.942 54.7017Z" fill="#1C2A40"/>
<path fill-rule="evenodd" clip-rule="evenodd" d="M58.2758 45.037L58.2643 45.1059L60.0111 48.7719L56.1268 51.6678L53.771 46.5194L54.0238 41.8077L75.9045 30.672L75.6172 36.2111L58.2758 45.037Z" fill="#FEFEFE"/>
<path fill-rule="evenodd" clip-rule="evenodd" d="M54.8049 46.3241L56.5287 50.1049L58.7466 48.4501L57.2527 45.3013V44.4624L57.7813 44.1176L74.594 35.5561L74.7664 32.3498L54.9772 42.4283L54.7704 46.3126L54.8049 46.3241ZM55.7242 53.2192L52.7478 46.6918L53.0351 41.1412L77.0073 28.9482L76.5936 36.8317L59.5855 45.4851L61.2863 49.0707L55.7242 53.2192Z" fill="#1C2A40"/>
<path fill-rule="evenodd" clip-rule="evenodd" d="M4.11423 5.97583L27.4889 96.2106L76.8468 78.5935L4.11423 5.97583ZM26.4776 99.3709L25.3973 98.7848L25.2709 98.1528L0.149506 1.02277L1.85031 0.0344772L2.58579 0.700995L80.7311 78.6854L80.4208 80.1219L79.7198 80.3862L26.4776 99.3709Z" fill="#1C2A40"/>
<path fill-rule="evenodd" clip-rule="evenodd" d="M2.88607 3.84445L26.8982 96.7917L77.625 78.6418L2.875 3.83334L2.88607 3.84445Z" fill="#FEFEFE"/>
<path d="M16.5533 30.1508L8.95444 33.1012L9.65116 34.8956L17.25 31.9452L16.5533 30.1508Z" fill="#1C2A40"/>
<path d="M13.6377 35.9094L10.1194 37.156L10.7622 38.9703L14.2805 37.7238L13.6377 35.9094Z" fill="#1C2A40"/>
</svg>
