<svg width="101" height="133" viewBox="0 0 101 133" fill="none" xmlns="http://www.w3.org/2000/svg">
<path fill-rule="evenodd" clip-rule="evenodd" d="M64.3503 113.73H66.0004V66.48C66.0004 66.4 67.1504 51.1299 52.7404 44.6899L52.0703 46.2002C65.3903 52.1502 64.4104 65.8302 64.3604 66.4102L64.3503 113.73Z" fill="#272F3C"/>
<path d="M59.3545 57.0546L51.3984 61.8313L52.2477 63.2458L60.2038 58.4691L59.3545 57.0546Z" fill="#272F3C"/>
<path d="M59.9386 65.3316L51.9824 70.1084L52.8317 71.5229L60.7879 66.7461L59.9386 65.3316Z" fill="#272F3C"/>
<path fill-rule="evenodd" clip-rule="evenodd" d="M29.29 63.3503C29.6568 64.8701 30.4434 66.2561 31.5601 67.3503C31.2501 67.3503 29.56 67.1304 29.29 68.6804C28.9176 67.1584 28.1239 65.7721 27 64.6804C27.31 64.6804 29 64.9101 29.29 63.3601C29.26 63.3101 29.29 63.3203 29.29 63.3503Z" fill="#272F3C"/>
<path fill-rule="evenodd" clip-rule="evenodd" d="M22.6903 59.54C23.0566 61.06 23.8433 62.4461 24.9603 63.54C24.6503 63.54 22.9603 63.3201 22.6903 64.8701C22.3184 63.3479 21.5248 61.9615 20.4004 60.8701C20.4004 60.8701 20.4004 60.8701 20.4004 60.8701C20.7104 60.8701 22.4003 61.0998 22.6903 59.5498C22.6603 59.4798 22.6903 59.48 22.6903 59.54Z" fill="#272F3C"/>
<path fill-rule="evenodd" clip-rule="evenodd" d="M16.0907 55.7302C16.4575 57.2499 17.2441 58.636 18.3607 59.7302C18.0507 59.7302 16.3607 59.5103 16.0907 61.0603C15.7183 59.5383 14.9247 58.152 13.8008 57.0603C14.1108 57.0603 15.8007 57.29 16.0907 55.74C16.0607 55.69 16.0907 55.7002 16.0907 55.7302Z" fill="#272F3C"/>
<path fill-rule="evenodd" clip-rule="evenodd" d="M9.48926 51.9199C9.85656 53.4394 10.6431 54.8253 11.7593 55.9199C11.4593 55.9199 9.75926 55.7 9.48926 57.25C9.11582 55.7284 8.32229 54.3424 7.19922 53.25C7.50922 53.25 9.19926 53.4801 9.48926 51.9301C9.45926 51.8801 9.48926 51.8899 9.48926 51.9199Z" fill="#272F3C"/>
<path fill-rule="evenodd" clip-rule="evenodd" d="M2.88965 48.1098C3.25645 49.6296 4.04305 51.0156 5.15967 52.1098C4.84967 52.1098 3.15965 51.8899 2.88965 53.4399C2.51773 51.9177 1.72397 50.5313 0.599609 49.4399C0.909609 49.4399 2.59965 49.6701 2.88965 48.1201C2.85965 48.0701 2.88965 48.0798 2.88965 48.1098Z" fill="#272F3C"/>
<path fill-rule="evenodd" clip-rule="evenodd" d="M29.29 55.7004C29.6568 57.2202 30.4434 58.6062 31.5601 59.7004C31.2501 59.7004 29.56 59.48 29.29 61.03C28.9176 59.508 28.1239 58.1217 27 57.03C27.31 57.03 29 57.2602 29.29 55.7102C29.26 55.6602 29.29 55.6704 29.29 55.7004Z" fill="#272F3C"/>
<path fill-rule="evenodd" clip-rule="evenodd" d="M22.6903 51.8903C23.0576 53.4098 23.8441 54.7958 24.9603 55.8903C24.6503 55.8903 22.9603 55.6704 22.6903 57.2204C22.3179 55.6984 21.5243 54.3121 20.4004 53.2204C20.7104 53.2204 22.4003 53.4501 22.6903 51.9001C22.6603 51.8401 22.6903 51.8603 22.6903 51.8903Z" fill="#272F3C"/>
<path fill-rule="evenodd" clip-rule="evenodd" d="M16.0907 48.0802C16.4575 49.6 17.2441 50.986 18.3607 52.0802C18.0507 52.0802 16.3607 51.8603 16.0907 53.4103C15.7188 51.8881 14.9251 50.5017 13.8008 49.4103C14.1108 49.4103 15.8007 49.64 16.0907 48.09C16.0607 48.03 16.0907 48.0502 16.0907 48.0802Z" fill="#272F3C"/>
<path fill-rule="evenodd" clip-rule="evenodd" d="M9.48926 44.2595C9.85555 45.7795 10.6422 47.1656 11.7593 48.2595C11.4593 48.2595 9.75926 48.0396 9.48926 49.5896C9.11683 48.0676 8.32315 46.6813 7.19922 45.5896C7.50922 45.5896 9.19926 45.8198 9.48926 44.2698C9.45926 44.2198 9.48926 44.2395 9.48926 44.2595Z" fill="#272F3C"/>
<path fill-rule="evenodd" clip-rule="evenodd" d="M2.88965 40.48C3.25645 41.9997 4.04305 43.3858 5.15967 44.48C4.84967 44.48 3.15965 44.2601 2.88965 45.8101C2.51722 44.2881 1.72354 42.9018 0.599609 41.8101C0.909609 41.8101 2.59965 42.0397 2.88965 40.4897C2.85965 40.4097 2.88965 40.43 2.88965 40.48Z" fill="#272F3C"/>
<path fill-rule="evenodd" clip-rule="evenodd" d="M94.5108 96.7397C94.5108 69.1197 75.1207 35.5297 51.1907 21.7397C40.1407 15.3597 30.0608 14.3297 22.4008 17.7397L21.7007 18.1201L13.8407 22.48L9.44072 30.1401C5.37072 35.4101 7.88079 37.1402 7.88079 46.7202C7.88079 74.3402 27.2707 107.93 51.2007 121.72C59.6607 126.6 57.3908 126.32 64.0608 125.33L74.2207 129.03L81.6108 124.86L82.2808 124.47C89.8508 119.86 94.5108 110.28 94.5108 96.7397Z" fill="#F2F4F9"/>
<path fill-rule="evenodd" clip-rule="evenodd" d="M64.1496 124.48L74.1496 128.12L81.8396 123.76C89.4496 119.1 93.6396 109.51 93.6396 96.7597C93.6396 69.4597 74.3996 36.1397 50.7596 22.4897C40.3796 16.4897 30.4396 15.0998 22.7596 18.5698L14.4696 23.1601L10.1896 30.6098C7.60956 33.9598 7.80962 35.6098 8.24962 39.2998C8.57471 41.7699 8.74171 44.2585 8.74962 46.75C8.74962 74.05 27.9796 107.36 51.6296 121.02C53.1496 121.89 54.3196 122.61 55.2596 123.18C58.8096 125.33 58.8096 125.33 62.2596 124.78L63.9197 124.52H64.1396L64.1496 124.48ZM74.2997 130.04L63.9696 126.27L62.5397 126.49C58.5397 127.12 58.3496 127.07 54.3596 124.66C53.4296 124.09 52.2596 123.39 50.7596 122.52C26.6296 108.59 7.00963 74.5997 7.00963 46.7397C7.00024 44.3184 6.83658 41.9005 6.51964 39.5C6.06964 35.73 5.79962 33.4499 8.74962 29.6299L13.2096 21.8598L21.9996 17C30.2596 13.28 40.7696 14.7 51.6396 21C75.7696 34.93 95.3896 68.9298 95.3896 96.7798C95.3896 110.16 90.8996 120.28 82.7396 125.28L82.0597 125.68L74.2997 130.04Z" fill="#272F3C"/>
<path fill-rule="evenodd" clip-rule="evenodd" d="M29.7402 102.42C35.7192 110.077 43.0502 116.574 51.3702 121.59C59.8302 126.48 57.5602 126.19 64.2302 125.2L74.3903 128.91L81.7803 124.74L82.4502 124.35C90.0202 119.71 94.6803 110.13 94.6803 96.6001C94.6803 84.1701 90.7502 70.5498 84.2502 58.0498L47.5603 78.3101L29.7402 102.42Z" fill="#272F3C"/>
<path fill-rule="evenodd" clip-rule="evenodd" d="M87.8099 100.48C87.8099 128.1 68.4199 139.3 44.4899 125.48C20.5599 111.66 1.16992 78.08 1.16992 50.48C1.16992 22.88 20.5599 11.66 44.4899 25.48C68.4199 39.3 87.8099 72.91 87.8099 100.48Z" fill="#F2F4F9"/>
<path fill-rule="evenodd" clip-rule="evenodd" d="M25.1605 20.4802C21.3612 20.4277 17.6165 21.387 14.3105 23.26C6.41055 27.82 2.06055 37.5103 2.06055 50.5403C2.06055 77.8403 21.2904 111.16 44.9404 124.81C56.2304 131.32 66.7904 132.4 74.6904 127.81C82.5904 123.22 86.9404 113.56 86.9404 100.52C86.9404 73.2202 67.7005 39.9002 44.0605 26.2502C37.3705 22.3902 30.9305 20.4402 25.1605 20.4402V20.4802ZM63.8505 132.38C57.7605 132.38 51.0305 130.38 44.0605 126.38C19.9305 112.45 0.310547 78.4503 0.310547 50.6003C0.310547 36.9103 4.97043 26.69 13.4404 21.8C21.9104 16.91 33.0904 17.99 44.9404 24.8C69.0704 38.73 88.6904 72.7203 88.6904 100.58C88.6904 114.27 84.0304 124.49 75.5704 129.38C71.9962 131.392 67.9514 132.417 63.8505 132.35V132.38Z" fill="#272F3C"/>
<path fill-rule="evenodd" clip-rule="evenodd" d="M81.3494 96.8103C81.3494 120.33 64.8394 129.81 44.4794 118.1C24.1194 106.39 7.60938 77.7502 7.60938 54.2302C7.60938 30.7102 24.1194 21.2302 44.4794 32.9402C64.8394 44.6502 81.3494 73.3003 81.3494 96.8103Z" fill="#AEC2D4"/>
<path fill-rule="evenodd" clip-rule="evenodd" d="M28.001 28.77C24.79 28.726 21.625 29.5372 18.8309 31.1201C12.1509 34.9801 8.47095 43.19 8.47095 54.23C8.47095 77.43 24.811 105.74 44.911 117.34C54.481 122.86 63.431 123.78 70.111 119.92C76.791 116.06 80.4709 107.85 80.4709 96.8101C80.4709 73.6101 64.131 45.3002 44.031 33.7002C38.361 30.4202 32.901 28.77 28.031 28.77H28.001ZM60.931 124.02C55.731 124.02 49.931 122.29 44.021 118.85C23.451 106.97 6.71094 77.98 6.71094 54.23C6.71094 42.53 10.7109 33.7801 17.9509 29.6001C25.1909 25.4201 34.7709 26.3302 44.9509 32.1802C65.5209 44.0602 82.261 73.0498 82.261 96.7998C82.261 108.5 78.261 117.25 71.021 121.43C67.9554 123.177 64.4791 124.074 60.9509 124.03L60.931 124.02Z" fill="#272F3C"/>
<path fill-rule="evenodd" clip-rule="evenodd" d="M44.3594 55.7999L42.3594 77.3302L46.5394 79.7501L44.5994 55.94C44.5794 55.76 44.3694 55.6399 44.3594 55.7999Z" fill="#F2F4F9"/>
<path fill-rule="evenodd" clip-rule="evenodd" d="M43.2699 76.8501L45.5199 78.1499L44.4099 64.5898L43.2599 76.8501H43.2699ZM47.5399 81.3398L41.4199 77.8101L43.5698 54.9199L44.4299 54.8501C44.689 54.8687 44.9327 54.9799 45.1163 55.1636C45.3 55.3472 45.4114 55.591 45.4299 55.8501L47.5399 81.3398Z" fill="#272F3C"/>
<path d="M44.737 78.7132L44.582 80.4563L62.8795 82.0829L63.0345 80.3397L44.737 78.7132Z" fill="#272F3C"/>
<path d="M43.8764 38.4789L43.8379 43.1787L45.1879 43.1898L45.2265 38.49L43.8764 38.4789Z" fill="#272F3C"/>
<path d="M47.2436 40.6157L46.7695 45.0303L48.1119 45.1744L48.586 40.7599L47.2436 40.6157Z" fill="#272F3C"/>
<path d="M50.5518 43.0355L49.6621 47.1299L50.9809 47.4165L51.8707 43.3221L50.5518 43.0355Z" fill="#272F3C"/>
<path d="M53.8009 45.9563L52.4961 49.6741L53.77 50.1212L55.0748 46.4035L53.8009 45.9563Z" fill="#272F3C"/>
<path d="M56.9559 49.0398L55.2578 52.3496L56.459 52.9659L58.1571 49.6561L56.9559 49.0398Z" fill="#272F3C"/>
<path d="M67.8093 58.0055L65.7207 60.8728L66.8143 61.6694L68.9028 58.802L67.8093 58.0055Z" fill="#272F3C"/>
<path d="M62.7924 56.2202L60.3535 58.6035L61.2971 59.5691L63.736 57.1858L62.7924 56.2202Z" fill="#272F3C"/>
<path d="M65.7011 59.752L62.9277 61.6311L63.685 62.7488L66.4584 60.8697L65.7011 59.752Z" fill="#272F3C"/>
<path d="M68.182 63.8447L65.1152 65.1929L65.6586 66.4288L68.7253 65.0807L68.182 63.8447Z" fill="#272F3C"/>
<path d="M70.5518 67.973L67.2188 68.7825L67.5374 70.0944L70.8704 69.285L70.5518 67.973Z" fill="#272F3C"/>
<path d="M72.2558 72.4098L68.6953 72.6707L68.794 74.0171L72.3545 73.7563L72.2558 72.4098Z" fill="#272F3C"/>
<path d="M70.2354 76.5183L70.1309 77.8643L73.8896 78.1561L73.9941 76.8102L70.2354 76.5183Z" fill="#272F3C"/>
<path d="M71.3664 80.1654L71.082 81.4851L74.9823 82.3255L75.2666 81.0058L71.3664 80.1654Z" fill="#272F3C"/>
<path d="M72.221 83.685L71.7812 84.9614L75.7898 86.3425L76.2295 85.066L72.221 83.685Z" fill="#272F3C"/>
<path d="M72.6933 87.9841L72.1211 89.2068L76.1968 91.1143L76.7691 89.8916L72.6933 87.9841Z" fill="#272F3C"/>
<path d="M69.0379 88.7721L68.3574 89.938L76.3893 94.6258L77.0698 93.4599L69.0379 88.7721Z" fill="#272F3C"/>
<path fill-rule="evenodd" clip-rule="evenodd" d="M76.1304 98.48L72.0703 95.5901L72.8503 94.49L76.9104 97.3799L76.1304 98.48Z" fill="#272F3C"/>
<path d="M72.4262 97.6424L71.5605 98.6785L75.5511 102.013L76.4168 100.977L72.4262 97.6424Z" fill="#272F3C"/>
<path d="M71.7973 100.307L70.8594 101.278L74.7357 105.023L75.6737 104.052L71.7973 100.307Z" fill="#272F3C"/>
<path d="M70.5951 103.263L69.5938 104.168L73.3094 108.277L74.3107 107.372L70.5951 103.263Z" fill="#272F3C"/>
<path d="M69.3859 105.383L68.3281 106.222L71.8452 110.657L72.9029 109.818L69.3859 105.383Z" fill="#272F3C"/>
<path d="M67.8792 107.252L66.7715 108.023L70.053 112.733L71.1607 111.961L67.8792 107.252Z" fill="#272F3C"/>
<path fill-rule="evenodd" clip-rule="evenodd" d="M67.8303 114.6L64.8203 109.66L65.9703 108.96L68.9803 113.89L67.8303 114.6Z" fill="#272F3C"/>
<path d="M63.8668 110.241L62.6738 110.873L65.3793 115.981L66.5722 115.349L63.8668 110.241Z" fill="#272F3C"/>
<path fill-rule="evenodd" clip-rule="evenodd" d="M62.7899 116.83L60.4199 111.62L61.6399 111.06L64.0099 116.28L62.7899 116.83Z" fill="#272F3C"/>
<path d="M59.2442 111.497L57.9824 111.977L59.988 117.248L61.2498 116.768L59.2442 111.497Z" fill="#272F3C"/>
<path d="M56.6497 111.554L55.3594 111.952L56.9843 117.227L58.2746 116.83L56.6497 111.554Z" fill="#272F3C"/>
<path d="M54.1346 111.115L52.8203 111.424L54.0429 116.632L55.3572 116.324L54.1346 111.115Z" fill="#272F3C"/>
<path d="M50.851 110.655L49.5176 110.866L50.3257 115.962L51.6591 115.751L50.851 110.655Z" fill="#272F3C"/>
<path d="M47.8167 109.588L46.4707 109.693L46.8548 114.618L48.2009 114.513L47.8167 109.588Z" fill="#272F3C"/>
<path d="M43.8591 103.6L43.8203 112.85L45.1699 112.855L45.2087 103.605L43.8591 103.6Z" fill="#272F3C"/>
<path d="M40.9109 106.192L40.4414 110.607L41.7834 110.75L42.253 106.334L40.9109 106.192Z" fill="#272F3C"/>
<path d="M38.0116 103.975L37.1211 108.069L38.4404 108.356L39.3308 104.262L38.0116 103.975Z" fill="#272F3C"/>
<path d="M18.433 104.257L17.1328 107.96L18.4019 108.406L19.7021 104.702L18.433 104.257Z" fill="#272F3C"/>
<path d="M32.5073 98.0119L30.8086 101.322L32.0097 101.938L33.7084 98.6284L32.5073 98.0119Z" fill="#272F3C"/>
<path d="M29.7644 95.5025L27.6816 98.365L28.7733 99.1593L30.8561 96.2968L29.7644 95.5025Z" fill="#272F3C"/>
<path d="M27.4723 91.828L25.0352 94.2129L25.9794 95.1778L28.4166 92.7929L27.4723 91.828Z" fill="#272F3C"/>
<path d="M25.4447 88.063L22.6797 89.9365L23.437 91.0542L26.202 89.1807L25.4447 88.063Z" fill="#272F3C"/>
<path d="M23.0858 84.7958L20.0195 86.145L20.5631 87.3803L23.6294 86.0311L23.0858 84.7958Z" fill="#272F3C"/>
<path d="M21.6439 80.8032L18.3105 81.6121L18.6289 82.9241L21.9622 82.1152L21.6439 80.8032Z" fill="#272F3C"/>
<path d="M20.1916 77.0028L16.6309 77.2593L16.7278 78.6054L20.2885 78.3489L20.1916 77.0028Z" fill="#272F3C"/>
<path d="M15.1065 73.0235L15.002 74.3694L18.7509 74.6605L18.8554 73.3146L15.1065 73.0235Z" fill="#272F3C"/>
<path d="M13.9721 68.6938L13.6875 70.0134L17.5876 70.8545L17.8722 69.5349L13.9721 68.6938Z" fill="#272F3C"/>
<path d="M13.1821 64.3175L12.7422 65.5938L16.7509 66.9756L17.1909 65.6994L13.1821 64.3175Z" fill="#272F3C"/>
<path d="M12.725 60.2138L12.1523 61.4363L16.2274 63.3452L16.8001 62.1227L12.725 60.2138Z" fill="#272F3C"/>
<path d="M12.6002 56.3015L11.9199 57.4675L19.953 62.1542L20.6333 60.9881L12.6002 56.3015Z" fill="#272F3C"/>
<path d="M12.8918 52.3488L12.1094 53.449L16.1677 56.3352L16.9501 55.2351L12.8918 52.3488Z" fill="#272F3C"/>
<path d="M13.4888 48.8604L12.623 49.8962L16.6127 53.2309L17.4784 52.1951L13.4888 48.8604Z" fill="#272F3C"/>
<path d="M14.4751 45.5093L13.5371 46.4802L17.4138 50.2252L18.3517 49.2543L14.4751 45.5093Z" fill="#272F3C"/>
<path d="M15.5111 42.9996L14.5098 43.905L18.2254 48.0143L19.2267 47.1089L15.5111 42.9996Z" fill="#272F3C"/>
<path d="M16.9092 40.6635L15.8516 41.5024L19.3686 45.9367L20.4263 45.0978L16.9092 40.6635Z" fill="#272F3C"/>
<path d="M11.0191 38.8304L9.91211 39.5999L13.1838 44.3064L14.2907 43.537L11.0191 38.8304Z" fill="#272F3C"/>
<path d="M20.9827 36.599L19.8301 37.3018L22.8388 42.2367L23.9915 41.5339L20.9827 36.599Z" fill="#272F3C"/>
<path d="M23.4097 35.2175L22.2168 35.8494L24.9222 40.9569L26.1152 40.325L23.4097 35.2175Z" fill="#272F3C"/>
<path d="M26.12 34.2541L24.8906 34.812L27.2586 40.0298L28.488 39.4719L26.12 34.2541Z" fill="#272F3C"/>
<path d="M29.0488 33.7402L27.7871 34.2205L29.7936 39.4916L31.0553 39.0113L29.0488 33.7402Z" fill="#272F3C"/>
<path d="M32.0635 33.7513L30.7734 34.1489L32.3993 39.4241L33.6894 39.0264L32.0635 33.7513Z" fill="#272F3C"/>
<path d="M35.0937 34.3062L33.7793 34.6143L35.0001 39.8232L36.3144 39.5152L35.0937 34.3062Z" fill="#272F3C"/>
<path d="M38.556 35.1201L37.2227 35.3315L38.0308 40.428L39.3641 40.2166L38.556 35.1201Z" fill="#272F3C"/>
<path d="M41.6935 36.5793L40.3477 36.6843L40.7318 41.6093L42.0777 41.5043L41.6935 36.5793Z" fill="#272F3C"/>
<path d="M43.8262 38.349L43.7891 47.5989L45.1391 47.6043L45.1763 38.3544L43.8262 38.349Z" fill="#272F3C"/>
<path fill-rule="evenodd" clip-rule="evenodd" d="M47.4595 81.34C47.4595 83.1 46.2195 83.8104 44.6995 82.9304C43.8966 82.4061 43.2285 81.7002 42.749 80.8698C42.2695 80.0394 41.9922 79.1075 41.9395 78.1501C41.9395 76.3901 43.1795 75.6703 44.6995 76.5603C45.5029 77.084 46.1716 77.7898 46.6511 78.6203C47.1307 79.4508 47.4076 80.3824 47.4595 81.34Z" fill="#F2F4F9"/>
<path fill-rule="evenodd" clip-rule="evenodd" d="M43.4594 77.0498C43.3614 77.0473 43.2647 77.0718 43.1794 77.1201C43.043 77.2455 42.9382 77.4013 42.8739 77.5751C42.8096 77.749 42.7875 77.936 42.8095 78.1201C42.8629 78.9202 43.1 79.6974 43.5023 80.3911C43.9047 81.0848 44.4614 81.6763 45.1294 82.1201C45.2578 82.2743 45.4365 82.378 45.634 82.413C45.8316 82.4481 46.0351 82.412 46.2087 82.3115C46.3823 82.2109 46.5148 82.0525 46.5826 81.8637C46.6505 81.6749 46.6493 81.4678 46.5793 81.2797C46.5259 80.4796 46.2888 79.7029 45.8865 79.0092C45.4841 78.3155 44.9274 77.7235 44.2594 77.2797C44.022 77.1282 43.7503 77.0391 43.4694 77.02L43.4594 77.0498ZM45.9294 84.1801C45.3361 84.1671 44.7567 83.9979 44.2494 83.6899C43.3141 83.0872 42.536 82.2705 41.9795 81.3071C41.423 80.3436 41.1042 79.2611 41.0494 78.1499C40.98 77.6489 41.0617 77.1388 41.2841 76.6845C41.5064 76.2303 41.8594 75.8525 42.2976 75.6C42.7359 75.3476 43.2395 75.232 43.744 75.2675C44.2485 75.3031 44.7309 75.4883 45.1294 75.7998C46.0647 76.4024 46.8428 77.2196 47.3993 78.1831C47.9558 79.1465 48.2746 80.2285 48.3293 81.3398C48.3662 81.8376 48.27 82.3364 48.0503 82.7846C47.8306 83.2328 47.4954 83.6144 47.0793 83.8901C46.7281 84.0861 46.3316 84.1861 45.9294 84.1801Z" fill="#272F3C"/>
<path d="M49.7437 19.9853L43.0566 23.7825L43.9208 25.3042L50.6078 21.507L49.7437 19.9853Z" fill="#272F3C"/>
<path d="M80.9279 52.3278L74.2441 56.1309L75.1096 57.6519L81.7933 53.8488L80.9279 52.3278Z" fill="#272F3C"/>
<path d="M36.4343 15.9854L29.752 19.7908L30.6179 21.3115L37.3003 17.5061L36.4343 15.9854Z" fill="#272F3C"/>
<path fill-rule="evenodd" clip-rule="evenodd" d="M83.2305 131.48L82.4805 129.9C86.6212 127.995 90.1673 125.002 92.7405 121.24C96.3505 115.84 100.241 106.24 98.2705 91.1802L100.01 90.9502C102.01 106.55 98.0104 116.56 94.2004 122.21C91.4504 126.236 87.6589 129.44 83.2305 131.48Z" fill="#272F3C"/>
<path fill-rule="evenodd" clip-rule="evenodd" d="M92.3408 63.1401C73.8908 19.9201 41.2109 11.6999 40.8809 11.6299L41.2809 9.93018C41.6209 10.0102 75.1308 18.39 93.9508 62.46L92.3408 63.1401Z" fill="#272F3C"/>
<path fill-rule="evenodd" clip-rule="evenodd" d="M80.6895 33.1602C78.6895 30.8802 76.6895 28.7202 74.6895 26.7202L75.9296 25.48C77.9296 27.48 80.0095 29.6998 82.0295 32.0098L80.6895 33.1602Z" fill="#272F3C"/>
<path fill-rule="evenodd" clip-rule="evenodd" d="M71.8608 24.0098C47.0708 0.949844 28.8609 6.09998 28.6409 6.14998L28.1309 4.47029C28.9109 4.23029 47.4609 -1.08971 73.0609 22.7203L71.8608 24.0098Z" fill="#272F3C"/>
<path fill-rule="evenodd" clip-rule="evenodd" d="M72.0901 16.48C67.3956 12.1848 62.0831 8.61835 56.3301 5.8999L57.0701 4.31982C62.9791 7.1105 68.4364 10.7715 73.2601 15.1802L72.0901 16.48Z" fill="#272F3C"/>
<path fill-rule="evenodd" clip-rule="evenodd" d="M53.3599 4.58008C50.6434 3.43512 47.8147 2.57707 44.9199 2.02002L45.1799 0.290039C48.2098 0.858958 51.1699 1.75087 54.0099 2.9502L53.3599 4.58008Z" fill="#272F3C"/>
</svg>
