<svg width="136" height="123" viewBox="0 0 136 123" fill="none" xmlns="http://www.w3.org/2000/svg">
<path fill-rule="evenodd" clip-rule="evenodd" d="M104.461 97.7204C99.7383 94.7869 95.8124 90.7336 93.0308 85.9201L81.1607 64.9201L92.9608 57.6501C96.0808 56.0501 100.161 56.54 104.451 59.01C113.691 64.35 121.211 77.37 121.211 88.01C121.211 98.65 113.691 103.01 104.451 97.6902L104.461 97.7204ZM51.0708 61.24C47.9008 63.06 43.7007 62.6403 39.2307 60.0603C29.9907 54.7203 22.4707 41.7003 22.4707 31.0603C22.4707 20.4203 29.9907 16.0601 39.2307 21.3801C44.1815 24.4613 48.2584 28.7621 51.0708 33.8703L62.5608 54.2004L51.0808 61.2702L51.0708 61.24ZM134.591 95.76C134.591 76.57 121.071 53.16 104.461 43.57C96.7008 39.09 89.6308 38.09 84.0108 41.01L82.9207 41.6301L71.8607 48.4802L60.6007 28.4802L60.5208 28.3401C54.8308 18.5001 47.2707 10.5201 39.2307 5.8801C30.5107 0.880099 22.9508 0.41006 17.4508 4.09006L17.1408 4.29026L9.14078 8.96018L9.61075 17.4602C9.29225 19.3837 9.13506 21.3303 9.14078 23.28C9.14078 42.46 22.6608 65.8804 39.2708 75.4704C47.2708 80.1204 54.8908 80.8703 60.5808 77.5803H60.6607L71.9008 70.6604L83.6208 91.4104L83.8408 91.7903C89.4508 101.13 96.7908 108.73 104.501 113.18C108.282 115.508 112.564 116.903 116.991 117.25L118.401 119.55L124.641 115.87C125.35 115.574 126.021 115.194 126.641 114.74L127.061 114.45C131.721 111 134.591 104.59 134.591 95.76Z" fill="#AEC2D4"/>
<path fill-rule="evenodd" clip-rule="evenodd" d="M31.7606 19.82C30.3622 19.7934 28.9819 20.1384 27.7606 20.82C24.8406 22.51 23.2305 26.1301 23.2305 31.0002C23.2305 41.4302 30.5805 54.1603 39.6105 59.3703C43.8305 61.8103 47.7605 62.23 50.6805 60.55L61.5306 53.8703L50.4105 34.1803C47.6641 29.1919 43.6839 24.9911 38.8505 21.9801C36.7181 20.6454 34.2742 19.8906 31.7606 19.7902V19.82ZM46.7606 63.11C43.9729 63.0097 41.2598 62.1825 38.8906 60.7101C29.4406 55.2501 21.7505 41.9302 21.7505 31.0202C21.7505 25.5702 23.6305 21.4902 27.0505 19.5202C30.4705 17.5502 34.9405 17.9603 39.6605 20.6803C44.7129 23.8438 48.8688 28.2509 51.7305 33.4801L63.5806 54.4801L51.4606 61.9401C50.0164 62.7591 48.3806 63.1803 46.7205 63.1603L46.7606 63.11ZM82.2305 65.1701L93.7405 85.5402C96.455 90.2347 100.285 94.1877 104.891 97.05C109.121 99.49 113.051 99.9001 115.971 98.2101C118.891 96.5201 120.501 92.9099 120.501 88.0299C120.501 77.5999 113.151 64.8703 104.121 59.6603C100.061 57.3203 96.2405 56.8402 93.3505 58.3102L82.2205 65.1603L82.2305 65.1701ZM111.971 100.76C109.19 100.662 106.484 99.8388 104.121 98.3703C99.2878 95.374 95.269 91.2315 92.4205 86.3102L80.1805 64.6501L92.6105 57.0001C96.0205 55.2501 100.361 55.7402 104.881 58.3502C114.331 63.8102 122.021 77.1302 122.021 88.0402C122.021 93.4802 120.141 97.5702 116.721 99.5402C115.275 100.365 113.635 100.789 111.971 100.77V100.76ZM72.1705 69.57L60.1705 76.9401C54.7305 80.0801 47.4306 79.3302 39.6306 74.8302C23.2306 65.3602 9.88055 42.24 9.88055 23.3C9.8757 21.3905 10.0296 19.4842 10.3406 17.6002L10.5405 16.3903L10.2905 16.4601L9.90057 9.39029L17.5605 4.94009L17.8906 4.73013C23.3006 1.12013 30.5506 1.72995 38.8906 6.54995C46.8206 11.13 54.2806 19.0101 59.8906 28.7301L71.5806 49.4801L83.3005 42.2702L84.3505 41.6603C89.6205 38.9203 96.4406 39.8001 104.071 44.2101C120.471 53.6801 133.821 76.7999 133.821 95.7399C133.821 103.97 131.241 110.38 126.571 113.74L126.131 114.04C125.532 114.478 124.884 114.844 124.201 115.13L118.601 118.43L117.371 116.43H116.971C112.661 116.08 108.496 114.708 104.821 112.43C97.2206 108.04 89.9806 100.54 84.4406 91.3102L72.1205 69.5099L72.1705 69.57ZM118.171 120.57L116.571 117.98C112.165 117.561 107.914 116.141 104.141 113.83C96.3206 109.31 88.8906 101.62 83.2106 92.1701L82.9805 91.7799L71.6406 71.7101L61.0005 78.2101C55.0005 81.6901 47.1306 80.9401 38.8406 76.1501C22.0206 66.4401 8.33057 42.73 8.33057 23.3C8.32687 21.3437 8.48404 19.3906 8.80054 17.4601L8.31055 8.56021L17.0005 3.48013C22.9105 -0.51987 30.7206 0.14015 39.5706 5.25015C47.7206 9.96015 55.3806 18.0299 61.1406 27.9899L61.2305 28.1403L72.1005 47.38L83.5906 40.38C89.3806 37.38 96.7005 38.2701 104.811 42.9401C121.631 52.6501 135.321 76.3602 135.321 95.7902C135.321 104.53 132.521 111.37 127.431 115.07L127.001 115.37C126.349 115.847 125.644 116.246 124.901 116.56L118.171 120.57Z" fill="#150035"/>
<path fill-rule="evenodd" clip-rule="evenodd" d="M96.1803 102.54C91.4565 99.6082 87.5302 95.5545 84.7503 90.7398L72.8803 69.7398L84.6803 62.4702C87.8003 60.8702 91.8803 61.3601 96.1703 63.8301C105.41 69.1701 112.93 82.1901 112.93 92.8301C112.93 103.47 105.41 107.83 96.1703 102.51L96.1803 102.54ZM42.7903 66.0601C39.6203 67.8801 35.4203 67.4599 30.9503 64.8799C21.7103 59.5399 14.1903 46.5199 14.1903 35.8799C14.1903 25.2399 21.7103 20.8802 30.9503 26.2002C35.9008 29.2817 39.9775 33.582 42.7903 38.69L54.2803 59.02L42.8003 66.0899L42.7903 66.0601ZM96.1803 48.3901C88.4203 43.9101 81.0603 43.0502 75.4303 45.9702L75.2303 46.0801L63.5803 53.2598L52.3203 33.3399L52.2403 33.2002C46.5503 23.3602 38.9903 15.3798 30.9503 10.7398C14.3403 1.14976 0.820312 8.95015 0.820312 28.1401C0.820312 47.3301 14.3403 70.7301 30.9503 80.3301C38.9503 84.9801 46.5603 85.7299 52.2503 82.4399H52.3303L63.5803 75.52L75.3003 96.27L75.5203 96.6499C81.1303 105.99 88.4703 113.59 96.1803 118.04C112.79 127.63 126.31 119.83 126.31 100.64C126.31 81.4501 112.79 57.9899 96.1803 48.3999V48.3901Z" fill="#FDFDFD"/>
<path fill-rule="evenodd" clip-rule="evenodd" d="M23.4805 24.6501C22.082 24.622 20.7013 24.9672 19.4805 25.6501C16.5505 27.3401 14.9406 30.9503 14.9406 35.8303C14.9406 46.2603 22.2906 58.9904 31.3206 64.2004C35.5406 66.6404 39.4706 67.0601 42.3906 65.3801L53.2405 58.7004L42.1105 39.0099C39.3644 34.0212 35.3842 29.8209 30.5505 26.8102C28.4179 25.4759 25.9742 24.7211 23.4606 24.6203L23.4805 24.6501ZM38.4805 67.9401C35.6928 67.8398 32.9798 67.0126 30.6105 65.5402C21.1605 60.0802 13.4705 46.7603 13.4705 35.8503C13.4705 30.4103 15.3506 26.3203 18.7706 24.3503C22.1906 22.3803 26.6606 22.7899 31.3806 25.5099C36.4444 28.6591 40.6143 33.0563 43.4905 38.28L55.3406 59.28L43.2106 66.7399C41.7695 67.5576 40.1373 67.9788 38.4805 67.9601V67.9401ZM96.6005 101.89C100.831 104.33 104.761 104.74 107.691 103.05C110.621 101.36 112.221 97.7503 112.221 92.8703C112.221 82.4403 104.871 69.7102 95.8406 64.5002C91.7806 62.1602 87.9606 61.6801 85.0806 63.1501L73.9506 70.0002L85.4606 90.3703C88.1738 95.0685 92.0034 99.0252 96.6105 101.89H96.6005ZM103.691 105.6C100.911 105.5 98.205 104.676 95.8406 103.21C91.0066 100.211 86.9877 96.0653 84.1406 91.1403L71.8605 69.4802L84.2905 61.8303C87.7005 60.0803 92.0406 60.5704 96.5605 63.1804C106.011 68.6404 113.701 81.9503 113.701 92.8703C113.701 98.3203 111.821 102.4 108.401 104.37C106.954 105.194 105.315 105.619 103.651 105.6H103.691ZM63.8906 74.4103L51.8906 81.78C46.4506 84.92 39.1505 84.1701 31.3505 79.6701C14.9505 70.2001 1.60052 47.0803 1.60052 28.1403C1.60052 19.1403 4.60054 12.4602 10.0505 9.31024C15.5005 6.16024 22.7906 6.90008 30.5806 11.4001C38.3706 15.9001 45.9706 23.8603 51.5806 33.5803L63.3005 54.3303L75.6005 46.7599L75.7806 46.6603C81.1606 43.8603 88.2706 44.7202 95.7806 49.0602C112.181 58.5302 125.531 81.65 125.531 100.59C125.531 109.59 122.531 116.27 117.081 119.42C111.631 122.57 104.341 121.82 96.5405 117.33C88.9405 112.94 81.7005 105.44 76.1605 96.2101L63.8406 74.4103H63.8906ZM109.651 122.86C105.391 122.86 100.651 121.44 95.8406 118.64C88.0206 114.12 80.5805 106.43 74.9105 96.9802L74.6805 96.59L63.3005 76.4802L52.7305 82.9899C46.7305 86.4699 38.8606 85.7301 30.5706 80.9401C13.7506 71.2301 0.0605469 47.52 0.0605469 28.09C0.0605469 18.53 3.33058 11.3701 9.28058 7.94012C15.2306 4.51012 23.0606 5.24996 31.3406 10.03C39.6206 14.81 47.1505 22.8202 52.9105 32.7702L52.9905 32.9201L63.8605 52.1603L75.0605 45.2702C80.9505 42.2102 88.5705 43.0801 96.5605 47.6901C113.381 57.4001 127.071 81.1102 127.071 100.54C127.071 110.1 123.801 117.26 117.851 120.69C115.346 122.133 112.501 122.882 109.611 122.86H109.651Z" fill="#150035"/>
<path fill-rule="evenodd" clip-rule="evenodd" d="M18.6594 51.5901L26.8795 46.6399L25.5594 44L23.7994 39.3501L22.7695 34.51L22.4694 30.2L22.7695 26.98L23.9694 23.9099L20.9595 24.23L18.3594 25.5L16.1495 27.9099L14.8795 30.76L14.2495 34.28L14.1895 37.75L14.9294 41.97L15.8094 45.0701L17.2695 48.7L18.6594 51.5901Z" fill="#150035"/>
<path fill-rule="evenodd" clip-rule="evenodd" d="M52.3203 33.3401L60.5203 28.3701L71.8603 48.4399L63.5803 53.27L52.3203 33.3401Z" fill="#150035"/>
<path fill-rule="evenodd" clip-rule="evenodd" d="M84.7509 90.74L93.0309 85.9199L81.1608 64.9099L72.8809 69.74L84.7509 90.74Z" fill="#150035"/>
<path fill-rule="evenodd" clip-rule="evenodd" d="M121.221 78.3601L129.581 73.6799L131.831 79.6201L133.501 85.8401L134.591 92.48L134.501 98.4299L133.691 103.69L132.301 107.73L130.951 110.21L128.221 113.43L126.591 114.71L118.961 119.08L122.001 116.37L123.721 113.18L124.901 110.29L125.941 105.82L126.301 100L125.731 93.46L124.381 87.24L122.451 81.3201L121.221 78.3601Z" fill="#150035"/>
<path d="M57.7965 24.3362L49.6719 29.3933L50.4751 30.6838L58.5998 25.6266L57.7965 24.3362Z" fill="#150035"/>
<path d="M31.2392 1.59603L23.1113 6.66699L23.9159 7.9566L32.0438 2.88564L31.2392 1.59603Z" fill="#150035"/>
<path d="M28.9539 49.4028L20.8301 54.4614L21.6335 55.7517L29.7573 50.6932L28.9539 49.4028Z" fill="#150035"/>
<path d="M95.4169 88.6815L87.2949 93.7429L88.0988 95.033L96.2209 89.9715L95.4169 88.6815Z" fill="#150035"/>
<path d="M95.4091 39.0338L87.2871 44.0952L88.091 45.3852L96.213 40.3238L95.4091 39.0338Z" fill="#150035"/>
<path d="M125.99 66.4483L117.867 71.5083L118.671 72.7985L126.794 67.7385L125.99 66.4483Z" fill="#150035"/>
<path d="M64.0406 36.2223L56.877 40.4927L57.476 41.4976L64.6397 37.2272L64.0406 36.2223Z" fill="#AEC2D4"/>
<path d="M83.455 70.4933L76.2891 74.76L76.8876 75.7652L84.0535 71.4986L83.455 70.4933Z" fill="#AEC2D4"/>
<path d="M24.5481 42.1268L17.3828 46.3948L17.9815 47.3999L25.1468 43.132L24.5481 42.1268Z" fill="#AEC2D4"/>
<path d="M131.804 81.7821L124.641 86.0525L125.24 87.0574L132.403 82.787L131.804 81.7821Z" fill="#AEC2D4"/>
<path d="M53.7281 58.4906L42.248 65.5559L43.0447 66.8504L54.5248 59.7851L53.7281 58.4906Z" fill="#150035"/>
<path d="M60.2889 58.587L48.8027 65.6423L49.5983 66.9375L61.0845 59.8822L60.2889 58.587Z" fill="#150035"/>
<path d="M78.4558 61.1733L66.9844 68.2527L67.7827 69.5462L79.254 62.4669L78.4558 61.1733Z" fill="#150035"/>
<path fill-rule="evenodd" clip-rule="evenodd" d="M18.35 77.0498C12.6608 72.1717 8.10479 66.1109 5 59.29L6.40997 58.71C9.4531 65.2969 13.8683 71.1576 19.36 75.8999L18.35 77.0498Z" fill="#150035"/>
<path fill-rule="evenodd" clip-rule="evenodd" d="M117.62 49.7998C109.71 40.9398 102.07 38.5002 102 38.4702L102.45 37.02C102.78 37.12 110.55 39.59 118.76 48.79L117.62 49.7998Z" fill="#150035"/>
<path fill-rule="evenodd" clip-rule="evenodd" d="M3.69922 57.1001C2.46661 54.9854 1.46103 52.7461 0.699219 50.4199L2.1792 50.0601C2.9107 52.2442 3.86228 54.3481 5.01923 56.3398L3.69922 57.1001Z" fill="#150035"/>
<path fill-rule="evenodd" clip-rule="evenodd" d="M121.63 55.1499C120.82 54.0199 119.11 52.0298 119.1 52.0098L120.25 51.0098C120.32 51.0898 122.02 53.0698 122.86 54.2598L121.63 55.1499Z" fill="#150035"/>
<path d="M31.0671 52.485L27.6133 54.6382L28.4174 55.9281L31.8712 53.7749L31.0671 52.485Z" fill="#150035"/>
<path d="M55.8429 20.8623L52.3887 23.0149L53.1926 24.3049L56.6468 22.1524L55.8429 20.8623Z" fill="#150035"/>
<path d="M30.5284 5.69681L27.0742 7.84937L27.8781 9.1394L31.3323 6.98684L30.5284 5.69681Z" fill="#150035"/>
<path d="M104.911 93.882L101.451 96.0391L102.257 97.3311L105.716 95.174L104.911 93.882Z" fill="#150035"/>
<path d="M119.701 65.8101L116.246 67.9614L117.049 69.2513L120.504 67.1L119.701 65.8101Z" fill="#150035"/>
<path d="M98.5687 40.7732L95.1152 42.927L95.9196 44.2168L99.373 42.063L98.5687 40.7732Z" fill="#150035"/>
</svg>
