<svg width="70" height="40" viewBox="0 0 70 40" fill="none" xmlns="http://www.w3.org/2000/svg">
<path fill-rule="evenodd" clip-rule="evenodd" d="M0 36.82C0 36.5718 0.0985594 36.3338 0.274036 36.1583C0.449512 35.9829 0.687516 35.8843 0.935677 35.8843C1.18384 35.8843 1.42184 35.9829 1.59732 36.1583C1.77279 36.3338 1.87135 36.5718 1.87135 36.82V38.9804C1.87135 39.2286 1.77279 39.4666 1.59732 39.6421C1.42184 39.8175 1.18384 39.9161 0.935677 39.9161C0.687516 39.9161 0.449512 39.8175 0.274036 39.6421C0.0985594 39.4666 0 39.2286 0 38.9804V36.82Z" fill="#1C2A40"/>
<path fill-rule="evenodd" clip-rule="evenodd" d="M2.93679 36.8196C2.92513 36.6912 2.94031 36.5618 2.98146 36.4396C3.02261 36.3173 3.08886 36.205 3.17582 36.1098C3.26278 36.0146 3.36855 35.9386 3.48654 35.8865C3.60453 35.8345 3.73209 35.8076 3.86105 35.8076C3.99 35.8076 4.11757 35.8345 4.23556 35.8865C4.35355 35.9386 4.45941 36.0146 4.54637 36.1098C4.63333 36.205 4.69949 36.3173 4.74064 36.4396C4.78179 36.5618 4.79697 36.6912 4.7853 36.8196V38.9801C4.79697 39.1085 4.78179 39.238 4.74064 39.3602C4.69949 39.4824 4.63333 39.5947 4.54637 39.6899C4.45941 39.7851 4.35355 39.8612 4.23556 39.9132C4.11757 39.9653 3.99 39.9921 3.86105 39.9921C3.73209 39.9921 3.60453 39.9653 3.48654 39.9132C3.36855 39.8612 3.26278 39.7851 3.17582 39.6899C3.08886 39.5947 3.02261 39.4824 2.98146 39.3602C2.94031 39.238 2.92513 39.1085 2.93679 38.9801V36.8196Z" fill="#1C2A40"/>
<path fill-rule="evenodd" clip-rule="evenodd" d="M5.9485 36.8193C5.93679 36.6898 5.95222 36.5594 5.99373 36.4362C6.03524 36.313 6.10199 36.1998 6.18966 36.1039C6.27734 36.0079 6.38405 35.9313 6.50298 35.8788C6.62192 35.8264 6.75039 35.7993 6.88037 35.7993C7.01035 35.7993 7.13892 35.8264 7.25786 35.8788C7.37679 35.9313 7.4835 36.0079 7.57117 36.1039C7.65885 36.1998 7.7256 36.313 7.76711 36.4362C7.80862 36.5594 7.82404 36.6898 7.81233 36.8193V38.9798C7.82404 39.1092 7.80862 39.2397 7.76711 39.3629C7.7256 39.486 7.65885 39.5992 7.57117 39.6952C7.4835 39.7911 7.37679 39.8678 7.25786 39.9202C7.13892 39.9726 7.01035 39.9997 6.88037 39.9997C6.75039 39.9997 6.62192 39.9726 6.50298 39.9202C6.38405 39.8678 6.27734 39.7911 6.18966 39.6952C6.10199 39.5992 6.03524 39.486 5.99373 39.3629C5.95222 39.2397 5.93679 39.1092 5.9485 38.9798V36.8193Z" fill="#1C2A40"/>
<path fill-rule="evenodd" clip-rule="evenodd" d="M18.4856 36.8196C18.4739 36.6912 18.4892 36.5618 18.5304 36.4396C18.5715 36.3173 18.6377 36.205 18.7246 36.1098C18.8116 36.0146 18.9175 35.9386 19.0354 35.8865C19.1534 35.8345 19.281 35.8076 19.41 35.8076C19.5389 35.8076 19.6664 35.8345 19.7844 35.8865C19.9024 35.9386 20.0082 36.0146 20.0952 36.1098C20.1821 36.205 20.2483 36.3173 20.2895 36.4396C20.3306 36.5618 20.3459 36.6912 20.3342 36.8196V38.9801C20.3459 39.1085 20.3306 39.238 20.2895 39.3602C20.2483 39.4824 20.1821 39.5947 20.0952 39.6899C20.0082 39.7851 19.9024 39.8612 19.7844 39.9132C19.6664 39.9653 19.5389 39.9921 19.41 39.9921C19.281 39.9921 19.1534 39.9653 19.0354 39.9132C18.9175 39.8612 18.8116 39.7851 18.7246 39.6899C18.6377 39.5947 18.5715 39.4824 18.5304 39.3602C18.4892 39.238 18.4739 39.1085 18.4856 38.9801V36.8196Z" fill="#1C2A40"/>
<path fill-rule="evenodd" clip-rule="evenodd" d="M15.4739 36.8196C15.4622 36.6912 15.4775 36.5618 15.5187 36.4396C15.5598 36.3173 15.626 36.205 15.7129 36.1098C15.7999 36.0146 15.9057 35.9386 16.0237 35.8865C16.1417 35.8345 16.2692 35.8076 16.3981 35.8076C16.5271 35.8076 16.6547 35.8345 16.7727 35.8865C16.8906 35.9386 16.9965 36.0146 17.0835 36.1098C17.1704 36.205 17.2366 36.3173 17.2777 36.4396C17.3189 36.5618 17.3342 36.6912 17.3225 36.8196V38.9801C17.3342 39.1085 17.3189 39.238 17.2777 39.3602C17.2366 39.4824 17.1704 39.5947 17.0835 39.6899C16.9965 39.7851 16.8906 39.8612 16.7727 39.9132C16.6547 39.9653 16.5271 39.9921 16.3981 39.9921C16.2692 39.9921 16.1417 39.9653 16.0237 39.9132C15.9057 39.8612 15.7999 39.7851 15.7129 39.6899C15.626 39.5947 15.5598 39.4824 15.5187 39.3602C15.4775 39.238 15.4622 39.1085 15.4739 38.9801V36.8196Z" fill="#1C2A40"/>
<path fill-rule="evenodd" clip-rule="evenodd" d="M33.8434 36.82C33.8434 36.5718 33.9419 36.3338 34.1174 36.1583C34.2929 35.9829 34.5309 35.8843 34.7791 35.8843C35.0272 35.8843 35.2652 35.9829 35.4407 36.1583C35.6162 36.3338 35.7147 36.5718 35.7147 36.82V38.9804C35.7147 39.2286 35.6162 39.4666 35.4407 39.6421C35.2652 39.8175 35.0272 39.9161 34.7791 39.9161C34.5309 39.9161 34.2929 39.8175 34.1174 39.6421C33.9419 39.4666 33.8434 39.2286 33.8434 38.9804V36.82Z" fill="#1C2A40"/>
<path fill-rule="evenodd" clip-rule="evenodd" d="M30.9306 36.8196C30.9189 36.6912 30.9342 36.5618 30.9753 36.4396C31.0165 36.3173 31.0826 36.205 31.1696 36.1098C31.2565 36.0146 31.3624 35.9386 31.4804 35.8865C31.5984 35.8345 31.7259 35.8076 31.8549 35.8076C31.9839 35.8076 32.1113 35.8345 32.2293 35.8865C32.3473 35.9386 32.4532 36.0146 32.5401 36.1098C32.6271 36.205 32.6933 36.3173 32.7345 36.4396C32.7756 36.5618 32.7908 36.6912 32.7792 36.8196V38.9801C32.7908 39.1085 32.7756 39.238 32.7345 39.3602C32.6933 39.4824 32.6271 39.5947 32.5401 39.6899C32.4532 39.7851 32.3473 39.8612 32.2293 39.9132C32.1113 39.9653 31.9839 39.9921 31.8549 39.9921C31.7259 39.9921 31.5984 39.9653 31.4804 39.9132C31.3624 39.8612 31.2565 39.7851 31.1696 39.6899C31.0826 39.5947 31.0165 39.4824 30.9753 39.3602C30.9342 39.238 30.9189 39.1085 30.9306 38.9801V36.8196Z" fill="#1C2A40"/>
<path fill-rule="evenodd" clip-rule="evenodd" d="M38.7368 38.9878C38.7368 39.2359 38.6383 39.4739 38.4628 39.6494C38.2873 39.8249 38.0493 39.9234 37.8012 39.9234C37.553 39.9234 37.315 39.8249 37.1395 39.6494C36.964 39.4739 36.8655 39.2359 36.8655 38.9878V36.8273C36.8655 36.5791 36.964 36.3411 37.1395 36.1657C37.315 35.9902 37.553 35.8916 37.8012 35.8916C38.0493 35.8916 38.2873 35.9902 38.4628 36.1657C38.6383 36.3411 38.7368 36.5791 38.7368 36.8273V38.9878Z" fill="#1C2A40"/>
<path fill-rule="evenodd" clip-rule="evenodd" d="M46.3804 14.1881C46.3804 13.94 46.4789 13.702 46.6544 13.5265C46.8299 13.351 47.0679 13.2524 47.316 13.2524C47.5642 13.2524 47.8022 13.351 47.9777 13.5265C48.1532 13.702 48.2517 13.94 48.2517 14.1881V38.9878C48.2517 39.2359 48.1532 39.4739 47.9777 39.6494C47.8022 39.8249 47.5642 39.9235 47.316 39.9235C47.0679 39.9235 46.8299 39.8249 46.6544 39.6494C46.4789 39.4739 46.3804 39.2359 46.3804 38.9878V14.1881Z" fill="#1C2A40"/>
<path fill-rule="evenodd" clip-rule="evenodd" d="M49.3173 30.8021C49.3056 30.6736 49.3209 30.5442 49.362 30.422C49.4032 30.2998 49.4693 30.1875 49.5563 30.0923C49.6433 29.997 49.7491 29.921 49.8671 29.8689C49.9851 29.8169 50.1126 29.79 50.2415 29.79C50.3705 29.79 50.4981 29.8169 50.616 29.8689C50.734 29.921 50.8399 29.997 50.9269 30.0923C51.0138 30.1875 51.08 30.2998 51.1211 30.422C51.1623 30.5442 51.1775 30.6736 51.1659 30.8021V38.9875C51.1775 39.1159 51.1623 39.2453 51.1211 39.3676C51.08 39.4898 51.0138 39.6021 50.9269 39.6973C50.8399 39.7925 50.734 39.8685 50.616 39.9206C50.4981 39.9726 50.3705 39.9995 50.2415 39.9995C50.1126 39.9995 49.9851 39.9726 49.8671 39.9206C49.7491 39.8685 49.6433 39.7925 49.5563 39.6973C49.4693 39.6021 49.4032 39.4898 49.362 39.3676C49.3209 39.2453 49.3056 39.1159 49.3173 38.9875V30.8021Z" fill="#1C2A40"/>
<path fill-rule="evenodd" clip-rule="evenodd" d="M49.3173 14.1878C49.3056 14.0594 49.3209 13.9299 49.362 13.8077C49.4032 13.6855 49.4693 13.5732 49.5563 13.478C49.6433 13.3828 49.7491 13.3067 49.8671 13.2547C49.9851 13.2027 50.1126 13.1758 50.2415 13.1758C50.3705 13.1758 50.4981 13.2027 50.616 13.2547C50.734 13.3067 50.8399 13.3828 50.9269 13.478C51.0138 13.5732 51.08 13.6855 51.1211 13.8077C51.1623 13.9299 51.1775 14.0594 51.1659 14.1878V26.6637C51.1775 26.7921 51.1623 26.9216 51.1211 27.0438C51.08 27.166 51.0138 27.2783 50.9269 27.3735C50.8399 27.4687 50.734 27.5448 50.616 27.5968C50.4981 27.6488 50.3705 27.6757 50.2415 27.6757C50.1126 27.6757 49.9851 27.6488 49.8671 27.5968C49.7491 27.5448 49.6433 27.4687 49.5563 27.3735C49.4693 27.2783 49.4032 27.166 49.362 27.0438C49.3209 26.9216 49.3056 26.7921 49.3173 26.6637V14.1878Z" fill="#1C2A40"/>
<path fill-rule="evenodd" clip-rule="evenodd" d="M52.3296 14.1881C52.3296 13.94 52.4282 13.702 52.6037 13.5265C52.7792 13.351 53.0172 13.2524 53.2654 13.2524C53.5135 13.2524 53.7515 13.351 53.927 13.5265C54.1025 13.702 54.201 13.94 54.201 14.1881V38.9878C54.201 39.2359 54.1025 39.4739 53.927 39.6494C53.7515 39.8249 53.5135 39.9235 53.2654 39.9235C53.0172 39.9235 52.7792 39.8249 52.6037 39.6494C52.4282 39.4739 52.3296 39.2359 52.3296 38.9878V14.1881Z" fill="#1C2A40"/>
<path fill-rule="evenodd" clip-rule="evenodd" d="M64.7686 1.02016C64.7686 0.772 64.8671 0.534008 65.0426 0.358532C65.2181 0.183055 65.4561 0.0844727 65.7042 0.0844727C65.9524 0.0844727 66.1904 0.183055 66.3659 0.358532C66.5413 0.534008 66.6399 0.772 66.6399 1.02016V38.988C66.6399 39.2361 66.5413 39.4741 66.3659 39.6496C66.1904 39.8251 65.9524 39.9236 65.7042 39.9236C65.4561 39.9236 65.2181 39.8251 65.0426 39.6496C64.8671 39.4741 64.7686 39.2361 64.7686 38.988V1.02016Z" fill="#1C2A40"/>
<path fill-rule="evenodd" clip-rule="evenodd" d="M61.8386 1.02016C61.8386 0.772 61.9373 0.534008 62.1128 0.358532C62.2882 0.183055 62.5262 0.0844727 62.7744 0.0844727C63.0226 0.0844727 63.2606 0.183055 63.436 0.358532C63.6115 0.534008 63.7101 0.772 63.7101 1.02016V38.988C63.7101 39.2361 63.6115 39.4741 63.436 39.6496C63.2606 39.8251 63.0226 39.9236 62.7744 39.9236C62.5262 39.9236 62.2882 39.8251 62.1128 39.6496C61.9373 39.4741 61.8386 39.2361 61.8386 38.988V1.02016Z" fill="#1C2A40"/>
<path fill-rule="evenodd" clip-rule="evenodd" d="M69.6522 30.2394C69.6639 30.3689 69.6486 30.4994 69.6071 30.6225C69.5656 30.7457 69.4988 30.8589 69.4111 30.9549C69.3235 31.0508 69.2168 31.1275 69.0978 31.1799C68.9789 31.2323 68.8503 31.2594 68.7203 31.2594C68.5904 31.2594 68.4618 31.2323 68.3429 31.1799C68.2239 31.1275 68.1172 31.0508 68.0295 30.9549C67.9419 30.8589 67.8752 30.7457 67.8337 30.6225C67.7922 30.4994 67.7768 30.3689 67.7885 30.2394V1.01997C67.7768 0.890519 67.7922 0.760046 67.8337 0.636871C67.8752 0.513695 67.9419 0.400526 68.0295 0.304564C68.1172 0.208603 68.2239 0.131962 68.3429 0.0795247C68.4618 0.0270876 68.5904 0 68.7203 0C68.8503 0 68.9789 0.0270876 69.0978 0.0795247C69.2168 0.131962 69.3235 0.208603 69.4111 0.304564C69.4988 0.400526 69.5656 0.513695 69.6071 0.636871C69.6486 0.760046 69.6639 0.890519 69.6522 1.01997V30.2394Z" fill="#1C2A40"/>
<path fill-rule="evenodd" clip-rule="evenodd" d="M67.7946 34.324C67.7829 34.1956 67.7981 34.0662 67.8392 33.9439C67.8804 33.8217 67.9466 33.7094 68.0335 33.6142C68.1205 33.519 68.2263 33.443 68.3443 33.3909C68.4623 33.3389 68.5899 33.312 68.7188 33.312C68.8478 33.312 68.9754 33.3389 69.0933 33.3909C69.2113 33.443 69.3172 33.519 69.4042 33.6142C69.4911 33.7094 69.5573 33.8217 69.5984 33.9439C69.6396 34.0662 69.6548 34.1956 69.6431 34.324V38.9873C69.6548 39.1157 69.6396 39.2452 69.5984 39.3674C69.5573 39.4896 69.4911 39.6019 69.4042 39.6971C69.3172 39.7923 69.2113 39.8684 69.0933 39.9204C68.9754 39.9724 68.8478 39.9993 68.7188 39.9993C68.5899 39.9993 68.4623 39.9724 68.3443 39.9204C68.2263 39.8684 68.1205 39.7923 68.0335 39.6971C67.9466 39.6019 67.8804 39.4896 67.8392 39.3674C67.7981 39.2452 67.7829 39.1157 67.7946 38.9873V34.324Z" fill="#1C2A40"/>
<path fill-rule="evenodd" clip-rule="evenodd" d="M21.3983 36.8199C21.3983 36.5707 21.4973 36.3317 21.6735 36.1555C21.8497 35.9794 22.0886 35.8804 22.3378 35.8804C22.587 35.8804 22.8259 35.9794 23.0021 36.1555C23.1783 36.3317 23.2773 36.5707 23.2773 36.8199V38.9803C23.2773 39.2295 23.1783 39.4685 23.0021 39.6447C22.8259 39.8208 22.587 39.9198 22.3378 39.9198C22.0886 39.9198 21.8497 39.8208 21.6735 39.6447C21.4973 39.4685 21.3983 39.2295 21.3983 38.9803V36.8199Z" fill="#1C2A40"/>
</svg>
