<svg width="80" height="40" viewBox="0 0 80 40" fill="none" xmlns="http://www.w3.org/2000/svg">
<path fill-rule="evenodd" clip-rule="evenodd" d="M52.72 23.5134L49.9073 20.7156C49.8095 20.6203 49.694 20.5453 49.5673 20.4946C49.4405 20.444 49.3051 20.4188 49.1686 20.4206C49.0321 20.4223 48.8974 20.4509 48.7719 20.5047C48.6465 20.5585 48.533 20.6365 48.4377 20.7342C48.3424 20.8319 48.2673 20.9475 48.2167 21.0742C48.1661 21.2009 48.1409 21.3364 48.1427 21.4729C48.1444 21.6093 48.173 21.7441 48.2268 21.8695C48.2806 21.9949 48.3586 22.1085 48.4563 22.2038L51.269 25.0016C51.4664 25.194 51.7321 25.3001 52.0077 25.2967C52.2833 25.2932 52.5462 25.1803 52.7386 24.983C52.931 24.7857 53.0371 24.52 53.0336 24.2444C53.0301 23.9688 52.9173 23.7058 52.72 23.5134ZM38.5822 10.3504L35.7695 7.5526C35.5721 7.36018 35.3064 7.25404 35.0308 7.25753C34.7552 7.26102 34.4923 7.37385 34.2999 7.57119C34.1075 7.76854 34.0014 8.03424 34.0049 8.30984C34.0084 8.58544 34.1212 8.84837 34.3185 9.04078L37.1312 11.8386C37.2289 11.9338 37.3444 12.0089 37.4711 12.0596C37.5979 12.1102 37.7334 12.1354 37.8699 12.1336C38.0063 12.1319 38.1411 12.1033 38.2665 12.0495C38.3919 11.9957 38.5055 11.9177 38.6008 11.82C38.6961 11.7223 38.7712 11.6067 38.8218 11.48C38.8724 11.3533 38.8975 11.2178 38.8958 11.0813C38.8941 10.9449 38.8655 10.8101 38.8117 10.6847C38.7579 10.5592 38.6799 10.4457 38.5822 10.3504ZM33.567 5.37239C33.6816 5.45946 33.7766 5.56963 33.8458 5.69577C33.9151 5.8219 33.957 5.96119 33.969 6.10459C33.981 6.24799 33.9627 6.3923 33.9153 6.52817C33.8679 6.66404 33.7924 6.78844 33.6939 6.89329C33.5953 6.99814 33.4759 7.0811 33.3432 7.1368C33.2105 7.1925 33.0676 7.21969 32.9237 7.21661C32.7798 7.21352 32.6382 7.18024 32.5081 7.11891C32.3779 7.05758 32.2621 6.96956 32.1681 6.86058C29.7732 4.64491 26.819 3.12489 23.624 2.46433C20.429 1.80378 17.1143 2.02777 14.0371 3.11214C10.96 4.19651 8.23723 6.10013 6.16221 8.61784C4.08719 11.1355 2.73865 14.1718 2.26198 17.3994C1.78531 20.627 2.19859 23.9235 3.45724 26.9335C4.71588 29.9436 6.77215 32.553 9.40445 34.4806C12.0367 36.4082 15.1452 37.5808 18.3948 37.872C21.6444 38.1632 24.9117 37.562 27.8449 36.1333C27.9664 36.0709 28.0991 36.0334 28.2353 36.023C28.3715 36.0126 28.5085 36.0294 28.6381 36.0726C28.7677 36.1157 28.8873 36.1843 28.9901 36.2743C29.0928 36.3642 29.1767 36.4738 29.2366 36.5966C29.2965 36.7193 29.3313 36.8528 29.3389 36.9892C29.3466 37.1256 29.3269 37.2621 29.2812 37.3908C29.2354 37.5195 29.1645 37.6378 29.0724 37.7387C28.9804 37.8396 28.8692 37.9212 28.7453 37.9786C25.4748 39.5731 21.8311 40.2447 18.2071 39.9207C14.583 39.5968 11.1161 38.2897 8.18031 36.1404C5.24447 33.9912 2.95104 31.0812 1.54732 27.7244C0.143594 24.3676 -0.317183 20.6913 0.214723 17.0919C0.746629 13.4925 2.25102 10.1066 4.56566 7.29931C6.88029 4.492 9.91736 2.36979 13.3494 1.16153C16.7814 -0.0467243 20.4781 -0.295192 24.0409 0.442929C27.6037 1.18105 30.8975 2.87775 33.567 5.35007V5.37239ZM32.5625 35.5603C32.3502 35.7202 32.0842 35.7916 31.8204 35.7595C31.5566 35.7274 31.3154 35.5942 31.1478 35.388C30.9801 35.1818 30.899 34.9186 30.9213 34.6538C30.9437 34.3889 31.0679 34.1431 31.2678 33.9679C31.7424 33.5823 32.1968 33.1725 32.6294 32.7402L39.0361 26.3559L52.5116 12.9622C53.894 11.5871 55.6485 10.6466 57.5589 10.2564C59.4693 9.86619 61.4521 10.0434 63.2631 10.7662C65.074 11.4889 66.6339 12.7257 67.7506 14.324C68.8673 15.9224 69.4921 17.8125 69.5479 19.7616C69.6037 21.7106 69.088 23.6334 68.0645 25.293C67.041 26.9526 65.5544 28.2765 63.7877 29.1017C62.0211 29.9268 60.0517 30.2171 58.1221 29.9368C56.1925 29.6565 54.3871 28.8178 52.9283 27.5241C52.8272 27.4347 52.7447 27.3262 52.6854 27.2049C52.6262 27.0836 52.5915 26.9518 52.5832 26.8171C52.5664 26.545 52.6585 26.2773 52.839 26.0731C53.0196 25.8688 53.2739 25.7447 53.546 25.7279C53.8181 25.7112 54.0857 25.8032 54.29 25.9838C55.4494 27.0111 56.884 27.6767 58.417 27.8987C59.9501 28.1208 61.5146 27.8895 62.9178 27.2335C64.3211 26.5774 65.5017 25.5252 66.3143 24.2064C67.1269 22.8876 67.5361 21.36 67.4913 19.8116C67.4465 18.2632 66.9497 16.7618 66.0621 15.4922C65.1746 14.2227 63.9351 13.2405 62.4963 12.6666C61.0574 12.0928 59.4822 11.9524 57.9646 12.2627C56.447 12.5731 55.0532 13.3206 53.9552 14.4131L40.4796 27.8068L34.0729 34.1912C33.6054 34.6723 33.1137 35.1292 32.5996 35.5603H32.5625Z" fill="#1C2A40"/>
<path fill-rule="evenodd" clip-rule="evenodd" d="M45.7399 25.0017L50.2044 29.4662C50.8334 30.0944 51.5239 30.6578 52.2656 31.1479C52.3777 31.2299 52.5053 31.2883 52.6407 31.3196C52.7761 31.3509 52.9165 31.3543 53.0533 31.3298C53.19 31.3052 53.3203 31.2531 53.4364 31.1767C53.5525 31.1003 53.6518 31.0012 53.7284 30.8852C53.805 30.7693 53.8573 30.639 53.8821 30.5023C53.9069 30.3656 53.9037 30.2252 53.8727 30.0898C53.8416 29.9543 53.7835 29.8266 53.7016 29.7143C53.6198 29.602 53.516 29.5075 53.3966 29.4365C52.7704 29.0218 52.1871 28.5457 51.6554 28.0152L47.1908 23.5507C46.9935 23.3583 46.7278 23.2521 46.4522 23.2556C46.1766 23.2591 45.9136 23.3719 45.7212 23.5693C45.5288 23.7666 45.4227 24.0323 45.4262 24.3079C45.4297 24.5835 45.5425 24.8465 45.7399 25.0389V25.0017ZM56.3655 32.9411C56.1011 32.875 55.8737 32.7066 55.7334 32.4728C55.5932 32.2391 55.5516 31.9592 55.6177 31.6948C55.6838 31.4303 55.8522 31.203 56.086 31.0628C56.3197 30.9225 56.5996 30.8809 56.864 30.947C57.7692 31.1741 58.6989 31.289 59.6321 31.2893C61.4362 31.2819 63.2121 30.8415 64.8105 30.0049C66.4089 29.1683 67.783 27.96 68.8172 26.4818C69.8514 25.0035 70.5155 23.2985 70.7536 21.5102C70.9916 19.7219 70.7967 17.9025 70.1851 16.2052C69.5736 14.5079 68.5635 12.9823 67.2396 11.7567C65.9157 10.5311 64.3167 9.64144 62.5773 9.16247C60.838 8.68349 59.0091 8.62925 57.2444 9.00432C55.4797 9.37938 53.8309 10.1728 52.4367 11.3178C52.3326 11.4038 52.2127 11.4684 52.0836 11.508C51.9546 11.5476 51.8189 11.5615 51.6845 11.5487C51.5501 11.5359 51.4196 11.4968 51.3003 11.4335C51.181 11.3703 51.0755 11.2842 50.9895 11.1801C50.9035 11.076 50.8388 10.9561 50.7992 10.827C50.7596 10.698 50.7457 10.5624 50.7585 10.428C50.7713 10.2936 50.8104 10.163 50.8737 10.0438C50.9369 9.92448 51.023 9.81884 51.1271 9.73285C52.7764 8.36899 54.7298 7.42218 56.8222 6.97241C58.9145 6.52264 61.0845 6.58312 63.1486 7.14875C65.2127 7.71438 67.1103 8.76854 68.6811 10.2221C70.2518 11.6758 71.4496 13.4861 72.1733 15.5002C72.8969 17.5144 73.1251 19.6731 72.8385 21.794C72.552 23.9149 71.7592 25.9357 70.527 27.6856C69.2949 29.4355 67.6597 30.8631 65.7595 31.8478C63.8593 32.8325 61.75 33.3453 59.6098 33.343C58.5061 33.344 57.4064 33.209 56.3357 32.9411H56.3655ZM47.7638 13.0292C47.9611 12.8368 48.2268 12.7306 48.5024 12.7341C48.778 12.7376 49.0409 12.8504 49.2333 13.0478C49.4258 13.2451 49.5319 13.5108 49.5285 13.7864C49.525 14.062 49.4122 14.325 49.2148 14.5174L38.9017 24.7115L37.6888 25.9169C37.4915 26.1093 37.2258 26.2154 36.9502 26.212C36.6746 26.2085 36.4116 26.0956 36.2191 25.8983C36.0267 25.7009 35.9206 25.4353 35.9241 25.1597C35.9276 24.8841 36.0404 24.6211 36.2378 24.4287L37.4506 23.2233L47.7341 12.9771L47.7638 13.0292ZM34.0427 26.6982L30.3222 30.4187C28.4586 32.2708 26.1293 33.5853 23.5805 34.2235C21.0317 34.8616 18.3579 34.7998 15.8414 34.0443C13.3248 33.2889 11.0589 31.868 9.28288 29.9317C7.50688 27.9953 6.28672 25.6153 5.75115 23.043C5.21559 20.4707 5.38451 17.8015 6.2401 15.3172C7.0957 12.8329 8.60625 10.6257 10.6122 8.92873C12.6181 7.23172 15.0451 6.10783 17.6368 5.67572C20.2285 5.24361 22.8887 5.51931 25.3368 6.47372C25.4636 6.52912 25.6003 6.55832 25.7387 6.55957C25.8771 6.56082 26.0142 6.53408 26.142 6.48098C26.2698 6.42787 26.3855 6.34948 26.4822 6.25052C26.579 6.15157 26.6547 6.03407 26.7049 5.90511C26.755 5.77616 26.7787 5.63839 26.7743 5.50008C26.7699 5.36178 26.7375 5.22578 26.6793 5.10028C26.621 4.97477 26.5379 4.86234 26.4351 4.76974C26.3323 4.67714 26.2118 4.60627 26.0809 4.56139C23.0638 3.3846 19.7698 3.10974 16.5994 3.77024C13.429 4.43074 10.5187 5.99814 8.2226 8.28186C6.6738 9.82773 5.44473 11.6635 4.6054 13.6844C3.76608 15.7053 3.33301 17.8717 3.33094 20.06C3.32887 22.2482 3.75783 24.4155 4.59332 26.4379C5.42881 28.4604 6.65448 30.2985 8.20034 31.8473C9.74621 33.3961 11.5819 34.6253 13.6028 35.4646C15.6237 36.3039 17.7902 36.737 19.9784 36.7391C22.1667 36.7411 24.3339 36.3122 26.3563 35.4767C28.3788 34.6412 30.2169 33.4155 31.7657 31.8696L35.4862 28.1492C35.6836 27.9518 35.7944 27.6842 35.7944 27.4051C35.7944 27.126 35.6836 26.8583 35.4862 26.661C35.2889 26.4636 35.0212 26.3528 34.7421 26.3528C34.463 26.3528 34.1954 26.4636 33.998 26.661L34.0427 26.6982ZM28.6257 8.26698C29.2083 8.69662 29.7579 9.16921 30.2701 9.68077L34.7347 14.1453C34.8324 14.2406 34.9479 14.3157 35.0747 14.3663C35.2014 14.417 35.3369 14.4421 35.4733 14.4404C35.6098 14.4387 35.7446 14.4101 35.87 14.3563C35.9954 14.3024 36.1091 14.2244 36.2043 14.1267C36.2996 14.029 36.3747 13.9135 36.4253 13.7867C36.476 13.66 36.5011 13.5245 36.4994 13.3881C36.4976 13.2516 36.4691 13.1168 36.4152 12.9914C36.3614 12.866 36.2834 12.7524 36.1857 12.6571L31.7211 8.19258C31.1348 7.6081 30.5055 7.06836 29.8386 6.57789C29.7301 6.49777 29.6069 6.43979 29.4761 6.40727C29.3452 6.37475 29.2092 6.36832 29.0759 6.38836C28.9425 6.4084 28.8143 6.45451 28.6988 6.52405C28.5833 6.5936 28.4826 6.68521 28.4024 6.79368C28.3223 6.90214 28.2644 7.02533 28.2318 7.1562C28.1993 7.28707 28.1929 7.42307 28.213 7.55643C28.233 7.68978 28.2791 7.81788 28.3487 7.93341C28.4182 8.04895 28.5098 8.14966 28.6182 8.22978L28.6257 8.26698Z" fill="#1C2A40"/>
<path fill-rule="evenodd" clip-rule="evenodd" d="M40.9857 29.7042L42.2655 30.9766C42.4628 31.1691 42.7285 31.2752 43.0041 31.2717C43.2797 31.2682 43.5427 31.1554 43.7352 30.958C43.9276 30.7607 44.0337 30.495 44.0302 30.2194C44.0267 29.9438 43.9139 29.6809 43.7165 29.4885L42.4367 28.2161C42.339 28.1208 42.2235 28.0457 42.0967 27.9951C41.97 27.9444 41.8345 27.9193 41.6981 27.921C41.5616 27.9227 41.4267 27.9513 41.3013 28.0051C41.1759 28.0589 41.0623 28.1369 40.9671 28.2347C40.8718 28.3324 40.7967 28.4479 40.7461 28.5746C40.6954 28.7014 40.6703 28.8368 40.672 28.9733C40.6738 29.1098 40.7023 29.2445 40.7561 29.37C40.81 29.4954 40.888 29.609 40.9857 29.7042ZM44.2448 32.9411C44.1471 32.8458 44.0691 32.7322 44.0153 32.6068C43.9615 32.4814 43.9329 32.3466 43.9312 32.2101C43.9294 32.0737 43.9546 31.9382 44.0052 31.8114C44.0558 31.6847 44.1309 31.5692 44.2262 31.4715C44.3215 31.3738 44.435 31.2958 44.5605 31.2419C44.6859 31.1881 44.8207 31.1595 44.9571 31.1578C45.0936 31.1561 45.2291 31.1812 45.3559 31.2319C45.4826 31.2825 45.598 31.3576 45.6958 31.4529L46.9384 32.6955C49.0271 34.7789 51.5974 36.3151 54.4216 37.1679C57.2458 38.0208 60.2367 38.164 63.1295 37.5849C66.0222 37.0058 68.7275 35.7222 71.0057 33.8479C73.2839 31.9736 75.0648 29.5664 76.1905 26.8395C77.3163 24.1126 77.7521 21.1501 77.4595 18.2145C77.167 15.2789 76.1549 12.4608 74.5131 10.0097C72.8712 7.55864 70.6503 5.55028 68.0469 4.16253C65.4436 2.77477 62.5382 2.05045 59.588 2.05371C59.1366 2.05371 58.6852 2.07106 58.2338 2.10579C58.0966 2.12153 57.9575 2.10942 57.8251 2.07019C57.6926 2.03096 57.5695 1.96542 57.463 1.87747C57.3565 1.78953 57.2687 1.68099 57.2052 1.55837C57.1416 1.43574 57.1034 1.30155 57.0929 1.16382C57.0824 1.02608 57.0998 0.887646 57.144 0.756788C57.1883 0.62593 57.2584 0.505348 57.3503 0.402249C57.4422 0.299149 57.5541 0.215651 57.679 0.156764C57.804 0.0978772 57.9395 0.0648051 58.0775 0.0595289C58.5736 0.0198439 59.0696 0 59.5657 0C62.8494 0.00541987 66.0813 0.819844 68.9754 2.37126C71.8695 3.92267 74.3368 6.16327 76.1591 8.89495C77.9814 11.6266 79.1025 14.7652 79.4234 18.0333C79.7443 21.3013 79.2551 24.598 77.9989 27.632C76.7428 30.6659 74.7584 33.3436 72.2213 35.4283C69.6842 37.5131 66.6725 38.9405 63.4526 39.5846C60.2326 40.2286 56.9036 40.0693 53.7598 39.1208C50.616 38.1723 47.7544 36.4639 45.4279 34.1465L44.1853 32.9038L44.2448 32.9411ZM54.7143 0.632485C54.9787 0.566374 55.2585 0.608019 55.4922 0.748261C55.726 0.888503 55.8945 1.11586 55.9606 1.3803C56.0267 1.64475 55.985 1.92462 55.8448 2.15836C55.7045 2.39209 55.4772 2.56055 55.2128 2.62666C52.0816 3.40845 49.2217 5.02617 46.9384 7.30701L27.0563 27.1148C25.7516 28.4175 24.1106 29.332 22.3164 29.7563C22.051 29.8195 21.7713 29.7746 21.539 29.6316C21.3066 29.4885 21.1406 29.2591 21.0774 28.9936C21.0143 28.7282 21.0592 28.4486 21.2022 28.2162C21.3453 27.9839 21.5747 27.8179 21.8402 27.7547C23.2657 27.4184 24.5694 26.6918 25.6052 25.6564L45.4875 5.84858C48.0328 3.31029 51.2191 1.51013 54.7068 0.639921L54.7143 0.632485ZM18.8117 27.8738C17.5716 27.6855 16.3935 27.2061 15.3744 26.4748C14.3552 25.7435 13.5239 24.7811 12.9484 23.6665C12.373 22.552 12.0698 21.3169 12.0637 20.0625C12.0577 18.8081 12.349 17.5702 12.9137 16.4501C13.4783 15.33 14.3004 14.3596 15.3124 13.6185C16.3245 12.8774 17.4977 12.3867 18.736 12.1865C19.9743 11.9863 21.2424 12.0823 22.4365 12.4668C23.6305 12.8512 24.7164 13.5131 25.6052 14.3982L26.8107 15.5962C27.0081 15.7886 27.2738 15.8948 27.5494 15.8913C27.825 15.8878 28.0879 15.775 28.2803 15.5776C28.4727 15.3803 28.5788 15.1146 28.5753 14.839C28.5718 14.5634 28.459 14.3004 28.2617 14.108L27.0563 12.91C25.9329 11.8045 24.5642 10.9802 23.0617 10.5042C21.5592 10.0282 19.9655 9.91413 18.4105 10.1712C16.8555 10.4282 15.3833 11.0492 14.1139 11.9834C12.8445 12.9175 11.8139 14.1385 11.1061 15.5467C10.3983 16.9549 10.0333 18.5105 10.041 20.0866C10.0487 21.6626 10.4288 23.2146 11.1502 24.6158C11.8717 26.0171 12.9142 27.228 14.1926 28.1498C15.471 29.0715 16.9492 29.6781 18.5066 29.92C18.776 29.9605 19.0504 29.8923 19.2695 29.7304C19.4886 29.5685 19.6344 29.3263 19.6748 29.0569C19.7153 28.7875 19.6471 28.5131 19.4852 28.294C19.3234 28.0749 19.0811 27.9291 18.8117 27.8887V27.8738ZM29.0951 17.8731L30.0847 18.8554C30.1824 18.9506 30.2979 19.0257 30.4247 19.0763C30.5514 19.127 30.6869 19.1521 30.8233 19.1504C30.9598 19.1487 31.0946 19.1201 31.22 19.0663C31.3454 19.0125 31.4591 18.9345 31.5543 18.8367C31.6496 18.739 31.7247 18.6235 31.7753 18.4968C31.826 18.37 31.8511 18.2346 31.8494 18.0981C31.8476 17.9616 31.8191 17.8269 31.7653 17.7014C31.7114 17.576 31.6334 17.4624 31.5357 17.3672L30.546 16.385C30.3487 16.1925 30.083 16.0864 29.8074 16.0899C29.5318 16.0934 29.2689 16.2062 29.0764 16.4036C28.884 16.6009 28.7779 16.8666 28.7814 17.1422C28.7849 17.4178 28.8977 17.6807 29.0951 17.8731Z" fill="#1C2A40"/>
<path fill-rule="evenodd" clip-rule="evenodd" d="M43.3443 27.3531L46.596 30.5899C46.7933 30.7824 47.059 30.8885 47.3346 30.885C47.6102 30.8815 47.8732 30.7687 48.0656 30.5713C48.258 30.374 48.3641 30.1083 48.3606 29.8327C48.3571 29.5571 48.2443 29.2942 48.0469 29.1018L44.7953 25.8649C44.5979 25.6725 44.3322 25.5664 44.0566 25.5699C43.781 25.5734 43.5181 25.6862 43.3257 25.8835C43.1333 26.0809 43.0272 26.3466 43.0307 26.6222C43.0342 26.8978 43.147 27.1607 43.3443 27.3531ZM48.5976 32.5618C48.3923 32.3822 48.2668 32.1285 48.2487 31.8563C48.2305 31.5842 48.3212 31.3161 48.5008 31.1108C48.6804 30.9056 48.9342 30.7801 49.2063 30.7619C49.4784 30.7438 49.7466 30.8345 49.9519 31.0141C50.2297 31.2572 50.5124 31.4878 50.8001 31.7061C51.0182 31.8699 51.1623 32.1136 51.2006 32.3836C51.239 32.6536 51.1685 32.9278 51.0047 33.1459C50.8409 33.364 50.5972 33.508 50.3272 33.5464C50.0572 33.5848 49.783 33.5143 49.5649 33.3505C49.2326 33.1025 48.9101 32.8396 48.5976 32.5618ZM49.5649 33.3505C51.8278 35.0526 54.4873 36.1495 57.2922 36.5376C60.097 36.9258 62.9546 36.5923 65.5946 35.5687C68.2347 34.5452 70.5701 32.8653 72.3803 30.6879C74.1905 28.5105 75.4156 25.9076 75.9398 23.1249C76.4641 20.3423 76.2701 17.472 75.3762 14.7852C74.4824 12.0984 72.9182 9.68394 70.8316 7.76991C68.7449 5.85589 66.2046 4.50555 63.4508 3.8465C60.697 3.18746 57.8206 3.24148 55.0935 4.00346C54.9635 4.03962 54.842 4.10101 54.7358 4.18415C54.6296 4.26728 54.5407 4.37054 54.4744 4.488C54.3404 4.72523 54.3062 5.00595 54.3792 5.26842C54.4522 5.53089 54.6266 5.75361 54.8638 5.88757C55.101 6.02154 55.3817 6.05577 55.6442 5.98275C56.9305 5.62317 58.2597 5.44043 59.5953 5.43957C61.9086 5.44272 64.1879 5.99553 66.2456 7.05243C68.3033 8.10934 70.0804 9.64009 71.4304 11.5185C72.7804 13.397 73.6648 15.5694 74.0106 17.8566C74.3563 20.1439 74.1536 22.4806 73.4191 24.6741C72.6846 26.8677 71.4394 28.8553 69.786 30.4732C68.1326 32.0911 66.1184 33.2929 63.9094 33.9796C61.7005 34.6664 59.3599 34.8184 57.0807 34.4231C54.8015 34.0278 52.6489 33.0965 50.8001 31.7061C50.5822 31.5593 50.3162 31.5017 50.0571 31.5451C49.7979 31.5885 49.5652 31.7296 49.4069 31.9393C49.2486 32.1491 49.1767 32.4116 49.2061 32.6727C49.2355 32.9338 49.364 33.1738 49.5649 33.3431V33.3505ZM50.495 6.07949C50.6079 6.00353 50.7347 5.95074 50.8681 5.92419C51.0015 5.89764 51.1388 5.89787 51.2721 5.92485C51.4054 5.95183 51.5321 6.00502 51.6447 6.08134C51.7573 6.15766 51.8536 6.25561 51.928 6.36946C52.0024 6.48331 52.0535 6.61081 52.0782 6.74456C52.103 6.87831 52.1008 7.01564 52.0721 7.14858C52.0433 7.28152 51.9884 7.40742 51.9106 7.51896C51.8327 7.6305 51.7335 7.72547 51.6186 7.79835C50.777 8.34647 49.994 8.9798 49.2822 9.68834L43.3294 15.6411C43.2317 15.7364 43.1162 15.8115 42.9894 15.8621C42.8627 15.9127 42.7272 15.9379 42.5908 15.9362C42.4543 15.9344 42.3195 15.9058 42.1941 15.852C42.0687 15.7982 41.9551 15.7202 41.8598 15.6225C41.7646 15.5248 41.6895 15.4092 41.6389 15.2825C41.5882 15.1558 41.563 15.0203 41.5647 14.8839C41.5665 14.7474 41.5951 14.6126 41.6489 14.4872C41.7028 14.3618 41.7808 14.2482 41.8785 14.1529L47.8312 8.20015C48.6425 7.39105 49.5352 6.66793 50.495 6.04228V6.07949ZM39.6908 16.3405L29.2065 26.7579C29.1088 26.8556 29.0312 26.9716 28.9784 27.0993C28.9255 27.2269 28.8983 27.3638 28.8983 27.502C28.8983 27.6401 28.9255 27.777 28.9784 27.9047C29.0312 28.0323 29.1088 28.1483 29.2065 28.246C29.3042 28.3438 29.4202 28.4213 29.5479 28.4742C29.6755 28.527 29.8124 28.5543 29.9506 28.5543C30.0888 28.5543 30.2256 28.527 30.3533 28.4742C30.4809 28.4213 30.597 28.3438 30.6947 28.246L41.179 17.8287C41.3763 17.6314 41.4872 17.3637 41.4872 17.0846C41.4872 16.8055 41.3763 16.5379 41.179 16.3405C40.9816 16.1432 40.714 16.0323 40.4349 16.0323C40.1558 16.0323 39.8881 16.1432 39.6908 16.3405ZM26.6171 29.1762C24.9299 30.3965 22.9374 31.1254 20.8611 31.2818C18.7847 31.4383 16.7056 31.0162 14.8546 30.0624C13.0037 29.1087 11.4532 27.6606 10.3755 25.879C9.29771 24.0973 8.73488 22.0518 8.74938 19.9696C8.76388 17.8874 9.3552 15.85 10.4577 14.0835C11.5601 12.317 13.1305 10.8907 14.9946 9.96281C16.8587 9.03494 18.9435 8.64185 21.0175 8.82721C23.0915 9.01256 25.0735 9.7691 26.7435 11.0128C26.851 11.0996 26.9749 11.1638 27.1078 11.2016C27.2406 11.2394 27.3797 11.25 27.5168 11.2328C27.6538 11.2155 27.786 11.1708 27.9054 11.1013C28.0247 11.0318 28.1289 10.939 28.2115 10.8283C28.2942 10.7176 28.3536 10.5914 28.3863 10.4572C28.419 10.323 28.4244 10.1835 28.4019 10.0472C28.3795 9.91094 28.3298 9.78056 28.2558 9.66392C28.1818 9.54727 28.085 9.44676 27.9713 9.36838C25.9968 7.89801 23.6534 7.00365 21.2013 6.78459C18.7493 6.56554 16.2844 7.03036 14.0806 8.12746C11.8767 9.22456 10.02 10.911 8.71668 12.9995C7.41333 15.0881 6.71428 17.497 6.69722 19.9587C6.68016 22.4205 7.34576 24.8389 8.62004 26.9453C9.89432 29.0517 11.7274 30.7637 13.9159 31.8912C16.1044 33.0187 18.5624 33.5177 21.0173 33.3327C23.4722 33.1476 25.8278 32.2858 27.8225 30.8429C27.932 30.7638 28.0247 30.6639 28.0956 30.5489C28.1664 30.4338 28.2138 30.306 28.2353 30.1727C28.2567 30.0393 28.2516 29.903 28.2204 29.7716C28.1891 29.6402 28.1323 29.5163 28.0531 29.4068C27.974 29.2974 27.874 29.2046 27.759 29.1338C27.644 29.063 27.5162 29.0155 27.3829 28.9941C27.2495 28.9727 27.1133 28.9777 26.9819 29.009C26.8505 29.0402 26.7265 29.097 26.6171 29.1762ZM29.2214 13.3195C29.1237 13.2242 29.0457 13.1107 28.9919 12.9852C28.9381 12.8598 28.9094 12.725 28.9077 12.5886C28.906 12.4521 28.9312 12.3167 28.9818 12.1899C29.0324 12.0632 29.1075 11.9476 29.2028 11.8499C29.2981 11.7522 29.4116 11.6742 29.5371 11.6204C29.6625 11.5666 29.7973 11.538 29.9337 11.5363C30.0702 11.5345 30.2056 11.5597 30.3324 11.6103C30.4591 11.661 30.5746 11.7361 30.6724 11.8313L33.8868 15.0309C34.0842 15.2234 34.1971 15.4863 34.2005 15.7619C34.204 16.0375 34.0978 16.3032 33.9054 16.5005C33.713 16.6979 33.4501 16.8107 33.1745 16.8142C32.8989 16.8177 32.6332 16.7115 32.4359 16.5191L29.2214 13.3195Z" fill="#1C2A40"/>
</svg>
