<svg width="165" height="48" viewBox="0 0 165 48" fill="none" xmlns="http://www.w3.org/2000/svg">
<g filter="url(#filter0_d_88_1395)">
<path fill-rule="evenodd" clip-rule="evenodd" d="M21.7691 7.60986C22.0044 7.41458 22.1981 7.17419 22.3389 6.90283C22.4798 6.63147 22.5649 6.33455 22.5891 6.02979C20.6391 6.94979 19.3091 5.81018 17.9591 6.43018C17.3391 6.72018 17.6291 6.76979 17.1691 7.02979C16.2291 7.55979 14.8291 7.03023 15.6091 8.74023C15.9723 8.50083 16.4053 8.39 16.8387 8.42627C17.2722 8.46254 17.6809 8.64351 17.9991 8.93994C18.6391 9.27994 20.3991 9.38023 20.4991 11.7402C20.6091 14.5202 18.6291 16.5198 16.7291 14.3198C16.7291 13.1098 17.4791 12.5998 16.7291 11.3198C16.4379 10.8882 16.0281 10.5502 15.549 10.3462C15.07 10.1422 14.5422 10.0809 14.0291 10.1699C5.82914 10.9099 10.0291 23.3201 8.11914 27.1001C9.35537 26.9684 10.535 26.5128 11.5391 25.7798C12.8191 24.9898 13.2391 25.1499 13.3691 23.1099C14.7591 22.8499 15.2291 22.1101 15.4791 20.6201L15.6291 20.71C16.5591 21.21 16.6291 21.1301 17.6291 20.6001C18.3291 21.6001 18.6291 21.38 19.7591 20.79L20.1191 21.48C18.6391 22.08 18.1191 22.22 17.7891 24C17.5991 25.15 17.5691 24.9999 16.8591 25.6299C16.3691 26.0599 16.1091 26.53 15.4991 26.75C15.3704 26.5307 15.1993 26.3391 14.9958 26.1865C14.7924 26.0339 14.5608 25.9232 14.3142 25.8608C14.0677 25.7985 13.8112 25.7861 13.5597 25.8237C13.3082 25.8613 13.0667 25.9484 12.8491 26.0801C12.9691 26.6001 12.8491 26.3303 13.4191 26.5103C12.9291 26.8203 12.4891 26.8398 12.8091 27.5698C12.8091 27.5698 12.8691 27.5698 12.8791 27.5698C13.4591 27.4698 13.2791 27.5699 13.7491 27.6699C14.2191 27.7699 14.6291 27.7499 15.1591 27.8599C15.9291 28.0199 15.7191 28.1199 16.1591 28.8599L16.6291 29.71L17.4491 29.1802C17.3591 28.2902 16.9791 28.3901 16.5291 27.5601C17.1991 25.6601 19.6891 25.3901 20.1791 25.1401C20.6066 24.888 21.0848 24.7341 21.5791 24.6899C20.9091 26.1299 18.6491 30.88 18.6691 32.25C19.3891 32.91 19.5291 33.07 20.6091 32.73C20.586 32.9865 20.6461 33.2436 20.7804 33.4634C20.9147 33.6831 21.1162 33.8538 21.355 33.9502C21.5939 34.0466 21.8574 34.0639 22.1066 33.999C22.3559 33.9341 22.5776 33.7905 22.7391 33.5898C23.0091 34.2398 23.0091 34.5903 23.9691 34.5103C24.9291 34.4303 24.6691 34.1902 24.9691 33.6602C25.4991 34.1002 26.8691 34.5202 27.1191 32.6602C27.2784 32.8066 27.4761 32.9046 27.689 32.9429C27.9019 32.9811 28.1214 32.9578 28.3217 32.876C28.522 32.7942 28.6949 32.6574 28.8201 32.481C28.9454 32.3046 29.0179 32.0959 29.0291 31.8799C28.1827 29.4382 27.1807 27.0537 26.0291 24.7402C26.5463 24.7648 27.0502 24.9119 27.4991 25.1699C29.3591 26.1099 27.7091 24.59 30.2991 26.5C32.0191 27.77 30.5891 27.77 30.1891 28.96C30.4791 29.52 30.4591 29.5302 31.1091 29.7002L31.1591 29.4902C31.1745 29.4255 31.1946 29.3616 31.2191 29.2998L31.6891 28.5498C32.3191 27.5498 32.2591 28.02 33.6891 27.73C33.8328 27.7131 33.9719 27.6691 34.0991 27.6001C34.9891 27.3401 34.7091 28.0301 34.8591 27.6001C34.8591 27.6001 34.9091 27.6001 34.9391 27.6001C34.9391 26.7501 34.8391 26.8998 34.2891 26.5498C34.7891 26.3198 34.9691 26.7202 34.8591 26.2202C34.7491 25.7202 33.2491 25.4302 32.1991 26.7402C31.6509 26.4378 31.1547 26.0491 30.7291 25.5898C30.0191 24.9798 30.0791 25.1503 29.8991 24.0103C29.5791 21.9203 28.2891 21.8902 27.6091 21.4102L27.9191 20.79C28.26 21.0386 28.6599 21.1939 29.0791 21.2402C29.8191 21.2402 29.7991 20.9901 30.0791 20.6001C30.9191 21.2001 31.4591 21.27 32.0791 20.54C32.4991 22.11 32.7191 22.6202 34.2691 23.1802C34.4391 25.1802 34.8891 25.0399 36.2191 25.8799C37.1885 26.5777 38.329 26.9995 39.5191 27.1001C38.0291 24.5501 39.8591 16.9501 38.1291 13.3101C36.5091 9.91006 32.0091 9.31006 30.9191 11.3101C30.2191 12.5801 30.6991 13.01 30.9191 14.21C30.4591 15.03 29.2391 15.92 28.2391 15C27.2391 14.08 26.0391 10.37 28.8991 9.27002C30.7991 8.54002 29.9491 8.22004 32.1191 8.79004C32.2891 7.79004 32.2591 7.62986 31.2491 7.35986C29.4891 6.87986 30.4591 6.85998 29.5491 6.47998C28.2091 5.90998 27.6591 6.9899 25.0091 6.1499C25.1091 6.9199 25.0091 6.70012 25.5891 7.37012C25.7791 7.60012 25.6791 7.43994 25.8291 7.68994C25.0491 8.91994 23.8291 10.5199 23.8291 12.4199C23.5268 10.6779 22.8214 9.03068 21.7691 7.60986Z" fill="white"/>
<path fill-rule="evenodd" clip-rule="evenodd" d="M41.7696 21.1801C41.5224 24.7441 40.2202 28.1535 38.0289 30.975C35.8376 33.7966 32.8563 35.9022 29.4644 37.0239C26.0726 38.1456 22.4237 38.2326 18.9822 37.2739C15.5408 36.3151 12.4625 34.3539 10.1392 31.6401C7.81584 28.9262 6.3526 25.5827 5.93576 22.0346C5.51891 18.4865 6.1673 14.8947 7.79837 11.7163C9.42944 8.53784 11.9694 5.91672 15.0949 4.18647C18.2205 2.45622 21.7902 1.69493 25.3496 1.99995C30.0627 2.38556 34.4327 4.61764 37.508 8.20991C40.5834 11.8022 42.1151 16.4639 41.7696 21.1801ZM21.8596 0.549753C19.2486 0.798036 16.7181 1.58851 14.4297 2.87007C12.3998 4.02563 10.5724 5.505 9.01965 7.24995C4.26965 12.6999 2.65965 22.3298 6.85965 29.3598C8.02033 31.3858 9.51078 33.2045 11.2697 34.7402C14.7197 38.0002 20.8196 39.8402 26.0396 39.2402C31.1648 38.6622 35.8516 36.0749 39.0722 32.0463C42.2928 28.0178 43.7843 22.8766 43.2197 17.7499C42.666 12.6382 40.1048 7.9555 36.0991 4.73188C32.0935 1.50826 26.9716 0.00772744 21.8596 0.560007V0.549753Z" fill="white"/>
<path fill-rule="evenodd" clip-rule="evenodd" d="M54.9286 19.9902C57.5086 19.8902 60.1886 20.2099 60.1486 22.8999C60.1086 25.5899 57.5886 26.07 54.9386 25.75V19.98L54.9286 19.9902ZM53.0586 26.8301C56.5786 27.2001 61.2086 27.1301 61.9886 23.8301C63.1186 19.0401 57.3686 19.0902 54.9886 18.9102V14.1401C57.0834 13.9455 59.1936 13.989 61.2786 14.27V12.9302C58.3586 13.0802 55.9786 13.0002 53.0686 12.9302C53.3032 17.5605 53.3032 22.1997 53.0686 26.8301H53.0586Z" fill="white"/>
<path fill-rule="evenodd" clip-rule="evenodd" d="M101.899 19.4904C101.796 17.6769 101.833 15.8578 102.009 14.0499C104.479 13.9399 107.149 13.9001 106.959 16.7101C106.789 19.1101 104.409 19.6604 101.909 19.4904H101.899ZM100.019 26.9H102.019L101.839 20.5104C105.539 20.7104 109.319 19.99 108.839 15.86C108.429 12.15 103.389 13.0101 99.959 12.9401C100.319 17.5401 100.139 22.27 100.019 26.9Z" fill="white"/>
<path fill-rule="evenodd" clip-rule="evenodd" d="M140.339 26.8799H141.489C142.659 25.5999 146.169 20.1498 147.379 19.5698L147.309 26.8999H149.109C148.89 23.6803 148.89 20.4496 149.109 17.23C147.109 17.3 147.939 17.2298 145.279 20.5298C144.302 21.8917 143.236 23.1882 142.089 24.4102V17.2002H140.299C140.511 20.423 140.524 23.6554 140.339 26.8799Z" fill="white"/>
<path fill-rule="evenodd" clip-rule="evenodd" d="M151.25 26.8799C152.17 26.8799 152.25 27.0498 152.68 26.5298L155 23.3599C155.966 21.9851 157.054 20.7001 158.25 19.52V26.8999H160.04C159.846 23.6862 159.846 20.4637 160.04 17.25H158.63C157.829 18.5219 156.93 19.7288 155.94 20.8599L153.08 24.4199C152.889 22.0263 152.906 19.6207 153.13 17.23H151.27C151.462 20.444 151.455 23.6667 151.25 26.8799Z" fill="white"/>
<path fill-rule="evenodd" clip-rule="evenodd" d="M73.8991 26.8799H75.7691L75.5791 22.1899H80.5791L80.4791 26.9102H82.2991C82.085 23.687 82.085 20.4531 82.2991 17.23H80.4291L80.6091 21.1299C78.9478 21.3032 77.2741 21.3234 75.6091 21.1899L75.6991 17.1899H73.8691C74.0453 20.4173 74.0553 23.6515 73.8991 26.8799Z" fill="white"/>
<path fill-rule="evenodd" clip-rule="evenodd" d="M111.099 23.0697C110.389 16.9697 116.469 15.8197 117.099 21.0697C117.819 27.3197 111.719 28.1897 111.099 23.0697ZM112.919 17.1498C106.919 18.7098 108.569 28.5699 115.299 26.9399C121.229 25.5299 119.559 15.4301 112.919 17.1601V17.1498Z" fill="white"/>
<path fill-rule="evenodd" clip-rule="evenodd" d="M69.4802 24.9599C68.8002 25.3599 68.3402 25.9599 67.1002 25.9599C66.0402 25.9599 65.3702 25.4799 65.3202 24.4199C65.2202 22.4199 67.6902 22.1299 69.4902 21.9399V24.9399L69.4802 24.9599ZM64.3202 18.1801V19.5C64.9002 19.14 64.8902 18.71 65.5902 18.29C67.6502 17.05 70.3602 18.92 69.3802 20.83C69.0702 21.28 69.4702 21.0398 68.7502 21.2798L65.7502 21.8999C62.4602 22.8199 62.9302 26.5698 65.5402 27.0298C66.2098 27.1195 66.8908 27.069 67.5399 26.8813C68.1889 26.6937 68.7918 26.3732 69.3102 25.9399C69.8002 26.3899 69.6702 26.94 70.5202 27.06C71.1402 27.17 71.9702 27.0602 72.1502 26.4902L71.1502 26.2402C70.7402 24.0602 71.4502 19.8502 70.4702 18.2402C70.1204 17.7731 69.6526 17.4073 69.1149 17.1806C68.5772 16.9539 67.9889 16.8745 67.4102 16.9502C66.2769 17.0343 65.1973 17.4673 64.3202 18.1899V18.1801Z" fill="white"/>
<path fill-rule="evenodd" clip-rule="evenodd" d="M85.129 21.3499L84.969 26.89H86.799C86.6694 25.25 86.636 23.6037 86.699 21.9598C87.399 22.1998 90.589 26.0798 90.929 26.9598H93.339C92.619 26.0198 91.739 25.2098 90.949 24.2298C90.339 23.4598 88.769 22.0998 88.489 21.2298L92.869 17.3499C91.809 17.3499 91.329 17.0899 90.749 17.8099C90.319 18.3499 89.949 18.7098 89.559 19.1898C88.949 19.9498 87.929 21.3696 86.659 21.5296L86.779 17.3197H84.959L85.129 21.3499Z" fill="white"/>
<path fill-rule="evenodd" clip-rule="evenodd" d="M128.629 25.0896C127.429 25.7996 126.509 27.0895 124.259 26.0295C123.561 25.6345 122.992 25.0481 122.618 24.3391C122.244 23.6301 122.081 22.8283 122.149 22.0295C122.086 21.2493 122.234 20.4666 122.577 19.7629C122.92 19.0593 123.445 18.4605 124.099 18.0295C126.099 17.0295 127.349 18.39 128.249 19.22C128.591 18.7848 128.787 18.2529 128.809 17.7C126.709 17.14 125.139 16.3496 122.809 17.5896C118.239 20.0096 120.209 28.4497 126.669 26.9397C127.919 26.6697 128.499 26.5296 128.629 25.0896Z" fill="white"/>
<path fill-rule="evenodd" clip-rule="evenodd" d="M138.34 25.18C137.83 25.24 137.97 25.2797 137.54 25.6497C135.44 27.4797 131.87 25.8598 131.87 22.0399C131.87 18.8799 133.97 17.04 136.32 17.93C137.44 18.34 137.39 18.9298 138.08 19.2698L138.58 17.7899C134.3 15.9799 129.73 17.6098 130.06 22.4998C130.3 26.0798 133.35 27.66 136.44 26.95C137.77 26.66 138.22 26.47 138.34 25.18Z" fill="white"/>
</g>
<defs>
<filter id="filter0_d_88_1395" x="0.4375" y="0.447754" width="163.603" height="46.905" filterUnits="userSpaceOnUse" color-interpolation-filters="sRGB">
<feFlood flood-opacity="0" result="BackgroundImageFix"/>
<feColorMatrix in="SourceAlpha" type="matrix" values="0 0 0 0 0 0 0 0 0 0 0 0 0 0 0 0 0 0 127 0" result="hardAlpha"/>
<feOffset dy="4"/>
<feGaussianBlur stdDeviation="2"/>
<feComposite in2="hardAlpha" operator="out"/>
<feColorMatrix type="matrix" values="0 0 0 0 0 0 0 0 0 0 0 0 0 0 0 0 0 0 0.25 0"/>
<feBlend mode="normal" in2="BackgroundImageFix" result="effect1_dropShadow_88_1395"/>
<feBlend mode="normal" in="SourceGraphic" in2="effect1_dropShadow_88_1395" result="shape"/>
</filter>
</defs>
</svg>
