<svg width="97" height="37" viewBox="0 0 97 37" fill="none" xmlns="http://www.w3.org/2000/svg">
<path fill-rule="evenodd" clip-rule="evenodd" d="M28.7404 0.489746L37.4765 2.19161L30.9094 36.0196L22.1729 34.3177L28.7404 0.489746ZM27.7408 25.678C27.1477 25.678 26.5677 25.8542 26.0745 26.1842C25.5814 26.5142 25.197 26.9833 24.97 27.532C24.7431 28.0808 24.684 28.6847 24.7997 29.2673C24.9154 29.8499 25.2008 30.3851 25.6201 30.8051C26.0395 31.2252 26.5739 31.5112 27.1556 31.6271C27.7373 31.743 28.3404 31.6834 28.8883 31.4561C29.4363 31.2288 29.9044 30.8438 30.2339 30.3499C30.5634 29.856 30.7396 29.2754 30.7396 28.6814C30.7396 27.8866 30.4247 27.1242 29.8645 26.5612C29.3042 25.9983 28.5442 25.6807 27.7506 25.678H27.7408Z" fill="#E73422"/>
<path fill-rule="evenodd" clip-rule="evenodd" d="M18.0646 0.489746L26.8012 2.19161L20.2336 36.0196L11.4976 34.3177L18.0646 0.489746ZM17.0651 25.678C16.472 25.678 15.8924 25.8542 15.3992 26.1842C14.9061 26.5142 14.5217 26.9833 14.2947 27.532C14.0678 28.0808 14.0082 28.6847 14.1239 29.2673C14.2396 29.8499 14.5255 30.3851 14.9448 30.8051C15.3642 31.2252 15.8981 31.5112 16.4798 31.6271C17.0615 31.743 17.6646 31.6834 18.2125 31.4561C18.7605 31.2288 19.2291 30.8438 19.5586 30.3499C19.8881 29.856 20.0638 29.2754 20.0638 28.6814C20.0638 27.8849 19.7476 27.1209 19.1853 26.5577C18.6229 25.9944 17.8604 25.678 17.0651 25.678Z" fill="#0060A8"/>
<path fill-rule="evenodd" clip-rule="evenodd" d="M7.49972 0.659912L15.9459 2.30177L9.43885 35.8394L0.992188 34.1975L7.49972 0.659912ZM6.38983 26.1184C5.80701 26.1175 5.24196 26.3191 4.79089 26.6887C4.33983 27.0584 4.03076 27.5732 3.91626 28.1456C3.80175 28.7179 3.88918 29.3124 4.16322 29.8275C4.43727 30.3427 4.88088 30.7467 5.41905 30.9708C5.95721 31.1949 6.55669 31.2251 7.11463 31.0563C7.67256 30.8876 8.15443 30.5304 8.4788 30.0454C8.80317 29.5605 8.94965 28.9778 8.89318 28.3968C8.83671 27.8159 8.58103 27.2724 8.16936 26.8592C7.93617 26.6244 7.65865 26.4381 7.3533 26.311C7.04795 26.1839 6.72052 26.1184 6.38983 26.1184Z" fill="white" stroke="#0060A8" stroke-width="0.75" stroke-miterlimit="22.9256"/>
<path fill-rule="evenodd" clip-rule="evenodd" d="M54.0496 32.1248V34.918H54.3493V36.2195H53.7899V35.4886H51.6804V36.2195H51.0508V34.918H51.3305V34.8179C51.4505 34.5303 51.5279 34.2268 51.5604 33.9168C51.607 33.4846 51.6307 33.0501 51.6307 32.6153V32.1148L54.0496 32.1248ZM84.2371 32.0648C84.4565 32.0545 84.6751 32.0901 84.8799 32.1694C85.0847 32.2487 85.2712 32.3699 85.4266 32.5253C85.7128 32.889 85.8683 33.3386 85.8683 33.8017C85.8683 34.2648 85.7128 34.7145 85.4266 35.0782C85.2731 35.2333 85.0885 35.3544 84.8853 35.4337C84.6821 35.513 84.4647 35.5488 84.2469 35.5387C84.0276 35.5489 83.8084 35.5133 83.6036 35.4341C83.3988 35.3548 83.2129 35.2335 83.0575 35.0782C82.9044 34.9076 82.7869 34.7081 82.7114 34.4916C82.6359 34.275 82.604 34.0457 82.6177 33.8168C82.6081 33.5225 82.659 33.2294 82.7675 32.9558C82.8429 32.7852 82.9479 32.6292 83.0775 32.4952C83.1989 32.3669 83.3453 32.2648 83.5075 32.1949C83.7362 32.1038 83.9807 32.0595 84.2269 32.0648H84.2371ZM78.2396 32.0648C78.6074 32.0476 78.9669 32.1772 79.2392 32.4252C79.3883 32.5727 79.498 32.7551 79.5589 32.9558V33.0459L78.8893 33.2061V33.146C78.8507 33.0081 78.7704 32.8857 78.6594 32.7956C78.5284 32.6932 78.3657 32.64 78.1996 32.6454C78.0842 32.641 77.969 32.6631 77.8633 32.7099C77.7577 32.7568 77.6639 32.8272 77.5895 32.9157C77.4126 33.1698 77.3312 33.4783 77.3596 33.7867C77.3302 34.1078 77.4113 34.4293 77.5895 34.6978C77.6619 34.7861 77.7539 34.8564 77.858 34.9033C77.962 34.9502 78.0754 34.9724 78.1894 34.9681C78.3584 34.9706 78.5223 34.9099 78.6491 34.7978C78.7796 34.6697 78.8702 34.5062 78.9093 34.3273V34.2572L79.5687 34.4675V34.5476C79.496 34.85 79.3188 35.1166 79.0679 35.3C78.8171 35.4834 78.5093 35.5716 78.1996 35.5487C77.9941 35.555 77.7894 35.5172 77.5998 35.4377C77.4101 35.3583 77.2398 35.2392 77.1 35.0882C76.7989 34.7434 76.6444 34.2942 76.67 33.8368C76.6397 33.3636 76.794 32.8971 77.1 32.5353C77.2459 32.3812 77.4232 32.2603 77.6198 32.1809C77.8164 32.1014 78.0279 32.0653 78.2396 32.0748V32.0648ZM61.7363 32.1248V33.4463H63.0658V32.1248H63.7457V35.4886H63.0658V34.037H61.7363V35.5086H61.0564V32.1448L61.7363 32.1248ZM87.5156 32.1248H87.5956C87.8399 32.1162 88.0844 32.133 88.3253 32.1749C88.518 32.2273 88.6872 32.3437 88.8051 32.5052C88.942 32.6934 89.0091 32.9236 88.9949 33.156C89.0013 33.3359 88.9637 33.5147 88.8851 33.6766C88.8165 33.8085 88.717 33.9219 88.5952 34.0069C88.49 34.0825 88.3711 34.1369 88.2452 34.1671C88.0457 34.1844 87.8449 34.1844 87.6454 34.1671H87.0358V35.4386H86.3559V32.0748L87.5156 32.1248ZM65.125 32.1248V33.4664H66.1246C66.3055 33.4704 66.4842 33.5042 66.6542 33.5665C66.8307 33.6351 66.9813 33.7577 67.0842 33.9168C67.1992 34.0882 67.2585 34.291 67.254 34.4975C67.2577 34.7084 67.1945 34.9152 67.0739 35.0882C66.9773 35.2365 66.8379 35.3517 66.6742 35.4185C66.4962 35.4739 66.3109 35.5009 66.1246 35.4986H64.4451V32.1348L65.125 32.1248ZM93.5531 32.1248V34.3573L94.9124 32.1248H95.5923V35.4886H94.9626V33.2962L93.6028 35.4886H92.9234V32.1248H93.5531ZM68.3136 32.1248V35.4886H67.6337V32.1248H68.3136ZM50.8707 32.1248V32.6955H49.0614V33.4363H50.7409V34.0069H49.0614V34.918H50.941V35.4886H48.3918V32.1248H50.8707ZM69.5729 32.1248L70.243 33.2061L70.9024 32.1248H71.6921L70.6925 33.7566L71.8419 35.4886H71.0225L70.283 34.3273L69.5333 35.4886H68.7236L69.873 33.7366L68.8734 32.1248H69.5729ZM46.3526 32.1248H46.4326C46.6769 32.1162 46.9215 32.133 47.1623 32.1749C47.3551 32.2273 47.5242 32.3437 47.6421 32.5052C47.779 32.6934 47.8461 32.9236 47.832 33.156C47.8388 33.3359 47.8011 33.5148 47.7221 33.6766C47.6564 33.8074 47.5607 33.9206 47.4425 34.0069C47.3373 34.0825 47.2184 34.1369 47.0925 34.1671C46.893 34.1844 46.6922 34.1844 46.4927 34.1671H45.9529V35.4386H45.2735V32.0748L46.3526 32.1248ZM74.071 32.1248V34.3573L75.4308 32.1248H76.1102V35.4886H75.4805V33.2962L74.1213 35.4886H73.4414V32.1248H74.071ZM55.4792 32.1248V34.3573L56.8384 32.1248H57.5183V35.4886H56.8882V33.2962L55.5289 35.4886H54.849V32.1248H55.4792ZM44.8532 32.1248V32.6254H44.7034C44.6174 32.6236 44.5322 32.6407 44.4535 32.6755C44.3855 32.7119 44.3302 32.7676 44.2939 32.8357C44.224 32.9748 44.1637 33.1186 44.1138 33.2661C44.0805 33.3671 44.0371 33.4644 43.984 33.5565C43.9171 33.6505 43.8275 33.7262 43.7238 33.7767C43.8725 33.8201 44.0026 33.9116 44.0938 34.037C44.1998 34.1824 44.2932 34.3364 44.3734 34.4975V34.5876L44.8332 35.5086H44.0337L43.634 34.6376V34.5776L43.554 34.4174C43.5041 34.3016 43.4329 34.1963 43.3441 34.107C43.281 34.0679 43.2084 34.0471 43.1342 34.047V35.5186H42.4543V32.1549H43.1342V33.5865H43.184C43.2774 33.5795 43.3656 33.5405 43.4339 33.4763C43.5379 33.3135 43.6218 33.1388 43.6838 32.9558C43.7552 32.6931 43.901 32.4566 44.1035 32.275C44.3145 32.1718 44.5493 32.1269 44.7834 32.1448L44.8532 32.1248ZM60.6269 32.1248V32.6955H59.6273V35.4886H58.9474V32.6955H57.9478V32.1248H60.6269ZM82.4776 32.1248V32.6955H81.478V35.4886H80.7981V32.6955H79.7986V32.1248H82.4776ZM90.1946 32.1248V34.3573L91.5539 32.1248H92.2338V35.4886H91.6037V33.2962L90.2444 35.4886H89.5645V32.1248H90.1946ZM84.2869 32.6454C84.1592 32.6401 84.0321 32.6635 83.9145 32.7137C83.7969 32.7639 83.6916 32.8398 83.607 32.9358C83.4377 33.1927 83.3474 33.4938 83.3474 33.8017C83.3474 34.1096 83.4377 34.4107 83.607 34.6677C83.6921 34.7589 83.7953 34.8317 83.9096 34.8814C84.024 34.9312 84.1471 34.9568 84.2718 34.9568C84.3965 34.9568 84.5201 34.9312 84.6344 34.8814C84.7488 34.8317 84.8515 34.7589 84.9366 34.6677C85.1289 34.4163 85.2218 34.1024 85.1967 33.7867C85.2215 33.4787 85.1326 33.1724 84.9468 32.9257C84.8623 32.8329 84.7584 32.7597 84.6427 32.7113C84.527 32.6628 84.4025 32.6404 84.2772 32.6454H84.2869ZM65.8244 34.027H65.045V34.918H65.7049C65.8511 34.9333 65.9984 34.9333 66.1446 34.918C66.2306 34.8952 66.3072 34.8462 66.3642 34.7778C66.4308 34.7038 66.4666 34.607 66.4643 34.5075C66.4694 34.4417 66.4572 34.3758 66.4292 34.3161C66.4011 34.2564 66.358 34.2051 66.3042 34.1671C66.1284 34.0775 65.9311 34.0394 65.7346 34.057L65.8244 34.027ZM53.4297 32.6855H52.4301V32.8156C52.45 33.4919 52.3657 34.1673 52.1802 34.8179V34.8879H53.46V32.6554L53.4297 32.6855ZM87.4155 32.6855H87.0358V33.6866H87.4057C87.5872 33.6981 87.7693 33.6812 87.9455 33.6365C88.0302 33.6059 88.1035 33.5499 88.1554 33.4763C88.2083 33.3999 88.2363 33.3091 88.2355 33.2161C88.2387 33.1056 88.199 32.998 88.1252 32.9157C88.0547 32.8366 87.9595 32.7837 87.8553 32.7655C87.6922 32.7532 87.5287 32.7532 87.3657 32.7655L87.4155 32.6855ZM46.253 32.6855H45.9231V33.6866H46.2931C46.4745 33.6981 46.6561 33.6812 46.8324 33.6365C46.9171 33.6059 46.9908 33.5499 47.0427 33.4763C47.0956 33.3999 47.1231 33.3091 47.1223 33.2161C47.1255 33.1056 47.0863 32.998 47.0125 32.9157C46.942 32.8366 46.8469 32.7837 46.7426 32.7655C46.5795 32.7532 46.4161 32.7532 46.253 32.7655V32.6855ZM93.843 31.2839C93.8547 31.3616 93.8935 31.4325 93.9528 31.4841C94.0379 31.5384 94.1369 31.5674 94.2378 31.5674C94.3388 31.5674 94.4378 31.5384 94.5229 31.4841C94.5821 31.4325 94.621 31.3616 94.6327 31.2839H94.9426V31.3539C94.922 31.5266 94.8387 31.6858 94.7088 31.8013C94.579 31.9168 94.4115 31.9806 94.2378 31.9806C94.0642 31.9806 93.8962 31.9168 93.7664 31.8013C93.6365 31.6858 93.5536 31.5266 93.5331 31.3539V31.2839H93.843ZM90.3942 7.25693C91.3039 7.241 92.2057 7.42919 93.0333 7.8076C93.8052 8.1706 94.4571 8.74716 94.9124 9.46937C95.3832 10.1945 95.6746 11.0216 95.7621 11.8821C95.8554 12.7498 95.9022 14.2715 95.9022 16.4473V20.2415C95.9022 22.2437 95.859 23.6854 95.7724 24.5664C95.694 25.4228 95.4166 26.249 94.9626 26.979C94.515 27.7015 93.8744 28.2842 93.1133 28.661C92.2688 29.067 91.3411 29.2693 90.4045 29.2516C89.4949 29.2675 88.5931 29.0794 87.7654 28.701C86.9938 28.3376 86.342 27.761 85.8864 27.0391C85.4155 26.3141 85.1241 25.4869 85.0366 24.6264C84.95 23.7988 84.9032 22.3772 84.8965 20.3616V16.4572C84.8965 14.3348 84.9402 12.8331 85.0268 11.9521C85.1052 11.0957 85.3821 10.2695 85.8361 9.53952C86.2837 8.81702 86.9243 8.23436 87.6854 7.85758C88.5299 7.45151 89.4576 7.24925 90.3942 7.26695V7.25693ZM59.3472 7.68747V15.2459H60.6469V15.0657C60.6317 13.7968 60.7116 12.5284 60.8866 11.2714C61.0099 10.5302 61.335 9.83734 61.8261 9.2692C62.3066 8.72703 62.925 8.32563 63.6154 8.10786C64.4356 7.86368 65.2891 7.74888 66.1446 7.76751C67.0319 7.74764 67.9166 7.87275 68.7636 8.13793C69.4727 8.37495 70.0976 8.81319 70.5627 9.39935C71.0685 10.0655 71.3798 10.8592 71.4622 11.692C71.6171 13.2821 71.6805 14.8798 71.6521 16.4772V20.2515C71.6781 21.792 71.6183 23.3328 71.4725 24.8667C71.3865 25.6986 71.0751 26.4913 70.5724 27.1593C70.1033 27.7612 69.4722 28.2162 68.7534 28.4707C67.9138 28.756 67.0309 28.8916 66.1446 28.8711C65.3148 28.8867 64.4877 28.7684 63.6954 28.5208C63.0225 28.3048 62.4168 27.9186 61.9364 27.3995C61.4937 26.9353 61.1739 26.3674 61.0066 25.7476C60.8395 25.0279 60.7424 24.2937 60.7167 23.5552C60.6767 22.7477 60.6536 21.6965 60.6469 20.4017V19.9711H59.3472V28.8312H54.5791V7.72743L59.3472 7.68747ZM78.1996 7.68747H78.3592C79.3144 7.66121 80.2681 7.77931 81.1881 8.03784C81.797 8.21223 82.3425 8.56003 82.7578 9.03896C83.1207 9.51105 83.3641 10.064 83.4674 10.6508C83.6171 11.6176 83.6806 12.5959 83.6573 13.5741V15.5763C83.6952 16.521 83.5732 17.4653 83.2971 18.3694C83.0491 18.9944 82.5746 19.5023 81.9681 19.791C81.1752 20.151 80.3086 20.319 79.4389 20.2816H78.1596V28.7811H73.4013V7.68747H78.1996ZM51.1309 7.68747V11.3515H46.5825V14.9256H47.4825C48.5469 14.8995 49.6105 15.0002 50.6511 15.2258C51.0101 15.3137 51.3463 15.4771 51.6375 15.7049C51.9287 15.9327 52.1683 16.2199 52.3403 16.5474C52.7767 17.5596 52.9686 18.6606 52.9002 19.761V24.0257C52.9602 25.1294 52.7791 26.2328 52.3701 27.2594C52.2158 27.5818 51.9912 27.8652 51.7127 28.0888C51.4341 28.3123 51.1087 28.4703 50.7609 28.5508C49.6272 28.7599 48.4746 28.8471 47.3224 28.8111H41.8247V7.70739L51.1309 7.68747ZM90.4142 10.8309C90.2981 10.8279 90.1834 10.8573 90.0828 10.9156C89.9823 10.9739 89.9 11.059 89.8447 11.1613C89.6525 11.8102 89.5845 12.4895 89.6445 13.1636V23.1748C89.6145 23.8915 89.6585 24.6094 89.7749 25.3172C89.8076 25.4486 89.8856 25.5639 89.9955 25.6428C90.1053 25.7217 90.2395 25.7588 90.3742 25.7476C90.5193 25.7549 90.6624 25.7092 90.7764 25.619C90.8904 25.5287 90.9676 25.4002 90.9941 25.2571C91.1183 24.4761 91.1653 23.6847 91.1342 22.8945V13.0134C91.1619 12.4225 91.1148 11.8305 90.9941 11.2514C90.9597 11.1264 90.8831 11.0172 90.7774 10.9423C90.6717 10.8675 90.5434 10.8316 90.4142 10.8409V10.8309ZM66.1446 10.8309C66.0203 10.8249 65.8968 10.8585 65.7927 10.9268C65.6886 10.9952 65.6089 11.0947 65.5648 11.2113C65.4102 11.843 65.353 12.4946 65.3949 13.1435V24.0859C65.3859 24.4738 65.4295 24.861 65.5248 25.2371C65.5552 25.3685 65.6311 25.4848 65.739 25.5654C65.847 25.6461 65.9799 25.6859 66.1143 25.6776C66.2356 25.681 66.3554 25.6486 66.4584 25.5845C66.5615 25.5204 66.6434 25.4275 66.6942 25.3172C66.8621 24.7632 66.9265 24.1827 66.884 23.6052V13.0134C66.9 12.4435 66.8602 11.8735 66.7645 11.3115C66.7399 11.1656 66.6614 11.0342 66.5448 10.9433C66.4282 10.8525 66.2816 10.8089 66.1344 10.821L66.1446 10.8309ZM46.5825 18.2392V25.167C47.0107 25.2119 47.4419 25.1171 47.8119 24.8967C48.0252 24.7165 48.1321 24.1592 48.1321 23.2248V20.0714C48.187 19.556 48.1078 19.0352 47.9022 18.5597C47.749 18.3661 47.3088 18.2559 46.5825 18.2292V18.2392ZM78.1694 11.3216V16.6876H78.5193C78.6899 16.7094 78.8632 16.6868 79.0225 16.6219C79.1819 16.557 79.3221 16.4521 79.4291 16.3171C79.6436 15.8334 79.7296 15.3023 79.679 14.7754V12.9434C79.7245 12.4896 79.6228 12.0332 79.3891 11.6419C79.042 11.375 78.6035 11.2563 78.1694 11.3115V11.3216ZM51.7707 0.839698V4.00328H53.2301V0.889803H53.9798V4.00328H54.2897V5.44484H53.6596V4.62397H51.001V0.879782L51.7707 0.839698ZM61.8461 0.779694C62.0894 0.768103 62.3325 0.807504 62.5597 0.895425C62.7869 0.983345 62.9936 1.11786 63.1659 1.29028C63.4853 1.69506 63.6588 2.19584 63.6588 2.71179C63.6588 3.22774 63.4853 3.72865 63.1659 4.13343C62.9939 4.30636 62.7875 4.44118 62.5602 4.52914C62.3329 4.6171 62.0895 4.65623 61.8461 4.64402C61.6012 4.6564 61.3566 4.61731 61.1277 4.52938C60.8987 4.44146 60.6909 4.30663 60.5171 4.13343C60.3472 3.94371 60.216 3.72224 60.132 3.4817C60.0479 3.24116 60.0124 2.98626 60.0271 2.73184C60.0112 2.38978 60.0691 2.04831 60.1969 1.73071C60.2823 1.54107 60.4009 1.36817 60.5469 1.22013C60.6821 1.07524 60.8453 0.959466 61.0266 0.879782C61.2837 0.77564 61.5591 0.724538 61.8364 0.729589L61.8461 0.779694ZM89.5645 0.779694C89.8077 0.768719 90.0509 0.808394 90.2781 0.89628C90.5052 0.984166 90.7116 1.11836 90.8843 1.29028C91.2037 1.69506 91.3772 2.19584 91.3772 2.71179C91.3772 3.22774 91.2037 3.72865 90.8843 4.13343C90.5194 4.45443 90.0501 4.63143 89.5645 4.63143C89.0789 4.63143 88.6101 4.45443 88.2452 4.13343C88.0753 3.94371 87.9447 3.72224 87.8606 3.4817C87.7766 3.24116 87.741 2.98626 87.7557 2.73184C87.7398 2.38978 87.7977 2.04831 87.9255 1.73071C88.0111 1.54117 88.1297 1.3683 88.2755 1.22013C88.4105 1.07503 88.5738 0.95922 88.7553 0.879782C89.0123 0.77564 89.2873 0.724538 89.5645 0.729589V0.779694ZM77.1698 0.839698V4.58389H76.4201V1.47041H75.3004V3.16237C75.3205 3.44901 75.3205 3.73669 75.3004 4.02332C75.279 4.1851 75.2014 4.33398 75.0808 4.44372C74.9206 4.55643 74.7264 4.60957 74.5312 4.59391H74.1213H74.0412V4.00328H74.2711C74.3617 4.00883 74.4522 3.9879 74.5312 3.94316C74.5612 3.90731 74.5834 3.8659 74.5971 3.82119C74.6109 3.77649 74.6155 3.72951 74.6108 3.68298V0.849719L77.1698 0.839698ZM56.3387 0.839698V3.33248L57.8478 0.839698H58.5975V4.58389H57.8878V2.14121L56.3787 4.58389H55.629V0.839698H56.3387ZM95.5522 0.839698V1.47041H93.5531V2.30142H95.4322V2.93213H93.5531V3.93326H95.642V4.56397H92.8034V0.819656L95.5522 0.839698ZM84.0868 0.839698V2.31144H85.5662V0.839698H86.3159V4.58389H85.5662V2.95205H84.037V4.58389H83.2873V0.839698H84.0868ZM79.5389 0.839698V2.33136H80.6385C80.9862 2.31167 81.3273 2.4305 81.5879 2.66181C81.6913 2.76755 81.7731 2.89268 81.828 3.03014C81.8829 3.16761 81.9102 3.3146 81.908 3.46264C81.916 3.69433 81.8495 3.92248 81.7182 4.11339C81.6095 4.27361 81.4567 4.39879 81.2784 4.47378C81.0749 4.53851 80.8618 4.56904 80.6483 4.56397H78.7892V0.819656L79.5389 0.839698ZM71.5423 0.839698L73.0416 4.58389H72.2221L71.8922 3.73296H70.4026L70.0927 4.58389H69.2932L70.7525 0.839698H71.5423ZM65.8444 0.839698V2.31144H67.3238V0.839698H68.0735V4.58389H67.3238V2.95205H65.8444V4.58389H65.045V0.839698H65.8444ZM48.3117 0.839698L49.8111 4.58389H48.9916L48.6617 3.73296H47.0525L46.7426 4.58389H45.9431L47.4025 0.839698H48.3117ZM42.6144 0.839698V2.31144H44.0538V0.839698H44.8034V4.58389H44.0538V2.95205H42.5744V4.58389H41.8247V0.839698H42.6144ZM89.5948 1.42043C89.4543 1.41808 89.3149 1.4454 89.1858 1.5006C89.0566 1.55579 88.9406 1.63759 88.8451 1.74073C88.6559 2.02732 88.5552 2.36324 88.5552 2.70678C88.5552 3.05032 88.6559 3.38637 88.8451 3.67295C88.9388 3.77782 89.0535 3.86165 89.1818 3.91908C89.3102 3.97651 89.4493 4.00621 89.5899 4.00621C89.7304 4.00621 89.8691 3.97651 89.9974 3.91908C90.1257 3.86165 90.2404 3.77782 90.3342 3.67295C90.553 3.38759 90.6565 3.03017 90.6241 2.67183C90.6614 2.31461 90.5615 1.9566 90.3444 1.67071C90.249 1.56756 90.1329 1.48565 90.0038 1.43045C89.8746 1.37525 89.7352 1.34794 89.5948 1.35028V1.42043ZM61.8764 1.42043C61.736 1.41808 61.5965 1.4454 61.4674 1.5006C61.3382 1.55579 61.2222 1.63759 61.1267 1.74073C60.9375 2.02732 60.8368 2.36324 60.8368 2.70678C60.8368 3.05032 60.9375 3.38637 61.1267 3.67295C61.2204 3.77782 61.3351 3.86165 61.4635 3.91908C61.5918 3.97651 61.7309 4.00621 61.8715 4.00621C62.012 4.00621 62.1507 3.97651 62.279 3.91908C62.4074 3.86165 62.5221 3.77782 62.6158 3.67295C62.8346 3.38759 62.9382 3.03017 62.9057 2.67183C62.943 2.31461 62.8431 1.9566 62.6261 1.67071C62.5306 1.56756 62.4146 1.48565 62.2854 1.43045C62.1562 1.37525 62.0168 1.34794 61.8764 1.35028V1.42043ZM80.3286 2.96207H79.5589V3.9632H80.2886C80.4514 3.97993 80.6158 3.97993 80.7786 3.9632C80.8767 3.93759 80.9642 3.8816 81.0285 3.80311C81.1015 3.72033 81.1406 3.61309 81.1383 3.50272C81.1444 3.42907 81.1309 3.35516 81.0993 3.28837C81.0677 3.22158 81.019 3.16427 80.9582 3.12229C80.7628 3.02671 80.5455 2.98524 80.3286 3.00216V2.96207ZM47.912 1.71067L47.4122 3.10225H48.4118L47.892 1.71067H47.912ZM71.1425 1.71067L70.6427 3.10225H71.6423L71.1425 1.71067Z" fill="#0061A8"/>
</svg>
