<svg width="97" height="37" viewBox="0 0 97 37" fill="none" xmlns="http://www.w3.org/2000/svg">
<path fill-rule="evenodd" clip-rule="evenodd" d="M29.1814 0.839844L37.9214 2.54004L31.3513 36.3301L22.6113 34.6299L29.1814 0.839844ZM28.1814 26C27.5881 26 27.008 26.1757 26.5146 26.5054C26.0213 26.835 25.6367 27.3039 25.4097 27.8521C25.1826 28.4002 25.1233 29.0035 25.239 29.5854C25.3548 30.1674 25.6405 30.702 26.0601 31.1216C26.4796 31.5411 27.0141 31.8266 27.5961 31.9424C28.178 32.0581 28.7812 31.9985 29.3293 31.7715C29.8775 31.5444 30.3461 31.1599 30.6758 30.6665C31.0054 30.1732 31.1814 29.5933 31.1814 29C31.1814 28.2061 30.8666 27.4446 30.3062 26.8823C29.7457 26.32 28.9852 26.0026 28.1913 26H28.1814Z" fill="#4B5970"/>
<path fill-rule="evenodd" clip-rule="evenodd" d="M18.5016 0.839844L27.2416 2.54004L20.6716 36.3301L11.9316 34.6299L18.5016 0.839844ZM17.5016 26C16.9082 26 16.3282 26.1757 15.8348 26.5054C15.3415 26.835 14.957 27.3039 14.73 27.8521C14.5029 28.4002 14.4434 29.0035 14.5592 29.5854C14.675 30.1674 14.9607 30.702 15.3802 31.1216C15.7998 31.5411 16.3343 31.8266 16.9163 31.9424C17.4982 32.0581 18.1015 31.9985 18.6497 31.7715C19.1978 31.5444 19.6663 31.1599 19.996 30.6665C20.3256 30.1732 20.5016 29.5933 20.5016 29C20.5016 28.2061 20.1869 27.4446 19.6265 26.8823C19.066 26.32 18.3055 26.0026 17.5116 26H17.5016Z" fill="#7E8AA0"/>
<path fill-rule="evenodd" clip-rule="evenodd" d="M7.93188 1.01025L16.3818 2.6499L9.87183 36.1499L1.42188 34.5103L7.93188 1.01025ZM6.82178 26.4399C6.23871 26.4391 5.67342 26.6405 5.22217 27.0098C4.77091 27.379 4.46172 27.8931 4.34717 28.4648C4.23261 29.0365 4.31983 29.6304 4.59399 30.145C4.86815 30.6596 5.31219 31.0633 5.85059 31.2871C6.38898 31.5109 6.98834 31.5411 7.54651 31.3726C8.10467 31.204 8.58712 30.8467 8.91162 30.3623C9.23613 29.8779 9.38267 29.2961 9.32617 28.7158C9.26968 28.1355 9.01365 27.5929 8.60181 27.1802C8.36852 26.9456 8.09112 26.7593 7.78564 26.6323C7.48017 26.5053 7.1526 26.4399 6.82178 26.4399Z" fill="#94A1B9" stroke="#4B5970" stroke-width="0.75" stroke-miterlimit="22.9256"/>
<path fill-rule="evenodd" clip-rule="evenodd" d="M54.4622 32.4398V35.2699H54.7622V36.5697H54.2021V35.8397H52.0922V36.5697H51.5322V35.2699H51.8123V35.1698C51.9322 34.8825 52.0096 34.5794 52.0422 34.2699C52.0889 33.8381 52.1122 33.4043 52.1122 32.9701V32.4701L54.4622 32.4398ZM84.6622 32.3797C84.8817 32.3695 85.1008 32.405 85.3057 32.4842C85.5106 32.5634 85.6967 32.6845 85.8522 32.8397C86.1385 33.203 86.2942 33.6525 86.2942 34.1151C86.2942 34.5777 86.1385 35.0267 85.8522 35.39C85.5281 35.6851 85.1056 35.8485 84.6672 35.8485C84.2289 35.8485 83.8063 35.6851 83.4822 35.39C83.3291 35.2196 83.2113 35.0204 83.1357 34.8041C83.0602 34.5878 83.0285 34.3584 83.0422 34.1297C83.0326 33.8358 83.0836 33.5432 83.1921 33.2699C83.2675 33.0995 83.3725 32.9438 83.5022 32.8099C83.6237 32.6817 83.77 32.5799 83.9323 32.5101C84.1611 32.419 84.4059 32.3744 84.6522 32.3797H84.6622ZM78.6622 32.3797C79.0301 32.3625 79.3897 32.4924 79.6622 32.7401C79.8113 32.8874 79.9212 33.0693 79.9822 33.2699V33.3597L79.3123 33.5199V33.4598C79.2737 33.3221 79.1932 33.1997 79.0822 33.1097C78.9511 33.0074 78.7884 32.9544 78.6222 32.9598C78.5067 32.9555 78.3917 32.9775 78.286 33.0243C78.1803 33.0711 78.0867 33.1414 78.0122 33.2298C77.8352 33.4836 77.7538 33.7919 77.7822 34.1C77.7527 34.4207 77.8339 34.7419 78.0122 35.0101C78.0846 35.0983 78.1764 35.1683 78.2805 35.2152C78.3846 35.262 78.4981 35.284 78.6122 35.2796C78.7813 35.2822 78.9453 35.2216 79.0721 35.1097C79.2027 34.9817 79.293 34.8186 79.3322 34.64V34.5697L79.9922 34.7796V34.8597C79.9195 35.1618 79.7418 35.4285 79.4908 35.6117C79.2399 35.7948 78.932 35.8826 78.6222 35.8597C78.4166 35.866 78.2121 35.8282 78.0223 35.7489C77.8326 35.6695 77.6621 35.5505 77.5222 35.3998C77.221 35.0553 77.0666 34.6066 77.0922 34.1498C77.0619 33.6771 77.2161 33.2113 77.5222 32.85C77.6682 32.6961 77.8456 32.5753 78.0422 32.4959C78.2389 32.4166 78.4503 32.3805 78.6622 32.39V32.3797ZM62.1522 32.4398V33.7601H63.4822V32.4398H64.1622V35.7997H63.4822V34.3299H62.1522V35.7997H61.4722V32.4398H62.1522ZM87.9421 32.4398H88.0222C88.2666 32.4312 88.5112 32.4482 88.7522 32.4901C88.945 32.5424 89.1143 32.6584 89.2322 32.8197C89.3692 33.0077 89.4364 33.2379 89.4222 33.4701C89.4286 33.6498 89.3909 33.8284 89.3123 33.9901C89.2437 34.1219 89.1441 34.2347 89.0222 34.3197C88.917 34.3952 88.7982 34.4497 88.6722 34.4798C88.4726 34.4971 88.2718 34.4971 88.0721 34.4798H87.5322V35.7499H86.8522V32.39L87.9421 32.4398ZM65.5422 32.4398V33.7796H66.5422C66.7232 33.7837 66.9022 33.8176 67.0721 33.8797C67.2487 33.9482 67.3993 34.0708 67.5022 34.2298C67.6173 34.401 67.6768 34.6037 67.6722 34.8099C67.6759 35.0206 67.6129 35.227 67.4922 35.3998C67.3955 35.5479 67.2559 35.6631 67.0922 35.7298C66.9142 35.7851 66.7286 35.8122 66.5422 35.8099H64.8622V32.45L65.5422 32.4398ZM93.9822 32.4398V34.6698L95.3422 32.4398H96.0222V35.7997H95.3922V33.6097L94.0322 35.7997H93.3522V32.4398H93.9822ZM68.7322 32.4398V35.7997H68.0022V32.4398H68.7322ZM51.2822 32.4398V33.0101H49.4722V33.7499H51.1522V34.3197H49.4722V35.2298H51.3522V35.7997H48.8022V32.4398H51.2822ZM69.9922 32.4398L70.6622 33.5199L71.3221 32.4398H72.1122L71.1122 34.0697L72.2622 35.7997H71.4421L70.7021 34.64L69.9521 35.7997H69.0022L70.1522 34.0497L69.1522 32.45L69.9922 32.4398ZM46.7622 32.4398H46.8422C47.0866 32.4312 47.3312 32.4482 47.5721 32.4901C47.765 32.5424 47.9343 32.6584 48.0522 32.8197C48.1892 33.0077 48.2564 33.2379 48.2422 33.4701C48.2486 33.6498 48.2108 33.8284 48.1322 33.9901C48.0664 34.1208 47.9704 34.2335 47.8522 34.3197C47.747 34.3952 47.6281 34.4497 47.5022 34.4798C47.3026 34.4971 47.1018 34.4971 46.9022 34.4798H46.3622V35.7499H45.6823V32.39L46.7622 32.4398ZM74.4922 32.4398V34.6698L75.8522 32.4398H76.5322V35.7997H75.9022V33.6097L74.5422 35.7997H73.8622V32.4398H74.4922ZM55.8922 32.4398V34.6698L57.2522 32.4398H57.9323V35.7997H57.3022V33.6097L55.9421 35.7997H55.2622V32.4398H55.8922ZM45.2622 32.4398V32.9398H45.1122C45.0262 32.938 44.9409 32.9554 44.8622 32.9901C44.7942 33.0264 44.7385 33.0818 44.7021 33.1498C44.6323 33.2887 44.5722 33.4326 44.5222 33.5799C44.4889 33.6808 44.4454 33.778 44.3922 33.87C44.3253 33.9639 44.2359 34.0392 44.1322 34.0897C44.2809 34.133 44.411 34.2247 44.5022 34.35C44.6082 34.4952 44.7019 34.649 44.7822 34.8099V34.8998L45.2422 35.8197H44.4421L44.0422 34.9501V34.89L43.9622 34.7298C43.9123 34.6142 43.8411 34.509 43.7522 34.4198C43.6891 34.3807 43.6164 34.3599 43.5422 34.3597V35.8299H42.8622V32.4701H43.5422V33.8998H43.5922C43.6856 33.8927 43.7739 33.8541 43.8422 33.7899C43.9462 33.6273 44.0301 33.4527 44.0922 33.2699C44.1636 33.0074 44.3096 32.7711 44.5122 32.5897C44.7233 32.4866 44.9579 32.4419 45.1921 32.4598L45.2622 32.4398ZM61.0422 32.4398V33.0101H60.0422V35.7997H59.3622V33.0101H58.3622V32.4398H61.0422ZM82.9022 32.4398V33.0101H81.9022V35.7997H81.2222V33.0101H80.2222V32.4398H82.9022ZM90.6222 32.4398V34.6698L91.9822 32.4398H92.6622V35.7997H92.0022V33.6097L90.6422 35.7997H89.9622V32.4398H90.6222ZM84.7122 32.9598C84.5844 32.9546 84.4571 32.978 84.3395 33.0282C84.2218 33.0783 84.1169 33.154 84.0322 33.2499C83.8628 33.5065 83.7725 33.8075 83.7725 34.1151C83.7725 34.4226 83.8628 34.7232 84.0322 34.9798C84.1174 35.071 84.2203 35.1435 84.3347 35.1932C84.4491 35.2429 84.5724 35.2689 84.6971 35.2689C84.8219 35.2689 84.9453 35.2429 85.0597 35.1932C85.1741 35.1435 85.277 35.071 85.3622 34.9798C85.5546 34.7287 85.6473 34.4153 85.6222 34.1C85.647 33.7923 85.558 33.4865 85.3722 33.2401C85.2877 33.1474 85.184 33.0741 85.0682 33.0257C84.9525 32.9774 84.8275 32.9548 84.7021 32.9598H84.7122ZM66.2422 34.3397H65.5522V35.2298H66.2122C66.3584 35.2452 66.506 35.2452 66.6522 35.2298C66.7383 35.2071 66.8151 35.158 66.8722 35.0897C66.9387 35.0157 66.9745 34.9191 66.9722 34.8197C66.9773 34.754 66.9652 34.6884 66.9371 34.6288C66.9091 34.5692 66.8661 34.5178 66.8123 34.4798C66.6364 34.3903 66.4387 34.3523 66.2422 34.37V34.3397ZM53.8422 32.9999H52.8422V33.1297C52.862 33.8053 52.7777 34.4799 52.5922 35.1297V35.2001H53.8722V32.9701L53.8422 32.9999ZM87.8422 32.9999H87.5122V33.9999H87.8822C88.0637 34.0113 88.2459 33.9947 88.4222 33.9501C88.507 33.9195 88.5802 33.8635 88.6322 33.7899C88.6851 33.7136 88.713 33.6225 88.7122 33.5296C88.7154 33.4192 88.676 33.312 88.6022 33.2298C88.5316 33.1508 88.4365 33.0981 88.3322 33.0799C88.1691 33.0676 88.0053 33.0676 87.8422 33.0799V32.9999ZM46.6622 32.9999H46.3322V33.9999H46.7021C46.8837 34.0113 47.0659 33.9947 47.2422 33.9501C47.3269 33.9195 47.4002 33.8635 47.4521 33.7899C47.505 33.7136 47.533 33.6225 47.5322 33.5296C47.5355 33.4192 47.4961 33.312 47.4222 33.2298C47.3517 33.1508 47.2565 33.0981 47.1522 33.0799C46.9891 33.0676 46.8253 33.0676 46.6622 33.0799V32.9999ZM94.2722 31.6C94.2839 31.6776 94.3229 31.7482 94.3822 31.7997C94.4673 31.854 94.5663 31.8832 94.6672 31.8832C94.7682 31.8832 94.867 31.854 94.9521 31.7997C95.0114 31.7482 95.0505 31.6776 95.0623 31.6H95.3722V31.6698C95.3516 31.8423 95.2685 32.0012 95.1385 32.1166C95.0086 32.2319 94.841 32.2958 94.6672 32.2958C94.4935 32.2958 94.3257 32.2319 94.1958 32.1166C94.0659 32.0012 93.9827 31.8423 93.9622 31.6698V31.6H94.2722ZM90.8221 7.59995C91.7322 7.58404 92.6342 7.77177 93.4622 8.14976C94.2344 8.51235 94.8867 9.08851 95.3422 9.80991C95.8132 10.5342 96.1046 11.3606 96.1921 12.2201C96.2855 13.0867 96.3322 14.6063 96.3322 16.7796V20.5697C96.3322 22.5697 96.2888 24.01 96.2021 24.89C96.1237 25.7455 95.8464 26.5705 95.3922 27.2997C94.9444 28.0213 94.3036 28.6035 93.5422 28.9798C92.6974 29.3854 91.7692 29.5874 90.8322 29.5697C89.9221 29.5856 89.0201 29.3979 88.1921 29.0199C87.4202 28.6568 86.7681 28.0808 86.3123 27.3597C85.8412 26.6354 85.5497 25.8096 85.4622 24.95C85.3755 24.1234 85.3288 22.7031 85.3221 20.6898V16.7899C85.3221 14.6699 85.3655 13.1699 85.4521 12.2899C85.5306 11.4344 85.808 10.6089 86.2622 9.87974C86.71 9.15805 87.3508 8.57641 88.1122 8.20005C88.957 7.79443 89.8851 7.59204 90.8221 7.60972V7.59995ZM59.7622 8.02964V15.5799H61.0623V15.3998C61.047 14.1322 61.1272 12.8652 61.3022 11.6097C61.4256 10.8693 61.7508 10.1772 62.2422 9.60972C62.7229 9.06816 63.3416 8.66757 64.0322 8.45005C64.8528 8.20614 65.7064 8.0911 66.5623 8.10972C67.4499 8.08987 68.3348 8.21496 69.1823 8.47983C69.8916 8.71659 70.5169 9.15458 70.9822 9.74009C71.4882 10.4055 71.7997 11.1978 71.8822 12.0296C72.0371 13.618 72.1005 15.2143 72.0721 16.8099V20.5799C72.0982 22.1188 72.0381 23.6577 71.8922 25.1898C71.8067 26.0209 71.4955 26.8129 70.9922 27.4798C70.5228 28.0811 69.8914 28.5357 69.1722 28.7899C68.3323 29.0749 67.449 29.2102 66.5623 29.1898C65.7321 29.2053 64.9048 29.087 64.1122 28.8397C63.439 28.6239 62.8328 28.2386 62.3522 27.7201C61.9093 27.2563 61.5896 26.6887 61.4222 26.0697C61.255 25.3508 61.1579 24.6174 61.1322 23.8797C61.0922 23.0731 61.0689 22.0232 61.0623 20.7298V20.2699H59.7622V29.12H55.0022V8.03989L59.7622 8.02964ZM78.6222 8.02964H78.7822C79.7378 8.00341 80.6918 8.1215 81.6122 8.37974C82.2213 8.55393 82.7668 8.90134 83.1823 9.37974C83.5449 9.8515 83.7885 10.4041 83.8922 10.9901C84.0418 11.9559 84.1054 12.933 84.0822 13.91V15.91C84.12 16.8536 83.9983 17.7969 83.7222 18.7C83.4741 19.3243 82.999 19.8316 82.3922 20.12C81.599 20.4795 80.7323 20.6471 79.8622 20.6097H78.5822V29.1H73.8221V8.02964H78.6222ZM51.5422 8.02964V11.6898H47.0022V15.2699H47.9022C48.967 15.2438 50.0311 15.3443 51.0721 15.5697C51.4313 15.6575 51.7677 15.8206 52.0591 16.0482C52.3504 16.2758 52.5901 16.5628 52.7622 16.89C53.1988 17.901 53.3906 19.0008 53.3221 20.1V24.3597C53.3822 25.4621 53.2014 26.5643 52.7922 27.5897C52.6379 27.9117 52.413 28.195 52.1343 28.4183C51.8556 28.6416 51.5302 28.7993 51.1823 28.8797C50.0481 29.0885 48.8948 29.1759 47.7422 29.14H42.2422V8.05991L51.5422 8.02964ZM90.8422 11.1698C90.726 11.1668 90.6112 11.196 90.5106 11.2542C90.41 11.3125 90.3275 11.3976 90.2722 11.4999C90.0803 12.148 90.0123 12.8265 90.0721 13.4999V23.4999C90.0421 24.2158 90.0856 24.933 90.2021 25.64C90.2349 25.7712 90.3133 25.8864 90.4232 25.9652C90.5331 26.044 90.6675 26.0808 90.8022 26.0697C90.9474 26.077 91.0902 26.0314 91.2042 25.9413C91.3183 25.8511 91.3958 25.7228 91.4222 25.5799C91.5465 24.7998 91.5934 24.0094 91.5623 23.2201V13.4198C91.5901 12.8296 91.543 12.2384 91.4222 11.66C91.3879 11.5351 91.3113 11.4257 91.2056 11.3509C91.0998 11.2762 90.9713 11.2406 90.8422 11.2499V11.1698ZM66.5623 11.1698C66.4378 11.1638 66.3146 11.1972 66.2104 11.2655C66.1063 11.3337 66.0264 11.4332 65.9822 11.5497C65.8277 12.1806 65.7705 12.8316 65.8123 13.4798V24.41C65.8032 24.7975 65.8468 25.1843 65.9421 25.5599C65.9726 25.6912 66.0486 25.8075 66.1566 25.888C66.2646 25.9686 66.3977 26.0081 66.5322 25.9999C66.6535 26.0032 66.7731 25.9711 66.8762 25.9071C66.9793 25.8431 67.0613 25.7502 67.1122 25.64C67.2802 25.0865 67.3447 24.5069 67.3022 23.93V13.3597C67.3182 12.7905 67.278 12.2214 67.1823 11.66C67.1577 11.5143 67.0793 11.3831 66.9626 11.2923C66.846 11.2016 66.6995 11.1577 66.5522 11.1698H66.5623ZM46.9922 18.5697V25.4901C47.4206 25.5349 47.8519 25.4402 48.2222 25.2201C48.4355 25.0401 48.5422 24.483 48.5422 23.5497V20.3998C48.5971 19.885 48.5179 19.365 48.3123 18.89C48.1589 18.6967 47.7189 18.5866 46.9922 18.5599V18.5697ZM78.5922 11.66V17.0199H78.9421C79.1128 17.0417 79.2864 17.0193 79.4458 16.9544C79.6052 16.8896 79.7451 16.7845 79.8522 16.6498C80.0667 16.1665 80.1528 15.636 80.1022 15.1097V13.2699C80.1477 12.8166 80.0461 12.361 79.8123 11.9701C79.465 11.7035 79.0264 11.5848 78.5922 11.64V11.66ZM52.1823 1.18979V4.26987H53.6422V1.16001H54.3922V4.26987H54.7021V5.70981H54.0721V4.88999H51.4122V1.14976L52.1823 1.18979ZM62.2622 1.12974C62.5056 1.11816 62.7488 1.15764 62.9761 1.24546C63.2034 1.33328 63.4098 1.46776 63.5822 1.63999C63.9017 2.04432 64.0756 2.54454 64.0756 3.05991C64.0756 3.57528 63.9017 4.07551 63.5822 4.47983C63.4101 4.65257 63.2038 4.78748 62.9764 4.87534C62.749 4.9632 62.5057 5.00229 62.2622 4.99009C62.0172 5.00246 61.7724 4.96317 61.5433 4.87534C61.3143 4.78751 61.1062 4.65283 60.9323 4.47983C60.7623 4.29032 60.6315 4.06923 60.5474 3.82895C60.4633 3.58868 60.4274 3.33407 60.4421 3.07993C60.4263 2.73825 60.4843 2.39718 60.6122 2.07993C60.6976 1.8905 60.8161 1.71755 60.9622 1.56968C61.0972 1.42474 61.2606 1.30918 61.4421 1.22983C61.6993 1.12581 61.9749 1.07489 62.2522 1.07993L62.2622 1.12974ZM89.9922 1.12974C90.2355 1.11877 90.4785 1.15865 90.7057 1.24644C90.9329 1.33422 91.1395 1.46826 91.3123 1.63999C91.6318 2.04432 91.8057 2.54454 91.8057 3.05991C91.8057 3.57528 91.6318 4.07551 91.3123 4.47983C90.9473 4.80047 90.478 4.97739 89.9922 4.97739C89.5064 4.97739 89.0372 4.80047 88.6722 4.47983C88.5023 4.29032 88.3714 4.06923 88.2874 3.82895C88.2033 3.58868 88.1676 3.33407 88.1823 3.07993C88.1664 2.73825 88.2243 2.39718 88.3522 2.07993C88.4376 1.8905 88.5561 1.71755 88.7021 1.56968C88.8374 1.42495 89.0008 1.30943 89.1823 1.22983C89.4394 1.12581 89.7148 1.07489 89.9922 1.07993V1.12974ZM77.5922 1.18979V4.93003H76.8422V1.81968H75.7222V3.51011C75.7422 3.79642 75.7422 4.08365 75.7222 4.36997C75.7007 4.53156 75.6228 4.68027 75.5022 4.78989C75.342 4.90248 75.1474 4.95544 74.9521 4.93979H74.5422H74.4622V4.35972H74.6921C74.7828 4.36525 74.8731 4.34436 74.9521 4.29966C74.9822 4.26385 75.0047 4.22273 75.0184 4.17808C75.0322 4.13342 75.0369 4.08638 75.0322 4.03989V1.20981L77.5922 1.18979ZM56.7522 1.18979V3.68003L58.2622 1.18979H59.0122V4.93003H58.3022V2.49009L56.7922 4.93003H56.0022V1.18979H56.7522ZM95.9822 1.18979V1.81968H93.9822V2.64976H95.8622V3.27964H93.9822V4.27964H96.0022V4.91001H93.1622V1.16978L95.9822 1.18979ZM84.5122 1.18979V2.66001H86.0022V1.18979H86.7522V4.93003H86.0022V3.26987H84.5222V4.89976H83.7722V1.16001L84.5122 1.18979ZM79.9622 1.18979V2.68003H81.0623C81.4101 2.66036 81.7515 2.77906 82.0122 3.01011C82.1157 3.11572 82.1973 3.24047 82.2522 3.37778C82.3071 3.51509 82.3343 3.66204 82.3322 3.80991C82.3401 4.04134 82.2736 4.26912 82.1422 4.45981C82.0335 4.61986 81.8806 4.74477 81.7021 4.81968C81.4986 4.88433 81.2857 4.91508 81.0721 4.91001H79.2122V1.16978L79.9622 1.18979ZM71.9622 1.18979L73.4622 4.93003H72.6422L72.3123 4.07993H70.8221L70.5122 4.93003H69.7122L71.1722 1.18979H71.9622ZM66.2622 1.18979V2.66001H67.7422V1.18979H68.4922V4.93003H67.7422V3.26987H66.2622V4.89976H65.5122V1.16001L66.2622 1.18979ZM48.7222 1.18979L50.2222 4.93003H49.4022L49.0721 4.07993H47.5822L47.2722 4.93003H46.4722L47.9323 1.18979H48.7222ZM43.0222 1.18979V2.66001H44.5022V1.18979H45.2522V4.93003H44.5022V3.26987H43.0022V4.89976H42.2522V1.16001L43.0222 1.18979ZM90.0222 1.76987C89.8817 1.76753 89.7424 1.79481 89.6132 1.84995C89.4839 1.90509 89.3677 1.98666 89.2722 2.0897C89.083 2.37596 88.9821 2.71188 88.9821 3.05503C88.9821 3.39818 89.083 3.73361 89.2722 4.01987C89.366 4.12462 89.4809 4.2086 89.6093 4.26597C89.7376 4.32333 89.8766 4.35288 90.0172 4.35288C90.1578 4.35288 90.2968 4.32333 90.4252 4.26597C90.5535 4.2086 90.6684 4.12462 90.7622 4.01987C90.9811 3.73483 91.0847 3.3778 91.0522 3.01987C91.0895 2.66306 90.9894 2.30545 90.7722 2.01987C90.6767 1.91684 90.5605 1.83526 90.4313 1.78013C90.302 1.72499 90.1627 1.69771 90.0222 1.70005V1.76987ZM62.2922 1.76987C62.1518 1.76753 62.0123 1.79481 61.8831 1.84995C61.7538 1.90509 61.6378 1.98666 61.5422 2.0897C61.353 2.37596 61.2521 2.71188 61.2521 3.05503C61.2521 3.39818 61.353 3.73361 61.5422 4.01987C61.636 4.12462 61.7508 4.2086 61.8792 4.26597C62.0075 4.32333 62.1466 4.35288 62.2872 4.35288C62.4278 4.35288 62.5668 4.32333 62.6952 4.26597C62.8236 4.2086 62.9384 4.12462 63.0322 4.01987C63.2511 3.73483 63.3546 3.3778 63.3221 3.01987C63.3594 2.66306 63.2594 2.30545 63.0422 2.01987C62.9467 1.91684 62.8305 1.83526 62.7013 1.78013C62.5721 1.72499 62.4327 1.69771 62.2922 1.70005V1.76987ZM80.7522 3.30991H79.9822V4.30991H80.7122C80.8751 4.3267 81.0392 4.3267 81.2021 4.30991C81.3003 4.28433 81.3878 4.22816 81.4521 4.14976C81.5251 4.06707 81.5645 3.9602 81.5623 3.84995C81.5683 3.77638 81.5548 3.70231 81.5232 3.6356C81.4916 3.56888 81.443 3.512 81.3822 3.47007C81.1867 3.3746 80.9691 3.33305 80.7522 3.34995V3.30991ZM48.3221 2.05991L47.8221 3.45005H48.8221L48.3022 2.05991H48.3221ZM71.5623 2.05991L71.0623 3.45005H72.0623L71.5623 2.05991Z" fill="#4B5970"/>
</svg>
