<svg width="57" height="48" viewBox="0 0 57 48" fill="none" xmlns="http://www.w3.org/2000/svg">
<path fill-rule="evenodd" clip-rule="evenodd" d="M12.4295 13.2543L11.1197 13.3442C9.85809 13.4995 8.62591 13.8361 7.46064 14.3438C6.97216 14.5571 6.50069 14.8077 6.05073 15.0934C5.69079 15.3333 5.32103 15.5532 4.98109 15.8231C4.44574 16.2429 3.94095 16.7005 3.4711 17.1925C3.16442 17.4996 2.88655 17.8342 2.64117 18.1921C2.40121 18.5419 2.12151 18.8818 1.90155 19.2517C1.43899 20.0263 1.05051 20.8429 0.741599 21.6906C0.604042 22.0491 0.490635 22.4166 0.401815 22.7902C0.286446 23.185 0.209456 23.59 0.171875 23.9996H2.92139C3.04552 23.2145 3.28797 22.4528 3.64099 21.7406C3.64099 21.6706 3.69132 21.6107 3.73131 21.5307C3.86129 21.2708 3.98091 21.0508 4.12089 20.8109C4.39635 20.3654 4.70041 19.9381 5.03089 19.5316L5.15098 19.3916L6.15081 18.3921C7.91549 16.848 10.1748 15.9863 12.5198 15.9631C13.1695 15.9563 13.8185 16.0065 14.4594 16.113C15.3933 16.2867 16.2985 16.5895 17.1489 17.0126L18.2986 17.6923C18.4991 17.5237 18.6863 17.34 18.8585 17.1426L19.7285 16.283C19.8585 16.163 20.1482 15.9331 20.1981 15.7732C19.9639 15.5532 19.7019 15.3649 19.4185 15.2134C19.1343 15.0312 18.8408 14.8644 18.5388 14.7136L17.6088 14.2638C17.4988 14.2139 17.3987 14.1839 17.2787 14.1339L15.529 13.5941C15.406 13.5526 15.2786 13.5259 15.1492 13.5142C15.172 12.9121 15.2658 12.3148 15.429 11.7349C15.6759 10.6965 16.0807 9.70206 16.629 8.7862C17.66 6.99427 19.1504 5.50964 20.9466 4.48531C22.7427 3.46098 24.7792 2.93392 26.8469 2.95862C27.6467 2.9664 28.4442 3.05346 29.2268 3.21852C29.6368 3.29849 30.0767 3.4584 30.4766 3.56835C31.0576 3.74289 31.6174 3.98097 32.1462 4.27813L32.3161 4.36805L33.316 4.98778L33.4761 5.09772L33.7758 5.3176L33.916 5.43754L34.5257 5.93733L34.5955 5.99736L34.7259 6.12731L35.2658 6.66712C35.8827 7.32353 36.4132 8.0557 36.8451 8.84611C36.9867 9.07462 37.1075 9.31548 37.2054 9.56577C36.7411 9.64937 36.288 9.78695 35.8556 9.97563C35.4106 10.1219 34.9764 10.299 34.556 10.5054C34.0864 10.7235 33.6291 10.9671 33.1861 11.2351C32.3762 11.7065 31.6185 12.2628 30.9262 12.8944L32.8161 14.7936C33.4459 14.3638 33.6958 14.0839 34.4857 13.6041C35.747 12.8239 37.1391 12.2787 38.5948 11.9948C40.3831 11.6013 42.2358 11.6013 44.024 11.9948C45.9597 12.4352 47.7708 13.3065 49.3229 14.5437C49.8266 14.9533 50.3042 15.3939 50.7528 15.8631C51.708 16.9202 52.4906 18.1212 53.0723 19.4216C53.1593 19.6004 53.2365 19.7839 53.3027 19.9713C53.6932 20.9836 53.9514 22.0418 54.0721 23.12C54.0721 23.3599 54.1424 23.6198 54.1424 23.8697H56.8519C56.8267 23.3034 56.7664 22.7392 56.6717 22.1804C56.5915 21.6514 56.4812 21.1275 56.3417 20.6111C56.2617 20.3412 56.202 20.1313 56.122 19.8814C56.042 19.6315 56.0622 19.6515 56.0122 19.5316L55.752 18.8418C55.692 18.7119 55.6718 18.6119 55.6119 18.492C55.4119 18.0722 55.2521 17.6324 55.0021 17.2325C54.9421 17.1326 54.902 17.0326 54.842 16.9326C54.2806 15.9412 53.6098 15.016 52.8423 14.1739C52.7594 14.093 52.6826 14.0061 52.6124 13.914C52.0513 13.3064 51.4396 12.7479 50.7831 12.2447L50.6328 12.1347L49.8131 11.555C48.846 10.8967 47.8018 10.3594 46.7038 9.95562L45.9939 9.71573L45.6239 9.59579C44.0397 9.13661 42.3936 8.92752 40.7448 8.97606C40.4249 8.97606 40.2446 8.97606 39.9247 8.97606C39.7928 8.61082 39.6324 8.2566 39.4448 7.91658L38.2751 6.01737L38.1149 5.78749L37.5852 5.13774C36.7566 4.16541 35.8018 3.30813 34.7459 2.58879C33.8057 1.95897 32.8 1.43285 31.7464 1.01952L31.1664 0.819528C29.8789 0.37709 28.5286 0.144283 27.1671 0.129883H26.737H26.4471C25.9871 0.129883 25.4475 0.129858 24.9776 0.229815C24.3036 0.308792 23.6356 0.432338 22.9779 0.599652C22.009 0.850061 21.07 1.2054 20.1781 1.65926C19.4308 2.04497 18.7157 2.48947 18.0389 2.98864L17.3988 3.49843C16.9693 3.8494 16.5617 4.22664 16.1788 4.62795L14.9793 6.1073C14.3675 6.95058 13.8511 7.85904 13.4396 8.8161C13.0143 9.77538 12.7056 10.7821 12.5198 11.8148C12.5198 12.0547 12.4297 12.2347 12.3997 12.4746C12.3697 12.7145 12.4495 13.0443 12.4295 13.2543Z" fill="#6495DB"/>
<path fill-rule="evenodd" clip-rule="evenodd" d="M42.2331 31.3365C42.2268 30.7033 42.4425 30.088 42.8429 29.5973L42.9029 29.5274C44.3127 28.168 47.1722 29.1875 46.6923 31.9763C46.6155 32.4286 46.4041 32.8472 46.0855 33.1773C45.7668 33.5074 45.3558 33.7337 44.9065 33.8266C44.4571 33.9194 43.9903 33.8746 43.5669 33.6978C43.1434 33.5211 42.7833 33.2206 42.5334 32.8359C42.2881 32.4027 42.157 31.9143 42.1531 31.4166L42.2331 31.3365ZM46.8422 27.968C46.7522 27.968 46.7723 27.968 46.6723 27.808C46.5233 27.612 46.3484 27.4373 46.1524 27.2884C46.0237 27.1868 45.8869 27.0965 45.7428 27.0185C45.4312 26.8429 45.0937 26.7181 44.7429 26.6486C44.1878 26.5428 43.6162 26.5557 43.0665 26.6867C42.5167 26.8176 42.0013 27.0636 41.5535 27.4083C41.4283 27.5088 41.3078 27.6155 41.1933 27.7281C41.079 27.8446 40.9723 27.9681 40.8735 28.0979C40.4509 28.6503 40.154 29.2882 40.0035 29.9671C39.9181 30.3657 39.8614 30.7699 39.8336 31.1766C39.8185 31.3929 39.8185 31.61 39.8336 31.8263C39.8645 32.2197 39.9385 32.6085 40.0538 32.9859C40.3224 33.9623 40.919 34.8165 41.7435 35.4049C42.4473 35.8872 43.291 36.1226 44.1429 36.0745C44.6954 36.0623 45.2371 35.9185 45.7227 35.6548C46.1061 35.4576 46.446 35.1856 46.7226 34.8551L46.8622 34.7351V35.8746H49.2519V24.0398C49.2519 23.9598 49.2518 23.9397 49.1518 23.9397H46.9623C46.8123 23.9397 46.8622 24.1696 46.8622 24.3295L46.8422 27.968Z" fill="white"/>
<path fill-rule="evenodd" clip-rule="evenodd" d="M21.878 31.4666C21.8559 31.0462 21.9276 30.6263 22.0879 30.2371C22.211 29.9526 22.3902 29.6958 22.6147 29.4821C22.8391 29.2683 23.1042 29.1019 23.3943 28.9928C23.6845 28.8836 23.9936 28.834 24.3033 28.8468C24.6131 28.8597 24.9171 28.9348 25.1972 29.0676C27.3768 30.0671 26.7869 33.8155 24.1974 33.8155L23.7077 33.7556C23.5573 33.722 23.4101 33.6752 23.2679 33.6157C23.0653 33.5371 22.8786 33.4219 22.7177 33.2758C22.4571 33.0513 22.2474 32.7737 22.1026 32.4617C21.9577 32.1498 21.8813 31.8105 21.878 31.4666ZM19.4585 31.2367C19.4341 32.2369 19.7168 33.2206 20.2684 34.0554C20.5053 34.3926 20.7802 34.7012 21.0881 34.9751L21.258 35.105L21.4181 35.235C21.6458 35.3976 21.8905 35.5351 22.148 35.6448C23.1633 36.0919 24.2955 36.2005 25.3774 35.9546C25.5373 35.9546 25.6672 35.8647 25.7972 35.8247L26.197 35.6747C27.1952 35.241 28.0018 34.4595 28.4667 33.4757C28.7809 32.8046 28.9436 32.0726 28.9436 31.3316C28.9436 30.5906 28.7809 29.8586 28.4667 29.1875C28.3967 29.0476 28.347 28.9676 28.267 28.8277C27.9118 28.2296 27.4176 27.7257 26.8268 27.3583C26.5799 27.2011 26.319 27.0672 26.0472 26.9585C25.3053 26.6566 24.5006 26.5416 23.7038 26.6235C22.9071 26.7055 22.143 26.9818 21.4781 27.4283C21.2279 27.596 20.9966 27.7904 20.7883 28.0081L20.7083 28.098C20.3705 28.461 20.0933 28.8761 19.8881 29.3275C19.757 29.6116 19.6596 29.9102 19.5981 30.2171C19.5144 30.5508 19.4678 30.8927 19.4585 31.2367Z" fill="white"/>
<path fill-rule="evenodd" clip-rule="evenodd" d="M30.0671 26.8585V32.7059C30.0358 33.1312 30.0913 33.5585 30.2306 33.9615C30.3699 34.3645 30.5898 34.7349 30.877 35.0501C31.1642 35.3654 31.5128 35.6188 31.9012 35.7949C32.2897 35.9711 32.7099 36.0661 33.1364 36.0745C33.5335 36.096 33.9317 36.0555 34.3163 35.9545C34.5642 35.8836 34.8025 35.783 35.0262 35.6547C35.4193 35.4079 35.7592 35.085 36.026 34.7051V35.8846H38.4455V26.7986C37.6402 26.7359 36.8313 26.7359 36.026 26.7986V31.7964C36.0244 32.1158 35.9599 32.4316 35.8361 32.7259C35.7366 32.9802 35.5743 33.2051 35.3645 33.3798C35.1547 33.5546 34.9042 33.6735 34.6361 33.7255C34.1614 33.8405 33.6632 33.8092 33.2067 33.6356C32.2668 33.2158 32.3865 32.1262 32.3865 31.1167V27.2283C32.3865 27.0784 32.4469 26.7385 32.2869 26.7385H30.0969C30.0669 26.7585 30.0671 26.7785 30.0671 26.8585Z" fill="white"/>
<path fill-rule="evenodd" clip-rule="evenodd" d="M5.50145 30.9869C5.45695 31.5385 5.51079 32.0936 5.66109 32.6262C5.73965 32.9381 5.85404 33.2399 6.00137 33.5258V33.6158C6.45405 34.4488 7.1522 35.1224 8.00101 35.545C8.63543 35.8427 9.3225 36.0118 10.0226 36.0427C10.7228 36.0736 11.4217 35.9655 12.0799 35.7249C12.6538 35.4959 13.177 35.1562 13.6197 34.7253C14.2521 34.0684 14.6618 33.229 14.7899 32.3263H12.3401C12.246 32.6185 12.0967 32.89 11.9002 33.126C11.5204 33.532 10.9961 33.7726 10.4405 33.7957C10.0932 33.8427 9.73966 33.8044 9.41044 33.6842C9.08121 33.5641 8.78608 33.3656 8.55072 33.106C8.37102 32.914 8.2287 32.6903 8.13087 32.4462C7.9373 31.9513 7.87603 31.4144 7.95317 30.8886C8.03031 30.3627 8.24314 29.8661 8.57074 29.4475C8.81859 29.1961 9.12057 29.0049 9.45388 28.8886C9.7872 28.7722 10.1428 28.7338 10.4933 28.7763C10.8437 28.8188 11.1801 28.941 11.476 29.1336C11.7718 29.3262 12.0194 29.5841 12.2 29.8874C12.2551 29.9974 12.2926 30.1155 12.3103 30.2372H14.7899C14.7026 29.6744 14.5128 29.1323 14.2299 28.6379C13.9681 28.198 13.6295 27.8087 13.2301 27.4884C12.7986 27.1618 12.3106 26.9179 11.7904 26.7687C11.1687 26.5822 10.5171 26.5143 9.87032 26.5687C9.27708 26.6092 8.69696 26.7619 8.16065 27.0186C7.68226 27.2422 7.24592 27.5466 6.87084 27.9183C6.77086 28.0182 6.73087 28.0881 6.62089 28.1981C5.95481 28.9815 5.56214 29.9604 5.50145 30.9869Z" fill="white"/>
<path fill-rule="evenodd" clip-rule="evenodd" d="M15.8594 35.8746H18.2495V24.0398C18.2495 23.9598 18.2494 23.9397 18.1494 23.9397H15.8594V35.8746Z" fill="white"/>
<path fill-rule="evenodd" clip-rule="evenodd" d="M23.0687 41.0721V40.3825H22.1489C22.0689 40.3825 22.0488 40.3825 22.0488 40.4824V45.0604C22.0488 45.2703 22.5087 45.1904 22.9686 45.1904C23.1186 45.1904 23.0687 44.9405 23.0687 44.6706C23.0687 43.801 22.9387 42.2716 23.3386 41.6719C23.4288 41.5294 23.5537 41.4121 23.7014 41.3308C23.8491 41.2495 24.0151 41.2069 24.1837 41.2069C24.3523 41.2069 24.5178 41.2495 24.6656 41.3308C24.8133 41.4121 24.9381 41.5294 25.0283 41.6719C25.1488 42.0285 25.193 42.4066 25.1581 42.7815V44.9805C25.1581 45.2804 25.0981 45.2104 26.0779 45.2104C26.2279 45.2104 26.178 44.9605 26.178 44.6906V42.6914C26.1437 42.4359 26.1818 42.176 26.2878 41.941C26.3939 41.7061 26.5637 41.5055 26.778 41.3621C26.9906 41.2295 27.2455 41.1817 27.4917 41.228C27.738 41.2742 27.9578 41.4113 28.1078 41.612C28.4178 42.1717 28.108 44.3707 28.268 45.1704H28.7879C28.9379 45.1704 29.2478 45.2304 29.2478 45.0704V41.9818C29.2781 41.5696 29.1433 41.1622 28.8733 40.8492C28.6033 40.5362 28.2203 40.3431 27.8081 40.3125C27.5241 40.2748 27.2352 40.3091 26.9679 40.4122C26.7006 40.5152 26.4632 40.6837 26.2781 40.9023L26.0081 41.2621C25.9143 40.994 25.7422 40.7601 25.514 40.5908C25.2859 40.4215 25.0124 40.3245 24.7285 40.3125C24.3297 40.2599 23.9251 40.3521 23.5886 40.5724C23.5371 40.6064 23.49 40.6466 23.4485 40.6923L23.3787 40.7523C23.3087 40.8423 23.1986 40.9822 23.0687 41.0721Z" fill="#6495DB"/>
<path fill-rule="evenodd" clip-rule="evenodd" d="M8.41016 44.3111C8.20669 44.3225 8.00328 44.2901 7.81348 44.2159C7.62367 44.1417 7.4523 44.0277 7.31055 43.8813C7.08829 43.6729 6.93377 43.4024 6.86719 43.1052C6.8006 42.8079 6.82489 42.4976 6.93701 42.2143C7.04913 41.9311 7.24357 41.688 7.49561 41.5167C7.74764 41.3455 8.04534 41.2539 8.3501 41.2539C8.65485 41.2539 8.95255 41.3455 9.20459 41.5167C9.45663 41.688 9.65155 41.9311 9.76367 42.2143C9.87579 42.4976 9.90008 42.8079 9.8335 43.1052C9.76691 43.4024 9.61239 43.6729 9.39014 43.8813C9.26483 44.0243 9.11154 44.1398 8.93945 44.2207C8.76737 44.3015 8.58021 44.3459 8.39014 44.3511L8.41016 44.3111ZM6.91016 41.1425V40.3928H5.91016V47.3198H6.91016V44.441C7.16823 44.778 7.51423 45.0374 7.91016 45.1907C8.40542 45.3359 8.93582 45.3041 9.41016 45.1008C9.50619 45.056 9.59994 45.0059 9.69043 44.9508L10.1704 44.5211C10.4603 44.1323 10.6492 43.6778 10.7207 43.1981C10.7922 42.7185 10.7439 42.2287 10.5801 41.7722C10.4528 41.3629 10.2039 41.0019 9.86621 40.7377C9.52855 40.4734 9.11854 40.3183 8.69043 40.2929C8.41219 40.2645 8.13098 40.2972 7.8667 40.3887C7.60242 40.4802 7.36119 40.6282 7.16016 40.8226L6.97021 41.0525L6.91016 41.1425Z" fill="#6495DB"/>
<path fill-rule="evenodd" clip-rule="evenodd" d="M12.3606 42.7716C12.3872 42.4698 12.5096 42.1843 12.7102 41.9572C12.9107 41.73 13.1786 41.5729 13.4748 41.5089C13.7711 41.4448 14.0802 41.4772 14.3567 41.6013C14.6332 41.7255 14.863 41.9348 15.0119 42.1986C15.1609 42.4625 15.2214 42.7671 15.1848 43.0679C15.1481 43.3686 15.0158 43.6498 14.8078 43.8701C14.5998 44.0905 14.3268 44.2387 14.0285 44.2928C13.7303 44.3469 13.4228 44.3042 13.1506 44.1709C12.8964 44.0405 12.6861 43.8385 12.5456 43.5898C12.4052 43.341 12.3408 43.0566 12.3606 42.7716ZM11.3606 42.5716C11.3269 42.9465 11.371 43.3242 11.4904 43.6811C11.5651 43.9604 11.6952 44.2218 11.8733 44.4496C12.0513 44.6774 12.2736 44.867 12.5266 45.007C12.7796 45.147 13.0583 45.2345 13.3459 45.2643C13.6335 45.2942 13.924 45.2656 14.2004 45.1805C14.5956 45.0259 14.9413 44.7667 15.2004 44.4308C15.2004 44.5708 15.2004 44.7108 15.2004 44.8607C15.2004 45.0106 15.2005 45.1605 15.3005 45.1905C15.4005 45.2205 16.0204 45.1905 16.1804 45.1905C16.2604 44.8307 16.1804 41.1923 16.1804 40.4826C16.1804 40.4026 16.1803 40.3826 16.0803 40.3826H15.1604V41.1323C14.8646 40.7248 14.4312 40.4383 13.9402 40.3261C13.4491 40.214 12.9339 40.2838 12.4904 40.5226L12.0407 40.8624C11.6013 41.3235 11.354 41.9348 11.3503 42.5716H11.3606Z" fill="#6495DB"/>
<path fill-rule="evenodd" clip-rule="evenodd" d="M32.3361 41.1722C32.591 41.1341 32.8517 41.1739 33.0836 41.2863C33.3156 41.3986 33.5078 41.5783 33.6359 41.8019C33.7029 41.934 33.7601 42.0711 33.8063 42.2118H31.066C31.0963 42.0736 31.1506 41.9416 31.2262 41.8219C31.2962 41.7 31.3877 41.5917 31.4962 41.5021C31.7167 41.2967 32.005 41.1792 32.3063 41.1722H32.3361ZM34.7863 43.6911H33.7863C33.6807 43.9019 33.5173 44.0785 33.3156 44.2006C33.1138 44.3226 32.8819 44.3851 32.6461 44.3809H32.4459C32.0927 44.3812 31.7529 44.2452 31.4977 44.0012C31.2424 43.7572 31.0913 43.4241 31.0758 43.0714H34.9362C34.9767 42.705 34.9415 42.3341 34.8331 41.9817C34.7248 41.6292 34.5457 41.3028 34.3063 41.0224C33.8998 40.5872 33.3409 40.3258 32.7462 40.2927C32.236 40.2283 31.7187 40.3307 31.2716 40.5848C30.8245 40.8389 30.4718 41.2308 30.2662 41.702C30.085 42.1317 30.0163 42.6005 30.067 43.0641C30.1178 43.5276 30.2863 43.9706 30.5563 44.3509C30.8006 44.6474 31.1084 44.8851 31.4572 45.0464C31.8059 45.2077 32.1862 45.2884 32.5704 45.2826C32.9546 45.2769 33.3327 45.1848 33.6764 45.0131C34.0201 44.8414 34.321 44.5946 34.5563 44.291C34.6683 44.1029 34.7461 43.8963 34.7863 43.6811V43.6911Z" fill="#6495DB"/>
<path fill-rule="evenodd" clip-rule="evenodd" d="M44.8838 41.6623C44.8542 41.8556 44.8821 42.0534 44.9639 42.231C45.0456 42.4087 45.1777 42.5585 45.3438 42.6619C46.1114 42.9893 46.9087 43.2435 47.7241 43.4214C48.2541 43.6613 48.1841 44.3311 46.9541 44.3311C45.7241 44.3311 45.834 43.5514 45.584 43.5514H44.6641C44.6641 44.441 45.6641 45.1707 46.7241 45.2207C46.8602 45.2388 46.9977 45.2388 47.1338 45.2207C47.4447 45.2317 47.7543 45.1749 48.041 45.054C48.3277 44.9332 48.5848 44.7513 48.7939 44.5211C48.899 44.39 48.9766 44.2391 49.0225 44.0775C49.0683 43.9159 49.0815 43.7468 49.061 43.5801C49.0405 43.4133 48.987 43.2524 48.9033 43.1068C48.8197 42.9611 48.7074 42.8336 48.5737 42.7318C48.3008 42.567 48.004 42.4457 47.6938 42.372C47.4538 42.312 46.4041 42.0621 46.2241 41.9821C45.5741 41.6922 45.9938 41.1125 46.9038 41.1125C47.085 41.096 47.2677 41.1178 47.4399 41.1763C47.6122 41.2349 47.7702 41.3289 47.9038 41.4523C48.1438 41.7622 47.7939 41.7022 49.0239 41.7022C49.0239 40.8826 48.0841 40.2329 47.1641 40.2329C46.588 40.165 46.0061 40.2954 45.5142 40.6027C45.3284 40.712 45.1731 40.8664 45.063 41.0516C44.9529 41.2368 44.891 41.447 44.8838 41.6623Z" fill="#6495DB"/>
<path fill-rule="evenodd" clip-rule="evenodd" d="M36.6152 41.0722V40.3826H35.6152V45.0905C35.6152 45.2604 35.9853 45.1904 36.4653 45.1904C36.5183 45.1996 36.5725 45.1996 36.6255 45.1904C36.6255 44.3308 36.6255 43.4712 36.6255 42.6116C36.5995 42.3558 36.655 42.0983 36.7842 41.8759C36.9134 41.6536 37.1096 41.4778 37.3447 41.3736C37.5799 41.2694 37.8417 41.2421 38.0933 41.2957C38.3448 41.3493 38.5734 41.4809 38.7456 41.6719C38.9379 42.6592 38.995 43.668 38.9155 44.6706C38.9155 45.3703 38.7354 45.2304 39.8354 45.2304C39.9154 45.2304 39.9355 45.2305 39.9355 45.1305V42.1917C39.9619 41.8585 39.8945 41.5247 39.7407 41.2279C39.587 40.9311 39.3529 40.6832 39.0654 40.5125C38.7713 40.379 38.4498 40.3157 38.127 40.3279C37.8041 40.34 37.4889 40.4272 37.2056 40.5824C37.0905 40.6501 36.986 40.7343 36.8955 40.8323L36.6152 41.0722Z" fill="#6495DB"/>
<path fill-rule="evenodd" clip-rule="evenodd" d="M17.3599 47.3095H18.4399C18.5199 47.1696 18.5696 47.0397 18.6396 46.8898L20.5 42.8015C20.5 42.7215 20.5596 42.6515 20.5996 42.5716C20.6396 42.4916 21.5996 40.4925 21.5996 40.3826H20.52L20.1997 41.1423C19.9497 41.762 19.5098 42.6316 19.2598 43.2413C19.2598 43.3613 19.2599 43.3512 19.1499 43.4212C19.1499 43.2612 18.7599 42.5016 18.6699 42.3017L18.3398 41.552C18.2698 41.412 18.2397 41.3022 18.1797 41.1623C18.1197 41.0223 18.0598 40.9024 18.0098 40.7724L17.8398 40.3826H16.7598L17.7598 42.5217C17.8298 42.6816 17.8797 42.7915 17.9497 42.9514L18.3398 43.831C18.3998 43.981 18.4598 44.101 18.5298 44.2609C18.7198 44.6907 18.6599 44.5207 18.1899 45.5803L17.3599 47.3095Z" fill="#6495DB"/>
<path fill-rule="evenodd" clip-rule="evenodd" d="M41.1938 39.3729V40.3725H40.3438V41.3221H41.1938C41.1148 42.3251 41.1755 43.3343 41.374 44.3208C41.5192 44.6733 41.7811 44.9652 42.1162 45.1472C42.4513 45.3292 42.839 45.3904 43.2139 45.3203C43.6024 45.2869 43.98 45.1747 44.3237 44.9905L44.1641 44.1708C43.7541 44.1708 43.2738 44.5706 42.6938 44.3008C42.5779 44.2475 42.4778 44.1648 42.4038 44.0609C42.2551 43.8071 42.1858 43.5148 42.2041 43.2213V41.3921H44.2041V40.4424H42.2041V39.1331L41.394 39.3129C41.274 39.2729 41.1938 39.253 41.1938 39.3729Z" fill="#6495DB"/>
</svg>
