<svg width="58" height="48" viewBox="0 0 58 48" fill="none" xmlns="http://www.w3.org/2000/svg">
<path fill-rule="evenodd" clip-rule="evenodd" d="M12.8616 13.7002L11.5516 13.79C10.2898 13.9454 9.05708 14.2822 7.8916 14.79C7.40304 15.0035 6.93161 15.2542 6.48157 15.54C6.12157 15.78 5.75156 16 5.41156 16.27C4.87612 16.69 4.37154 17.148 3.90161 17.6401C3.59483 17.9473 3.31697 18.282 3.07159 18.6401C2.83159 18.9901 2.5516 19.3302 2.3316 19.7002C1.86901 20.4752 1.48059 21.2921 1.17157 22.1401C1.03407 22.4989 0.920524 22.8665 0.831604 23.2402C0.716275 23.6353 0.639212 24.0404 0.601562 24.4502H3.35156C3.47556 23.6647 3.71837 22.9024 4.07159 22.1899C4.07159 22.1199 4.12156 22.0602 4.16156 21.9902C4.29156 21.7302 4.41157 21.51 4.55157 21.27C4.82706 20.8242 5.13106 20.3969 5.46161 19.9902L5.5816 19.8501L6.5816 18.8501C8.34659 17.3054 10.6062 16.4432 12.9516 16.4199C13.6014 16.4132 14.2506 16.4633 14.8916 16.5698C15.8257 16.7436 16.731 17.0469 17.5816 17.4702L18.7316 18.1499C18.9321 17.9812 19.1193 17.7975 19.2916 17.6001L20.1616 16.7402C20.2916 16.6202 20.5816 16.39 20.6316 16.23C20.3973 16.0099 20.135 15.8215 19.8516 15.6699C19.5674 15.4877 19.2736 15.3208 18.9716 15.1699L18.0416 14.7202C17.9316 14.6702 17.8316 14.6398 17.7116 14.5898L15.9616 14.0498C15.8385 14.0084 15.711 13.9819 15.5816 13.9702C15.6044 13.3679 15.6984 12.7702 15.8616 12.1899C16.1085 11.1511 16.5132 10.1565 17.0616 9.24023C18.0929 7.44753 19.5835 5.96227 21.3799 4.9375C23.1764 3.91273 25.2136 3.38544 27.2816 3.41016C28.0816 3.41793 28.8788 3.50479 29.6616 3.66992C30.0716 3.74992 30.5116 3.91002 30.9116 4.02002C31.4926 4.19463 32.0527 4.4327 32.5816 4.72998L32.7516 4.81982L33.7516 5.43994L33.9116 5.5498L34.2116 5.77002L34.3516 5.89014L34.9616 6.39014L35.0316 6.4502L35.1616 6.58008L35.7016 7.12012C36.3186 7.77681 36.8496 8.50905 37.2816 9.2998C37.4232 9.52841 37.5437 9.76961 37.6416 10.02C37.1772 10.1037 36.7241 10.2414 36.2916 10.4302C35.8465 10.5765 35.4121 10.7534 34.9916 10.96C34.522 11.1782 34.0646 11.4218 33.6216 11.6899C32.8115 12.1616 32.0539 12.7182 31.3616 13.3501L33.2516 15.25C33.8816 14.82 34.1316 14.5401 34.9216 14.0601C36.183 13.2794 37.5756 12.734 39.0316 12.4502C40.8202 12.0565 42.673 12.0565 44.4616 12.4502C46.3975 12.8911 48.209 13.7625 49.7616 15C50.2619 15.41 50.7362 15.8507 51.1816 16.3198C52.1369 17.3774 52.9198 18.5788 53.5016 19.8799C53.5886 20.0587 53.6654 20.2426 53.7316 20.4302C54.1221 21.4429 54.3809 22.5014 54.5016 23.5801C54.5016 23.8201 54.5716 24.0801 54.5716 24.3301H57.2816C57.2564 23.7636 57.1963 23.1992 57.1016 22.6401C57.0213 22.111 56.9112 21.5865 56.7716 21.0698C56.6916 20.7998 56.6316 20.5898 56.5516 20.3398C56.4716 20.0898 56.4916 20.1102 56.4416 19.9902L56.1816 19.2998C56.1216 19.1698 56.1016 19.0702 56.0416 18.9502C55.8416 18.5302 55.6816 18.0899 55.4316 17.6899C55.3716 17.5899 55.3316 17.4901 55.2716 17.3901C54.7101 16.3983 54.0392 15.4723 53.2716 14.6299C53.1887 14.5489 53.1118 14.4623 53.0416 14.3701C52.4804 13.7622 51.8682 13.2035 51.2116 12.7002L51.0616 12.5898L50.2416 12.0103C49.2743 11.3516 48.2299 10.8141 47.1316 10.4102L46.4216 10.1699L46.0516 10.0498C44.4703 9.59146 42.8273 9.38266 41.1816 9.43018C40.8616 9.43018 40.6816 9.43018 40.3616 9.43018C40.2297 9.06476 40.0692 8.71027 39.8816 8.37012L38.7116 6.47021L38.5516 6.24023L38.0216 5.58984C37.1929 4.61701 36.2377 3.7596 35.1816 3.04004C34.2412 2.40995 33.2353 1.88373 32.1816 1.47021L31.6016 1.27002C30.3138 0.827391 28.9632 0.594484 27.6016 0.580078H27.1716H26.8816C26.4216 0.580078 25.8816 0.580176 25.4116 0.680176C24.7374 0.759128 24.0693 0.882362 23.4116 1.0498C22.4429 1.29712 21.504 1.64949 20.6116 2.1001C19.8641 2.48605 19.1485 2.93086 18.4716 3.43018L17.8316 3.93994C17.402 4.29106 16.9945 4.66834 16.6116 5.06982L15.4116 6.5498C14.7996 7.3934 14.2831 8.30275 13.8716 9.26025C13.4463 10.2199 13.1374 11.2271 12.9516 12.2603C12.9516 12.5003 12.8616 12.6799 12.8316 12.9199C12.8016 13.1599 12.8816 13.4902 12.8616 13.7002Z" fill="#7E8AA0"/>
<path fill-rule="evenodd" clip-rule="evenodd" d="M42.6713 31.7798C42.6651 31.1463 42.8809 30.5309 43.2814 30.04L43.3414 29.9702C44.7514 28.6102 47.6114 29.6299 47.1314 32.4199C47.0545 32.8724 46.8429 33.2913 46.5242 33.6216C46.2055 33.9518 45.7946 34.1781 45.3451 34.271C44.8957 34.3639 44.4287 34.3189 44.0051 34.1421C43.5816 33.9653 43.2213 33.6647 42.9713 33.2798C42.7261 32.8464 42.5953 32.3578 42.5914 31.8599L42.6713 31.7798ZM47.2814 28.4102C47.1914 28.4102 47.2113 28.41 47.1113 28.25C46.9624 28.0539 46.7875 27.879 46.5914 27.73C46.4596 27.6278 46.319 27.5375 46.1713 27.46C45.8597 27.2845 45.5222 27.1595 45.1713 27.0898C44.6161 26.9839 44.0447 26.9969 43.4949 27.1279C42.945 27.2589 42.4292 27.5052 41.9813 27.8501C41.8561 27.9507 41.736 28.0573 41.6214 28.1699C41.507 28.2864 41.4001 28.4101 41.3013 28.54C40.8787 29.0926 40.5818 29.7309 40.4314 30.4102C40.3459 30.8089 40.2891 31.2132 40.2614 31.6201C40.2462 31.8365 40.2462 32.0536 40.2614 32.27C40.2922 32.6636 40.3659 33.0527 40.4813 33.4302C40.7479 34.4107 41.3449 35.2687 42.1713 35.8599C42.8756 36.3417 43.7194 36.5771 44.5714 36.5298C45.124 36.5176 45.6657 36.3737 46.1514 36.1099C46.5349 35.9128 46.875 35.641 47.1514 35.3101L47.2913 35.1899V36.3301H49.6814V24.4902C49.6814 24.4102 49.6814 24.3901 49.5814 24.3901H47.3914C47.2414 24.3901 47.2913 24.6198 47.2913 24.7798L47.2814 28.4102Z" fill="#5E6C81"/>
<path fill-rule="evenodd" clip-rule="evenodd" d="M22.3121 31.91C22.29 31.4895 22.3618 31.0693 22.5221 30.68C22.6452 30.3954 22.8243 30.1385 23.0488 29.9246C23.2733 29.7107 23.5386 29.544 23.8288 29.4349C24.119 29.3257 24.4282 29.276 24.738 29.2889C25.0478 29.3017 25.3519 29.3772 25.6321 29.51C27.8121 30.51 27.2221 34.26 24.6321 34.26L24.1421 34.2C23.9916 34.1664 23.8443 34.1194 23.7021 34.0599C23.4994 33.9813 23.313 33.8662 23.1521 33.72C22.8914 33.4954 22.6817 33.2177 22.5369 32.9056C22.392 32.5934 22.3153 32.254 22.3121 31.91ZM19.8921 31.68C19.8677 32.6806 20.1504 33.6646 20.7021 34.4998C20.939 34.8371 21.2142 35.1457 21.5221 35.4197L21.6921 35.5496L21.852 35.68C22.0798 35.8427 22.3246 35.9798 22.5821 36.0896C23.5976 36.5369 24.73 36.6457 25.8121 36.3997C25.9721 36.3997 26.102 36.3098 26.232 36.2698L26.6321 36.1199C27.6304 35.686 28.4371 34.904 28.9021 33.9197C29.2163 33.2483 29.3792 32.516 29.3792 31.7747C29.3792 31.0334 29.2163 30.3011 28.9021 29.6297C28.8321 29.4897 28.7821 29.4098 28.7021 29.2698C28.3469 28.6715 27.853 28.1671 27.2621 27.7996C27.0151 27.6423 26.7539 27.5084 26.482 27.3997C25.7401 27.0977 24.9353 26.9828 24.1384 27.0647C23.3416 27.1467 22.577 27.4232 21.912 27.8699C21.6617 28.0376 21.4303 28.2322 21.222 28.45L21.1421 28.5398C20.8044 28.9031 20.5275 29.3184 20.3221 29.7698C20.1909 30.0541 20.0936 30.353 20.0321 30.66C19.9476 30.9971 19.9007 31.3423 19.8921 31.6897V31.68Z" fill="#5E6C81"/>
<path fill-rule="evenodd" clip-rule="evenodd" d="M30.5124 27.27V33.1201C30.4811 33.5456 30.5368 33.9728 30.6761 34.376C30.8154 34.7792 31.0354 35.15 31.3227 35.4653C31.61 35.7807 31.9585 36.0343 32.347 36.2104C32.7355 36.3866 33.1559 36.4819 33.5824 36.4902C33.9796 36.5118 34.3777 36.4711 34.7624 36.3701C35.0103 36.2991 35.2486 36.1981 35.4723 36.0698C35.8656 35.8228 36.2055 35.5002 36.4723 35.1201V36.2998H38.8924V27.27C38.0869 27.2073 37.2778 27.2073 36.4723 27.27V32.27C36.4708 32.5895 36.4063 32.9057 36.2824 33.2002C36.1829 33.4545 36.0206 33.6792 35.8108 33.854C35.601 34.0288 35.3505 34.1482 35.0824 34.2002C34.6076 34.3152 34.1091 34.2835 33.6524 34.1099C32.7124 33.6899 32.8324 32.5998 32.8324 31.5898V27.7002C32.8324 27.5502 32.8924 27.21 32.7324 27.21H30.5424C30.5324 27.21 30.5124 27.27 30.5124 27.27Z" fill="#5E6C81"/>
<path fill-rule="evenodd" clip-rule="evenodd" d="M5.9311 31.4597C5.88659 32.0116 5.9408 32.567 6.09113 33.0999C6.1697 33.4119 6.28374 33.7138 6.4311 33.9998V34.0896C6.88386 34.923 7.58213 35.597 8.4311 36.0198C9.06563 36.3176 9.75287 36.4869 10.4531 36.5178C11.1534 36.5487 11.8528 36.4407 12.5111 36.2C13.0851 35.9709 13.6083 35.6311 14.0511 35.2C14.6836 34.5428 15.093 33.7026 15.2211 32.7996H12.7711C12.677 33.0919 12.5276 33.3638 12.3311 33.5999C11.9512 34.0061 11.4268 34.2466 10.8711 34.2698C10.5237 34.3168 10.1702 34.2787 9.84089 34.1585C9.51161 34.0383 9.21648 33.8396 8.98108 33.5799C8.80135 33.3878 8.65895 33.1638 8.5611 32.9197C8.36749 32.4245 8.30627 31.8877 8.38343 31.3616C8.46058 30.8355 8.67345 30.3384 9.0011 29.9197C9.249 29.6682 9.55127 29.477 9.88465 29.3606C10.218 29.2442 10.5736 29.2058 10.9242 29.2483C11.2748 29.2908 11.6109 29.413 11.9068 29.6057C12.2027 29.7984 12.4505 30.0562 12.6311 30.3596C12.6863 30.4697 12.7234 30.5879 12.7411 30.7097H15.2211C15.1338 30.1467 14.944 29.6042 14.6611 29.1096C14.3992 28.6696 14.0605 28.2802 13.6611 27.9597C13.2296 27.633 12.7414 27.3892 12.2211 27.24C11.5994 27.0532 10.948 26.9851 10.3011 27.0398C9.70775 27.0803 9.12753 27.2332 8.59113 27.49C8.11265 27.7137 7.67623 28.0181 7.30109 28.3899C7.20109 28.4899 7.16109 28.5597 7.05109 28.6697C6.3849 29.4535 5.99179 30.4328 5.9311 31.4597Z" fill="#5E6C81"/>
<path fill-rule="evenodd" clip-rule="evenodd" d="M16.291 36.3301H18.681V24.4902C18.681 24.4102 18.6811 24.3901 18.5811 24.3901H16.291V36.3301Z" fill="#5E6C81"/>
<path fill-rule="evenodd" clip-rule="evenodd" d="M23.5512 41.53V40.8401H22.6312C22.5512 40.8401 22.5312 40.8402 22.5312 40.9402V45.5203C22.5312 45.7303 22.9912 45.6501 23.4512 45.6501C23.6012 45.6501 23.5512 45.4001 23.5512 45.1301C23.5512 44.2601 23.4212 42.7301 23.8212 42.1301C23.9114 41.9876 24.0362 41.8702 24.1839 41.7888C24.3316 41.7075 24.4975 41.6648 24.6662 41.6648C24.8349 41.6648 25.0008 41.7075 25.1485 41.7888C25.2962 41.8702 25.421 41.9876 25.5112 42.1301C25.6318 42.4869 25.6761 42.8654 25.6412 43.2405V45.4304C25.6412 45.7304 25.5812 45.6604 26.5612 45.6604C26.7112 45.6604 26.6612 45.4104 26.6612 45.1404V43.1404C26.6269 42.8848 26.665 42.6245 26.7711 42.3894C26.8771 42.1543 27.0469 41.9538 27.2612 41.8103C27.4739 41.6777 27.7286 41.6297 27.9749 41.676C28.2212 41.7223 28.4412 41.8595 28.5912 42.0603C28.9012 42.6203 28.5912 44.8204 28.7512 45.6204H29.2712C29.4212 45.6204 29.7312 45.6803 29.7312 45.5203V42.3801C29.7615 41.9678 29.6269 41.5604 29.3569 41.2473C29.0869 40.9342 28.7035 40.7409 28.2912 40.7102C28.0072 40.6725 27.7182 40.7067 27.4509 40.8098C27.1835 40.9129 26.9464 41.0814 26.7612 41.3L26.4912 41.6604C26.3974 41.3921 26.2253 41.1579 25.9971 40.9885C25.7689 40.8192 25.4952 40.7223 25.2112 40.7102C24.8124 40.6576 24.4078 40.7501 24.0712 40.9705C24.0198 41.0045 23.9728 41.0445 23.9312 41.0901L23.8612 41.1501C23.7412 41.2701 23.6312 41.47 23.5512 41.53Z" fill="#7E8AA0"/>
<path fill-rule="evenodd" clip-rule="evenodd" d="M8.8418 44.7604C8.63833 44.7719 8.43474 44.7394 8.24493 44.6652C8.05513 44.591 7.88352 44.4767 7.74176 44.3303C7.51951 44.1218 7.36505 43.8513 7.29846 43.5539C7.23188 43.2565 7.25629 42.9457 7.36841 42.6623C7.48053 42.3789 7.67521 42.1359 7.92725 41.9645C8.17928 41.7932 8.47704 41.7019 8.7818 41.7019C9.08655 41.7019 9.38425 41.7932 9.63629 41.9645C9.88833 42.1359 10.083 42.3789 10.1951 42.6623C10.3073 42.9457 10.3317 43.2565 10.2651 43.5539C10.1985 43.8513 10.044 44.1218 9.82178 44.3303C9.69647 44.4733 9.54293 44.5887 9.37085 44.6696C9.19877 44.7505 9.01185 44.7948 8.82178 44.8L8.8418 44.7604ZM7.3418 41.59V40.84H6.3418V47.7702H7.3418V44.8903C7.59987 45.2275 7.94587 45.487 8.3418 45.6403C8.83706 45.7856 9.36746 45.7535 9.8418 45.55C9.93786 45.5053 10.0313 45.4553 10.1218 45.4001L10.6017 44.9704C10.8917 44.5814 11.0809 44.1265 11.1524 43.6467C11.2239 43.1668 11.1756 42.677 11.0118 42.2204C10.8845 41.8109 10.6354 41.4497 10.2977 41.1853C9.96007 40.9208 9.54988 40.7658 9.12177 40.7404C8.84353 40.712 8.56243 40.7446 8.29816 40.8361C8.03388 40.9277 7.79283 41.0758 7.5918 41.2702L7.40179 41.5002L7.3418 41.59Z" fill="#7E8AA0"/>
<path fill-rule="evenodd" clip-rule="evenodd" d="M12.7922 43.2701C12.8188 42.9681 12.9414 42.6824 13.1419 42.4551C13.3424 42.2278 13.6104 42.0709 13.9067 42.0069C14.203 41.9428 14.5119 41.975 14.7884 42.0992C15.0649 42.2233 15.2945 42.4328 15.4434 42.6968C15.5924 42.9608 15.6529 43.2656 15.6163 43.5665C15.5796 43.8673 15.4477 44.1487 15.2397 44.3692C15.0317 44.5897 14.7586 44.7379 14.4604 44.792C14.1622 44.8462 13.8544 44.8033 13.5822 44.67C13.328 44.5395 13.1176 44.3373 12.9772 44.0884C12.8368 43.8396 12.7724 43.5551 12.7922 43.2701ZM11.7922 43.0699C11.7585 43.4449 11.8028 43.8231 11.9222 44.1802C11.9968 44.4596 12.1271 44.7209 12.3051 44.9488C12.4831 45.1767 12.7052 45.3664 12.9582 45.5064C13.2112 45.6464 13.4899 45.7339 13.7775 45.7637C14.0652 45.7936 14.3558 45.7653 14.6322 45.6802C15.0274 45.5255 15.3731 45.2663 15.6322 44.9302C15.6322 45.0702 15.6322 45.2099 15.6322 45.3599C15.6322 45.5099 15.6322 45.66 15.7322 45.69C15.8322 45.72 16.4522 45.69 16.6122 45.69C16.6922 45.33 16.6122 41.69 16.6122 40.98C16.6122 40.9 16.6122 40.8799 16.5122 40.8799H15.5922V41.6299C15.2965 41.2222 14.8628 40.936 14.3718 40.8238C13.8807 40.7116 13.3657 40.7812 12.9222 41.0201L12.4722 41.3599C12.042 41.8111 11.796 42.4066 11.7822 43.0298L11.7922 43.0699Z" fill="#7E8AA0"/>
<path fill-rule="evenodd" clip-rule="evenodd" d="M32.7716 41.6301C33.0266 41.592 33.2871 41.6319 33.519 41.7443C33.751 41.8567 33.9436 42.0368 34.0716 42.2605C34.1385 42.3926 34.1953 42.5294 34.2416 42.6701H31.5316C31.5619 42.5318 31.6161 42.3997 31.6916 42.28C31.7616 42.158 31.8531 42.0497 31.9616 41.9602C32.1821 41.7546 32.4703 41.6371 32.7716 41.6301ZM35.2216 44.1501H34.2216C34.116 44.3609 33.953 44.5378 33.7512 44.6599C33.5495 44.782 33.3174 44.8443 33.0816 44.84H32.8816C32.5284 44.8404 32.1888 44.7042 31.9335 44.4602C31.6782 44.2161 31.5271 43.8828 31.5116 43.53H35.3716C35.4122 43.1634 35.3772 42.7927 35.2689 42.4401C35.1605 42.0876 34.9811 41.7607 34.7416 41.4802C34.3352 41.0448 33.7763 40.7833 33.1816 40.7502C32.6714 40.6857 32.154 40.7885 31.7069 41.0427C31.2599 41.2969 30.9072 41.6889 30.7016 42.1604C30.5204 42.5902 30.4518 43.0589 30.5026 43.5227C30.5533 43.9864 30.7217 44.4298 30.9916 44.8103C31.2359 45.1069 31.5438 45.3447 31.8925 45.5061C32.2413 45.6674 32.6219 45.7482 33.0061 45.7424C33.3903 45.7366 33.7682 45.6446 34.112 45.4729C34.4557 45.3011 34.7563 45.054 34.9916 44.7502C35.1036 44.562 35.1814 44.3556 35.2216 44.1403V44.1501Z" fill="#7E8AA0"/>
<path fill-rule="evenodd" clip-rule="evenodd" d="M45.3216 42.1199C45.292 42.3133 45.3198 42.511 45.4016 42.6888C45.4834 42.8665 45.6155 43.0165 45.7816 43.1199C46.5493 43.4474 47.3461 43.7017 48.1616 43.8797C48.6916 44.1197 48.6216 44.7899 47.3916 44.7899C46.1616 44.7899 46.2716 44.0101 46.0216 44.0101H45.1016C45.1016 44.9001 46.1016 45.63 47.1616 45.68C47.2976 45.698 47.4355 45.698 47.5716 45.68C47.8825 45.691 48.1921 45.6339 48.4788 45.513C48.7655 45.3921 49.0224 45.2101 49.2316 44.9798C49.4179 44.719 49.4979 44.3971 49.4552 44.0794C49.4125 43.7617 49.2503 43.4721 49.0016 43.2698C48.7287 43.105 48.4318 42.9837 48.1216 42.91C47.8816 42.85 46.8316 42.5998 46.6516 42.5198C46.0016 42.2298 46.4216 41.6497 47.3316 41.6497C47.5128 41.6333 47.6954 41.6551 47.8677 41.7137C48.0399 41.7723 48.198 41.8666 48.3316 41.9901C48.5716 42.3001 48.2216 42.2401 49.4516 42.2401C49.4516 41.4201 48.5116 40.7698 47.5916 40.7698C47.0155 40.7011 46.4332 40.8318 45.9416 41.14C45.7684 41.243 45.622 41.3852 45.5142 41.5555C45.4065 41.7258 45.3405 41.9193 45.3216 42.1199Z" fill="#7E8AA0"/>
<path fill-rule="evenodd" clip-rule="evenodd" d="M37.002 41.5298V40.8398H36.002V45.5498C36.002 45.7198 36.3719 45.6499 36.8519 45.6499C36.9049 45.659 36.959 45.659 37.012 45.6499C37.012 44.7899 37.012 43.9298 37.012 43.0698C36.986 42.8139 37.0415 42.5564 37.1707 42.334C37.2999 42.1116 37.4961 41.9358 37.7312 41.8315C37.9663 41.7273 38.2284 41.6998 38.48 41.7534C38.7315 41.807 38.9598 41.9388 39.132 42.1299C39.3243 43.1176 39.3815 44.1268 39.3019 45.1299C39.3019 45.8299 39.1219 45.6899 40.2219 45.6899C40.3019 45.6899 40.322 45.6898 40.322 45.5898V42.6499C40.3483 42.3166 40.2808 41.9825 40.127 41.6855C39.9732 41.3886 39.7394 41.141 39.452 40.9702C39.1578 40.8366 38.8365 40.773 38.5137 40.7852C38.1908 40.7973 37.8753 40.8847 37.592 41.04C37.4769 41.1077 37.3725 41.1919 37.282 41.29L37.002 41.5298Z" fill="#7E8AA0"/>
<path fill-rule="evenodd" clip-rule="evenodd" d="M17.7914 47.77H18.8714C18.9514 47.63 19.0014 47.5001 19.0714 47.3501L20.9314 43.2603C20.9314 43.1803 20.9914 43.1098 21.0314 43.0298C21.0714 42.9498 22.0314 40.9498 22.0314 40.8398H20.9514L20.6314 41.6001C20.3814 42.2201 19.9414 43.0902 19.6914 43.7002C19.6914 43.8202 19.6914 43.8099 19.5814 43.8799C19.5814 43.7199 19.1914 42.9603 19.1014 42.7603L18.7714 42.0103C18.7114 41.8703 18.6714 41.7601 18.6114 41.6201C18.5514 41.4801 18.4914 41.36 18.4414 41.23L18.2714 40.8398H17.1914L18.1914 42.98C18.2614 43.14 18.3114 43.2502 18.3814 43.4102L18.7714 44.29C18.8314 44.44 18.8914 44.5602 18.9614 44.7202C19.1514 45.1502 19.0914 44.98 18.6214 46.04L17.7914 47.77Z" fill="#7E8AA0"/>
<path fill-rule="evenodd" clip-rule="evenodd" d="M41.6312 39.8301V40.8301H40.7812V41.7798H41.6312C41.5522 42.7833 41.6127 43.7929 41.8112 44.7798C41.9564 45.1325 42.2186 45.4248 42.5536 45.6069C42.8887 45.7891 43.2763 45.8498 43.6512 45.7798C44.0398 45.7463 44.4175 45.6345 44.7612 45.4502L44.6012 44.6299C44.1912 44.6299 43.7112 45.0303 43.1312 44.7603C43.0152 44.707 42.9153 44.624 42.8412 44.52C42.6926 44.2661 42.6229 43.9738 42.6412 43.6802V41.8501H44.6412V40.8999H42.6412V39.5898L41.8312 39.77C41.7112 39.73 41.6312 39.7101 41.6312 39.8301Z" fill="#7E8AA0"/>
</svg>
