<svg width="127" height="29" viewBox="0 0 127 29" fill="none" xmlns="http://www.w3.org/2000/svg">
<path fill-rule="evenodd" clip-rule="evenodd" d="M33.3353 27.8521H42.3941C42.8741 27.8521 42.8138 26.6816 42.8238 26.2514L43.0937 22.4797C43.1129 22.1465 43.1129 21.8124 43.0937 21.4792L43.414 17.7475C43.494 16.1868 43.7338 14.1959 43.7338 12.8453C43.9538 13.1654 44.9439 16.6971 45.0539 17.0673C45.4839 18.578 45.9034 19.9086 46.3433 21.4293C46.7832 22.95 47.1932 24.2205 47.6131 25.7011C47.8531 26.5215 47.9235 27.1319 48.5334 27.5521C50.6331 29.0428 53.6126 28.0423 54.1625 26.2514L55.3723 21.8195C55.5823 21.0291 57.7522 13.5356 57.8022 12.9453L58.0019 13.7057C58.0718 14.386 58.002 15.4965 58.162 16.637C58.252 17.1973 58.2619 18.0077 58.3119 18.5079L58.4417 20.4088C58.4417 21.7294 58.5817 22.9099 58.6517 24.2505C58.6517 24.7107 58.732 24.6407 58.762 25.1009L58.8616 27.1018C58.8616 27.502 58.7717 27.8421 59.1916 27.8421H68.1406C68.5905 27.8421 68.4107 27.2519 68.2807 26.2114L66.9308 12.115C66.3009 7.68293 67.0807 3.94122 63.8111 2.11038C62.491 1.39669 61.0102 1.0339 59.5099 1.05667C58.0097 1.07944 56.5403 1.48702 55.2425 2.24044C54.6677 2.54407 54.1717 2.97832 53.7949 3.50823C53.4181 4.03815 53.1706 4.64902 53.0724 5.29189C52.4424 7.48289 51.073 11.4547 50.663 13.2956L48.343 5.3819C48.2347 4.75034 48.0023 4.14654 47.659 3.60557C47.3158 3.0646 46.8684 2.5972 46.3433 2.23043C45.1345 1.43709 43.7352 0.983229 42.2911 0.91635C40.8471 0.849472 39.4113 1.17202 38.1345 1.85025C35.3649 3.23088 35.2648 4.71161 35.0748 7.53291C35.0748 8.15319 34.9049 8.95356 34.8649 9.53382C34.8249 10.1141 34.755 10.9844 34.675 11.5847C34.595 12.185 34.5951 12.8553 34.5251 13.5856L33.3353 27.8521Z" fill="#1D4299"/>
<path fill-rule="evenodd" clip-rule="evenodd" d="M82.6582 12.5051V1.19986H72.8593V24.0104C72.876 24.6129 73.029 25.204 73.306 25.7393C73.583 26.2746 73.977 26.7403 74.4591 27.1017C75.2234 27.6173 76.0867 27.9678 76.9939 28.1308C77.9012 28.2937 78.8327 28.2654 79.7284 28.048C80.6242 27.8305 81.4646 27.4285 82.1963 26.8676C82.9281 26.3068 83.5347 25.5995 83.9778 24.7907C84.3578 24.1504 88.4675 17.4974 88.7374 17.2973V26.5716C88.7374 27.0618 88.5973 27.632 89.0572 27.632H98.326C98.5759 27.632 98.6457 27.562 98.6457 27.3119V6.20215C98.6701 5.44041 98.5689 4.67986 98.346 3.95112C97.2061 0.859702 92.3469 -0.0507241 88.9274 2.44042C87.6575 3.44087 87.4375 4.25126 86.6376 5.58187C86.0577 6.47228 82.9782 12.275 82.6582 12.5051Z" fill="#1D4299"/>
<path fill-rule="evenodd" clip-rule="evenodd" d="M103.535 10.5844V28.2826H113.053V12.5053C113.053 9.44394 113.753 9.09374 115.713 9.09374C117.863 9.09374 118.123 12.5354 115.363 12.9055C113.943 13.0956 114.363 11.2748 114.363 20.0689C114.363 20.5791 115.073 20.389 116.363 20.389C118.164 20.4793 119.955 20.0806 121.548 19.2352C123.141 18.3898 124.476 17.1292 125.412 15.5867C126.249 14.2689 126.662 12.725 126.592 11.1648V9.93422C126.592 1.39031 112.593 -1.78116 107.014 3.67134C106.454 4.22159 106.774 3.67129 106.014 4.62173C105.477 5.16702 105.016 5.78291 104.644 6.45252C103.944 7.71878 103.563 9.13722 103.535 10.5844Z" fill="#1D4299"/>
<path fill-rule="evenodd" clip-rule="evenodd" d="M2.01929 18.4678C1.96647 20.0287 2.4856 21.5551 3.47905 22.7598C5.50968 25.5836 8.56318 27.5009 11.9876 28.1022C14.1991 28.5417 16.4855 28.4179 18.6366 27.742C19.8109 27.43 20.926 26.9264 21.9365 26.2514C19.9067 26.3187 17.9263 25.6157 16.3928 24.2835C14.8593 22.9513 13.886 21.0884 13.6676 19.0681C13.4876 17.8076 13.6674 16.607 12.4676 15.0663C11.7281 14.0589 10.6717 13.3295 9.46798 12.9953C8.61019 12.7468 7.70697 12.6987 6.82771 12.855C5.94845 13.0112 5.11672 13.3675 4.3969 13.8963C3.67707 14.4252 3.08822 15.1124 2.67594 15.9051C2.26366 16.6977 2.0392 17.5744 2.01929 18.4678Z" fill="#EB1C25"/>
<path fill-rule="evenodd" clip-rule="evenodd" d="M0.949219 14.8465C1.23918 14.6564 1.26919 14.4863 1.46917 14.1962C2.47789 12.7544 3.92527 11.6775 5.59555 11.1258C7.26583 10.5741 9.06959 10.5772 10.7379 11.1348C12.5177 11.7351 14.4274 13.2758 17.467 11.8751C18.3503 11.4249 19.1059 10.7588 19.6634 9.93859C20.221 9.11836 20.5625 8.17057 20.6565 7.18306C20.7399 6.32102 20.6062 5.45175 20.2674 4.6548C19.9285 3.85785 19.3953 3.15859 18.7168 2.62091C17.6395 1.57484 16.2169 0.959244 14.7173 0.890137H13.5178C11.4114 1.08404 9.3684 1.71432 7.51863 2.74096C7.17176 2.95072 6.83786 3.18131 6.51876 3.43134C4.54621 4.88595 3.0158 6.86015 2.09896 9.1339C1.34632 10.9446 0.955777 12.8854 0.949219 14.8465Z" fill="#1D4299"/>
<path fill-rule="evenodd" clip-rule="evenodd" d="M22.5771 6.53176V7.53222C22.3722 9.78398 21.2958 11.8663 19.5775 13.3348C17.6478 14.8255 15.9081 15.6559 15.9081 18.7273C15.914 20.1473 16.4367 21.5165 17.3781 22.579C17.8255 23.031 18.3254 23.4275 18.8676 23.7596C19.7949 24.2367 20.8364 24.4472 21.876 24.3677C22.9156 24.2882 23.9129 23.9219 24.757 23.3095C25.1167 23.0035 25.4511 22.669 25.7568 22.309C27.1766 20.9084 28.4464 17.1766 28.4464 14.8755C28.5644 13.175 28.3155 11.469 27.7165 9.87326C26.8091 7.3028 25.1114 5.08592 22.8671 3.5404C22.4497 3.17075 21.9543 2.90049 21.4176 2.75C22.13 3.8865 22.5298 5.19103 22.5771 6.53176Z" fill="white"/>
</svg>
