<svg width="127" height="29" viewBox="0 0 127 29" fill="none" xmlns="http://www.w3.org/2000/svg">
<path fill-rule="evenodd" clip-rule="evenodd" d="M32.7715 27.8499H41.8314C42.3114 27.8499 42.2515 26.6798 42.2615 26.2498L42.5315 22.4798C42.5506 22.1468 42.5506 21.8129 42.5315 21.4798L42.8514 17.7498C42.9314 16.1898 43.1715 14.1999 43.1715 12.8499C43.3915 13.1699 44.3815 16.6997 44.4915 17.0697C44.9215 18.5797 45.3415 19.91 45.7815 21.43C46.2215 22.95 46.6315 24.22 47.0515 25.7C47.2915 26.52 47.3614 27.1297 47.9714 27.5497C50.0714 29.0397 53.0514 28.0398 53.6014 26.2498L54.8115 21.8197C55.0215 21.0297 57.1915 13.54 57.2415 12.95L57.4414 13.7098C57.5114 14.3898 57.4414 15.5 57.6014 16.64C57.6914 17.2 57.7015 18.0101 57.7515 18.5101L57.8815 20.41C57.8815 21.73 58.0214 22.9098 58.0914 24.2498C58.0914 24.7098 58.1714 24.6399 58.2014 25.0999L58.3015 27.0999C58.3015 27.4999 58.2115 27.8397 58.6315 27.8397H67.5814C68.0314 27.8397 67.8514 27.2498 67.7214 26.2098L66.3715 12.12C65.7415 7.68997 66.5215 3.94997 63.2515 2.11997C61.9312 1.40661 60.4499 1.04398 58.9495 1.06674C57.449 1.08951 55.9795 1.49678 54.6815 2.24985C54.1067 2.55334 53.6109 2.98727 53.234 3.51694C52.8572 4.04661 52.6097 4.65708 52.5115 5.29965C51.8815 7.48966 50.5114 11.4597 50.1014 13.2997L47.7815 5.38999C47.6731 4.75872 47.4405 4.15532 47.0972 3.6146C46.7539 3.07388 46.3067 2.60668 45.7815 2.24008C44.5725 1.44711 43.1728 0.993456 41.7285 0.926608C40.2842 0.85976 38.8484 1.1818 37.5714 1.85971C34.8014 3.23971 34.7015 4.71989 34.5115 7.53989C34.5115 8.15989 34.3415 8.95989 34.3015 9.53989C34.2615 10.1199 34.1915 10.9897 34.1115 11.5897C34.0315 12.1897 34.0314 12.8597 33.9614 13.5897L32.7715 27.8499Z" fill="#5E6C81"/>
<path fill-rule="evenodd" clip-rule="evenodd" d="M82.1027 12.5102V1.22012H72.3027V24.0199C72.3195 24.6222 72.472 25.2129 72.749 25.7479C73.0261 26.283 73.4205 26.7485 73.9027 27.1098C74.6671 27.6251 75.5305 27.9757 76.4379 28.1386C77.3452 28.3014 78.2766 28.2729 79.1725 28.0556C80.0684 27.8382 80.909 27.4365 81.6409 26.8759C82.3727 26.3153 82.9796 25.6081 83.4227 24.7997C83.8027 24.1597 87.9127 17.51 88.1827 17.31V26.58C88.1827 27.07 88.0427 27.64 88.5027 27.64H97.7727C98.0227 27.64 98.0927 27.5697 98.0927 27.3197V6.26992C98.117 5.50853 98.0157 4.74833 97.7927 4.01992C96.6527 0.929921 91.7927 0.0201557 88.3727 2.51016C87.1027 3.51016 86.8826 4.3198 86.0826 5.6498C85.5326 6.4798 82.4227 12.2702 82.1027 12.5102Z" fill="#5E6C81"/>
<path fill-rule="evenodd" clip-rule="evenodd" d="M103.002 10.5896V28.2698H112.482V12.4998C112.482 9.43976 113.182 9.0896 115.142 9.0896C117.292 9.0896 117.552 12.5297 114.792 12.8997C113.372 13.0897 113.792 11.2698 113.792 20.0598C113.792 20.5698 114.502 20.3796 115.792 20.3796C117.593 20.4699 119.385 20.0718 120.978 19.2268C122.571 18.3818 123.906 17.1216 124.842 15.5798C125.678 14.2655 126.09 12.7259 126.022 11.1697V9.9397C126.022 1.3997 112.022 -1.77007 106.442 3.67993C105.882 4.22993 106.202 3.67964 105.442 4.62964C104.904 5.17477 104.444 5.79048 104.072 6.45972C103.385 7.72898 103.018 9.14644 103.002 10.5896Z" fill="#5E6C81"/>
<path fill-rule="evenodd" clip-rule="evenodd" d="M1.45093 18.4798C1.3981 20.04 1.91743 21.5658 2.91102 22.7698C4.94192 25.5924 7.99608 27.5087 11.421 28.1097C13.6328 28.5491 15.9195 28.4254 18.0709 27.7498C19.2454 27.438 20.3604 26.9348 21.371 26.2601C19.341 26.3274 17.3605 25.6244 15.8268 24.2928C14.293 22.9612 13.3194 21.0993 13.101 19.0799C12.921 17.8199 13.101 16.6199 11.901 15.0799C11.1615 14.073 10.1049 13.3441 8.90101 13.0101C8.04311 12.7617 7.13964 12.7133 6.26026 12.8695C5.38088 13.0256 4.54903 13.3819 3.82911 13.9105C3.10918 14.4391 2.52038 15.126 2.10804 15.9183C1.6957 16.7105 1.47085 17.5869 1.45093 18.4798Z" fill="#7E8AA0"/>
<path fill-rule="evenodd" clip-rule="evenodd" d="M0.382812 14.8501C0.672812 14.6601 0.702832 14.4902 0.902832 14.2002C1.91169 12.7591 3.35927 11.6823 5.02979 11.1309C6.7003 10.5794 8.5043 10.5828 10.1729 11.1401C11.9529 11.7401 13.8628 13.2799 16.9028 11.8799C17.7863 11.4298 18.5418 10.7642 19.0995 9.94434C19.6571 9.12448 19.9988 8.177 20.0928 7.18994C20.1762 6.3283 20.0424 5.45967 19.7035 4.66309C19.3646 3.86651 18.8315 3.16732 18.1528 2.62988C17.0754 1.58429 15.6526 0.968978 14.1528 0.899902H12.9528C10.8461 1.09372 8.80279 1.72383 6.95276 2.75C6.60584 2.95966 6.2719 3.19002 5.95276 3.43994C3.97993 4.89389 2.4498 6.86743 1.53284 9.14014C0.780094 10.95 0.389372 12.8899 0.382812 14.8501Z" fill="#5E6C81"/>
<path fill-rule="evenodd" clip-rule="evenodd" d="M22.0021 6.54004V7.54004C21.7972 9.79077 20.7206 11.872 19.0021 13.3398C17.0821 14.8298 15.332 15.66 15.332 18.73C15.3379 20.1493 15.8606 21.518 16.8021 22.5801C17.2496 23.0318 17.7499 23.4282 18.2921 23.7603C19.2195 24.2371 20.2609 24.4471 21.3007 24.3677C22.3404 24.2882 23.3379 23.9223 24.1821 23.3101C24.5419 23.0043 24.8764 22.6699 25.1821 22.3101C26.6021 20.9101 27.8721 17.1799 27.8721 14.8799C27.9901 13.1802 27.7412 11.4749 27.1421 9.87988C26.2345 7.31061 24.5367 5.09462 22.2921 3.5498C21.8747 3.18032 21.3788 2.91067 20.842 2.76025C21.5546 3.89624 21.9547 5.19992 22.0021 6.54004Z" fill="#94A1B9"/>
</svg>
