<svg width="172" height="35" viewBox="0 0 172 35" fill="none" xmlns="http://www.w3.org/2000/svg">
<path fill-rule="evenodd" clip-rule="evenodd" d="M51.1206 21.3799C51.1316 22.224 50.9575 23.0605 50.6106 23.8301C50.2661 24.575 49.74 25.2213 49.0806 25.71C48.3847 26.2427 47.589 26.6305 46.7406 26.8501C45.781 27.1004 44.7923 27.2214 43.8006 27.21C42.7757 27.214 41.7523 27.134 40.7406 26.9702C39.9234 26.8469 39.1263 26.6144 38.3706 26.2798L38.0406 26.1299V22.7798L38.8806 23.1401C39.2621 23.3028 39.6527 23.443 40.0506 23.5601C40.4406 23.6801 40.8906 23.8001 41.3106 23.8901C41.7306 23.9801 42.1806 24.0401 42.6006 24.1001C43.0206 24.1601 43.4706 24.1602 43.8906 24.1602C44.4857 24.1707 45.0798 24.1101 45.6606 23.98C46.0783 23.8825 46.4749 23.7099 46.8306 23.4702C47.1145 23.2717 47.3418 23.0027 47.4906 22.6899C47.6337 22.3763 47.7055 22.0347 47.7006 21.6899C47.7042 21.437 47.6739 21.1848 47.6106 20.9399C47.5642 20.7516 47.4936 20.5701 47.4006 20.3999C47.2794 20.2244 47.1385 20.0633 46.9806 19.9199C46.7735 19.7292 46.5414 19.5678 46.2906 19.4399C45.9357 19.2305 45.5645 19.0499 45.1806 18.8999L43.5606 18.27C42.7378 17.987 41.9441 17.6252 41.1906 17.1899C40.5703 16.8499 40.0124 16.4069 39.5406 15.8799C39.0987 15.3959 38.7586 14.828 38.5406 14.21C38.3199 13.5457 38.2085 12.8499 38.2106 12.1499C38.1957 11.3858 38.3601 10.629 38.6906 9.93994C39.0117 9.26471 39.4964 8.68066 40.1006 8.24023C40.7268 7.7519 41.4392 7.38547 42.2006 7.16016C43.0479 6.91104 43.9275 6.78935 44.8106 6.7998C45.7572 6.79618 46.7019 6.88664 47.6306 7.06982C48.5264 7.24852 49.4011 7.52004 50.2406 7.87988L50.7506 8.08984L50.5706 8.6001L49.8806 10.5103L49.6706 11.1099L49.1006 10.8701C48.3834 10.5724 47.6403 10.3414 46.8806 10.1802C46.1809 10.0265 45.467 9.94579 44.7506 9.93994C44.2766 9.93893 43.8038 9.98912 43.3406 10.0898C42.9813 10.1737 42.6417 10.3267 42.3406 10.54C42.1044 10.7154 41.9098 10.9409 41.7706 11.2002C41.6444 11.4936 41.583 11.8105 41.5906 12.1299C41.592 12.381 41.612 12.6317 41.6506 12.8799C41.697 13.0682 41.7675 13.2498 41.8606 13.4199C41.9701 13.5956 42.1011 13.7568 42.2506 13.8999C42.4417 14.0834 42.653 14.2444 42.8806 14.3799C43.2048 14.5673 43.5386 14.7378 43.8806 14.8901C44.3006 15.0701 44.8106 15.2802 45.3806 15.4902C46.2789 15.8018 47.1516 16.1826 47.9906 16.6299C48.6327 16.965 49.2195 17.397 49.7306 17.9102C50.1647 18.3659 50.5045 18.9029 50.7306 19.4902C50.954 20.1124 51.0658 20.7691 51.0606 21.4302L51.1206 21.3799ZM25.7006 25.0298L0.640625 34.0298V28.27L25.7006 19.27V25.1001V25.0298ZM25.7006 6.10986L0.640625 15.1099V9.27002L25.7006 0.27002V6.1001V6.10986ZM23.0306 15.9399V11.46L3.31061 18.54V23.02L23.0306 15.9399ZM66.4306 26.5801L64.2106 20.9902H57.4406L55.2506 26.5801L55.1006 26.9702H51.6206L51.9506 26.1602L59.4406 7.2998L59.5906 6.91016H62.2906L62.4406 7.2998L69.8706 26.1602L70.2006 26.9702H66.5706L66.4206 26.5801H66.4306ZM63.0706 17.8198L61.1806 12.8198C61.0906 12.5798 60.9706 12.2803 60.8806 12.0103L60.6106 12.8198L58.6906 17.8198H63.0706ZM72.0006 26.3701V7.01025H75.3906V23.7998H85.0006V26.9702H72.0006V26.3701ZM92.3506 26.9702H92.9506V10.1201H99.5406V6.97998H83.0006V10.1201H89.5906V26.9399H90.1906H92.3806L92.3506 26.9702ZM114.891 26.9702H102.001V6.97021H115.501V10.1099H105.341V14.98H115.001V18.1201H105.351V23.8301H115.501V26.9702H114.901H114.891ZM135.481 16.8101C135.509 18.2707 135.286 19.7251 134.821 21.1099C134.407 22.3404 133.696 23.4499 132.751 24.3398C131.815 25.2611 130.673 25.9467 129.421 26.3398C127.994 26.7904 126.506 27.0133 125.011 27H119.171V7H125.551C126.956 6.98112 128.355 7.19386 129.691 7.62988C130.881 8.04432 131.959 8.72888 132.841 9.62988C133.731 10.5157 134.414 11.5883 134.841 12.77C135.304 14.0724 135.528 15.448 135.501 16.8301L135.481 16.8101ZM131.971 16.8701C131.98 15.8549 131.838 14.8439 131.551 13.8701C131.306 13.0816 130.874 12.364 130.291 11.7798C129.706 11.2067 128.998 10.7758 128.221 10.52C127.252 10.2054 126.239 10.0532 125.221 10.0698H122.601V23.8799H124.671C125.777 23.9006 126.881 23.749 127.941 23.4302C128.783 23.1763 129.554 22.7275 130.191 22.1201C130.809 21.5239 131.272 20.786 131.541 19.9702C131.846 18.9997 131.998 17.9875 131.991 16.9702L131.971 16.8701ZM147.321 15.9399H154.321V26.1001L153.901 26.2202C153.391 26.3702 152.901 26.5201 152.341 26.6401C151.781 26.7601 151.341 26.8499 150.751 26.9399C150.174 27.0326 149.594 27.0929 149.011 27.1201C148.381 27.1201 147.751 27.1802 147.061 27.1802C145.697 27.1896 144.342 26.956 143.061 26.4902C141.883 26.0555 140.825 25.3497 139.971 24.4302C139.093 23.5022 138.437 22.3875 138.051 21.1699C137.613 19.8 137.4 18.3683 137.421 16.9302C137.41 15.9652 137.511 15.0021 137.721 14.0601C137.918 13.1762 138.23 12.3221 138.651 11.52C139.057 10.7455 139.584 10.0403 140.211 9.43018C140.834 8.82482 141.541 8.31283 142.311 7.91016C143.125 7.48486 143.993 7.17183 144.891 6.97998C145.856 6.7705 146.842 6.67006 147.831 6.68018C148.838 6.67381 149.844 6.77418 150.831 6.97998C151.805 7.18306 152.759 7.47437 153.681 7.8501L154.251 8.08984L154.011 8.62988L153.171 10.5698L152.931 11.1099L152.391 10.8701C151.618 10.5337 150.814 10.2722 149.991 10.0898C149.242 9.9227 148.477 9.84243 147.711 9.8501C146.729 9.82859 145.752 9.99138 144.831 10.3301C144.036 10.6212 143.317 11.0899 142.731 11.7002C142.133 12.3305 141.682 13.0852 141.411 13.9102C141.098 14.8789 140.946 15.8923 140.961 16.9102C140.939 17.9841 141.091 19.0544 141.411 20.0801C141.666 20.8991 142.096 21.653 142.671 22.29C143.249 22.8818 143.958 23.3304 144.741 23.6001C145.708 23.9205 146.722 24.0724 147.741 24.0498C148.829 24.0468 149.914 23.9367 150.981 23.7202V19H146.751V15.8599H147.291L147.321 15.9399ZM171.031 26.9399H158.091V6.93994H171.641V10.0801H161.481V14.9502H171.131V18.0898H161.481V23.7998H171.641V26.9399H171.041H171.031Z" fill="#5E6C81"/>
</svg>
