<svg width="172" height="35" viewBox="0 0 172 35" fill="none" xmlns="http://www.w3.org/2000/svg">
<path fill-rule="evenodd" clip-rule="evenodd" d="M50.685 21.9461C50.696 22.7904 50.5216 23.627 50.1748 24.3969C49.8303 25.142 49.3045 25.7886 48.6452 26.2774C47.9494 26.8103 47.1539 27.1981 46.3056 27.4178C45.3461 27.6682 44.3571 27.7893 43.3656 27.7779C42.3408 27.782 41.3179 27.7017 40.3063 27.5378C39.4892 27.4145 38.6921 27.1823 37.9365 26.8475L37.6065 26.6975V23.3465L38.4462 23.7066C38.8276 23.8693 39.2182 24.0097 39.616 24.1268C40.0059 24.2468 40.4561 24.3668 40.8761 24.4568C41.2961 24.5469 41.746 24.607 42.166 24.667C42.5859 24.727 43.0359 24.7269 43.4559 24.7269C44.0509 24.7376 44.645 24.6772 45.2257 24.5469C45.6434 24.4494 46.0397 24.2765 46.3955 24.0368C46.6793 23.8382 46.9068 23.5694 47.0555 23.2565C47.1987 22.9427 47.2703 22.6011 47.2655 22.2562C47.269 22.0033 47.2384 21.7509 47.1752 21.506C47.1287 21.3176 47.0582 21.136 46.9652 20.9658C46.8441 20.7902 46.7032 20.6291 46.5454 20.4857C46.3383 20.2949 46.1063 20.1334 45.8555 20.0056C45.5006 19.7961 45.1296 19.6154 44.7458 19.4654L43.1258 18.8352C42.3031 18.552 41.5094 18.1903 40.756 17.7549C40.1359 17.4146 39.5781 16.9715 39.1063 16.4444C38.6645 15.9603 38.3244 15.3923 38.1064 14.774C37.8855 14.1096 37.774 13.4136 37.7764 12.7134C37.7615 11.9491 37.9258 11.192 38.2563 10.5027C38.5774 9.82731 39.0621 9.24284 39.6663 8.80228C40.2924 8.3138 41.0048 7.94726 41.7661 7.72189C42.6133 7.47255 43.4927 7.35119 44.3757 7.36179C45.3222 7.35823 46.2665 7.44872 47.1952 7.63189C48.0908 7.81078 48.9657 8.08225 49.8052 8.44207L50.3149 8.65222L50.1348 9.16238L49.4449 11.0729L49.235 11.6731L48.6652 11.4331C47.9481 11.1353 47.2048 10.9042 46.4453 10.7428C45.7456 10.589 45.032 10.5086 44.3156 10.5027C43.8417 10.5017 43.3688 10.5521 42.9056 10.6528C42.5464 10.7367 42.2068 10.8895 41.9058 11.1029C41.6696 11.2783 41.4751 11.5038 41.336 11.7631C41.2098 12.0566 41.1482 12.3739 41.1558 12.6933C41.157 12.9446 41.1771 13.1953 41.2159 13.4436C41.2622 13.6319 41.3328 13.8136 41.4258 13.9838C41.5354 14.1594 41.6665 14.3207 41.8159 14.4639C42.007 14.6473 42.2182 14.8084 42.4457 14.944C42.7698 15.1315 43.1036 15.3018 43.4456 15.4542C43.8656 15.6342 44.3755 15.8444 44.9454 16.0544C45.8436 16.3661 46.7165 16.7473 47.5555 17.1947C48.1982 17.533 48.7847 17.9682 49.295 18.4851C49.7291 18.9409 50.0689 19.4781 50.2949 20.0656C50.5183 20.688 50.6301 21.3449 50.625 22.0061L50.685 21.9461ZM25.2681 25.5972L0.210938 34.5998V28.7682L25.2681 19.7655V25.5972ZM25.2681 6.67165L0.210938 15.6743V9.84251L25.2681 0.839844V6.67165ZM22.598 16.5045V12.0032L2.88055 19.0852V23.5667L22.598 16.4845V16.5045ZM65.9933 27.1477L63.7733 21.5561H57.0041L54.8144 27.1477L54.6645 27.5378H51.185L51.515 26.7275L59.0039 7.86194L59.1537 7.47181H61.8536L62.0035 7.86194L69.4328 26.7275L69.7629 27.5378H66.1329L65.983 27.1477H65.9933ZM62.6333 18.3851L60.7439 13.3836C60.6539 13.1435 60.5336 12.8434 60.4436 12.5733L60.1736 13.3836L58.2539 18.3851H62.6333ZM71.5624 26.9377V7.57182H74.9522V24.3668H84.5111V27.5378H71.5624V26.9377ZM91.9102 27.5378H92.5102V10.6828H99.0993V7.5419H82.5211V10.6828H89.1102V27.5078H89.7102H91.8999L91.9102 27.5378ZM114.448 27.5378H101.499V7.53189H115.057V10.6728H104.898V15.5443H114.548V18.6852H104.898V24.3969H115.057V27.5378H114.457H114.448ZM135.035 17.3748C135.064 18.8358 134.84 20.2909 134.375 21.6761C133.961 22.907 133.25 24.0168 132.305 24.907C131.37 25.8286 130.228 26.5143 128.976 26.9076C127.55 27.3583 126.061 27.5811 124.566 27.5679H118.717V7.56193H125.096C126.501 7.54304 127.9 7.75584 129.236 8.192C130.426 8.60655 131.504 9.29132 132.385 10.1926C133.276 11.0787 133.959 12.1514 134.385 13.3335C134.849 14.6363 135.072 16.0123 135.045 17.3948L135.035 17.3748ZM131.526 17.4348C131.535 16.4193 131.393 15.408 131.105 14.434C130.861 13.6454 130.429 12.9279 129.846 12.3433C129.261 11.77 128.553 11.3388 127.776 11.0829C126.808 10.7683 125.794 10.6163 124.776 10.6328H122.166V24.4468H124.236C125.343 24.4675 126.446 24.3157 127.506 23.9967C128.348 23.7428 129.119 23.294 129.756 22.6864C130.374 22.09 130.837 21.3518 131.105 20.5357C131.411 19.565 131.563 18.5525 131.555 17.5349L131.526 17.4348ZM146.873 16.5045H153.873V26.6676L153.453 26.7876C152.943 26.9376 152.453 27.0876 151.893 27.2076C151.333 27.3277 150.893 27.4177 150.303 27.5078C149.727 27.6004 149.146 27.6606 148.563 27.6879C147.933 27.6879 147.304 27.7478 146.614 27.7478C145.25 27.7573 143.896 27.5236 142.614 27.0577C141.437 26.6228 140.379 25.9168 139.525 24.997C138.647 24.0687 137.99 22.9539 137.605 21.736C137.167 20.3657 136.954 18.9333 136.975 17.4948C136.964 16.5295 137.065 15.5662 137.275 14.624C137.472 13.7398 137.784 12.8855 138.205 12.0832C138.611 11.3084 139.138 10.6029 139.764 9.99258C140.387 9.38704 141.095 8.8749 141.864 8.47211C142.678 8.04658 143.546 7.73369 144.444 7.5419C145.41 7.33236 146.396 7.23165 147.384 7.24176C148.391 7.23539 149.397 7.33604 150.383 7.5419C151.358 7.74504 152.311 8.03632 153.233 8.41215L153.803 8.65222L153.563 9.19229L152.723 11.1329L152.483 11.6731L151.943 11.4331C151.17 11.0966 150.367 10.8353 149.544 10.6528C148.795 10.4856 148.03 10.4051 147.264 10.4127C146.282 10.3912 145.305 10.5541 144.384 10.8929C143.589 11.1841 142.871 11.6528 142.284 12.2633C141.687 12.8938 141.236 13.6487 140.964 14.4739C140.652 15.4429 140.5 16.4566 140.514 17.4748C140.493 18.5491 140.645 19.6198 140.964 20.6458C141.22 21.4651 141.649 22.2193 142.224 22.8564C142.802 23.4519 143.511 23.9042 144.294 24.1768C145.261 24.4973 146.276 24.6495 147.294 24.6269C148.382 24.6239 149.467 24.5134 150.533 24.2969V19.5754H146.304V16.4346H146.844L146.873 16.5045ZM170.581 27.5078H157.632V7.50185H171.181V10.6428H161.052V15.5142H170.701V18.6552H161.052V24.3668H171.211V27.5078H170.611H170.581Z" fill="white"/>
</svg>
