<svg width="162" height="27" viewBox="0 0 162 27" fill="none" xmlns="http://www.w3.org/2000/svg">
<path fill-rule="evenodd" clip-rule="evenodd" d="M104.557 26.3422V21.7336C105.657 21.5936 144.567 21.7336 147.057 21.7336C148.768 21.7336 160.63 21.6236 161.241 21.7336V26.3023C160.63 26.4623 148.828 26.3023 147.127 26.3023C144.647 26.3723 105.627 26.4822 104.557 26.3422Z" fill="#6B798E"/>
<path fill-rule="evenodd" clip-rule="evenodd" d="M51.7947 3.71907C52.5132 3.58255 53.2525 3.6012 53.9632 3.77362C54.674 3.94604 55.3399 4.26823 55.9159 4.71878C59.1767 7.20804 58.3762 13.4462 53.6951 14.266C53.0107 14.3896 52.3084 14.3729 51.6306 14.2168C50.9529 14.0608 50.314 13.7686 49.7527 13.3582C49.1914 12.9477 48.7196 12.4275 48.3656 11.8291C48.0117 11.2307 47.7828 10.5667 47.6936 9.87728C47.4663 8.43557 47.7915 6.96121 48.604 5.7485C48.9769 5.21416 49.4549 4.76134 50.0086 4.41759C50.5624 4.07385 51.1805 3.84638 51.825 3.74909L51.7947 3.71907ZM43.6828 9.49739C43.7317 11.304 44.3187 13.0551 45.3693 14.526C46.4199 15.997 47.8861 17.1211 49.5798 17.7542C51.2735 18.3874 53.1179 18.5007 54.8765 18.0799C56.6351 17.6591 58.2278 16.7233 59.4509 15.3921C60.6741 14.061 61.4719 12.3952 61.742 10.6081C62.0121 8.82111 61.7425 6.99415 60.9674 5.36128C60.1923 3.72842 58.947 2.36404 57.3913 1.44277C55.8356 0.5215 54.04 0.0852562 52.2348 0.19009C51.0558 0.22157 49.8951 0.489569 48.8218 0.978064C47.7485 1.46656 46.7844 2.1657 45.9866 3.03385C45.1889 3.90201 44.5739 4.92152 44.1781 6.03186C43.7823 7.1422 43.6141 8.32068 43.6828 9.49739Z" fill="#5E6C81"/>
<path fill-rule="evenodd" clip-rule="evenodd" d="M80.1999 7.74789L80.0201 7.99781C79.8301 8.09778 79.7301 8.22772 79.52 8.34769C78.4497 8.9575 74.9886 8.83756 73.9483 8.74759V3.86903C75.6882 3.72761 77.4389 3.80483 79.1596 4.09895C79.4964 4.23935 79.7971 4.45466 80.0382 4.72852C80.2793 5.00238 80.4546 5.32761 80.551 5.67941C80.6475 6.03121 80.6622 6.40037 80.5945 6.7588C80.5267 7.11723 80.378 7.4555 80.1598 7.74789H80.1999ZM80.8304 11.4068C85.0114 10.0572 85.3813 4.48885 82.9007 2.11955C81.5304 0.809942 79.7797 0.470018 77.3491 0.470018C74.9185 0.470018 72.568 0.410036 70.1974 0.470018V17.535H73.9185V12.0766H76.8191L80.5501 17.525H84.8509C84.7509 16.9952 80.9904 11.9967 80.8304 11.4068Z" fill="#5E6C81"/>
<path fill-rule="evenodd" clip-rule="evenodd" d="M151.929 5.1187C152.039 4.85877 151.849 5.02873 152.119 4.87878L152.189 5.10869L154.3 10.3872H149.849C150.127 9.47115 150.461 8.573 150.849 7.69789C151.233 6.85842 151.567 5.99724 151.849 5.1187H151.929ZM148.428 13.7061H155.69L157.26 17.495H161.152L153.86 0.330078H150.359C150.109 1.03987 149.759 1.7297 149.448 2.48947L144.887 13.2163C144.617 13.8761 143.157 17.0452 143.137 17.495H146.898L148.428 13.7061Z" fill="#5E6C81"/>
<path fill-rule="evenodd" clip-rule="evenodd" d="M116.358 16.3753L116.608 16.2053C117.358 15.4363 117.856 14.4567 118.035 13.3974C118.214 12.3381 118.065 11.2496 117.608 10.2771C116.108 7.40799 111.607 7.44798 109.686 6.27833C109.467 6.15423 109.286 5.97314 109.162 5.75431C109.039 5.53548 108.976 5.28704 108.982 5.03566C108.988 4.78427 109.063 4.53926 109.197 4.32676C109.332 4.11426 109.521 3.94223 109.746 3.82898C112.007 2.58935 115.308 5.04868 115.638 5.13865C116.332 4.24551 116.96 3.30326 117.518 2.31942C116.333 1.37614 114.941 0.725505 113.457 0.420081C105.455 -1.21943 103.755 5.79842 106.316 8.47763C108.606 10.8769 113.757 10.477 114.318 12.3165C114.379 12.5067 114.402 12.7075 114.385 12.9067C114.368 13.106 114.311 13.2999 114.217 13.4769C114.124 13.6539 113.997 13.8104 113.842 13.9373C113.687 14.0642 113.509 14.159 113.317 14.2159C111.704 14.6161 109.999 14.3685 108.566 13.5262C107.946 13.1963 107.226 12.5265 106.805 12.3965C106.505 12.9264 104.805 14.5859 104.705 15.0357C105.412 15.6994 106.223 16.243 107.105 16.6453C108.056 17.0991 109.066 17.4154 110.106 17.5849C111.33 17.8013 112.583 17.8013 113.807 17.5849C114.745 17.3994 115.621 16.9837 116.358 16.3753Z" fill="#5E6C81"/>
<path fill-rule="evenodd" clip-rule="evenodd" d="M11.9126 16.3851L12.1729 16.2151C12.923 15.4438 13.4204 14.4626 13.599 13.4018C13.7777 12.3411 13.6292 11.2512 13.1731 10.2769C11.6628 7.40777 7.17173 7.47775 5.25126 6.27811C5.03494 6.15323 4.85625 5.97234 4.73404 5.75458C4.61182 5.53683 4.55061 5.29028 4.55675 5.04068C4.56289 4.79108 4.63594 4.54767 4.76872 4.33618C4.90149 4.12469 5.08913 3.95287 5.31133 3.83877C7.53188 2.58914 10.7023 4.96849 11.2024 5.14844C11.9021 4.25722 12.5342 3.31479 13.093 2.32921C9.01203 -0.84985 2.31031 -0.589878 1.03 3.8788C0.787193 4.6573 0.738909 5.48338 0.888848 6.28494C1.03879 7.0865 1.38226 7.83916 1.89007 8.47741C4.40069 11.0067 9.37193 10.4768 9.89205 12.3863C10.4122 14.2957 7.89177 14.5856 6.36139 14.3857C4.8874 14.0867 3.51186 13.4233 2.3604 12.4562C1.56051 13.2694 0.830876 14.149 0.179688 15.0854C1.22995 16.3051 3.8007 17.3148 5.55114 17.6347C7.30157 17.9546 10.7323 17.7047 11.9126 16.3851Z" fill="#5E6C81"/>
<path fill-rule="evenodd" clip-rule="evenodd" d="M34.5188 5.49845C34.8889 5.00859 36.5192 3.25906 36.6692 2.93915C35.7376 1.93332 34.5835 1.15966 33.2988 0.679933C31.196 -0.0836647 28.8853 -0.0483239 26.8069 0.779269C24.7285 1.60686 23.0273 3.16898 22.026 5.16859C21.3739 6.51801 21.0761 8.01112 21.161 9.50727C21.2459 11.0034 21.7105 12.4533 22.511 13.7204C23.3115 14.9875 24.4213 16.0301 25.7364 16.7499C27.0514 17.4697 28.5286 17.843 30.028 17.8348C31.4431 17.8659 32.848 17.5932 34.1486 17.0351C35.2101 16.5344 36.1519 15.8117 36.9095 14.9157C36.1994 14.0759 35.4091 13.2561 34.5989 12.4363C34.1888 12.5963 33.5988 13.3062 32.6985 13.766C31.8975 14.2238 30.9871 14.4558 30.0646 14.4374C29.142 14.4191 28.2416 14.1509 27.4594 13.6616C26.6773 13.1722 26.0427 12.48 25.6231 11.6586C25.2034 10.8373 25.0145 9.91757 25.0765 8.99741C25.0332 7.92268 25.3218 6.86072 25.9034 5.95571C26.485 5.0507 27.3314 4.34647 28.3273 3.93885C31.8282 2.68922 34.0187 5.28851 34.5188 5.49845Z" fill="#5E6C81"/>
<path fill-rule="evenodd" clip-rule="evenodd" d="M70.0901 21.8236V26.2523C70.2101 26.3623 70.09 26.3023 70.2801 26.3623H70.9404C74.5013 26.3623 95.8563 26.4523 96.7266 26.3623V21.7637C95.8763 21.6337 70.39 21.7637 70.24 21.7637C69.7699 21.8736 70.3101 21.5337 70.0901 21.8236Z" fill="#7E8AA0"/>
<path fill-rule="evenodd" clip-rule="evenodd" d="M133.805 3.99887H138.806V0.609863H124.802V3.95885H129.954C130.334 4.7786 129.844 15.9553 130.074 17.5648H133.664C133.714 15.3155 133.664 12.9962 133.664 10.7469V4.74865C133.654 3.87891 133.605 3.99887 133.805 3.99887Z" fill="#5E6C81"/>
<path fill-rule="evenodd" clip-rule="evenodd" d="M61.8876 26.2724V21.8136C61.7475 21.6737 61.7775 21.6937 61.3874 21.7037C58.2667 21.7837 44.3834 21.5937 43.5231 21.7037C43.4246 23.2417 43.4246 24.7843 43.5231 26.3223C44.1733 26.4223 58.6768 26.3223 61.4675 26.3223C61.9476 26.3823 61.8275 26.3724 61.8876 26.2724Z" fill="#94A1B9"/>
<path fill-rule="evenodd" clip-rule="evenodd" d="M37.0191 26.2823V21.8037C36.8791 21.6737 36.8791 21.7036 36.519 21.7036C33.6383 21.7036 22.1757 21.6036 21.0254 21.7036V26.3322C21.8456 26.4222 33.6985 26.3322 36.0291 26.3322C36.4992 26.3722 36.9091 26.4523 37.0191 26.2823Z" fill="#7E8AA0"/>
<path fill-rule="evenodd" clip-rule="evenodd" d="M92.903 17.535L96.6239 17.525L96.5938 0.469968L92.8629 0.459961L92.903 17.535Z" fill="#5E6C81"/>
<path fill-rule="evenodd" clip-rule="evenodd" d="M13.8047 26.2423V21.8435C13.6446 21.6336 13.5348 21.7036 12.9846 21.7036C10.604 21.7036 0.721242 21.5937 0.121094 21.7536V26.3222C0.821267 26.5121 5.84286 26.3722 6.98315 26.3722H13.4745C13.9146 26.3422 13.7146 26.4222 13.8047 26.2423Z" fill="#6B798E"/>
<path fill-rule="evenodd" clip-rule="evenodd" d="M133.804 3.99904C133.604 4.07901 133.654 3.92904 133.664 4.7288V10.727C133.664 12.9864 133.714 15.2957 133.664 17.5451H130.103C129.873 15.9455 130.363 4.75875 129.983 3.939H124.832V0.590013H138.835V3.97902C139.045 3.88905 138.955 3.97909 138.985 3.66918V2.32949C139.02 1.73686 139.02 1.14274 138.985 0.550108C138.595 0.420146 126.092 0.420146 124.832 0.550108V4.05908H129.993C130.263 4.9888 129.873 15.2957 130.053 17.595C131.316 17.6755 132.582 17.6755 133.844 17.595L133.804 3.99904Z" fill="#5E6C81"/>
<path fill-rule="evenodd" clip-rule="evenodd" d="M151.928 5.11841C151.928 5.11841 152.068 5.0384 152.098 4.9884C152.098 5.3284 152.098 4.9884 152.188 5.1084L152.118 4.87842C151.848 4.99842 152.038 4.85841 151.928 5.11841Z" fill="#5E6C81"/>
<path fill-rule="evenodd" clip-rule="evenodd" d="M80.0195 7.9978L80.1992 7.7478C80.0892 7.8278 80.0895 7.7178 80.0195 7.9978Z" fill="#5E6C81"/>
<path fill-rule="evenodd" clip-rule="evenodd" d="M116.361 16.3751C116.631 16.2851 116.511 16.3751 116.611 16.2051L116.361 16.3751Z" fill="#5E6C81"/>
<path fill-rule="evenodd" clip-rule="evenodd" d="M11.9121 16.3851C12.1521 16.3051 12.0624 16.3851 12.1724 16.2151L11.9121 16.3851Z" fill="#5E6C81"/>
<path fill-rule="evenodd" clip-rule="evenodd" d="M104.557 26.3422V21.7336C105.657 21.5936 144.567 21.7336 147.057 21.7336C148.768 21.7336 160.63 21.6236 161.241 21.7336V26.3023C160.63 26.4623 148.828 26.3023 147.127 26.3023C144.647 26.3723 105.627 26.4822 104.557 26.3422Z" fill="#3AAC48"/>
<path fill-rule="evenodd" clip-rule="evenodd" d="M51.7947 3.71907C52.5132 3.58255 53.2525 3.6012 53.9632 3.77362C54.674 3.94604 55.3399 4.26823 55.9159 4.71878C59.1767 7.20804 58.3762 13.4462 53.6951 14.266C53.0107 14.3896 52.3084 14.3729 51.6306 14.2168C50.9529 14.0608 50.314 13.7686 49.7527 13.3582C49.1914 12.9477 48.7196 12.4275 48.3656 11.8291C48.0117 11.2307 47.7828 10.5667 47.6936 9.87728C47.4663 8.43557 47.7915 6.96121 48.604 5.7485C48.9769 5.21416 49.4549 4.76134 50.0086 4.41759C50.5624 4.07385 51.1805 3.84638 51.825 3.74909L51.7947 3.71907ZM43.6828 9.49739C43.7317 11.304 44.3187 13.0551 45.3693 14.526C46.4199 15.997 47.8861 17.1211 49.5798 17.7542C51.2735 18.3874 53.1179 18.5007 54.8765 18.0799C56.6351 17.6591 58.2278 16.7233 59.4509 15.3921C60.6741 14.061 61.4719 12.3952 61.742 10.6081C62.0121 8.82111 61.7425 6.99415 60.9674 5.36128C60.1923 3.72842 58.947 2.36404 57.3913 1.44277C55.8356 0.5215 54.04 0.0852562 52.2348 0.19009C51.0558 0.22157 49.8951 0.489569 48.8218 0.978064C47.7485 1.46656 46.7844 2.1657 45.9866 3.03385C45.1889 3.90201 44.5739 4.92152 44.1781 6.03186C43.7823 7.1422 43.6141 8.32068 43.6828 9.49739Z" fill="#E3E7F1"/>
<path fill-rule="evenodd" clip-rule="evenodd" d="M80.1999 7.74789L80.0201 7.99781C79.8301 8.09778 79.7301 8.22772 79.52 8.34769C78.4497 8.9575 74.9886 8.83756 73.9483 8.74759V3.86903C75.6882 3.72761 77.4389 3.80483 79.1596 4.09895C79.4964 4.23935 79.7971 4.45466 80.0382 4.72852C80.2793 5.00238 80.4546 5.32761 80.551 5.67941C80.6475 6.03121 80.6622 6.40037 80.5945 6.7588C80.5267 7.11723 80.378 7.4555 80.1598 7.74789H80.1999ZM80.8304 11.4068C85.0114 10.0572 85.3813 4.48885 82.9007 2.11955C81.5304 0.809942 79.7797 0.470018 77.3491 0.470018C74.9185 0.470018 72.568 0.410036 70.1974 0.470018V17.535H73.9185V12.0766H76.8191L80.5501 17.525H84.8509C84.7509 16.9952 80.9904 11.9967 80.8304 11.4068Z" fill="#E3E7F1"/>
<path fill-rule="evenodd" clip-rule="evenodd" d="M151.929 5.1187C152.039 4.85877 151.849 5.02873 152.119 4.87878L152.189 5.10869L154.3 10.3872H149.849C150.127 9.47115 150.461 8.573 150.849 7.69789C151.233 6.85842 151.567 5.99724 151.849 5.1187H151.929ZM148.428 13.7061H155.69L157.26 17.495H161.152L153.86 0.330078H150.359C150.109 1.03987 149.759 1.7297 149.448 2.48947L144.887 13.2163C144.617 13.8761 143.157 17.0452 143.137 17.495H146.898L148.428 13.7061Z" fill="#E3E7F1"/>
<path fill-rule="evenodd" clip-rule="evenodd" d="M116.358 16.3753L116.608 16.2053C117.358 15.4363 117.856 14.4567 118.035 13.3974C118.214 12.3381 118.065 11.2496 117.608 10.2771C116.108 7.40799 111.607 7.44798 109.686 6.27833C109.467 6.15423 109.286 5.97314 109.162 5.75431C109.039 5.53548 108.976 5.28704 108.982 5.03566C108.988 4.78427 109.063 4.53926 109.197 4.32676C109.332 4.11426 109.521 3.94223 109.746 3.82898C112.007 2.58935 115.308 5.04868 115.638 5.13865C116.332 4.24551 116.96 3.30326 117.518 2.31942C116.333 1.37614 114.941 0.725505 113.457 0.420081C105.455 -1.21943 103.755 5.79842 106.316 8.47763C108.606 10.8769 113.757 10.477 114.318 12.3165C114.379 12.5067 114.402 12.7075 114.385 12.9067C114.368 13.106 114.311 13.2999 114.217 13.4769C114.124 13.6539 113.997 13.8104 113.842 13.9373C113.687 14.0642 113.509 14.159 113.317 14.2159C111.704 14.6161 109.999 14.3685 108.566 13.5262C107.946 13.1963 107.226 12.5265 106.805 12.3965C106.505 12.9264 104.805 14.5859 104.705 15.0357C105.412 15.6994 106.223 16.243 107.105 16.6453C108.056 17.0991 109.066 17.4154 110.106 17.5849C111.33 17.8013 112.583 17.8013 113.807 17.5849C114.745 17.3994 115.621 16.9837 116.358 16.3753Z" fill="#E3E7F1"/>
<path fill-rule="evenodd" clip-rule="evenodd" d="M11.9126 16.3851L12.1729 16.2151C12.923 15.4438 13.4204 14.4626 13.599 13.4018C13.7777 12.3411 13.6292 11.2512 13.1731 10.2769C11.6628 7.40777 7.17173 7.47775 5.25126 6.27811C5.03494 6.15323 4.85625 5.97234 4.73404 5.75458C4.61182 5.53683 4.55061 5.29028 4.55675 5.04068C4.56289 4.79108 4.63594 4.54767 4.76872 4.33618C4.90149 4.12469 5.08913 3.95287 5.31133 3.83877C7.53188 2.58914 10.7023 4.96849 11.2024 5.14844C11.9021 4.25722 12.5342 3.31479 13.093 2.32921C9.01203 -0.84985 2.31031 -0.589878 1.03 3.8788C0.787193 4.6573 0.738909 5.48338 0.888848 6.28494C1.03879 7.0865 1.38226 7.83916 1.89007 8.47741C4.40069 11.0067 9.37193 10.4768 9.89205 12.3863C10.4122 14.2957 7.89177 14.5856 6.36139 14.3857C4.8874 14.0867 3.51186 13.4233 2.3604 12.4562C1.56051 13.2694 0.830876 14.149 0.179688 15.0854C1.22995 16.3051 3.8007 17.3148 5.55114 17.6347C7.30157 17.9546 10.7323 17.7047 11.9126 16.3851Z" fill="#E3E7F1"/>
<path fill-rule="evenodd" clip-rule="evenodd" d="M34.5188 5.49845C34.8889 5.00859 36.5192 3.25906 36.6692 2.93915C35.7376 1.93332 34.5835 1.15966 33.2988 0.679933C31.196 -0.0836647 28.8853 -0.0483239 26.8069 0.779269C24.7285 1.60686 23.0273 3.16898 22.026 5.16859C21.3739 6.51801 21.0761 8.01112 21.161 9.50727C21.2459 11.0034 21.7105 12.4533 22.511 13.7204C23.3115 14.9875 24.4213 16.0301 25.7364 16.7499C27.0514 17.4697 28.5286 17.843 30.028 17.8348C31.4431 17.8659 32.848 17.5932 34.1486 17.0351C35.2101 16.5344 36.1519 15.8117 36.9095 14.9157C36.1994 14.0759 35.4091 13.2561 34.5989 12.4363C34.1888 12.5963 33.5988 13.3062 32.6985 13.766C31.8975 14.2238 30.9871 14.4558 30.0646 14.4374C29.142 14.4191 28.2416 14.1509 27.4594 13.6616C26.6773 13.1722 26.0427 12.48 25.6231 11.6586C25.2034 10.8373 25.0145 9.91757 25.0765 8.99741C25.0332 7.92268 25.3218 6.86072 25.9034 5.95571C26.485 5.0507 27.3314 4.34647 28.3273 3.93885C31.8282 2.68922 34.0187 5.28851 34.5188 5.49845Z" fill="#E3E7F1"/>
<path fill-rule="evenodd" clip-rule="evenodd" d="M70.0901 21.8236V26.2523C70.2101 26.3623 70.09 26.3023 70.2801 26.3623H70.9404C74.5013 26.3623 95.8563 26.4523 96.7266 26.3623V21.7637C95.8763 21.6337 70.39 21.7637 70.24 21.7637C69.7699 21.8736 70.3101 21.5337 70.0901 21.8236Z" fill="#437EBF"/>
<path fill-rule="evenodd" clip-rule="evenodd" d="M133.805 3.99887H138.806V0.609863H124.802V3.95885H129.954C130.334 4.7786 129.844 15.9553 130.074 17.5648H133.664C133.714 15.3155 133.664 12.9962 133.664 10.7469V4.74865C133.654 3.87891 133.605 3.99887 133.805 3.99887Z" fill="#E3E7F1"/>
<path fill-rule="evenodd" clip-rule="evenodd" d="M61.8876 26.2724V21.8136C61.7475 21.6737 61.7775 21.6937 61.3874 21.7037C58.2667 21.7837 44.3834 21.5937 43.5231 21.7037C43.4246 23.2417 43.4246 24.7843 43.5231 26.3223C44.1733 26.4223 58.6768 26.3223 61.4675 26.3223C61.9476 26.3823 61.8275 26.3724 61.8876 26.2724Z" fill="#F8CF0A"/>
<path fill-rule="evenodd" clip-rule="evenodd" d="M37.0191 26.2823V21.8037C36.8791 21.6737 36.8791 21.7036 36.519 21.7036C33.6383 21.7036 22.1757 21.6036 21.0254 21.7036V26.3322C21.8456 26.4222 33.6985 26.3322 36.0291 26.3322C36.4992 26.3722 36.9091 26.4523 37.0191 26.2823Z" fill="#F37921"/>
<path fill-rule="evenodd" clip-rule="evenodd" d="M92.903 17.535L96.6239 17.525L96.5938 0.469968L92.8629 0.459961L92.903 17.535Z" fill="#E3E7F1"/>
<path fill-rule="evenodd" clip-rule="evenodd" d="M13.8047 26.2423V21.8435C13.6446 21.6336 13.5348 21.7036 12.9846 21.7036C10.604 21.7036 0.721242 21.5937 0.121094 21.7536V26.3222C0.821267 26.5121 5.84286 26.3722 6.98315 26.3722H13.4745C13.9146 26.3422 13.7146 26.4222 13.8047 26.2423Z" fill="#EC1F23"/>
<path fill-rule="evenodd" clip-rule="evenodd" d="M133.804 3.99904C133.604 4.07901 133.654 3.92904 133.664 4.7288V10.727C133.664 12.9864 133.714 15.2957 133.664 17.5451H130.103C129.873 15.9455 130.363 4.75875 129.983 3.939H124.832V0.590013H138.835V3.97902C139.045 3.88905 138.955 3.97909 138.985 3.66918V2.32949C139.02 1.73686 139.02 1.14274 138.985 0.550108C138.595 0.420146 126.092 0.420146 124.832 0.550108V4.05908H129.993C130.263 4.9888 129.873 15.2957 130.053 17.595C131.316 17.6755 132.582 17.6755 133.844 17.595L133.804 3.99904Z" fill="#E3E7F1"/>
<path fill-rule="evenodd" clip-rule="evenodd" d="M151.928 5.11841C151.928 5.11841 152.068 5.0384 152.098 4.9884C152.098 5.3284 152.098 4.9884 152.188 5.1084L152.118 4.87842C151.848 4.99842 152.038 4.85841 151.928 5.11841Z" fill="#E3E7F1"/>
<path fill-rule="evenodd" clip-rule="evenodd" d="M80.0195 7.9978L80.1992 7.7478C80.0892 7.8278 80.0895 7.7178 80.0195 7.9978Z" fill="#E3E7F1"/>
<path fill-rule="evenodd" clip-rule="evenodd" d="M116.361 16.3751C116.631 16.2851 116.511 16.3751 116.611 16.2051L116.361 16.3751Z" fill="#E3E7F1"/>
<path fill-rule="evenodd" clip-rule="evenodd" d="M11.9121 16.3851C12.1521 16.3051 12.0624 16.3851 12.1724 16.2151L11.9121 16.3851Z" fill="#E3E7F1"/>
</svg>
