<svg width="162" height="27" viewBox="0 0 162 27" fill="none" xmlns="http://www.w3.org/2000/svg">
<path fill-rule="evenodd" clip-rule="evenodd" d="M105 26.7902V22.1804C106.1 22.0404 145 22.1804 147.49 22.1804C149.2 22.1804 161.06 22.0704 161.67 22.1804V26.7502C161.06 26.9102 149.26 26.7502 147.56 26.7502C145 26.8202 106 26.9302 105 26.7902Z" fill="#6B798E"/>
<path fill-rule="evenodd" clip-rule="evenodd" d="M52.2109 4.16031C52.9292 4.02375 53.6685 4.04204 54.3791 4.21451C55.0897 4.38698 55.7551 4.70964 56.3309 5.16031C59.5909 7.65031 58.7909 13.8901 54.1109 14.7101C53.4267 14.8338 52.7244 14.8169 52.0468 14.6608C51.3692 14.5047 50.7304 14.2125 50.1693 13.8019C49.6081 13.3913 49.1363 12.8712 48.7824 12.2726C48.4286 11.6741 48.2001 11.0096 48.1109 10.32C47.8837 8.87785 48.2086 7.40317 49.021 6.1901C49.3938 5.6556 49.8715 5.20289 50.4251 4.85904C50.9787 4.5152 51.5965 4.28742 52.2409 4.1901L52.2109 4.16031ZM44.1009 9.9401C44.1497 11.7473 44.737 13.4989 45.7873 14.9704C46.8377 16.4418 48.3033 17.566 49.9965 18.1994C51.6898 18.8327 53.5337 18.9465 55.2918 18.5255C57.05 18.1046 58.6425 17.1681 59.8653 15.8366C61.0882 14.505 61.8857 12.839 62.1557 11.0514C62.4258 9.26386 62.1561 7.43624 61.3812 5.80289C60.6063 4.16954 59.3614 2.80451 57.8061 1.88297C56.2508 0.961426 54.4558 0.525174 52.651 0.630039C51.4723 0.661529 50.312 0.929485 49.239 1.41812C48.1659 1.90676 47.202 2.60635 46.4045 3.47477C45.607 4.34318 44.9921 5.36312 44.5964 6.47379C44.2007 7.58446 44.0322 8.76304 44.1009 9.9401Z" fill="#5E6C81"/>
<path fill-rule="evenodd" clip-rule="evenodd" d="M80.6094 8.17999L80.4294 8.42999C80.2394 8.52999 80.1394 8.6596 79.9294 8.7796C78.8594 9.3896 75.3994 9.26999 74.3594 9.17999V4.29962C76.0988 4.15825 77.8491 4.2355 79.5693 4.5296C79.9061 4.67004 80.2065 4.88554 80.4475 5.15948C80.6885 5.43342 80.8639 5.75874 80.9603 6.11065C81.0567 6.46256 81.0716 6.83171 81.0039 7.19024C80.9362 7.54877 80.7875 7.88751 80.5693 8.17999H80.6094ZM81.2394 11.8397C85.4194 10.4897 85.7894 4.91962 83.3094 2.54962C81.9394 1.23962 80.1894 0.899714 77.7594 0.899714C75.3294 0.899714 72.9794 0.839714 70.6094 0.899714V17.97H74.3293V12.5101H77.2294L80.9594 17.9598H85.2594C85.1594 17.4398 81.3994 12.4297 81.2394 11.8397Z" fill="#5E6C81"/>
<path fill-rule="evenodd" clip-rule="evenodd" d="M152.319 5.56006C152.429 5.30006 152.239 5.46982 152.509 5.31982L152.579 5.5498L154.689 10.8301H150.239C150.517 9.91382 150.851 9.01553 151.239 8.14014C151.623 7.30044 151.957 6.43888 152.239 5.56006H152.319ZM148.819 14.1499H156.079L157.649 17.9399H161.539L154.249 0.77002H150.749C150.499 1.48002 150.149 2.17018 149.839 2.93018L145.279 13.6602C145.009 14.3202 143.549 17.4899 143.529 17.9399H147.289L148.819 14.1499Z" fill="#5E6C81"/>
<path fill-rule="evenodd" clip-rule="evenodd" d="M116.759 16.8201L117.009 16.6501C117.76 15.8809 118.257 14.9011 118.436 13.8415C118.615 12.7819 118.466 11.6932 118.009 10.7204C116.509 7.85044 112.009 7.89044 110.089 6.72044C109.871 6.59631 109.69 6.41492 109.566 6.19603C109.442 5.97713 109.38 5.72874 109.386 5.47728C109.392 5.22582 109.466 4.98086 109.601 4.76829C109.735 4.55573 109.925 4.38353 110.149 4.27025C112.409 3.03025 115.709 5.49031 116.039 5.58031C116.733 4.6869 117.362 3.74462 117.919 2.76048C116.734 1.81693 115.343 1.16561 113.859 0.860092C105.859 -0.779908 104.159 6.24015 106.719 8.92015C109.009 11.3202 114.159 10.9205 114.719 12.7605C114.781 12.9508 114.804 13.1515 114.787 13.3508C114.77 13.5501 114.713 13.7441 114.62 13.9211C114.527 14.0982 114.399 14.2546 114.244 14.3816C114.09 14.5085 113.911 14.6034 113.719 14.6604C112.107 15.0607 110.401 14.813 108.969 13.9704C108.349 13.6404 107.629 12.9701 107.209 12.8401C106.909 13.3701 105.209 15.0302 105.109 15.4802C105.816 16.144 106.627 16.6877 107.509 17.0901C108.46 17.544 109.47 17.8605 110.509 18.03C111.733 18.2467 112.986 18.2467 114.209 18.03C115.147 17.8448 116.023 17.429 116.759 16.8201Z" fill="#5E6C81"/>
<path fill-rule="evenodd" clip-rule="evenodd" d="M12.3394 16.8299L12.5994 16.66C13.3493 15.8885 13.8466 14.9066 14.0253 13.8456C14.2039 12.7845 14.0553 11.6946 13.5994 10.7201C12.0894 7.85008 7.59944 7.92008 5.67944 6.72008C5.46034 6.59742 5.27874 6.41725 5.15442 6.19908C5.0301 5.98091 4.9677 5.73282 4.97388 5.4818C4.98005 5.23077 5.05456 4.98607 5.18945 4.77428C5.32434 4.56248 5.51451 4.39139 5.73938 4.27965C7.95938 3.02965 11.1294 5.40971 11.6294 5.58971C12.329 4.69824 12.9607 3.75578 13.5194 2.76988C9.43941 -0.410119 2.73935 -0.150314 1.45935 4.31969C1.21661 5.09842 1.16809 5.92512 1.31799 6.72691C1.46789 7.52871 1.81165 8.28135 2.31934 8.91978C4.82934 11.4498 9.79934 10.9199 10.3193 12.8299C10.8393 14.7399 8.31943 15.0299 6.78943 14.8299C5.3158 14.5309 3.9406 13.8671 2.78943 12.8998C1.9897 13.7132 1.26036 14.5929 0.609375 15.5296C1.65937 16.7496 4.22937 17.7599 5.97937 18.0799C7.72937 18.3999 11.1594 18.1499 12.3394 16.8299Z" fill="#5E6C81"/>
<path fill-rule="evenodd" clip-rule="evenodd" d="M34.939 5.93998C35.309 5.44998 36.939 3.69992 37.089 3.37992C36.1575 2.37378 35.0034 1.60002 33.719 1.12015C31.6167 0.356327 29.3071 0.391434 27.2293 1.21927C25.1514 2.04711 23.45 3.60969 22.449 5.6099C21.7971 6.95972 21.4996 8.45364 21.5845 9.95023C21.6693 11.4468 22.1338 12.8971 22.9341 14.1646C23.7344 15.4321 24.8442 16.4748 26.1589 17.1949C27.4737 17.9149 28.95 18.2881 30.449 18.2798C31.8637 18.311 33.2687 18.0384 34.569 17.48C35.6302 16.9792 36.5715 16.2561 37.329 15.3599C36.619 14.5199 35.829 13.6999 35.019 12.8799C34.609 13.0399 34.019 13.75 33.119 14.21C32.321 14.6537 31.4185 14.8753 30.5057 14.8511C29.593 14.827 28.7034 14.5581 27.9299 14.0728C27.1565 13.5875 26.5276 12.9032 26.1088 12.0918C25.69 11.2804 25.4967 10.3716 25.5491 9.46C25.5058 8.38494 25.7944 7.32279 26.3759 6.41751C26.9573 5.51224 27.8034 4.80767 28.7991 4.39994C32.2491 3.12994 34.439 5.72998 34.939 5.93998Z" fill="#5E6C81"/>
<path fill-rule="evenodd" clip-rule="evenodd" d="M70.5001 22.2699V26.7001C70.6201 26.8101 70.5001 26.75 70.6901 26.81H71.3501C74.9101 26.81 96.2601 26.9 97.1301 26.81V22.2099C96.2801 22.0799 70.8001 22.2099 70.6501 22.2099C70.1801 22.2699 70.7201 21.9799 70.5001 22.2699Z" fill="#7E8AA0"/>
<path fill-rule="evenodd" clip-rule="evenodd" d="M134.199 4.39014H139.199V1H125.199V4.27002H130.349C130.729 5.09002 130.239 16.2699 130.469 17.8799H134.059C134.109 15.6299 134.059 13.3101 134.059 11.0601V5.06006C133.999 4.27006 133.999 4.47014 134.199 4.39014Z" fill="#5E6C81"/>
<path fill-rule="evenodd" clip-rule="evenodd" d="M62.2992 26.7203V22.2701C62.1592 22.1301 62.1892 22.1502 61.7992 22.1602C58.6792 22.2402 44.7991 22.0502 43.9391 22.1602C43.8406 23.6987 43.8406 25.2415 43.9391 26.7799C44.5891 26.8799 59.0892 26.7799 61.8792 26.7799C62.3592 26.8299 62.2392 26.8103 62.2992 26.7203Z" fill="#94A1B9"/>
<path fill-rule="evenodd" clip-rule="evenodd" d="M37.4392 26.73V22.27C37.2992 22.14 37.2992 22.1699 36.9392 22.1699C34.0592 22.1699 22.5992 22.0699 21.4492 22.1699V26.7998C22.2692 26.8898 34.1192 26.7998 36.4492 26.7998C36.9192 26.8198 37.3292 26.9 37.4392 26.73Z" fill="#7E8AA0"/>
<path fill-rule="evenodd" clip-rule="evenodd" d="M93.3093 17.9702L97.0293 17.96L96.9993 0.899902H93.2793L93.3093 17.9702Z" fill="#5E6C81"/>
<path fill-rule="evenodd" clip-rule="evenodd" d="M14.2307 26.69V22.2701C14.0707 22.0601 13.9608 22.13 13.4108 22.13C11.0308 22.13 1.15078 22.0202 0.550781 22.1802V26.7501C1.25078 26.9401 6.27077 26.7999 7.41077 26.7999H13.9008C14.3408 26.7899 14.1407 26.87 14.2307 26.69Z" fill="#6B798E"/>
<path fill-rule="evenodd" clip-rule="evenodd" d="M134.199 4.38998C133.999 4.46998 134.049 4.31996 134.059 5.11996V11.12C134.059 13.38 134.109 15.6898 134.059 17.9398H130.469C130.229 16.3398 130.729 5.14992 130.349 4.32992H125.199V0.979824H139.199V4.36996C139.409 4.27996 139.319 4.3699 139.349 4.0599V2.72006C139.385 2.12725 139.385 1.53259 139.349 0.939785C138.959 0.809785 126.459 0.809785 125.199 0.939785V4.45004H130.359C130.629 5.38004 130.239 15.6901 130.419 17.9901C131.681 18.0705 132.947 18.0705 134.209 17.9901L134.199 4.38998Z" fill="#5E6C81"/>
<path fill-rule="evenodd" clip-rule="evenodd" d="M152.32 5.56006C152.32 5.56006 152.46 5.48018 152.49 5.43018C152.49 5.77018 152.49 5.4298 152.58 5.5498L152.51 5.31982C152.24 5.46982 152.43 5.27006 152.32 5.56006Z" fill="#5E6C81"/>
<path fill-rule="evenodd" clip-rule="evenodd" d="M80.4297 8.43018L80.6096 8.18018C80.4896 8.27018 80.5297 8.16018 80.4297 8.43018Z" fill="#5E6C81"/>
<path fill-rule="evenodd" clip-rule="evenodd" d="M116.76 16.8198C117.03 16.7298 116.91 16.8199 117.01 16.6499L116.76 16.8198Z" fill="#5E6C81"/>
<path fill-rule="evenodd" clip-rule="evenodd" d="M12.3398 16.8301C12.5798 16.7501 12.4899 16.8302 12.5999 16.6602L12.3398 16.8301Z" fill="#5E6C81"/>
</svg>
