<svg width="135" height="181" viewBox="0 0 135 181" fill="none" xmlns="http://www.w3.org/2000/svg">
<path fill-rule="evenodd" clip-rule="evenodd" d="M116 47.6503L42.5702 5.24994C38.3802 2.82994 34.5704 2.52014 31.7504 3.95014L28.87 5.70014L7.74016 18.7001C7.68505 18.73 7.64334 18.7795 7.62297 18.8388C7.6026 18.8981 7.60519 18.9621 7.6303 19.0195C8.7003 21.2595 18.6302 42.1101 19.5702 45.9501C19.9502 47.5701 23.0704 63.5103 26.6904 82.0703V91.3798C26.6904 96.5998 28.59 102.38 31.62 107.48C31.6254 107.507 31.6254 107.533 31.62 107.56C35.38 126.92 38.62 143.45 38.62 143.88L49.5004 169.57C49.5153 169.605 49.5371 169.636 49.5649 169.662C49.5926 169.688 49.6252 169.707 49.6611 169.72C49.6969 169.732 49.7351 169.737 49.7729 169.733C49.8106 169.73 49.8472 169.719 49.8803 169.7L74.7504 155.21C74.8057 155.18 74.848 155.131 74.87 155.072C74.8921 155.013 74.8921 154.948 74.87 154.89L73.0204 149.65C72.5055 146.972 72.1715 144.263 72.0204 141.54L103.71 176.8C103.758 176.841 103.818 176.863 103.88 176.863C103.943 176.863 104.003 176.841 104.05 176.8L127.2 162.5L127.56 162.28C130.29 160.56 131.97 157.08 131.97 152.17V75.2802C132.01 65.2102 124.8 52.7303 116 47.6503Z" fill="#AFC3D5"/>
<path fill-rule="evenodd" clip-rule="evenodd" d="M69.2796 134.83L104.38 173.89L125.98 160.54L127.619 162.39L126.32 160.32C128.43 158.99 129.59 156.13 129.59 152.32V75.4298C129.59 66.1798 122.82 54.4296 114.8 49.8096L41.3597 7.41023C38.0697 5.51023 35.0494 5.07 32.8494 6.17L10.6897 19.8302C13.6297 26.0002 21.1095 41.8798 21.9495 45.4698C22.2895 46.8898 24.6196 58.7398 29.0896 81.6798V82.2003V91.5098C29.0896 96.0498 30.7597 101.51 33.6697 106.36L33.8997 106.75L34.0096 107.27L41.0096 143.34L50.8294 166.51L72.0096 154.17L70.6697 150.3C70.1229 147.494 69.7652 144.654 69.5994 141.8L69.2298 134.89L69.2796 134.83ZM103.98 179.4C103.604 179.4 103.232 179.321 102.887 179.17C102.543 179.019 102.234 178.797 101.98 178.52L75.4598 149.01C75.4598 149.01 75.4598 149.08 75.4598 149.11L77.2498 154.2C77.4561 154.796 77.4491 155.444 77.2303 156.035C77.0114 156.626 76.594 157.123 76.0496 157.441L50.2298 172.441L48.9695 172.12C48.6019 171.999 48.2644 171.801 47.9798 171.539C47.6952 171.277 47.4702 170.956 47.3196 170.6L36.3196 144.33L29.3196 108.441C26.1877 103.308 24.441 97.4503 24.2498 91.4405V82.3399C19.8798 59.9099 17.5097 47.8596 17.1897 46.5196C16.5897 43.9696 10.6697 31.0299 5.41972 20.0899C5.12914 19.4916 5.07049 18.807 5.25517 18.168C5.43985 17.5291 5.85476 16.981 6.41972 16.63L30.4197 1.83992C34.3097 -0.160083 38.9798 0.370425 43.7298 3.11042L117.17 45.5098C126.67 50.9998 134.4 64.3904 134.4 75.3604V152.25C134.4 157.85 132.4 162.18 128.84 164.43L105.32 178.97C104.91 179.234 104.437 179.383 103.95 179.4H103.98Z" fill="#1C2A40"/>
<path fill-rule="evenodd" clip-rule="evenodd" d="M115.92 47.6504L47.0903 8.05957L12.4805 29.7803L86.1602 68.5596L101.64 71.0098L125.46 56.8496C122.981 53.1311 119.726 49.9935 115.92 47.6504Z" fill="#FEFEFE"/>
<path fill-rule="evenodd" clip-rule="evenodd" d="M86.9404 66.2197L101.15 68.4697L121.88 56.1504C119.891 53.6046 117.455 51.4417 114.69 49.7695L47.1401 10.9199L17.3604 29.6104L86.9302 66.2305L86.9404 66.2197ZM102.13 73.5703L85.0205 70.7305L7.58008 29.9697L47.0303 5.20996L117.13 45.5303C121.256 48.0486 124.781 51.4373 127.46 55.46L128.96 57.6104L102.13 73.5703Z" fill="#1C2A40"/>
<path fill-rule="evenodd" clip-rule="evenodd" d="M107.61 83.6602C107.61 83.6602 77.8704 90.6596 75.9604 91.3896C74.3605 91.9896 45.23 115.48 35.29 126.48C37.29 136.64 38.6204 143.68 38.6704 143.96L49.5503 169.65C49.5651 169.685 49.587 169.716 49.6147 169.742C49.6425 169.768 49.6756 169.788 49.7114 169.8C49.7473 169.812 49.785 169.817 49.8228 169.813C49.8605 169.81 49.8971 169.799 49.9302 169.78L74.8003 155.29C74.8556 155.26 74.8983 155.211 74.9204 155.152C74.9425 155.094 74.9424 155.029 74.9204 154.97L73.0703 149.73C72.5554 147.053 72.2213 144.343 72.0703 141.62L103.76 176.88C103.807 176.921 103.868 176.943 103.93 176.943C103.993 176.943 104.053 176.921 104.1 176.88L127.25 162.58L127.61 162.36C130.34 160.64 132.021 157.16 132.021 152.25V75.3604C132.004 73.3998 131.765 71.4471 131.31 69.54L107.61 83.6602Z" fill="#1C2A40"/>
<path d="M128.861 80.3651L111.248 91.0107L112.934 93.8005L130.547 83.1548L128.861 80.3651Z" fill="#AFC3D5"/>
<path d="M128.123 149.792L110.519 160.449L112.207 163.238L129.812 152.58L128.123 149.792Z" fill="#AFC3D5"/>
<path fill-rule="evenodd" clip-rule="evenodd" d="M92.5205 62.2997L18.9502 19.83C10.1802 14.77 3.07031 18.8299 3.07031 28.9999V106C3.07031 116.13 10.1802 128.44 18.9502 133.5L27.3301 138.34C28.1433 138.874 28.8383 139.569 29.3716 140.383C29.9049 141.196 30.2651 142.111 30.4302 143.07C32.1369 153.74 37.9246 163.328 46.5703 169.809C48.8903 171.529 50.7501 170.06 50.0601 167.08C49.0385 162.839 48.469 158.501 48.3604 154.14C48.3604 152.14 49.8003 151.32 51.5503 152.33L92.5503 175.99C101.32 181.05 108.43 176.99 108.43 166.82V89.8202C108.4 79.6802 101.281 67.3697 92.5205 62.2997Z" fill="#AFC3D5"/>
<path fill-rule="evenodd" clip-rule="evenodd" d="M50.1104 149.5C51.0493 149.518 51.967 149.783 52.7705 150.269L93.7705 173.929C97.2205 175.929 100.35 176.32 102.56 175.04C104.77 173.76 105.99 170.86 105.99 166.88V89.8795C105.99 80.5495 99.4101 69.1599 91.3301 64.4899L17.7603 22.0192C14.3003 20.0192 11.1805 19.6298 8.98047 20.9098C6.78047 22.1898 5.55029 25.0797 5.55029 29.0797V106.08C5.55029 115.41 12.1204 126.799 20.2104 131.469L28.5903 136.309C29.7188 137.022 30.6841 137.965 31.4233 139.077C32.1626 140.188 32.6591 141.443 32.8804 142.759C34.4333 152.657 39.741 161.575 47.7002 167.66C46.6508 163.256 46.0643 158.756 45.9502 154.23C45.8998 153.411 46.071 152.592 46.4458 151.862C46.8206 151.132 47.3851 150.516 48.0801 150.08C48.7055 149.716 49.4167 149.526 50.1401 149.53L50.1104 149.5ZM99.6201 180.66C96.6759 180.568 93.8074 179.706 91.3003 178.16L50.8403 154.79C50.985 158.763 51.5242 162.713 52.4502 166.58C53.0302 169.11 52.3702 171.28 50.6802 172.38C48.9902 173.48 47.0104 173.21 45.1304 171.82C35.9518 164.98 29.8167 154.817 28.04 143.509C27.8219 142.297 27.1362 141.22 26.1304 140.509L17.7505 135.67C8.16049 130.14 0.650391 117.129 0.650391 106.049V29.0495C0.650391 23.2395 2.74051 18.8401 6.52051 16.6501C10.3005 14.4601 15.1604 14.8494 20.1904 17.7594L93.7603 60.2301C103.35 65.7601 110.86 78.7693 110.86 89.8493V166.849C110.86 172.659 108.77 177.06 104.99 179.24C103.357 180.177 101.503 180.66 99.6201 180.639V180.66Z" fill="#1C2A40"/>
<path fill-rule="evenodd" clip-rule="evenodd" d="M87.5702 129.03L81.7304 121.759C82.3543 119.346 82.6634 116.863 82.6503 114.37C82.6241 111.526 82.316 108.693 81.7304 105.91L87.5702 105.389C88.4102 105.319 88.7004 104.24 88.2104 102.98L82.9203 89.3601C82.4303 88.1101 81.3604 87.1502 80.5204 87.2302L74.7001 87.7497C71.5303 82.2256 67.5111 77.2345 62.79 72.9597V65.1696C62.7571 64.5587 62.5811 63.9642 62.2753 63.4343C61.9695 62.9043 61.5428 62.454 61.0302 62.1198L50.4604 56.0192C49.4604 55.4592 48.7001 55.9092 48.7001 57.0192V64.8093C44.1401 63.6093 40.05 63.9893 36.79 65.8093L30.9701 58.57C30.1301 57.57 29.05 57.2294 28.56 57.9294L23.2802 65.4997C22.7902 66.1897 23.0801 67.6001 23.9301 68.6501L29.7704 75.9196C29.1491 78.3367 28.843 80.8244 28.8603 83.32C28.8832 86.1632 29.1881 88.997 29.7704 91.78L23.9301 92.2995C23.0901 92.3795 22.8002 93.4497 23.2802 94.7097L28.5702 108.34C29.0602 109.59 30.1304 110.549 30.9804 110.469L36.8002 109.95C39.9682 115.475 43.9877 120.467 48.7104 124.74V132.53C48.744 133.141 48.9207 133.735 49.2265 134.264C49.5322 134.794 49.9581 135.245 50.4701 135.58L61.04 141.679C62.04 142.239 62.8002 141.789 62.8002 140.679V132.9C67.3602 134.1 71.4504 133.71 74.7104 131.9L80.5302 139.139C81.3702 140.139 82.4501 140.48 82.9301 139.78L88.2201 132.259C88.7001 131.499 88.4102 130.07 87.5702 129.03Z" fill="#AFC3D5"/>
<path fill-rule="evenodd" clip-rule="evenodd" d="M37.6697 108.21L38.1897 109.1C41.2719 114.473 45.1797 119.33 49.7698 123.49L50.3093 123.98V132.5C50.3499 132.829 50.4601 133.145 50.6326 133.428C50.805 133.71 51.0357 133.953 51.3093 134.14L61.1995 139.85V130.74L63.1995 131.28C67.2795 132.36 70.9794 132.05 73.8894 130.4L75.0896 129.72L81.7796 138.04L81.9597 138.24L86.8694 131.24C86.7536 130.807 86.5567 130.4 86.2893 130.04L79.9295 122.13L80.1394 121.33C80.7251 119.043 81.0145 116.691 80.9998 114.33C80.9728 111.594 80.6745 108.868 80.1096 106.19L79.7498 104.41L86.7498 103.78C86.7498 103.71 86.7497 103.62 86.6697 103.53L81.3797 89.9101C81.2235 89.4466 80.908 89.053 80.4895 88.7998L73.7796 89.4199L73.2595 88.5195C70.1751 83.1472 66.2676 78.292 61.6795 74.1298L61.1394 73.6396V65.1201C61.1054 64.7952 61.0033 64.4808 60.8396 64.1982C60.6759 63.9156 60.4546 63.6715 60.1897 63.4804L50.2996 57.7695V66.8798L48.2996 66.3398C44.2096 65.2598 40.5194 65.5597 37.6194 67.2197L36.4094 67.9101L29.7195 59.5898L29.5393 59.3896L24.6297 66.3896C24.7417 66.824 24.9389 67.2321 25.2097 67.5898L31.5696 75.4999L31.3596 76.29C30.7745 78.5769 30.4856 80.9295 30.4998 83.29C30.5254 86.0223 30.82 88.7453 31.3797 91.4199L31.7395 93.2001L24.7395 93.8203C24.7599 93.9087 24.7867 93.9954 24.8196 94.08L30.0994 107.71C30.2571 108.173 30.5722 108.566 30.9895 108.82L37.6995 108.2L37.6697 108.21ZM61.8196 143.53C61.2518 143.521 60.6966 143.362 60.2097 143.07L49.6394 136.96C48.8797 136.482 48.2481 135.826 47.7986 135.049C47.3491 134.272 47.0951 133.397 47.0593 132.5V125.44C42.7025 121.394 38.9451 116.746 35.8997 111.64L31.0994 112.07C29.2794 112.25 27.6896 110.6 27.0296 108.9L21.7395 95.2802C21.4936 94.7383 21.3757 94.1465 21.3948 93.5517C21.4139 92.9569 21.5692 92.3746 21.8494 91.8496C22.052 91.5152 22.3305 91.234 22.6624 91.0273C22.9942 90.8206 23.3701 90.6946 23.7595 90.6601L27.8196 90.2998C27.4208 87.9874 27.2133 85.6462 27.1995 83.2998C27.1916 80.9449 27.4499 78.5966 27.9695 76.2998L22.6297 69.6601C21.4897 68.2401 20.8797 66.0298 21.9197 64.5498L27.1995 57.0195C27.4249 56.6961 27.7235 56.431 28.0711 56.2451C28.4186 56.0591 28.8054 55.9582 29.1995 55.9501C29.792 55.969 30.3719 56.1261 30.8928 56.4091C31.4138 56.6922 31.8612 57.0931 32.1995 57.58L37.1995 63.7998C40.3068 62.4944 43.7329 62.1462 47.0393 62.7998V57.0302C47.0118 56.525 47.1212 56.0209 47.3552 55.5722C47.5892 55.1236 47.9393 54.747 48.3694 54.4804C48.8174 54.2431 49.321 54.1294 49.8274 54.1523C50.3338 54.1752 50.825 54.3336 51.2498 54.6103L61.8196 60.7099C62.5793 61.1881 63.2114 61.844 63.6609 62.621C64.1104 63.3981 64.3639 64.2729 64.3997 65.1699V72.2402C68.7565 76.2866 72.5139 80.9331 75.5593 86.04L80.3596 85.6103C82.1896 85.4603 83.7795 87.0902 84.4295 88.7802L89.7097 102.41C89.9587 102.951 90.0791 103.542 90.0618 104.137C90.0444 104.732 89.8897 105.314 89.6096 105.84C89.4043 106.173 89.1238 106.453 88.7903 106.658C88.4568 106.863 88.0798 106.987 87.6897 107.019L83.6297 107.38C84.0282 109.692 84.2357 112.033 84.2498 114.38C84.2598 116.735 84.0015 119.083 83.4798 121.38L88.8196 128.019C89.9596 129.439 90.5696 131.65 89.5296 133.13L84.2395 140.65C84.0135 140.973 83.7149 141.238 83.3674 141.424C83.02 141.61 82.6335 141.711 82.2395 141.72C81.6481 141.695 81.0702 141.536 80.5501 141.254C80.03 140.971 79.5816 140.573 79.2395 140.09L74.2395 133.87C71.1358 135.176 67.7125 135.524 64.4094 134.87V140.64C64.4359 141.145 64.3265 141.648 64.0925 142.097C63.8586 142.545 63.5087 142.923 63.0794 143.19C62.6933 143.401 62.2593 143.507 61.8196 143.5V143.53Z" fill="#FEFEFE"/>
<path fill-rule="evenodd" clip-rule="evenodd" d="M68.4897 106.19C68.4897 114.32 62.7797 117.61 55.7397 113.55C48.6997 109.49 43 99.5996 43 91.4696C43 83.3396 48.7097 80.0502 55.7397 84.1102C62.7697 88.1702 68.4897 98.0603 68.4897 106.19Z" fill="#AFC3D5"/>
<path fill-rule="evenodd" clip-rule="evenodd" d="M50.0503 83.9999C49.1728 83.9859 48.3069 84.2031 47.54 84.6297C45.66 85.7197 44.6201 88.1396 44.6201 91.4696C44.6201 99.0696 49.9703 108.34 56.5503 112.139C59.4303 113.809 62.0502 114.14 63.9302 113.03C65.8102 111.92 66.8501 109.52 66.8501 106.19C66.8501 98.5903 61.4902 89.3194 54.9102 85.5194C53.4477 84.5941 51.7689 84.0675 50.04 83.9901L50.0503 83.9999ZM61.4404 116.93C59.133 116.843 56.8883 116.153 54.9302 114.93C47.3302 110.54 41.3701 100.22 41.3701 91.4403C41.3701 86.9103 42.9904 83.4401 45.9204 81.7801C48.8504 80.1201 52.6401 80.4098 56.5601 82.6698C64.1601 87.0598 70.1201 97.38 70.1201 106.16C70.1201 110.7 68.5103 114.16 65.5703 115.82C64.316 116.548 62.8904 116.927 61.4404 116.92V116.93Z" fill="#FEFEFE"/>
</svg>
