<svg width="135" height="181" viewBox="0 0 135 181" fill="none" xmlns="http://www.w3.org/2000/svg">
<path fill-rule="evenodd" clip-rule="evenodd" d="M69.2799 134.82L104.39 173.88L126.33 160.32C128.44 158.99 129.6 156.13 129.6 152.32V75.4298C129.6 66.1698 122.83 54.4296 114.81 49.8096L41.37 7.41023C38.08 5.51023 35.0599 5.06976 32.8599 6.17976L10.6998 19.8302C13.6298 25.9702 21.1198 41.8298 21.9698 45.4698C22.4298 47.4698 26.6299 69.0098 29.0999 81.6798V82.2003V91.5098C29.0999 96.0498 30.7798 101.51 33.6898 106.36L33.9598 106.82L34.0499 107.42L41.0499 143.31L50.87 166.5L72.0499 154.16L70.7098 150.29C70.1605 147.488 69.8031 144.651 69.64 141.8L69.2598 134.88L69.2799 134.82ZM103.99 179.39C103.612 179.388 103.239 179.307 102.894 179.152C102.55 178.997 102.242 178.772 101.99 178.49L75.4798 149C75.4798 149.08 75.4798 149.16 75.4798 149.24L77.2398 154.17C77.4498 154.768 77.4438 155.42 77.2227 156.014C77.0017 156.607 76.5797 157.105 76.0299 157.42L50.2298 172.42L48.9698 172.1C48.6057 171.98 48.2711 171.785 47.9884 171.526C47.7056 171.268 47.4812 170.952 47.3299 170.6L36.3299 144.39L29.3299 108.39C26.1939 103.259 24.4498 97.3999 24.2699 91.3897V82.2999C20.1099 60.9099 17.5398 47.8598 17.2098 46.4698C16.6098 43.9198 10.6898 30.9801 5.43978 20.0401C5.15478 19.4322 5.10669 18.7403 5.30453 18.0987C5.50236 17.4571 5.93199 16.9122 6.50985 16.5704L30.5098 1.79988C34.3998 -0.200122 39.0699 0.330386 43.8199 3.07039L117.26 45.4698C126.76 50.9598 134.49 64.3504 134.49 75.3204V152.21C134.49 157.81 132.49 162.14 128.93 164.39L128.47 164.67L105.41 178.92C104.98 179.218 104.473 179.385 103.95 179.4L103.99 179.39Z" fill="#1C2A40"/>
<path fill-rule="evenodd" clip-rule="evenodd" d="M115.92 47.6504L47.1003 8.05957L12.4902 29.7803L86.1702 68.5596L101.65 71.0098L125.47 56.8604C122.991 53.1357 119.732 49.9935 115.92 47.6504Z" fill="#FEFEFE"/>
<path fill-rule="evenodd" clip-rule="evenodd" d="M86.9495 66.21L101.159 68.46L121.89 56.1396C119.905 53.5937 117.471 51.4317 114.709 49.7598L47.1594 10.9102L17.3796 29.5996L86.9495 66.2197V66.21ZM102.14 73.5596L85.0295 70.7197L7.59961 29.96L47.0496 5.2002L117.15 45.5195C121.274 48.0397 124.799 51.429 127.479 55.4502L128.979 57.5996L102.14 73.5596Z" fill="#1C2A40"/>
<path fill-rule="evenodd" clip-rule="evenodd" d="M107.62 83.6602C107.62 83.6602 77.8797 90.6604 75.9697 91.4004C74.3797 92.0004 45.2498 115.49 35.2998 126.49C37.2998 136.65 38.6297 143.69 38.6797 143.97L49.5598 169.65C49.5747 169.685 49.5965 169.716 49.6243 169.742C49.652 169.768 49.6849 169.788 49.7207 169.8C49.7565 169.812 49.7945 169.817 49.8323 169.813C49.87 169.81 49.9066 169.799 49.9397 169.78L74.8098 155.29C74.8651 155.26 74.9076 155.211 74.9297 155.152C74.9517 155.094 74.9517 155.029 74.9297 154.97L73.0798 149.73C72.5665 147.052 72.2324 144.343 72.0798 141.62L103.77 176.88C103.818 176.919 103.878 176.94 103.94 176.94C104.002 176.94 104.062 176.919 104.11 176.88L127.26 162.58L127.62 162.36C130.35 160.64 132.04 157.16 132.04 152.24V75.3496C132.025 73.3889 131.787 71.437 131.33 69.5303L107.62 83.6602Z" fill="#1C2A40"/>
<path d="M129.303 79.914L111.688 90.5566L113.369 93.3383L130.984 82.6957L129.303 79.914Z" fill="#AFC3D5"/>
<path d="M128.55 149.069L110.928 159.699L112.612 162.49L130.234 151.86L128.55 149.069Z" fill="#AFC3D5"/>
<path fill-rule="evenodd" clip-rule="evenodd" d="M92.5203 62.2997L18.9502 19.83C10.1802 14.77 3.07031 18.8299 3.07031 28.9999V106C3.07031 116.13 10.1802 128.44 18.9502 133.5L27.3303 138.34C28.1455 138.87 28.8423 139.564 29.3774 140.376C29.9126 141.188 30.2743 142.101 30.4402 143.059C32.1459 153.73 37.9338 163.319 46.5803 169.8C48.9003 171.52 50.7503 170.039 50.0703 167.059C49.0472 162.822 48.4774 158.488 48.3704 154.13C48.3704 152.13 49.8103 151.31 51.5603 152.32L92.5603 175.98C101.33 181.05 108.44 176.979 108.44 166.809V89.8095C108.4 79.6795 101.28 67.3697 92.5203 62.2997Z" fill="#AFC3D5"/>
<path fill-rule="evenodd" clip-rule="evenodd" d="M50.1096 149.5C51.0486 149.519 51.966 149.784 52.7695 150.27L93.7695 173.92C97.2195 175.92 100.34 176.311 102.56 175.031C104.78 173.751 105.99 170.851 105.99 166.861V89.8608C105.99 80.5308 99.4096 69.1402 91.3296 64.4702L17.7595 22.0004C14.3095 20.0004 11.1895 19.6101 8.96948 20.8901C6.74948 22.1701 5.53955 25.07 5.53955 29.06V106.06C5.53955 115.39 12.1195 126.781 20.1995 131.451L28.5696 136.29C29.6976 137.004 30.6627 137.947 31.4019 139.058C32.141 140.169 32.6378 141.425 32.8596 142.741C34.4141 152.64 39.7257 161.558 47.6895 167.64C46.6341 163.237 46.0442 158.736 45.9294 154.21C45.878 153.391 46.0489 152.573 46.4238 151.842C46.7987 151.112 47.3638 150.496 48.0596 150.06C48.6838 149.694 49.3958 149.504 50.1196 149.51L50.1096 149.5ZM99.6196 180.661C96.6745 180.566 93.8057 179.701 91.2996 178.151L50.8296 154.79C50.977 158.764 51.5162 162.713 52.4395 166.581C53.0195 169.111 52.3594 171.28 50.6694 172.38C48.9794 173.48 46.9996 173.211 45.1196 171.821C35.9386 164.983 29.8031 154.819 28.0295 143.51C27.8074 142.3 27.1223 141.224 26.1196 140.51L17.7395 135.67C8.1495 130.14 0.639648 117.13 0.639648 106.05V29.0503C0.639648 23.2403 2.72952 18.8408 6.50952 16.6508C10.2895 14.4608 15.1494 14.8602 20.1794 17.7602L93.7495 60.2407C103.34 65.7707 110.85 78.7801 110.85 89.8501V166.85C110.85 172.66 108.759 177.061 104.979 179.241C103.349 180.176 101.499 180.659 99.6196 180.64V180.661Z" fill="#1C2A40"/>
<path fill-rule="evenodd" clip-rule="evenodd" d="M89.3396 117.31C89.3396 138.74 74.3395 147.42 55.7395 136.71C37.1395 126 22.1396 99.9395 22.1396 78.5195C22.1396 57.0995 37.1395 48.4101 55.7395 59.1201C74.3395 69.8301 89.3396 95.8895 89.3396 117.31Z" fill="#AFC3D5"/>
<path fill-rule="evenodd" clip-rule="evenodd" d="M40.7397 56.1504C37.9628 56.1035 35.2232 56.7936 32.7998 58.1504C26.9798 61.5104 23.7998 68.7303 23.7998 78.4903C23.7998 99.3603 38.5098 124.83 56.5898 135.28C65.0398 140.16 72.8997 140.99 78.7197 137.63C84.5397 134.27 87.7197 127.05 87.7197 117.29C87.7197 96.4201 73.0097 70.9398 54.9397 60.5098C49.9397 57.5998 45.0698 56.1299 40.7498 56.1299L40.7397 56.1504ZM70.7397 142.94C65.8597 142.94 60.4697 141.32 54.9197 138.12C35.9197 127.12 20.5098 100.43 20.5098 78.5196C20.5098 67.5196 24.2897 59.3304 31.1597 55.3604C38.0297 51.3904 47.0498 52.23 56.5498 57.71C75.5498 68.71 90.9597 95.3996 90.9597 117.31C90.9597 128.31 87.1798 136.51 80.3098 140.47C77.3989 142.127 74.0992 142.98 70.7498 142.94H70.7397Z" fill="#FEFEFE"/>
<path fill-rule="evenodd" clip-rule="evenodd" d="M45.7095 96.4405L45.0896 96.0802C42.7996 94.7502 40.9395 91.1998 40.9395 88.1398V76.6398C40.9395 73.5798 42.7996 72.1701 45.0896 73.5001L45.7095 73.8605C47.9995 75.1905 49.8596 78.7399 49.8596 81.7999V93.2999C49.8696 96.3599 48.0095 97.7605 45.7095 96.4405Z" fill="#AFC3D5"/>
<path fill-rule="evenodd" clip-rule="evenodd" d="M43.4402 74.6295C43.3498 74.627 43.2603 74.6482 43.1802 74.69C42.8702 74.87 42.5603 75.54 42.5603 76.69V88.19C42.5603 90.64 44.1204 93.6893 45.9004 94.7193L46.5203 95.0797C46.673 95.1973 46.8508 95.2779 47.0398 95.316C47.2288 95.3542 47.4239 95.3486 47.6104 95.2994C47.9204 95.1194 48.2302 94.4492 48.2302 93.3492V81.8492C48.2302 79.3992 46.6704 76.3499 44.8904 75.3199L44.2703 74.9693C44.0183 74.8067 43.7293 74.7111 43.4302 74.69L43.4402 74.6295ZM47.3704 98.5592C46.4978 98.542 45.6455 98.2938 44.9004 97.8395L44.2803 97.4898C41.4903 95.8798 39.2803 91.7693 39.2803 88.1393V76.6393C39.2803 74.4293 40.1003 72.6897 41.5303 71.8697C42.209 71.5147 42.9704 71.3476 43.7354 71.3863C44.5003 71.425 45.241 71.6678 45.8804 72.0895L46.5002 72.44C49.2902 74.05 51.5002 78.1596 51.5002 81.7896V93.2896C51.5002 95.4996 50.6802 97.2292 49.2502 98.0592C48.6788 98.3892 48.0302 98.5617 47.3704 98.5592Z" fill="#FEFEFE"/>
<path fill-rule="evenodd" clip-rule="evenodd" d="M66.3901 108.37L65.77 108.009C63.48 106.679 61.6201 103.13 61.6201 100.07V88.5699C61.6201 85.5099 63.48 84.1093 65.77 85.4293L66.3901 85.7896C68.6901 87.1196 70.54 90.6701 70.54 93.7301V105.23C70.54 108.3 68.6801 109.7 66.3901 108.37Z" fill="#AFC3D5"/>
<path fill-rule="evenodd" clip-rule="evenodd" d="M64.1204 86.5699C64.0289 86.569 63.939 86.5926 63.8604 86.6393C63.5504 86.8193 63.2402 87.4895 63.2402 88.5895V100.089C63.2402 102.539 64.8003 105.59 66.5803 106.62L67.2002 106.98C67.4202 107.11 67.9803 107.37 68.2903 107.2C68.6003 107.03 68.9102 106.35 68.9102 105.2V93.7096C68.9102 91.2596 67.3503 88.2093 65.5703 87.1793L64.9502 86.8199C64.6994 86.6625 64.4152 86.5663 64.1204 86.5397V86.5699ZM68.0403 110.5C67.1692 110.482 66.3177 110.237 65.5703 109.79L64.9502 109.429C62.1602 107.819 59.9502 103.71 59.9502 100.08V88.5797C59.9502 86.3797 60.7702 84.6392 62.2002 83.8092C62.8786 83.4532 63.6401 83.2861 64.4053 83.3248C65.1704 83.3635 65.9113 83.6072 66.5503 84.0299L67.1702 84.3893C69.9502 85.9993 72.1702 90.0998 72.1702 93.7398V105.23C72.1702 107.44 71.3502 109.18 69.9202 110C69.3488 110.33 68.7001 110.502 68.0403 110.5Z" fill="#FEFEFE"/>
<path fill-rule="evenodd" clip-rule="evenodd" d="M69.1504 127.5C66.7229 123.272 63.2877 119.709 59.1504 117.13L50.7102 112.26C47.2502 110.26 44.0402 109.829 41.7102 111.019L40.2402 108.12C43.6302 106.41 47.9304 106.89 52.3704 109.44L60.8103 114.32C65.4261 117.177 69.2634 121.13 71.9802 125.83L69.1504 127.5Z" fill="#FEFEFE"/>
</svg>
