<svg width="135" height="181" viewBox="0 0 135 181" fill="none" xmlns="http://www.w3.org/2000/svg">
<path fill-rule="evenodd" clip-rule="evenodd" d="M116 47.6503L42.5698 5.24994C38.3798 2.82994 34.5697 2.52014 31.7397 3.95014L28.8598 5.70014L7.72993 18.7001C7.67304 18.7281 7.62944 18.7769 7.60883 18.8369C7.58822 18.8968 7.59193 18.9624 7.61958 19.0195C8.68958 21.2595 18.6195 42.1101 19.5595 45.9501C19.9395 47.5701 23.0596 63.5103 26.6796 82.0703C26.6813 82.0869 26.6813 82.1034 26.6796 82.1201V91.4296C26.6796 96.6496 28.5798 102.43 31.6098 107.53C31.6147 107.557 31.6147 107.584 31.6098 107.61C35.3698 126.97 38.6098 143.5 38.6098 143.93L49.4897 169.62C49.5042 169.655 49.5262 169.686 49.5541 169.712C49.5821 169.738 49.6156 169.757 49.6518 169.768C49.688 169.78 49.7264 169.783 49.7641 169.778C49.8018 169.773 49.8375 169.761 49.8696 169.74L74.7397 155.25C74.7935 155.219 74.835 155.17 74.8569 155.111C74.8788 155.053 74.8798 154.989 74.8598 154.93L73.0097 149.69C72.4972 147.012 72.1631 144.303 72.0097 141.58L103.7 176.84C103.747 176.881 103.807 176.903 103.87 176.903C103.932 176.903 103.992 176.881 104.039 176.84L127.19 162.54L127.55 162.32C130.28 160.6 131.96 157.12 131.96 152.21V75.3203C132.01 65.2103 124.8 52.7303 116 47.6503Z" fill="#AFC3D5"/>
<path fill-rule="evenodd" clip-rule="evenodd" d="M69.2796 134.82L104.38 173.88L125.98 160.53L127.619 162.39L126.32 160.32C128.43 158.99 129.59 156.13 129.59 152.32V75.4298C129.59 66.1698 122.82 54.4296 114.8 49.8097L41.3695 7.41024C38.0795 5.52024 35.0597 5.07977 32.8597 6.17977L10.6995 19.8302C13.9495 26.6502 21.1298 41.9298 21.9598 45.4698C22.2998 46.8898 24.6295 58.7298 29.0995 81.6798L29.1497 82.2003V91.5098C29.3636 96.7731 30.942 101.891 33.7298 106.36L34.0496 107.16C37.6096 125.5 40.6596 141.26 41.0496 143.33L50.8695 166.5L72.0496 154.16L70.6595 150.03C70.147 147.308 69.813 144.556 69.6595 141.79L69.2894 134.87L69.2796 134.82ZM103.98 179.39C103.603 179.389 103.23 179.311 102.886 179.157C102.541 179.004 102.233 178.78 101.98 178.5L75.4696 149.01C75.4679 149.043 75.4679 149.077 75.4696 149.11L77.2498 154.191C77.4579 154.788 77.4507 155.44 77.2298 156.033C77.0089 156.627 76.5878 157.124 76.0394 157.441L50.2298 172.441L48.9696 172.12C48.6063 171.999 48.2726 171.803 47.9901 171.545C47.7075 171.287 47.4823 170.971 47.3294 170.62L36.2796 144.4C36.1996 143.99 33.0396 127.67 29.2796 108.46C26.1367 103.332 24.3891 97.4718 24.2098 91.46V82.3702C19.8398 59.9402 17.4597 47.8801 17.1497 46.5401C16.5597 44.0101 10.6395 31.0597 5.38949 20.0997C5.10626 19.5017 5.05196 18.8211 5.23617 18.1856C5.42038 17.5501 5.83036 17.0043 6.38949 16.6505L30.3895 1.84969C34.2795 -0.15031 38.9495 0.370198 43.6995 3.1202L117.13 45.5196C126.63 50.9996 134.36 64.3902 134.36 75.3702V152.26C134.36 157.86 132.359 162.191 128.809 164.441L105.289 178.981C104.886 179.232 104.424 179.373 103.95 179.39H103.98Z" fill="#1C2A40"/>
<path fill-rule="evenodd" clip-rule="evenodd" d="M115.93 47.6504L47.1001 8.05957L12.4902 29.7803L86.1704 68.5596L101.65 71.0098L125.47 56.8496C122.991 53.1311 119.736 49.9935 115.93 47.6504Z" fill="#FEFEFE"/>
<path fill-rule="evenodd" clip-rule="evenodd" d="M86.9399 66.2197L101.16 68.4697L121.89 56.1504C119.902 53.6029 117.466 51.4397 114.7 49.7695L47.1499 10.9199L17.3696 29.6104L86.9399 66.2305V66.2197ZM102.14 73.5703L85.0298 70.7305L7.59961 29.9805L47.0498 5.23047L117.15 45.5498C121.275 48.0682 124.801 51.4578 127.48 55.4805L128.97 57.6299L102.14 73.5703Z" fill="#1C2A40"/>
<path fill-rule="evenodd" clip-rule="evenodd" d="M107.62 83.6602C107.62 83.6602 77.8797 90.6596 75.9697 91.3896C74.3797 91.9896 45.2498 115.48 35.2998 126.48L38.6899 143.96L49.5698 169.65C49.5843 169.686 49.6063 169.717 49.6343 169.742C49.6623 169.768 49.6957 169.787 49.7319 169.799C49.7682 169.81 49.8061 169.814 49.8438 169.809C49.8814 169.804 49.9177 169.79 49.9497 169.77L74.8198 155.28C74.8737 155.249 74.9151 155.2 74.937 155.142C74.9589 155.083 74.9599 155.019 74.9399 154.96L73.0898 149.72C72.5773 147.042 72.2432 144.333 72.0898 141.61L103.78 176.87C103.827 176.911 103.887 176.934 103.95 176.934C104.012 176.934 104.072 176.911 104.12 176.87L127.27 162.57L127.63 162.35C130.36 160.63 132.04 157.15 132.04 152.24V75.3496C132.024 73.389 131.786 71.4371 131.33 69.5303L107.62 83.6602Z" fill="#1C2A40"/>
<path d="M87.9278 54.0954L70.2373 64.792L71.9273 67.587L89.6178 56.8904L87.9278 54.0954Z" fill="#AFC3D5"/>
<path d="M127.973 149.948L110.367 160.606L112.05 163.387L129.656 152.729L127.973 149.948Z" fill="#AFC3D5"/>
<path fill-rule="evenodd" clip-rule="evenodd" d="M92.5205 62.3095L18.9502 19.8397C10.1802 14.7797 3.07031 18.8397 3.07031 29.0097V106.01C3.07031 116.13 10.1802 128.45 18.9502 133.51L27.3203 138.35C28.1347 138.881 28.8312 139.575 29.3662 140.387C29.9012 141.199 30.2632 142.112 30.4302 143.07C32.1369 153.74 37.9246 163.328 46.5703 169.809C48.8903 171.529 50.7501 170.05 50.0601 167.08C49.0368 162.839 48.4672 158.501 48.3604 154.14C48.3604 152.14 49.8003 151.32 51.5503 152.33L92.5503 175.99C101.32 181.05 108.43 176.99 108.43 166.82V89.8202C108.4 79.6802 101.281 67.3695 92.5205 62.3095Z" fill="#AFC3D5"/>
<path fill-rule="evenodd" clip-rule="evenodd" d="M50.1099 149.5C51.049 149.517 51.9671 149.782 52.77 150.27L93.77 173.92C97.22 175.92 100.34 176.31 102.56 175.03C104.78 173.75 105.99 170.86 105.99 166.86V89.8605C105.99 80.5305 99.4196 69.1399 91.3296 64.4699L17.7598 22.0001C14.3098 20.0001 11.19 19.6098 8.97998 20.8898C6.76998 22.1698 5.5498 25.0697 5.5498 29.0597V106.06C5.5498 115.39 12.13 126.78 20.21 131.45L28.5898 136.29C29.7179 137.004 30.6827 137.946 31.4219 139.058C32.161 140.169 32.658 141.424 32.8799 142.74C34.4333 152.635 39.7411 161.549 47.6997 167.63C46.6321 163.23 46.0453 158.727 45.9497 154.2C45.8986 153.38 46.0695 152.56 46.4443 151.828C46.8191 151.096 47.3838 150.478 48.0796 150.04C48.705 149.677 49.4162 149.487 50.1396 149.49L50.1099 149.5ZM99.6196 180.66C96.6742 180.567 93.8052 179.702 91.2998 178.151L50.8296 154.79C50.9672 158.764 51.5069 162.715 52.4399 166.58C53.0199 169.1 52.3599 171.28 50.6699 172.38C48.9799 173.48 46.9996 173.22 45.1196 171.82C35.9386 164.983 29.8034 154.819 28.0298 143.51C27.8071 142.297 27.1179 141.22 26.1099 140.51L17.73 135.67C8.13998 130.14 0.629883 117.13 0.629883 106.05V29.0499C0.629883 23.2399 2.72 18.8403 6.5 16.6603C10.28 14.4803 15.1399 14.8697 20.1699 17.7697L93.7397 60.2404C103.33 65.7704 110.84 78.7905 110.84 89.8605V166.86C110.84 172.67 108.75 177.07 104.97 179.26C103.34 180.186 101.494 180.662 99.6196 180.64V180.66Z" fill="#1C2A40"/>
<path fill-rule="evenodd" clip-rule="evenodd" d="M54.4897 127.33C49.0001 123.978 44.2394 119.557 40.4897 114.33L74.6699 91.6302C77.9899 98.5102 79.9897 105.87 79.9897 112.63C79.9897 128.85 68.57 135.44 54.52 127.33H54.4897ZM29.02 83.22C29.02 90.07 31.0797 97.5506 34.4897 104.531L68.73 81.7903C64.9305 76.4451 60.0819 71.9294 54.48 68.5198C40.48 60.4098 29.0098 67.01 29.0098 83.22H29.02ZM54.4897 59.1204C35.9597 48.4304 20.8896 57.1198 20.8896 78.5198C20.8896 99.9198 35.9597 126.02 54.4897 136.71C73.0197 147.4 88.0898 138.71 88.0898 117.31C88.0898 95.9099 73.0197 69.8202 54.4897 59.1302V59.1204Z" fill="#AFC3D5"/>
<path fill-rule="evenodd" clip-rule="evenodd" d="M43.1499 66.6703C41.1054 66.6395 39.0893 67.154 37.3096 68.1606C33.0196 70.6406 30.6597 75.9901 30.6597 83.2201C30.8169 89.7704 32.3539 96.2141 35.1699 102.13L66.3999 81.3901C62.9226 76.8002 58.6061 72.9115 53.6797 69.9301C50.5126 67.9468 46.8836 66.8235 43.1499 66.6703ZM33.8496 106.911L33.0298 105.241C29.3498 97.7106 27.3999 90.0906 27.3999 83.2406C27.3999 74.7906 30.3397 68.44 35.6797 65.35C41.0197 62.26 47.9896 62.8905 55.3096 67.1205C61.1053 70.639 66.1214 75.3044 70.0498 80.8305L71.0498 82.2104L33.8296 106.92L33.8496 106.911ZM42.8496 114.741L73.9897 94.0502C76.7172 99.8742 78.2054 106.201 78.3599 112.63C78.3599 119.86 76 125.211 71.71 127.691C67.42 130.171 61.6098 129.54 55.3398 125.92C50.5196 123.004 46.2869 119.212 42.8599 114.741H42.8496ZM65.8496 132.441C61.539 132.294 57.3424 131.018 53.6797 128.741C47.9876 125.288 43.0494 120.724 39.1597 115.321L38.1597 113.941L75.3198 89.2602L76.1299 90.9408C79.539 97.6758 81.4072 105.084 81.5996 112.63C81.5996 121.08 78.6598 127.43 73.3198 130.51C71.0479 131.803 68.4736 132.469 65.8599 132.441H65.8496ZM39.5298 56.1703C43.8398 56.1703 48.6599 57.6405 53.6899 60.5405C71.7699 70.9805 86.4697 96.4507 86.4697 117.321C86.4697 127.061 83.2597 134.32 77.4697 137.64C71.6797 140.96 63.7796 140.17 55.3496 135.3C37.2696 124.86 22.5698 99.3899 22.5698 78.5199C22.5698 68.7799 25.7798 61.5206 31.5698 58.2006C34.0103 56.8321 36.7725 56.1416 39.5698 56.2006L39.5298 56.1703ZM69.5298 142.941C64.6498 142.941 59.27 141.33 53.73 138.13C34.73 127.13 19.3096 100.441 19.3096 78.5307C19.3096 67.5807 23.1 59.3601 29.98 55.3901C36.86 51.4201 45.8696 52.2501 55.3496 57.7201C74.3496 68.7201 89.7598 95.4205 89.7598 117.33C89.7598 128.33 85.9698 136.5 79.0898 140.47C76.1609 142.137 72.8393 142.99 69.4697 142.941H69.5298Z" fill="#FEFEFE"/>
</svg>
