<svg width="66" height="67" viewBox="0 0 66 67" fill="none" xmlns="http://www.w3.org/2000/svg">
<path fill-rule="evenodd" clip-rule="evenodd" d="M33.2896 66.11C39.7293 66.11 46.0244 64.2004 51.3789 60.6227C56.7334 57.0449 60.9067 51.9598 63.3711 46.0102C65.8355 40.0606 66.4805 33.5139 65.2241 27.1979C63.9678 20.8818 60.8666 15.0802 56.313 10.5266C51.7594 5.97302 45.9581 2.87197 39.6421 1.61564C33.3261 0.359303 26.7792 1.00409 20.8296 3.46848C14.88 5.93287 9.79502 10.1062 6.21729 15.4606C2.63955 20.8151 0.729492 27.1102 0.729492 33.55C0.745352 42.1806 4.18094 50.4532 10.2837 56.5559C16.3864 62.6587 24.659 66.0941 33.2896 66.11Z" fill="#F2F4F9"/>
<path fill-rule="evenodd" clip-rule="evenodd" d="M31.71 21.37C31.71 20.951 31.8765 20.5491 32.1729 20.2528C32.4692 19.9565 32.871 19.79 33.29 19.79C33.7091 19.79 34.1109 19.9565 34.4072 20.2528C34.7035 20.5491 34.8701 20.951 34.8701 21.37V45.73C34.8701 46.1491 34.7035 46.551 34.4072 46.8473C34.1109 47.1436 33.7091 47.31 33.29 47.31C32.871 47.31 32.4692 47.1436 32.1729 46.8473C31.8765 46.551 31.71 46.1491 31.71 45.73V21.37Z" fill="#FF7594"/>
<path fill-rule="evenodd" clip-rule="evenodd" d="M21.0996 35.13C20.6806 35.13 20.2787 34.9635 19.9824 34.6672C19.6861 34.3709 19.5195 33.969 19.5195 33.55C19.5195 33.1309 19.6861 32.729 19.9824 32.4327C20.2787 32.1364 20.6806 31.97 21.0996 31.97H45.4595C45.8785 31.97 46.2808 32.1364 46.5771 32.4327C46.8735 32.729 47.0396 33.1309 47.0396 33.55C47.0396 33.969 46.8735 34.3709 46.5771 34.6672C46.2808 34.9635 45.8785 35.13 45.4595 35.13H21.0996Z" fill="#FF7594"/>
</svg>
