<svg width="18" height="18" viewBox="0 0 18 18" fill="none" xmlns="http://www.w3.org/2000/svg">
<path fill-rule="evenodd" clip-rule="evenodd" d="M9 17.0996C11.1217 17.0996 13.1567 16.2571 14.657 14.7568C16.1573 13.2565 17 11.2213 17 9.09961C17 6.97788 16.1573 4.94267 14.657 3.44238C13.1567 1.94209 11.1217 1.09961 9 1.09961C6.87827 1.09961 4.84355 1.94209 3.34326 3.44238C1.84297 4.94267 1 6.97788 1 9.09961C1 11.2213 1.84297 13.2565 3.34326 14.7568C4.84355 16.2571 6.87827 17.0996 9 17.0996Z" stroke="#FDFDFD" stroke-width="1.5" stroke-miterlimit="22.9256"/>
<path d="M9.97325 4.38089V8.24487H13.6463V9.55407H9.97325V13.4271H8.56403V9.55407H4.90917V8.24487H8.56403V4.38089H9.97325Z" fill="#FDFDFD"/>
</svg>
