<svg width="135" height="181" viewBox="0 0 135 181" fill="none" xmlns="http://www.w3.org/2000/svg">
<path fill-rule="evenodd" clip-rule="evenodd" d="M116.05 47.6503L42.6201 5.24994C38.4301 2.82994 34.6201 2.52014 31.8001 3.95014L28.9201 5.70014L7.79012 18.7001C7.73501 18.73 7.69312 18.7795 7.67275 18.8388C7.65238 18.8981 7.65503 18.9621 7.68014 19.0195C8.75014 21.2595 18.6801 42.1101 19.6201 45.9501C20.0001 47.5701 23.1201 63.5103 26.7401 82.0703V91.3798C26.7401 96.5998 28.6401 102.38 31.6701 107.48C31.6755 107.507 31.6755 107.533 31.6701 107.56C35.4301 126.92 38.6701 143.45 38.6701 143.88L49.5501 169.57C49.565 169.605 49.587 169.636 49.6147 169.662C49.6424 169.688 49.6753 169.707 49.7111 169.72C49.747 169.732 49.785 169.737 49.8227 169.733C49.8604 169.73 49.8971 169.719 49.9301 169.7L74.8001 155.21C74.8554 155.18 74.898 155.131 74.9201 155.072C74.9421 155.013 74.9422 154.948 74.9201 154.89L73.0701 149.65C72.5553 146.972 72.2212 144.263 72.0701 141.54L103.76 176.8C103.807 176.841 103.868 176.863 103.93 176.863C103.993 176.863 104.053 176.841 104.1 176.8L127.25 162.5L127.61 162.28C130.34 160.56 132.02 157.08 132.02 152.17V75.2802C132.06 65.2102 124.86 52.7303 116.05 47.6503Z" fill="#AFC3D5"/>
<path fill-rule="evenodd" clip-rule="evenodd" d="M69.2805 134.831L104.38 173.89L125.98 160.54L127.62 162.39L126.32 160.321C128.43 158.991 129.59 156.131 129.59 152.321V75.4301C129.59 66.1801 122.82 54.43 114.8 49.81L41.3605 7.41058C38.0705 5.51058 35.0505 5.07035 32.8505 6.17035L10.6904 19.8305C13.6304 26.0005 21.1104 41.8801 21.9504 45.4701C22.2904 46.8901 24.6205 58.7401 29.0905 81.6801V82.2006V91.5102C29.0905 96.0502 30.7605 101.511 33.6705 106.361L33.9005 106.75L34.0104 107.27L41.0104 143.34L50.8304 166.51L72.0104 154.17L70.6705 150.3C70.1237 147.494 69.7662 144.654 69.6005 141.8L69.2305 134.89L69.2805 134.831ZM103.98 179.401C103.604 179.4 103.232 179.322 102.888 179.17C102.544 179.019 102.235 178.797 101.98 178.52L75.4604 149.01C75.4604 149.01 75.4604 149.081 75.4604 149.111L77.2504 154.201C77.4567 154.796 77.4498 155.445 77.231 156.036C77.0121 156.627 76.5949 157.123 76.0505 157.441L50.2805 172.5L49.0204 172.18C48.6528 172.059 48.3154 171.861 48.0308 171.599C47.7462 171.337 47.521 171.017 47.3705 170.661L36.3705 144.39L29.3705 108.5C26.2386 103.368 24.4917 97.5102 24.3005 91.5004V82.4008C19.9305 59.9708 17.5605 47.9205 17.2405 46.5805C16.6405 44.0305 10.7205 31.0908 5.47046 20.1508C5.17988 19.5525 5.12129 18.867 5.30597 18.228C5.49065 17.589 5.9055 17.0419 6.47046 16.6909L30.4705 1.90082C34.3605 -0.0991842 39.0305 0.430347 43.7805 3.17035L117.28 45.5004C126.78 50.9904 134.51 64.38 134.51 75.35V152.241C134.51 157.841 132.51 162.17 128.95 164.42L105.43 178.96C105.007 179.237 104.516 179.389 104.01 179.401H103.98Z" fill="#1C2A40"/>
<path fill-rule="evenodd" clip-rule="evenodd" d="M115.98 47.6504L47.15 8.05957L12.54 29.7803L86.22 68.5596L101.7 71.0098L125.52 56.8496C123.04 53.1311 119.786 49.9935 115.98 47.6504Z" fill="#FEFEFE"/>
<path fill-rule="evenodd" clip-rule="evenodd" d="M86.9996 66.2197L101.21 68.4697L121.94 56.1504C119.95 53.6046 117.514 51.4417 114.75 49.7695L47.1996 10.9199L17.4197 29.6104L86.9897 66.2305L86.9996 66.2197ZM102.19 73.5703L85.0797 70.7305L7.63965 29.9697L47.0897 5.20996L117.19 45.5303C121.315 48.0486 124.84 51.4373 127.52 55.46L129.02 57.6104L102.19 73.5703Z" fill="#1C2A40"/>
<path fill-rule="evenodd" clip-rule="evenodd" d="M107.67 83.6602C107.67 83.6602 77.9296 90.6596 76.0196 91.3896C74.4196 91.9896 45.2896 115.48 35.3496 126.48C37.3496 136.64 38.6796 143.68 38.7296 143.96L49.6096 169.65C49.6245 169.685 49.6465 169.716 49.6742 169.742C49.7019 169.768 49.7348 169.788 49.7706 169.8C49.8065 169.812 49.8445 169.817 49.8822 169.813C49.9199 169.81 49.9565 169.799 49.9896 169.78L74.8596 155.29C74.9149 155.26 74.9575 155.211 74.9796 155.152C75.0016 155.094 75.0017 155.029 74.9796 154.97L73.1296 149.73C72.6148 147.053 72.2807 144.343 72.1296 141.62L103.82 176.88C103.867 176.921 103.927 176.943 103.99 176.943C104.052 176.943 104.112 176.921 104.16 176.88L127.31 162.58L127.67 162.36C130.4 160.64 132.08 157.16 132.08 152.25V75.3604C132.063 73.3998 131.825 71.4471 131.37 69.54L107.67 83.6602Z" fill="#1C2A40"/>
<path d="M128.963 80.4325L111.351 91.0781L113.037 93.8679L130.649 83.2223L128.963 80.4325Z" fill="#AFC3D5"/>
<path d="M127.9 149.732L110.295 160.39L111.983 163.178L129.588 152.52L127.9 149.732Z" fill="#AFC3D5"/>
<path fill-rule="evenodd" clip-rule="evenodd" d="M92.5799 62.2997L19.0099 19.83C10.2399 14.77 3.12988 18.8299 3.12988 28.9999V106C3.12988 116.13 10.2399 128.44 19.0099 133.5L27.3899 138.34C28.2031 138.874 28.8979 139.569 29.4312 140.383C29.9644 141.196 30.3248 142.111 30.4899 143.07C32.1967 153.74 37.9842 163.328 46.6299 169.809C48.9499 171.529 50.8099 170.06 50.1199 167.08C49.0984 162.839 48.5286 158.501 48.4199 154.14C48.4199 152.14 49.8599 151.32 51.6099 152.33L92.6099 175.99C101.38 181.05 108.49 176.99 108.49 166.82V89.8202C108.46 79.6802 101.35 67.3697 92.5799 62.2997Z" fill="#AFC3D5"/>
<path fill-rule="evenodd" clip-rule="evenodd" d="M50.1705 149.5C51.1094 149.519 52.0269 149.784 52.8304 150.27L93.8304 173.93C97.2804 175.93 100.41 176.32 102.62 175.04C104.83 173.76 106.05 170.86 106.05 166.88V89.8801C106.05 80.5501 99.4704 69.1605 91.3904 64.4905L17.8204 22.0198C14.3604 20.0198 11.2405 19.6304 9.04047 20.9104C6.84047 22.1904 5.61047 25.0803 5.61047 29.0803V106.08C5.61047 115.41 12.1804 126.8 20.2704 131.47L28.6505 136.31C29.7789 137.023 30.7443 137.966 31.4835 139.077C32.2227 140.189 32.7192 141.444 32.9404 142.76C34.4934 152.657 39.8012 161.576 47.7604 167.66C46.711 163.257 46.1245 158.756 46.0104 154.231C45.9601 153.411 46.1313 152.593 46.5061 151.863C46.8809 151.132 47.4454 150.517 48.1404 150.08C48.7658 149.717 49.477 149.527 50.2004 149.531L50.1705 149.5ZM99.6805 180.66C96.7363 180.569 93.8676 179.707 91.3605 178.16L50.9005 154.79C51.0451 158.764 51.5844 162.713 52.5104 166.58C53.0904 169.11 52.4305 171.28 50.7305 172.38C49.0305 173.48 47.0605 173.211 45.1805 171.821C35.9959 164.98 29.8571 154.813 28.0804 143.5C27.8623 142.288 27.1763 141.211 26.1705 140.5L17.7905 135.66C8.20047 130.13 0.69043 117.12 0.69043 106.04V29.0403C0.69043 23.2303 2.78049 18.8299 6.56049 16.6399C10.3405 14.4499 15.2005 14.8403 20.2305 17.7503L93.8005 60.22C103.39 65.75 110.9 78.7601 110.9 89.8401V166.84C110.9 172.65 108.81 177.051 105.03 179.231C103.404 180.168 101.557 180.654 99.6805 180.64V180.66Z" fill="#1C2A40"/>
<path fill-rule="evenodd" clip-rule="evenodd" d="M87.6202 129.03L81.7802 121.759C82.404 119.346 82.7132 116.863 82.7001 114.37C82.674 111.526 82.3658 108.693 81.7802 105.91L87.6202 105.389C88.4602 105.319 88.7501 104.24 88.2601 102.98L82.9702 89.3601C82.4802 88.1101 81.4101 87.1502 80.5701 87.2302L74.7501 87.7497C71.5804 82.2256 67.5613 77.2345 62.8402 72.9597V65.1696C62.8073 64.5587 62.6308 63.9642 62.325 63.4343C62.0192 62.9043 61.5927 62.454 61.0802 62.1198L50.5101 56.0192C49.5101 55.4592 48.7501 55.9092 48.7501 57.0192V64.8093C44.1901 63.6093 40.1002 63.9893 36.8402 65.8093L31.0202 58.57C30.1802 57.57 29.1002 57.2294 28.6102 57.9294L23.2802 65.4997C22.7902 66.1897 23.0802 67.6001 23.9302 68.6501L29.7702 75.9196C29.1488 78.3367 28.843 80.8244 28.8602 83.32C28.8831 86.1632 29.1879 88.997 29.7702 91.78L23.9302 92.2995C23.0902 92.3795 22.8002 93.4497 23.2802 94.7097L28.5701 108.34C29.0601 109.59 30.1402 110.549 30.9802 110.469L36.8002 109.95C39.9682 115.475 43.9875 120.467 48.7102 124.74V132.53C48.7438 133.141 48.9206 133.735 49.2263 134.264C49.5321 134.794 49.9582 135.245 50.4702 135.58L61.0402 141.679C62.0402 142.239 62.8002 141.789 62.8002 140.679V132.9C67.3602 134.1 71.4502 133.71 74.7102 131.9L80.5302 139.139C81.3702 140.139 82.4502 140.48 82.9302 139.78L88.2202 132.259C88.7502 131.499 88.4702 130.07 87.6202 129.03Z" fill="#AFC3D5"/>
<path fill-rule="evenodd" clip-rule="evenodd" d="M68.5398 106.19C68.5398 114.32 62.8298 117.61 55.7898 113.55C48.7498 109.49 43.0498 99.5996 43.0498 91.4696C43.0498 83.3396 48.7598 80.0502 55.7898 84.1102C62.8198 88.1702 68.5398 98.0603 68.5398 106.19Z" fill="#AFC3D5"/>
<path fill-rule="evenodd" clip-rule="evenodd" d="M65.8803 120.05L52.0903 112.05L49.6403 56.4697L68.2803 67.2998L65.8303 120.05H65.8803ZM63.0903 143.8C63.9222 143.809 64.7422 143.603 65.4703 143.2C67.3403 142.14 68.3003 139.93 68.3003 136.64C68.3323 133.66 67.5509 130.729 66.0403 128.16C64.5124 125.59 62.3366 123.466 59.7303 122C56.6503 120.22 54.2503 119.82 52.4103 120.81C50.5703 121.8 49.5903 124.06 49.5903 127.55C49.5685 130.523 50.353 133.447 51.8603 136.01C53.4135 138.603 55.6158 140.748 58.2503 142.23C59.6969 143.164 61.3614 143.704 63.0803 143.8H63.0903Z" fill="#FEFEFE"/>
<path fill-rule="evenodd" clip-rule="evenodd" d="M56.6401 108.76L45.6401 102.42L43.3501 50.3604L58.9101 59.3604L56.6201 108.77L56.6401 108.76ZM43.1901 118.76C43.1901 115.853 43.8567 114.043 45.1901 113.33C46.5234 112.617 48.4868 113.007 51.0801 114.5C53.4656 115.835 55.4588 117.773 56.8601 120.12C58.2171 122.467 58.9086 125.139 58.8601 127.85C58.8601 130.576 58.1701 132.333 56.7901 133.12C55.4101 133.907 53.4901 133.573 51.0301 132.12C48.6625 130.772 46.6822 128.836 45.2801 126.5C43.8881 124.156 43.1652 121.476 43.1901 118.75V118.76Z" fill="#1C2A40"/>
</svg>
