<svg width="26" height="18" viewBox="0 0 26 18" fill="none" xmlns="http://www.w3.org/2000/svg">
<path fill-rule="evenodd" clip-rule="evenodd" d="M0.670242 13.72C0.468656 13.9623 0.316495 14.2423 0.222976 14.5433C0.129457 14.8443 0.0965333 15.1611 0.12532 15.4749C0.154106 15.7888 0.244236 16.0934 0.390945 16.3724C0.537653 16.6513 0.737517 16.8984 0.979812 17.0999C1.2221 17.3015 1.50207 17.4537 1.80305 17.5472C2.10404 17.6407 2.42083 17.6746 2.73469 17.6458C3.04856 17.617 3.3532 17.5259 3.63216 17.3792C3.91111 17.2325 4.1591 17.0327 4.36067 16.7904L13.0404 6.34016L21.7103 16.7904C21.9119 17.0327 22.1589 17.2325 22.4378 17.3792C22.7168 17.5259 23.0224 17.617 23.3363 17.6458C23.6501 17.6746 23.9659 17.6407 24.2669 17.5472C24.5679 17.4537 24.8479 17.3015 25.0902 17.0999C25.3325 16.8984 25.5323 16.6513 25.679 16.3724C25.8257 16.0934 25.9168 15.7888 25.9456 15.4749C25.9744 15.1611 25.9405 14.8443 25.847 14.5433C25.7535 14.2423 25.6023 13.9623 25.4007 13.72L14.89 1.05989L14.5706 0.740554C14.3283 0.538968 14.0484 0.386807 13.7474 0.293288C13.4464 0.19977 13.1296 0.166846 12.8157 0.195632C12.5019 0.224419 12.1972 0.314548 11.9183 0.461257C11.6393 0.607966 11.3913 0.80783 11.1898 1.05012L0.670242 13.72Z" fill="#AFC3D5"/>
</svg>
