<svg width="26" height="19" viewBox="0 0 26 19" fill="none" xmlns="http://www.w3.org/2000/svg">
<path fill-rule="evenodd" clip-rule="evenodd" d="M0.670242 4.64039C0.468656 4.3981 0.316495 4.11813 0.222976 3.81715C0.129457 3.51616 0.0965333 3.19986 0.12532 2.88599C0.154106 2.57213 0.244236 2.267 0.390945 1.98805C0.537653 1.70909 0.737517 1.46159 0.979812 1.26002C1.2221 1.05843 1.50207 0.906759 1.80305 0.813241C2.10404 0.719722 2.42083 0.68631 2.73469 0.715096C3.04856 0.743883 3.3532 0.834501 3.63216 0.98121C3.91111 1.12792 4.1591 1.32778 4.36067 1.57008L13.0404 12.0203L21.7103 1.57008C21.9119 1.32778 22.1589 1.12792 22.4378 0.98121C22.7168 0.834501 23.0224 0.743883 23.3363 0.715096C23.6501 0.68631 23.9659 0.719722 24.2669 0.813241C24.5679 0.906759 24.8479 1.05843 25.0902 1.26002C25.3325 1.46159 25.5323 1.70909 25.679 1.98805C25.8257 2.267 25.9168 2.57213 25.9456 2.88599C25.9744 3.19986 25.9405 3.51616 25.847 3.81715C25.7535 4.11813 25.6023 4.3981 25.4007 4.64039L14.89 17.3001L14.5706 17.6204C14.3283 17.822 14.0484 17.9736 13.7474 18.0671C13.4464 18.1607 13.1296 18.1941 12.8157 18.1653C12.5019 18.1365 12.1972 18.0464 11.9183 17.8997C11.6393 17.753 11.3913 17.5526 11.1898 17.3103L0.670242 4.64039Z" fill="#1C2A40"/>
</svg>
