<svg width="16" height="24" viewBox="0 0 16 24" fill="none" xmlns="http://www.w3.org/2000/svg">
<path fill-rule="evenodd" clip-rule="evenodd" d="M3.68977 0.838566C3.47562 0.658071 3.2274 0.522354 2.96028 0.438175C2.69315 0.353997 2.41207 0.323227 2.13313 0.348332C1.85418 0.373437 1.58308 0.454139 1.33528 0.58466C1.08748 0.715181 0.868252 0.893242 0.689769 1.10907C0.509274 1.32323 0.37258 1.57047 0.288402 1.83759C0.204223 2.10471 0.174429 2.38677 0.199534 2.66571C0.224639 2.94466 0.304365 3.21577 0.434886 3.46357C0.565407 3.71136 0.743468 3.93059 0.9593 4.10907L10.1995 11.779L0.9593 19.4489C0.743468 19.6274 0.565407 19.8471 0.434886 20.0949C0.304365 20.3427 0.224639 20.6138 0.199534 20.8928C0.174429 21.1717 0.204223 21.4528 0.288402 21.7199C0.37258 21.987 0.509274 22.2348 0.689769 22.4489C0.868252 22.6647 1.08748 22.8433 1.33528 22.9738C1.58308 23.1043 1.85418 23.1846 2.13313 23.2097C2.41207 23.2348 2.69315 23.204 2.96028 23.1198C3.2274 23.0356 3.47562 22.8994 3.68977 22.7189L14.8802 13.4289L15.1595 13.1491C15.34 12.935 15.4767 12.6872 15.5609 12.4201C15.645 12.153 15.6748 11.8714 15.6497 11.5925C15.6246 11.3135 15.5449 11.0424 15.4144 10.7946C15.2839 10.5468 15.1058 10.3276 14.89 10.1491L3.68977 0.838566Z" fill="#FEFEFE"/>
</svg>
