<svg width="17" height="24" viewBox="0 0 17 24" fill="none" xmlns="http://www.w3.org/2000/svg">
<path fill-rule="evenodd" clip-rule="evenodd" d="M12.6898 0.838566C12.9039 0.658071 13.1521 0.522354 13.4193 0.438175C13.6864 0.353997 13.9675 0.323227 14.2464 0.348332C14.5254 0.373437 14.7965 0.454139 15.0443 0.58466C15.2921 0.715181 15.5113 0.893242 15.6898 1.10907C15.8703 1.32323 16.007 1.57047 16.0911 1.83759C16.1753 2.10471 16.2051 2.38677 16.18 2.66571C16.1549 2.94466 16.0752 3.21577 15.9447 3.46357C15.8141 3.71136 15.6361 3.93059 15.4202 4.10907L6.18 11.779L15.4202 19.4489C15.6361 19.6274 15.8141 19.8471 15.9447 20.0949C16.0752 20.3427 16.1549 20.6138 16.18 20.8928C16.2051 21.1717 16.1753 21.4528 16.0911 21.7199C16.007 21.987 15.8703 22.2348 15.6898 22.4489C15.5113 22.6647 15.2921 22.8433 15.0443 22.9738C14.7965 23.1043 14.5254 23.1846 14.2464 23.2097C13.9675 23.2348 13.6864 23.204 13.4193 23.1198C13.1521 23.0356 12.9039 22.8994 12.6898 22.7189L1.49934 13.4289L1.22004 13.1491C1.03955 12.935 0.902853 12.6872 0.818675 12.4201C0.734497 12.153 0.704703 11.8714 0.729808 11.5925C0.754913 11.3135 0.834638 11.0424 0.965159 10.7946C1.09568 10.5468 1.27374 10.3276 1.48957 10.1491L12.6898 0.838566Z" fill="#FEFEFE"/>
</svg>
