<svg width="384" height="257" viewBox="0 0 384 257" fill="none" xmlns="http://www.w3.org/2000/svg">
<path fill-rule="evenodd" clip-rule="evenodd" d="M382.469 20.9268L383.023 234.249C383.031 239.967 380.77 245.454 376.736 249.506C372.703 253.559 367.226 255.845 361.508 255.864L23.1699 256.741C20.3344 256.747 17.5254 256.195 14.9034 255.116C12.2814 254.037 9.89771 252.452 7.88854 250.451C5.87936 248.45 4.28407 246.073 3.19379 243.456C2.10352 240.838 1.53963 238.031 1.53434 235.196L0.980105 21.874C0.970827 19.2349 1.48179 16.6199 2.48378 14.1783C3.48577 11.7368 4.95915 9.51671 6.81968 7.64495C8.6802 5.77319 10.8914 4.28647 13.3268 3.2698C15.7623 2.25314 18.3742 1.72643 21.0134 1.71983L362.324 0.833071C364.967 0.826444 367.586 1.34127 370.029 2.34811C372.473 3.35495 374.694 4.83399 376.565 6.70053C378.437 8.56706 379.921 10.7844 380.934 13.2256C381.947 15.6667 382.469 18.2838 382.469 20.9268Z" fill="#737C8B"/>
<path fill-rule="evenodd" clip-rule="evenodd" d="M85.5459 87.7064L42.95 87.8374C37.589 87.8374 33.2156 82.7988 33.2055 76.6518L33.145 49.5948C33.145 43.3974 37.4681 38.3589 42.8392 38.3488L85.435 38.2178C90.8061 38.2178 95.1594 43.2563 95.1796 49.4134L95.2401 76.4603C95.2199 82.6578 90.8767 87.6963 85.5459 87.7064Z" fill="#E4E8F2"/>
<path fill-rule="evenodd" clip-rule="evenodd" d="M338.483 64.7317L306.085 64.8123C304.302 64.817 302.536 64.4704 300.888 63.7926C299.239 63.1147 297.74 62.1187 296.476 60.8616C293.924 58.3226 292.485 54.8738 292.476 51.2738C292.466 47.6737 293.887 44.2175 296.426 41.6653C298.965 39.1131 302.414 37.674 306.014 37.6646L338.412 37.584C340.195 37.5794 341.961 37.9259 343.609 38.6038C345.258 39.2816 346.757 40.2776 348.021 41.5348C349.284 42.7919 350.288 44.2857 350.974 45.9308C351.661 47.5759 352.017 49.3401 352.021 51.1226C352.026 52.9051 351.679 54.6711 351.001 56.3198C350.324 57.9684 349.328 59.4674 348.07 60.7311C346.813 61.9948 345.319 62.9985 343.674 63.685C342.029 64.3714 340.265 64.7271 338.483 64.7317Z" fill="#FEFEFE"/>
<path d="M213.375 187.65H32.2188V196.559H213.375V187.65Z" fill="#AFC3D5"/>
<path d="M161.784 206.715L33.5234 207.051L33.5468 215.959L161.808 215.623L161.784 206.715Z" fill="#AFC3D5"/>
<path d="M279.979 37.7361L189.628 37.9727L189.651 46.8808L280.002 46.6442L279.979 37.7361Z" fill="#AFC3D5"/>
<path fill-rule="evenodd" clip-rule="evenodd" d="M34.4269 148.954H39.0019V134.383C39.0019 133.966 39.0019 133.523 39.0019 133.052L35.2028 136.317C35.0945 136.416 34.9627 136.486 34.8199 136.519C34.6999 136.541 34.577 136.541 34.4571 136.519C34.3494 136.499 34.2468 136.458 34.1548 136.398C34.0692 136.349 33.994 136.284 33.9331 136.207L33.0967 135.058L39.4654 129.556H41.632V148.944H45.8341V150.959H34.4269V148.954Z" fill="#FEFEFE"/>
<path fill-rule="evenodd" clip-rule="evenodd" d="M56.8075 129.376C57.6705 129.369 58.5287 129.505 59.347 129.779C60.0896 130.031 60.7747 130.428 61.3624 130.948C61.9453 131.468 62.4093 132.107 62.7228 132.822C63.0644 133.614 63.2328 134.469 63.2166 135.331C63.2224 136.086 63.0997 136.835 62.8538 137.548C62.6 138.236 62.2615 138.889 61.8461 139.493C61.4224 140.13 60.9508 140.733 60.4353 141.297C59.9046 141.882 59.3402 142.473 58.7423 143.071L53.1092 148.825C53.5071 148.715 53.9108 148.627 54.3185 148.563C54.7085 148.501 55.1027 148.471 55.4975 148.472H62.6522C62.7776 148.465 62.9029 148.484 63.0207 148.528C63.1385 148.571 63.2463 148.638 63.3375 148.724C63.4218 148.81 63.4877 148.913 63.531 149.025C63.5743 149.138 63.5942 149.258 63.5894 149.379V150.991H49.4009V150.054C49.4032 149.853 49.4443 149.655 49.5218 149.47C49.6068 149.261 49.7337 149.073 49.8946 148.915L56.737 142.043C57.3013 141.468 57.8253 140.914 58.2889 140.38C58.7305 139.881 59.1283 139.345 59.478 138.778C59.7929 138.265 60.0466 137.717 60.2338 137.145C60.4169 136.575 60.5087 135.98 60.5058 135.382C60.5165 134.816 60.4137 134.254 60.2035 133.729C60.0253 133.284 59.7498 132.885 59.3974 132.56C59.0438 132.246 58.6284 132.009 58.178 131.865C57.6931 131.708 57.1862 131.63 56.6765 131.633C56.166 131.629 55.6585 131.711 55.175 131.875C54.7367 132.025 54.3277 132.25 53.9658 132.54C53.6146 132.823 53.3146 133.163 53.079 133.548C52.839 133.942 52.6685 134.375 52.5752 134.828C52.5047 135.111 52.3326 135.358 52.0915 135.523C51.8238 135.646 51.5239 135.682 51.2349 135.624L49.8443 135.382C49.962 134.477 50.2383 133.601 50.6605 132.792C51.0402 132.071 51.5571 131.431 52.1822 130.908C52.8025 130.394 53.5134 130.001 54.2782 129.749C55.0957 129.489 55.9498 129.363 56.8075 129.376Z" fill="#FEFEFE"/>
<path fill-rule="evenodd" clip-rule="evenodd" d="M74.209 129.376C75.0607 129.365 75.9083 129.495 76.7182 129.758C77.4568 129.991 78.1418 130.368 78.7336 130.867C79.2838 131.345 79.7239 131.936 80.0234 132.6C80.3383 133.307 80.4965 134.074 80.487 134.847C80.4964 135.462 80.408 136.074 80.225 136.661C80.0633 137.17 79.8106 137.644 79.4793 138.062C79.1509 138.463 78.7554 138.804 78.3103 139.07C77.8309 139.36 77.3161 139.587 76.7786 139.745C77.9988 140.009 79.1013 140.659 79.9227 141.599C80.6264 142.534 80.9827 143.685 80.9304 144.854C80.9459 145.768 80.7565 146.673 80.3761 147.504C80.0156 148.278 79.4933 148.965 78.8444 149.52C78.1798 150.083 77.4136 150.514 76.5872 150.789C75.6943 151.089 74.7578 151.239 73.816 151.233C72.8283 151.256 71.8438 151.113 70.9037 150.81C70.1624 150.554 69.4779 150.157 68.8883 149.641C68.3281 149.137 67.8638 148.536 67.5178 147.867C67.1489 147.157 66.8453 146.415 66.6108 145.65L67.7596 145.176C68.0339 145.051 68.3408 145.016 68.6363 145.076C68.7712 145.102 68.8976 145.161 69.0047 145.247C69.1118 145.333 69.1963 145.443 69.251 145.569C69.382 145.852 69.5433 146.184 69.7347 146.577C69.9436 146.987 70.2119 147.364 70.5308 147.696C70.9011 148.075 71.3384 148.383 71.8207 148.603C72.4562 148.876 73.1449 149.004 73.8361 148.976C74.5091 148.991 75.1779 148.867 75.8011 148.613C76.3265 148.393 76.8027 148.071 77.2019 147.665C77.5633 147.291 77.8476 146.85 78.0383 146.366C78.2219 145.914 78.3176 145.432 78.3204 144.945C78.327 144.409 78.2523 143.876 78.0987 143.363C77.9447 142.878 77.6543 142.447 77.2623 142.123C76.7699 141.734 76.1993 141.455 75.5895 141.307C74.6933 141.085 73.7716 140.984 72.8485 141.005V139.07C73.6379 139.075 74.4245 138.974 75.1864 138.767C75.7533 138.615 76.2842 138.351 76.7484 137.991C77.1369 137.68 77.4388 137.274 77.6251 136.812C77.8131 136.328 77.9055 135.811 77.8972 135.291C77.9092 134.739 77.8098 134.191 77.6049 133.678C77.4277 133.247 77.1556 132.862 76.8089 132.55C76.4606 132.244 76.0521 132.014 75.6097 131.875C75.1238 131.723 74.6172 131.648 74.1082 131.653C73.6011 131.65 73.097 131.732 72.6168 131.895C72.1749 132.044 71.7624 132.269 71.3975 132.56C71.0461 132.842 70.7461 133.183 70.5107 133.568C70.2706 133.962 70.1002 134.395 70.0068 134.847C69.9292 135.127 69.7586 135.373 69.5231 135.543C69.2597 135.668 68.9622 135.704 68.6766 135.644L67.286 135.402C67.403 134.498 67.6758 133.622 68.0922 132.812C68.4669 132.09 68.9806 131.45 69.6037 130.927C70.2271 130.413 70.9415 130.02 71.7098 129.769C72.517 129.507 73.3604 129.374 74.209 129.376Z" fill="#FEFEFE"/>
<path fill-rule="evenodd" clip-rule="evenodd" d="M95.8067 143.272H99.0415V144.794C99.046 144.941 98.9957 145.084 98.9004 145.197C98.8429 145.255 98.7734 145.299 98.6967 145.327C98.6201 145.355 98.5382 145.365 98.457 145.358H95.8067V150.981H93.4789V145.358H83.9964C83.8103 145.363 83.6285 145.302 83.4825 145.187C83.3423 145.082 83.2426 144.933 83.2003 144.763L82.9282 143.403L93.3278 129.607H95.8067V143.272ZM93.4789 134.455C93.4789 134.192 93.4789 133.91 93.4789 133.608C93.4929 133.298 93.5232 132.988 93.5696 132.681L85.78 143.272H93.4487L93.4789 134.455Z" fill="#FEFEFE"/>
<path fill-rule="evenodd" clip-rule="evenodd" d="M129.817 130.777C129.823 130.947 129.794 131.117 129.734 131.276C129.673 131.435 129.582 131.58 129.464 131.704C129.299 131.842 129.108 131.947 128.902 132.011C128.696 132.075 128.479 132.097 128.265 132.077H121.553L120.546 137.679C121.074 137.555 121.609 137.461 122.148 137.397C122.637 137.344 123.128 137.317 123.619 137.317C124.625 137.299 125.626 137.466 126.572 137.81C127.376 138.107 128.107 138.57 128.718 139.171C129.29 139.743 129.733 140.43 130.018 141.186C130.316 142.01 130.463 142.88 130.452 143.756C130.462 144.793 130.263 145.821 129.867 146.779C129.495 147.666 128.942 148.465 128.245 149.127C127.541 149.787 126.712 150.297 125.806 150.628C124.258 151.182 122.588 151.297 120.979 150.961C120.428 150.846 119.888 150.68 119.367 150.467C118.881 150.268 118.412 150.029 117.966 149.752C117.566 149.503 117.188 149.22 116.837 148.905L117.654 147.777C117.728 147.657 117.832 147.56 117.956 147.493C118.08 147.425 118.218 147.391 118.359 147.394C118.601 147.406 118.835 147.487 119.034 147.626C119.286 147.777 119.588 147.958 119.941 148.139C120.345 148.347 120.767 148.519 121.201 148.653C121.76 148.819 122.341 148.897 122.924 148.885C123.613 148.894 124.297 148.771 124.939 148.522C125.516 148.299 126.038 147.955 126.471 147.515C126.914 147.064 127.258 146.525 127.479 145.933C127.716 145.267 127.832 144.564 127.821 143.857C127.83 143.243 127.731 142.633 127.529 142.053C127.347 141.534 127.047 141.065 126.652 140.682C126.231 140.288 125.729 139.989 125.181 139.806C124.532 139.59 123.85 139.484 123.166 139.493C122.606 139.494 122.046 139.538 121.493 139.624C120.888 139.72 120.291 139.865 119.709 140.058L118.037 139.564L119.75 129.567H129.827L129.817 130.777Z" fill="#FEFEFE"/>
<path fill-rule="evenodd" clip-rule="evenodd" d="M139.542 137.619C139.34 137.861 139.155 138.096 138.987 138.324L138.484 138.999C139.001 138.646 139.568 138.371 140.166 138.183C140.819 137.981 141.499 137.882 142.182 137.891C143.017 137.885 143.846 138.028 144.631 138.314C145.38 138.585 146.066 139.007 146.646 139.554C147.234 140.124 147.697 140.81 148.006 141.569C148.357 142.429 148.528 143.351 148.51 144.28C148.519 145.22 148.337 146.153 147.976 147.021C147.629 147.85 147.118 148.6 146.475 149.228C145.812 149.87 145.027 150.374 144.167 150.709C142.262 151.412 140.167 151.412 138.262 150.709C137.423 150.389 136.663 149.89 136.035 149.248C135.406 148.59 134.921 147.807 134.614 146.95C134.267 145.981 134.096 144.957 134.11 143.927C134.127 142.889 134.339 141.864 134.735 140.904C135.25 139.689 135.928 138.55 136.75 137.518L142.182 130.222C142.338 130.031 142.534 129.876 142.756 129.769C143.017 129.643 143.303 129.581 143.593 129.587H145.951L139.612 137.599L139.542 137.619ZM136.629 144.391C136.624 145.028 136.726 145.662 136.932 146.265C137.116 146.809 137.415 147.307 137.808 147.726C138.2 148.141 138.679 148.464 139.209 148.673C139.809 148.909 140.449 149.025 141.094 149.016C141.758 149.025 142.417 148.909 143.038 148.673C143.596 148.46 144.103 148.134 144.53 147.716C144.946 147.304 145.272 146.81 145.487 146.265C145.715 145.684 145.828 145.065 145.82 144.441C145.827 143.798 145.714 143.159 145.487 142.557C145.284 142.019 144.968 141.531 144.56 141.126C144.148 140.729 143.657 140.424 143.119 140.229C142.532 140.015 141.91 139.909 141.285 139.916C140.622 139.906 139.964 140.03 139.35 140.279C138.796 140.512 138.296 140.855 137.879 141.287C137.477 141.697 137.162 142.183 136.952 142.718C136.741 143.25 136.631 143.818 136.629 144.391Z" fill="#FEFEFE"/>
<path fill-rule="evenodd" clip-rule="evenodd" d="M165.891 129.607V130.797C165.899 131.079 165.862 131.362 165.78 131.633C165.716 131.822 165.642 132.007 165.559 132.187L156.701 150.054C156.572 150.311 156.39 150.538 156.167 150.719C155.906 150.915 155.586 151.015 155.26 151.001H153.355L162.334 133.376C162.465 133.124 162.596 132.903 162.727 132.691C162.862 132.481 163.014 132.282 163.18 132.096H152.055C151.971 132.095 151.889 132.077 151.812 132.042C151.736 132.008 151.668 131.957 151.612 131.895C151.551 131.836 151.503 131.765 151.47 131.688C151.438 131.61 151.421 131.526 151.42 131.441V129.638L165.891 129.607Z" fill="#FEFEFE"/>
<path fill-rule="evenodd" clip-rule="evenodd" d="M175.715 151.224C174.725 151.235 173.739 151.092 172.793 150.801C171.963 150.547 171.19 150.137 170.516 149.591C169.884 149.073 169.377 148.418 169.034 147.677C168.676 146.882 168.497 146.019 168.51 145.147C168.463 143.924 168.844 142.723 169.589 141.751C170.375 140.821 171.431 140.158 172.612 139.857C171.592 139.534 170.706 138.885 170.092 138.009C169.478 137.133 169.17 136.079 169.216 135.01C169.204 134.25 169.357 133.497 169.663 132.801C169.969 132.106 170.422 131.484 170.989 130.979C171.58 130.458 172.264 130.055 173.005 129.79C174.718 129.215 176.572 129.215 178.285 129.79C179.027 130.054 179.711 130.458 180.301 130.979C180.868 131.484 181.321 132.106 181.627 132.801C181.933 133.497 182.085 134.25 182.074 135.01C182.121 136.053 181.843 137.084 181.278 137.962C180.646 138.835 179.759 139.49 178.739 139.837C179.919 140.138 180.976 140.801 181.762 141.731C182.506 142.703 182.887 143.904 182.84 145.127C182.856 145.999 182.677 146.863 182.316 147.657C181.972 148.395 181.47 149.049 180.845 149.571C180.171 150.118 179.398 150.529 178.567 150.78C177.621 151.072 176.635 151.215 175.645 151.204L175.715 151.224ZM175.715 149.108C176.352 149.117 176.986 149.018 177.59 148.815C178.107 148.641 178.584 148.363 178.99 147.999C179.372 147.645 179.672 147.212 179.867 146.729C180.075 146.211 180.178 145.656 180.169 145.097C180.187 144.45 180.063 143.807 179.807 143.213C179.576 142.715 179.231 142.28 178.799 141.943C178.375 141.608 177.889 141.361 177.368 141.217C176.267 140.913 175.104 140.913 174.002 141.217C173.485 141.362 173.002 141.609 172.581 141.943C172.15 142.28 171.804 142.715 171.574 143.213C171.314 143.806 171.186 144.449 171.201 145.097C171.196 145.656 171.302 146.211 171.513 146.729C171.709 147.212 172.008 147.645 172.39 147.999C172.797 148.363 173.273 148.641 173.791 148.815C174.394 149.018 175.028 149.117 175.665 149.108H175.715ZM175.715 138.849C176.326 138.864 176.933 138.755 177.499 138.527C177.957 138.338 178.367 138.049 178.698 137.68C179.007 137.33 179.237 136.918 179.373 136.471C179.514 136.011 179.586 135.532 179.585 135.05C179.59 134.572 179.508 134.098 179.343 133.649C179.182 133.219 178.932 132.827 178.608 132.501C178.264 132.159 177.852 131.895 177.398 131.725C176.312 131.347 175.129 131.347 174.043 131.725C173.589 131.895 173.177 132.159 172.833 132.501C172.509 132.827 172.259 133.219 172.098 133.649C171.93 134.097 171.845 134.572 171.846 135.05C171.845 135.532 171.917 136.011 172.057 136.471C172.193 136.918 172.424 137.33 172.733 137.68C173.064 138.048 173.474 138.337 173.932 138.527C174.498 138.755 175.105 138.865 175.715 138.849Z" fill="#FEFEFE"/>
<path fill-rule="evenodd" clip-rule="evenodd" d="M210.06 142.466L210.675 141.65C210.863 141.394 211.041 141.136 211.209 140.874C210.656 141.318 210.028 141.659 209.355 141.882C208.653 142.113 207.918 142.228 207.178 142.224C206.398 142.228 205.623 142.092 204.891 141.821C204.181 141.559 203.533 141.155 202.986 140.632C202.425 140.086 201.983 139.431 201.686 138.707C201.013 137.025 201.013 135.149 201.686 133.467C202.025 132.664 202.522 131.937 203.147 131.331C203.816 130.704 204.605 130.217 205.465 129.9C206.373 129.543 207.341 129.365 208.317 129.376C209.271 129.361 210.219 129.533 211.108 129.88C211.917 130.196 212.649 130.68 213.257 131.301C213.865 131.921 214.335 132.662 214.635 133.477C214.967 134.373 215.131 135.323 215.119 136.279C215.122 136.867 215.065 137.455 214.948 138.032C214.832 138.586 214.666 139.129 214.454 139.654C214.232 140.201 213.969 140.73 213.668 141.237C213.356 141.761 213.013 142.295 212.66 142.839L207.46 150.356C207.32 150.555 207.128 150.711 206.906 150.81C206.65 150.927 206.371 150.986 206.09 150.981H203.641L210.141 142.466H210.06ZM212.519 135.946C212.527 135.327 212.417 134.711 212.197 134.132C211.999 133.616 211.697 133.146 211.31 132.752C210.926 132.368 210.466 132.069 209.96 131.875C209.409 131.667 208.825 131.565 208.236 131.573C207.632 131.575 207.034 131.691 206.473 131.915C205.955 132.116 205.482 132.417 205.082 132.802C204.69 133.186 204.384 133.65 204.185 134.162C203.972 134.715 203.866 135.303 203.873 135.896C203.863 136.513 203.962 137.127 204.165 137.71C204.343 138.215 204.629 138.675 205.002 139.06C205.376 139.435 205.831 139.721 206.332 139.896C206.895 140.092 207.489 140.188 208.085 140.178C208.737 140.19 209.385 140.07 209.99 139.826C210.511 139.613 210.984 139.298 211.38 138.899C211.756 138.514 212.05 138.058 212.247 137.558C212.44 137.043 212.533 136.496 212.519 135.946Z" fill="#FEFEFE"/>
<path fill-rule="evenodd" clip-rule="evenodd" d="M233.347 140.311C233.376 141.947 233.172 143.579 232.742 145.158C232.409 146.384 231.848 147.535 231.089 148.554C230.443 149.417 229.595 150.109 228.621 150.57C227.672 151.004 226.641 151.227 225.597 151.225C224.554 151.23 223.522 151.007 222.574 150.57C221.604 150.106 220.761 149.414 220.116 148.554C219.359 147.536 218.802 146.383 218.473 145.158C217.678 141.969 217.678 138.633 218.473 135.444C218.802 134.215 219.359 133.06 220.116 132.038C220.76 131.176 221.603 130.485 222.574 130.022C223.522 129.585 224.554 129.362 225.597 129.367C226.641 129.364 227.672 129.588 228.621 130.022C229.596 130.482 230.444 131.174 231.089 132.038C231.847 133.06 232.408 134.216 232.742 135.444C233.172 137.026 233.375 138.661 233.347 140.301V140.311ZM230.586 140.311C230.614 138.929 230.479 137.549 230.183 136.2C229.977 135.252 229.605 134.348 229.084 133.529C228.688 132.91 228.135 132.406 227.482 132.068C226.892 131.78 226.244 131.63 225.587 131.63C224.931 131.63 224.283 131.78 223.693 132.068C223.042 132.405 222.492 132.909 222.101 133.529C221.582 134.349 221.21 135.252 221.002 136.2C220.452 138.909 220.452 141.702 221.002 144.412C221.211 145.36 221.582 146.263 222.101 147.083C222.493 147.699 223.043 148.2 223.693 148.534C224.282 148.825 224.93 148.977 225.587 148.977C226.245 148.977 226.893 148.825 227.482 148.534C228.134 148.2 228.687 147.699 229.084 147.083C229.605 146.264 229.976 145.36 230.183 144.412C230.479 143.066 230.614 141.689 230.586 140.311Z" fill="#FEFEFE"/>
<path fill-rule="evenodd" clip-rule="evenodd" d="M237.965 148.954H242.54V134.383C242.54 133.966 242.54 133.523 242.54 133.052L238.741 136.317C238.633 136.416 238.501 136.486 238.358 136.519C238.238 136.541 238.115 136.541 237.995 136.519C237.888 136.499 237.785 136.458 237.693 136.398C237.607 136.349 237.532 136.284 237.471 136.207L236.635 135.058L243.003 129.556H245.17V148.944H249.372V150.959H237.965V148.954Z" fill="#FEFEFE"/>
<path fill-rule="evenodd" clip-rule="evenodd" d="M260.353 129.376C261.216 129.369 262.074 129.505 262.892 129.779C263.635 130.031 264.32 130.429 264.908 130.948C265.491 131.468 265.955 132.107 266.268 132.822C266.61 133.614 266.778 134.47 266.762 135.332C266.768 136.086 266.645 136.835 266.399 137.549C266.145 138.236 265.807 138.89 265.391 139.493C264.968 140.13 264.496 140.733 263.981 141.297C263.45 141.882 262.886 142.473 262.288 143.071L256.654 148.825C257.052 148.715 257.456 148.628 257.864 148.563C258.254 148.502 258.648 148.471 259.043 148.472H266.197C266.323 148.466 266.448 148.484 266.566 148.528C266.684 148.571 266.792 148.638 266.883 148.724C266.967 148.81 267.033 148.913 267.076 149.026C267.12 149.138 267.139 149.258 267.135 149.379V150.991H252.936V150.054C252.938 149.853 252.979 149.655 253.057 149.47C253.142 149.261 253.269 149.073 253.43 148.915L260.272 142.043C260.837 141.468 261.36 140.914 261.824 140.38C262.266 139.881 262.664 139.345 263.013 138.778C263.328 138.265 263.582 137.717 263.769 137.145C263.952 136.576 264.044 135.98 264.041 135.382C264.052 134.816 263.949 134.254 263.739 133.729C263.56 133.284 263.285 132.885 262.933 132.56C262.579 132.246 262.164 132.009 261.713 131.865C261.228 131.708 260.721 131.63 260.212 131.633C259.701 131.629 259.194 131.711 258.71 131.875C258.272 132.026 257.863 132.251 257.501 132.54C257.15 132.823 256.85 133.164 256.614 133.548C256.374 133.942 256.204 134.375 256.11 134.828C256.04 135.111 255.868 135.358 255.627 135.523C255.359 135.647 255.059 135.682 254.77 135.624L253.379 135.382C253.497 134.477 253.774 133.601 254.196 132.792C254.575 132.071 255.092 131.431 255.717 130.908C256.338 130.394 257.049 130.001 257.813 129.749C258.634 129.488 259.492 129.362 260.353 129.376Z" fill="#FEFEFE"/>
<path fill-rule="evenodd" clip-rule="evenodd" d="M293.024 129.376C293.876 129.365 294.723 129.495 295.533 129.758C296.272 129.991 296.957 130.368 297.549 130.867C298.099 131.345 298.539 131.936 298.838 132.6C299.153 133.307 299.311 134.074 299.302 134.847C299.311 135.462 299.223 136.074 299.04 136.661C298.878 137.17 298.626 137.644 298.294 138.062C297.966 138.463 297.57 138.804 297.125 139.07C296.646 139.36 296.131 139.587 295.594 139.745C296.814 140.009 297.916 140.659 298.738 141.599C299.441 142.534 299.798 143.685 299.745 144.854C299.761 145.768 299.571 146.673 299.191 147.504C298.831 148.278 298.308 148.965 297.659 149.52C296.995 150.083 296.229 150.514 295.402 150.789C294.509 151.089 293.573 151.239 292.631 151.233C291.643 151.256 290.659 151.113 289.719 150.81C288.977 150.554 288.293 150.157 287.703 149.641C287.143 149.137 286.679 148.536 286.333 147.867C285.964 147.157 285.66 146.415 285.426 145.65L286.575 145.176C286.849 145.051 287.156 145.016 287.451 145.076C287.586 145.102 287.713 145.161 287.82 145.247C287.927 145.333 288.011 145.443 288.066 145.569C288.197 145.852 288.358 146.184 288.55 146.577C288.759 146.987 289.027 147.364 289.346 147.696C289.716 148.075 290.153 148.383 290.636 148.603C291.271 148.876 291.96 149.004 292.651 148.976C293.324 148.991 293.993 148.867 294.616 148.613C295.141 148.393 295.618 148.071 296.017 147.665C296.378 147.291 296.662 146.849 296.853 146.366C297.037 145.914 297.133 145.432 297.135 144.945C297.142 144.409 297.067 143.876 296.914 143.363C296.76 142.878 296.469 142.447 296.077 142.123C295.585 141.734 295.014 141.455 294.404 141.307C293.508 141.085 292.587 140.984 291.664 141.005V139.07C292.453 139.075 293.239 138.974 294.001 138.767C294.568 138.615 295.099 138.351 295.563 137.991C295.952 137.68 296.254 137.274 296.44 136.812C296.628 136.328 296.72 135.811 296.712 135.291C296.724 134.739 296.625 134.191 296.42 133.678C296.243 133.247 295.971 132.861 295.624 132.55C295.276 132.244 294.867 132.014 294.425 131.875C293.939 131.723 293.432 131.648 292.923 131.653C292.416 131.65 291.912 131.732 291.432 131.895C290.99 132.044 290.577 132.269 290.212 132.56C289.861 132.842 289.561 133.183 289.326 133.568C289.086 133.962 288.915 134.395 288.822 134.847C288.744 135.127 288.574 135.373 288.338 135.543C288.075 135.668 287.777 135.704 287.492 135.644L286.101 135.402C286.218 134.498 286.491 133.622 286.907 132.812C287.282 132.09 287.796 131.45 288.419 130.927C289.042 130.413 289.756 130.02 290.525 129.769C291.332 129.507 292.175 129.374 293.024 129.376Z" fill="#FEFEFE"/>
<path fill-rule="evenodd" clip-rule="evenodd" d="M314.618 143.272H317.853V144.794C317.858 144.941 317.807 145.084 317.712 145.197C317.654 145.255 317.585 145.299 317.508 145.327C317.432 145.355 317.35 145.365 317.269 145.358H314.618V150.981H312.28V145.358H302.808C302.622 145.363 302.44 145.302 302.294 145.187C302.153 145.083 302.053 144.933 302.012 144.763L301.74 143.403L312.139 129.607H314.618V143.272ZM312.28 134.455C312.28 134.192 312.28 133.91 312.28 133.608C312.294 133.298 312.325 132.988 312.371 132.681L304.581 143.272H312.28V134.455Z" fill="#FEFEFE"/>
<path fill-rule="evenodd" clip-rule="evenodd" d="M333.354 130.777C333.36 130.947 333.331 131.117 333.271 131.276C333.21 131.435 333.118 131.58 333.001 131.704C332.836 131.842 332.645 131.947 332.439 132.011C332.233 132.075 332.016 132.097 331.802 132.077H325.09L324.083 137.679C324.611 137.555 325.146 137.461 325.685 137.397C326.174 137.344 326.665 137.317 327.156 137.317C328.162 137.299 329.163 137.466 330.109 137.81C330.913 138.107 331.644 138.57 332.255 139.171C332.827 139.743 333.27 140.43 333.555 141.186C333.853 142.01 334 142.88 333.989 143.756C333.999 144.793 333.8 145.821 333.404 146.779C333.032 147.666 332.479 148.465 331.782 149.127C331.078 149.787 330.249 150.297 329.343 150.628C327.792 151.184 326.118 151.299 324.506 150.961C323.955 150.846 323.415 150.68 322.894 150.467C322.408 150.268 321.939 150.029 321.493 149.752C321.093 149.503 320.715 149.22 320.364 148.905L321.18 147.777C321.255 147.657 321.359 147.56 321.483 147.493C321.606 147.425 321.745 147.391 321.886 147.394C322.128 147.406 322.362 147.487 322.561 147.626C322.813 147.777 323.115 147.958 323.468 148.139C323.872 148.347 324.294 148.519 324.728 148.653C325.287 148.819 325.868 148.897 326.451 148.885C327.14 148.894 327.824 148.771 328.466 148.522C329.042 148.299 329.565 147.955 329.998 147.515C330.441 147.064 330.785 146.525 331.006 145.933C331.243 145.267 331.359 144.564 331.348 143.857C331.356 143.243 331.258 142.633 331.056 142.053C330.874 141.534 330.574 141.065 330.179 140.682C329.757 140.288 329.256 139.989 328.708 139.806C328.058 139.59 327.377 139.484 326.693 139.493C326.133 139.494 325.573 139.538 325.02 139.624C324.414 139.72 323.818 139.865 323.236 140.058L321.563 139.564L323.277 129.567H333.354V130.777Z" fill="#FEFEFE"/>
<path fill-rule="evenodd" clip-rule="evenodd" d="M343.077 137.619C342.875 137.861 342.691 138.096 342.523 138.324L342.019 138.999C342.536 138.646 343.103 138.371 343.702 138.183C344.354 137.981 345.034 137.882 345.717 137.891C346.552 137.885 347.381 138.028 348.166 138.314C348.915 138.585 349.601 139.007 350.181 139.554C350.769 140.124 351.233 140.81 351.542 141.569C351.892 142.429 352.063 143.351 352.045 144.28C352.054 145.22 351.873 146.153 351.511 147.021C351.164 147.85 350.653 148.6 350.01 149.228C349.347 149.87 348.563 150.374 347.702 150.709C345.797 151.412 343.703 151.412 341.797 150.709C340.958 150.389 340.198 149.89 339.57 149.248C338.94 148.59 338.456 147.807 338.149 146.95C337.802 145.981 337.632 144.957 337.645 143.927C337.662 142.889 337.874 141.864 338.27 140.904C338.785 139.689 339.463 138.55 340.285 137.518L345.717 130.222C345.873 130.031 346.069 129.876 346.291 129.769C346.552 129.643 346.839 129.581 347.128 129.587H349.486L343.147 137.599L343.077 137.619ZM340.165 144.391C340.159 145.028 340.261 145.662 340.467 146.265C340.652 146.809 340.951 147.307 341.344 147.726C341.736 148.141 342.214 148.464 342.744 148.673C343.344 148.909 343.984 149.025 344.629 149.016C345.293 149.025 345.953 148.909 346.574 148.673C347.131 148.46 347.639 148.134 348.065 147.716C348.482 147.304 348.808 146.81 349.022 146.265C349.25 145.684 349.363 145.065 349.355 144.441C349.362 143.798 349.249 143.159 349.022 142.557C348.819 142.019 348.503 141.531 348.095 141.126C347.683 140.729 347.192 140.424 346.654 140.229C346.067 140.015 345.445 139.909 344.82 139.916C344.157 139.906 343.499 140.03 342.885 140.279C342.332 140.512 341.831 140.855 341.414 141.287C341.012 141.697 340.697 142.183 340.487 142.718C340.279 143.251 340.173 143.818 340.175 144.391H340.165Z" fill="#FEFEFE"/>
</svg>
