<svg width="88" height="56" viewBox="0 0 88 56" fill="none" xmlns="http://www.w3.org/2000/svg">
<path d="M15.02 18.1602C19.02 25.4402 19.02 32.9402 15.02 40.4302" stroke="#FEFEFE" stroke-width="2.6623" stroke-linecap="round" stroke-linejoin="round"/>
<path d="M10.8403 21.7305C12.123 24.0438 12.7954 26.6449 12.7954 29.29C12.7954 31.9351 12.123 34.5368 10.8403 36.8501" stroke="#FEFEFE" stroke-width="2.6623" stroke-linecap="round" stroke-linejoin="round"/>
<path d="M6.43994 24.0391C7.33215 25.6468 7.80029 27.4552 7.80029 29.2939C7.80029 31.1327 7.33215 32.941 6.43994 34.5488" stroke="#FEFEFE" stroke-width="2.662" stroke-linecap="round" stroke-linejoin="round"/>
<path d="M2.10986 26.6797C2.5529 27.4783 2.78564 28.3768 2.78564 29.29C2.78564 30.2033 2.5529 31.1018 2.10986 31.9004" stroke="#FEFEFE" stroke-width="2.6623" stroke-linecap="round" stroke-linejoin="round"/>
<path d="M79.9302 0.660156H33.2798C29.0879 0.660156 25.6899 4.05831 25.6899 8.25015V47.2302C25.6899 51.422 29.0879 54.8202 33.2798 54.8202H79.9302C84.122 54.8202 87.52 51.422 87.52 47.2302V8.25015C87.52 4.05831 84.122 0.660156 79.9302 0.660156Z" fill="#E4E8F2" stroke="#6A7180" stroke-width="0.7016" stroke-miterlimit="22.9256"/>
<path d="M44.9399 0.660156V54.8202" stroke="#6A7180" stroke-width="0.7087" stroke-miterlimit="22.9256"/>
<path d="M44.9399 15.8594H25.6899" stroke="#6A7180" stroke-width="0.7087" stroke-miterlimit="22.9256"/>
<path d="M44.9399 27.7402H25.6899" stroke="#6A7180" stroke-width="0.7087" stroke-miterlimit="22.9256"/>
<path d="M44.9399 39.5293H25.6899" stroke="#6A7180" stroke-width="0.7087" stroke-miterlimit="22.9256"/>
<path d="M68.3398 15.5508V54.8208V15.5508ZM68.3398 15.5508H87.52" stroke="#6A7180" stroke-width="0.7089" stroke-miterlimit="22.9256"/>
<path d="M87.5801 27.7402H68.3398" stroke="#6A7180" stroke-width="0.7089" stroke-miterlimit="22.9256"/>
<path d="M87.5801 39.5293H68.3398" stroke="#6A7180" stroke-width="0.7089" stroke-miterlimit="22.9256"/>
<path d="M79.9302 0.660156H33.2798C29.0879 0.660156 25.6899 4.05831 25.6899 8.25015V47.2302C25.6899 51.422 29.0879 54.8202 33.2798 54.8202H79.9302C84.122 54.8202 87.52 51.422 87.52 47.2302V8.25015C87.52 4.05831 84.122 0.660156 79.9302 0.660156Z" stroke="#6A7180" stroke-width="0.7016" stroke-miterlimit="22.9256"/>
</svg>
