<svg width="480" height="341" viewBox="0 0 480 341" fill="none" xmlns="http://www.w3.org/2000/svg">
<path fill-rule="evenodd" clip-rule="evenodd" d="M25.3604 0H39.7639V9.00206H25.3604C21.0282 9.02235 16.8791 10.7523 13.8158 13.8156C10.7525 16.879 9.02235 21.0279 9.00206 25.36V54.1667H0V25.36C0.0203524 18.6404 2.6989 12.2018 7.45043 7.45028C12.202 2.69874 18.6407 0.0203524 25.3604 0V0Z" fill="#1C2A40"/>
<path fill-rule="evenodd" clip-rule="evenodd" d="M25.3603 340.167H39.7638V331.165H25.3603C21.0282 331.144 16.8791 329.414 13.8158 326.351C10.7524 323.288 9.02234 319.139 9.00205 314.807V286H0V314.807C0.0203524 321.526 2.6989 327.965 7.45042 332.716C12.2019 337.468 18.6407 340.146 25.3603 340.167V340.167Z" fill="#1C2A40"/>
<path fill-rule="evenodd" clip-rule="evenodd" d="M454.404 0H440V9.00206H454.404C458.736 9.02235 462.885 10.7523 465.948 13.8156C469.011 16.879 470.741 21.0279 470.761 25.36V54.1667H479.763V25.36C479.743 18.6404 477.065 12.2018 472.313 7.45028C467.562 2.69874 461.123 0.0203524 454.404 0V0Z" fill="#1C2A40"/>
<path fill-rule="evenodd" clip-rule="evenodd" d="M454.404 340.167H440V331.165H454.404C458.736 331.144 462.885 329.414 465.948 326.351C469.011 323.288 470.741 319.139 470.761 314.807V286H479.763V314.807C479.743 321.526 477.065 327.965 472.313 332.716C467.562 337.468 461.123 340.146 454.404 340.167V340.167Z" fill="#1C2A40"/>
<path fill-rule="evenodd" clip-rule="evenodd" d="M430.469 61.9268L431.023 275.249C431.031 280.967 428.77 286.454 424.736 290.506C420.703 294.559 415.226 296.845 409.508 296.864L71.1699 297.741C68.3344 297.747 65.5254 297.195 62.9034 296.116C60.2814 295.037 57.8977 293.452 55.8885 291.451C53.8794 289.45 52.2841 287.073 51.1938 284.456C50.1035 281.838 49.5396 279.031 49.5343 276.196L48.9801 62.874C48.9708 60.2349 49.4818 57.6199 50.4838 55.1783C51.4858 52.7368 52.9592 50.5167 54.8197 48.6449C56.6802 46.7732 58.8914 45.2865 61.3268 44.2698C63.7623 43.2531 66.3742 42.7264 69.0134 42.7198L410.324 41.8331C412.967 41.8264 415.586 42.3413 418.029 43.3481C420.473 44.3549 422.694 45.834 424.565 47.7005C426.437 49.5671 427.921 51.7844 428.934 54.2256C429.947 56.6667 430.469 59.2838 430.469 61.9268V61.9268Z" fill="#737C8B"/>
<path fill-rule="evenodd" clip-rule="evenodd" d="M133.546 128.706L90.95 128.837C85.589 128.837 81.2156 123.799 81.2055 117.652L81.145 90.5948C81.145 84.3974 85.4681 79.3589 90.8392 79.3488L133.435 79.2178C138.806 79.2178 143.159 84.2563 143.18 90.4134L143.24 117.46C143.22 123.658 138.877 128.696 133.546 128.706Z" fill="#E4E8F2"/>
<path fill-rule="evenodd" clip-rule="evenodd" d="M386.483 105.732L354.085 105.812C352.302 105.817 350.536 105.47 348.888 104.793C347.239 104.115 345.74 103.119 344.476 101.862C341.924 99.3226 340.485 95.8738 340.476 92.2738C340.466 88.6737 341.887 85.2175 344.426 82.6653C346.965 80.1131 350.414 78.674 354.014 78.6646L386.412 78.584C388.195 78.5794 389.961 78.9259 391.609 79.6038C393.258 80.2816 394.757 81.2776 396.021 82.5348C397.284 83.7919 398.288 85.2857 398.974 86.9308C399.661 88.5759 400.017 90.3401 400.021 92.1226C400.026 93.9051 399.679 95.6711 399.001 97.3198C398.324 98.9684 397.328 100.467 396.07 101.731C394.813 102.995 393.319 103.999 391.674 104.685C390.029 105.371 388.265 105.727 386.483 105.732V105.732Z" fill="#FEFEFE"/>
<path d="M261.375 228.65H80.2188V237.559H261.375V228.65Z" fill="#AFC3D5"/>
<path d="M209.784 247.715L81.5234 248.051L81.5468 256.959L209.808 256.623L209.784 247.715Z" fill="#AFC3D5"/>
<path d="M327.979 78.7361L237.628 78.9727L237.651 87.8808L328.002 87.6442L327.979 78.7361Z" fill="#AFC3D5"/>
<path fill-rule="evenodd" clip-rule="evenodd" d="M82.4269 189.954H87.0019V175.383C87.0019 174.966 87.0019 174.523 87.0019 174.052L83.2028 177.317C83.0945 177.416 82.9627 177.486 82.8199 177.519C82.6999 177.541 82.577 177.541 82.4571 177.519C82.3494 177.499 82.2468 177.458 82.1548 177.398C82.0692 177.349 81.994 177.284 81.9331 177.207L81.0967 176.058L87.4654 170.556H89.632V189.944H93.8341V191.959H82.4269V189.954Z" fill="#FEFEFE"/>
<path fill-rule="evenodd" clip-rule="evenodd" d="M104.808 170.376C105.67 170.369 106.529 170.505 107.347 170.779C108.09 171.031 108.775 171.428 109.362 171.948C109.945 172.468 110.409 173.107 110.723 173.822C111.064 174.614 111.233 175.469 111.217 176.331C111.222 177.086 111.1 177.835 110.854 178.548C110.6 179.236 110.262 179.889 109.846 180.493C109.422 181.13 108.951 181.733 108.435 182.297C107.905 182.882 107.34 183.473 106.742 184.071L101.109 189.825C101.507 189.715 101.911 189.627 102.318 189.563C102.709 189.501 103.103 189.471 103.498 189.472H110.652C110.778 189.465 110.903 189.484 111.021 189.528C111.138 189.571 111.246 189.638 111.337 189.724C111.422 189.81 111.488 189.913 111.531 190.025C111.574 190.138 111.594 190.258 111.589 190.379V191.991H97.4009V191.054C97.4032 190.853 97.4443 190.655 97.5218 190.47C97.6068 190.261 97.7337 190.073 97.8946 189.915L104.737 183.043C105.301 182.468 105.825 181.914 106.289 181.38C106.73 180.881 107.128 180.345 107.478 179.778C107.793 179.265 108.047 178.717 108.234 178.145C108.417 177.575 108.509 176.98 108.506 176.382C108.516 175.816 108.414 175.254 108.204 174.729C108.025 174.284 107.75 173.885 107.397 173.56C107.044 173.246 106.628 173.009 106.178 172.865C105.693 172.708 105.186 172.63 104.677 172.633C104.166 172.629 103.658 172.711 103.175 172.875C102.737 173.025 102.328 173.25 101.966 173.54C101.615 173.823 101.315 174.163 101.079 174.548C100.839 174.942 100.669 175.375 100.575 175.828C100.505 176.111 100.333 176.358 100.091 176.523C99.8238 176.646 99.5239 176.682 99.2349 176.624L97.8443 176.382C97.962 175.477 98.2383 174.601 98.6605 173.792C99.0402 173.071 99.5571 172.431 100.182 171.908C100.802 171.394 101.513 171.001 102.278 170.749C103.096 170.489 103.95 170.363 104.808 170.376Z" fill="#FEFEFE"/>
<path fill-rule="evenodd" clip-rule="evenodd" d="M122.209 170.376C123.061 170.365 123.908 170.495 124.718 170.758C125.457 170.991 126.142 171.368 126.734 171.867C127.284 172.345 127.724 172.936 128.023 173.6C128.338 174.307 128.496 175.074 128.487 175.847C128.496 176.462 128.408 177.074 128.225 177.661C128.063 178.17 127.811 178.644 127.479 179.062C127.151 179.463 126.755 179.804 126.31 180.07C125.831 180.36 125.316 180.587 124.779 180.745C125.999 181.009 127.101 181.659 127.923 182.599C128.626 183.534 128.983 184.685 128.93 185.854C128.946 186.768 128.757 187.673 128.376 188.504C128.016 189.278 127.493 189.965 126.844 190.52C126.18 191.083 125.414 191.514 124.587 191.789C123.694 192.089 122.758 192.239 121.816 192.233C120.828 192.256 119.844 192.113 118.904 191.81C118.162 191.554 117.478 191.157 116.888 190.641C116.328 190.137 115.864 189.536 115.518 188.867C115.149 188.157 114.845 187.415 114.611 186.65L115.76 186.176C116.034 186.051 116.341 186.016 116.636 186.076C116.771 186.102 116.898 186.161 117.005 186.247C117.112 186.333 117.196 186.443 117.251 186.569C117.382 186.852 117.543 187.184 117.735 187.577C117.944 187.987 118.212 188.364 118.531 188.696C118.901 189.075 119.338 189.383 119.821 189.603C120.456 189.876 121.145 190.004 121.836 189.976C122.509 189.991 123.178 189.867 123.801 189.613C124.326 189.393 124.803 189.071 125.202 188.665C125.563 188.291 125.848 187.85 126.038 187.366C126.222 186.914 126.318 186.432 126.32 185.945C126.327 185.409 126.252 184.876 126.099 184.363C125.945 183.878 125.654 183.447 125.262 183.123C124.77 182.734 124.199 182.455 123.59 182.307C122.693 182.085 121.772 181.984 120.849 182.005V180.07C121.638 180.075 122.424 179.974 123.186 179.767C123.753 179.615 124.284 179.351 124.748 178.991C125.137 178.68 125.439 178.274 125.625 177.812C125.813 177.328 125.906 176.811 125.897 176.291C125.909 175.739 125.81 175.191 125.605 174.678C125.428 174.247 125.156 173.862 124.809 173.55C124.461 173.244 124.052 173.014 123.61 172.875C123.124 172.723 122.617 172.648 122.108 172.653C121.601 172.65 121.097 172.732 120.617 172.895C120.175 173.044 119.762 173.269 119.397 173.56C119.046 173.842 118.746 174.183 118.511 174.568C118.271 174.962 118.1 175.395 118.007 175.847C117.929 176.127 117.759 176.373 117.523 176.543C117.26 176.668 116.962 176.704 116.677 176.644L115.286 176.402C115.403 175.498 115.676 174.622 116.092 173.812C116.467 173.09 116.981 172.45 117.604 171.927C118.227 171.413 118.941 171.02 119.71 170.769C120.517 170.507 121.36 170.374 122.209 170.376Z" fill="#FEFEFE"/>
<path fill-rule="evenodd" clip-rule="evenodd" d="M143.807 184.272H147.041V185.794C147.046 185.941 146.996 186.084 146.9 186.197C146.843 186.255 146.773 186.299 146.697 186.327C146.62 186.355 146.538 186.365 146.457 186.358H143.807V191.981H141.479V186.358H131.996C131.81 186.363 131.628 186.302 131.482 186.187C131.342 186.082 131.243 185.933 131.2 185.763L130.928 184.403L141.328 170.607H143.807V184.272V184.272ZM141.479 175.455C141.479 175.192 141.479 174.91 141.479 174.608C141.493 174.298 141.523 173.988 141.57 173.681L133.78 184.272H141.449L141.479 175.455Z" fill="#FEFEFE"/>
<path fill-rule="evenodd" clip-rule="evenodd" d="M177.817 171.777C177.823 171.947 177.794 172.117 177.734 172.276C177.673 172.435 177.582 172.58 177.464 172.704C177.299 172.842 177.108 172.947 176.902 173.011C176.696 173.075 176.479 173.097 176.265 173.077H169.553L168.546 178.679C169.074 178.555 169.609 178.461 170.148 178.397C170.637 178.344 171.128 178.317 171.619 178.317C172.625 178.299 173.626 178.466 174.572 178.81C175.376 179.107 176.107 179.57 176.718 180.171C177.29 180.743 177.733 181.43 178.018 182.186C178.316 183.01 178.463 183.88 178.452 184.756C178.462 185.793 178.263 186.821 177.867 187.779C177.495 188.666 176.942 189.465 176.245 190.127C175.541 190.787 174.712 191.297 173.806 191.629C172.258 192.182 170.588 192.297 168.979 191.961C168.428 191.846 167.888 191.68 167.367 191.467C166.881 191.268 166.412 191.029 165.966 190.752C165.566 190.503 165.188 190.22 164.837 189.905L165.654 188.777C165.728 188.657 165.832 188.56 165.956 188.493C166.08 188.425 166.218 188.391 166.359 188.394C166.601 188.406 166.835 188.487 167.034 188.626C167.286 188.777 167.588 188.958 167.941 189.139C168.345 189.347 168.767 189.519 169.201 189.653C169.76 189.819 170.341 189.897 170.924 189.885C171.613 189.894 172.297 189.771 172.939 189.522C173.516 189.299 174.038 188.955 174.471 188.515C174.914 188.064 175.258 187.525 175.479 186.933C175.716 186.267 175.832 185.564 175.821 184.857C175.83 184.243 175.731 183.633 175.529 183.053C175.347 182.534 175.047 182.065 174.652 181.682C174.231 181.288 173.729 180.989 173.181 180.806C172.532 180.59 171.85 180.484 171.166 180.493C170.606 180.494 170.046 180.538 169.493 180.624C168.888 180.72 168.291 180.865 167.709 181.058L166.037 180.564L167.75 170.567H177.827L177.817 171.777Z" fill="#FEFEFE"/>
<path fill-rule="evenodd" clip-rule="evenodd" d="M187.542 178.619C187.34 178.861 187.155 179.096 186.987 179.324L186.484 179.999C187.001 179.646 187.568 179.371 188.166 179.183C188.819 178.981 189.499 178.882 190.182 178.891C191.017 178.885 191.846 179.028 192.631 179.314C193.38 179.585 194.066 180.007 194.646 180.554C195.234 181.124 195.697 181.81 196.006 182.569C196.357 183.429 196.528 184.351 196.51 185.28C196.519 186.22 196.337 187.153 195.976 188.021C195.629 188.85 195.118 189.6 194.475 190.228C193.812 190.87 193.027 191.374 192.167 191.709C190.262 192.412 188.167 192.412 186.262 191.709C185.423 191.389 184.663 190.89 184.035 190.248C183.406 189.59 182.921 188.807 182.614 187.95C182.267 186.981 182.096 185.957 182.11 184.927C182.127 183.889 182.339 182.864 182.735 181.904C183.25 180.689 183.928 179.55 184.75 178.518L190.182 171.222C190.338 171.031 190.534 170.876 190.756 170.769C191.017 170.643 191.303 170.581 191.593 170.587H193.951L187.612 178.599L187.542 178.619ZM184.629 185.391C184.624 186.028 184.726 186.662 184.932 187.265C185.116 187.809 185.415 188.307 185.808 188.726C186.2 189.141 186.679 189.464 187.209 189.673C187.809 189.909 188.449 190.025 189.094 190.016C189.758 190.025 190.417 189.909 191.038 189.673C191.596 189.46 192.103 189.134 192.53 188.716C192.946 188.304 193.272 187.81 193.487 187.265C193.715 186.684 193.828 186.065 193.82 185.441C193.827 184.798 193.714 184.159 193.487 183.557C193.284 183.019 192.968 182.531 192.56 182.126C192.148 181.729 191.657 181.424 191.119 181.229C190.532 181.015 189.91 180.909 189.285 180.916C188.622 180.906 187.964 181.03 187.35 181.279C186.796 181.512 186.296 181.855 185.879 182.287C185.477 182.697 185.162 183.183 184.952 183.718C184.741 184.25 184.631 184.818 184.629 185.391V185.391Z" fill="#FEFEFE"/>
<path fill-rule="evenodd" clip-rule="evenodd" d="M213.891 170.607V171.797C213.899 172.079 213.862 172.362 213.78 172.633C213.716 172.822 213.642 173.007 213.559 173.187L204.701 191.054C204.572 191.311 204.39 191.538 204.167 191.719C203.906 191.915 203.586 192.015 203.26 192.001H201.355L210.334 174.376C210.465 174.124 210.596 173.903 210.727 173.691C210.862 173.481 211.014 173.282 211.18 173.096H200.055C199.971 173.095 199.889 173.077 199.812 173.042C199.736 173.008 199.668 172.957 199.612 172.895C199.551 172.836 199.503 172.765 199.47 172.688C199.438 172.61 199.421 172.526 199.42 172.441V170.638L213.891 170.607Z" fill="#FEFEFE"/>
<path fill-rule="evenodd" clip-rule="evenodd" d="M223.715 192.224C222.725 192.235 221.739 192.092 220.793 191.801C219.963 191.547 219.19 191.137 218.516 190.591C217.884 190.073 217.377 189.418 217.034 188.677C216.676 187.882 216.497 187.019 216.51 186.147C216.463 184.924 216.844 183.723 217.589 182.751C218.375 181.821 219.431 181.158 220.612 180.857C219.592 180.534 218.706 179.885 218.092 179.009C217.478 178.133 217.17 177.079 217.216 176.01C217.204 175.25 217.357 174.497 217.663 173.801C217.969 173.106 218.422 172.484 218.989 171.979C219.58 171.458 220.264 171.055 221.005 170.79C222.718 170.215 224.572 170.215 226.285 170.79C227.027 171.054 227.711 171.458 228.301 171.979C228.868 172.484 229.321 173.106 229.627 173.801C229.933 174.497 230.085 175.25 230.074 176.01C230.121 177.053 229.843 178.084 229.278 178.962C228.646 179.835 227.759 180.49 226.739 180.837C227.919 181.138 228.976 181.801 229.762 182.731C230.506 183.703 230.887 184.904 230.84 186.127C230.856 186.999 230.677 187.863 230.316 188.657C229.972 189.395 229.47 190.049 228.845 190.571C228.171 191.118 227.398 191.529 226.567 191.78C225.621 192.072 224.635 192.215 223.645 192.204L223.715 192.224ZM223.715 190.108C224.352 190.117 224.986 190.018 225.59 189.815C226.107 189.641 226.584 189.363 226.99 188.999C227.372 188.645 227.672 188.212 227.867 187.729C228.075 187.211 228.178 186.656 228.169 186.097C228.187 185.45 228.063 184.807 227.807 184.213C227.576 183.715 227.231 183.28 226.799 182.943C226.375 182.608 225.889 182.361 225.368 182.217C224.267 181.913 223.104 181.913 222.002 182.217C221.485 182.362 221.002 182.609 220.581 182.943C220.15 183.28 219.804 183.715 219.574 184.213C219.314 184.806 219.186 185.449 219.201 186.097C219.196 186.656 219.302 187.211 219.513 187.729C219.709 188.212 220.008 188.645 220.39 188.999C220.797 189.363 221.273 189.641 221.791 189.815C222.394 190.018 223.028 190.117 223.665 190.108H223.715ZM223.715 179.849C224.326 179.864 224.933 179.755 225.499 179.527C225.957 179.338 226.367 179.049 226.698 178.68C227.007 178.33 227.237 177.918 227.373 177.471C227.514 177.011 227.586 176.532 227.585 176.05C227.59 175.572 227.508 175.098 227.343 174.649C227.182 174.219 226.932 173.827 226.608 173.501C226.264 173.159 225.852 172.895 225.398 172.725C224.312 172.347 223.129 172.347 222.043 172.725C221.589 172.895 221.177 173.159 220.833 173.501C220.509 173.827 220.259 174.219 220.098 174.649C219.93 175.097 219.845 175.572 219.846 176.05C219.845 176.532 219.917 177.011 220.057 177.471C220.193 177.918 220.424 178.33 220.733 178.68C221.064 179.048 221.474 179.337 221.932 179.527C222.498 179.755 223.105 179.865 223.715 179.849V179.849Z" fill="#FEFEFE"/>
<path fill-rule="evenodd" clip-rule="evenodd" d="M258.06 183.466L258.675 182.65C258.863 182.394 259.041 182.136 259.209 181.874C258.656 182.318 258.028 182.659 257.355 182.882C256.653 183.113 255.918 183.228 255.178 183.224C254.398 183.228 253.623 183.092 252.891 182.821C252.181 182.559 251.533 182.155 250.986 181.632C250.425 181.086 249.983 180.431 249.686 179.707C249.013 178.025 249.013 176.149 249.686 174.467C250.025 173.664 250.522 172.937 251.147 172.331C251.816 171.704 252.605 171.217 253.465 170.9C254.373 170.543 255.341 170.365 256.317 170.376C257.271 170.361 258.219 170.533 259.108 170.88C259.917 171.196 260.649 171.68 261.257 172.301C261.865 172.921 262.335 173.662 262.635 174.477C262.967 175.373 263.131 176.323 263.119 177.279C263.122 177.867 263.065 178.455 262.948 179.032C262.832 179.586 262.666 180.129 262.454 180.654C262.232 181.201 261.969 181.73 261.668 182.237C261.356 182.761 261.013 183.295 260.66 183.839L255.46 191.356C255.32 191.555 255.128 191.711 254.906 191.81C254.65 191.927 254.371 191.986 254.09 191.981H251.641L258.141 183.466H258.06ZM260.519 176.946C260.527 176.327 260.417 175.711 260.197 175.132C259.999 174.616 259.697 174.146 259.31 173.752C258.926 173.368 258.466 173.069 257.96 172.875C257.409 172.667 256.825 172.565 256.236 172.573C255.632 172.575 255.034 172.691 254.473 172.915C253.955 173.116 253.482 173.417 253.082 173.802C252.69 174.186 252.384 174.65 252.185 175.162C251.972 175.715 251.866 176.303 251.873 176.896C251.863 177.513 251.962 178.127 252.165 178.71C252.343 179.215 252.629 179.675 253.002 180.06C253.376 180.435 253.831 180.721 254.332 180.896C254.895 181.092 255.489 181.188 256.085 181.178C256.737 181.19 257.385 181.07 257.99 180.826C258.511 180.613 258.984 180.298 259.38 179.899C259.756 179.514 260.05 179.058 260.247 178.558C260.44 178.043 260.533 177.496 260.519 176.946Z" fill="#FEFEFE"/>
<path fill-rule="evenodd" clip-rule="evenodd" d="M281.347 181.311C281.376 182.947 281.172 184.579 280.742 186.158C280.409 187.384 279.848 188.535 279.089 189.554C278.443 190.417 277.595 191.109 276.621 191.57C275.672 192.004 274.641 192.227 273.597 192.225C272.554 192.23 271.522 192.007 270.574 191.57C269.604 191.106 268.761 190.414 268.116 189.554C267.359 188.536 266.802 187.383 266.473 186.158C265.678 182.969 265.678 179.633 266.473 176.444C266.802 175.215 267.359 174.06 268.116 173.038C268.76 172.176 269.603 171.485 270.574 171.022C271.522 170.585 272.554 170.362 273.597 170.367C274.641 170.364 275.672 170.588 276.621 171.022C277.596 171.482 278.444 172.174 279.089 173.038C279.847 174.06 280.408 175.216 280.742 176.444C281.172 178.026 281.375 179.661 281.347 181.301V181.311ZM278.586 181.311C278.614 179.929 278.479 178.549 278.183 177.2C277.977 176.252 277.605 175.348 277.084 174.529C276.688 173.91 276.135 173.406 275.482 173.068C274.892 172.78 274.244 172.63 273.587 172.63C272.931 172.63 272.283 172.78 271.693 173.068C271.042 173.405 270.492 173.909 270.101 174.529C269.582 175.349 269.21 176.252 269.002 177.2C268.452 179.909 268.452 182.702 269.002 185.412C269.211 186.36 269.582 187.263 270.101 188.083C270.493 188.699 271.043 189.2 271.693 189.534C272.282 189.825 272.93 189.977 273.587 189.977C274.245 189.977 274.893 189.825 275.482 189.534C276.134 189.2 276.687 188.699 277.084 188.083C277.605 187.264 277.976 186.36 278.183 185.412C278.479 184.066 278.614 182.689 278.586 181.311V181.311Z" fill="#FEFEFE"/>
<path fill-rule="evenodd" clip-rule="evenodd" d="M285.965 189.954H290.54V175.383C290.54 174.966 290.54 174.523 290.54 174.052L286.741 177.317C286.633 177.416 286.501 177.486 286.358 177.519C286.238 177.541 286.115 177.541 285.995 177.519C285.888 177.499 285.785 177.458 285.693 177.398C285.607 177.349 285.532 177.284 285.471 177.207L284.635 176.058L291.003 170.556H293.17V189.944H297.372V191.959H285.965V189.954Z" fill="#FEFEFE"/>
<path fill-rule="evenodd" clip-rule="evenodd" d="M308.353 170.376C309.216 170.369 310.074 170.505 310.892 170.779C311.635 171.031 312.32 171.429 312.908 171.948C313.491 172.468 313.955 173.107 314.268 173.822C314.61 174.614 314.778 175.47 314.762 176.332C314.768 177.086 314.645 177.835 314.399 178.549C314.145 179.236 313.807 179.89 313.391 180.493C312.968 181.13 312.496 181.733 311.981 182.297C311.45 182.882 310.886 183.473 310.288 184.071L304.654 189.825C305.052 189.715 305.456 189.628 305.864 189.563C306.254 189.502 306.648 189.471 307.043 189.472H314.197C314.323 189.466 314.448 189.484 314.566 189.528C314.684 189.571 314.792 189.638 314.883 189.724C314.967 189.81 315.033 189.913 315.076 190.026C315.12 190.138 315.139 190.258 315.135 190.379V191.991H300.936V191.054C300.938 190.853 300.979 190.655 301.057 190.47C301.142 190.261 301.269 190.073 301.43 189.915L308.272 183.043C308.837 182.468 309.36 181.914 309.824 181.38C310.266 180.881 310.664 180.345 311.013 179.778C311.328 179.265 311.582 178.717 311.769 178.145C311.952 177.576 312.044 176.98 312.041 176.382C312.052 175.816 311.949 175.254 311.739 174.729C311.56 174.284 311.285 173.885 310.933 173.56C310.579 173.246 310.164 173.009 309.713 172.865C309.228 172.708 308.721 172.63 308.212 172.633C307.701 172.629 307.194 172.711 306.71 172.875C306.272 173.026 305.863 173.251 305.501 173.54C305.15 173.823 304.85 174.164 304.614 174.548C304.374 174.942 304.204 175.375 304.11 175.828C304.04 176.111 303.868 176.358 303.627 176.523C303.359 176.647 303.059 176.682 302.77 176.624L301.379 176.382C301.497 175.477 301.774 174.601 302.196 173.792C302.575 173.071 303.092 172.431 303.717 171.908C304.338 171.394 305.049 171.001 305.813 170.749C306.634 170.488 307.492 170.362 308.353 170.376V170.376Z" fill="#FEFEFE"/>
<path fill-rule="evenodd" clip-rule="evenodd" d="M341.024 170.376C341.876 170.365 342.723 170.495 343.533 170.758C344.272 170.991 344.957 171.368 345.549 171.867C346.099 172.345 346.539 172.936 346.838 173.6C347.153 174.307 347.311 175.074 347.302 175.847C347.311 176.462 347.223 177.074 347.04 177.661C346.878 178.17 346.626 178.644 346.294 179.062C345.966 179.463 345.57 179.804 345.125 180.07C344.646 180.36 344.131 180.587 343.594 180.745C344.814 181.009 345.916 181.659 346.738 182.599C347.441 183.534 347.798 184.685 347.745 185.854C347.761 186.768 347.571 187.673 347.191 188.504C346.831 189.278 346.308 189.965 345.659 190.52C344.995 191.083 344.229 191.514 343.402 191.789C342.509 192.089 341.573 192.239 340.631 192.233C339.643 192.256 338.659 192.113 337.719 191.81C336.977 191.554 336.293 191.157 335.703 190.641C335.143 190.137 334.679 189.536 334.333 188.867C333.964 188.157 333.66 187.415 333.426 186.65L334.575 186.176C334.849 186.051 335.156 186.016 335.451 186.076C335.586 186.102 335.713 186.161 335.82 186.247C335.927 186.333 336.011 186.443 336.066 186.569C336.197 186.852 336.358 187.184 336.55 187.577C336.759 187.987 337.027 188.364 337.346 188.696C337.716 189.075 338.153 189.383 338.636 189.603C339.271 189.876 339.96 190.004 340.651 189.976C341.324 189.991 341.993 189.867 342.616 189.613C343.141 189.393 343.618 189.071 344.017 188.665C344.378 188.291 344.662 187.849 344.853 187.366C345.037 186.914 345.133 186.432 345.135 185.945C345.142 185.409 345.067 184.876 344.914 184.363C344.76 183.878 344.469 183.447 344.077 183.123C343.585 182.734 343.014 182.455 342.404 182.307C341.508 182.085 340.587 181.984 339.664 182.005V180.07C340.453 180.075 341.239 179.974 342.001 179.767C342.568 179.615 343.099 179.351 343.563 178.991C343.952 178.68 344.254 178.274 344.44 177.812C344.628 177.328 344.72 176.811 344.712 176.291C344.724 175.739 344.625 175.191 344.42 174.678C344.243 174.247 343.971 173.861 343.624 173.55C343.276 173.244 342.867 173.014 342.425 172.875C341.939 172.723 341.432 172.648 340.923 172.653C340.416 172.65 339.912 172.732 339.432 172.895C338.99 173.044 338.577 173.269 338.212 173.56C337.861 173.842 337.561 174.183 337.326 174.568C337.086 174.962 336.915 175.395 336.822 175.847C336.744 176.127 336.574 176.373 336.338 176.543C336.075 176.668 335.777 176.704 335.492 176.644L334.101 176.402C334.218 175.498 334.491 174.622 334.907 173.812C335.282 173.09 335.796 172.45 336.419 171.927C337.042 171.413 337.756 171.02 338.525 170.769C339.332 170.507 340.175 170.374 341.024 170.376Z" fill="#FEFEFE"/>
<path fill-rule="evenodd" clip-rule="evenodd" d="M362.618 184.272H365.853V185.794C365.858 185.941 365.807 186.084 365.712 186.197C365.654 186.255 365.585 186.299 365.508 186.327C365.432 186.355 365.35 186.365 365.269 186.358H362.618V191.981H360.28V186.358H350.808C350.622 186.363 350.44 186.302 350.294 186.187C350.153 186.083 350.053 185.933 350.012 185.763L349.74 184.403L360.139 170.607H362.618V184.272V184.272ZM360.28 175.455C360.28 175.192 360.28 174.91 360.28 174.608C360.294 174.298 360.325 173.988 360.371 173.681L352.581 184.272H360.28V175.455Z" fill="#FEFEFE"/>
<path fill-rule="evenodd" clip-rule="evenodd" d="M381.354 171.777C381.36 171.947 381.331 172.117 381.271 172.276C381.21 172.435 381.118 172.58 381.001 172.704C380.836 172.842 380.645 172.947 380.439 173.011C380.233 173.075 380.016 173.097 379.802 173.077H373.09L372.083 178.679C372.611 178.555 373.146 178.461 373.685 178.397C374.174 178.344 374.665 178.317 375.156 178.317C376.162 178.299 377.163 178.466 378.109 178.81C378.913 179.107 379.644 179.57 380.255 180.171C380.827 180.743 381.27 181.43 381.555 182.186C381.853 183.01 382 183.88 381.989 184.756C381.999 185.793 381.8 186.821 381.404 187.779C381.032 188.666 380.479 189.465 379.782 190.127C379.078 190.787 378.249 191.297 377.343 191.629C375.792 192.184 374.118 192.299 372.506 191.961C371.955 191.846 371.415 191.68 370.894 191.467C370.408 191.268 369.939 191.029 369.493 190.752C369.093 190.503 368.715 190.22 368.364 189.905L369.18 188.777C369.255 188.657 369.359 188.56 369.483 188.493C369.606 188.425 369.745 188.391 369.886 188.394C370.128 188.406 370.362 188.487 370.561 188.626C370.813 188.777 371.115 188.958 371.468 189.139C371.872 189.347 372.294 189.519 372.728 189.653C373.287 189.819 373.868 189.897 374.451 189.885C375.14 189.894 375.824 189.771 376.466 189.522C377.042 189.299 377.565 188.955 377.998 188.515C378.441 188.064 378.785 187.525 379.006 186.933C379.243 186.267 379.359 185.564 379.348 184.857C379.356 184.243 379.258 183.633 379.056 183.053C378.874 182.534 378.574 182.065 378.179 181.682C377.757 181.288 377.256 180.989 376.708 180.806C376.058 180.59 375.377 180.484 374.693 180.493C374.133 180.494 373.573 180.538 373.02 180.624C372.414 180.72 371.818 180.865 371.236 181.058L369.563 180.564L371.277 170.567H381.354V171.777Z" fill="#FEFEFE"/>
<path fill-rule="evenodd" clip-rule="evenodd" d="M391.077 178.619C390.875 178.861 390.691 179.096 390.523 179.324L390.019 179.999C390.536 179.646 391.103 179.371 391.702 179.183C392.354 178.981 393.034 178.882 393.717 178.891C394.552 178.885 395.381 179.028 396.166 179.314C396.915 179.585 397.601 180.007 398.181 180.554C398.769 181.124 399.233 181.81 399.542 182.569C399.892 183.429 400.063 184.351 400.045 185.28C400.054 186.22 399.873 187.153 399.511 188.021C399.164 188.85 398.653 189.6 398.01 190.228C397.347 190.87 396.563 191.374 395.702 191.709C393.797 192.412 391.703 192.412 389.797 191.709C388.958 191.389 388.198 190.89 387.57 190.248C386.94 189.59 386.456 188.807 386.149 187.95C385.802 186.981 385.632 185.957 385.645 184.927C385.662 183.889 385.874 182.864 386.27 181.904C386.785 180.689 387.463 179.55 388.285 178.518L393.717 171.222C393.873 171.031 394.069 170.876 394.291 170.769C394.552 170.643 394.839 170.581 395.128 170.587H397.486L391.147 178.599L391.077 178.619ZM388.165 185.391C388.159 186.028 388.261 186.662 388.467 187.265C388.652 187.809 388.951 188.307 389.344 188.726C389.736 189.141 390.214 189.464 390.744 189.673C391.344 189.909 391.984 190.025 392.629 190.016C393.293 190.025 393.953 189.909 394.574 189.673C395.131 189.46 395.639 189.134 396.065 188.716C396.482 188.304 396.808 187.81 397.022 187.265C397.25 186.684 397.363 186.065 397.355 185.441C397.362 184.798 397.249 184.159 397.022 183.557C396.819 183.019 396.503 182.531 396.095 182.126C395.683 181.729 395.192 181.424 394.654 181.229C394.067 181.015 393.445 180.909 392.82 180.916C392.157 180.906 391.499 181.03 390.885 181.279C390.332 181.512 389.831 181.855 389.414 182.287C389.012 182.697 388.697 183.183 388.487 183.718C388.279 184.251 388.173 184.818 388.175 185.391H388.165Z" fill="#FEFEFE"/>
</svg>
