<svg width="57" height="40" viewBox="0 0 57 40" fill="none" xmlns="http://www.w3.org/2000/svg">
<path fill-rule="evenodd" clip-rule="evenodd" d="M51.27 0.580078H5.17041C3.84916 0.595654 2.58618 1.1272 1.65186 2.06152C0.717529 2.99585 0.185986 4.25883 0.17041 5.58008V34.1201C0.185986 35.4414 0.717529 36.7043 1.65186 37.6387C2.58618 38.573 3.84916 39.1045 5.17041 39.1201H51.27C52.5913 39.1045 53.8542 38.573 54.7886 37.6387C55.7229 36.7043 56.2544 35.4414 56.27 34.1201V5.58008C56.2544 4.25883 55.7229 2.99585 54.7886 2.06152C53.8542 1.1272 52.5913 0.595654 51.27 0.580078ZM17.6802 15.9502C17.6802 17.0111 17.2584 18.0282 16.5083 18.7783C15.7582 19.5285 14.741 19.9502 13.6802 19.9502H11.0503C9.98943 19.9502 8.97134 19.5285 8.22119 18.7783C7.47105 18.0282 7.05029 17.0111 7.05029 15.9502V13.3203C7.05029 12.2594 7.47105 11.2414 8.22119 10.4912C8.97134 9.74107 9.98943 9.32031 11.0503 9.32031H13.6802C14.741 9.32031 15.7582 9.74107 16.5083 10.4912C17.2584 11.2414 17.6802 12.2594 17.6802 13.3203V15.9502ZM40.2603 24.9502C39.8644 24.9505 39.4803 24.8166 39.1704 24.5703C38.8047 24.281 38.5685 23.8576 38.5142 23.3945C38.4598 22.9314 38.5917 22.4658 38.8804 22.0996C39.3687 21.4819 39.6331 20.717 39.6304 19.9297C39.6331 19.1423 39.3687 18.3774 38.8804 17.7598C38.5917 17.3936 38.4598 16.9279 38.5142 16.4648C38.5685 16.0017 38.8047 15.5794 39.1704 15.29C39.5366 15.0013 40.0022 14.8695 40.4653 14.9238C40.9284 14.9782 41.3508 15.2144 41.6401 15.5801C42.6162 16.8202 43.1476 18.3516 43.1499 19.9297C43.1476 21.5078 42.6162 23.0401 41.6401 24.2803C41.4761 24.4894 41.266 24.6583 41.0269 24.7744C40.7877 24.8905 40.5261 24.9507 40.2603 24.9502ZM45.9302 28.7305C45.7651 28.9141 45.5632 29.0602 45.3374 29.1602C45.1116 29.2601 44.8665 29.3108 44.6196 29.3096C44.1874 29.3092 43.7708 29.1497 43.4497 28.8604C43.1045 28.5482 42.8969 28.1113 42.8726 27.6465C42.8482 27.1817 43.0092 26.7265 43.3198 26.3799C44.9115 24.6087 45.7911 22.311 45.7896 19.9297C45.7911 17.5484 44.9115 15.2516 43.3198 13.4805C43.0092 13.1339 42.8482 12.6777 42.8726 12.2129C42.8969 11.7481 43.1045 11.3122 43.4497 11C43.7963 10.6894 44.2515 10.5284 44.7163 10.5527C45.1811 10.5771 45.618 10.7847 45.9302 11.1299C48.0997 13.5436 49.3002 16.6744 49.3003 19.9199C49.2952 23.1585 48.0951 26.2818 45.9302 28.6904V28.7305Z" fill="#1C2A40"/>
</svg>
