<svg width="480" height="341" viewBox="0 0 480 341" fill="none" xmlns="http://www.w3.org/2000/svg">
<path fill-rule="evenodd" clip-rule="evenodd" d="M25.3604 0H39.7639V9.00206H25.3604C21.0282 9.02235 16.8791 10.7523 13.8158 13.8156C10.7525 16.879 9.02235 21.0279 9.00206 25.36V54.1667H0V25.36C0.0203524 18.6404 2.6989 12.2018 7.45043 7.45028C12.202 2.69874 18.6407 0.0203524 25.3604 0V0Z" fill="#1C2A40"/>
<path fill-rule="evenodd" clip-rule="evenodd" d="M25.3603 340.167H39.7638V331.165H25.3603C21.0282 331.144 16.8791 329.414 13.8158 326.351C10.7524 323.288 9.02234 319.139 9.00205 314.807V286H0V314.807C0.0203524 321.526 2.6989 327.965 7.45042 332.716C12.2019 337.468 18.6407 340.146 25.3603 340.167V340.167Z" fill="#1C2A40"/>
<path fill-rule="evenodd" clip-rule="evenodd" d="M454.404 0H440V9.00206H454.404C458.736 9.02235 462.885 10.7523 465.948 13.8156C469.011 16.879 470.741 21.0279 470.761 25.36V54.1667H479.763V25.36C479.743 18.6404 477.065 12.2018 472.313 7.45028C467.562 2.69874 461.123 0.0203524 454.404 0V0Z" fill="#1C2A40"/>
<path fill-rule="evenodd" clip-rule="evenodd" d="M454.404 340.167H440V331.165H454.404C458.736 331.144 462.885 329.414 465.948 326.351C469.011 323.288 470.741 319.139 470.761 314.807V286H479.763V314.807C479.743 321.526 477.065 327.965 472.313 332.716C467.562 337.468 461.123 340.146 454.404 340.167V340.167Z" fill="#1C2A40"/>
</svg>
