<svg width="70" height="62" viewBox="0 0 70 62" fill="none" xmlns="http://www.w3.org/2000/svg">
<path d="M60.9453 1.08984H9.26538C4.62067 1.08984 0.855469 4.85504 0.855469 9.49976V52.6799C0.855469 57.3246 4.62067 61.0898 9.26538 61.0898H60.9453C65.59 61.0898 69.3555 57.3246 69.3555 52.6799V9.49976C69.3555 4.85504 65.59 1.08984 60.9453 1.08984Z" fill="#E4E8F2" stroke="#6A7180" stroke-width="0.7775" stroke-miterlimit="22.9256"/>
<path d="M22.1758 1.08984V61.0898" stroke="#6A7180" stroke-width="0.7852" stroke-miterlimit="22.9256"/>
<path d="M22.1755 17.918H0.855469" stroke="#6A7180" stroke-width="0.7852" stroke-miterlimit="22.9256"/>
<path d="M22.1755 31.0898H0.855469" stroke="#6A7180" stroke-width="0.7852" stroke-miterlimit="22.9256"/>
<path d="M22.1755 44.1484H0.855469" stroke="#6A7180" stroke-width="0.7852" stroke-miterlimit="22.9256"/>
<path d="M48.0938 17.5781V61.0881V17.5781ZM48.0938 17.5781H69.3538" stroke="#6A7180" stroke-width="0.7855" stroke-miterlimit="22.9256"/>
<path d="M69.4138 31.0898H48.0938" stroke="#6A7180" stroke-width="0.7852" stroke-miterlimit="22.9256"/>
<path d="M69.4138 44.1484H48.0938" stroke="#6A7180" stroke-width="0.7852" stroke-miterlimit="22.9256"/>
<path d="M60.9453 1.08984H9.26538C4.62067 1.08984 0.855469 4.85504 0.855469 9.49976V52.6799C0.855469 57.3246 4.62067 61.0898 9.26538 61.0898H60.9453C65.59 61.0898 69.3555 57.3246 69.3555 52.6799V9.49976C69.3555 4.85504 65.59 1.08984 60.9453 1.08984Z" stroke="#6A7180" stroke-width="0.7775" stroke-miterlimit="22.9256"/>
</svg>
