<svg width="21" height="21" viewBox="0 0 21 21" fill="none" xmlns="http://www.w3.org/2000/svg">
<path fill-rule="evenodd" clip-rule="evenodd" d="M10.1904 20.61C12.1544 20.61 14.0741 20.0276 15.707 18.9365C17.34 17.8454 18.6127 16.2945 19.3643 14.4801C20.1158 12.6656 20.3119 10.669 19.9287 8.74276C19.5456 6.81653 18.6006 5.04718 17.2119 3.65844C15.8232 2.26971 14.0532 1.32396 12.127 0.940805C10.2007 0.557654 8.20412 0.754306 6.38965 1.50588C4.57518 2.25746 3.02472 3.53022 1.93359 5.1632C0.842471 6.79618 0.259766 8.71603 0.259766 10.68C0.278098 13.3079 1.3302 15.823 3.18848 17.6813C5.04675 19.5396 7.56249 20.5917 10.1904 20.61Z" fill="#AFC3D5"/>
<path d="M7.07031 7.56006L13.3096 13.8001" stroke="currentColor" stroke-width="1.4173" stroke-linecap="round" stroke-linejoin="round"/>
<path d="M13.3096 7.56006L7.07031 13.8001" stroke="currentColor" stroke-width="1.4173" stroke-linecap="round" stroke-linejoin="round"/>
</svg>
