<svg width="66" height="67" viewBox="0 0 66 67" fill="none" xmlns="http://www.w3.org/2000/svg">
<path fill-rule="evenodd" clip-rule="evenodd" d="M33.2896 66.11C39.7293 66.11 46.0249 64.2004 51.3794 60.6227C56.7339 57.0449 60.9072 51.9598 63.3716 46.0102C65.836 40.0606 66.4805 33.5139 65.2241 27.1979C63.9678 20.8818 60.8666 15.0802 56.313 10.5266C51.7594 5.97302 45.9581 2.87197 39.6421 1.61564C33.3261 0.359303 26.7792 1.00409 20.8296 3.46848C14.88 5.93287 9.79502 10.1062 6.21729 15.4606C2.63955 20.8151 0.72998 27.1102 0.72998 33.55C0.745841 42.1806 4.18094 50.4532 10.2837 56.5559C16.3864 62.6587 24.659 66.0941 33.2896 66.11Z" fill="#F2F4F9"/>
<path fill-rule="evenodd" clip-rule="evenodd" d="M33.2896 52.0001C36.9426 52.0001 40.5139 50.9169 43.5513 48.8873C46.5886 46.8578 48.9561 43.9732 50.354 40.5982C51.752 37.2233 52.1175 33.5096 51.4048 29.9268C50.6921 26.3439 48.9332 23.0529 46.3501 20.4698C43.767 17.8867 40.4759 16.1276 36.8931 15.415C33.3102 14.7023 29.5961 15.0681 26.2212 16.466C22.8462 17.864 19.9616 20.2313 17.9321 23.2687C15.9026 26.3061 14.8198 29.8771 14.8198 33.5301C14.8278 38.4262 16.7757 43.1195 20.2378 46.5816C23.6999 50.0436 28.3934 51.9921 33.2896 52.0001Z" fill="#1C2A40"/>
<path d="M24.9897 32.99L31.3301 39.32L42.6099 28.04" stroke="#FDFDFD" stroke-width="2.6345" stroke-linecap="round" stroke-linejoin="round"/>
</svg>
