<svg width="22" height="21" viewBox="0 0 22 21" fill="none" xmlns="http://www.w3.org/2000/svg">
<path fill-rule="evenodd" clip-rule="evenodd" d="M3.16016 0.5H13.0303C13.6554 0.502632 14.2543 0.752319 14.6963 1.19434C15.1383 1.63635 15.388 2.23525 15.3906 2.86035V9.33984C13.7571 9.51997 12.247 10.2977 11.1523 11.5234C10.0577 12.7492 9.455 14.3371 9.45996 15.9805C9.45966 16.8516 9.62951 17.7135 9.95996 18.5195H3.16016C2.53506 18.5169 1.93616 18.2682 1.49414 17.8262C1.05212 17.3842 0.802437 16.7853 0.799805 16.1602V2.86035C0.802437 2.23525 1.05212 1.63635 1.49414 1.19434C1.93616 0.752319 2.53506 0.502632 3.16016 0.5ZM4.23047 3.92969C4.11753 3.92969 4.00571 3.9519 3.90137 3.99512C3.79703 4.03834 3.70193 4.10178 3.62207 4.18164C3.54221 4.2615 3.47877 4.3566 3.43555 4.46094C3.39233 4.56528 3.37012 4.6771 3.37012 4.79004C3.37012 5.01813 3.46079 5.23716 3.62207 5.39844C3.78335 5.55972 4.00238 5.65039 4.23047 5.65039H7.66016C7.88824 5.65039 8.10727 5.55972 8.26855 5.39844C8.42984 5.23716 8.52051 5.01813 8.52051 4.79004C8.52051 4.6771 8.4983 4.56528 8.45508 4.46094C8.41186 4.3566 8.34841 4.2615 8.26855 4.18164C8.1887 4.10178 8.0936 4.03834 7.98926 3.99512C7.88492 3.9519 7.77309 3.92969 7.66016 3.92969H4.23047ZM8.52051 12.5098C8.74859 12.5098 8.96665 12.4191 9.12793 12.2578C9.28921 12.0965 9.37988 11.8785 9.37988 11.6504C9.37988 11.4223 9.28921 11.2033 9.12793 11.042C8.96665 10.8807 8.74859 10.79 8.52051 10.79H4.23047C4.00238 10.79 3.78335 10.8807 3.62207 11.042C3.46079 11.2033 3.37012 11.4223 3.37012 11.6504C3.37012 11.8785 3.46079 12.0965 3.62207 12.2578C3.78335 12.4191 4.00238 12.5098 4.23047 12.5098H8.52051ZM11.9502 9.08008C12.1783 9.08008 12.3973 8.98941 12.5586 8.82812C12.7199 8.66684 12.8105 8.44781 12.8105 8.21973C12.8105 7.99164 12.7199 7.77359 12.5586 7.6123C12.3973 7.45102 12.1783 7.36035 11.9502 7.36035H4.23047C4.00238 7.36035 3.78335 7.45102 3.62207 7.6123C3.46079 7.77359 3.37012 7.99164 3.37012 8.21973C3.37012 8.44781 3.46079 8.66684 3.62207 8.82812C3.78335 8.98941 4.00238 9.08008 4.23047 9.08008H11.9502Z" fill="#BCC1CF"/>
<path fill-rule="evenodd" clip-rule="evenodd" d="M16.1602 10.8711C14.819 10.8737 13.5333 11.4071 12.585 12.3555C11.6366 13.3038 11.1032 14.5895 11.1006 15.9307C11.1032 17.2718 11.6366 18.5575 12.585 19.5059C13.5333 20.4542 14.819 20.9886 16.1602 20.9912C17.5013 20.9886 18.787 20.4542 19.7354 19.5059C20.6837 18.5575 21.2171 17.2718 21.2197 15.9307C21.2171 14.5895 20.6837 13.3038 19.7354 12.3555C18.787 11.4071 17.5013 10.8737 16.1602 10.8711ZM18.6904 14.6914L15.96 17.8105C15.8901 17.8915 15.8043 17.9575 15.708 18.0039C15.6117 18.0504 15.5073 18.0768 15.4004 18.0811C15.1938 18.0802 14.9962 17.9971 14.8506 17.8506L13.29 16.291C13.1447 16.1449 13.0635 15.9473 13.0635 15.7412C13.0635 15.5351 13.1447 15.3376 13.29 15.1914C13.4362 15.0461 13.6337 14.9639 13.8398 14.9639C14.046 14.9639 14.2445 15.0461 14.3906 15.1914L15.3906 16.1914L17.5703 13.7012C17.707 13.5462 17.8992 13.4516 18.1055 13.4385C18.3117 13.4254 18.5147 13.4944 18.6699 13.6309C18.8048 13.7738 18.881 13.9627 18.8828 14.1592C18.8847 14.3557 18.8119 14.546 18.6797 14.6914H18.6904Z" fill="#BCC1CF"/>
</svg>
