<svg width="21" height="21" viewBox="0 0 21 21" fill="none" xmlns="http://www.w3.org/2000/svg">
<path fill-rule="evenodd" clip-rule="evenodd" d="M10.5996 20.28C12.5636 20.28 14.4837 19.6977 16.1167 18.6066C17.7497 17.5154 19.0223 15.9646 19.7739 14.1501C20.5255 12.3356 20.722 10.339 20.3389 8.41279C19.9557 6.48656 19.0103 4.71721 17.6216 3.32847C16.2328 1.93974 14.4633 0.994005 12.5371 0.610853C10.6109 0.227702 8.61427 0.424339 6.7998 1.17592C4.98533 1.9275 3.43438 3.20025 2.34326 4.83323C1.25214 6.46622 0.669922 8.38608 0.669922 10.35C0.688254 12.978 1.74036 15.4931 3.59863 17.3514C5.45691 19.2096 7.97167 20.2617 10.5996 20.28Z" fill="#1C2A40"/>
<path d="M6.14014 10.04L9.55017 13.45L15.6201 7.38" stroke="#FEFEFE" stroke-width="1.4173" stroke-linecap="round" stroke-linejoin="round"/>
</svg>
