<svg width="74" height="99" viewBox="0 0 74 99" fill="none" xmlns="http://www.w3.org/2000/svg">
<path fill-rule="evenodd" clip-rule="evenodd" d="M63.5126 26.0002L23.6726 3.0002C21.4026 1.6902 19.3426 1.52024 17.8026 2.29024L16.2426 3.24043L4.7826 10.3098C4.75256 10.3248 4.72953 10.3513 4.71835 10.383C4.70716 10.4147 4.70869 10.4501 4.7226 10.4807C5.3026 11.6907 10.7226 23.01 11.2026 25.09C11.4126 25.97 13.1026 34.6206 15.0626 44.6906V49.7697C15.1767 52.8627 16.0971 55.8726 17.7326 58.5002C19.7326 69.0002 21.5026 77.9702 21.5526 78.2102L27.4526 92.1501C27.46 92.1688 27.4713 92.186 27.4858 92.1999C27.5003 92.2138 27.5176 92.2245 27.5366 92.2312C27.5556 92.2378 27.5757 92.2398 27.5958 92.238C27.6158 92.2361 27.6352 92.2304 27.6526 92.2204L41.1426 84.3605C41.1697 84.3425 41.1902 84.316 41.201 84.2854C41.2118 84.2547 41.2124 84.2216 41.2026 84.1906L40.2026 81.3498C39.922 79.8969 39.7382 78.4276 39.6526 76.9504L56.8426 96.0803C56.8678 96.1014 56.8997 96.113 56.9326 96.113C56.9655 96.113 56.9974 96.1014 57.0226 96.0803L69.5826 88.32L69.7826 88.2004C71.2626 87.2704 72.1726 85.3802 72.1726 82.7102V41.0002C72.2326 35.5002 68.2926 28.7602 63.5126 26.0002Z" fill="#AFC3D5"/>
<path fill-rule="evenodd" clip-rule="evenodd" d="M38.1508 73.2891L57.2308 94.499L68.9508 87.2588L69.8408 88.2588L69.1408 87.1392C70.2808 86.4192 70.9108 84.8686 70.9108 82.7686V41.0586C70.9108 36.0586 67.2308 29.6692 62.9108 27.1592L23.0708 4.1592C21.2908 3.1592 19.6508 2.88928 18.4508 3.48928L6.4508 10.8994C8.2108 14.5994 12.1108 22.8986 12.5608 24.8086C12.7408 25.5786 14.0108 32.009 16.4308 44.459V44.7393V49.7393C16.5475 52.5965 17.4056 55.3737 18.9208 57.7989L19.0908 58.2393C21.0208 68.1893 22.6708 76.7394 22.8908 77.8594L28.2208 90.4292L39.7108 83.7295L38.9608 81.4893C38.6804 80.0128 38.4966 78.519 38.4108 77.0186L38.2108 73.2686L38.1508 73.2891ZM56.9708 97.499C56.7657 97.4995 56.5627 97.4572 56.375 97.3745C56.1873 97.2919 56.0189 97.1707 55.8808 97.0191L41.5008 81.0186V81.0791L42.5008 83.8291C42.6145 84.1523 42.6118 84.5049 42.4931 84.8262C42.3744 85.1475 42.1472 85.4172 41.8508 85.5889L27.8508 93.749L27.1708 93.5791C26.974 93.514 26.7931 93.4081 26.6398 93.2686C26.4864 93.129 26.3642 92.9589 26.2808 92.7691L20.2308 78.499C20.2308 78.279 18.4708 69.419 16.4508 58.999C14.7465 56.2178 13.7985 53.0398 13.7008 49.7793V44.8487C11.3308 32.6787 10.0408 26.1392 9.8708 25.4092C9.5508 24.0292 6.3408 17.0094 3.4908 11.0694C3.33825 10.7443 3.30997 10.3738 3.4113 10.0293C3.51262 9.68482 3.73654 9.38997 4.0408 9.19924L17.0408 1.19924C19.1508 0.139244 21.6808 0.398697 24.2608 1.8887L64.1008 24.8887C69.2608 27.8887 73.4508 35.1291 73.4508 41.0791V82.7891C73.4508 85.7891 72.3808 88.1689 70.4508 89.3989L57.6908 97.2891C57.4728 97.4197 57.2249 97.492 56.9708 97.499Z" fill="#1C2A40"/>
<path fill-rule="evenodd" clip-rule="evenodd" d="M63.4716 26L26.1316 4.5L7.35156 16.2803L47.3516 37.2803L55.7516 38.6104L68.6716 30.9297C67.3125 28.9319 65.5389 27.2508 63.4716 26Z" fill="#FEFEFE"/>
<path fill-rule="evenodd" clip-rule="evenodd" d="M47.7509 36.0703L55.4609 37.29L66.711 30.6104C65.6328 29.2289 64.311 28.0563 62.8109 27.1504L26.1609 6.07031L10.0109 16.21L47.7509 36.0703ZM55.9909 40.0703L46.7109 38.5303L4.71094 16.4199L26.1109 2.99023L64.1109 24.8604C66.3515 26.2266 68.2662 28.0659 69.7209 30.25L70.5309 31.4199L55.9909 40.0703Z" fill="#1C2A40"/>
<path fill-rule="evenodd" clip-rule="evenodd" d="M58.9605 45.5C58.9605 45.5 42.8205 49.3102 41.7905 49.7002C40.9305 50.0202 25.1205 62.7702 19.7305 68.7002L21.5705 78.1904L27.4705 92.1299C27.4779 92.1486 27.4892 92.1658 27.5037 92.1797C27.5182 92.1936 27.5355 92.2043 27.5545 92.2109C27.5734 92.2176 27.5936 92.2201 27.6136 92.2183C27.6337 92.2164 27.653 92.2102 27.6705 92.2002L41.1605 84.3398C41.1875 84.3218 41.208 84.2953 41.2189 84.2646C41.2297 84.234 41.2302 84.2009 41.2205 84.1699L40.2205 81.3301C39.9398 79.8772 39.7561 78.4069 39.6705 76.9297L56.8605 96.0601C56.8857 96.0812 56.9176 96.0928 56.9505 96.0928C56.9834 96.0928 57.0153 96.0812 57.0405 96.0601L69.6005 88.2998L69.8005 88.1802C71.2805 87.2502 72.1905 85.3604 72.1905 82.6904V40.9805C72.1843 39.9161 72.0568 38.8558 71.8105 37.8203L58.9605 45.5Z" fill="#1C2A40"/>
<path d="M70.4844 43.8006L60.9375 49.5801L61.8539 51.0938L71.4008 45.3143L70.4844 43.8006Z" fill="#AFC3D5"/>
<path d="M70.1758 81.2068L60.6289 86.9863L61.5453 88.5001L71.0922 82.7206L70.1758 81.2068Z" fill="#AFC3D5"/>
<path fill-rule="evenodd" clip-rule="evenodd" d="M50.77 33.9507L10.86 10.9507C6.1 8.2007 2.25 10.4307 2.25 15.9507V57.7505C2.25 63.2405 6.10999 69.9204 10.87 72.6704L15.41 75.2906C15.8525 75.5782 16.231 75.9536 16.5217 76.3941C16.8125 76.8345 17.0093 77.3302 17.1 77.8501C18.0236 83.6389 21.1612 88.8422 25.85 92.3604C27.11 93.2904 28.12 92.4904 27.74 90.8804C27.1871 88.5861 26.8787 86.2397 26.82 83.8804C26.82 82.7804 27.6 82.3504 28.55 82.8804L50.78 95.7105C55.54 98.4605 59.4 96.2305 59.4 90.7105V48.9204C59.39 43.3804 55.53 36.7007 50.77 33.9507Z" fill="#AFC3D5"/>
<path fill-rule="evenodd" clip-rule="evenodd" d="M27.7628 81.2398C28.2715 81.2501 28.7683 81.3949 29.2028 81.6597L51.4428 94.4995C53.3128 95.5795 55.0028 95.7996 56.2128 95.0996C57.4228 94.3996 58.0728 92.8394 58.0728 90.6694V48.8696C57.9156 46.1071 57.1093 43.4204 55.7193 41.0278C54.3294 38.6353 52.3948 36.6039 50.0728 35.0991L10.1628 12.0991C8.29281 11.0191 6.60282 10.7995 5.39282 11.4995C4.18282 12.1995 3.53282 13.7692 3.53282 15.9292V57.73C3.68999 60.4925 4.4963 63.1783 5.88629 65.5708C7.27628 67.9633 9.21079 69.9947 11.5328 71.4995L16.0828 74.1196C16.6951 74.5068 17.219 75.0186 17.6205 75.6216C18.0219 76.2246 18.2919 76.9054 18.4128 77.6196C19.2467 82.9801 22.1113 87.8141 26.4128 91.1196C25.817 88.7363 25.4817 86.2951 25.4128 83.8394C25.3844 83.3931 25.4773 82.9472 25.6815 82.5493C25.8857 82.1515 26.1937 81.8167 26.5728 81.5796C26.9126 81.3812 27.2994 81.2778 27.6928 81.2798L27.7628 81.2398ZM54.6228 98.1397C53.0263 98.0891 51.4711 97.6198 50.1128 96.7793L28.1128 84.1099C28.1862 86.2671 28.4777 88.4108 28.9828 90.5093C29.1687 91.0728 29.1722 91.681 28.9926 92.2466C28.8131 92.8121 28.4597 93.3066 27.9828 93.6597C27.5145 93.9305 26.9728 94.047 26.4344 93.9932C25.8961 93.9393 25.3883 93.7176 24.9828 93.3594C20.0019 89.6497 16.6738 84.1353 15.7128 77.9995C15.6011 77.3507 15.2428 76.7701 14.7128 76.3794L10.1628 73.7495C4.96281 70.7495 0.882812 63.6892 0.882812 57.6792V15.8794C0.882812 12.7294 2.01282 10.3397 4.06282 9.15968C6.11282 7.97968 8.75282 8.15929 11.4828 9.75929L51.3928 32.7593C56.5928 35.7593 60.6728 42.8196 60.6728 48.8296V90.6294C60.6728 93.7794 59.5428 96.1696 57.4828 97.3496C56.6162 97.8626 55.6298 98.1383 54.6228 98.1494V98.1397Z" fill="#1C2A40"/>
<path fill-rule="evenodd" clip-rule="evenodd" d="M30.1419 69.2307C27.1633 67.4288 24.5757 65.0487 22.5319 62.2307L41.0719 49.9201C42.8576 53.4553 43.841 57.341 43.9519 61.3C43.9519 70.1 37.7519 73.67 30.1319 69.3L30.1419 69.2307ZM16.3319 45.3C16.4564 49.329 17.4815 53.2795 19.3319 56.8606L37.8719 44.5002C35.8112 41.5999 33.181 39.1498 30.1419 37.3C22.5219 32.9 16.3219 36.48 16.3219 45.3H16.3319ZM30.1519 32.2307C20.1019 26.4307 11.9219 31.1502 11.9219 42.7502C11.9219 54.3502 20.1019 68.5205 30.1519 74.3205C40.2019 80.1205 48.3819 75.4 48.3819 63.8C48.3819 52.2 40.2319 38.0307 30.1419 32.2307H30.1519Z" fill="#AFC3D5"/>
<path fill-rule="evenodd" clip-rule="evenodd" d="M23.9922 36.3211C22.8823 36.3048 21.7882 36.584 20.8222 37.1307C18.4922 38.4707 17.2122 41.3806 17.2122 45.3006C17.2983 48.8548 18.1331 52.3507 19.6622 55.5604L36.6022 44.3104C34.7163 41.8193 32.3749 39.7089 29.7022 38.0906C27.985 37.0144 26.017 36.4049 23.9922 36.3211ZM18.9922 58.1512L18.5522 57.2508C16.6466 53.5482 15.6007 49.4633 15.4922 45.3006C15.4922 40.7206 17.0922 37.3004 19.9822 35.6004C22.8722 33.9004 26.6622 34.2704 30.6322 36.6004C33.778 38.5093 36.5004 41.0416 38.6322 44.0408L39.1822 44.7908L18.9922 58.201V58.1512ZM23.8622 62.4012L40.7622 51.1805C42.2414 54.3402 43.0485 57.7727 43.1322 61.2605C43.1322 65.1805 41.8522 68.0905 39.5222 69.4305C37.1922 70.7705 34.0422 70.4305 30.6422 68.4305C28.0278 66.8497 25.7318 64.7949 23.8722 62.3709L23.8622 62.4012ZM36.3522 72.0008C34.0151 71.9232 31.7393 71.2336 29.7522 70.0008C26.6634 68.1278 23.9834 65.6516 21.8722 62.7205L21.3222 61.9705L41.4822 48.5809L41.9222 49.491C43.7835 53.143 44.8083 57.1632 44.9222 61.2605C44.9222 65.8405 43.3322 69.2607 40.4322 70.9607C39.2091 71.6378 37.83 71.9826 36.4322 71.9607L36.3522 72.0008ZM22.0722 30.6307C24.7947 30.7395 27.4418 31.5565 29.7522 33.0008C39.5622 38.6608 47.5422 52.4804 47.5422 63.8104C47.5422 69.0904 45.8022 73.0104 42.6422 74.8104C39.4822 76.6104 35.2122 76.1808 30.6422 73.5408C20.8322 67.8808 12.8522 54.061 12.8522 42.741C12.8522 37.461 14.5922 33.541 17.7522 31.741C19.0689 30.997 20.56 30.6167 22.0722 30.6404V30.6307ZM38.2322 77.6912C35.1967 77.5841 32.2421 76.6839 29.6622 75.0809C19.3722 69.1409 10.9922 54.6308 10.9922 42.7508C10.9922 36.8108 13.0522 32.3512 16.7822 30.1912C20.5122 28.0312 25.4022 28.4907 30.5522 31.4607C40.8422 37.4007 49.2222 51.9106 49.2222 63.8006C49.2222 69.7406 47.1622 74.2004 43.4322 76.3504C41.8487 77.2512 40.0538 77.7146 38.2322 77.6912Z" fill="#FEFEFE"/>
</svg>
