<svg width="73" height="98" viewBox="0 0 73 98" fill="none" xmlns="http://www.w3.org/2000/svg">
<path fill-rule="evenodd" clip-rule="evenodd" d="M62.9814 25.4689L23.1413 2.46895C20.8713 1.15895 18.8113 0.988986 17.2713 1.75899L15.7114 2.70918L4.25142 9.77852C4.22138 9.7936 4.19828 9.82006 4.18709 9.85176C4.1759 9.88346 4.17745 9.91882 4.19136 9.94942C4.77136 11.1594 10.1913 22.4788 10.6713 24.5588C10.8813 25.4388 12.5713 34.0894 14.5313 44.1594V49.2385C14.6437 52.3348 15.5642 55.3482 17.2014 57.9787C19.2014 68.4787 20.9713 77.4489 21.0213 77.6789L26.9213 91.6091C26.9287 91.6278 26.9401 91.6445 26.9545 91.6584C26.969 91.6723 26.9864 91.683 27.0053 91.6897C27.0243 91.6963 27.0445 91.6988 27.0645 91.697C27.0846 91.6951 27.104 91.6889 27.1214 91.6789L40.6114 83.8186C40.6398 83.8018 40.6613 83.7764 40.6723 83.7453C40.6833 83.7142 40.683 83.6795 40.6713 83.6486L39.6713 80.8088C39.3902 79.356 39.2066 77.8867 39.1214 76.4094L56.3114 95.5388C56.3366 95.5599 56.3684 95.5715 56.4013 95.5715C56.4342 95.5715 56.4662 95.5599 56.4914 95.5388L69.0513 87.779L69.2414 87.6589C70.7214 86.7289 71.6413 84.8391 71.6413 82.1691V40.4592C71.7013 34.9692 67.7614 28.2289 62.9814 25.4689Z" fill="#AFC3D5"/>
<path fill-rule="evenodd" clip-rule="evenodd" d="M37.6124 72.7589L56.6124 93.9488L68.5124 86.5889C69.6524 85.8689 70.2823 84.3188 70.2823 82.2188V40.5088C70.2823 35.5088 66.6123 29.1185 62.2823 26.6085L22.4423 3.60846C20.6523 2.60846 19.0223 2.33854 17.8223 2.93854L5.82233 10.3487C7.41233 13.6787 11.4723 22.3488 11.9323 24.2588C12.1823 25.3388 14.4623 37.0292 15.8023 43.9092V44.1885V49.1885C15.9217 52.0453 16.7796 54.8228 18.2923 57.2491L18.4423 57.4991V57.8292L22.2224 77.2989L27.5523 89.879L39.0423 83.1788L38.3223 81.0792C38.0241 79.5575 37.8304 78.0169 37.7424 76.4688L37.5323 72.7188L37.6124 72.7589ZM56.4423 96.939C56.2364 96.9389 56.0328 96.8951 55.8449 96.8106C55.6571 96.7262 55.4892 96.6027 55.3524 96.4488L40.9724 80.4493V80.5792L41.9724 83.2589C42.0852 83.5831 42.0809 83.9364 41.9604 84.2579C41.8398 84.5793 41.6105 84.8485 41.3123 85.0186L27.3123 93.1788L26.6324 93.0089C26.4353 92.9443 26.254 92.8389 26.1007 92.6993C25.9473 92.5597 25.8252 92.389 25.7424 92.1988L19.7424 77.9786L15.9623 58.459C14.2598 55.677 13.3119 52.4985 13.2123 49.2383V44.3087C10.9523 32.7086 9.56239 25.6292 9.38239 24.8692C9.05239 23.4892 5.84238 16.4684 3.00239 10.5284C2.84734 10.1991 2.82087 9.8244 2.92817 9.47662C3.03546 9.12884 3.26873 8.83319 3.58234 8.6485L16.5823 0.648496C18.6923 -0.421504 21.2223 -0.151074 23.8023 1.33893L63.6423 24.3389C68.7923 27.3389 72.9924 34.5784 72.9924 40.5284V82.2383C72.9924 85.2383 71.9224 87.6287 69.9924 88.8487L69.7424 88.9986L57.2324 96.7286C56.9976 96.8829 56.7233 96.9665 56.4423 96.9688V96.939Z" fill="#1C2A40"/>
<path fill-rule="evenodd" clip-rule="evenodd" d="M62.9442 25.4688L25.6042 3.96875L6.82422 15.749L46.8242 36.749L55.2242 38.0791L68.1442 30.3984C66.786 28.3999 65.0123 26.7185 62.9442 25.4688Z" fill="#FEFEFE"/>
<path fill-rule="evenodd" clip-rule="evenodd" d="M47.2236 35.5391L54.9336 36.7588L66.1836 30.0791C65.1053 28.6978 63.7835 27.5252 62.2836 26.6191L25.6337 5.53906L9.48364 15.6787L47.2236 35.5391ZM55.4636 39.5391L46.1836 37.999L4.18359 15.8887L25.5836 2.45898L63.5836 24.3291C65.8205 25.6965 67.7317 27.5357 69.1836 29.7188L69.9937 30.8887L55.4636 39.5391Z" fill="#1C2A40"/>
<path fill-rule="evenodd" clip-rule="evenodd" d="M58.4331 44.9697C58.4331 44.9697 42.2932 48.7799 41.2632 49.1699C40.4032 49.4899 24.5931 62.2399 19.2031 68.1699L21.0431 77.6494L26.9431 91.5796C26.9505 91.5983 26.9618 91.6155 26.9763 91.6294C26.9908 91.6433 27.0081 91.654 27.0271 91.6606C27.0461 91.6673 27.0663 91.6698 27.0863 91.668C27.1063 91.6661 27.1256 91.6599 27.1431 91.6499L40.6332 83.79C40.6616 83.7733 40.6831 83.7469 40.6941 83.7158C40.7051 83.6847 40.7047 83.651 40.6931 83.6201L39.6931 80.7793C39.412 79.3265 39.2282 77.8572 39.1431 76.3799L56.3331 95.5098C56.3583 95.5309 56.3902 95.5425 56.4231 95.5425C56.456 95.5425 56.488 95.5309 56.5132 95.5098L69.0731 87.7495L69.2632 87.6299C70.7432 86.6999 71.6631 84.8096 71.6631 82.1396V40.4297C71.657 39.3653 71.5295 38.305 71.2831 37.2695L58.4331 44.9697Z" fill="#1C2A40"/>
<path d="M69.9543 43.2659L60.4023 49.0371L61.3174 50.5517L70.8694 44.7805L69.9543 43.2659Z" fill="#AFC3D5"/>
<path d="M69.3958 80.9152L59.8398 86.6797L60.7539 88.1949L70.3098 82.4303L69.3958 80.9152Z" fill="#AFC3D5"/>
<path fill-rule="evenodd" clip-rule="evenodd" d="M50.2427 33.4195L10.3326 10.4195C5.57264 7.66945 1.72266 9.89945 1.72266 15.4195V57.2193C1.72266 62.7093 5.58264 69.3892 10.3326 72.1392L14.8827 74.7593C15.3233 75.048 15.6999 75.4244 15.9889 75.8648C16.2779 76.3052 16.4732 76.7997 16.5626 77.3189C17.4852 83.108 20.623 88.3117 25.3126 91.8291C26.5726 92.7591 27.5726 91.9591 27.2026 90.3491C26.6495 88.0549 26.341 85.7084 26.2826 83.3491C26.2826 82.2491 27.0627 81.8191 28.0127 82.3491L50.2427 95.1792C55.0027 97.9292 58.8527 95.6992 58.8527 90.1792V48.3794C58.8627 42.8494 55.0027 36.1595 50.2427 33.4195Z" fill="#AFC3D5"/>
<path fill-rule="evenodd" clip-rule="evenodd" d="M27.2316 80.7085C27.7401 80.7198 28.2366 80.8646 28.6715 81.1284L50.9015 93.9585C52.7715 95.0385 54.4615 95.2581 55.6715 94.5581C56.8815 93.8581 57.5315 92.2884 57.5315 90.1284V48.3286C57.3743 45.5661 56.5681 42.8793 55.1781 40.4868C53.7881 38.0943 51.8535 36.0629 49.5315 34.5581L9.62158 11.5581C7.75158 10.4781 6.05156 10.2585 4.85156 10.9585C3.65156 11.6585 2.99158 13.2282 2.99158 15.3882V57.188C3.14875 59.9505 3.95498 62.6373 5.34497 65.0298C6.73496 67.4223 8.66955 69.4537 10.9916 70.9585L15.5315 73.5786C16.1442 73.9653 16.6684 74.4765 17.0699 75.0796C17.4714 75.6827 17.7412 76.3642 17.8616 77.0786C18.693 82.4427 21.5579 87.2804 25.8616 90.5884C25.2734 88.2002 24.9382 85.7567 24.8616 83.2983C24.834 82.8535 24.9271 82.4093 25.1313 82.0132C25.3356 81.6171 25.6431 81.2839 26.0215 81.0483C26.3611 80.8495 26.748 80.7461 27.1415 80.7485L27.2316 80.7085ZM54.0916 97.6084C52.4952 97.5569 50.9402 97.0877 49.5815 96.2481L27.5815 83.5786C27.6602 85.7354 27.9516 87.8785 28.4515 89.978C28.6375 90.5415 28.6408 91.1498 28.4613 91.7153C28.2818 92.2809 27.9284 92.7753 27.4515 93.1284C26.9822 93.398 26.4399 93.5127 25.9015 93.457C25.3631 93.4014 24.8559 93.1782 24.4515 92.8184C19.4714 89.108 16.1435 83.5939 15.1815 77.4585C15.0688 76.81 14.7107 76.2298 14.1815 75.8384L9.63159 73.2183C4.43159 70.2183 0.351562 63.158 0.351562 57.148V15.3482C0.351562 12.1982 1.4815 9.80843 3.5415 8.62843C5.6015 7.44843 8.23154 7.62804 10.9515 9.22804L50.8616 32.228C56.0616 35.228 60.1415 42.2883 60.1415 48.2983V90.0982C60.1415 93.2482 59.0115 95.6384 56.9515 96.8184C56.0843 97.3287 55.0978 97.6012 54.0916 97.6084Z" fill="#1C2A40"/>
<path fill-rule="evenodd" clip-rule="evenodd" d="M48.5109 63.258C48.5109 74.878 40.3508 79.5975 30.2808 73.7775C20.2108 67.9575 12.0508 53.8282 12.0508 42.2082C12.0508 30.5882 20.2108 25.8777 30.2808 31.6877C40.3508 37.4977 48.5109 51.638 48.5109 63.258Z" fill="#AFC3D5"/>
<path fill-rule="evenodd" clip-rule="evenodd" d="M22.1536 30.0789C20.6448 30.0575 19.1575 30.4367 17.8436 31.1785C14.6836 32.9985 12.9436 36.9185 12.9436 42.1785C12.9436 53.4985 20.9436 67.3181 30.7336 72.9881C35.3136 75.6381 39.5836 76.0886 42.7336 74.2586C45.8836 72.4286 47.6337 68.5186 47.6337 63.2586C47.6337 51.9386 39.6336 38.119 29.8436 32.449C27.5276 30.9996 24.8735 30.1784 22.1436 30.0682L22.1536 30.0789ZM38.4336 77.1687C35.394 77.059 32.4361 76.1556 29.8536 74.5486C19.5636 68.6086 11.1836 54.0985 11.1836 42.2185C11.1836 36.2685 13.2336 31.809 16.9636 29.659C20.6936 27.509 25.5836 27.9583 30.7336 30.9383C41.0236 36.8783 49.4036 51.3884 49.4036 63.2684C49.4036 69.2184 47.3537 73.6789 43.6237 75.8289C42.0423 76.725 40.251 77.1841 38.4336 77.159V77.1687Z" fill="#FEFEFE"/>
<path fill-rule="evenodd" clip-rule="evenodd" d="M24.8517 51.9699L24.5117 51.7795C23.8258 51.287 23.2649 50.6413 22.8741 49.8928C22.4834 49.1442 22.2737 48.3142 22.2617 47.4699V41.2297C22.2617 39.5697 23.2617 38.8095 24.5117 39.5295L24.8517 39.7199C25.5376 40.2124 26.0984 40.8591 26.4891 41.6076C26.8799 42.3561 27.0897 43.1852 27.1017 44.0295V50.2697C27.1017 51.8897 26.0917 52.6499 24.8517 51.9699Z" fill="#AFC3D5"/>
<path fill-rule="evenodd" clip-rule="evenodd" d="M23.6238 40.1075C23.5779 40.0961 23.5298 40.0961 23.4838 40.1075C23.3138 40.2075 23.1437 40.568 23.1437 41.168V47.4083C23.16 48.0964 23.3312 48.772 23.6446 49.3848C23.9579 49.9977 24.4055 50.5322 24.9538 50.9483L25.2937 51.1378C25.3766 51.201 25.4728 51.2449 25.575 51.2657C25.6772 51.2865 25.7828 51.2838 25.8838 51.2579C26.0538 51.1579 26.2238 50.7983 26.2238 50.1983V43.9678C26.2068 43.2798 26.0353 42.604 25.722 41.9913C25.4087 41.3785 24.9615 40.8444 24.4137 40.4278L24.0738 40.2374C23.938 40.152 23.7837 40.1011 23.6238 40.088V40.1075ZM25.7538 53.1075C25.2805 53.0986 24.8179 52.9643 24.4137 52.7178L24.0738 52.5274C23.2535 51.9574 22.5808 51.2011 22.1112 50.3194C21.6417 49.4378 21.389 48.4568 21.3738 47.4581V41.2178C21.3306 40.7169 21.4207 40.2137 21.6349 39.7589C21.8492 39.304 22.18 38.9137 22.5938 38.628C22.9621 38.4358 23.3751 38.3452 23.7901 38.3663C24.205 38.3874 24.6068 38.5195 24.9538 38.7481L25.2837 38.9376C26.104 39.5076 26.7767 40.2649 27.2463 41.1466C27.7158 42.0282 27.9687 43.0091 27.9838 44.0079V50.2481C28.027 50.7491 27.9368 51.2522 27.7226 51.7071C27.5083 52.162 27.1776 52.5522 26.7638 52.838C26.4404 53.0177 26.0734 53.1043 25.7038 53.088L25.7538 53.1075Z" fill="#FEFEFE"/>
<path fill-rule="evenodd" clip-rule="evenodd" d="M36.0704 58.4094L35.7305 58.2189C35.0446 57.7265 34.4837 57.0798 34.0929 56.3312C33.7021 55.5827 33.4924 54.7537 33.4805 53.9094V47.6691C33.4805 46.0091 34.4805 45.2489 35.7305 45.9689L36.0704 46.1594C36.7563 46.6518 37.3171 47.2976 37.7079 48.0461C38.0986 48.7946 38.3085 49.6246 38.3204 50.4689V56.7092C38.3204 58.3692 37.3104 59.1294 36.0704 58.4094Z" fill="#AFC3D5"/>
<path fill-rule="evenodd" clip-rule="evenodd" d="M34.8426 46.5801C34.7967 46.5683 34.7485 46.5683 34.7026 46.5801C34.5326 46.6801 34.3626 47.0397 34.3626 47.6397V53.88C34.3789 54.5681 34.5501 55.2436 34.8634 55.8565C35.1768 56.4694 35.6242 57.0039 36.1725 57.42L36.5126 57.6094C36.6326 57.6794 36.9326 57.8196 37.1026 57.7296C37.2726 57.6396 37.4425 57.27 37.4425 56.67V50.4298C37.4263 49.7416 37.2551 49.0661 36.9417 48.4532C36.6283 47.8403 36.1809 47.3058 35.6326 46.8897L35.2925 46.6895C35.1567 46.6042 35.0024 46.5533 34.8426 46.5401V46.5801ZM36.9726 59.5801C36.5003 59.5733 36.0382 59.4424 35.6326 59.2003L35.2925 59.0098C34.4722 58.4398 33.7995 57.6825 33.33 56.8009C32.8605 55.9192 32.6077 54.9383 32.5926 53.9395V47.7003C32.5494 47.1993 32.6394 46.6952 32.8537 46.2403C33.0679 45.7854 33.3988 45.3952 33.8125 45.1094C34.1806 44.9162 34.5938 44.8256 35.009 44.8468C35.4241 44.8679 35.826 45 36.1725 45.2296L36.5126 45.4298C37.3316 46.0003 38.0028 46.758 38.4706 47.6397C38.9384 48.5214 39.1894 49.502 39.2026 50.5001V56.7393C39.2468 57.2404 39.1571 57.7442 38.9428 58.1993C38.7284 58.6544 38.3971 59.0452 37.9826 59.3301C37.669 59.4959 37.3169 59.5748 36.9626 59.5596L36.9726 59.5801Z" fill="#FEFEFE"/>
<path fill-rule="evenodd" clip-rule="evenodd" d="M23.3733 57.7285C24.6896 60.0255 26.5553 61.9599 28.8032 63.3584L33.3833 65.999C35.2533 67.079 37.0032 67.3189 38.2832 66.6689L39.0833 68.249C37.2433 69.179 34.9133 68.9183 32.5033 67.5283L27.9232 64.8789C25.4196 63.3304 23.3378 61.1866 21.8633 58.6387L23.3733 57.7285Z" fill="#FEFEFE"/>
</svg>
