<svg width="74" height="99" viewBox="0 0 74 99" fill="none" xmlns="http://www.w3.org/2000/svg">
<path fill-rule="evenodd" clip-rule="evenodd" d="M63.5518 26.0002L23.7117 3.0002C21.4417 1.6902 19.3818 1.52024 17.8418 2.29024L16.2818 3.29024L4.82181 10.3605C4.79177 10.3756 4.76854 10.4011 4.75735 10.4328C4.74617 10.4645 4.74783 10.4999 4.76175 10.5305C5.34175 11.7405 10.7617 23.0498 11.2417 25.1398C11.4517 26.0198 13.1418 34.6704 15.1018 44.7404V49.8205C15.215 52.9136 16.1354 55.9228 17.7718 58.55C19.7718 69.05 21.5418 78.02 21.5918 78.26L27.4917 92.1901C27.4991 92.2088 27.5104 92.226 27.5249 92.2399C27.5394 92.2539 27.5567 92.2645 27.5757 92.2712C27.5947 92.2778 27.6148 92.2799 27.6348 92.278C27.6548 92.2762 27.6742 92.27 27.6917 92.26L41.1817 84.4006C41.2101 84.3839 41.2317 84.3575 41.2427 84.3264C41.2537 84.2953 41.2534 84.2615 41.2417 84.2307L40.2417 81.3898C39.96 79.9372 39.7762 78.4678 39.6917 76.9904L56.8816 96.1203C56.9068 96.1415 56.9388 96.153 56.9717 96.153C57.0046 96.153 57.0366 96.1415 57.0618 96.1203L69.6216 88.3601L69.8218 88.2404C71.3018 87.3104 72.2117 85.4202 72.2117 82.7502V41.0402C72.2317 35.5002 68.3218 28.7602 63.5518 26.0002Z" fill="#AFC3D5"/>
<path fill-rule="evenodd" clip-rule="evenodd" d="M38.2302 73.291L57.2302 94.481L68.9502 87.2412L69.8403 88.2412L69.1401 87.1211C70.2801 86.4011 70.9101 84.851 70.9101 82.751V41.041C70.9101 36.041 67.2401 29.6507 62.9101 27.1406L23.0703 4.14065C21.2903 3.14065 19.6502 2.87073 18.4502 3.47073L6.45016 10.8809C8.04016 14.2209 12.1003 22.881 12.5603 24.791C12.7403 25.561 14.0101 31.9914 16.4301 44.4414V44.7207V49.7207C16.5482 52.5777 17.4062 55.3556 18.9201 57.7813L19.0403 57.9912L19.1003 58.2705L22.8901 77.8408L28.2302 90.501L39.7202 83.8106L38.9902 81.711C38.6936 80.189 38.4998 78.6486 38.4101 77.1006L38.2102 73.3506L38.2302 73.291ZM57.0503 97.4712C56.8451 97.4717 56.642 97.4289 56.4543 97.3462C56.2666 97.2635 56.0983 97.1429 55.9602 96.9912L41.5703 80.9912V81.041L42.5703 83.8008C42.684 84.1239 42.6811 84.477 42.5625 84.7984C42.4438 85.1197 42.2166 85.3894 41.9201 85.5611L27.9201 93.7212L27.2402 93.5508C27.0422 93.4851 26.8605 93.3782 26.707 93.2368C26.5535 93.0955 26.432 92.923 26.3503 92.731L20.3503 78.4815L16.5803 59.0108C14.8803 56.2239 13.9327 53.0441 13.8303 49.7813V44.8408C11.4603 32.6708 10.1702 26.1312 10.0002 25.4112C9.67021 24.0312 6.46009 17.0113 3.62009 11.0713C3.46331 10.7444 3.43381 10.37 3.53732 10.0225C3.64084 9.67498 3.87001 9.37931 4.18014 9.19143L17.1801 1.19143C19.2901 0.131431 21.8201 0.390884 24.4001 1.88088L64.2402 24.8809C69.3902 27.8809 73.5903 35.1213 73.5903 41.0713V82.7813C73.5903 85.7813 72.5203 88.1711 70.5903 89.3911L57.8303 97.2808C57.5845 97.4332 57.2992 97.5099 57.0102 97.501L57.0503 97.4712Z" fill="#1C2A40"/>
<path fill-rule="evenodd" clip-rule="evenodd" d="M63.5107 26L26.1707 4.51953L7.39062 16.2998L47.3906 37.2998L55.7908 38.6299L68.7107 30.9502C67.3538 28.9452 65.5801 27.2565 63.5107 26Z" fill="#FEFEFE"/>
<path fill-rule="evenodd" clip-rule="evenodd" d="M47.7822 36.0703L55.4922 37.29L66.7422 30.6104C65.6631 29.2298 64.3416 28.0574 62.8423 27.1504L26.1921 6.07031L10.0422 16.21L47.7822 36.0801V36.0703ZM56.0222 40.0703L46.7422 38.5303L4.74219 16.4199L26.1421 2.99023L64.1421 24.8701C66.3826 26.2364 68.2975 28.0756 69.7522 30.2598L70.5623 31.4297L56.0222 40.0703Z" fill="#1C2A40"/>
<path fill-rule="evenodd" clip-rule="evenodd" d="M58.9995 45.501C58.9995 45.501 42.8696 49.3112 41.8296 49.7012C40.9596 50.0212 25.1595 62.7712 19.7695 68.7012L21.6094 78.1807L27.5095 92.1108C27.5169 92.1295 27.5282 92.1467 27.5427 92.1606C27.5572 92.1746 27.5745 92.1853 27.5935 92.1919C27.6125 92.1985 27.6326 92.2011 27.6526 92.1992C27.6726 92.1974 27.692 92.1912 27.7095 92.1812L41.1995 84.3213C41.2279 84.3046 41.2495 84.2782 41.2605 84.2471C41.2715 84.216 41.2711 84.1822 41.2595 84.1514L40.2595 81.3105C39.9777 79.8579 39.7939 78.3885 39.7095 76.9111L56.8994 96.041C56.9246 96.0622 56.9566 96.0737 56.9895 96.0737C57.0224 96.0737 57.0544 96.0622 57.0796 96.041L69.6394 88.2808L69.8396 88.1611C71.3196 87.2311 72.2295 85.3409 72.2295 82.6709V40.9609C72.2222 39.8967 72.0949 38.8364 71.8496 37.8008L58.9995 45.501Z" fill="#1C2A40"/>
<path d="M31.2772 20.7125L21.6797 26.5156L22.5998 28.0374L32.1974 22.2343L31.2772 20.7125Z" fill="#AFC3D5"/>
<path d="M70.1952 81.1932L60.6484 86.9727L61.5648 88.4864L71.1116 82.7069L70.1952 81.1932Z" fill="#AFC3D5"/>
<path fill-rule="evenodd" clip-rule="evenodd" d="M50.8091 33.9507L10.8989 10.9507C6.13893 8.2007 2.28906 10.4307 2.28906 15.9507V57.7407C2.28906 63.2307 6.14893 69.9107 10.8989 72.6607L15.449 75.2808C15.8892 75.5699 16.2655 75.9459 16.5544 76.3863C16.8434 76.8266 17.0389 77.3214 17.1289 77.8404C18.0549 83.6255 21.1923 88.8246 25.8789 92.3404C27.1389 93.2704 28.149 92.4704 27.769 90.8604C27.217 88.5659 26.9087 86.2201 26.8491 83.8609C26.8491 82.7609 27.6291 82.3309 28.5791 82.8609L50.8091 95.6905C55.5691 98.4405 59.4189 96.2104 59.4189 90.6905V48.9009C59.4289 43.3809 55.5691 36.7007 50.8091 33.9507Z" fill="#AFC3D5"/>
<path fill-rule="evenodd" clip-rule="evenodd" d="M27.802 81.2398C28.3105 81.251 28.8071 81.3958 29.2419 81.6597L51.4719 94.4898C53.3419 95.5698 55.0419 95.7794 56.2419 95.0894C57.4419 94.3994 58.1021 92.8197 58.1021 90.6597V48.8599C57.9449 46.0973 57.1385 43.4106 55.7485 41.0181C54.3585 38.6256 52.4241 36.5942 50.1021 35.0894L10.1919 12.0894C8.32189 11.0094 6.62187 10.7898 5.42188 11.4898C4.22187 12.1898 3.56201 13.7494 3.56201 15.9194V57.7095C3.71918 60.472 4.52529 63.1588 5.91528 65.5513C7.30527 67.9438 9.23998 69.9752 11.562 71.48L16.1118 74.0991C16.7245 74.4858 17.2489 74.998 17.6504 75.6011C18.0519 76.2042 18.3216 76.8847 18.4419 77.5991C19.2734 82.9632 22.1382 87.8014 26.4419 91.1094C25.8551 88.7209 25.5199 86.2781 25.4419 83.8198C25.4154 83.3752 25.509 82.9316 25.7131 82.5357C25.9173 82.1397 26.2245 81.8061 26.6021 81.5698C26.942 81.3719 27.3285 81.2676 27.7219 81.2691L27.802 81.2398ZM54.6619 98.1397C53.0655 98.0882 51.5105 97.6189 50.1519 96.7793L28.1519 84.0991C28.2292 86.256 28.5207 88.4003 29.022 90.4995C29.2079 91.063 29.2113 91.6708 29.0317 92.2363C28.8522 92.8019 28.4989 93.2963 28.022 93.6494C27.5536 93.9203 27.012 94.0372 26.4736 93.9834C25.9353 93.9296 25.4274 93.7079 25.022 93.3496C20.0426 89.6385 16.7149 84.1248 15.752 77.9898C15.6403 77.3409 15.2819 76.7603 14.752 76.3696L10.2019 73.7398C5.0019 70.7398 0.921875 63.6794 0.921875 57.6694V15.8794C0.921875 12.7294 2.05205 10.3397 4.10205 9.15968C6.15205 7.97968 8.79197 8.15929 11.522 9.75929L51.4319 32.7593C56.6319 35.7593 60.7119 42.8196 60.7119 48.8296V90.6294C60.7119 93.7794 59.582 96.1696 57.522 97.3496C56.6557 97.8634 55.669 98.1392 54.6619 98.1494V98.1397Z" fill="#1C2A40"/>
<path fill-rule="evenodd" clip-rule="evenodd" d="M48.1187 70.1514L44.9488 66.211C45.2867 64.9047 45.4547 63.5603 45.4488 62.211C45.4342 60.6682 45.2667 59.1309 44.9488 57.6211L48.1187 57.3409C48.5787 57.3409 48.7288 56.7113 48.4688 56.0313L45.5989 48.6407C45.3389 47.9607 44.7489 47.4415 44.2989 47.4815L41.1387 47.7608C39.4166 44.773 37.2369 42.0735 34.6788 39.7608V35.501C34.6569 35.1646 34.5547 34.8387 34.3807 34.5498C34.2067 34.261 33.966 34.0175 33.6788 33.8409L27.9388 30.5313C27.4088 30.2313 26.9388 30.4711 26.9388 31.0811V35.3008C25.8781 34.9648 24.7617 34.8414 23.6531 34.9375C22.5446 35.0336 21.4659 35.3478 20.4788 35.8614L17.3189 31.9307C16.8589 31.3607 16.3189 31.2111 16.0089 31.5811L13.1387 35.6612C13.0277 35.9499 13.0018 36.2644 13.0638 36.5674C13.1258 36.8704 13.2733 37.1493 13.4888 37.3711L16.6588 41.3106C16.3209 42.6169 16.1529 43.9613 16.1588 45.3106C16.1734 46.8533 16.3409 48.3917 16.6588 49.9014L13.4888 50.1807C13.0288 50.1807 12.8787 50.8113 13.1387 51.4913L16.0089 58.8809C16.2689 59.5609 16.8589 60.0811 17.3189 60.0411L20.4788 59.7608C22.1993 62.7497 24.3792 65.4494 26.9388 67.7608V71.9912C26.9615 72.3275 27.0642 72.6537 27.2381 72.9424C27.412 73.2311 27.6522 73.4741 27.9388 73.6514L33.6788 76.961C34.2088 77.271 34.6788 77.0212 34.6788 76.4112V72.1914C35.7396 72.527 36.856 72.6498 37.9644 72.5537C39.0728 72.4577 40.1515 72.1439 41.1387 71.6309L44.2989 75.5606C44.7589 76.1306 45.2989 76.2812 45.5989 75.9112L48.4688 71.8311C48.5736 71.5464 48.5964 71.2375 48.5345 70.9405C48.4726 70.6435 48.3285 70.3706 48.1187 70.1514Z" fill="#AFC3D5"/>
<path fill-rule="evenodd" clip-rule="evenodd" d="M21.0497 58.8482L21.3298 59.3385C23.0009 62.2548 25.1199 64.8909 27.6096 67.149L27.9096 67.4088V72.0289C27.9286 72.2055 27.9848 72.3755 28.0744 72.5289C28.164 72.6823 28.2851 72.8152 28.4296 72.9185L33.7897 76.0181V71.0787L34.8996 71.3687C36.8204 71.9813 38.9057 71.8083 40.6996 70.8883L41.3498 70.5181L44.9797 75.0289L45.0798 75.1383L47.7497 71.3482C47.6883 71.1139 47.583 70.894 47.4396 70.6988L43.9897 66.4088L44.1096 65.9791C44.4279 64.7411 44.5861 63.4673 44.5798 62.189C44.5657 60.7068 44.4049 59.2294 44.0998 57.7789L43.8996 56.7789L47.6996 56.439V56.2984L44.8298 48.9088C44.7455 48.6584 44.5755 48.4453 44.3498 48.3082L40.7097 48.649L40.4296 48.1588C38.7574 45.2432 36.6383 42.6073 34.1496 40.3482L33.8498 40.0885V35.4986C33.8326 35.3226 33.778 35.152 33.6901 34.9986C33.6022 34.8452 33.4829 34.7128 33.3398 34.609L27.9797 31.5084V36.4488L26.8696 36.1588C25.9187 35.8538 24.917 35.7395 23.9218 35.8219C22.9266 35.9042 21.9576 36.1811 21.0698 36.6383L20.4196 37.0084L16.7897 32.4888L16.6896 32.3785L14.0297 36.1685C14.0892 36.4035 14.1946 36.6248 14.3398 36.8189L17.7897 41.109L17.6796 41.5387C17.3621 42.7768 17.2042 44.0505 17.2097 45.3287C17.2244 46.8109 17.3851 48.2882 17.6896 49.7388L17.8896 50.7388L14.0898 51.0787C14.0865 51.1253 14.0865 51.1717 14.0898 51.2183L16.9597 58.609C17.0454 58.8585 17.215 59.0701 17.4396 59.2086L21.0798 58.8687L21.0497 58.8482ZM34.1496 78.0084C33.8427 78.0028 33.5428 77.9166 33.2797 77.7584L27.5397 74.4488C27.1274 74.1894 26.7844 73.8333 26.5405 73.4117C26.2965 72.9901 26.1589 72.5156 26.1396 72.0289V68.1988C23.7772 66.0023 21.7403 63.4801 20.0898 60.7086L17.4897 60.939C16.9885 60.9168 16.5065 60.7394 16.1105 60.4312C15.7146 60.1231 15.4244 59.6988 15.2797 59.2183L12.4096 51.8287C12.276 51.5349 12.2119 51.2138 12.2224 50.8912C12.2328 50.5686 12.3174 50.2529 12.4697 49.9683C12.5765 49.7925 12.7221 49.6437 12.8954 49.5328C13.0688 49.4219 13.2652 49.3521 13.4697 49.3287L15.6696 49.1285C15.4524 47.8766 15.3388 46.609 15.3298 45.3385C15.3264 44.06 15.4673 42.7855 15.7497 41.5387L12.8596 37.939C12.52 37.5719 12.3015 37.1093 12.2336 36.6138C12.1656 36.1184 12.2515 35.6135 12.4797 35.1685L15.3498 31.0885C15.4718 30.914 15.6332 30.7712 15.8207 30.6705C16.0083 30.5697 16.2168 30.5138 16.4296 30.5084C16.7529 30.5161 17.0698 30.5996 17.3547 30.7525C17.6396 30.9054 17.8846 31.1232 18.0698 31.3883L20.7797 34.7584C22.4653 34.0477 24.3245 33.8563 26.1196 34.2086V31.0787C26.1051 30.8053 26.1643 30.5333 26.291 30.2906C26.4176 30.0479 26.6073 29.8434 26.8398 29.6988C27.0824 29.5704 27.3548 29.5088 27.6291 29.5211C27.9034 29.5334 28.1694 29.6185 28.3996 29.7681L34.1296 33.0787C34.5419 33.3381 34.8849 33.6942 35.1288 34.1158C35.3728 34.5374 35.5104 35.0119 35.5297 35.4986V39.3287C37.8915 41.5257 39.9286 44.0479 41.5798 46.8189L44.1796 46.5885C44.68 46.6136 45.1607 46.7924 45.5561 47.1002C45.9515 47.4079 46.2424 47.8293 46.3896 48.3082L49.2597 55.6988C49.3941 55.9924 49.4586 56.3126 49.4482 56.6353C49.4378 56.958 49.3526 57.2739 49.1996 57.5582C49.0928 57.734 48.9472 57.8838 48.7739 57.9947C48.6005 58.1056 48.4041 58.1754 48.1996 58.1988L45.9997 58.399C46.2166 59.6509 46.3304 60.9185 46.3398 62.189C46.3447 63.4676 46.2036 64.7423 45.9196 65.9888L48.8098 69.5885C49.1506 69.9548 49.3699 70.4179 49.4379 70.9137C49.5059 71.4094 49.4192 71.9143 49.1896 72.359L46.3198 76.439C46.1987 76.6122 46.0389 76.7544 45.8532 76.8551C45.6675 76.9557 45.4608 77.0112 45.2497 77.0181C44.9271 77.0074 44.6113 76.9227 44.3268 76.7701C44.0424 76.6175 43.7969 76.4011 43.6096 76.1383L40.8996 72.7681C39.2175 73.4786 37.3615 73.671 35.5698 73.3189V76.4488C35.5831 76.722 35.5235 76.9934 35.3969 77.2359C35.2704 77.4785 35.0816 77.6833 34.8498 77.8287C34.6366 77.9498 34.3948 78.0116 34.1496 78.0084Z" fill="#FEFEFE"/>
<path fill-rule="evenodd" clip-rule="evenodd" d="M37.7715 57.761C37.7715 62.171 34.6716 63.9611 30.8516 61.761C28.8363 60.4462 27.1598 58.6745 25.959 56.5892C24.7582 54.5039 24.067 52.1641 23.9414 49.761C23.9414 45.351 27.0416 43.561 30.8516 45.761C32.8687 47.0748 34.547 48.8466 35.7495 50.9319C36.9521 53.0173 37.6448 55.3571 37.7715 57.761Z" fill="#AFC3D5"/>
<path fill-rule="evenodd" clip-rule="evenodd" d="M27.7725 45.7198C27.297 45.7109 26.8277 45.8281 26.4124 46.0596C25.4124 46.6496 24.8325 47.9696 24.8325 49.7696C24.9567 52.0145 25.6068 54.1992 26.7307 56.1465C27.8546 58.0938 29.4207 59.75 31.3025 60.9805C32.8625 61.8805 34.3025 62.05 35.3025 61.46C36.3025 60.87 36.8823 59.55 36.8823 57.75C36.7586 55.5039 36.1075 53.3187 34.9817 51.3711C33.8559 49.4235 32.287 47.7683 30.4023 46.5401C29.6094 46.0388 28.6996 45.7526 27.7625 45.71L27.7725 45.7198ZM33.9524 63.5801C32.7025 63.5374 31.4856 63.1682 30.4224 62.5098C28.2658 61.13 26.4719 59.253 25.1912 57.0362C23.9105 54.8193 23.1805 52.3271 23.0625 49.7696C23.0625 47.3096 23.9425 45.4503 25.5325 44.5303C27.1225 43.6103 29.1725 43.7896 31.3025 45.0196C33.4591 46.3994 35.253 48.2773 36.5337 50.4942C37.8144 52.711 38.5443 55.2023 38.6624 57.7598C38.6624 60.2198 37.7824 62.08 36.1924 63C35.5105 63.3888 34.7373 63.5891 33.9524 63.5801Z" fill="#FEFEFE"/>
</svg>
