<svg width="73" height="98" viewBox="0 0 73 98" fill="none" xmlns="http://www.w3.org/2000/svg">
<path fill-rule="evenodd" clip-rule="evenodd" d="M62.9813 25.4455L23.1414 2.44551C20.8714 1.13551 18.8114 0.965548 17.2714 1.73555L15.7113 2.68574L4.25135 9.75508C4.22131 9.77016 4.19828 9.79663 4.1871 9.82832C4.17591 9.86002 4.17744 9.89538 4.19135 9.92598C4.77135 11.136 10.1914 22.4554 10.6714 24.5354C10.8814 25.4154 12.5714 34.0659 14.5314 44.1359V49.215C14.6455 52.308 15.5659 55.3179 17.2013 57.9455C19.2013 68.4455 20.9714 77.4155 21.0214 77.6555L26.9214 91.5954C26.9287 91.6141 26.94 91.6313 26.9545 91.6452C26.969 91.6592 26.9864 91.6698 27.0053 91.6765C27.0243 91.6831 27.0445 91.6852 27.0645 91.6833C27.0845 91.6814 27.1039 91.6757 27.1213 91.6657L40.6114 83.8059C40.6384 83.7879 40.6589 83.7613 40.6697 83.7307C40.6806 83.7 40.6811 83.667 40.6713 83.6359L39.6713 80.7951C39.3907 79.3423 39.207 77.8729 39.1213 76.3957L56.3113 95.5256C56.3366 95.5468 56.3684 95.5583 56.4013 95.5583C56.4343 95.5583 56.4661 95.5468 56.4913 95.5256L69.0514 87.7653L69.2513 87.6457C70.7313 86.7157 71.6413 84.8255 71.6413 82.1555V40.4455C71.7013 34.9455 67.7613 28.2055 62.9813 25.4455Z" fill="#AFC3D5"/>
<path fill-rule="evenodd" clip-rule="evenodd" d="M37.6196 72.7344L56.6996 93.9444L68.4196 86.7041L69.3095 87.7041L68.6096 86.5845C69.7496 85.8645 70.3795 84.3139 70.3795 82.2139V40.5039C70.3795 35.5039 66.6995 29.1145 62.3795 26.6045L22.5395 3.60452C20.7595 2.60452 19.1196 2.3346 17.9196 2.9346L5.91955 10.3448C7.67955 14.0448 11.5796 22.3439 12.0296 24.2539C12.2096 25.0239 13.4796 31.4543 15.8996 43.9043V44.1846V49.1846C16.0162 52.0418 16.8743 54.819 18.3896 57.2442L18.5596 57.6846C20.4896 67.6346 22.1396 76.1847 22.3596 77.3047L27.6896 89.8745L39.1796 83.1748L38.4296 80.9346C38.1491 79.4582 37.9654 77.9643 37.8795 76.4639L37.6796 72.7139L37.6196 72.7344ZM56.4396 96.9444C56.2344 96.9448 56.0315 96.9025 55.8438 96.8198C55.656 96.7372 55.4877 96.616 55.3495 96.4644L40.9696 80.4639V80.5244L41.9696 83.2744C42.0833 83.5976 42.0805 83.9502 41.9619 84.2715C41.8432 84.5928 41.616 84.8625 41.3195 85.0342L27.3195 93.1944L26.6396 93.0244C26.4428 92.9593 26.2618 92.8534 26.1085 92.7139C25.9552 92.5744 25.8329 92.4042 25.7496 92.2144L19.6996 77.9444C19.6996 77.7244 17.9396 68.8644 15.9196 58.4444C14.2153 55.6631 13.2673 52.4851 13.1696 49.2246V44.294C10.7996 32.124 9.50955 25.5845 9.33955 24.8545C9.01955 23.4745 5.80955 16.4547 2.95955 10.5147C2.807 10.1896 2.77872 9.81914 2.88005 9.47463C2.98137 9.13013 3.20529 8.83528 3.50955 8.64456L16.5096 0.644556C18.6196 -0.415444 21.1496 -0.155991 23.7296 1.33401L63.5695 24.334C68.7296 27.334 72.9196 34.5744 72.9196 40.5244V82.2344C72.9196 85.2344 71.8496 87.6143 69.9196 88.8443L57.1596 96.7344C56.9416 96.8651 56.6936 96.9373 56.4396 96.9444Z" fill="#1C2A40"/>
<path fill-rule="evenodd" clip-rule="evenodd" d="M62.9403 25.4453L25.6003 3.94531L6.82031 15.7256L46.8203 36.7256L55.2203 38.0557L68.1403 30.375C66.7812 28.3772 65.0076 26.6961 62.9403 25.4453Z" fill="#FEFEFE"/>
<path fill-rule="evenodd" clip-rule="evenodd" d="M47.2197 35.5156L54.9297 36.7354L66.1797 30.0557C65.1015 28.6742 63.7798 27.5016 62.2797 26.5957L25.6297 5.51562L9.47969 15.6553L47.2197 35.5156ZM55.4597 39.5156L46.1797 37.9756L4.17969 15.8652L25.5797 2.43555L63.5797 24.3057C65.8202 25.6719 67.7349 27.5112 69.1897 29.6953L69.9997 30.8652L55.4597 39.5156Z" fill="#1C2A40"/>
<path fill-rule="evenodd" clip-rule="evenodd" d="M58.4292 44.9453C58.4292 44.9453 42.2892 48.7555 41.2592 49.1455C40.3992 49.4655 24.5892 62.2155 19.1992 68.1455L21.0392 77.6357L26.9392 91.5752C26.9466 91.5939 26.9579 91.6111 26.9724 91.625C26.9869 91.6389 27.0042 91.6496 27.0232 91.6562C27.0422 91.6629 27.0624 91.6654 27.0824 91.6636C27.1024 91.6617 27.1218 91.6555 27.1392 91.6455L40.6292 83.7852C40.6563 83.7672 40.6768 83.7406 40.6876 83.71C40.6984 83.6793 40.699 83.6462 40.6892 83.6152L39.6892 80.7754C39.4086 79.3225 39.2249 77.8522 39.1392 76.375L56.3292 95.5054C56.3544 95.5265 56.3863 95.5381 56.4192 95.5381C56.4521 95.5381 56.484 95.5265 56.5092 95.5054L69.0692 87.7451L69.2692 87.6255C70.7492 86.6955 71.6592 84.8057 71.6592 82.1357V40.4258C71.6531 39.3614 71.5256 38.3011 71.2792 37.2656L58.4292 44.9453Z" fill="#1C2A40"/>
<path d="M69.9531 43.2459L60.4062 49.0254L61.3227 50.5391L70.8695 44.7596L69.9531 43.2459Z" fill="#AFC3D5"/>
<path d="M69.6445 80.6521L60.0977 86.4316L61.0141 87.9454L70.5609 82.1659L69.6445 80.6521Z" fill="#AFC3D5"/>
<path fill-rule="evenodd" clip-rule="evenodd" d="M50.2387 33.396L10.3288 10.396C5.56875 7.64602 1.71875 9.87602 1.71875 15.396V57.1958C1.71875 62.6858 5.57874 69.3657 10.3387 72.1157L14.8787 74.7359C15.3212 75.0235 15.6997 75.3989 15.9905 75.8394C16.2813 76.2798 16.4781 76.7755 16.5687 77.2954C17.4923 83.0842 20.6299 88.2875 25.3187 91.8057C26.5787 92.7357 27.5887 91.9357 27.2087 90.3257C26.6558 88.0314 26.3475 85.685 26.2887 83.3257C26.2887 82.2257 27.0688 81.7957 28.0188 82.3257L50.2487 95.1558C55.0088 97.9058 58.8687 95.6758 58.8687 90.1558V48.3657C58.8587 42.8257 54.9987 36.146 50.2387 33.396Z" fill="#AFC3D5"/>
<path fill-rule="evenodd" clip-rule="evenodd" d="M27.2316 80.6851C27.7402 80.6954 28.2371 80.8402 28.6716 81.105L50.9116 93.9448C52.7816 95.0248 54.4716 95.2449 55.6816 94.5449C56.8916 93.8449 57.5416 92.2848 57.5416 90.1148V48.3149C57.3844 45.5524 56.5781 42.8657 55.1881 40.4732C53.7981 38.0806 51.8636 36.0492 49.5416 34.5444L9.63156 11.5444C7.76156 10.4644 6.07157 10.2448 4.86157 10.9448C3.65157 11.6448 3.00157 13.2145 3.00157 15.3745V57.1753C3.15874 59.9378 3.96505 62.6236 5.35504 65.0161C6.74503 67.4086 8.67954 69.44 11.0016 70.9448L15.5516 73.5649C16.1639 73.9521 16.6878 74.4639 17.0892 75.0669C17.4907 75.6699 17.7606 76.3507 17.8816 77.0649C18.7154 82.4254 21.58 87.2594 25.8816 90.5649C25.2857 88.1816 24.9504 85.7404 24.8816 83.2847C24.8532 82.8384 24.946 82.3925 25.1502 81.9946C25.3544 81.5968 25.6624 81.262 26.0416 81.0249C26.3814 80.8266 26.7681 80.7232 27.1616 80.7251L27.2316 80.6851ZM54.0916 97.585C52.4951 97.5344 50.9399 97.0651 49.5816 96.2246L27.5816 83.5552C27.655 85.7124 27.9465 87.8561 28.4516 89.9546C28.6375 90.5181 28.6409 91.1263 28.4614 91.6919C28.2818 92.2575 27.9285 92.7519 27.4516 93.105C26.9832 93.3759 26.4415 93.4923 25.9032 93.4385C25.3648 93.3847 24.857 93.1629 24.4516 92.8047C19.4706 89.095 16.1425 83.5806 15.1816 77.4448C15.0699 76.796 14.7115 76.2154 14.1816 75.8247L9.63156 73.1948C4.43156 70.1948 0.351562 63.1345 0.351562 57.1245V15.3247C0.351562 12.1747 1.48157 9.78499 3.53157 8.60499C5.58157 7.42499 8.22157 7.6046 10.9516 9.2046L50.8616 32.2046C56.0616 35.2046 60.1416 42.2649 60.1416 48.2749V90.0747C60.1416 93.2247 59.0116 95.6149 56.9516 96.7949C56.0849 97.3079 55.0986 97.5836 54.0916 97.5947V97.585Z" fill="#1C2A40"/>
<path fill-rule="evenodd" clip-rule="evenodd" d="M29.6106 68.676C26.632 66.8741 24.0445 64.494 22.0006 61.676L40.5406 49.3654C42.3264 52.9006 43.3098 56.7863 43.4206 60.7453C43.4206 69.5453 37.2206 73.1153 29.6006 68.7453L29.6106 68.676ZM15.8006 44.7453C15.9252 48.7743 16.9503 52.7248 18.8006 56.3059L37.3406 43.9455C35.28 41.0452 32.6498 38.5951 29.6106 36.7453C21.9906 32.3453 15.7906 35.9253 15.7906 44.7453H15.8006ZM29.6206 31.676C19.5706 25.876 11.3906 30.5955 11.3906 42.1955C11.3906 53.7955 19.5706 67.9658 29.6206 73.7658C39.6706 79.5658 47.8506 74.8453 47.8506 63.2453C47.8506 51.6453 39.7006 37.476 29.6106 31.676H29.6206Z" fill="#AFC3D5"/>
<path fill-rule="evenodd" clip-rule="evenodd" d="M23.4609 35.7664C22.3511 35.7501 21.2569 36.0293 20.2909 36.576C17.9609 37.916 16.6809 40.8259 16.6809 44.7459C16.7671 48.3001 17.6019 51.796 19.1309 55.0057L36.0709 43.7557C34.185 41.2646 31.8436 39.1542 29.1709 37.5359C27.4538 36.4598 25.4857 35.8502 23.4609 35.7664ZM18.4609 57.5965L18.021 56.6961C16.1154 52.9935 15.0694 48.9086 14.9609 44.7459C14.9609 40.1659 16.5609 36.7457 19.4509 35.0457C22.3409 33.3457 26.1309 33.7157 30.1009 36.0457C33.2467 37.9547 35.9691 40.4869 38.1009 43.4861L38.6509 44.2361L18.4609 57.6463V57.5965ZM23.3309 61.8465L40.2309 50.6258C41.7102 53.7855 42.5172 57.218 42.6009 60.7059C42.6009 64.6259 41.3209 67.5358 38.9909 68.8758C36.6609 70.2158 33.5109 69.8758 30.1109 67.8758C27.4966 66.295 25.2005 64.2402 23.3409 61.8162L23.3309 61.8465ZM35.8209 71.4461C33.4838 71.3685 31.208 70.6789 29.2209 69.4461C26.1321 67.5731 23.4522 65.097 21.3409 62.1658L20.7909 61.4158L40.9509 48.0262L41.3909 48.9363C43.2522 52.5883 44.277 56.6085 44.3909 60.7059C44.3909 65.2859 42.8009 68.7061 39.9009 70.4061C38.6779 71.0832 37.2987 71.4279 35.9009 71.4061L35.8209 71.4461ZM21.5409 30.076C24.2634 30.1848 26.9105 31.0018 29.2209 32.4461C39.0309 38.1061 47.0109 51.9257 47.0109 63.2557C47.0109 68.5357 45.2709 72.4557 42.1109 74.2557C38.9509 76.0557 34.6809 75.6261 30.1109 72.9861C20.3009 67.3261 12.3209 53.5063 12.3209 42.1863C12.3209 36.9063 14.0609 32.9863 17.2209 31.1863C18.5376 30.4423 20.0288 30.062 21.5409 30.0857V30.076ZM37.7009 77.1365C34.6654 77.0294 31.7108 76.1293 29.1309 74.5262C18.8409 68.5862 10.4609 54.0761 10.4609 42.1961C10.4609 36.2561 12.5209 31.7965 16.2509 29.6365C19.9809 27.4765 24.871 27.9361 30.021 30.9061C40.311 36.8461 48.6909 51.3559 48.6909 63.2459C48.6909 69.1859 46.6309 73.6457 42.9009 75.7957C41.3175 76.6965 39.5226 77.1599 37.7009 77.1365Z" fill="#FEFEFE"/>
</svg>
