<svg width="134" height="180" viewBox="0 0 134 180" fill="none" xmlns="http://www.w3.org/2000/svg">
    <path fill-rule="evenodd" clip-rule="evenodd" d="M115.5 47.0094L42.0698 4.60944C37.8798 2.18944 34.0697 1.87945 31.2397 3.30945L28.3597 5.05945L7.22971 18.0595C7.17283 18.0874 7.12935 18.1368 7.10874 18.1967C7.08813 18.2567 7.09208 18.3224 7.11973 18.3794C8.18973 20.6194 18.1198 41.4695 19.0598 45.3095C19.4398 46.9295 22.5598 62.8694 26.1798 81.4294C26.1815 81.4461 26.1815 81.4628 26.1798 81.4794V90.7894C26.1798 96.0094 28.0797 101.789 31.1097 106.889C31.1146 106.916 31.1146 106.943 31.1097 106.969C34.8697 126.329 38.1097 142.859 38.1097 143.289L48.9897 168.979C49.0042 169.015 49.0263 169.046 49.0543 169.072C49.0823 169.097 49.1156 169.117 49.1518 169.128C49.1881 169.14 49.2262 169.143 49.2639 169.138C49.3016 169.133 49.3377 169.12 49.3697 169.099L74.2397 154.609C74.2936 154.578 74.3349 154.529 74.3568 154.471C74.3787 154.413 74.3797 154.348 74.3597 154.289L72.5097 149.049C71.9972 146.371 71.6631 143.662 71.5097 140.939L103.2 176.199C103.247 176.24 103.307 176.263 103.37 176.263C103.432 176.263 103.493 176.24 103.54 176.199L126.69 161.899L127.05 161.679C129.78 159.959 131.46 156.479 131.46 151.569V74.7394C131.51 64.5694 124.31 52.0894 115.5 47.0094Z" fill="#F76083"/>
    <path fill-rule="evenodd" clip-rule="evenodd" d="M68.7905 134.179L103.89 173.239L125.49 159.889L127.13 161.749L125.831 159.689C127.941 158.359 129.101 155.499 129.101 151.689V74.7393C129.101 65.4792 122.331 53.7393 114.311 49.1193L40.8805 6.71923C37.5905 4.82923 34.5704 4.38925 32.3704 5.48925L10.2105 19.1392C13.4605 25.9592 20.6405 41.2393 21.4705 44.7793C21.8105 46.1993 24.1404 58.0392 28.6104 80.9893L28.6605 81.5092V90.8192C28.8743 96.0825 30.4526 101.2 33.2404 105.669L33.5605 106.469C37.1205 124.809 40.1705 140.569 40.5605 142.639L50.3805 165.809L71.5605 153.469L70.1705 149.339C69.6581 146.617 69.324 143.865 69.1705 141.099L68.8005 134.179H68.7905ZM103.49 178.749C103.113 178.749 102.741 178.669 102.396 178.516C102.052 178.363 101.743 178.139 101.49 177.859L74.9305 148.359C74.9288 148.393 74.9288 148.426 74.9305 148.459L76.7105 153.539C76.9186 154.137 76.9115 154.789 76.6906 155.382C76.4698 155.975 76.0488 156.473 75.5005 156.789L49.6905 171.789L48.4305 171.469C48.0672 171.348 47.7334 171.152 47.4509 170.894C47.1683 170.635 46.9434 170.32 46.7905 169.969L35.7905 143.759C35.7105 143.349 32.5505 127.029 28.7905 107.819C25.6476 102.691 23.8998 96.831 23.7205 90.8192V81.7292C19.3505 59.2992 16.9705 47.2393 16.6605 45.8993C16.0705 43.3593 10.1505 30.4193 4.90047 19.4593C4.61724 18.8613 4.56258 18.1803 4.74679 17.5448C4.931 16.9092 5.34135 16.3631 5.90047 16.0092L29.9005 1.20925C33.7905 -0.790748 38.4605 -0.270759 43.2105 2.47924L116.64 44.8792C126.14 50.3592 133.87 63.7492 133.87 74.7292V151.619C133.87 157.219 131.871 161.549 128.321 163.799L104.88 178.359C104.452 178.618 103.961 178.753 103.461 178.749H103.49Z" fill="#1C2A40"/>
    <path fill-rule="evenodd" clip-rule="evenodd" d="M115.43 47.0089L46.6003 7.41895L11.9902 29.1389L85.6703 67.9189L101.15 70.369L124.97 56.209C122.491 52.4904 119.236 49.352 115.43 47.0089V47.0089Z" fill="#FEBBC4"/>
    <path fill-rule="evenodd" clip-rule="evenodd" d="M86.4506 65.5794L100.671 67.8294L121.401 55.5094C119.413 52.9619 116.976 50.7996 114.211 49.1294L46.6605 10.2794L16.8805 28.9694L86.4506 65.5894V65.5794ZM101.651 72.9294L84.5405 70.0894L7.10059 29.3594L46.5505 4.60938L116.651 44.9294C120.776 47.4478 124.301 50.8367 126.98 54.8594L128.471 57.0094L101.651 72.9294Z" fill="#1C2A40"/>
    <path fill-rule="evenodd" clip-rule="evenodd" d="M107.12 83.019C107.12 83.019 77.3798 90.019 75.4698 90.749C73.8798 91.349 44.7498 114.839 34.7998 125.839L38.1898 143.319L49.0698 169.009C49.0843 169.044 49.1063 169.076 49.1343 169.101C49.1623 169.127 49.1956 169.146 49.2318 169.158C49.268 169.169 49.3063 169.172 49.344 169.167C49.3817 169.162 49.4178 169.149 49.4498 169.129L74.3198 154.639C74.3737 154.608 74.415 154.559 74.4369 154.5C74.4588 154.442 74.4598 154.378 74.4398 154.319L72.5898 149.079C72.0773 146.401 71.7432 143.691 71.5898 140.969L103.28 176.229C103.327 176.27 103.387 176.292 103.45 176.292C103.512 176.292 103.573 176.27 103.62 176.229L126.77 161.929L127.13 161.709C129.86 159.989 131.54 156.509 131.54 151.599V74.739C131.525 72.7783 131.286 70.8258 130.83 68.9189L107.12 83.019Z" fill="#1C2A40"/>
    <path d="M128.82 81.9999L111.13 92.6963L112.82 95.4913L130.51 84.7949L128.82 81.9999Z" fill="#F76083"/>
    <path d="M127.713 148.688L110.107 159.346L111.791 162.126L129.396 151.468L127.713 148.688Z" fill="#F76083"/>
    <path fill-rule="evenodd" clip-rule="evenodd" d="M92.03 61.6691L18.4601 19.1991C9.69008 14.1391 2.58008 18.1991 2.58008 28.3691V105.369C2.58008 115.489 9.69008 127.809 18.4601 132.869L26.8301 137.709C27.6448 138.24 28.3414 138.933 28.8765 139.745C29.4115 140.557 29.7736 141.471 29.9401 142.429C31.6478 153.099 37.4352 162.687 46.0801 169.169C48.4001 170.889 50.2601 169.409 49.5701 166.439C48.5468 162.198 47.9768 157.86 47.87 153.499C47.87 151.499 49.3101 150.679 51.0601 151.689L92.0601 175.349C100.83 180.409 107.94 176.349 107.94 166.179V89.1791C107.91 79.0391 100.79 66.7291 92.03 61.6691Z" fill="#F76083"/>
    <path fill-rule="evenodd" clip-rule="evenodd" d="M49.6099 148.84C50.549 148.857 51.4669 149.122 52.2699 149.61L93.2699 173.26C96.7199 175.26 99.8399 175.65 102.06 174.37C104.28 173.09 105.49 170.2 105.49 166.2V89.1996C105.49 79.8696 98.92 68.4796 90.83 63.8096L17.2599 21.3396C13.8099 19.3396 10.6899 18.9496 8.47986 20.2296C6.26986 21.5096 5.04993 24.4096 5.04993 28.3996V105.4C5.04993 114.73 11.63 126.12 19.71 130.79L28.09 135.63C29.218 136.343 30.1831 137.286 30.9222 138.398C31.6614 139.509 32.158 140.763 32.3799 142.08C33.9333 151.974 39.2414 160.889 47.2 166.97C46.1323 162.569 45.5456 158.066 45.45 153.54C45.3988 152.719 45.5695 151.899 45.9443 151.167C46.3191 150.436 46.8842 149.818 47.58 149.38C48.2054 149.016 48.9165 148.826 49.6399 148.83L49.6099 148.84ZM99.1199 180C96.1745 179.907 93.3053 179.041 90.7999 177.49L50.33 154.13C50.4675 158.104 51.0069 162.054 51.9399 165.92C52.5199 168.44 51.8599 170.62 50.1699 171.72C48.4799 172.82 46.4999 172.56 44.6199 171.16C35.4389 164.322 29.3035 154.159 27.5299 142.85C27.3073 141.637 26.6179 140.56 25.6099 139.85L17.2299 135.01C7.63986 129.48 0.129883 116.47 0.129883 105.39V28.3596C0.129883 22.5496 2.21988 18.1496 5.99988 15.9696C9.77988 13.7896 14.6399 14.1796 19.6699 17.0796L93.2399 59.5496C102.83 65.0896 110.34 78.0996 110.34 89.1696V166.17C110.34 171.98 108.25 176.38 104.47 178.57C102.845 179.513 100.999 180.006 99.1199 180V180Z" fill="#1C2A40"/>
    <path fill-rule="evenodd" clip-rule="evenodd" d="M53.9896 126.69C48.5 123.337 43.7393 118.916 39.9896 113.69L74.1697 90.9897C77.4897 97.8697 79.4896 105.23 79.4896 111.99C79.4896 128.21 68.0697 134.8 54.0197 126.69H53.9896ZM28.5197 82.5797C28.5197 89.4297 30.5796 96.9097 33.9896 103.89L68.2296 81.1497C64.4302 75.8044 59.5816 71.2893 53.9796 67.8797C39.9796 59.7697 28.5096 66.3697 28.5096 82.5797H28.5197ZM53.9896 58.4797C35.4596 47.7897 20.3896 56.4797 20.3896 77.8797C20.3896 99.2796 35.4596 125.38 53.9896 136.07C72.5196 146.76 87.5897 138.07 87.5897 116.67C87.5897 95.2697 72.5196 69.1797 53.9896 58.4897V58.4797Z" fill="#AFC3D5"/>
    <path fill-rule="evenodd" clip-rule="evenodd" d="M68.9797 142.299C64.0997 142.299 58.7198 140.689 53.1798 137.489C34.1798 126.489 18.7598 99.7995 18.7598 77.8895C18.7598 66.9395 22.5498 58.7195 29.4298 54.7495C36.3098 50.7795 45.3198 51.6095 54.7998 57.0795C73.7998 68.0795 89.2098 94.7794 89.2098 116.689C89.2098 127.689 85.4198 135.859 78.5398 139.829C75.6285 141.486 72.329 142.338 68.9797 142.299Z" fill="#FEFEFE"/>
    <path fill-rule="evenodd" clip-rule="evenodd" d="M40.79 60.5297C38.3392 60.4946 35.9232 61.1124 33.79 62.3197C28.66 65.3197 25.79 71.6297 25.79 80.2097C25.79 98.5797 38.74 121.01 54.65 130.21C62.07 134.5 68.99 135.21 74.12 132.27C79.25 129.33 82.12 122.96 82.12 114.38C82.12 96.0097 69.17 73.5797 53.26 64.3797C48.85 61.8197 44.61 60.5297 40.79 60.5297Z" fill="#F76083"/>
    <path fill-rule="evenodd" clip-rule="evenodd" d="M38.2598 81.259L54.0298 90.3591L69.7198 99.409C70.2241 99.7243 70.647 100.154 70.9545 100.663C71.2619 101.172 71.4453 101.746 71.4897 102.339C71.4897 104.026 71.4897 105.709 71.4897 107.389C71.4897 109.069 71.4897 110.736 71.4897 112.389C71.4897 113.389 70.6898 113.819 69.7198 113.269L54.0999 104.269L38.3998 95.2691C37.8945 94.9531 37.4697 94.5238 37.1591 94.0153C36.8484 93.5067 36.6603 92.9329 36.6097 92.3391C36.6097 90.6457 36.6097 88.9457 36.6097 87.2391C36.6097 85.5324 36.6097 83.8257 36.6097 82.1191C36.4897 81.0991 37.2798 80.699 38.2598 81.259Z" fill="#FEFEFE"/>
</svg>
