<svg width="735" height="8" viewBox="0 0 735 8" fill="none" xmlns="http://www.w3.org/2000/svg">
<path fill-rule="evenodd" clip-rule="evenodd" d="M22.5596 0.0498047L14.0098 7.94981H0.820312L9.37012 0.0498047H22.5596Z" fill="#D3D8E3"/>
<path fill-rule="evenodd" clip-rule="evenodd" d="M48.9502 0.0498047L40.4004 7.94981H27.2002L35.75 0.0498047H48.9502Z" fill="#D3D8E3"/>
<path fill-rule="evenodd" clip-rule="evenodd" d="M75.3301 0.0498047L66.7803 7.94981H53.5898L62.1396 0.0498047H75.3301Z" fill="#D3D8E3"/>
<path fill-rule="evenodd" clip-rule="evenodd" d="M101.72 0.0498047L93.1699 7.94981H79.9805L88.5303 0.0498047H101.72Z" fill="#D3D8E3"/>
<path fill-rule="evenodd" clip-rule="evenodd" d="M128.11 0.0498047L119.56 7.94981H106.36L114.91 0.0498047H128.11Z" fill="#D3D8E3"/>
<path fill-rule="evenodd" clip-rule="evenodd" d="M154.49 0.0498047L145.94 7.94981H132.75L141.3 0.0498047H154.49Z" fill="#D3D8E3"/>
<path fill-rule="evenodd" clip-rule="evenodd" d="M180.88 0.0498047L172.33 7.94981H159.13L167.68 0.0498047H180.88Z" fill="#D3D8E3"/>
<path fill-rule="evenodd" clip-rule="evenodd" d="M207.26 0.0498047L198.71 7.94981H185.52L194.07 0.0498047H207.26Z" fill="#D3D8E3"/>
<path fill-rule="evenodd" clip-rule="evenodd" d="M233.65 0.0498047L225.1 7.94981H211.91L220.46 0.0498047H233.65Z" fill="#D3D8E3"/>
<path fill-rule="evenodd" clip-rule="evenodd" d="M260.04 0.0498047L251.49 7.94981H238.29L246.84 0.0498047H260.04Z" fill="#D3D8E3"/>
<path fill-rule="evenodd" clip-rule="evenodd" d="M286.42 0.0498047L277.87 7.94981H264.68L273.23 0.0498047H286.42Z" fill="#D3D8E3"/>
<path fill-rule="evenodd" clip-rule="evenodd" d="M312.81 0.0498047L304.26 7.94981H291.07L299.61 0.0498047H312.81Z" fill="#D3D8E3"/>
<path fill-rule="evenodd" clip-rule="evenodd" d="M339.19 0.0498047L330.64 7.94981H317.45L326 0.0498047H339.19Z" fill="#D3D8E3"/>
<path fill-rule="evenodd" clip-rule="evenodd" d="M365.58 0.0498047L357.03 7.94981H343.84L352.39 0.0498047H365.58Z" fill="#D3D8E3"/>
<path fill-rule="evenodd" clip-rule="evenodd" d="M391.97 0.0498047L383.42 7.94981H370.22L378.77 0.0498047H391.97Z" fill="#D3D8E3"/>
<path fill-rule="evenodd" clip-rule="evenodd" d="M418.35 0.0498047L409.8 7.94981H396.61L405.16 0.0498047H418.35Z" fill="#D3D8E3"/>
<path fill-rule="evenodd" clip-rule="evenodd" d="M444.74 0.0498047L436.19 7.94981H423L431.55 0.0498047H444.74Z" fill="#D3D8E3"/>
<path fill-rule="evenodd" clip-rule="evenodd" d="M471.12 0.0498047L462.57 7.94981H449.38L457.93 0.0498047H471.12Z" fill="#D3D8E3"/>
<path fill-rule="evenodd" clip-rule="evenodd" d="M497.51 0.0498047L488.96 7.94981H475.77L484.32 0.0498047H497.51Z" fill="#D3D8E3"/>
<path fill-rule="evenodd" clip-rule="evenodd" d="M523.9 0.0498047L515.35 7.94981H502.15L510.7 0.0498047H523.9Z" fill="#D3D8E3"/>
<path fill-rule="evenodd" clip-rule="evenodd" d="M550.28 0.0498047L541.73 7.94981H528.54L537.09 0.0498047H550.28Z" fill="#D3D8E3"/>
<path fill-rule="evenodd" clip-rule="evenodd" d="M576.67 0.0498047L568.12 7.94981H554.92L563.48 0.0498047H576.67Z" fill="#D3D8E3"/>
<path fill-rule="evenodd" clip-rule="evenodd" d="M603.06 0.0498047L594.5 7.94981H581.31L589.86 0.0498047H603.06Z" fill="#D3D8E3"/>
<path fill-rule="evenodd" clip-rule="evenodd" d="M629.44 0.0498047L620.89 7.94981H607.7L616.25 0.0498047H629.44Z" fill="#D3D8E3"/>
<path fill-rule="evenodd" clip-rule="evenodd" d="M655.83 0.0498047L647.28 7.94981H634.08L642.63 0.0498047H655.83Z" fill="#D3D8E3"/>
<path fill-rule="evenodd" clip-rule="evenodd" d="M682.21 0.0498047L673.66 7.94981H660.47L669.02 0.0498047H682.21Z" fill="#D3D8E3"/>
<path fill-rule="evenodd" clip-rule="evenodd" d="M708.6 0.0498047L700.05 7.94981H686.85L695.41 0.0498047H708.6Z" fill="#D3D8E3"/>
<path fill-rule="evenodd" clip-rule="evenodd" d="M734.99 0.0498047L726.43 7.94981H713.24L721.79 0.0498047H734.99Z" fill="#D3D8E3"/>
</svg>
