<svg width="64" height="88" viewBox="0 0 64 88" fill="none" xmlns="http://www.w3.org/2000/svg">
<path fill-rule="evenodd" clip-rule="evenodd" d="M49.2407 75.4398C48.3907 75.4398 47.5603 75.4399 46.7603 75.3299V70.7596C47.5703 70.8196 48.4007 70.8597 49.2407 70.8597C52.4953 70.9151 55.7315 70.3591 58.7808 69.2201L58.9204 69.16V72.89C58.5104 73.65 55.1707 75.4501 49.2407 75.4501V75.4398ZM32.1108 82.89C26.1708 82.89 22.8402 81.0899 22.4302 80.3299V76.3299L22.5708 76.39C25.6201 77.529 28.8562 78.085 32.1108 78.0296C35.3655 78.085 38.6006 77.529 41.6499 76.39L41.7905 76.3299V80.3299C41.3805 81.0899 38.0408 82.89 32.1108 82.89ZM5.29053 73.2499V69.4999L5.43018 69.5599C8.47948 70.6989 11.7156 71.2554 14.9702 71.2001C15.8102 71.2001 16.6374 71.1666 17.4507 71.1V75.68C16.6407 75.76 15.8102 75.7899 14.9702 75.7899C9.03021 75.7899 5.70053 73.9898 5.29053 73.2298V73.2499ZM14.9702 41.5399C20.7102 41.5399 24.0201 43.2199 24.6001 44.0199C24.0201 44.8199 20.7102 46.4999 14.9702 46.4999C9.23022 46.4999 5.92033 44.8199 5.34033 44.0199C5.92033 43.2199 9.23022 41.5399 14.9702 41.5399ZM41.7407 61.0296H41.6802H41.6304L41.5601 61.0799H41.5005L41.4204 61.1297H41.3501L41.2603 61.1898H41.1899L41.0903 61.2499H41.0103L40.8999 61.3099H40.8208L40.6899 61.3797H40.6108L40.4399 61.4598H40.3901L40.1499 61.5697L39.9399 61.66H39.8501L39.6704 61.7298H39.5503L39.3804 61.7899H39.2505L39.0708 61.85H38.9302L38.7505 61.91H38.6001L38.4106 61.9598H38.2505L38.0503 62.0096H37.8804H37.6802H37.5103H37.3003H37.1206H36.8999H36.7104H36.48H36.2808H36.0405H35.8403H35.5903H35.3804H35.1206H34.9106H34.6401H34.4204H34.1304H30.52H30.23H30.02H29.7505H29.5405H29.2808H29.0708H28.8208H28.6206H28.3804H28.1802H27.9507H27.7603H27.5405H27.3608H27.1499H26.98H26.7808H26.6108L26.4106 61.9598H26.2505L26.0601 61.91H25.9106L25.73 61.85H25.5903L25.4106 61.7899H25.2808L25.1108 61.7298H24.9907L24.8101 61.66H24.7202L24.5103 61.5697L24.27 61.4598H24.2202L24.0503 61.3797H23.9702L23.8403 61.3099H23.7603L23.6499 61.2499H23.5708L23.4702 61.1898H23.3999L23.3101 61.1297H23.2407L23.1606 61.0799H23.1001L23.0308 61.0296H22.98H22.9204C23.5004 60.2296 26.8203 58.5497 32.5503 58.5497C38.2803 58.5497 41.5502 60.2296 42.1802 61.0296H41.7407ZM49.2407 31.6097C54.9807 31.6097 58.2906 33.2897 58.8706 34.0897C58.2906 34.8897 54.9807 36.5697 49.2407 36.5697C43.5007 36.5697 40.1908 34.8897 39.6108 34.0897C40.1908 33.2897 43.5007 31.6097 49.2407 31.6097ZM22.4204 66.7899L22.5601 66.85C25.6094 67.989 28.8455 68.5454 32.1001 68.4901C35.3547 68.5454 38.5908 67.989 41.6401 66.85L41.7808 66.7899V70.5199C41.3808 71.2799 38.0401 73.0897 32.1001 73.0897C26.1601 73.0897 22.8204 71.2899 22.4204 70.5199V66.7899ZM5.29053 49.7899L5.43018 49.85C8.47948 50.989 11.7156 51.5454 14.9702 51.4901C18.2248 51.5454 21.461 50.989 24.5103 49.85L24.6499 49.7899V53.7899C24.2499 54.5499 20.9102 56.3597 14.9702 56.3597C9.03021 56.3597 5.69053 54.5599 5.29053 53.7899V49.7899ZM5.29053 59.6L5.43018 59.66C8.47948 60.799 11.7156 61.355 14.9702 61.2997C15.8102 61.2997 16.6404 61.3 17.4604 61.2001C17.4604 61.2701 17.4604 61.3498 17.4604 61.4198V66.1498C16.6504 66.2198 15.82 66.2596 14.98 66.2596C9.02998 66.2596 5.70029 64.4598 5.30029 63.6898V59.5897L5.29053 59.6ZM58.9302 63.3299C58.5302 64.0899 55.1905 65.89 49.2505 65.89C48.4005 65.89 47.57 65.8896 46.77 65.7796V61.4198C46.77 61.3398 46.77 61.2701 46.77 61.2001C47.58 61.2601 48.4103 61.2997 49.2603 61.2997C52.5149 61.355 55.751 60.799 58.8003 59.66L58.9399 59.6V63.3299H58.9302ZM58.9302 53.7699C58.5302 54.5299 55.1905 56.3397 49.2505 56.3397C43.3105 56.3397 39.9708 54.5399 39.5708 53.7699V49.6698L39.7104 49.7298C42.7598 50.8689 45.9959 51.4253 49.2505 51.37C52.5051 51.4253 55.7412 50.8689 58.7905 49.7298L58.9302 49.6698V53.7699ZM58.9302 43.8397C58.5302 44.5997 55.1905 46.41 49.2505 46.41C43.3105 46.41 39.9708 44.6097 39.5708 43.8397V39.8397L39.7104 39.8998C42.7598 41.0388 45.9959 41.5952 49.2505 41.5399C52.5051 41.5952 55.7412 41.0388 58.7905 39.8998L58.9302 39.8397V43.8397ZM58.7905 28.2997C55.7412 27.1606 52.5051 26.6047 49.2505 26.66C45.9959 26.6047 42.7598 27.1606 39.7104 28.2997C35.7104 29.9197 34.7904 32.1597 34.6304 33.6097V53.7C33.8204 53.64 32.9899 53.6 32.1499 53.6C31.3099 53.6 30.4804 53.6 29.6704 53.7V43.4999C29.5104 42.0499 28.5503 39.7998 24.5903 38.1898C21.541 37.0508 18.3049 36.4943 15.0503 36.5497C11.7957 36.4943 8.55956 37.0508 5.51025 38.1898C1.07025 39.9998 0.399902 42.6099 0.399902 43.9999V73.2997C0.399902 74.6897 1.06025 77.2997 5.51025 79.1097C8.55956 80.2487 11.7957 80.8052 15.0503 80.7499C15.897 80.7499 16.7272 80.7164 17.5405 80.6498C17.6305 82.0898 18.4701 84.4798 22.6401 86.1898C25.6894 87.3288 28.9256 87.8853 32.1802 87.8299C35.4348 87.8853 38.6709 87.3288 41.7202 86.1898C46.1602 84.3798 46.8306 81.7697 46.8306 80.3797V80.2796C47.6439 80.3396 48.4701 80.3731 49.3101 80.3797C52.5647 80.4351 55.8008 79.8791 58.8501 78.7401C63.2901 76.9301 63.9604 74.32 63.9604 72.93V34.0697C63.8904 32.7097 63.2208 30.0999 58.7808 28.2899L58.7905 28.2997Z" fill="#FEFEFE"/>
<path fill-rule="evenodd" clip-rule="evenodd" d="M4.47998 26.1401C4.30129 25.9626 4.15976 25.7516 4.06299 25.519C3.96622 25.2865 3.9165 25.037 3.9165 24.7852C3.9165 24.5333 3.96622 24.2838 4.06299 24.0513C4.15976 23.8187 4.30129 23.6077 4.47998 23.4302C4.6575 23.2515 4.86853 23.1095 5.10107 23.0127C5.33362 22.9159 5.58357 22.8662 5.83545 22.8662C6.08733 22.8662 6.3363 22.9159 6.56885 23.0127C6.8014 23.1095 7.01242 23.2515 7.18994 23.4302L12.9907 29.23V1.91016C12.9907 1.40359 13.1911 0.917765 13.5493 0.55957C13.9075 0.201376 14.3933 0 14.8999 0C15.4065 0 15.8923 0.201376 16.2505 0.55957C16.6087 0.917765 16.8101 1.40359 16.8101 1.91016V29.23L22.6108 23.4302C22.7884 23.2515 22.9994 23.1095 23.2319 23.0127C23.4645 22.9159 23.7135 22.8662 23.9653 22.8662C24.2172 22.8662 24.4662 22.9159 24.6987 23.0127C24.9313 23.1095 25.1433 23.2515 25.3208 23.4302C25.4995 23.6077 25.641 23.8187 25.7378 24.0513C25.8346 24.2838 25.8843 24.5333 25.8843 24.7852C25.8843 25.037 25.8346 25.2865 25.7378 25.519C25.641 25.7516 25.4995 25.9626 25.3208 26.1401L16.3208 35.1401L16.1899 35.2598L16.1206 35.3101L16.0005 35.3799H15.9204C15.6669 35.4985 15.3908 35.5601 15.1108 35.5601C14.8309 35.5605 14.5537 35.4988 14.3003 35.3799H14.2202L14.1001 35.3101L14.0308 35.2598L13.8999 35.1401L4.47998 26.1401Z" fill="#FEFEFE"/>
</svg>
