<svg width="66" height="91" viewBox="0 0 66 91" fill="none" xmlns="http://www.w3.org/2000/svg">
<path fill-rule="evenodd" clip-rule="evenodd" d="M43.6099 63.3213C49.9702 61.1428 55.4921 57.0328 59.4038 51.5649C63.3156 46.0971 65.4222 39.5443 65.4302 32.8213C65.4196 24.2793 62.0211 16.0904 55.981 10.0503C49.9408 4.01016 41.7525 0.612147 33.2105 0.601562C24.6684 0.612147 16.4791 4.01016 10.439 10.0503C4.39886 16.0904 1.00035 24.2793 0.989767 32.8213C0.984365 37.5234 2.01038 42.1696 3.99563 46.4321C5.98088 50.6946 8.87726 54.4701 12.48 57.4917C12.8516 57.8025 13.317 57.9791 13.8013 57.9937C14.2855 58.0082 14.7604 57.8593 15.1499 57.5713L31.0601 45.7017V62.9014C31.0601 63.4716 31.2868 64.0187 31.69 64.4219C32.0932 64.8251 32.6403 65.0513 33.2105 65.0513C34.7631 65.0528 36.3134 64.9429 37.8501 64.7217L33.1597 72.8413L25.0005 58.7017C24.7159 58.2092 24.2469 57.8492 23.6978 57.7012C23.1486 57.5531 22.5634 57.629 22.0698 57.9116C21.5774 58.1962 21.2179 58.6642 21.0698 59.2134C20.9218 59.7625 20.9972 60.3477 21.2798 60.8413L30.6802 77.1313L29.7896 78.6616C29.1421 77.6626 28.2767 76.8231 27.2583 76.2065C26.2399 75.59 25.095 75.2122 23.9097 75.1016C22.7248 74.9933 21.5311 75.1546 20.4175 75.5737C19.3039 75.9929 18.2995 76.6588 17.48 77.5215C16.6611 78.3853 16.0483 79.4232 15.688 80.5576C15.3278 81.692 15.2294 82.8933 15.3999 84.0713C15.5715 85.2497 16.0077 86.3743 16.6763 87.3599C17.3448 88.3454 18.2287 89.1661 19.2603 89.7612C21.0723 90.7963 23.2195 91.0735 25.2349 90.5322C27.2503 89.9909 28.9704 88.6753 30.02 86.8716L33.1704 81.4116L36.3198 86.8716C37.3711 88.6736 39.0917 89.987 41.107 90.5264C43.1222 91.0658 45.2688 90.7874 47.0796 89.7515C48.8876 88.7058 50.2066 86.9854 50.7466 84.9678C51.2866 82.9502 51.0044 80.8007 49.9605 78.9917C49.2872 77.8226 48.3248 76.8462 47.1656 76.1562C46.0063 75.4663 44.689 75.0855 43.3404 75.0513C41.9928 75.0163 40.6588 75.3284 39.4663 75.957C38.2739 76.5856 37.2624 77.5101 36.5298 78.6416L35.6402 77.1016L43.6402 63.2915L43.6099 63.3213ZM14.7603 38.5913C14.3901 37.4122 14.1358 36.2001 14.0005 34.9717H17.4605C18.0307 34.9717 18.5768 34.745 18.98 34.3418C19.3832 33.9386 19.6099 33.3915 19.6099 32.8213C19.6099 32.2511 19.3832 31.7045 18.98 31.3013C18.5768 30.8981 18.0307 30.6714 17.4605 30.6714H14.0005C14.4951 26.3173 16.4507 22.2597 19.5493 19.1611C22.6479 16.0625 26.706 14.1059 31.0601 13.6113V17.0713C31.0601 17.6415 31.2868 18.1886 31.69 18.5918C32.0932 18.995 32.6403 19.2217 33.2105 19.2217C33.7807 19.2217 34.3268 18.995 34.73 18.5918C35.1332 18.1886 35.3599 17.6415 35.3599 17.0713V13.6113C39.714 14.1059 43.772 16.0625 46.8706 19.1611C49.9692 22.2597 51.9258 26.3173 52.4204 30.6714H48.9605C48.3903 30.6714 47.8432 30.8981 47.44 31.3013C47.0368 31.7045 46.8101 32.2511 46.8101 32.8213C46.8101 33.3915 47.0368 33.9386 47.44 34.3418C47.8432 34.745 48.3903 34.9717 48.9605 34.9717H52.4204C51.9258 39.3258 49.9692 43.3833 46.8706 46.4819C43.772 49.5805 39.714 51.5367 35.3599 52.0312V41.4116C35.3573 40.8422 35.1297 40.2967 34.7271 39.894C34.3244 39.4914 33.7799 39.2639 33.2105 39.2612H14.8501C14.8536 39.0307 14.8203 38.8013 14.7505 38.5815L14.7603 38.5913ZM12.3501 43.5913H26.7398L14.3296 52.8516C12.7906 50.0199 12.0964 46.8058 12.3296 43.5913H12.3501ZM35.3501 56.3813C41.2176 55.8384 46.6713 53.1259 50.6441 48.7739C54.6168 44.422 56.8223 38.7441 56.8296 32.8516C56.8243 26.5861 54.3332 20.5788 49.9029 16.1484C45.4725 11.7181 39.4652 9.22698 33.1997 9.22168C26.9343 9.22698 20.9269 11.7181 16.4966 16.1484C12.0663 20.5788 9.57514 26.5861 9.56985 32.8516C9.57074 35.0295 9.87401 37.1968 10.4702 39.2915C8.78024 39.2415 8.01965 40.5416 8.11965 42.1016C8.11965 42.7416 8.01004 43.7314 8.02004 44.9414C6.19998 41.1715 5.25967 37.0378 5.27004 32.8516C5.29115 25.4532 8.23977 18.3638 13.4712 13.1323C18.7027 7.90088 25.7916 4.95275 33.19 4.93164C40.5883 4.95275 47.6773 7.90088 52.9087 13.1323C58.1402 18.3638 61.0888 25.4532 61.1099 32.8516C61.0918 39.8809 58.4308 46.646 53.6548 51.8037C48.8788 56.9614 42.3369 60.1341 35.3296 60.6914V56.3813H35.3501ZM24.1099 86.3813C23.4254 86.5651 22.7019 86.5418 22.0308 86.314C21.3596 86.0861 20.7715 85.6641 20.3404 85.1016C19.9029 84.5368 19.6445 83.8539 19.5982 83.1411C19.5518 82.4283 19.7189 81.7181 20.0796 81.1016C20.5563 80.2815 21.3382 79.6834 22.2544 79.438C23.1707 79.1925 24.1474 79.3195 24.9702 79.7915C25.584 80.1456 26.0788 80.6741 26.3921 81.3096C26.7054 81.9451 26.8228 82.6589 26.73 83.3613C26.6395 84.0646 26.342 84.7252 25.8755 85.2593C25.4091 85.7934 24.7946 86.177 24.1099 86.3613V86.3813ZM41.3404 79.8213C42.1638 79.352 43.1387 79.2264 44.0542 79.4717C44.9697 79.7169 45.7515 80.3133 46.23 81.1313C46.4675 81.5382 46.6213 81.9881 46.6831 82.4551C46.7449 82.9221 46.7138 83.397 46.5904 83.8516C46.3396 84.7645 45.7393 85.5416 44.9195 86.0151C44.0997 86.4887 43.1266 86.6203 42.2105 86.3813C41.7564 86.26 41.331 86.0503 40.9585 85.7637C40.5861 85.477 40.2731 85.1192 40.0396 84.7114C39.5712 83.8911 39.4465 82.9191 39.6919 82.0068C39.9373 81.0946 40.5334 80.316 41.3501 79.8413L41.3404 79.8213Z" fill="#FEFEFE"/>
<path fill-rule="evenodd" clip-rule="evenodd" d="M23.4301 28.8777L32.02 34.6077C32.4568 34.8977 32.984 35.0184 33.5034 34.9466C34.0227 34.8748 34.4986 34.6157 34.8403 34.2181L43.4301 24.2181C43.7997 23.786 43.9829 23.225 43.9399 22.658C43.9191 22.3764 43.8432 22.1016 43.7163 21.8494C43.5893 21.5972 43.4135 21.3722 43.1997 21.1878C42.7676 20.8182 42.2071 20.6351 41.6401 20.678C41.3585 20.6988 41.0837 20.7747 40.8315 20.9017C40.5793 21.0286 40.3548 21.2039 40.1704 21.4178L32.8198 29.9979L25.8198 25.3279C25.5834 25.1691 25.3179 25.0586 25.0385 25.0032C24.7591 24.9479 24.472 24.9489 24.1928 25.0057C23.9137 25.0624 23.6482 25.1737 23.4126 25.3338C23.177 25.4939 22.9754 25.6992 22.8198 25.9378C22.5178 26.4106 22.4129 26.9828 22.5268 27.532C22.6408 28.0813 22.965 28.5641 23.4301 28.8777Z" fill="#FEFEFE"/>
</svg>
