<svg width="10" height="13" viewBox="0 0 10 13"  xmlns="http://www.w3.org/2000/svg">
<path fill-rule="evenodd" clip-rule="evenodd" d="M1.57031 0.609802H8.14014C8.55572 0.612424 8.95369 0.778705 9.24756 1.07257C9.54142 1.36644 9.70734 1.76423 9.70996 2.17981V10.9998C9.70734 11.4154 9.54142 11.8132 9.24756 12.1071C8.95369 12.4009 8.55572 12.5672 8.14014 12.5698H1.57031C1.15473 12.5672 0.756756 12.4009 0.462891 12.1071C0.169025 11.8132 0.00262204 11.4154 0 10.9998V2.13983C0.00262204 1.72425 0.169025 1.3264 0.462891 1.03253C0.756756 0.738666 1.15473 0.572446 1.57031 0.569824V0.609802ZM2.28027 2.89984C2.1291 2.89984 1.98385 2.95988 1.87695 3.06677C1.77006 3.17367 1.70996 3.31861 1.70996 3.46979C1.70996 3.62096 1.77006 3.76597 1.87695 3.87286C1.98385 3.97976 2.1291 4.03979 2.28027 4.03979H4.57031C4.72149 4.03979 4.86625 3.97976 4.97314 3.87286C5.08004 3.76597 5.14014 3.62096 5.14014 3.46979C5.14014 3.31861 5.08004 3.17367 4.97314 3.06677C4.86625 2.95988 4.72149 2.89984 4.57031 2.89984H2.28027ZM5.14014 8.61981C5.29131 8.61981 5.43607 8.55978 5.54297 8.45288C5.64986 8.34598 5.70996 8.20098 5.70996 8.0498C5.70996 7.89863 5.64986 7.75369 5.54297 7.64679C5.43607 7.53989 5.29131 7.4798 5.14014 7.4798H2.33008C2.1789 7.4798 2.03414 7.53989 1.92725 7.64679C1.82035 7.75369 1.76025 7.89863 1.76025 8.0498C1.76025 8.20098 1.82035 8.34598 1.92725 8.45288C2.03414 8.55978 2.1789 8.61981 2.33008 8.61981H5.14014ZM7.43018 6.32983C7.58135 6.32983 7.72611 6.26974 7.83301 6.16284C7.9399 6.05595 8 5.911 8 5.75983C8 5.60865 7.9399 5.46365 7.83301 5.35675C7.72611 5.24985 7.58135 5.18982 7.43018 5.18982H2.33008C2.1789 5.18982 2.03414 5.24985 1.92725 5.35675C1.82035 5.46365 1.76025 5.60865 1.76025 5.75983C1.76025 5.911 1.82035 6.05595 1.92725 6.16284C2.03414 6.26974 2.1789 6.32983 2.33008 6.32983H7.43018Z" />
</svg>
