<svg width="55" height="55" viewBox="0 0 55 55" fill="none" xmlns="http://www.w3.org/2000/svg">
<path fill-rule="evenodd" clip-rule="evenodd" d="M38.5472 45.8803H53.1518V53.1827H38.5472V45.8803ZM11.8132 39.3337C11.1582 39.3169 10.529 39.0745 10.032 38.6474C9.17605 37.9997 8.28929 34.684 7.71867 33.535C8.18866 33.4294 8.64617 33.2743 9.08353 33.0724L13.2629 31.4531C14.034 31.1832 18.568 29.348 18.8842 29.348H33.4888C33.9052 29.348 34.576 30.335 34.7765 30.6357L13.4094 38.9019C12.8995 39.1334 12.3551 39.2793 11.7978 39.3337H11.8132ZM6.12252 29.348C6.48494 30.1191 6.72398 31.0521 7.08639 31.8155L11.8209 30.0035C12.3405 29.8429 12.8399 29.6229 13.3091 29.348H6.12252ZM45.5256 26.5566C45.595 25.693 45.8495 26.1248 45.8495 24.0891V15.4914L48.1165 21.2746C48.7103 22.7551 49.2809 24.4515 47.677 25.585C46.983 25.9557 46.2642 26.2778 45.5256 26.5489V26.5566ZM27.1658 20.3261C27.1694 21.1565 27.3872 21.9718 27.7981 22.6934L31.268 26.7417C31.5343 26.9743 31.7771 27.2326 31.9928 27.5128H7.08639C4.94274 27.5128 1.8275 27.9523 1.8275 24.4284V4.9967C1.79232 4.58278 1.84796 4.16618 1.99053 3.776C2.1331 3.38581 2.35914 3.03146 2.65288 2.73772C2.94663 2.44397 3.30098 2.2179 3.69117 2.07534C4.08135 1.93277 4.49797 1.87713 4.91189 1.91231H40.6677C41.5499 1.83771 42.4257 2.11489 43.1044 2.68341C43.9526 3.53161 43.8755 4.22564 43.8755 5.22807V25.1609C43.4051 24.8448 36.604 17.9435 36.0103 17.3497C34.4681 15.8075 32.8025 14.8976 30.4352 15.6995C29.4827 16.0499 28.6574 16.6783 28.0662 17.5032C27.475 18.3281 27.1452 19.3116 27.1195 20.3261H27.1658ZM47.3531 13.9877L50.291 21.6987C51.3705 24.7831 49.6664 27.2969 46.7902 28.0988L50.1676 31.43L48.7488 32.8025C48.4327 32.3244 34.175 18.1054 33.7664 17.8278C33.4058 17.5945 33.0006 17.4391 32.5765 17.3715C32.1524 17.304 31.7189 17.3257 31.3037 17.4353C30.8885 17.5449 30.5008 17.7399 30.1653 18.008C29.8299 18.2761 29.5541 18.6113 29.3557 18.9921C28.3147 21.3054 30.3736 22.8476 30.9673 23.6187L35.5168 28.5229C35.7558 28.7851 35.7944 28.9085 36.0488 29.1707C36.4729 29.6102 37.591 30.5817 37.591 31.1832C37.591 31.7847 34.7071 35.8098 36.6117 41.0764C37.0281 42.2253 37.9534 43.7213 38.0228 43.9603H53.1595V24.3898C53.2172 22.1443 52.573 19.9366 51.3166 18.0745C50.1087 16.6045 48.786 15.2328 47.3608 13.9723L47.3531 13.9877ZM0 4.21793V24.9373C0.0256902 25.8859 0.349373 26.8023 0.925139 27.5566C1.5009 28.3109 2.29953 28.8648 3.20777 29.1398C3.97887 29.3634 4.02512 29.1398 4.30272 29.8723C4.89646 31.4145 7.3871 38.231 8.05796 39.218C8.56683 39.9761 9.30026 40.5558 10.1553 40.8759C12.1833 41.647 13.9029 40.7603 15.8923 39.966L34.8999 32.6637C34.391 34.8613 33.9052 35.2469 34.1288 38.2542C34.5143 43.22 36.6117 44.3073 36.6117 45.757V54.0308C36.6123 54.262 36.6881 54.4866 36.8276 54.6709C36.9553 54.8448 37.1465 54.9612 37.3597 54.9947H54.1157C54.2313 55.0083 54.3486 54.9955 54.4586 54.9573C54.5687 54.9191 54.6686 54.8565 54.751 54.7741C54.8334 54.6918 54.896 54.5918 54.9342 54.4818C54.9724 54.3717 54.9852 54.2545 54.9716 54.1388V23.2949C54.8687 20.8641 54.0297 18.5219 52.5657 16.5786C51.7946 15.5299 48.1628 12.0291 46.8905 10.7645C45.2943 9.16837 45.8186 9.80067 45.8418 4.93505C45.8418 2.13596 43.7907 0 41.5468 0H4.18706C3.10149 0.0755038 2.0798 0.540893 1.31033 1.31036C0.540869 2.07982 0.0755038 3.10149 0 4.18706V4.21793Z" fill="#1C2A40"/>
<path fill-rule="evenodd" clip-rule="evenodd" d="M5.5839 5.93812C5.5839 5.69137 5.66102 5.61427 5.90777 5.61427H10.5344C11.1358 5.61427 10.9662 6.44704 10.9662 7.3338H9.13868V9.26927H10.9662C10.9662 11.4977 11.691 10.9888 6.02343 10.9888C5.42198 10.9888 5.59162 10.156 5.59162 9.26927C7.82009 9.26927 7.41912 9.68565 7.41912 7.3338H5.59162V5.93812H5.5839ZM3.64844 5.93812V10.665C3.70165 11.3011 4.00008 11.8916 4.48067 12.3118C4.96126 12.7319 5.58639 12.9488 6.22393 12.9165H10.303C10.6441 12.9272 10.9838 12.868 11.3011 12.7423C11.6184 12.6167 11.9067 12.4273 12.148 12.186C12.3893 11.9447 12.5786 11.6565 12.7043 11.3392C12.8299 11.0219 12.8892 10.6822 12.8785 10.3411V6.26196C12.9107 5.62442 12.6939 4.99935 12.2737 4.51876C11.8536 4.03817 11.263 3.73974 10.6269 3.68652H5.92319C5.33043 3.70724 4.76723 3.95044 4.34569 4.36768C3.92416 4.78493 3.67521 5.34561 3.64844 5.93812Z" fill="#1C2A40"/>
<path fill-rule="evenodd" clip-rule="evenodd" d="M21.043 23.0097H24.4821C24.7288 23.0097 24.8059 22.9325 24.8059 22.6858V21.0742H21.0507L21.043 23.0097Z" fill="#1C2A40"/>
<path fill-rule="evenodd" clip-rule="evenodd" d="M4.51132 22.6858C4.51132 22.9325 4.58842 23.0097 4.83517 23.0097H8.23571V21.0742H4.48047L4.51132 22.6858Z" fill="#1C2A40"/>
<path d="M8.26697 15.5996H4.51172V17.4271H8.26697V15.5996Z" fill="#1C2A40"/>
<path d="M24.7982 15.5996H21.043V17.4271H24.7982V15.5996Z" fill="#1C2A40"/>
<path fill-rule="evenodd" clip-rule="evenodd" d="M15.5702 17.45H19.3255V15.9078C19.3255 15.6611 19.2483 15.584 19.0016 15.584H15.5625L15.5702 17.45Z" fill="#1C2A40"/>
<path d="M13.743 15.5996H10.0957V17.4271H13.743V15.5996Z" fill="#1C2A40"/>
<path fill-rule="evenodd" clip-rule="evenodd" d="M31.1367 7.42687C33.558 7.42687 33.0722 7.97433 33.0722 4.85138C33.0722 4.35017 32.409 4.52753 31.1367 4.52753V7.42687Z" fill="#1C2A40"/>
<path fill-rule="evenodd" clip-rule="evenodd" d="M38.4414 7.11665C38.4414 7.59473 38.9426 7.44054 40.053 7.44054C40.6082 7.44054 40.3768 6.38412 40.3768 4.86505C40.3768 4.36384 39.7137 4.54121 38.4414 4.54121V7.11665Z" fill="#1C2A40"/>
<path fill-rule="evenodd" clip-rule="evenodd" d="M34.7852 7.11665C34.7852 7.59473 35.2864 7.44054 36.3967 7.44054C36.9519 7.44054 36.7206 6.38412 36.7206 4.86505C36.7206 4.36384 36.0575 4.54121 34.7852 4.54121V7.11665Z" fill="#1C2A40"/>
<path d="M29.3177 4.54199H27.4902V7.44132H29.3177V4.54199Z" fill="#1C2A40"/>
<path fill-rule="evenodd" clip-rule="evenodd" d="M40.2598 47.9161V49.5277H42.1644C42.1644 47.2144 42.5268 47.5923 40.5528 47.5923C40.3369 47.5923 40.2598 47.6693 40.2598 47.9161Z" fill="#1C2A40"/>
</svg>
