<svg width="46" height="55" viewBox="0 0 46 55" fill="none" xmlns="http://www.w3.org/2000/svg">
<path fill-rule="evenodd" clip-rule="evenodd" d="M38.7785 1.63946C40.1546 1.63946 42.853 1.36267 43.691 2.09301C43.8672 2.25251 44.0081 2.44704 44.1047 2.66415C44.2014 2.88126 44.2516 3.11618 44.2522 3.35382V51.664C44.2521 51.8888 44.2072 52.1113 44.12 52.3186C44.0329 52.5258 43.9053 52.7136 43.7448 52.871C43.3721 53.1813 42.9072 53.3597 42.4225 53.3784C41.3308 53.4552 39.9086 53.3784 38.7785 53.3784C39.0475 52.8771 39.2294 52.3338 39.3166 51.7716C42.9837 51.7716 42.3918 52.2867 42.3918 47.9277C42.3918 47.0436 40.785 47.0897 40.785 47.9277V50.0726H39.2474V4.9452H40.785V44.6911C40.785 44.9042 40.8697 45.1085 41.0203 45.2592C41.171 45.4099 41.3753 45.4945 41.5884 45.4945C41.8014 45.4945 42.0058 45.4099 42.1564 45.2592C42.3071 45.1085 42.3918 44.9042 42.3918 44.6911V4.11491C42.3918 2.93099 40.8542 3.25388 39.3166 3.25388C39.2294 2.6917 39.0475 2.14843 38.7785 1.64715V1.63946ZM32.4437 0.778427C32.4437 2.80032 37.5946 0.240262 37.5946 3.35382V51.664C37.5946 52.7941 36.6797 53.3784 35.5573 53.3784H2.06154C1.53108 53.3784 1.73866 51.933 1.73866 50.9106V11.5183C1.73866 10.5342 1.86166 9.48102 0.877625 9.48102C0.755639 9.48249 0.635308 9.5094 0.524321 9.56004C0.413334 9.61068 0.314133 9.68391 0.233084 9.77509C0.152036 9.86627 0.0909204 9.97336 0.0536404 10.0895C0.0163603 10.2057 0.00374468 10.3283 0.0165949 10.4496V53.0708C0.0120469 53.5656 0.199241 54.0429 0.538926 54.4027C0.878611 54.7624 1.3444 54.9766 1.8386 55.0005H42.853C44.4752 55.0005 45.9282 53.3092 45.9282 51.564V3.46916C45.9282 1.73171 44.4444 0.032686 42.853 0.032686H33.3048C33.0911 0.0199852 32.8809 0.0919245 32.7198 0.232905C32.5587 0.373885 32.4595 0.572613 32.4437 0.786123V0.778427Z" fill="#1C2A40"/>
<path fill-rule="evenodd" clip-rule="evenodd" d="M25.5698 29.2304C25.7082 28.7 26.2848 28.231 26.4309 27.6237C26.7313 27.6227 27.0272 27.6967 27.2919 27.8389C26.7967 28.3917 26.2183 28.8637 25.5775 29.2381L25.5698 29.2304ZM12.0393 27.8312C12.3039 27.689 12.5999 27.615 12.9003 27.616C13.0695 28.3386 13.5999 28.6385 13.7614 29.2227C13.1205 28.8485 12.5421 28.3764 12.047 27.8236L12.0393 27.8312ZM21.7029 30.4066L22.4716 26.8626C23.2656 26.9085 24.0547 27.0165 24.8318 27.1854C24.309 28.1695 22.833 30.1453 21.7567 30.4066H21.7029ZM18.6277 26.7549H20.7573C20.7573 28.354 19.9885 29.9223 19.7886 30.7295H19.5733C19.3888 29.9607 18.6047 28.354 18.6047 26.7549H18.6277ZM14.5455 27.1854C15.3226 27.0165 16.1117 26.9085 16.9057 26.8626L17.6745 30.4066C16.552 30.1453 15.0837 28.1695 14.5993 27.1854H14.5455ZM18.1972 21.4965V20.8507H21.2031L21.1263 23.2416C21.0801 23.5799 21.1263 23.8413 21.1263 24.1795C21.1263 24.6639 21.0263 24.5716 21.0186 25.0406H18.4432C18.4432 24.6716 18.3663 24.6177 18.3433 24.2718L18.228 21.4888L18.1972 21.4965ZM28.5757 26.4705C28.1017 26.3531 27.6346 26.2094 27.1766 26.04C27.5994 24.2333 28.1452 23.3646 28.1452 20.8891H30.613C30.3824 23.6952 29.5829 24.5639 28.5757 26.4705ZM8.71815 20.8891H11.1859C11.1955 21.801 11.2933 22.7099 11.4781 23.603C11.5703 24.0719 11.6395 24.3717 11.7625 24.8176C11.8855 25.2635 12.047 25.5864 12.1469 26.04C12.0162 26.1015 11.0091 26.4321 10.8554 26.4705C9.76369 25.7017 8.91804 22.5113 8.71047 20.8891H8.71815ZM25.5698 25.6095C25.0036 25.5661 24.4411 25.4839 23.8862 25.3634C22.3486 25.1482 22.6869 25.8785 22.7792 22.8188C22.7792 22.1807 22.8868 21.681 22.8868 20.8891H26.5385L26.1925 23.3339C25.9388 24.5947 25.7543 24.8714 25.5775 25.6402L25.5698 25.6095ZM12.7927 20.8891H16.4444C16.4444 22.1499 16.552 23.3954 16.6597 24.5562C16.7519 25.5556 16.3983 25.2328 15.5372 25.325C14.9515 25.4501 14.3583 25.5374 13.7614 25.5864C13.4121 24.4794 13.155 23.3454 12.9926 22.1961C12.9915 21.7449 12.9347 21.2956 12.8234 20.8584L12.7927 20.8891ZM18.1742 18.529L18.2818 15.8459C18.2818 15.3616 18.3817 15.4539 18.3894 14.9849H20.9648C20.9648 15.3539 21.0417 15.4077 21.0648 15.7537C21.0878 16.0996 21.0648 16.3841 21.0648 16.6993L21.157 19.1825H18.1511V18.5367L18.1742 18.529ZM25.5852 14.4468C25.6774 14.8388 25.8005 15.1233 25.9235 15.5077L26.3847 17.814C26.3858 18.2652 26.4426 18.7145 26.5539 19.1517H22.9021C22.9021 14.0931 21.9566 14.9465 23.8093 14.6928C24.395 14.5676 24.9882 14.4803 25.5852 14.4314V14.4468ZM16.4598 19.1671H12.8081C12.9208 18.7619 12.9726 18.3421 12.9618 17.9217C13.1332 16.7421 13.4058 15.5795 13.7767 14.4468C14.3429 14.4902 14.9054 14.5724 15.4604 14.6928C16.9979 14.908 16.6597 14.1777 16.5674 17.2374C16.5674 17.8755 16.4598 18.3752 16.4598 19.1671ZM27.2227 14.0162C27.3534 13.9547 28.3605 13.6242 28.5142 13.5857C29.506 14.3161 30.5285 17.5296 30.6591 19.1671H28.1914C28.1372 17.4103 27.8104 15.6726 27.2227 14.0162ZM11.2244 19.1671H8.7566C8.86917 18.094 9.12782 17.0412 9.52538 16.0381C9.85479 15.1465 10.3331 14.3173 10.9399 13.5857C11.0937 13.5857 12.1008 13.9547 12.2315 14.0162C11.801 15.8459 11.2628 16.6685 11.2628 19.1671H11.2244ZM19.5964 9.28827H19.8117C19.8808 9.58041 20.0269 9.88024 20.1192 10.157C20.2114 10.4338 20.3114 10.7413 20.4113 11.1564C20.6041 11.8442 20.7252 12.5501 20.7726 13.2629H18.6277C18.6277 11.6638 19.3965 10.0955 19.5964 9.28827ZM25.6083 10.8258C26.2491 11.2001 26.8275 11.6722 27.3226 12.225C27.0579 12.3669 26.762 12.4409 26.4616 12.4403C26.3804 12.1616 26.2474 11.9008 26.0695 11.6715L25.6083 10.8489V10.8258ZM12.9388 12.4326C12.6383 12.4335 12.3424 12.3596 12.0777 12.2173C12.5729 11.6645 13.1513 11.1924 13.7921 10.8181C13.6384 11.4024 13.1002 11.7099 12.9311 12.4249L12.9388 12.4326ZM21.7105 9.55733C22.833 9.81871 24.3013 11.7945 24.7857 12.7785C24.0784 12.84 23.202 13.1014 22.4255 13.1014C22.2306 11.9076 21.974 10.7246 21.6567 9.55733H21.7105ZM16.9134 13.1322C16.1194 13.0863 15.3303 12.9783 14.5532 12.8093C15.076 11.8252 16.552 9.84944 17.6283 9.58806C17.4899 10.1646 17.3285 10.7336 17.2055 11.3102C17.0825 11.8868 17.0056 12.5633 16.8749 13.1245L16.9134 13.1322ZM7.03452 20.0051C7.06338 23.3554 8.40158 26.5616 10.7631 28.9383C18.7738 36.949 32.3658 31.0986 32.3658 19.9974C32.3658 16.6331 31.0294 13.4067 28.6505 11.0278C26.2716 8.64891 23.0452 7.3125 19.681 7.3125C16.3167 7.3125 13.0903 8.64891 10.7114 11.0278C8.33253 13.4067 6.99609 16.6331 6.99609 19.9974L7.03452 20.0051Z" fill="#1C2A40"/>
<path fill-rule="evenodd" clip-rule="evenodd" d="M0.00101795 1.9619V6.78986C-0.000521269 6.99435 0.0707694 7.19269 0.202128 7.34942C0.333487 7.50614 0.516338 7.611 0.717949 7.64522C0.91956 7.67944 1.12677 7.64078 1.30249 7.53617C1.4782 7.43156 1.61094 7.26785 1.67695 7.07431C1.73901 6.69831 1.75194 6.31581 1.71539 5.93648V2.38472C1.71539 1.35456 1.63852 1.61594 4.51375 1.61594H28.3459C29.0378 1.61594 30.1064 1.77742 30.4601 1.36228C30.5902 1.25514 30.6815 1.10818 30.72 0.944057C30.7584 0.779938 30.7418 0.607729 30.6728 0.453951C30.6038 0.300172 30.4861 0.173336 30.3379 0.092975C30.1898 0.0126141 30.0193 -0.0168006 29.8528 0.00921816H1.84609C1.59638 0.0151759 1.35032 0.0705112 1.12213 0.172087C0.893933 0.273662 0.688116 0.419452 0.516568 0.601006C0.345021 0.782561 0.211142 0.996281 0.122653 1.22986C0.0341645 1.46344 -0.00717608 1.71226 0.00101795 1.9619Z" fill="#1C2A40"/>
<path fill-rule="evenodd" clip-rule="evenodd" d="M8.18117 39.4332H12.9015V44.1535H8.18117V39.4332ZM6.4668 39.0027V44.5841C6.47919 44.7712 6.52929 44.9539 6.61409 45.1212C6.69889 45.2885 6.81663 45.437 6.96025 45.5576C7.10387 45.6783 7.2704 45.7686 7.44983 45.8232C7.62925 45.8779 7.81787 45.8957 8.00436 45.8756H13.1552C13.3631 45.9003 13.5738 45.8776 13.7716 45.8091C13.9694 45.7405 14.1491 45.628 14.2971 45.48C14.4451 45.332 14.5577 45.1523 14.6262 44.9545C14.6947 44.7567 14.7175 44.5459 14.6927 44.338V38.9566C14.671 38.6212 14.528 38.3051 14.2903 38.0674C14.0527 37.8298 13.7366 37.6867 13.4012 37.665H7.81985C7.46604 37.6727 7.12861 37.8156 6.87695 38.0644C6.62528 38.3132 6.47851 38.649 6.4668 39.0027Z" fill="#1C2A40"/>
<path fill-rule="evenodd" clip-rule="evenodd" d="M16.7676 39.6472C16.7989 39.8831 16.914 40.0998 17.0918 40.2578C17.2696 40.4159 17.4984 40.5048 17.7362 40.5082H32.5506C32.67 40.5196 32.7905 40.5058 32.9042 40.4679C33.018 40.43 33.1226 40.3687 33.2113 40.288C33.3 40.2073 33.3709 40.109 33.4194 39.9993C33.4679 39.8896 33.4929 39.771 33.4929 39.6511C33.4929 39.5311 33.4679 39.4125 33.4194 39.3029C33.3709 39.1932 33.3 39.0948 33.2113 39.0141C33.1226 38.9334 33.018 38.8722 32.9042 38.8342C32.7905 38.7963 32.67 38.7826 32.5506 38.7939H17.7362C17.4995 38.7971 17.2717 38.8848 17.0941 39.0414C16.9164 39.1979 16.8006 39.4128 16.7676 39.6472Z" fill="#1C2A40"/>
<path fill-rule="evenodd" clip-rule="evenodd" d="M16.7676 43.9451C16.7989 44.1809 16.914 44.3977 17.0918 44.5557C17.2696 44.7138 17.4984 44.8026 17.7362 44.8061H32.5506C32.67 44.8174 32.7905 44.8037 32.9042 44.7657C33.018 44.7278 33.1226 44.6665 33.2113 44.5858C33.3 44.5051 33.3709 44.4068 33.4194 44.2971C33.4679 44.1874 33.4929 44.0688 33.4929 43.9489C33.4929 43.829 33.4679 43.7104 33.4194 43.6007C33.3709 43.491 33.3 43.3927 33.2113 43.312C33.1226 43.2313 33.018 43.17 32.9042 43.1321C32.7905 43.0942 32.67 43.0804 32.5506 43.0917H17.7362C17.4995 43.0949 17.2717 43.1827 17.0941 43.3392C16.9164 43.4957 16.8006 43.7106 16.7676 43.9451Z" fill="#1C2A40"/>
</svg>
