<svg width="51" height="55" viewBox="0 0 51 55" fill="none" xmlns="http://www.w3.org/2000/svg">
<path fill-rule="evenodd" clip-rule="evenodd" d="M36.0165 28.3322C32.4583 28.4015 29.0167 27.0628 26.4405 24.6074C25.6863 23.8075 25.0156 22.9329 24.4388 21.9971C24.2218 21.6677 24.0306 21.3221 23.8668 20.9632C22.9046 19.0254 22.4721 16.8676 22.613 14.7087C22.7328 11.8428 23.7975 9.09708 25.6412 6.89973C25.9826 6.45756 26.3765 6.05867 26.8144 5.71189L28.0976 4.63405C32.3137 1.45914 38.8395 1.47379 43.2242 4.70736C43.5322 4.93466 43.8475 5.1473 44.1408 5.3966C45.5639 6.67186 46.7159 8.22039 47.5283 9.95001C51.5171 19.1961 44.3387 28.3249 36.0165 28.3249V28.3322ZM34.8287 0.00733952C32.2006 0.152619 29.6513 0.956999 27.4157 2.34636C26.6962 2.78736 26.0273 3.30618 25.4213 3.89348C24.9459 4.23628 24.5277 4.65201 24.1821 5.12531C23.5604 5.78459 23.0302 6.52445 22.6057 7.32502C19.0715 7.32502 14.6134 7.23703 11.1159 7.32502C10.082 7.32502 9.27543 8.59353 8.18291 9.72271L1.90642 15.9992C1.41515 16.4905 0 17.6123 0 18.3896V49.5007C0.0125841 50.2613 0.184959 51.0108 0.505934 51.7004C0.61592 51.9277 0.843226 52.3237 0.967876 52.529C1.33529 53.0462 1.77764 53.5058 2.28037 53.8928C3.16566 54.5752 4.24282 54.9625 5.35995 55H32.4897C33.9217 54.9494 35.2782 54.3448 36.2732 53.3136C38.3189 51.1799 37.8496 48.7675 37.8496 45.4533V30.4733C40.0677 30.1459 42.186 29.3322 44.0528 28.0903C47.9316 25.5606 50.9379 20.6479 50.9379 16.0945C50.9379 13.2202 50.7692 11.3505 49.4714 8.68882C47.9695 5.50743 45.4013 2.9522 42.2124 1.46647C40.4675 0.600084 38.5633 0.100966 36.6178 0L34.8287 0.00733952ZM3.93747 17.1724L9.80336 11.2479C9.84002 12.7143 10.0747 15.09 9.42208 16.0139C8.32223 17.5757 6.3645 17.1724 3.93015 17.1724H3.93747ZM20.2446 15.2439C20.2955 13.2944 20.6953 11.3698 21.4251 9.56137H12.201C12.201 13.1909 12.7363 16.2925 10.412 18.2869C10.2055 18.5141 9.95637 18.6985 9.67872 18.8295C9.09885 19.1396 8.46805 19.3433 7.81629 19.4307H2.23638V48.8262C2.23638 51.0919 3.61486 52.6903 5.66792 52.6903H32.0644C32.5456 52.7103 33.0255 52.6282 33.4726 52.4493C33.9198 52.2705 34.3239 51.9989 34.6585 51.6526C34.9931 51.3062 35.2505 50.8929 35.4138 50.4398C35.5771 49.9868 35.6426 49.5043 35.6059 49.0241V30.5833C32.7044 30.6484 29.8504 29.8385 27.4157 28.2589C27.0711 28.0462 26.7924 27.7676 26.4698 27.5917C25.7366 27.2177 14.6427 27.6796 13.6528 27.4303C13.4266 27.3606 13.2274 27.2228 13.0824 27.0357C12.9373 26.8486 12.8534 26.6213 12.8422 26.3848C12.831 26.1484 12.8929 25.9142 13.0196 25.7142C13.1463 25.5142 13.3316 25.3582 13.5502 25.2673C14.034 25.1801 14.5279 25.1628 15.0167 25.216H23.9181C23.6908 24.8787 23.4342 24.5927 23.1849 24.2261C22.9356 23.8595 22.7523 23.6102 22.503 23.1922C21.0532 20.7927 20.2757 18.0473 20.252 15.2439H20.2446Z" fill="#1C2A40"/>
<path fill-rule="evenodd" clip-rule="evenodd" d="M35.2671 14.2749H36.1176C37.4081 14.2749 38.9186 15.5728 39.0505 16.746H32.4001C32.8767 15.7561 33.6099 14.2749 35.333 14.2749H35.2671ZM34.1965 12.1266V11.0561H37.2028V12.1266C35.8097 11.8039 35.5164 12.0166 34.1965 12.1266ZM33.1187 8.29176H38.376V8.71705H33.1187V8.29176ZM30.7577 7.55853C30.7577 8.46774 30.611 10.1322 31.0803 10.6674C31.9088 11.6206 31.9382 9.78023 31.9382 13.2411C31.9382 13.6957 30.0098 14.7076 30.0098 17.7505C30.0098 18.4838 30.3764 19.041 31.0803 19.041H34.6511V23.6531C34.6511 24.6503 36.9022 25.1195 36.9022 23.2204V18.997H40.4437C42.1375 18.997 41.4189 15.4261 40.2017 14.0916C39.3292 13.1311 39.5858 13.2044 39.5858 10.9534C41.0523 10.9534 40.6563 9.3696 40.6563 6.98658C40.6563 6.19469 39.9671 5.91609 39.1899 5.91609H32.1581C31.1096 5.90875 30.765 6.47334 30.765 7.51453L30.7577 7.55853Z" fill="#1C2A40"/>
<path fill-rule="evenodd" clip-rule="evenodd" d="M12.8457 34.9819C12.8457 35.6345 12.9923 36.3751 13.9162 36.3751H31.7192C32.002 36.3522 32.2658 36.2238 32.4582 36.0152C32.6506 35.8066 32.7575 35.5333 32.7575 35.2496C32.7575 34.9658 32.6506 34.6925 32.4582 34.4839C32.2658 34.2754 32.002 34.1469 31.7192 34.124H13.7036C13.4967 34.1767 13.3078 34.2842 13.1568 34.4352C13.0059 34.5862 12.8984 34.775 12.8457 34.9819Z" fill="#1C2A40"/>
<path fill-rule="evenodd" clip-rule="evenodd" d="M12.8443 43.8842C12.8443 44.4048 12.7636 44.6982 13.2915 45.0501C13.5414 45.2133 13.8367 45.2929 14.1347 45.2774H31.5124C33.4408 45.2774 32.9056 43.0264 31.945 43.0264H13.7021C13.4952 43.0791 13.3064 43.1866 13.1554 43.3375C13.0044 43.4885 12.897 43.6773 12.8443 43.8842Z" fill="#1C2A40"/>
<path fill-rule="evenodd" clip-rule="evenodd" d="M5.01367 26.2932C5.01367 27.9063 7.27204 27.4736 9.41308 27.4736C10.9309 27.4736 10.9309 25.2227 9.52309 25.2227H6.05488C5.78348 25.251 5.53063 25.3737 5.34037 25.5693C5.15011 25.7649 5.0345 26.0211 5.01367 26.2932Z" fill="#1C2A40"/>
<path fill-rule="evenodd" clip-rule="evenodd" d="M5.01367 44.1037C5.01367 45.7169 7.27204 45.2842 9.41308 45.2842C10.9309 45.2842 10.9309 43.0332 9.52309 43.0332H6.05488C5.78348 43.0616 5.53063 43.1842 5.34037 43.3799C5.15011 43.5755 5.0345 43.8317 5.01367 44.1037Z" fill="#1C2A40"/>
<path fill-rule="evenodd" clip-rule="evenodd" d="M5.01367 35.1946C5.01367 36.8077 7.27204 36.3751 9.41308 36.3751C10.9309 36.3751 10.9309 34.124 9.52309 34.124H6.05488C5.78348 34.1524 5.53063 34.2751 5.34037 34.4707C5.15011 34.6663 5.0345 34.9225 5.01367 35.1946Z" fill="#1C2A40"/>
</svg>
