<svg width="28" height="29" viewBox="0 0 28 29" fill="none" xmlns="http://www.w3.org/2000/svg">
    <path fill-rule="evenodd" clip-rule="evenodd" d="M14.0898 28.4111C17.7262 28.4032 21.2109 26.9551 23.7822 24.3838C26.3535 21.8125 27.8016 18.3268 27.8096 14.6904C27.8043 11.0524 26.3577 7.56465 23.7861 4.99121C21.2146 2.41777 17.7279 0.968871 14.0898 0.960938C10.45 0.966228 6.96045 2.41455 4.38672 4.98828C1.81299 7.56201 0.364665 11.0506 0.359375 14.6904C0.367309 18.3285 1.81718 21.8152 4.39062 24.3867C6.96407 26.9583 10.4518 28.4058 14.0898 28.4111Z" fill="currentColor"/>
    <path fill-rule="evenodd" clip-rule="evenodd" d="M13.2613 15.5586L11.2613 13.5586C10.9213 13.2186 10.8213 13.0488 10.2613 13.0488C10.1315 13.0567 10.0045 13.0934 9.89114 13.1572C9.77782 13.221 9.68108 13.3101 9.60696 13.417C9.53284 13.5238 9.48346 13.6459 9.46341 13.7744C9.44336 13.9029 9.45271 14.0348 9.49075 14.1592C9.51303 14.2419 9.55067 14.3194 9.6011 14.3887L13.1011 17.8984C13.3647 18.1474 13.7131 18.2861 14.0757 18.2861C14.4383 18.2861 14.7877 18.1474 15.0513 17.8984L18.4009 14.5791C18.5451 14.4614 18.6486 14.3002 18.6958 14.1201C18.7431 13.9401 18.7314 13.7495 18.6636 13.5762C18.5958 13.4028 18.4748 13.2555 18.3179 13.1553C18.161 13.055 17.9764 13.0073 17.7906 13.0186C17.3206 13.0186 16.7213 13.7685 16.3013 14.1885L14.9605 15.5088V9.18848C14.9605 8.73848 14.9611 8.55855 14.8111 8.26855C14.729 8.16077 14.6229 8.07381 14.5015 8.01367C14.3801 7.95353 14.2464 7.92188 14.1109 7.92188C13.9754 7.92188 13.8417 7.95353 13.7202 8.01367C13.5988 8.07381 13.4928 8.16077 13.4107 8.26855C13.2207 8.53855 13.2408 8.71871 13.2408 9.17871L13.2613 15.5586Z" fill="#FDFDFD"/>
    <path fill-rule="evenodd" clip-rule="evenodd" d="M9.46875 20.5506C9.48932 20.787 9.58332 21.0106 9.73828 21.1903C9.8264 21.2804 9.93266 21.3508 10.0498 21.3973C10.1669 21.4438 10.292 21.4659 10.418 21.4608H17.8184C18.0518 21.4608 18.2754 21.368 18.4404 21.203C18.6055 21.038 18.6982 20.8143 18.6982 20.5809C18.6982 20.3475 18.6055 20.1229 18.4404 19.9579C18.2754 19.7928 18.0518 19.7001 17.8184 19.7001H10.5088C10.2615 19.6899 10.0185 19.7723 9.82812 19.9305C9.64343 20.0922 9.51758 20.3101 9.46875 20.5506Z" fill="#FDFDFD"/>
</svg>