<svg width="21" height="21" viewBox="0 0 21 21" fill="none" xmlns="http://www.w3.org/2000/svg">
<path fill-rule="evenodd" clip-rule="evenodd" d="M10.3999 20.24C12.3639 20.24 14.2835 19.6576 15.9165 18.5665C17.5495 17.4754 18.8222 15.9245 19.5737 14.1101C20.3253 12.2956 20.5223 10.299 20.1392 8.37276C19.756 6.44652 18.8101 4.67717 17.4214 3.28844C16.0327 1.8997 14.2631 0.953965 12.3369 0.570814C10.4107 0.187663 8.41408 0.3843 6.59961 1.13588C4.78514 1.88746 3.23468 3.16022 2.14355 4.7932C1.05243 6.42618 0.469727 8.34604 0.469727 10.31C0.488059 12.9379 1.54016 15.453 3.39844 17.3113C5.25671 19.1696 7.77197 20.2217 10.3999 20.24Z" fill="#F76083"/>
<path d="M7.28027 7.17993L13.5203 13.4299" stroke="#FEFEFE" stroke-width="1.4173" stroke-linecap="round" stroke-linejoin="round"/>
<path d="M13.5203 7.17993L7.28027 13.4299" stroke="#FEFEFE" stroke-width="1.4173" stroke-linecap="round" stroke-linejoin="round"/>
</svg>
