<svg width="56" height="48" viewBox="0 0 56 48" fill="none" xmlns="http://www.w3.org/2000/svg">
<path fill-rule="evenodd" clip-rule="evenodd" d="M51.5903 33.499H41.8999C40.7354 33.4912 39.6208 33.0251 38.7974 32.2017C37.9739 31.3782 37.5074 30.2636 37.4995 29.0991C37.5074 27.9346 37.9739 26.82 38.7974 25.9966C39.6208 25.1731 40.7354 24.7071 41.8999 24.6992H51.5903V33.5088V33.499ZM4.59033 7.78906C4.59557 6.98177 4.91792 6.20855 5.48877 5.6377C6.05962 5.06684 6.83284 4.7445 7.64014 4.73926H38.8696C39.2167 4.73794 39.5605 4.8053 39.8813 4.9375C40.2022 5.0697 40.4943 5.26436 40.7397 5.50977C40.9852 5.75518 41.1798 6.04629 41.312 6.36719C41.4442 6.68808 41.5116 7.03185 41.5103 7.37891V10.8994H7.64014C6.82658 10.8812 6.05172 10.5458 5.48193 9.96484C4.91215 9.38385 4.59274 8.60282 4.59033 7.78906ZM51.8403 20.5889H51.5503V17.6494C51.5455 16.0132 50.9478 14.434 49.8687 13.2041C48.7895 11.9742 47.3018 11.1765 45.6802 10.959V7.37891C45.6697 5.59193 44.9545 3.88079 43.6909 2.61719C42.4273 1.35359 40.7171 0.639403 38.9302 0.628906H7.64014C5.76936 0.63099 3.97296 1.36406 2.63525 2.67188C1.29755 3.97969 0.524335 5.75865 0.47998 7.62891V40.7988C0.490477 42.5858 1.20466 44.2969 2.46826 45.5605C3.73186 46.8242 5.44301 47.5383 7.22998 47.5488H44.8003C46.5873 47.5383 48.2974 46.8242 49.561 45.5605C50.8246 44.2969 51.5398 42.5858 51.5503 40.7988V37.5688H51.8403C52.3424 37.5702 52.8392 37.4723 53.3032 37.2808C53.7673 37.0893 54.1894 36.8081 54.5444 36.4531C54.8994 36.0981 55.1801 35.6765 55.3716 35.2124C55.5631 34.7483 55.661 34.251 55.6597 33.749V24.3589C55.644 23.364 55.2401 22.4151 54.5337 21.7144C53.8273 21.0136 52.8753 20.6166 51.8804 20.6089L51.8403 20.5889Z" fill="#1C2A40"/>
<path d="M43.0698 32.0494C44.688 32.0494 46 30.7376 46 29.1194C46 27.5013 44.688 26.1895 43.0698 26.1895C41.4516 26.1895 40.1401 27.5013 40.1401 29.1194C40.1401 30.7376 41.4516 32.0494 43.0698 32.0494Z" fill="#1C2A40"/>
</svg>
