<svg width="24" height="23" viewBox="0 0 24 23" fill="none" xmlns="http://www.w3.org/2000/svg">
<path fill-rule="evenodd" clip-rule="evenodd" d="M20.8398 0.299805H3.19971C2.90161 0.299805 2.60646 0.358517 2.33105 0.472595C2.05565 0.586673 1.80552 0.753872 1.59473 0.964661C1.38394 1.17545 1.21662 1.4257 1.10254 1.70111C0.988461 1.97652 0.929687 2.27172 0.929688 2.56982V20.2198C0.929687 20.5179 0.988461 20.8131 1.10254 21.0885C1.21662 21.3639 1.38394 21.6142 1.59473 21.825C1.80552 22.0357 2.05565 22.2029 2.33105 22.317C2.60646 22.4311 2.90161 22.4898 3.19971 22.4898H20.8496C21.4517 22.4898 22.0294 22.2507 22.4551 21.825C22.8808 21.3992 23.1196 20.8218 23.1196 20.2198V2.56982C23.1196 1.96778 22.8808 1.39037 22.4551 0.964661C22.0294 0.538953 21.4517 0.299805 20.8496 0.299805H20.8398ZM20.4497 5.18982C20.4497 5.18982 17.1699 3.98981 17.1699 6.42981V8.27985H20.3696L20.0796 11.2798H17.1997V21.6598H13.2798V11.3098H11.3599V8.30981H13.2798V5.1098C13.2798 5.1098 13.2795 2.63981 16.4595 1.92981C17.9425 1.64735 19.4719 1.72281 20.9199 2.14984L20.4497 5.18982Z" fill="#FEFEFE"/>
</svg>
