<svg width="95" height="118" viewBox="0 0 95 118" fill="none" xmlns="http://www.w3.org/2000/svg">
<path fill-rule="evenodd" clip-rule="evenodd" d="M27.9811 88.8394C28.139 88.9315 28.1522 89.0631 27.9811 89.1421L26.6649 89.8923C26.5834 89.9339 26.4932 89.9556 26.4017 89.9556C26.3102 89.9556 26.22 89.9339 26.1385 89.8923L24.9145 89.1816C24.7565 89.0895 24.7434 88.9578 24.9145 88.8788L27.9811 88.8394Z" fill="#1C2A40"/>
<path fill-rule="evenodd" clip-rule="evenodd" d="M27.8663 92.735L26.5502 93.4852C26.4704 93.5247 26.3826 93.5452 26.2935 93.5452C26.2045 93.5452 26.1167 93.5247 26.0369 93.4852L24.8129 92.7746C24.655 92.6824 24.6418 92.5508 24.8129 92.4719L26.129 91.7217C26.2105 91.6801 26.3007 91.6584 26.3922 91.6584C26.4837 91.6584 26.5739 91.6801 26.6554 91.7217L27.8794 92.4323C27.9847 92.5113 27.998 92.6561 27.8663 92.735Z" fill="#1C2A40"/>
<path fill-rule="evenodd" clip-rule="evenodd" d="M31.0494 90.8925L29.7333 91.6427C29.6518 91.6843 29.5616 91.7059 29.4701 91.7059C29.3785 91.7059 29.2883 91.6843 29.2068 91.6427L27.9828 90.9319C27.8249 90.8398 27.8117 90.7082 27.9828 90.6292L29.299 89.879C29.3788 89.8396 29.4666 89.8191 29.5556 89.8191C29.6446 89.8191 29.7325 89.8396 29.8123 89.879L31.0363 90.5897C31.1679 90.6818 31.1811 90.8135 31.0494 90.8925Z" fill="#1C2A40"/>
<path fill-rule="evenodd" clip-rule="evenodd" d="M32.9684 88.0364L34.1925 88.7471C34.3504 88.8393 34.3636 88.9708 34.1925 89.0498L32.8764 89.8C32.7966 89.8395 32.7087 89.86 32.6197 89.86C32.5307 89.86 32.4429 89.8395 32.3631 89.8L31.1391 89.0893C30.9811 88.9972 30.968 88.8655 31.1391 88.7866C31.7202 88.4716 32.3335 88.2202 32.9684 88.0364Z" fill="#1C2A40"/>
<path fill-rule="evenodd" clip-rule="evenodd" d="M27.7017 96.3148L26.3856 97.065C26.3041 97.1066 26.2139 97.1283 26.1224 97.1283C26.0309 97.1283 25.9407 97.1066 25.8592 97.065L24.6352 96.3543C24.4772 96.2621 24.4641 96.1306 24.6352 96.0516L25.9513 95.3014C26.0311 95.2619 26.1189 95.2415 26.208 95.2415C26.297 95.2415 26.3847 95.2619 26.4645 95.3014L27.6886 96.0121C27.8071 96.1043 27.8333 96.2359 27.7017 96.3148Z" fill="#1C2A40"/>
<path fill-rule="evenodd" clip-rule="evenodd" d="M30.8859 94.4724L29.5697 95.2226C29.4899 95.2621 29.4021 95.2826 29.3131 95.2826C29.2241 95.2826 29.1362 95.2621 29.0564 95.2226L27.8324 94.5119C27.6745 94.4198 27.6613 94.2881 27.8324 94.2092L29.1486 93.4591C29.2301 93.4175 29.3203 93.3958 29.4118 93.3958C29.5033 93.3958 29.5935 93.4175 29.675 93.4591L30.899 94.1697C31.0043 94.2487 31.0175 94.3935 30.8859 94.4724Z" fill="#1C2A40"/>
<path fill-rule="evenodd" clip-rule="evenodd" d="M34.0753 92.6297L32.7592 93.3799C32.6794 93.4194 32.5916 93.4399 32.5025 93.4399C32.4135 93.4399 32.3257 93.4194 32.2459 93.3799L31.0219 92.6692C30.8639 92.577 30.8508 92.4455 31.0219 92.3665L32.338 91.6163C32.4195 91.5747 32.5097 91.553 32.6013 91.553C32.6928 91.553 32.783 91.5747 32.8645 91.6163L34.0885 92.327C34.1938 92.4191 34.2069 92.5639 34.0753 92.6297Z" fill="#1C2A40"/>
<path fill-rule="evenodd" clip-rule="evenodd" d="M37.2603 90.8002L35.9442 91.5505C35.8626 91.5921 35.7724 91.6138 35.6809 91.6138C35.5894 91.6138 35.4993 91.5921 35.4177 91.5505L34.1937 90.8397C34.0358 90.7476 34.0227 90.616 34.1937 90.537L35.5099 89.7868C35.5897 89.7473 35.6774 89.7269 35.7665 89.7269C35.8555 89.7269 35.9433 89.7473 36.0231 89.7868L37.2471 90.4976C37.3787 90.5897 37.3919 90.7213 37.2603 90.8002Z" fill="#1C2A40"/>
<path fill-rule="evenodd" clip-rule="evenodd" d="M39.1814 87.9444L40.4054 88.6551C40.5633 88.7472 40.5765 88.8788 40.4054 88.9578L39.0893 89.708C39.0095 89.7474 38.9216 89.768 38.8326 89.768C38.7436 89.768 38.6558 89.7474 38.576 89.708L37.352 88.9973C37.194 88.9052 37.1809 88.7736 37.352 88.6946L38.6681 87.9444C38.7479 87.905 38.8357 87.8844 38.9247 87.8844C39.0138 87.8844 39.1016 87.905 39.1814 87.9444Z" fill="#1C2A40"/>
<path fill-rule="evenodd" clip-rule="evenodd" d="M30.899 98.1972L29.5829 98.9474C29.5014 98.989 29.4112 99.0107 29.3197 99.0107C29.2282 99.0107 29.1379 98.989 29.0564 98.9474L27.8324 98.2367C27.6745 98.1446 27.6613 98.0129 27.8324 97.9339L29.1486 97.1837C29.2301 97.1421 29.3203 97.1205 29.4118 97.1205C29.5033 97.1205 29.5935 97.1421 29.675 97.1837L30.899 97.8945C31.0175 97.9471 31.0307 98.0919 30.899 98.1972Z" fill="#1C2A40"/>
<path fill-rule="evenodd" clip-rule="evenodd" d="M34.0748 96.3282L32.7587 97.0784C32.6772 97.12 32.587 97.1416 32.4954 97.1416C32.4039 97.1416 32.3137 97.12 32.2322 97.0784L31.0082 96.3676C30.8503 96.2755 30.8371 96.1439 31.0082 96.0649L32.3243 95.3147C32.4059 95.2731 32.4961 95.2514 32.5876 95.2514C32.6791 95.2514 32.7693 95.2731 32.8508 95.3147L34.0748 96.0254C34.2064 96.1175 34.2196 96.2492 34.0748 96.3282Z" fill="#1C2A40"/>
<path fill-rule="evenodd" clip-rule="evenodd" d="M37.2721 94.4855L35.956 95.2357C35.8744 95.2773 35.7842 95.299 35.6927 95.299C35.6012 95.299 35.5111 95.2773 35.4295 95.2357L34.2055 94.525C34.0475 94.4329 34.0344 94.3012 34.2055 94.2223L35.5216 93.4721C35.6014 93.4326 35.6892 93.4121 35.7783 93.4121C35.8673 93.4121 35.9551 93.4326 36.0349 93.4721L37.2589 94.1828C37.3905 94.2486 37.4037 94.4066 37.2721 94.4855Z" fill="#1C2A40"/>
<path fill-rule="evenodd" clip-rule="evenodd" d="M40.4576 92.6428L39.1414 93.393C39.0599 93.4345 38.9698 93.4563 38.8783 93.4563C38.7867 93.4563 38.6965 93.4345 38.615 93.393L37.391 92.6823C37.2331 92.5901 37.2199 92.4586 37.391 92.3796L38.7072 91.6294C38.787 91.5899 38.8748 91.5694 38.9638 91.5694C39.0528 91.5694 39.1406 91.5899 39.2204 91.6294L40.4445 92.3401C40.5761 92.4322 40.655 92.5639 40.4576 92.6428Z" fill="#1C2A40"/>
<path fill-rule="evenodd" clip-rule="evenodd" d="M43.6417 90.8002L42.3256 91.5505C42.2458 91.5899 42.158 91.6104 42.0689 91.6104C41.9799 91.6104 41.8921 91.5899 41.8123 91.5505L40.5883 90.8397C40.4303 90.7476 40.4172 90.616 40.5883 90.537L41.9044 89.7868C41.9842 89.7473 42.0721 89.7269 42.1611 89.7269C42.2501 89.7269 42.3379 89.7473 42.4177 89.7868L43.6417 90.4976C43.7602 90.5897 43.7865 90.7213 43.6417 90.8002Z" fill="#1C2A40"/>
<path fill-rule="evenodd" clip-rule="evenodd" d="M46.8444 88.9841L45.5282 89.7344C45.4467 89.7759 45.3565 89.7977 45.265 89.7977C45.1735 89.7977 45.0832 89.7759 45.0017 89.7344L43.7777 89.0237C43.6198 88.9315 43.6066 88.7999 43.7777 88.7209L45.0939 87.9707C45.1737 87.9312 45.2615 87.9108 45.3505 87.9108C45.4396 87.9108 45.5274 87.9312 45.6072 87.9707L46.8312 88.6815C46.9496 88.7473 46.976 88.892 46.8444 88.9841Z" fill="#1C2A40"/>
<path fill-rule="evenodd" clip-rule="evenodd" d="M50.03 87.1285L48.7139 87.8786C48.6341 87.9181 48.5462 87.9386 48.4572 87.9386C48.3682 87.9386 48.2804 87.9181 48.2006 87.8786L46.9766 87.1679C47.9916 87.0717 49.0128 87.0585 50.03 87.1285Z" fill="#1C2A40"/>
<path fill-rule="evenodd" clip-rule="evenodd" d="M30.7311 101.75L29.4149 102.501C29.3334 102.542 29.2432 102.564 29.1517 102.564C29.0602 102.564 28.97 102.542 28.8885 102.501L27.6645 101.79C27.5065 101.698 27.4934 101.566 27.6645 101.487L28.9806 100.737C29.0621 100.695 29.1523 100.674 29.2438 100.674C29.3353 100.674 29.4256 100.695 29.5071 100.737L30.7311 101.448C30.8495 101.54 30.8759 101.672 30.7311 101.75Z" fill="#1C2A40"/>
<path fill-rule="evenodd" clip-rule="evenodd" d="M33.9283 99.9079L32.6122 100.658C32.5307 100.7 32.4405 100.721 32.349 100.721C32.2575 100.721 32.1672 100.7 32.0857 100.658L30.8617 99.9474C30.7038 99.8552 30.6906 99.7236 30.8617 99.6446L32.1779 98.8945C32.2577 98.855 32.3455 98.8345 32.4345 98.8345C32.5235 98.8345 32.6114 98.855 32.6912 98.8945L33.9152 99.6052C34.0731 99.6973 34.0731 99.8289 33.9283 99.9079Z" fill="#1C2A40"/>
<path fill-rule="evenodd" clip-rule="evenodd" d="M37.1158 98.0655L35.7997 98.8156C35.7182 98.8572 35.628 98.8789 35.5365 98.8789C35.445 98.8789 35.3547 98.8572 35.2732 98.8156L34.0492 98.1049C33.8913 98.0128 33.8781 97.8812 34.0492 97.8022L35.3654 97.052C35.4452 97.0126 35.533 96.992 35.622 96.992C35.711 96.992 35.7989 97.0126 35.8787 97.052L37.1027 97.7627C37.2343 97.8548 37.2475 97.9997 37.1158 98.0655Z" fill="#1C2A40"/>
<path fill-rule="evenodd" clip-rule="evenodd" d="M40.3019 96.2359L38.9857 96.9861C38.9059 97.0256 38.8181 97.0461 38.7291 97.0461C38.6401 97.0461 38.5523 97.0256 38.4725 96.9861L37.2484 96.2754C37.0905 96.1832 37.0773 96.0517 37.2484 95.9727L38.5646 95.2225C38.6461 95.1809 38.7363 95.1592 38.8278 95.1592C38.9193 95.1592 39.0096 95.1809 39.0911 95.2225L40.3151 95.9332C40.4204 96.0122 40.4335 96.157 40.3019 96.2359Z" fill="#1C2A40"/>
<path fill-rule="evenodd" clip-rule="evenodd" d="M43.4869 94.3933L42.1708 95.1435C42.0893 95.1851 41.9991 95.2068 41.9076 95.2068C41.816 95.2068 41.7258 95.1851 41.6443 95.1435L40.4203 94.4328C40.2624 94.3407 40.2492 94.209 40.4203 94.1301L41.7365 93.3799C41.8163 93.3405 41.9041 93.3199 41.9931 93.3199C42.0821 93.3199 42.17 93.3405 42.2498 93.3799L43.4738 94.0906C43.6054 94.1827 43.6186 94.2485 43.4869 94.3933Z" fill="#1C2A40"/>
<path fill-rule="evenodd" clip-rule="evenodd" d="M46.671 92.551L45.3549 93.3012C45.2751 93.3407 45.1873 93.3611 45.0982 93.3611C45.0092 93.3611 44.9214 93.3407 44.8416 93.3012L43.6176 92.5904C43.4596 92.4983 43.4465 92.3667 43.6176 92.2878L44.9337 91.5375C45.0152 91.4959 45.1054 91.4742 45.197 91.4742C45.2885 91.4742 45.3787 91.4959 45.4602 91.5375L46.6842 92.2482C46.7895 92.3404 46.8026 92.472 46.671 92.551Z" fill="#1C2A40"/>
<path fill-rule="evenodd" clip-rule="evenodd" d="M49.8683 90.7081L48.5522 91.4584C48.4724 91.4978 48.3845 91.5184 48.2955 91.5184C48.2065 91.5184 48.1186 91.4978 48.0388 91.4584L46.8148 90.7477C46.6569 90.6555 46.6437 90.5239 46.8148 90.4449L48.131 89.6947C48.2125 89.6531 48.3027 89.6315 48.3942 89.6315C48.4857 89.6315 48.576 89.6531 48.6575 89.6947L49.8815 90.4055C49.9736 90.4976 49.9999 90.6292 49.8683 90.7081Z" fill="#1C2A40"/>
<path fill-rule="evenodd" clip-rule="evenodd" d="M53.0397 88.8656L51.7235 89.6158C51.642 89.6574 51.5517 89.6791 51.4602 89.6791C51.3687 89.6791 51.2786 89.6574 51.197 89.6158L49.973 88.9051C49.8151 88.8129 49.8019 88.6814 49.973 88.6024L51.2891 87.8522C51.3689 87.8127 51.4568 87.7922 51.5458 87.7922C51.6349 87.7922 51.7226 87.8127 51.8024 87.8522L53.0265 88.5629C53.1581 88.655 53.1844 88.7866 53.0397 88.8656Z" fill="#1C2A40"/>
<path fill-rule="evenodd" clip-rule="evenodd" d="M56.2389 87.0363L54.9228 87.7865C54.843 87.826 54.7552 87.8465 54.6662 87.8465C54.5772 87.8465 54.4893 87.826 54.4095 87.7865L53.1855 87.0758C54.2006 86.9794 55.2217 86.9663 56.2389 87.0363Z" fill="#1C2A40"/>
<path fill-rule="evenodd" clip-rule="evenodd" d="M33.7584 103.462L32.4423 104.212C32.3605 104.253 32.2704 104.274 32.179 104.274C32.0877 104.274 31.9976 104.253 31.9158 104.212L30.6918 103.501C30.5339 103.409 30.5207 103.277 30.6918 103.198L32.0079 102.448C32.0894 102.407 32.1797 102.385 32.2712 102.385C32.3627 102.385 32.4529 102.407 32.5344 102.448L33.7584 103.159C33.8769 103.291 33.89 103.462 33.7584 103.462Z" fill="#1C2A40"/>
<path fill-rule="evenodd" clip-rule="evenodd" d="M30.5709 105.33L29.2548 106.081C29.1733 106.122 29.083 106.144 28.9915 106.144C28.9 106.144 28.8098 106.122 28.7283 106.081L27.5043 105.37C27.3464 105.278 27.3332 105.146 27.5043 105.067L28.8204 104.317C28.9002 104.278 28.9881 104.257 29.0771 104.257C29.1661 104.257 29.2539 104.278 29.3337 104.317L30.5577 105.028C30.6894 105.12 30.7025 105.265 30.5709 105.33Z" fill="#1C2A40"/>
<path fill-rule="evenodd" clip-rule="evenodd" d="M36.942 101.659L35.6259 102.409C35.5444 102.45 35.4541 102.472 35.3626 102.472C35.2711 102.472 35.181 102.45 35.0995 102.409L33.8754 101.698C33.7175 101.606 33.7043 101.474 33.8754 101.395L35.1915 100.645C35.273 100.603 35.3633 100.582 35.4548 100.582C35.5463 100.582 35.6365 100.603 35.718 100.645L36.942 101.356C37.0605 101.448 37.0868 101.58 36.942 101.659Z" fill="#1C2A40"/>
<path fill-rule="evenodd" clip-rule="evenodd" d="M40.1451 99.8159L38.8289 100.566C38.7474 100.608 38.6572 100.629 38.5657 100.629C38.4742 100.629 38.384 100.608 38.3025 100.566L37.0785 99.8555C36.9206 99.7633 36.9074 99.6317 37.0785 99.5528L38.3947 98.8026C38.4745 98.7631 38.5622 98.7426 38.6512 98.7426C38.7403 98.7426 38.8281 98.7631 38.9079 98.8026L40.1319 99.5132C40.2503 99.6054 40.2767 99.737 40.1451 99.8159Z" fill="#1C2A40"/>
<path fill-rule="evenodd" clip-rule="evenodd" d="M43.2882 97.9733L41.9721 98.7235C41.8923 98.763 41.8044 98.7834 41.7154 98.7834C41.6264 98.7834 41.5386 98.763 41.4588 98.7235L40.2348 98.0127C40.0768 97.9206 40.0637 97.789 40.2348 97.7101L41.5509 96.9598C41.6324 96.9183 41.7226 96.8965 41.8141 96.8965C41.9057 96.8965 41.9959 96.9183 42.0774 96.9598L43.3014 97.6705C43.4462 97.7627 43.4593 97.8943 43.2882 97.9733Z" fill="#1C2A40"/>
<path fill-rule="evenodd" clip-rule="evenodd" d="M46.5109 96.1307L45.1947 96.8809C45.1149 96.9204 45.0271 96.9409 44.9381 96.9409C44.8491 96.9409 44.7612 96.9204 44.6814 96.8809L43.4574 96.1702C43.2995 96.0781 43.2863 95.9464 43.4574 95.8675L44.7736 95.1173C44.8534 95.0778 44.9412 95.0573 45.0302 95.0573C45.1192 95.0573 45.2071 95.0778 45.2869 95.1173L46.5109 95.828C46.6293 95.9202 46.6425 96.0649 46.5109 96.1307Z" fill="#1C2A40"/>
<path fill-rule="evenodd" clip-rule="evenodd" d="M49.6959 94.2487L48.3798 94.9989C48.2983 95.0405 48.208 95.0622 48.1165 95.0622C48.025 95.0622 47.9348 95.0405 47.8533 94.9989L46.6293 94.2882C46.4714 94.1961 46.4582 94.0644 46.6293 93.9855L47.9454 93.2353C48.0252 93.1958 48.1131 93.1753 48.2021 93.1753C48.2911 93.1753 48.3789 93.1958 48.4587 93.2353L49.6827 93.946C49.867 94.0908 49.867 94.2487 49.6959 94.2487Z" fill="#1C2A40"/>
<path fill-rule="evenodd" clip-rule="evenodd" d="M52.882 92.4588L51.5659 93.209C51.4861 93.2484 51.3982 93.2689 51.3092 93.2689C51.2201 93.2689 51.1324 93.2484 51.0526 93.209L49.8285 92.4982C49.6706 92.4061 49.6574 92.2745 49.8285 92.1955L51.1447 91.4453C51.2262 91.4037 51.3165 91.382 51.408 91.382C51.4995 91.382 51.5896 91.4037 51.6711 91.4453L52.8952 92.156C53.0005 92.2481 53.0137 92.3798 52.882 92.4588Z" fill="#1C2A40"/>
<path fill-rule="evenodd" clip-rule="evenodd" d="M56.0694 90.6159L54.7532 91.3661C54.6734 91.4056 54.5857 91.4261 54.4967 91.4261C54.4076 91.4261 54.3197 91.4056 54.2399 91.3661L53.016 90.6554C52.8581 90.5633 52.8449 90.4316 53.016 90.3527L54.3322 89.6025C54.4137 89.5609 54.5038 89.5392 54.5953 89.5392C54.6868 89.5392 54.7771 89.5609 54.8586 89.6025L56.0826 90.3132C56.1879 90.4054 56.201 90.5369 56.0694 90.6159Z" fill="#1C2A40"/>
<path fill-rule="evenodd" clip-rule="evenodd" d="M59.2544 88.7735L57.9383 89.5237C57.8568 89.5653 57.7666 89.587 57.6751 89.587C57.5836 89.587 57.4933 89.5653 57.4118 89.5237L56.1879 88.813C56.03 88.7208 56.0168 88.5893 56.1879 88.5103L57.504 87.7601C57.5855 87.7185 57.6757 87.6968 57.7672 87.6968C57.8587 87.6968 57.9488 87.7185 58.0304 87.7601L59.2544 88.4708C59.3729 88.5629 59.3992 88.6946 59.2544 88.7735Z" fill="#1C2A40"/>
<path fill-rule="evenodd" clip-rule="evenodd" d="M62.4534 86.9309L61.1373 87.6811C61.0558 87.7227 60.9655 87.7444 60.874 87.7444C60.7825 87.7444 60.6923 87.7227 60.6108 87.6811L59.3867 86.9704C60.4061 86.8727 61.4319 86.8596 62.4534 86.9309Z" fill="#1C2A40"/>
<path fill-rule="evenodd" clip-rule="evenodd" d="M36.9699 105.344L35.6537 106.094C35.5739 106.133 35.4861 106.154 35.3971 106.154C35.308 106.154 35.2202 106.133 35.1404 106.094L33.9164 105.383C33.7585 105.291 33.7453 105.159 33.9164 105.08L35.2325 104.33C35.3141 104.289 35.4043 104.267 35.4958 104.267C35.5873 104.267 35.6775 104.289 35.759 104.33L36.983 105.041C37.0752 105.133 37.1015 105.265 36.9699 105.344Z" fill="#1C2A40"/>
<path fill-rule="evenodd" clip-rule="evenodd" d="M33.7726 107.186L32.4565 107.936C32.3767 107.976 32.2888 107.996 32.1998 107.996C32.1108 107.996 32.0229 107.976 31.9431 107.936L30.7191 107.226C30.5612 107.134 30.548 107.002 30.7191 106.923L32.0353 106.173C32.1168 106.131 32.207 106.11 32.2985 106.11C32.39 106.11 32.4802 106.131 32.5617 106.173L33.7858 106.884C33.8911 106.976 33.9042 107.107 33.7726 107.186Z" fill="#1C2A40"/>
<path fill-rule="evenodd" clip-rule="evenodd" d="M40.1549 103.462L38.8388 104.212C38.7573 104.254 38.667 104.275 38.5755 104.275C38.484 104.275 38.3938 104.254 38.3123 104.212L37.0883 103.501C36.9303 103.409 36.9172 103.277 37.0883 103.198L38.4044 102.448C38.4859 102.407 38.5762 102.385 38.6677 102.385C38.7592 102.385 38.8494 102.407 38.9309 102.448L40.1549 103.159C40.2734 103.291 40.2865 103.462 40.1549 103.462Z" fill="#1C2A40"/>
<path fill-rule="evenodd" clip-rule="evenodd" d="M43.2858 101.672L41.9696 102.422C41.8881 102.464 41.7979 102.485 41.7064 102.485C41.6149 102.485 41.5246 102.464 41.4431 102.422L40.2191 101.711C40.0612 101.619 40.048 101.487 40.2191 101.408L41.5353 100.658C41.6168 100.617 41.707 100.595 41.7985 100.595C41.89 100.595 41.9803 100.617 42.0618 100.658L43.2858 101.369C43.4569 101.448 43.47 101.593 43.2858 101.672Z" fill="#1C2A40"/>
<path fill-rule="evenodd" clip-rule="evenodd" d="M46.524 99.8289L45.2079 100.579C45.1264 100.621 45.0362 100.642 44.9447 100.642C44.8532 100.642 44.7629 100.621 44.6814 100.579L43.4574 99.8684C43.2995 99.7763 43.2863 99.6446 43.4574 99.5656L44.7736 98.8154C44.8551 98.7738 44.9453 98.7522 45.0368 98.7522C45.1283 98.7522 45.2185 98.7738 45.3 98.8154L46.524 99.5262C46.6425 99.6183 46.6557 99.7499 46.524 99.8289Z" fill="#1C2A40"/>
<path fill-rule="evenodd" clip-rule="evenodd" d="M49.7115 97.9864L48.3954 98.7366C48.3139 98.7781 48.2237 98.7999 48.1322 98.7999C48.0407 98.7999 47.9504 98.7781 47.8689 98.7366L46.6449 98.0259C46.487 97.9337 46.4738 97.8021 46.6449 97.7232L47.9611 96.973C48.0409 96.9335 48.1287 96.913 48.2177 96.913C48.3067 96.913 48.3946 96.9335 48.4744 96.973L49.6984 97.6837C49.8695 97.7758 49.8695 97.9075 49.7115 97.9864Z" fill="#1C2A40"/>
<path fill-rule="evenodd" clip-rule="evenodd" d="M52.8952 96.1438L51.5791 96.8941C51.4976 96.9356 51.4073 96.9574 51.3158 96.9574C51.2242 96.9574 51.1341 96.9356 51.0526 96.8941L49.8285 96.1833C49.6706 96.0912 49.6574 95.9596 49.8285 95.8806L51.1447 95.1304C51.2245 95.0909 51.3124 95.0705 51.4014 95.0705C51.4904 95.0705 51.5782 95.0909 51.658 95.1304L52.882 95.8412C53.0137 95.9333 53.0268 96.0649 52.8952 96.1438Z" fill="#1C2A40"/>
<path fill-rule="evenodd" clip-rule="evenodd" d="M56.0811 94.2487L54.765 94.9989C54.6852 95.0384 54.5974 95.0588 54.5084 95.0588C54.4194 95.0588 54.3315 95.0384 54.2517 94.9989L53.0277 94.2882C52.8698 94.1961 52.8566 94.0644 53.0277 93.9855L54.3439 93.2353C54.4237 93.1958 54.5114 93.1753 54.6004 93.1753C54.6895 93.1753 54.7774 93.1958 54.8572 93.2353L56.0811 93.946C56.1996 94.0908 56.2259 94.2487 56.0811 94.2487Z" fill="#1C2A40"/>
<path fill-rule="evenodd" clip-rule="evenodd" d="M59.28 92.4587L57.9638 93.2089C57.8823 93.2505 57.792 93.2721 57.7005 93.2721C57.609 93.2721 57.5189 93.2505 57.4374 93.2089L56.2133 92.4981C56.0553 92.406 56.0422 92.2744 56.2133 92.1954L57.5294 91.4452C57.6092 91.4058 57.6971 91.3852 57.7862 91.3852C57.8752 91.3852 57.9629 91.4058 58.0427 91.4452L59.2668 92.1559C59.3853 92.248 59.4116 92.3929 59.28 92.4587Z" fill="#1C2A40"/>
<path fill-rule="evenodd" clip-rule="evenodd" d="M62.4639 90.6294L61.1478 91.3796C61.068 91.4191 60.9802 91.4395 60.8912 91.4395C60.8022 91.4395 60.7144 91.4191 60.6346 91.3796L59.4105 90.6689C59.2526 90.5768 59.2394 90.4451 59.4105 90.3662L60.7267 89.616C60.8082 89.5744 60.8983 89.5527 60.9898 89.5527C61.0814 89.5527 61.1717 89.5744 61.2532 89.616L62.4771 90.3267C62.5692 90.4189 62.5955 90.5504 62.4639 90.6294Z" fill="#1C2A40"/>
<path fill-rule="evenodd" clip-rule="evenodd" d="M64.3455 87.7732L65.5695 88.4839C65.7275 88.576 65.7406 88.7076 65.5695 88.7866L64.2534 89.5368C64.1736 89.5763 64.0857 89.5968 63.9967 89.5968C63.9076 89.5968 63.8199 89.5763 63.7401 89.5368L62.516 88.8261C62.3581 88.734 62.3449 88.6024 62.516 88.5234L63.8322 87.7732C63.9122 87.7347 64 87.7148 64.0889 87.7148C64.1777 87.7148 64.2654 87.7347 64.3455 87.7732Z" fill="#1C2A40"/>
<path fill-rule="evenodd" clip-rule="evenodd" d="M39.9816 107.094L38.6654 107.844C38.5856 107.884 38.4978 107.904 38.4088 107.904C38.3198 107.904 38.2319 107.884 38.1521 107.844L36.9281 107.134C36.7702 107.041 36.757 106.91 36.9281 106.831L38.2443 106.081C38.3258 106.039 38.416 106.017 38.5075 106.017C38.599 106.017 38.6892 106.039 38.7708 106.081L39.9947 106.791C40.1 106.884 40.1132 107.015 39.9816 107.094Z" fill="#1C2A40"/>
<path fill-rule="evenodd" clip-rule="evenodd" d="M36.7975 108.937L35.4813 109.687C35.3998 109.729 35.3096 109.75 35.2181 109.75C35.1266 109.75 35.0364 109.729 34.9549 109.687L33.7309 108.976C33.5729 108.884 33.5598 108.753 33.7309 108.674L35.047 107.923C35.1285 107.882 35.2187 107.86 35.3102 107.86C35.4018 107.86 35.492 107.882 35.5735 107.923L36.7975 108.634C36.9159 108.726 36.9291 108.858 36.7975 108.937Z" fill="#1C2A40"/>
<path fill-rule="evenodd" clip-rule="evenodd" d="M43.1822 105.252L41.866 106.002C41.7845 106.043 41.6943 106.065 41.6028 106.065C41.5113 106.065 41.4211 106.043 41.3396 106.002L40.1156 105.291C39.9577 105.199 39.9445 105.067 40.1156 104.988L41.4318 104.238C41.5133 104.197 41.6034 104.175 41.6949 104.175C41.7864 104.175 41.8767 104.197 41.9582 104.238L43.1822 104.949C43.2875 105.041 43.2875 105.173 43.1822 105.252Z" fill="#1C2A40"/>
<path fill-rule="evenodd" clip-rule="evenodd" d="M46.3673 103.462L45.0512 104.212C44.9697 104.253 44.8794 104.275 44.7879 104.275C44.6964 104.275 44.6062 104.253 44.5247 104.212L43.2875 103.462C43.1296 103.37 43.1164 103.238 43.2875 103.159L44.6036 102.409C44.6834 102.369 44.7713 102.349 44.8603 102.349C44.9493 102.349 45.0371 102.369 45.117 102.409L46.341 103.119C46.4857 103.198 46.4989 103.33 46.3673 103.462Z" fill="#1C2A40"/>
<path fill-rule="evenodd" clip-rule="evenodd" d="M49.5533 101.567L48.2372 102.317C48.1557 102.358 48.0655 102.38 47.974 102.38C47.8825 102.38 47.7922 102.358 47.7107 102.317L46.4867 101.606C46.3288 101.514 46.3156 101.382 46.4867 101.303L47.8029 100.553C47.8827 100.514 47.9705 100.493 48.0595 100.493C48.1485 100.493 48.2364 100.514 48.3162 100.553L49.5402 101.264C49.6718 101.356 49.685 101.488 49.5533 101.567Z" fill="#1C2A40"/>
<path fill-rule="evenodd" clip-rule="evenodd" d="M52.7375 99.737L51.4214 100.487C51.3416 100.527 51.2537 100.547 51.1646 100.547C51.0756 100.547 50.9878 100.527 50.908 100.487L49.684 99.7765C49.526 99.6844 49.5129 99.5527 49.684 99.4737L51.0001 98.7236C51.0816 98.682 51.1719 98.6603 51.2634 98.6603C51.355 98.6603 51.4451 98.682 51.5266 98.7236L52.7505 99.4343C52.8558 99.5133 52.8691 99.658 52.7375 99.737Z" fill="#1C2A40"/>
<path fill-rule="evenodd" clip-rule="evenodd" d="M55.9224 97.8945L54.6063 98.6447C54.5248 98.6863 54.4346 98.708 54.3431 98.708C54.2516 98.708 54.1613 98.6863 54.0798 98.6447L52.8559 97.934C52.6979 97.8418 52.6848 97.7103 52.8559 97.6313L54.172 96.8811C54.2518 96.8416 54.3396 96.8211 54.4286 96.8211C54.5176 96.8211 54.6055 96.8416 54.6853 96.8811L55.9092 97.5918C56.0408 97.6839 56.054 97.8156 55.9224 97.8945Z" fill="#1C2A40"/>
<path fill-rule="evenodd" clip-rule="evenodd" d="M59.0811 96.0517L57.765 96.8019C57.6852 96.8414 57.5974 96.862 57.5084 96.862C57.4194 96.862 57.3315 96.8414 57.2517 96.8019L56.0277 96.0913C55.8698 95.9991 55.8566 95.8675 56.0277 95.7885L57.3439 95.0383C57.4254 94.9967 57.5155 94.9751 57.607 94.9751C57.6985 94.9751 57.7887 94.9967 57.8702 95.0383L59.0943 95.7491C59.2259 95.8412 59.239 95.9728 59.0811 96.0517Z" fill="#1C2A40"/>
<path fill-rule="evenodd" clip-rule="evenodd" d="M62.294 94.2488L60.9779 94.999C60.8981 95.0385 60.8103 95.0589 60.7213 95.0589C60.6323 95.0589 60.5445 95.0385 60.4647 94.999L59.2406 94.2883C59.0827 94.1962 59.0695 94.0645 59.2406 93.9855L60.5568 93.2353C60.6383 93.1937 60.7284 93.1721 60.8199 93.1721C60.9114 93.1721 61.0017 93.1937 61.0833 93.2353L62.3072 93.9461C62.4125 93.9988 62.4388 94.1303 62.294 94.2488Z" fill="#1C2A40"/>
<path fill-rule="evenodd" clip-rule="evenodd" d="M65.479 92.3664L64.1629 93.1166C64.0814 93.1582 63.9913 93.1799 63.8997 93.1799C63.8082 93.1799 63.7179 93.1582 63.6364 93.1166L62.4125 92.4058C62.2546 92.3137 62.2414 92.1821 62.4125 92.1031L63.7286 91.3529C63.8084 91.3135 63.8962 91.293 63.9852 91.293C64.0742 91.293 64.1621 91.3135 64.242 91.3529L65.4659 92.0637C65.6633 92.1558 65.6633 92.3006 65.479 92.3664Z" fill="#1C2A40"/>
<path fill-rule="evenodd" clip-rule="evenodd" d="M68.677 90.5372L67.3608 91.2874C67.281 91.3268 67.1931 91.3474 67.1041 91.3474C67.0151 91.3474 66.9273 91.3268 66.8475 91.2874L65.6234 90.5767C65.4655 90.4846 65.4523 90.3529 65.6234 90.2739L66.9396 89.5237C67.0211 89.4821 67.1114 89.4605 67.2029 89.4605C67.2944 89.4605 67.3846 89.4821 67.4661 89.5237L68.6901 90.2345C68.7823 90.3003 68.8086 90.4582 68.677 90.5372Z" fill="#1C2A40"/>
<path fill-rule="evenodd" clip-rule="evenodd" d="M71.819 88.3917C71.977 88.4838 71.9901 88.6155 71.819 88.6945L70.5029 89.4446C70.4214 89.4862 70.3311 89.5079 70.2396 89.5079C70.1481 89.5079 70.0579 89.4862 69.9764 89.4446L68.7523 88.7339C68.5944 88.6418 68.5812 88.5102 68.7523 88.4312L70.0685 87.681C70.6737 87.8604 71.2601 88.0984 71.819 88.3917Z" fill="#1C2A40"/>
<path fill-rule="evenodd" clip-rule="evenodd" d="M43.0142 108.845L41.6981 109.595C41.6166 109.636 41.5264 109.658 41.4349 109.658C41.3434 109.658 41.2532 109.636 41.1717 109.595L39.9477 108.884C39.7897 108.792 39.7766 108.66 39.9477 108.581L41.2638 107.831C41.3436 107.792 41.4314 107.771 41.5205 107.771C41.6095 107.771 41.6972 107.792 41.777 107.831L43.0011 108.542C43.1327 108.621 43.1458 108.726 43.0142 108.845Z" fill="#1C2A40"/>
<path fill-rule="evenodd" clip-rule="evenodd" d="M39.8248 110.674L38.5087 111.424C38.4272 111.466 38.337 111.488 38.2454 111.488C38.1539 111.488 38.0637 111.466 37.9822 111.424L36.7582 110.714C36.6003 110.622 36.5871 110.49 36.7582 110.411L38.0743 109.661C38.1559 109.619 38.2461 109.597 38.3376 109.597C38.4291 109.597 38.5193 109.619 38.6008 109.661L39.8248 110.371C39.9433 110.464 39.9564 110.595 39.8248 110.674Z" fill="#1C2A40"/>
<path fill-rule="evenodd" clip-rule="evenodd" d="M46.1959 107.002L44.8798 107.752C44.7983 107.794 44.708 107.816 44.6165 107.816C44.525 107.816 44.4348 107.794 44.3533 107.752L43.1293 107.042C42.9714 106.949 42.9582 106.818 43.1293 106.739L44.4454 105.989C44.5269 105.947 44.6172 105.925 44.7087 105.925C44.8002 105.925 44.8904 105.947 44.9719 105.989L46.1959 106.699C46.3144 106.792 46.3275 106.923 46.1959 107.002Z" fill="#1C2A40"/>
<path fill-rule="evenodd" clip-rule="evenodd" d="M49.3932 105.159L48.077 105.909C47.9955 105.951 47.9053 105.973 47.8138 105.973C47.7223 105.973 47.6321 105.951 47.5506 105.909L46.3266 105.199C46.1686 105.107 46.1555 104.975 46.3266 104.896L47.6427 104.146C47.7242 104.104 47.8144 104.083 47.9059 104.083C47.9975 104.083 48.0877 104.104 48.1692 104.146L49.3932 104.857C49.4985 104.949 49.5248 105.08 49.3932 105.159Z" fill="#1C2A40"/>
<path fill-rule="evenodd" clip-rule="evenodd" d="M52.5808 103.317L51.2646 104.067C51.1831 104.109 51.0928 104.13 51.0013 104.13C50.9098 104.13 50.8196 104.109 50.7381 104.067L49.5141 103.356C49.3561 103.264 49.343 103.133 49.5141 103.054L50.8302 102.303C50.91 102.264 50.9978 102.243 51.0869 102.243C51.1759 102.243 51.2637 102.264 51.3435 102.303L52.5676 103.014C52.686 103.106 52.7124 103.238 52.5808 103.317Z" fill="#1C2A40"/>
<path fill-rule="evenodd" clip-rule="evenodd" d="M55.7647 101.474L54.4486 102.224C54.3688 102.264 54.281 102.284 54.192 102.284C54.103 102.284 54.015 102.264 53.9352 102.224L52.7113 101.514C52.5534 101.421 52.5402 101.29 52.7113 101.211L54.0275 100.461C54.109 100.419 54.1991 100.397 54.2906 100.397C54.3821 100.397 54.4724 100.419 54.554 100.461L55.7779 101.171C55.8832 101.263 55.8963 101.395 55.7647 101.474Z" fill="#1C2A40"/>
<path fill-rule="evenodd" clip-rule="evenodd" d="M62.1333 97.8022L60.8172 98.5524C60.7357 98.594 60.6455 98.6157 60.554 98.6157C60.4625 98.6157 60.3724 98.594 60.2909 98.5524L59.0668 97.8417C58.9089 97.7495 58.8957 97.618 59.0668 97.539L60.3829 96.7888C60.4627 96.7493 60.5507 96.7289 60.6397 96.7289C60.7287 96.7289 60.8164 96.7493 60.8962 96.7888L62.1203 97.4995C62.2519 97.5916 62.265 97.7233 62.1333 97.8022Z" fill="#1C2A40"/>
<path fill-rule="evenodd" clip-rule="evenodd" d="M65.3194 95.9595L64.0032 96.7097C63.9234 96.7492 63.8357 96.7697 63.7467 96.7697C63.6576 96.7697 63.5697 96.7492 63.4899 96.7097L62.266 95.999C62.1081 95.9069 62.0949 95.7752 62.266 95.6963L63.5822 94.9461C63.6637 94.9045 63.7538 94.8828 63.8453 94.8828C63.9368 94.8828 64.027 94.9045 64.1085 94.9461L65.3326 95.6568C65.4379 95.749 65.451 95.8805 65.3194 95.9595Z" fill="#1C2A40"/>
<path fill-rule="evenodd" clip-rule="evenodd" d="M68.5051 94.1171L67.189 94.8673C67.1092 94.9067 67.0212 94.9273 66.9322 94.9273C66.8432 94.9273 66.7554 94.9067 66.6756 94.8673L65.4516 94.1566C65.2936 94.0644 65.2805 93.9329 65.4516 93.8539L66.7677 93.1037C66.8492 93.0621 66.9395 93.0404 67.031 93.0404C67.1225 93.0404 67.2127 93.0621 67.2942 93.1037L68.5183 93.8144C68.6236 93.9065 68.6499 94.0382 68.5051 94.1171Z" fill="#1C2A40"/>
<path fill-rule="evenodd" clip-rule="evenodd" d="M71.6919 92.2746L70.3758 93.0248C70.2943 93.0664 70.2041 93.0881 70.1126 93.0881C70.0211 93.0881 69.931 93.0664 69.8495 93.0248L68.6254 92.3141C68.4675 92.222 68.4543 92.0903 68.6254 92.0114L69.9415 91.2612C70.023 91.2196 70.1132 91.1979 70.2047 91.1979C70.2962 91.1979 70.3865 91.2196 70.468 91.2612L71.6919 91.9719C71.8104 92.0641 71.8367 92.1956 71.6919 92.2746Z" fill="#1C2A40"/>
<path fill-rule="evenodd" clip-rule="evenodd" d="M74.8736 90.445L73.5574 91.1952C73.4759 91.2368 73.3858 91.2585 73.2943 91.2585C73.2028 91.2585 73.1125 91.2368 73.0309 91.1952L71.807 90.4845C71.6491 90.3924 71.6359 90.2607 71.807 90.1817L73.1232 89.4316C73.2047 89.39 73.2948 89.3683 73.3863 89.3683C73.4778 89.3683 73.568 89.39 73.6495 89.4316L74.8736 90.1423C74.992 90.2212 75.0184 90.3002 74.8736 90.445Z" fill="#1C2A40"/>
<path fill-rule="evenodd" clip-rule="evenodd" d="M78.0726 88.6024L76.7564 89.3526C76.6749 89.3942 76.5846 89.4158 76.4931 89.4158C76.4016 89.4158 76.3114 89.3942 76.2299 89.3526L75.0059 88.6418C76.0253 88.5456 77.051 88.5324 78.0726 88.6024Z" fill="#1C2A40"/>
<path fill-rule="evenodd" clip-rule="evenodd" d="M46.2081 110.687L44.8919 111.437C44.8121 111.477 44.7244 111.497 44.6353 111.497C44.5463 111.497 44.4585 111.477 44.3787 111.437L43.1547 110.727C42.9968 110.634 42.9836 110.503 43.1547 110.424L44.4708 109.674C44.5523 109.632 44.6425 109.61 44.734 109.61C44.8255 109.61 44.9157 109.632 44.9972 109.674L46.2212 110.384C46.3265 110.476 46.3397 110.608 46.2081 110.687Z" fill="#1C2A40"/>
<path fill-rule="evenodd" clip-rule="evenodd" d="M43.024 112.53L41.7079 113.28C41.6264 113.322 41.5362 113.343 41.4447 113.343C41.3532 113.343 41.263 113.322 41.1815 113.28L39.9574 112.569C39.7995 112.477 39.7863 112.346 39.9574 112.267L41.2736 111.516C41.3534 111.477 41.4412 111.456 41.5302 111.456C41.6192 111.456 41.7071 111.477 41.7869 111.516L43.0109 112.227C43.1425 112.319 43.1557 112.451 43.024 112.53Z" fill="#1C2A40"/>
<path fill-rule="evenodd" clip-rule="evenodd" d="M49.4054 108.845L48.0893 109.595C48.0095 109.634 47.9216 109.655 47.8326 109.655C47.7436 109.655 47.6558 109.634 47.576 109.595L46.352 108.884C46.194 108.792 46.1809 108.66 46.352 108.581L47.6681 107.831C47.7496 107.79 47.8398 107.768 47.9313 107.768C48.0228 107.768 48.113 107.79 48.1945 107.831L49.4185 108.542C49.5106 108.634 49.537 108.726 49.4054 108.845Z" fill="#1C2A40"/>
<path fill-rule="evenodd" clip-rule="evenodd" d="M52.5904 107.002L51.2742 107.752C51.1927 107.794 51.1026 107.816 51.0111 107.816C50.9196 107.816 50.8293 107.794 50.7478 107.752L49.5238 107.042C49.3659 106.949 49.3527 106.818 49.5238 106.739L50.84 105.989C50.9215 105.947 51.0117 105.925 51.1032 105.925C51.1947 105.925 51.2849 105.947 51.3665 105.989L52.5904 106.699C52.7088 106.792 52.722 106.923 52.5904 107.002Z" fill="#1C2A40"/>
<path fill-rule="evenodd" clip-rule="evenodd" d="M55.7779 105.159L54.4617 105.909C54.3802 105.951 54.2901 105.973 54.1986 105.973C54.1071 105.973 54.0168 105.951 53.9352 105.909L52.7113 105.199C52.5534 105.107 52.5402 104.975 52.7113 104.896L54.0275 104.146C54.109 104.104 54.1991 104.083 54.2906 104.083C54.3821 104.083 54.4724 104.104 54.554 104.146L55.7779 104.857C55.8963 104.949 55.9095 105.093 55.7779 105.159Z" fill="#1C2A40"/>
<path fill-rule="evenodd" clip-rule="evenodd" d="M68.5168 97.8022L67.2007 98.5524C67.1209 98.5919 67.033 98.6124 66.9439 98.6124C66.8549 98.6124 66.7672 98.5919 66.6874 98.5524L65.4633 97.8417C65.3053 97.7495 65.2922 97.618 65.4633 97.539L66.7794 96.7888C66.8592 96.7493 66.9471 96.7289 67.0362 96.7289C67.1252 96.7289 67.2129 96.7493 67.2927 96.7888L68.5168 97.4995C68.6353 97.5916 68.6616 97.7233 68.5168 97.8022Z" fill="#1C2A40"/>
<path fill-rule="evenodd" clip-rule="evenodd" d="M71.7173 95.9729L70.4012 96.7231C70.3197 96.7647 70.2295 96.7864 70.138 96.7864C70.0465 96.7864 69.9562 96.7647 69.8747 96.7231L68.6508 96.0124C68.4928 95.9203 68.4797 95.7886 68.6508 95.7097L69.9669 94.9595C70.0467 94.92 70.1345 94.8995 70.2235 94.8995C70.3125 94.8995 70.4004 94.92 70.4802 94.9595L71.7042 95.6702C71.8226 95.7492 71.8489 95.8939 71.7173 95.9729Z" fill="#1C2A40"/>
<path fill-rule="evenodd" clip-rule="evenodd" d="M74.876 94.1302L73.5599 94.8804C73.4801 94.9199 73.3923 94.9404 73.3033 94.9404C73.2143 94.9404 73.1264 94.9199 73.0466 94.8804L71.8227 94.1697C71.6647 94.0776 71.6516 93.946 71.8227 93.867L73.1388 93.1168C73.2203 93.0752 73.3104 93.0535 73.402 93.0535C73.4935 93.0535 73.5836 93.0752 73.6651 93.1168L74.8892 93.8275C75.0208 93.9196 75.034 94.0512 74.876 94.1302Z" fill="#1C2A40"/>
<path fill-rule="evenodd" clip-rule="evenodd" d="M78.0889 92.2875L76.7728 93.0377C76.693 93.0772 76.6052 93.0976 76.5162 93.0976C76.4272 93.0976 76.3394 93.0772 76.2596 93.0377L75.0355 92.3269C74.8776 92.2348 74.8644 92.1032 75.0355 92.0243L76.3517 91.2741C76.4332 91.2325 76.5233 91.2108 76.6148 91.2108C76.7064 91.2108 76.7967 91.2325 76.8782 91.2741L78.1021 91.9848C78.2074 92.077 78.2205 92.2085 78.0889 92.2875Z" fill="#1C2A40"/>
<path fill-rule="evenodd" clip-rule="evenodd" d="M81.274 90.4449L79.9578 91.1951C79.8763 91.2367 79.7862 91.2584 79.6947 91.2584C79.6032 91.2584 79.5129 91.2367 79.4313 91.1951L78.2074 90.4844C78.0495 90.3923 78.0363 90.2606 78.2074 90.1816L79.5236 89.4315C79.6034 89.392 79.6911 89.3715 79.7801 89.3715C79.8692 89.3715 79.9571 89.392 80.0369 89.4315L81.2608 90.1422C81.3924 90.3001 81.4582 90.3659 81.274 90.4449Z" fill="#1C2A40"/>
<path fill-rule="evenodd" clip-rule="evenodd" d="M84.4554 88.6026L83.1392 89.3528C83.0577 89.3944 82.9674 89.416 82.8759 89.416C82.7844 89.416 82.6943 89.3944 82.6128 89.3528L81.3887 88.642C82.408 88.5442 83.4338 88.5311 84.4554 88.6026Z" fill="#1C2A40"/>
<path fill-rule="evenodd" clip-rule="evenodd" d="M49.235 112.438L47.9188 113.188C47.8373 113.229 47.7471 113.251 47.6556 113.251C47.5641 113.251 47.4739 113.229 47.3924 113.188L46.1684 112.477C46.0104 112.385 45.9973 112.253 46.1684 112.174L47.4845 111.424C47.566 111.383 47.6562 111.361 47.7477 111.361C47.8393 111.361 47.9295 111.383 48.011 111.424L49.235 112.135C49.3534 112.227 49.3666 112.359 49.235 112.438Z" fill="#1C2A40"/>
<path fill-rule="evenodd" clip-rule="evenodd" d="M46.0557 114.267L44.7396 115.017C44.6598 115.057 44.572 115.077 44.483 115.077C44.394 115.077 44.3061 115.057 44.2263 115.017L43.0023 114.307C42.8444 114.215 42.8312 114.083 43.0023 114.004L44.3185 113.254C44.4 113.212 44.4901 113.191 44.5816 113.191C44.6732 113.191 44.7634 113.212 44.8449 113.254L46.0689 113.965C46.1742 114.057 46.1873 114.201 46.0557 114.267Z" fill="#1C2A40"/>
<path fill-rule="evenodd" clip-rule="evenodd" d="M52.4249 110.595L51.1088 111.345C51.029 111.385 50.9412 111.405 50.8521 111.405C50.7631 111.405 50.6753 111.385 50.5955 111.345L49.3715 110.635C49.2135 110.543 49.2004 110.411 49.3715 110.332L50.6876 109.582C50.7691 109.54 50.8594 109.518 50.9509 109.518C51.0424 109.518 51.1326 109.54 51.2141 109.582L52.438 110.292C52.5038 110.385 52.5038 110.516 52.4249 110.595Z" fill="#1C2A40"/>
<path fill-rule="evenodd" clip-rule="evenodd" d="M55.6197 108.726L54.3035 109.477C54.222 109.518 54.1319 109.54 54.0404 109.54C53.9489 109.54 53.8586 109.518 53.777 109.477L52.5531 108.766C52.3952 108.674 52.382 108.542 52.5531 108.463L53.8693 107.713C53.9508 107.671 54.0409 107.65 54.1324 107.65C54.2239 107.65 54.3141 107.671 54.3956 107.713L55.6197 108.424C55.725 108.542 55.7513 108.726 55.6197 108.726Z" fill="#1C2A40"/>
<path fill-rule="evenodd" clip-rule="evenodd" d="M74.7317 97.7101L73.4155 98.4604C73.3357 98.4998 73.2478 98.5203 73.1588 98.5203C73.0698 98.5203 72.982 98.4998 72.9022 98.4604L71.6781 97.7496C71.5202 97.6575 71.507 97.5259 71.6781 97.4469L72.9943 96.6967C73.0758 96.6551 73.1661 96.6334 73.2576 96.6334C73.3491 96.6334 73.4392 96.6551 73.5208 96.6967L74.7448 97.4075C74.8764 97.4996 74.8764 97.6312 74.7317 97.7101Z" fill="#1C2A40"/>
<path fill-rule="evenodd" clip-rule="evenodd" d="M77.9187 95.8675L76.6025 96.6177C76.521 96.6593 76.4307 96.681 76.3392 96.681C76.2477 96.681 76.1575 96.6593 76.076 96.6177L74.852 95.9071C74.694 95.8149 74.6809 95.6833 74.852 95.6044L76.1681 94.8542C76.2479 94.8147 76.3358 94.7942 76.4248 94.7942C76.5138 94.7942 76.6016 94.8147 76.6814 94.8542L77.9055 95.5649C78.0371 95.657 78.0634 95.8017 77.9187 95.8675Z" fill="#1C2A40"/>
<path fill-rule="evenodd" clip-rule="evenodd" d="M81.1124 94.0381L79.7962 94.7882C79.7164 94.8277 79.6287 94.8482 79.5396 94.8482C79.4506 94.8482 79.3627 94.8277 79.2829 94.7882L78.059 94.0775C77.901 93.9854 77.8879 93.8538 78.059 93.7748L79.3751 93.0246C79.4566 92.983 79.5468 92.9613 79.6383 92.9613C79.7298 92.9613 79.8199 92.983 79.9014 93.0246L81.1255 93.7353C81.2308 93.8275 81.244 93.9591 81.1124 94.0381Z" fill="#1C2A40"/>
<path fill-rule="evenodd" clip-rule="evenodd" d="M84.2976 92.1955L82.9814 92.9457C82.8999 92.9873 82.8096 93.009 82.7181 93.009C82.6266 93.009 82.5364 92.9873 82.4549 92.9457L81.2309 92.235C81.0729 92.1428 81.0598 92.0112 81.2309 91.9323L82.547 91.1821C82.6285 91.1405 82.7188 91.1188 82.8103 91.1188C82.9018 91.1188 82.992 91.1405 83.0735 91.1821L84.2976 91.8928C84.416 91.985 84.4292 92.1165 84.2976 92.1955Z" fill="#1C2A40"/>
<path fill-rule="evenodd" clip-rule="evenodd" d="M87.4849 90.3003L86.1688 91.0505C86.0873 91.0921 85.9971 91.1138 85.9056 91.1138C85.8141 91.1138 85.7239 91.0921 85.6424 91.0505L84.4184 90.3398C84.2604 90.2477 84.2473 90.116 84.4184 90.0371L85.7345 89.2869C85.8143 89.2474 85.9021 89.2269 85.9911 89.2269C86.0801 89.2269 86.168 89.2474 86.2478 89.2869L87.4717 89.9976C87.6033 90.1424 87.6165 90.3003 87.4849 90.3003Z" fill="#1C2A40"/>
<path fill-rule="evenodd" clip-rule="evenodd" d="M52.2622 114.175L50.9462 114.925C50.8647 114.967 50.7745 114.988 50.6829 114.988C50.5914 114.988 50.5012 114.967 50.4197 114.925L49.1957 114.214C49.0378 114.122 49.0246 113.991 49.1957 113.912L50.5118 113.162C50.5934 113.12 50.6836 113.098 50.7751 113.098C50.8666 113.098 50.9568 113.12 51.0383 113.162L52.2622 113.872C52.3807 113.991 52.3939 114.096 52.2622 114.175Z" fill="#1C2A40"/>
<path fill-rule="evenodd" clip-rule="evenodd" d="M55.4497 112.332L54.1336 113.083C54.0521 113.124 53.962 113.146 53.8704 113.146C53.7789 113.146 53.6886 113.124 53.6071 113.083L52.3832 112.372C52.2253 112.28 52.2121 112.148 52.3832 112.069L53.6993 111.319C53.7791 111.28 53.8669 111.259 53.9559 111.259C54.0449 111.259 54.1329 111.28 54.2127 111.319L55.4366 112.03C55.5682 112.122 55.5814 112.267 55.4497 112.332Z" fill="#1C2A40"/>
<path fill-rule="evenodd" clip-rule="evenodd" d="M80.9424 97.6179L79.6263 98.3681C79.5465 98.4075 79.4587 98.4281 79.3697 98.4281C79.2807 98.4281 79.1928 98.4075 79.113 98.3681L77.8891 97.6574C77.7311 97.5653 77.718 97.4336 77.8891 97.3546L79.2052 96.6044C79.2867 96.5628 79.3769 96.5412 79.4684 96.5412C79.5599 96.5412 79.65 96.5628 79.7315 96.6044L80.9556 97.3152C81.0609 97.4073 81.0872 97.5389 80.9424 97.6179Z" fill="#1C2A40"/>
<path fill-rule="evenodd" clip-rule="evenodd" d="M84.0845 95.7754L82.7684 96.5256C82.6869 96.5672 82.5967 96.5889 82.5052 96.5889C82.4137 96.5889 82.3234 96.5672 82.2419 96.5256L81.018 95.8149C80.86 95.7228 80.8469 95.5912 81.018 95.5122L82.3341 94.762C82.4156 94.7204 82.5058 94.6987 82.5973 94.6987C82.6888 94.6987 82.7789 94.7204 82.8604 94.762L84.0845 95.4727C84.2424 95.5648 84.2688 95.6964 84.0845 95.7754Z" fill="#1C2A40"/>
<path fill-rule="evenodd" clip-rule="evenodd" d="M94.067 35.8385L47.3704 62.7929L0.673828 35.8385L47.3704 8.88397L94.067 35.8385Z" fill="#FEFEFE"/>
<path fill-rule="evenodd" clip-rule="evenodd" d="M1.97666 35.8384L47.3834 62.0559L92.777 35.8384L47.3703 9.62097L1.96348 35.8384H1.97666ZM47.3308 63.5826L46.9754 63.3194L0.015625 36.2201V35.4699L0.331485 35.2725L47.344 8.13373L47.673 8.29166L94.7249 35.4568V36.207L94.3959 36.4175L47.3308 63.5826Z" fill="#1C2A40"/>
<path fill-rule="evenodd" clip-rule="evenodd" d="M47.3573 116.728L0.673828 89.7738V35.8121L47.3704 62.7667V116.728H47.3573Z" fill="#AFC3D5"/>
<path fill-rule="evenodd" clip-rule="evenodd" d="M1.31614 89.392L46.7229 115.61V63.1746L1.31614 36.9702V89.392ZM47.381 117.478L47.0125 117.294L0 90.1423V35.4699L0.684418 35.0882L1.02663 35.2988L48.0259 62.4376V117.11L47.381 117.478Z" fill="#1C2A40"/>
<path fill-rule="evenodd" clip-rule="evenodd" d="M94.0774 89.7738L47.3809 116.728V62.7667L94.0774 35.8121V89.7738Z" fill="#1C2A40"/>
<path fill-rule="evenodd" clip-rule="evenodd" d="M48.1313 63.2403V115.438L93.3012 89.3394V37.1413L48.1049 63.2403H48.1313ZM47.3811 117.61L46.6309 117.149V62.4375L46.9336 62.2006L94.0645 35.0223L94.8411 35.4435V90.3001L94.4462 90.5107L47.3811 117.61Z" fill="#1C2A40"/>
<path fill-rule="evenodd" clip-rule="evenodd" d="M62.6094 97.8153V54.896H63.6228V94.8276L65.0048 93.0114L66.2551 94.0774L68.3741 91.2214L69.8876 92.5112L71.9539 89.3393L73.2701 90.5765L75.2706 87.3915L76.5604 88.7734L77.6528 87.4441V46.1963H78.6663V87.7995L76.6262 90.3001L75.4285 89.0366L73.4675 92.1559L72.1382 90.9055L70.0982 94.0248L68.5452 92.6955L66.413 95.5515L65.1627 94.4723L62.6094 97.8153Z" fill="#AFC3D5"/>
<path fill-rule="evenodd" clip-rule="evenodd" d="M83.7475 69.4658L76.1138 73.8749C74.8767 74.5856 73.8633 74.0065 73.8633 72.5588V60.2002C73.8968 59.4104 74.1185 58.64 74.5099 57.9532C74.9014 57.2664 75.4513 56.6831 76.1138 56.2518L83.7475 51.8428C84.9847 51.1321 85.998 51.7112 85.998 53.1589V65.5174C85.9646 66.3072 85.7429 67.0777 85.3514 67.7645C84.9599 68.4513 84.41 69.0346 83.7475 69.4658Z" fill="#1C2A40"/>
<path fill-rule="evenodd" clip-rule="evenodd" d="M84.7465 52.1322C84.4804 52.1461 84.2222 52.2276 83.9964 52.3691L76.3627 56.7783C75.7869 57.1628 75.3078 57.6754 74.9631 58.2759C74.6183 58.8764 74.4171 59.5484 74.3754 60.2396V72.5982C74.3189 72.7884 74.3282 72.992 74.4019 73.1762C74.4755 73.3605 74.6091 73.5145 74.781 73.6134C74.953 73.7123 75.1534 73.7503 75.3496 73.7214C75.5459 73.6924 75.7266 73.5981 75.8626 73.4537L83.4963 69.0446C84.0745 68.6615 84.5561 68.1496 84.9032 67.549C85.2503 66.9484 85.4534 66.2755 85.4967 65.5831V53.2247C85.5197 53.035 85.4944 52.8427 85.4231 52.6655C85.3517 52.4883 85.2367 52.332 85.0887 52.2112C84.9878 52.1567 84.8744 52.1294 84.7597 52.1322H84.7465ZM75.0993 74.7041C74.8081 74.7036 74.5221 74.6263 74.2701 74.4803C73.9621 74.2755 73.715 73.9913 73.5552 73.6577C73.3953 73.3241 73.3285 72.9534 73.3619 72.585V60.2265C73.4028 59.3576 73.6511 58.511 74.0862 57.7576C74.5212 57.0043 75.1304 56.3661 75.8626 55.8964L83.4963 51.4874C83.7882 51.2506 84.1451 51.1081 84.5198 51.0787C84.8946 51.0493 85.2695 51.1344 85.5948 51.3228C85.9201 51.5111 86.1805 51.7938 86.3416 52.1334C86.5027 52.473 86.5569 52.8536 86.4969 53.2247V65.5831C86.456 66.4521 86.2077 67.2987 85.7727 68.052C85.3376 68.8054 84.7286 69.4436 83.9964 69.9133L76.3627 74.3223C75.98 74.5494 75.5443 74.672 75.0993 74.6777V74.7041Z" fill="#AFC3D5"/>
<path fill-rule="evenodd" clip-rule="evenodd" d="M87.8945 81.9561L84.0777 84.1672C83.4591 84.5226 82.959 84.233 82.959 83.5223V77.3365C82.9796 76.9468 83.0916 76.5674 83.2859 76.229C83.4803 75.8907 83.7515 75.6027 84.0777 75.3885L87.8945 73.1906C88.5131 72.8352 89.0132 73.1248 89.0132 73.8355V80.0214C88.9916 80.409 88.8791 80.7861 88.6848 81.1222C88.4905 81.4583 88.2197 81.7439 87.8945 81.9561Z" fill="#1C2A40"/>
<path fill-rule="evenodd" clip-rule="evenodd" d="M88.4062 73.5326C88.3176 73.5374 88.2314 73.5646 88.1561 73.6116L84.3393 75.8095C84.0895 75.9798 83.8818 76.2045 83.7313 76.4666C83.5809 76.7288 83.4918 77.0216 83.4707 77.3231V83.509C83.4707 83.7064 83.4706 83.7853 83.5496 83.7985C83.6286 83.8116 83.6682 83.7985 83.8393 83.7195L87.6559 81.5216C87.9064 81.352 88.1148 81.1275 88.2653 80.8652C88.4159 80.6029 88.5046 80.3097 88.5246 80.008V73.8221C88.5246 73.6247 88.5247 73.5458 88.4458 73.5326H88.4062ZM83.5891 84.8119C83.3995 84.8131 83.213 84.7631 83.0495 84.6671C82.8613 84.5403 82.7091 84.3671 82.6076 84.1641C82.5062 83.9612 82.459 83.7356 82.4704 83.509V77.3231C82.4866 76.8504 82.6141 76.3882 82.8429 75.9742C83.0716 75.5602 83.395 75.2061 83.7866 74.9409L87.6034 72.7298C87.7884 72.5929 88.0093 72.5129 88.239 72.4996C88.4687 72.4862 88.6973 72.54 88.8969 72.6545C89.0965 72.769 89.2585 72.9391 89.363 73.1441C89.4675 73.3491 89.5101 73.5802 89.4854 73.8089V79.9948C89.4693 80.4675 89.3417 80.9297 89.113 81.3437C88.8843 81.7577 88.5609 82.1118 88.1693 82.377L84.3524 84.575C84.1197 84.7226 83.8514 84.8045 83.576 84.8119H83.5891Z" fill="#AFC3D5"/>
<path fill-rule="evenodd" clip-rule="evenodd" d="M75.0304 80.2975C72.6613 81.6136 70.7266 80.5607 70.7266 77.81V75.2961C70.8074 73.8034 71.2393 72.3509 71.9871 71.0565C72.7349 69.7621 73.7776 68.6625 75.0304 67.8468C77.4126 66.5307 79.3342 67.5836 79.3342 70.3343V72.8481C79.2533 74.3408 78.8214 75.7934 78.0736 77.0877C77.3258 78.3821 76.2831 79.4819 75.0304 80.2975Z" fill="#1C2A40"/>
<path fill-rule="evenodd" clip-rule="evenodd" d="M76.9522 67.7678C76.3589 67.7958 75.7831 67.9772 75.2808 68.2943C74.1017 69.0631 73.1203 70.0989 72.416 71.3176C71.7118 72.5364 71.3044 73.9038 71.227 75.3092V77.8231C71.1212 78.2698 71.1623 78.7387 71.3443 79.1601C71.5263 79.5815 71.8395 79.9328 72.2372 80.162C72.635 80.3912 73.0961 80.4859 73.5519 80.432C74.0078 80.3782 74.4341 80.1787 74.7675 79.8631C75.9466 79.0943 76.928 78.0585 77.6322 76.8398C78.3365 75.621 78.7438 74.2535 78.8211 72.8481V70.3343C78.8726 69.8892 78.8061 69.4384 78.6282 69.0271C78.4503 68.6159 78.1673 68.2588 77.8077 67.9915C77.5437 67.8398 77.2434 67.7625 76.939 67.7678H76.9522ZM73.1091 81.3898C72.6472 81.386 72.1941 81.2637 71.793 81.0345C71.2753 80.6816 70.8617 80.1963 70.5954 79.6291C70.3292 79.0619 70.2201 78.4337 70.2794 77.8099V75.2961C70.3648 73.7146 70.8216 72.1756 71.6127 70.8036C72.4039 69.4316 73.5072 68.2653 74.8332 67.3992C75.3238 66.9974 75.9252 66.7547 76.5573 66.7034C77.1893 66.6521 77.822 66.7946 78.371 67.112C78.9199 67.4294 79.3592 67.9065 79.6301 68.4798C79.901 69.0532 79.9907 69.6955 79.8873 70.3211V72.8349C79.8019 74.4163 79.345 75.9554 78.5538 77.3274C77.7626 78.6994 76.6593 79.8657 75.3333 80.7317C74.6642 81.1463 73.8961 81.3735 73.1091 81.3898Z" fill="#AFC3D5"/>
<path d="M37.5266 56.6618L36.8691 57.0496L41.3032 64.5651L41.9606 64.1772L37.5266 56.6618Z" fill="#1C2A40"/>
<path d="M34.095 55.4022L33.4375 55.79L41.3335 69.1787L41.991 68.7909L34.095 55.4022Z" fill="#1C2A40"/>
<path d="M34.1476 59.7404L33.4902 60.1282L41.3886 73.5155L42.046 73.1277L34.1476 59.7404Z" fill="#1C2A40"/>
<path d="M34.1868 64.27L33.5293 64.6579L41.4276 78.0452L42.0851 77.6573L34.1868 64.27Z" fill="#1C2A40"/>
<path fill-rule="evenodd" clip-rule="evenodd" d="M41.473 82.5351L33.5762 69.15L34.2211 68.7551L42.1311 82.1534L41.473 82.5351Z" fill="#1C2A40"/>
<path fill-rule="evenodd" clip-rule="evenodd" d="M41.5082 86.8913L33.6113 73.493L34.2694 73.1113L42.1662 86.5096L41.5082 86.8913Z" fill="#1C2A40"/>
<path fill-rule="evenodd" clip-rule="evenodd" d="M41.5511 91.3795L33.6543 77.9812L34.3124 77.5995L42.2092 90.9846L41.5511 91.3795Z" fill="#1C2A40"/>
<path d="M34.0296 78.608L33.373 78.9973L41.3003 92.3648L41.9568 91.9754L34.0296 78.608Z" fill="#1C2A40"/>
<path d="M34.3898 86.5506L33.7324 86.9384L41.6307 100.326L42.2882 99.9379L34.3898 86.5506Z" fill="#1C2A40"/>
<path d="M34.4446 91.2939L33.7871 91.6818L41.6854 105.069L42.3429 104.681L34.4446 91.2939Z" fill="#1C2A40"/>
<path d="M34.4816 95.7317L33.8242 96.1196L41.7225 109.507L42.3799 109.119L34.4816 95.7317Z" fill="#1C2A40"/>
<path d="M34.5325 100.215L33.875 100.603L41.7733 113.99L42.4308 113.602L34.5325 100.215Z" fill="#1C2A40"/>
<path d="M34.5676 104.768L33.9102 105.156L37.5283 111.288L38.1857 110.9L34.5676 104.768Z" fill="#1C2A40"/>
<path d="M27.7864 91.713C29.2279 90.8808 29.2269 88.1801 27.784 85.681C26.3412 83.1819 24.0029 81.8307 22.5613 82.663C21.1198 83.4952 21.1208 86.1958 22.5637 88.6949C24.0066 91.194 26.3448 92.5453 27.7864 91.713Z" fill="#AFC3D5"/>
<path fill-rule="evenodd" clip-rule="evenodd" d="M23.5482 82.8114C23.2991 82.8082 23.0537 82.8719 22.8375 82.9956C21.653 83.68 21.745 86.1281 23.0217 88.3392C23.5916 89.4127 24.4306 90.3198 25.4566 90.9714C25.7541 91.1954 26.1049 91.3374 26.4744 91.3836C26.8438 91.4298 27.2189 91.3785 27.5624 91.2347C28.7469 90.5503 28.6548 88.1023 27.3781 85.8912C26.8082 84.8176 25.9692 83.9106 24.9433 83.2589C24.5233 82.9967 24.0428 82.8471 23.5482 82.8245V82.8114ZM26.8517 92.3665C26.1759 92.3436 25.5179 92.1439 24.9433 91.7874C23.7716 91.0612 22.8062 90.0461 22.1399 88.8393C20.5342 86.0491 20.6132 83.101 22.3242 82.1139C22.8198 81.8735 23.3711 81.7711 23.9199 81.8174C24.4688 81.8638 24.9951 82.057 25.4434 82.377C26.6155 83.1028 27.581 84.1181 28.2468 85.3252C29.8525 88.1154 29.7735 91.0636 28.0625 92.0507C27.6863 92.266 27.2587 92.3751 26.8253 92.3665H26.8517Z" fill="#1C2A40"/>
<path fill-rule="evenodd" clip-rule="evenodd" d="M17.0722 74.6513L9.92558 70.5581C9.4691 70.2618 9.08915 69.8617 8.81694 69.3905C8.54473 68.9193 8.38797 68.3903 8.35938 67.8469V59.5946C8.35938 58.5944 9.05693 58.1995 9.92558 58.6865L17.0722 62.806C17.5287 63.1023 17.9086 63.5024 18.1808 63.9736C18.453 64.4449 18.6098 64.9738 18.6384 65.5173V73.7695C18.6253 74.7434 17.9277 75.1514 17.0722 74.6513Z" fill="#AFC3D5"/>
<path fill-rule="evenodd" clip-rule="evenodd" d="M9.2239 58.9629C9.1721 58.9495 9.11777 58.9495 9.06597 58.9629C8.98627 59.0349 8.92539 59.1253 8.88868 59.2263C8.85197 59.3272 8.8406 59.4356 8.85542 59.542V67.7942C8.88559 68.2474 9.02002 68.6875 9.24832 69.0802C9.47662 69.4729 9.79262 69.8075 10.1716 70.0579L17.3182 74.1906C17.3908 74.2706 17.4885 74.3234 17.5952 74.3403C17.7019 74.3571 17.8111 74.3369 17.9048 74.2832C17.9985 74.2294 18.0711 74.1453 18.1104 74.0447C18.1497 73.944 18.1534 73.833 18.121 73.7299V65.4778C18.0908 65.0246 17.9563 64.5844 17.728 64.1918C17.4997 63.7991 17.1838 63.4644 16.8049 63.214L9.65825 59.0945C9.52362 59.0094 9.36969 58.9596 9.21073 58.9497L9.2239 58.9629ZM17.7656 75.3751C17.4311 75.367 17.1045 75.2718 16.818 75.0988L9.67142 70.9792C9.13901 70.6386 8.69616 70.175 8.38011 69.6277C8.06405 69.0803 7.88401 68.4651 7.85515 67.8336V59.5814C7.82277 59.2993 7.87406 59.014 8.00263 58.7609C8.1312 58.5077 8.33133 58.2979 8.5782 58.1576C8.82508 58.0174 9.10777 57.9528 9.39107 57.9719C9.67436 57.9911 9.94581 58.0931 10.1716 58.2653L17.3182 62.3848C17.8506 62.7255 18.2934 63.189 18.6095 63.7364C18.9256 64.2838 19.1056 64.899 19.1345 65.5304V73.7826C19.1542 74.0652 19.0989 74.3479 18.974 74.6021C18.8492 74.8564 18.6593 75.0731 18.4237 75.2303C18.2206 75.3349 17.9938 75.3848 17.7656 75.3751Z" fill="#1C2A40"/>
<path fill-rule="evenodd" clip-rule="evenodd" d="M79.4433 36.7334L72.2968 40.853C71.8134 41.0981 71.279 41.2259 70.7371 41.2259C70.1951 41.2259 69.6609 41.0981 69.1775 40.853L62.0308 36.7334C61.8403 36.6718 61.6742 36.5513 61.5564 36.3893C61.4386 36.2273 61.375 36.0322 61.375 35.8319C61.375 35.6316 61.4386 35.4365 61.5564 35.2745C61.6742 35.1125 61.8403 34.992 62.0308 34.9303L69.1775 30.7977C69.6609 30.5525 70.1951 30.4248 70.7371 30.4248C71.279 30.4248 71.8134 30.5525 72.2968 30.7977L79.4433 34.9303C79.6339 34.992 79.8001 35.1125 79.9179 35.2745C80.0357 35.4365 80.0991 35.6316 80.0991 35.8319C80.0991 36.0322 80.0357 36.2273 79.9179 36.3893C79.8001 36.5513 79.6339 36.6718 79.4433 36.7334Z" fill="#AFC3D5"/>
<path fill-rule="evenodd" clip-rule="evenodd" d="M70.7293 30.9292C70.272 30.9169 69.8191 31.0211 69.4132 31.2319L62.2666 35.3646C62.0165 35.5094 61.8717 35.6804 61.8717 35.8252C61.8717 35.97 62.0165 36.1543 62.2666 36.2859L69.4132 40.4054C69.8222 40.6084 70.2727 40.714 70.7293 40.714C71.1859 40.714 71.6364 40.6084 72.0454 40.4054L79.1921 36.2859C79.4422 36.1411 79.5869 35.97 79.5869 35.8252C79.5869 35.6804 79.4422 35.5094 79.1921 35.3646L72.0454 31.2319C71.6405 31.0183 71.1869 30.9139 70.7293 30.9292ZM70.7293 41.7347C70.0967 41.7471 69.4715 41.5976 68.913 41.3004L61.7665 37.1809C61.5145 37.0654 61.3009 36.88 61.1511 36.6467C61.0014 36.4134 60.9219 36.142 60.9219 35.8647C60.9219 35.5875 61.0014 35.3161 61.1511 35.0828C61.3009 34.8495 61.5145 34.6641 61.7665 34.5486L68.913 30.4159C69.4743 30.1251 70.0972 29.9734 70.7293 29.9734C71.3614 29.9734 71.9843 30.1251 72.5456 30.4159L79.6923 34.5486C79.9443 34.6641 80.1579 34.8495 80.3076 35.0828C80.4573 35.3161 80.5369 35.5875 80.5369 35.8647C80.5369 36.142 80.4573 36.4134 80.3076 36.6467C80.1579 36.88 79.9443 37.0654 79.6923 37.1809L72.5456 41.3004C71.9873 41.5982 71.3619 41.7476 70.7293 41.7347Z" fill="#1C2A40"/>
<path fill-rule="evenodd" clip-rule="evenodd" d="M74.613 41.6032L71.362 43.4852C71.1418 43.5973 70.8984 43.6558 70.6514 43.6558C70.4043 43.6558 70.1608 43.5973 69.9406 43.4852L66.6898 41.6032C66.6061 41.5726 66.5338 41.5171 66.4827 41.4441C66.4316 41.3711 66.4043 41.2842 66.4043 41.1952C66.4043 41.1061 66.4316 41.0192 66.4827 40.9462C66.5338 40.8732 66.6061 40.8177 66.6898 40.7872L69.9406 38.9051C70.1608 38.793 70.4043 38.7346 70.6514 38.7346C70.8984 38.7346 71.1418 38.793 71.362 38.9051L74.613 40.7872C74.6966 40.8177 74.7688 40.8732 74.8199 40.9462C74.871 41.0192 74.8983 41.1061 74.8983 41.1952C74.8983 41.2842 74.871 41.3711 74.8199 41.4441C74.7688 41.5171 74.6966 41.5726 74.613 41.6032Z" fill="#AFC3D5"/>
<path fill-rule="evenodd" clip-rule="evenodd" d="M66.9814 41.2345L70.1797 43.0903C70.324 43.1574 70.4812 43.1922 70.6403 43.1922C70.7995 43.1922 70.9567 43.1574 71.101 43.0903L74.2992 41.2345L71.101 39.3788C70.9569 39.3108 70.7996 39.2756 70.6403 39.2756C70.4811 39.2756 70.3238 39.3108 70.1797 39.3788L66.9814 41.2345ZM70.6403 44.209C70.305 44.2147 69.9739 44.133 69.6796 43.9721L66.4286 42.0901C66.2663 42.0154 66.1288 41.8957 66.0324 41.7453C65.936 41.5948 65.8848 41.4198 65.8848 41.2411C65.8848 41.0624 65.936 40.8875 66.0324 40.7371C66.1288 40.5866 66.2663 40.467 66.4286 40.3923L69.6796 38.5102C69.9772 38.3512 70.3095 38.268 70.6469 38.268C70.9844 38.268 71.3166 38.3512 71.6143 38.5102L74.8651 40.3923C75.0274 40.467 75.1649 40.5866 75.2613 40.7371C75.3577 40.8875 75.4089 41.0624 75.4089 41.2411C75.4089 41.4198 75.3577 41.5948 75.2613 41.7453C75.1649 41.8957 75.0274 42.0154 74.8651 42.0901L71.6143 43.9721C71.3186 44.1445 70.9826 44.2353 70.6403 44.2354V44.209Z" fill="#1C2A40"/>
<path fill-rule="evenodd" clip-rule="evenodd" d="M21.9498 67.3203L23.4765 71.7557C23.6543 72.2754 23.9788 72.7326 24.4109 73.0718L27.8066 75.612C28.82 76.3754 29.228 78.06 28.491 78.4548L26.0298 79.771C25.8706 79.8926 25.7516 80.0594 25.6883 80.2494C25.6249 80.4395 25.6201 80.6442 25.6745 80.8371L26.2536 85.0882C26.4247 86.4043 25.3586 86.6413 24.4505 85.562L21.4102 81.9557C21.2762 81.7677 21.1035 81.6106 20.9037 81.4948C20.7039 81.379 20.4817 81.3074 20.252 81.2846L17.2117 81.3766C16.3036 81.3766 15.2375 79.8895 15.4086 78.8234L15.9877 75.2435C16.0349 74.7264 15.91 74.2082 15.6323 73.7694L13.1711 69.5841C12.4341 68.2679 12.8421 67.1097 13.8556 67.5309L17.2511 68.926C17.4082 69.0167 17.5949 69.0413 17.7702 68.9944C17.9454 68.9475 18.0948 68.8329 18.1856 68.6759L19.7124 66.0437C20.173 65.2277 21.4891 65.991 21.9498 67.3203Z" fill="#FEFEFE"/>
<path fill-rule="evenodd" clip-rule="evenodd" d="M20.2707 80.8107C20.5706 80.834 20.862 80.9212 21.1254 81.0665C21.3887 81.2118 21.6179 81.4118 21.7974 81.6531L24.8377 85.2593C25.2325 85.7199 25.5484 85.7858 25.6537 85.7332C25.759 85.6805 25.7985 85.4962 25.759 85.1803L25.1799 80.9292C25.1078 80.6343 25.1286 80.3243 25.2393 80.0416C25.35 79.759 25.5453 79.5174 25.7985 79.3498L28.2597 78.0337C28.3518 78.0337 28.365 77.7968 28.3781 77.7442C28.3718 77.4133 28.2917 77.088 28.1437 76.792C27.9957 76.496 27.7836 76.2367 27.5227 76.0331L24.127 73.493C23.6152 73.0885 23.2312 72.5446 23.0214 71.9268L21.4947 67.4914C21.4249 67.1917 21.2811 66.9142 21.0765 66.6843C20.8719 66.4544 20.613 66.2794 20.3234 66.1753C20.2954 66.1663 20.265 66.1681 20.2383 66.1803C20.2115 66.1924 20.1903 66.2141 20.1786 66.2411L18.6519 68.8733C18.4998 69.1364 18.2523 69.3309 17.9608 69.4166C17.6693 69.5024 17.356 69.4728 17.0857 69.334L13.69 67.9389C13.5848 67.9389 13.4663 67.86 13.4136 67.9389C13.361 68.0179 13.2426 68.6102 13.6243 69.2551L16.0854 73.4404C16.426 73.9813 16.5744 74.6211 16.5066 75.2567L15.9275 78.8365C15.9168 79.1137 15.9613 79.3904 16.0584 79.6502C16.1556 79.91 16.3035 80.1479 16.4934 80.3501C16.6785 80.5753 16.9331 80.7328 17.2173 80.7976L20.2576 80.7055L20.2707 80.8107ZM25.5353 86.7597C25.2362 86.7348 24.9461 86.6454 24.6848 86.4977C24.4236 86.3501 24.1973 86.1476 24.0217 85.9042L20.9814 82.298C20.8929 82.1702 20.7798 82.0614 20.6487 81.9778C20.5176 81.8942 20.3712 81.8375 20.218 81.811L17.1778 81.9032C16.8798 81.8839 16.5894 81.8011 16.3261 81.6604C16.0628 81.5196 15.8326 81.3242 15.6511 81.0872C15.3604 80.7749 15.1386 80.4049 15.0003 80.0012C14.862 79.5976 14.8102 79.1694 14.8483 78.7444L15.4274 75.1645C15.4572 74.7616 15.3555 74.3598 15.1378 74.0195L12.6766 69.821C12.4073 69.4616 12.2532 69.0291 12.2344 68.5804C12.2156 68.1317 12.333 67.6879 12.5713 67.3072C12.7472 67.1145 12.9813 66.9844 13.2379 66.9369C13.4944 66.8894 13.7595 66.927 13.9927 67.044L17.3884 68.4391C17.6253 68.5312 17.6779 68.4391 17.6911 68.4391L19.2178 65.8068C19.3246 65.6091 19.4884 65.4481 19.6879 65.3448C19.8875 65.2415 20.1135 65.2007 20.3365 65.2277C20.8177 65.3414 21.2596 65.5821 21.6161 65.9247C21.9726 66.2673 22.2306 66.6993 22.3634 67.1756L23.8901 71.6109C24.0355 72.0403 24.3003 72.4193 24.6535 72.7034L28.0491 75.2303C28.4616 75.5332 28.7962 75.9298 29.025 76.3876C29.2539 76.8453 29.3705 77.3509 29.3652 77.8626C29.362 78.0853 29.3024 78.3035 29.1919 78.4969C29.0815 78.6902 28.9237 78.8524 28.7335 78.9682L26.2723 80.2843C26.2723 80.2843 26.1275 80.4949 26.167 80.8371L26.7461 85.0882C26.829 85.3972 26.8051 85.725 26.6786 86.0188C26.552 86.3126 26.3301 86.5551 26.0486 86.7071C25.9008 86.7589 25.7443 86.7813 25.5879 86.7729L25.5353 86.7597Z" fill="#1C2A40"/>
<path fill-rule="evenodd" clip-rule="evenodd" d="M24.6775 63.4245H23.3613V48.947L70.3869 21.7819L71.045 22.9138L24.6775 49.7103V63.4245Z" fill="#1C2A40"/>
<path fill-rule="evenodd" clip-rule="evenodd" d="M20.9133 1.50024C19.1148 1.42942 17.3349 1.88697 15.7935 2.81638C13.1613 4.52736 12.0557 7.7914 12.49 12.2531C14.5169 33.0086 43.5378 34.0615 48.2232 34.101C48.1889 28.0409 46.5544 22.0975 43.4852 16.872C40.416 11.6465 36.021 7.32441 30.7449 4.34311C27.7537 2.59221 24.3767 1.60668 20.9133 1.47393V1.50024ZM48.5522 35.4435C44.6828 35.4435 13.4114 34.7327 11.2398 12.411C10.6212 6.1199 13.0165 3.19806 15.1223 1.75031C18.9391 -0.763513 25.1776 -0.210754 31.4293 3.21121C37.0127 6.36182 41.6454 10.9571 44.8411 16.5149C48.0368 22.0727 49.6778 28.3881 49.592 34.7986V35.4303H48.5522V35.4435Z" fill="#1C2A40"/>
<path fill-rule="evenodd" clip-rule="evenodd" d="M49.4746 35.1145C49.4746 35.1145 49.4746 35.1803 49.4746 35.1935C49.7379 35.5225 51.7646 37.0887 65.7552 35.4962C76.6923 34.2458 86.5897 27.0466 87.3926 19.7025C87.919 14.8196 84.2338 10.7791 77.0082 8.29162C74.9684 7.49915 72.778 7.16952 70.5953 7.32657C68.4125 7.48362 66.2919 8.12343 64.3865 9.19976C53.581 15.3856 49.5404 34.667 49.5009 34.8513L49.4351 35.0356L49.4746 35.1145ZM55.4894 37.5231C49.4352 37.5231 48.6849 36.3385 48.3822 35.8647C48.2503 35.6741 48.1711 35.4519 48.1526 35.2208C48.1341 34.9897 48.177 34.7578 48.2769 34.5486C48.6191 32.9429 52.6992 14.438 63.768 8.10735C65.8342 6.93448 68.1351 6.23518 70.5045 6.05992C72.8739 5.88466 75.2526 6.23784 77.4688 7.09393C88.0769 10.7396 89.0773 16.6754 88.7351 19.8868C87.8664 27.8626 77.6399 35.4436 65.9526 36.7729C62.4814 37.2161 58.9883 37.4666 55.4894 37.5231Z" fill="#1C2A40"/>
<path fill-rule="evenodd" clip-rule="evenodd" d="M51.2744 54.2379C50.95 54.2565 50.625 54.2565 50.3006 54.2379C48.6115 54.0723 47.0321 53.3258 45.832 52.1257C44.6319 50.9256 43.8855 49.3463 43.7199 47.6572L45.036 47.4335C45.7862 51.7767 48.7343 52.698 50.419 52.9349C53.0513 53.2376 55.8678 52.0005 56.6444 50.1842C57.4209 48.368 56.0915 47.0387 54.9202 46.0647C49.3924 41.5372 48.2211 38.0758 48.0895 36.2068C45.2729 38.0626 38.4817 41.7346 31.7167 39.2734C28.7291 38.1942 27.1365 38.3521 26.6364 38.8522C26.5411 38.9686 26.4817 39.1102 26.4653 39.2597C26.449 39.4093 26.4764 39.5603 26.5443 39.6946C26.7788 40.1636 27.1368 40.5597 27.5798 40.8403C28.0227 41.1209 28.5338 41.2754 29.0581 41.2871L28.9791 42.6033C28.2035 42.5766 27.4505 42.3347 26.8043 41.9047C26.1582 41.4747 25.6444 40.8735 25.3202 40.1684C25.1568 39.7992 25.1059 39.3901 25.1738 38.9922C25.2417 38.5942 25.4254 38.2251 25.7019 37.931C26.439 37.1808 28.1631 36.6148 32.1641 38.0362C39.2318 40.6685 46.6417 35.6409 48.0895 34.6143C48.2227 34.5221 48.3796 34.4702 48.5415 34.465C48.7034 34.4597 48.8634 34.5012 49.0023 34.5846C49.1412 34.6679 49.2531 34.7896 49.3246 34.9349C49.3962 35.0802 49.4243 35.243 49.4056 35.4039C49.2872 36.3516 49.4055 39.8393 55.7493 45.0513C58.6448 47.4335 58.3158 49.6051 57.8551 50.6975C56.9865 52.7638 54.1962 54.2379 51.2744 54.2379Z" fill="#1C2A40"/>
<path fill-rule="evenodd" clip-rule="evenodd" d="M91.7206 61.569C91.6648 61.569 91.6112 61.5912 91.5717 61.6307C91.5322 61.6702 91.51 61.7238 91.51 61.7797C91.51 62.0034 91.9179 62.0034 91.9179 61.7797C91.9179 61.7238 91.8957 61.6702 91.8562 61.6307C91.8167 61.5912 91.7633 61.569 91.7075 61.569H91.7206ZM91.7206 62.9905C91.4812 62.9905 91.2469 62.9195 91.0478 62.7864C90.8487 62.6534 90.6936 62.4643 90.602 62.243C90.5103 62.0218 90.4863 61.7783 90.533 61.5434C90.5797 61.3085 90.695 61.0928 90.8643 60.9234C91.0337 60.7541 91.2494 60.6388 91.4843 60.592C91.7192 60.5453 91.9627 60.5693 92.184 60.661C92.4052 60.7526 92.5943 60.9078 92.7273 61.1069C92.8604 61.306 92.9314 61.5402 92.9314 61.7797C92.9331 61.9398 92.9031 62.0986 92.843 62.247C92.7829 62.3955 92.6941 62.5305 92.5815 62.6443C92.4688 62.7582 92.3348 62.8486 92.187 62.9102C92.0393 62.9719 91.8808 63.0037 91.7206 63.0037V62.9905Z" fill="#1C2A40"/>
</svg>
