<svg width="36" height="35" viewBox="0 0 36 35" fill="none" xmlns="http://www.w3.org/2000/svg">
<path fill-rule="evenodd" clip-rule="evenodd" d="M18.0004 33.48C21.1846 33.48 24.2974 32.5357 26.9451 30.7666C29.5927 28.9975 31.6562 26.4832 32.8748 23.5413C34.0934 20.5994 34.4122 17.3621 33.791 14.239C33.1698 11.1159 31.6364 8.24725 29.3848 5.99562C27.1331 3.744 24.2644 2.2106 21.1413 1.58937C18.0182 0.968152 14.7811 1.28706 11.8392 2.50563C8.89728 3.7242 6.3828 5.78769 4.61371 8.43532C2.84462 11.083 1.90039 14.1956 1.90039 17.3799C1.90832 21.6474 3.60708 25.738 6.62469 28.7556C9.64231 31.7733 13.7328 33.4721 18.0004 33.48Z" fill="#FDFDFD" stroke="#1C2A40" stroke-width="2.0849" stroke-miterlimit="22.9256"/>
<path fill-rule="evenodd" clip-rule="evenodd" d="M18.0005 23.5701C19.2248 23.5701 20.4216 23.2071 21.4395 22.5269C22.4575 21.8467 23.2509 20.8799 23.7194 19.7488C24.1879 18.6177 24.3104 17.3731 24.0716 16.1724C23.8328 14.9717 23.2433 13.8686 22.3776 13.003C21.5119 12.1373 20.4089 11.5477 19.2081 11.3089C18.0074 11.07 16.7628 11.1927 15.6317 11.6612C14.5006 12.1297 13.5339 12.923 12.8538 13.941C12.1736 14.9589 11.8105 16.1556 11.8105 17.3799C11.8132 19.0208 12.4662 20.5939 13.6265 21.7542C14.7867 22.9145 16.3597 23.5675 18.0005 23.5701Z" fill="#1C2A40"/>
</svg>
