<svg width="53" height="34" viewBox="0 0 53 34" fill="none" xmlns="http://www.w3.org/2000/svg">
<path d="M46.3104 5.62988H4.90039V30.3899H46.3104V5.62988Z" fill="#FDFDFD"/>
<path fill-rule="evenodd" clip-rule="evenodd" d="M48.9998 7.47998H48.4697V6.92993C48.4697 5.33863 47.8376 3.81247 46.7124 2.68726C45.5872 1.56204 44.061 0.929932 42.4697 0.929932H6.25977C4.66847 0.929932 3.14231 1.56204 2.01709 2.68726C0.891872 3.81247 0.259766 5.33863 0.259766 6.92993V27.78C0.259766 29.3713 0.891872 30.8975 2.01709 32.0227C3.14231 33.1479 4.66847 33.78 6.25977 33.78H42.4697C44.061 33.78 45.5872 33.1479 46.7124 32.0227C47.8376 30.8975 48.4697 29.3713 48.4697 27.78V27.23H48.9998C49.504 27.23 50.0033 27.1307 50.4692 26.9377C50.9351 26.7448 51.3585 26.4618 51.7151 26.1052C52.0717 25.7486 52.3545 25.3253 52.5475 24.8594C52.7405 24.3935 52.8397 23.8942 52.8397 23.3899V11.3201C52.8397 10.3016 52.4352 9.32488 51.7151 8.60474C50.9949 7.8846 50.0182 7.47998 48.9998 7.47998ZM15.5498 25.5801C15.5498 26.0177 15.376 26.4374 15.0665 26.7468C14.7571 27.0563 14.3374 27.23 13.8998 27.23H8.40979C7.97218 27.23 7.55248 27.0563 7.24304 26.7468C6.93361 26.4374 6.75977 26.0177 6.75977 25.5801V9.11987C6.75977 8.68227 6.93361 8.2628 7.24304 7.95337C7.55248 7.64393 7.97218 7.46997 8.40979 7.46997H13.8998C14.3374 7.46997 14.7571 7.64393 15.0665 7.95337C15.376 8.2628 15.5498 8.68227 15.5498 9.11987V25.5801ZM28.7197 25.5801C28.7197 26.0177 28.5459 26.4374 28.2365 26.7468C27.927 27.0563 27.5073 27.23 27.0697 27.23H21.5797C21.1421 27.23 20.7225 27.0563 20.4131 26.7468C20.1037 26.4374 19.9298 26.0177 19.9298 25.5801V9.11987C19.9298 8.68227 20.1037 8.2628 20.4131 7.95337C20.7225 7.64393 21.1421 7.46997 21.5797 7.46997H26.9998C27.4374 7.46997 27.8571 7.64393 28.1665 7.95337C28.4759 8.2628 28.6498 8.68227 28.6498 9.11987V25.5801H28.7197ZM41.8898 25.5801C41.8898 26.0177 41.7159 26.4374 41.4065 26.7468C41.0971 27.0563 40.6774 27.23 40.2397 27.23H34.7498C34.3121 27.23 33.8924 27.0563 33.583 26.7468C33.2736 26.4374 33.0997 26.0177 33.0997 25.5801V9.11987C33.0997 8.68227 33.2736 8.2628 33.583 7.95337C33.8924 7.64393 34.3121 7.46997 34.7498 7.46997H40.2397C40.6774 7.46997 41.0971 7.64393 41.4065 7.95337C41.7159 8.2628 41.8898 8.68227 41.8898 9.11987V25.5801Z" fill="#1C2A40"/>
</svg>
