<svg width="16" height="16" viewBox="0 0 16 16" fill="none" xmlns="http://www.w3.org/2000/svg">
<path fill-rule="evenodd" clip-rule="evenodd" d="M5.25 10.9399V10.6099C5.27987 10.1152 5.4474 9.63869 5.73364 9.23407C6.01988 8.82945 6.41356 8.51283 6.87012 8.31995C7.03149 8.25129 7.19887 8.19769 7.37012 8.15991C7.92542 8.0336 8.50636 8.08612 9.03003 8.30994C9.49248 8.49962 9.89194 8.81623 10.1821 9.22321C10.4723 9.63018 10.6413 10.1109 10.6699 10.6099V10.9399C10.6334 11.6232 10.3323 12.2652 9.83008 12.7299C9.4415 13.0894 8.95755 13.3296 8.43628 13.4218C7.915 13.514 7.37821 13.4543 6.88989 13.2499C6.42744 13.0603 6.02823 12.7436 5.73804 12.3367C5.44785 11.9297 5.27863 11.449 5.25 10.95V10.9399ZM3.43994 7.59991V2.41992C3.4245 2.30047 3.4343 2.17914 3.46875 2.06372C3.5032 1.9483 3.5615 1.84138 3.63989 1.74994C3.71216 1.66515 3.80075 1.59578 3.90039 1.54596C4.00004 1.49614 4.10878 1.4669 4.21997 1.45996H11.6899C11.9095 1.47404 12.1146 1.57472 12.26 1.73993C12.3423 1.82747 12.4044 1.93183 12.4424 2.04578C12.4804 2.15973 12.4932 2.28059 12.48 2.39996V7.60992L11.54 7.00995L11.3 6.87994L11.05 6.73993L10.51 6.49994C9.52679 6.06688 8.45079 5.88669 7.38013 5.97577C6.30946 6.06485 5.27802 6.42036 4.37988 7.00995C4.02988 7.19995 3.67994 7.47991 3.43994 7.59991ZM0.25 10.7599C0.280543 10.8424 0.328157 10.9173 0.389893 10.9799L0.560059 11.2C0.680059 11.36 0.799922 11.4699 0.919922 11.6299L1.29004 12.0399C1.92189 12.7187 2.61487 13.338 3.36011 13.89C4.63421 14.9986 6.26616 15.6092 7.95508 15.6092C9.644 15.6092 11.2759 14.9986 12.55 13.89L13.8201 12.89C14.4896 12.252 15.1048 11.5596 15.6599 10.8199C15.0755 10.0649 14.4337 9.35609 13.74 8.69995C13.63 8.59995 13.56 8.62994 13.55 8.43994C13.55 7.88994 13.55 6.33992 13.55 5.72992C13.55 5.11992 13.55 2.40993 13.55 2.11993C13.4778 1.65833 13.2462 1.23656 12.8955 0.927856C12.5448 0.619155 12.0969 0.443003 11.6299 0.429932H4.28003C4.03263 0.433319 3.78823 0.484268 3.56006 0.579956C3.35426 0.656855 3.16683 0.776067 3.01001 0.929932C2.12001 1.66993 2.36011 2.79993 2.36011 3.92993C2.36011 5.35993 2.36011 7.04995 2.36011 8.44995C2.36011 8.66995 2.29996 8.60995 1.95996 8.94995L1.51001 9.39996L0.25 10.7599Z" fill="#AFC3D5"/>
</svg>
