<svg xmlns="http://www.w3.org/2000/svg" width="69.933" height="69.933" viewBox="0 0 69.933 69.933">
  <path id="Контур_2057" data-name="Контур 2057" d="M899,3673.123h58.956a5.5,5.5,0,0,1,5.488,5.487v58.957a5.5,5.5,0,0,1-5.488,5.489H899a5.505,5.505,0,0,1-5.488-5.489V3678.61a5.5,5.5,0,0,1,5.488-5.487Zm9.2,28.6h-5.624a1.346,1.346,0,0,0-1.344,1.34v5.623a1.347,1.347,0,0,0,1.344,1.345H908.2a1.344,1.344,0,0,0,1.34-1.345v-5.623a1.343,1.343,0,0,0-1.34-1.34Zm31.914,1.056a12.282,12.282,0,0,0-11.157-17.425H912.385a2.829,2.829,0,0,0-2.843,2.84v5.217h6.968a1.35,1.35,0,0,1,1.344,1.344v6.968h6.968a1.344,1.344,0,0,1,1.341,1.34v5.623a1.345,1.345,0,0,1-1.341,1.345h-6.968V3717a1.349,1.349,0,0,1-1.344,1.344h-6.968v9.562a2.837,2.837,0,0,0,.825,2.014l0,0a2.83,2.83,0,0,0,2.014.822h18.492a13.22,13.22,0,0,0,11.237-20.2,13.46,13.46,0,0,0-4.354-4.335A12.45,12.45,0,0,0,940.117,3702.783Z" transform="translate(-893.513 -3673.123)" fill="#fff" fill-rule="evenodd"/>
</svg>
