<svg width="60" height="60" viewBox="0 0 60 60" fill="none" xmlns="http://www.w3.org/2000/svg">
    <path fill-rule="evenodd" clip-rule="evenodd" d="M4.69928 0H55.2997C56.5444 0.00567096 57.7366 0.50307 58.6167 1.38325C59.4969 2.26344 59.9933 3.45663 59.9989 4.70138V55.3007C59.9933 56.5455 59.4969 57.7387 58.6167 58.6189C57.7366 59.499 56.5444 59.9943 55.2997 60H4.69928C3.45452 59.9943 2.26239 59.499 1.3822 58.6189C0.502017 57.7387 0.00567096 56.5455 0 55.3007V4.70138C0.00567096 3.45663 0.502017 2.26344 1.3822 1.38325C2.26239 0.50307 3.45452 0.00567096 4.69928 0ZM14.4663 24.5575H9.63647C9.33515 24.563 9.04741 24.6855 8.8343 24.8986C8.6212 25.1117 8.49981 25.3973 8.49428 25.6986V30.5285C8.49981 30.8298 8.6212 31.1175 8.8343 31.3306C9.04741 31.5437 9.33515 31.6662 9.63647 31.6717H14.4663C14.7676 31.6662 15.0543 31.5437 15.2674 31.3306C15.4805 31.1175 15.6029 30.8298 15.6085 30.5285V25.6565C15.6029 25.3552 15.4805 25.0675 15.2674 24.8544C15.0543 24.6413 14.7676 24.5188 14.4663 24.5133V24.5575ZM41.8461 25.4628C42.4967 24.0725 42.8351 22.5555 42.8377 21.0204C42.8352 19.6405 42.56 18.2762 42.0272 17.0033C41.4943 15.7304 40.7146 14.5754 39.7333 13.6052C38.7534 12.6265 37.5909 11.8498 36.311 11.3208C35.031 10.7918 33.6588 10.5216 32.2738 10.5228H18.0444C17.7241 10.5211 17.4068 10.5818 17.1107 10.7039C16.8146 10.8261 16.546 11.0053 16.3201 11.2324C16.093 11.4583 15.9127 11.7279 15.7906 12.024C15.6684 12.3201 15.6067 12.6385 15.6085 12.9588V17.4433H21.5805C21.8818 17.4489 22.1695 17.5692 22.3826 17.7823C22.5957 17.9954 22.7182 18.2831 22.7237 18.5845V24.5575H28.6957C28.997 24.563 29.2837 24.6855 29.4968 24.8986C29.7099 25.1117 29.8324 25.3973 29.8379 25.6986V30.5285C29.8324 30.8298 29.7099 31.1175 29.4968 31.3306C29.2837 31.5437 28.997 31.6662 28.6957 31.6717H22.7237V37.6426C22.7182 37.944 22.5957 38.2317 22.3826 38.4448C22.1695 38.6579 21.8818 38.7803 21.5805 38.7859H15.6085V47.0012C15.6079 47.3213 15.6706 47.6379 15.7927 47.9339C15.9148 48.2298 16.094 48.4989 16.3201 48.7255V48.7255C16.546 48.9526 16.8146 49.1318 17.1107 49.254C17.4068 49.3761 17.7241 49.4389 18.0444 49.4372H33.9129C35.4039 49.4359 36.88 49.139 38.2564 48.5655C39.6327 47.992 40.8816 47.1537 41.9324 46.0959C42.9902 45.045 43.8307 43.7941 44.4042 42.4177C44.9776 41.0414 45.2735 39.5653 45.2748 38.0743C45.2801 35.9563 44.6898 33.8809 43.5715 32.0823C42.6318 30.5686 41.3554 29.2912 39.8417 28.3515C40.6657 27.4982 41.3424 26.5157 41.8461 25.4418V25.4628Z" fill="#1C2A40"/>
</svg>
