<svg width="260" height="40" viewBox="0 0 260 40" fill="none" xmlns="http://www.w3.org/2000/svg">
<path fill-rule="evenodd" clip-rule="evenodd" d="M65.4358 32.5573C62.7542 32.5511 60.1847 31.4808 58.2917 29.5813C56.3988 27.6819 55.3373 25.1087 55.3403 22.4271V8.5141C55.3403 8.21597 55.4588 7.93006 55.6696 7.71926C55.8804 7.50845 56.1663 7.39001 56.4644 7.39001C56.7625 7.39001 57.0484 7.50845 57.2592 7.71926C57.47 7.93006 57.5885 8.21597 57.5885 8.5141V22.4271C57.5885 24.5089 58.4154 26.5054 59.8875 27.9774C61.3595 29.4494 63.356 30.2764 65.4377 30.2764C67.5195 30.2764 69.5159 29.4494 70.9879 27.9774C72.46 26.5054 73.2869 24.5089 73.2869 22.4271V8.5141C73.3316 8.24358 73.4708 7.99769 73.6799 7.8203C73.8889 7.6429 74.1542 7.54551 74.4284 7.54551C74.7025 7.54551 74.9678 7.6429 75.1769 7.8203C75.3859 7.99769 75.5251 8.24358 75.5698 8.5141V22.4271C75.5703 23.7576 75.3086 25.0751 74.7997 26.3044C74.2908 27.5337 73.5446 28.6506 72.6039 29.5913C71.6631 30.5321 70.5461 31.2783 69.3169 31.7872C68.0876 32.2961 66.7701 32.5578 65.4396 32.5573H65.4358ZM99.613 32.5573H93.8249C93.6718 32.5615 93.5195 32.5345 93.3772 32.4779C93.2349 32.4213 93.1057 32.3362 92.9974 32.2279C92.8891 32.1196 92.804 31.9904 92.7474 31.8481C92.6908 31.7058 92.6638 31.5535 92.668 31.4004V8.5141C92.6638 8.36102 92.6908 8.20867 92.7474 8.06639C92.804 7.92411 92.8891 7.79487 92.9974 7.68659C93.1057 7.5783 93.2349 7.49326 93.3772 7.43663C93.5195 7.38 93.6718 7.35299 93.8249 7.35725H99.6091C102.949 7.35725 106.153 8.68412 108.515 11.046C110.876 13.4079 112.203 16.6113 112.203 19.9515C112.203 23.2917 110.876 26.4951 108.515 28.8569C106.153 31.2188 102.949 32.5457 99.6091 32.5457L99.613 32.5573ZM94.9856 30.2744H99.613C102.352 30.2744 104.979 29.1862 106.916 27.2492C108.854 25.3122 109.942 22.685 109.942 19.9457C109.942 17.2063 108.854 14.5792 106.916 12.6422C104.979 10.7052 102.352 9.61695 99.613 9.61695H94.9817V30.2744H94.9856ZM141.934 32.5573C139.827 32.5573 137.754 32.0289 135.904 31.0202C134.054 30.0116 132.486 28.5551 131.345 26.784C130.203 25.0128 129.524 22.9836 129.37 20.8822C129.215 18.7807 129.591 16.6741 130.461 14.7552C131.331 12.8362 132.669 11.1662 134.352 9.89809C136.035 8.62995 138.009 7.80417 140.093 7.4963C142.178 7.18843 144.306 7.40831 146.284 8.13585C148.261 8.86338 150.025 10.0753 151.413 11.6607C151.512 11.7727 151.588 11.9033 151.636 12.0449C151.684 12.1864 151.704 12.3361 151.694 12.4854C151.684 12.6346 151.644 12.7803 151.578 12.9141C151.511 13.0479 151.418 13.1672 151.305 13.2649C151.195 13.3675 151.064 13.4465 150.922 13.4969C150.781 13.5473 150.63 13.5681 150.479 13.5579C150.329 13.5478 150.182 13.507 150.049 13.438C149.915 13.3691 149.796 13.2734 149.701 13.1569C148.329 11.5903 146.515 10.4751 144.498 9.95783C142.48 9.44051 140.354 9.54522 138.397 10.2582C136.44 10.9711 134.745 12.259 133.533 13.9528C132.322 15.6466 131.65 17.6672 131.608 19.7493C131.565 21.8314 132.153 23.8778 133.294 25.6199C134.435 27.3619 136.076 28.7182 138.002 29.5108C139.928 30.3033 142.049 30.495 144.085 30.0608C146.122 29.6266 147.98 28.5867 149.415 27.0777V21.9991H142.798C142.522 21.9598 142.27 21.8223 142.088 21.6119C141.905 21.4016 141.805 21.1324 141.805 20.8538C141.805 20.5753 141.905 20.3061 142.088 20.0957C142.27 19.8853 142.522 19.7478 142.798 19.7085H150.541C150.694 19.7048 150.846 19.7322 150.988 19.7891C151.13 19.8459 151.259 19.931 151.368 20.0391C151.476 20.1473 151.561 20.2763 151.618 20.4183C151.675 20.5604 151.702 20.7125 151.698 20.8654V27.5019C151.695 27.7772 151.594 28.0425 151.413 28.2499C150.232 29.6062 148.773 30.6932 147.136 31.4376C145.499 32.182 143.721 32.5664 141.923 32.565L141.934 32.5573ZM185.282 30.2744H171.476V20.5299H181.429C181.727 20.5299 182.013 20.4115 182.224 20.2007C182.435 19.9899 182.553 19.704 182.553 19.4058C182.553 19.1077 182.435 18.8218 182.224 18.611C182.013 18.4002 181.727 18.2817 181.429 18.2817H171.476V9.62081H185.282C185.58 9.62081 185.866 9.50237 186.076 9.29157C186.287 9.08076 186.406 8.79485 186.406 8.49673C186.406 8.1986 186.287 7.91269 186.076 7.70189C185.866 7.49108 185.58 7.37266 185.282 7.37266H170.335C170.182 7.36841 170.03 7.39542 169.887 7.45205C169.745 7.50868 169.616 7.59374 169.508 7.70203C169.399 7.81031 169.314 7.93953 169.258 8.08181C169.201 8.22409 169.174 8.37644 169.178 8.52951V31.4313C169.174 31.5844 169.201 31.7367 169.258 31.879C169.314 32.0212 169.399 32.1505 169.508 32.2588C169.616 32.3671 169.745 32.4521 169.887 32.5087C170.03 32.5654 170.182 32.5924 170.335 32.5881H185.282C185.588 32.5881 185.883 32.4662 186.1 32.2493C186.317 32.0323 186.438 31.7381 186.438 31.4313C186.438 31.1245 186.317 30.8302 186.1 30.6133C185.883 30.3963 185.588 30.2744 185.282 30.2744ZM221.707 7.37266H204.69C204.392 7.37266 204.106 7.49108 203.895 7.70189C203.684 7.91269 203.566 8.1986 203.566 8.49673C203.566 8.79485 203.684 9.08076 203.895 9.29157C204.106 9.50237 204.392 9.62081 204.69 9.62081H212.074V31.4197C212.074 31.7178 212.193 32.0037 212.403 32.2145C212.614 32.4254 212.9 32.5438 213.198 32.5438C213.496 32.5438 213.782 32.4254 213.993 32.2145C214.204 32.0037 214.322 31.7178 214.322 31.4197V9.62081H221.707C222.005 9.62081 222.291 9.50237 222.502 9.29157C222.713 9.08076 222.831 8.79485 222.831 8.49673C222.831 8.1986 222.713 7.91269 222.502 7.70189C222.291 7.49108 222.005 7.37266 221.707 7.37266ZM258.132 7.37266H241.115C240.817 7.37266 240.531 7.49108 240.32 7.70189C240.109 7.91269 239.991 8.1986 239.991 8.49673C239.991 8.79485 240.109 9.08076 240.32 9.29157C240.531 9.50237 240.817 9.62081 241.115 9.62081H248.5V31.4197C248.5 31.7178 248.618 32.0037 248.829 32.2145C249.04 32.4254 249.326 32.5438 249.624 32.5438C249.922 32.5438 250.208 32.4254 250.418 32.2145C250.629 32.0037 250.748 31.7178 250.748 31.4197V9.62081H258.098C258.396 9.62081 258.682 9.50237 258.892 9.29157C259.103 9.08076 259.222 8.79485 259.222 8.49673C259.222 8.1986 259.103 7.91269 258.892 7.70189C258.682 7.49108 258.396 7.37266 258.098 7.37266H258.132Z" fill="#241D4A" stroke="#241D4A" stroke-width="1.4173" stroke-miterlimit="22.9256"/>
<path fill-rule="evenodd" clip-rule="evenodd" d="M3.13892 0H36.8611C37.693 0.0020364 38.4902 0.333385 39.0784 0.921606C39.6666 1.50983 39.998 2.30706 40 3.13892V36.8611C39.998 37.6929 39.6666 38.4902 39.0784 39.0784C38.4902 39.6666 37.693 39.998 36.8611 40H3.13892C2.30706 39.998 1.50983 39.6666 0.921606 39.0784C0.333385 38.4902 0.0020364 37.6929 0 36.8611V3.13892C0.0020364 2.30706 0.333385 1.50983 0.921606 0.921606C1.50983 0.333385 2.30706 0.0020364 3.13892 0ZM9.64427 16.3617H6.42822C6.22368 16.3617 6.02752 16.443 5.88289 16.5876C5.73825 16.7322 5.65699 16.9284 5.65699 17.1329V20.349C5.65699 20.5535 5.73825 20.7497 5.88289 20.8943C6.02752 21.039 6.22368 21.1202 6.42822 21.1202H9.64427C9.84882 21.1202 10.045 21.039 10.1896 20.8943C10.3342 20.7497 10.4155 20.5535 10.4155 20.349V17.1329C10.4155 16.9284 10.3342 16.7322 10.1896 16.5876C10.045 16.443 9.84882 16.3617 9.64427 16.3617ZM27.8839 16.9633C28.3777 15.8926 28.594 14.715 28.5131 13.5388C28.4322 12.3625 28.0566 11.2256 27.4209 10.2327C26.7852 9.23975 25.9098 8.42278 24.8754 7.85698C23.8411 7.29119 22.681 6.99479 21.502 6.99509H12.0389C11.8253 6.99355 11.6135 7.03448 11.4159 7.11552C11.2182 7.19657 11.0386 7.3161 10.8876 7.46715C10.7365 7.61821 10.617 7.79779 10.5359 7.99545C10.4549 8.19311 10.414 8.4049 10.4155 8.61852V11.6032H14.3874C14.5919 11.6032 14.7881 11.6845 14.9327 11.8291C15.0773 11.9737 15.1586 12.1699 15.1586 12.3744V16.3578H19.142C19.3466 16.3578 19.5427 16.4391 19.6873 16.5837C19.832 16.7284 19.9132 16.9245 19.9132 17.1291V20.3451C19.9132 20.5497 19.832 20.7458 19.6873 20.8905C19.5427 21.0351 19.3466 21.1164 19.142 21.1164H15.1586V25.0998C15.1586 25.3043 15.0773 25.5005 14.9327 25.6451C14.7881 25.7898 14.5919 25.871 14.3874 25.871H10.4155V31.3275C10.4132 31.5419 10.4537 31.7546 10.5344 31.9532C10.6152 32.1518 10.7347 32.3324 10.8859 32.4843C11.038 32.6354 11.2186 32.7548 11.4172 32.8355C11.6158 32.9163 11.8284 32.9568 12.0428 32.9548H22.6203C23.9707 32.9562 25.297 32.5961 26.4614 31.9119C27.6257 31.2277 28.5857 30.2443 29.2416 29.0638C29.8976 27.8833 30.2256 26.5488 30.1917 25.1987C30.1577 23.8487 29.763 22.5323 29.0485 21.3863C28.4201 20.3791 27.5675 19.5305 26.5574 18.9068C27.1038 18.3366 27.552 17.6799 27.8839 16.9633Z" fill="url(#paint0_linear_182_113)"/>
<defs>
<linearGradient id="paint0_linear_182_113" x1="27458" y1="26828.8" x2="29786.4" y2="23620.8" gradientUnits="userSpaceOnUse">
<stop stop-color="#1E1347"/>
<stop offset="1" stop-color="#996C95"/>
</linearGradient>
</defs>
</svg>
