<svg width="50" height="50" viewBox="0 0 50 50" fill="none" xmlns="http://www.w3.org/2000/svg">
<path d="M46.08 0H3.92001C1.75506 0 0 1.75504 0 3.92V46.08C0 48.245 1.75506 50 3.92001 50H46.08C48.2449 50 50 48.245 50 46.08V3.92C50 1.75504 48.2449 0 46.08 0Z" fill="url(#paint0_linear)"/>
<path fill-rule="evenodd" clip-rule="evenodd" d="M12 20.45H8C7.73478 20.45 7.48038 20.5553 7.29285 20.7429C7.10531 20.9304 7 21.1848 7 21.45V25.45C7 25.7152 7.10531 25.9696 7.29285 26.1571C7.48038 26.3446 7.73478 26.45 8 26.45H12C12.2652 26.45 12.5196 26.3446 12.7072 26.1571C12.8947 25.9696 13 25.7152 13 25.45V21.45C13 21.1848 12.8947 20.9304 12.7072 20.7429C12.5196 20.5553 12.2652 20.45 12 20.45ZM34.8199 21.21C34.3995 22.1141 33.8319 22.942 33.14 23.66C34.4014 24.4403 35.4656 25.5012 36.25 26.76C37.1345 28.1905 37.622 29.8309 37.6625 31.5123C37.7029 33.1937 37.2949 34.8556 36.4802 36.327C35.6656 37.7985 34.4738 39.0264 33.0273 39.8846C31.5809 40.7428 29.9319 41.2003 28.25 41.21H15.03C14.7628 41.2129 14.4976 41.1621 14.2502 41.0608C14.0029 40.9595 13.7784 40.8096 13.59 40.62C13.4004 40.4316 13.2505 40.2071 13.1492 39.9597C13.0478 39.7124 12.9971 39.4473 13 39.18V32.33H18C18.2652 32.33 18.5196 32.2246 18.7072 32.0371C18.8947 31.8496 19 31.5952 19 31.33V26.33H24C24.2652 26.33 24.5196 26.2246 24.7072 26.0371C24.8947 25.8496 25 25.5952 25 25.33V21.33C25 21.0648 24.8947 20.8104 24.7072 20.6229C24.5196 20.4353 24.2652 20.33 24 20.33H19V15.33C19 15.0648 18.8947 14.8104 18.7072 14.6229C18.5196 14.4353 18.2652 14.33 18 14.33H13V10.78C13 10.2496 13.2107 9.74085 13.5858 9.36578C13.9609 8.99071 14.4696 8.77999 15 8.77999H26.85C28.3278 8.76989 29.7841 9.13383 31.0834 9.83792C32.3827 10.542 33.4828 11.5634 34.2812 12.8069C35.0797 14.0505 35.5506 15.4759 35.65 16.9503C35.7495 18.4248 35.4742 19.9005 34.85 21.24L34.8199 21.21Z" fill="#F2F4F9"/>
<defs>
<linearGradient id="paint0_linear" x1="10.97" y1="44.33" x2="39.03" y2="5.67" gradientUnits="userSpaceOnUse">
<stop stop-color="#1E1347"/>
<stop offset="1" stop-color="#996C95"/>
</linearGradient>
</defs>
</svg>
