<svg width="105" height="104" viewBox="0 0 105 104" fill="none" xmlns="http://www.w3.org/2000/svg">
<path fill-rule="evenodd" clip-rule="evenodd" d="M8.82947 0.23999H96.2795C98.4367 0.245271 100.504 1.10454 102.029 2.62994C103.555 4.15535 104.414 6.22277 104.419 8.38V95.83C104.414 97.9872 103.555 100.055 102.029 101.58C100.504 103.105 98.4367 103.965 96.2795 103.97H8.82947C6.67223 103.965 4.60481 103.105 3.07941 101.58C1.554 100.055 0.694734 97.9872 0.689453 95.83V8.38C0.694734 6.22277 1.554 4.15535 3.07941 2.62994C4.60481 1.10454 6.67223 0.245271 8.82947 0.23999ZM25.6995 42.67H17.3594C16.829 42.67 16.3203 42.8807 15.9453 43.2557C15.5702 43.6308 15.3594 44.1395 15.3594 44.67V53.01C15.3594 53.5404 15.5702 54.0491 15.9453 54.4242C16.3203 54.7993 16.829 55.01 17.3594 55.01H25.6995C26.2299 55.01 26.7386 54.7993 27.1136 54.4242C27.4887 54.0491 27.6995 53.5404 27.6995 53.01V44.67C27.6995 44.1395 27.4887 43.6308 27.1136 43.2557C26.7386 42.8807 26.2299 42.67 25.6995 42.67ZM72.9995 44.23C74.2798 41.4536 74.8409 38.3996 74.631 35.3494C74.4212 32.2992 73.4471 29.3508 71.7986 26.7759C70.15 24.201 67.8801 22.0824 65.1977 20.6151C62.5153 19.1479 59.5069 18.3792 56.4495 18.38H31.9094C31.3554 18.376 30.8062 18.4822 30.2936 18.6923C29.7811 18.9025 29.3154 19.2125 28.9236 19.6042C28.5319 19.9959 28.2219 20.4616 28.0118 20.9742C27.8016 21.4868 27.6955 22.036 27.6995 22.59V30.33H37.9995C38.5299 30.33 39.0386 30.5407 39.4136 30.9158C39.7887 31.2908 39.9995 31.7995 39.9995 32.33V42.66H50.3295C50.8599 42.66 51.3686 42.8707 51.7437 43.2458C52.1187 43.6209 52.3295 44.1295 52.3295 44.66V53C52.3295 53.5304 52.1187 54.0391 51.7437 54.4142C51.3686 54.7893 50.8599 55 50.3295 55H39.9995V65.33C39.9995 65.8604 39.7887 66.3691 39.4136 66.7442C39.0386 67.1193 38.5299 67.33 37.9995 67.33H27.6995V81.48C27.6936 82.036 27.7984 82.5875 28.0079 83.1026C28.2173 83.6177 28.5272 84.0859 28.9194 84.48C29.3139 84.8718 29.7821 85.1813 30.2971 85.3907C30.8121 85.6002 31.3635 85.7053 31.9194 85.7H59.3494C62.8516 85.7036 66.2909 84.7699 69.3104 82.9955C72.3298 81.2212 74.8192 78.671 76.5203 75.6097C78.2213 72.5484 79.072 69.0877 78.9839 65.5866C78.8959 62.0856 77.8723 58.6718 76.0195 55.7C74.3897 53.088 72.179 50.8875 69.5594 49.27C70.9763 47.7913 72.1387 46.0883 72.9995 44.23Z" fill="url(#paint0_linear)"/>
<defs>
<linearGradient id="paint0_linear" x1="71206.1" y1="69574" x2="77244.3" y2="61254.9" gradientUnits="userSpaceOnUse">
<stop stop-color="#1E1347"/>
<stop offset="1" stop-color="#996C95"/>
</linearGradient>
</defs>
</svg>
