<svg width="51" height="51" viewBox="0 0 51 51" fill="none" xmlns="http://www.w3.org/2000/svg">
    <path fill-rule="evenodd" clip-rule="evenodd" d="M25.0784 32.9404C23.1378 32.9378 21.2775 32.1652 19.9053 30.793C18.5331 29.4208 17.761 27.5607 17.7583 25.6201C17.761 23.6795 18.5331 21.8195 19.9053 20.4473C21.2775 19.0751 23.1378 18.3034 25.0784 18.3008C27.019 18.3034 28.8793 19.0751 30.2515 20.4473C31.6237 21.8195 32.3958 23.6795 32.3985 25.6201C32.3958 27.5607 31.6237 29.4208 30.2515 30.793C28.8793 32.1652 27.019 32.9378 25.0784 32.9404V32.9404ZM49.0784 21.2803L43.2283 19.8398C42.9052 18.8064 42.4937 17.8027 41.9983 16.8398L44.9983 11.8398C45.1699 11.5621 45.2436 11.2356 45.2073 10.9111C45.171 10.5867 45.027 10.2838 44.7984 10.0508L40.6385 5.89062C40.4054 5.66194 40.1023 5.5177 39.7779 5.48145C39.4534 5.44519 39.1262 5.51882 38.8484 5.69043L33.8484 8.69043C32.8856 8.19503 31.8819 7.78304 30.8484 7.45996L29.4385 1.61035C29.3531 1.2932 29.1659 1.01302 28.9058 0.8125C28.6457 0.611979 28.3268 0.501844 27.9983 0.5H22.1385C21.81 0.501844 21.4911 0.611979 21.231 0.8125C20.9708 1.01302 20.7839 1.2932 20.6985 1.61035L19.2884 7.45996C18.2549 7.78304 17.2512 8.19503 16.2884 8.69043L11.2884 5.69043C11.0106 5.51882 10.6834 5.44519 10.3589 5.48145C10.0344 5.5177 9.73135 5.66194 9.49831 5.89062L5.3384 10.0508C5.10972 10.2838 4.96572 10.5867 4.92947 10.9111C4.89321 11.2356 4.96684 11.5621 5.13845 11.8398L8.13845 16.8398C7.64309 17.8027 7.23159 18.8064 6.90847 19.8398L1.25832 21.2803C0.941032 21.355 0.658441 21.5349 0.456811 21.791C0.255181 22.0471 0.146579 22.3645 0.148462 22.6904V28.5508C0.146579 28.8767 0.255181 29.1931 0.456811 29.4492C0.658441 29.7053 0.941032 29.8853 1.25832 29.96L6.90847 31.4004C7.23159 32.4338 7.64309 33.4376 8.13845 34.4004L5.13845 39.4004C4.96684 39.6782 4.89321 40.0056 4.92947 40.3301C4.96572 40.6546 5.10972 40.9574 5.3384 41.1904L9.49831 45.3506C9.73135 45.5793 10.0344 45.7225 10.3589 45.7588C10.6834 45.795 11.0106 45.7224 11.2884 45.5508L16.2884 42.5508C17.2512 43.0461 18.2549 43.4572 19.2884 43.7803L20.6985 49.4307C20.7839 49.7478 20.9708 50.028 21.231 50.2285C21.4911 50.429 21.81 50.5382 22.1385 50.54H27.9983C28.3268 50.5382 28.6457 50.429 28.9058 50.2285C29.1659 50.028 29.3531 49.7478 29.4385 49.4307L30.8484 43.7803C31.8819 43.4572 32.8856 43.0461 33.8484 42.5508L38.8484 45.5508C39.1262 45.7224 39.4534 45.795 39.7779 45.7588C40.1023 45.7225 40.4054 45.5793 40.6385 45.3506L44.7984 41.1904C45.027 40.9574 45.171 40.6546 45.2073 40.3301C45.2436 40.0056 45.1699 39.6782 44.9983 39.4004L41.9983 34.4004C42.4937 33.4376 42.9052 32.4339 43.2283 31.4004L49.0784 29.96C49.3957 29.8853 49.6783 29.7053 49.8799 29.4492C50.0815 29.1931 50.1904 28.8767 50.1885 28.5508V22.6904C50.1927 22.3628 50.0849 22.0433 49.8831 21.7852C49.6813 21.527 49.3974 21.3456 49.0784 21.2705V21.2803Z" fill="#7A8090"/>
</svg>