<svg width="50" height="51" viewBox="0 0 50 51" fill="none" xmlns="http://www.w3.org/2000/svg">
    <path fill-rule="evenodd" clip-rule="evenodd" d="M25 0.511719C31.6304 0.511719 37.9893 3.14558 42.6777 7.83398C47.3661 12.5224 50 18.8813 50 25.5117C50 32.1421 47.3661 38.5001 42.6777 43.1885C37.9893 47.8769 31.6304 50.5117 25 50.5117C18.3696 50.5117 12.0107 47.8769 7.32227 43.1885C2.63386 38.5001 0 32.1421 0 25.5117C0 18.8813 2.63386 12.5224 7.32227 7.83398C12.0107 3.14558 18.3696 0.511719 25 0.511719ZM27 12.6914H23V23.6416H12.6401V27.3516H23V38.3516H27V27.3516H37.4102V23.6416H27V12.6914Z" fill="currentColor"/>
</svg>
