<svg width="19" height="20" viewBox="0 0 19 20" fill="none" xmlns="http://www.w3.org/2000/svg">
<path fill-rule="evenodd" clip-rule="evenodd" d="M3.08008 9.5C3.50555 9.50133 3.91433 9.33628 4.21973 9.04004L5.83984 9.84961C5.83565 9.91621 5.83565 9.9832 5.83984 10.0498C5.84247 10.484 6.01625 10.9 6.32324 11.207C6.63024 11.514 7.04535 11.6878 7.47949 11.6904C7.91364 11.6878 8.32973 11.514 8.63672 11.207C8.94371 10.9 9.11749 10.484 9.12012 10.0498C9.11982 9.80744 9.06499 9.56804 8.95996 9.34961L11.1602 7.15039C11.3786 7.25541 11.618 7.30927 11.8604 7.30957C12.2945 7.30695 12.7096 7.13414 13.0166 6.82715C13.3236 6.52016 13.4974 6.10407 13.5 5.66992C13.4988 5.50343 13.4718 5.3379 13.4199 5.17969L15.3301 3.75C15.5988 3.93182 15.9158 4.02958 16.2402 4.03027C16.6744 4.02765 17.0895 3.85387 17.3965 3.54688C17.7035 3.23988 17.8773 2.82379 17.8799 2.38965C17.8773 1.9555 17.7035 1.54039 17.3965 1.2334C17.0895 0.926406 16.6744 0.752623 16.2402 0.75C15.8061 0.752623 15.39 0.926406 15.083 1.2334C14.776 1.54039 14.6022 1.9555 14.5996 2.38965C14.6008 2.55614 14.6278 2.72167 14.6797 2.87988L12.7695 4.30957C12.5008 4.12775 12.1848 4.03096 11.8604 4.03027C11.4262 4.0329 11.0101 4.20668 10.7031 4.51367C10.3961 4.82066 10.2224 5.23578 10.2197 5.66992C10.22 5.91229 10.2749 6.15169 10.3799 6.37012L8.17969 8.57031C7.96115 8.46561 7.72182 8.41079 7.47949 8.41016C7.05422 8.40988 6.64583 8.57478 6.33984 8.87012L4.71973 8.05957C4.72392 7.99297 4.72392 7.92695 4.71973 7.86035C4.7171 7.42621 4.54332 7.01012 4.23633 6.70312C3.92934 6.39613 3.51422 6.22235 3.08008 6.21973C2.64593 6.22235 2.22984 6.39613 1.92285 6.70312C1.61586 7.01012 1.44208 7.42621 1.43945 7.86035C1.44208 8.2945 1.61586 8.70961 1.92285 9.0166C2.22984 9.32359 2.64593 9.49738 3.08008 9.5Z" fill="#7A8091"/>
<path fill-rule="evenodd" clip-rule="evenodd" d="M18.46 18.29H17.8799V6.70996C17.8799 6.56409 17.8219 6.42443 17.7188 6.32129C17.6156 6.21814 17.4759 6.16016 17.3301 6.16016H15.1396C14.9938 6.16016 14.8541 6.21814 14.751 6.32129C14.6478 6.42443 14.5898 6.56409 14.5898 6.70996V18.29H13.4902V10C13.4902 9.85413 13.4322 9.71447 13.3291 9.61133C13.226 9.50818 13.0853 9.4502 12.9395 9.4502H10.75C10.6041 9.4502 10.4645 9.50818 10.3613 9.61133C10.2582 9.71447 10.2002 9.85413 10.2002 10V18.29H9.09961V14.3799C9.09961 14.234 9.04162 14.0944 8.93848 13.9912C8.83533 13.8881 8.69567 13.8301 8.5498 13.8301H6.36035C6.21448 13.8301 6.07385 13.8881 5.9707 13.9912C5.86756 14.0944 5.80957 14.234 5.80957 14.3799V18.29H4.70996V12.1904C4.70996 12.0446 4.65197 11.9039 4.54883 11.8008C4.44568 11.6976 4.30603 11.6396 4.16016 11.6396H1.96973C1.82386 11.6396 1.6842 11.6976 1.58105 11.8008C1.47791 11.9039 1.41992 12.0446 1.41992 12.1904V18.29H0.839844C0.693975 18.29 0.554317 18.348 0.451172 18.4512C0.348027 18.5543 0.290039 18.694 0.290039 18.8398C0.290039 18.9857 0.348027 19.1254 0.451172 19.2285C0.554317 19.3317 0.693975 19.3896 0.839844 19.3896H18.4395C18.5853 19.3896 18.726 19.3317 18.8291 19.2285C18.9322 19.1254 18.9902 18.9857 18.9902 18.8398C18.9903 18.6974 18.9348 18.5606 18.8359 18.458C18.7371 18.3554 18.6023 18.2952 18.46 18.29Z" fill="#7A8091"/>
</svg>
