<svg width="18" height="19" viewBox="0 0 18 19" fill="none" xmlns="http://www.w3.org/2000/svg">
    <path fill-rule="evenodd" clip-rule="evenodd" d="M9.04692 10.0997C9.22267 10.1011 9.39691 10.0659 9.55864 9.99711C9.72036 9.9283 9.86628 9.8269 9.9871 9.69926C10.1147 9.57844 10.2161 9.43325 10.285 9.27153C10.3538 9.10981 10.3884 8.93556 10.387 8.75981V2.08989C10.3884 1.91414 10.3538 1.73989 10.285 1.57817C10.2161 1.41645 10.1147 1.27028 9.9871 1.14946C9.86628 1.02182 9.72036 0.920424 9.55864 0.851606C9.39691 0.782788 9.22267 0.748609 9.04692 0.750043C8.87117 0.748609 8.69717 0.782788 8.53544 0.851606C8.37372 0.920424 8.2278 1.02182 8.10698 1.14946C7.97934 1.27028 7.87794 1.41645 7.80912 1.57817C7.74031 1.73989 7.70564 1.91414 7.70707 2.08989V8.75981C7.70564 8.93556 7.74031 9.10981 7.80912 9.27153C7.87794 9.43325 7.97934 9.57844 8.10698 9.69926C8.2278 9.8269 8.37372 9.9283 8.53544 9.99711C8.69717 10.0659 8.87117 10.1011 9.04692 10.0997Z" fill="#FDFDFD" stroke="#1C2A40" stroke-width="0.7087" stroke-miterlimit="10"/>
    <path fill-rule="evenodd" clip-rule="evenodd" d="M16.2071 6.51963C15.6538 5.40946 14.8449 4.44684 13.847 3.71006C13.7072 3.60014 13.5462 3.52043 13.3741 3.47569C13.202 3.43094 13.0226 3.4214 12.847 3.44932C12.6716 3.46784 12.5022 3.52464 12.3504 3.61436C12.1986 3.70408 12.0679 3.82513 11.9671 3.96983C11.8578 4.10978 11.7789 4.27121 11.7359 4.44346C11.6928 4.6157 11.6865 4.79493 11.7171 4.96983C11.7398 5.14403 11.7976 5.31174 11.887 5.46299C11.9764 5.61424 12.0955 5.74577 12.2371 5.84971C12.9046 6.34714 13.4457 6.99421 13.8169 7.73936C14.1871 8.47442 14.379 9.28646 14.377 10.1095C14.3801 10.8209 14.2372 11.5258 13.9571 12.1798C13.6896 12.8143 13.3024 13.3916 12.8169 13.88C12.3283 14.3651 11.7513 14.7517 11.117 15.0196C10.463 15.2998 9.75839 15.4426 9.04692 15.4396C8.33546 15.4426 7.6311 15.2998 6.9771 15.0196C6.3427 14.7519 5.7654 14.3653 5.2769 13.88C4.79142 13.3916 4.4045 12.8143 4.13701 12.1798C3.8566 11.5259 3.71372 10.821 3.71709 10.1095C3.71504 9.28646 3.90671 8.47442 4.2769 7.73936C4.64845 6.99442 5.1897 6.34742 5.85698 5.84971C5.99862 5.74577 6.1177 5.61424 6.20708 5.46299C6.29645 5.31174 6.35428 5.14403 6.377 4.96983C6.40616 4.79423 6.39811 4.61476 6.35332 4.44248C6.30853 4.27021 6.22799 4.10898 6.11699 3.96983C6.01724 3.82632 5.8881 3.70598 5.73808 3.61631C5.58807 3.52665 5.42075 3.46921 5.24712 3.44932C5.07152 3.42318 4.89233 3.43296 4.72051 3.47764C4.54868 3.52231 4.38775 3.6017 4.24712 3.71006C3.2495 4.44712 2.44063 5.40967 1.88701 6.51963C1.33049 7.62713 1.04262 8.85048 1.04692 10.0899C1.04557 11.1562 1.26355 12.211 1.68706 13.1896C2.08906 14.1409 2.66947 15.0063 3.39702 15.7394C4.12992 16.4671 4.99559 17.0475 5.94707 17.4493C6.92563 17.8728 7.98065 18.0913 9.04692 18.0899C10.1132 18.0913 11.1685 17.8728 12.147 17.4493C13.0985 17.0475 13.9642 16.4671 14.6971 15.7394C15.425 15.0066 16.0055 14.1411 16.407 13.1896C16.8305 12.211 17.0483 11.1562 17.0469 10.0899C17.0516 8.85044 16.764 7.627 16.2071 6.51963Z" fill="#FDFDFD" stroke="#1C2A40" stroke-width="0.7087" stroke-miterlimit="10"/>
</svg>
