<svg width="32" height="32" viewBox="0 0 32 32" fill="none" xmlns="http://www.w3.org/2000/svg">
<path fill-rule="evenodd" clip-rule="evenodd" d="M15.8701 0.179691C11.7009 0.179691 7.70295 1.83611 4.75488 4.78418C1.80681 7.73225 0.150391 11.7312 0.150391 15.9004C0.15039 20.0705 1.80612 24.0699 4.75391 27.0195C7.70169 29.9692 11.7 31.6272 15.8701 31.6299C20.042 31.6299 24.0432 29.9724 26.9932 27.0225C29.9431 24.0725 31.6006 20.0722 31.6006 15.9004C31.6006 13.8352 31.193 11.7897 30.4023 9.88184C29.6117 7.97395 28.453 6.24014 26.9922 4.78028C25.5314 3.32041 23.7971 2.16344 21.8887 1.37403C19.9803 0.584611 17.9353 0.178377 15.8701 0.179691ZM15.8701 4.87989C16.553 4.87989 17.2295 5.01407 17.8604 5.27539C18.4912 5.53672 19.064 5.92046 19.5469 6.40332C20.0297 6.88619 20.4125 7.45895 20.6738 8.08985C20.9352 8.72074 21.0703 9.39721 21.0703 10.0801C21.0703 10.763 20.9352 11.4394 20.6738 12.0703C20.4125 12.7012 20.0297 13.274 19.5469 13.7568C19.064 14.2397 18.4912 14.6225 17.8604 14.8838C17.2295 15.1451 16.553 15.2803 15.8701 15.2803C15.1872 15.2803 14.5108 15.1451 13.8799 14.8838C13.249 14.6225 12.6762 14.2397 12.1934 13.7568C11.7105 13.274 11.3277 12.7012 11.0664 12.0703C10.8051 11.4394 10.6699 10.763 10.6699 10.0801C10.6699 9.39721 10.8051 8.72074 11.0664 8.08985C11.3277 7.45895 11.7105 6.88619 12.1934 6.40332C12.6762 5.92046 13.249 5.53672 13.8799 5.27539C14.5108 5.01407 15.1872 4.87989 15.8701 4.87989ZM15.8701 27.5195C13.1166 27.5209 10.4535 26.539 8.36035 24.75C8.11577 24.5416 7.91885 24.282 7.78418 23.9902C7.64951 23.6985 7.58002 23.3809 7.58008 23.0596C7.58007 22.3689 7.71624 21.6856 7.98145 21.0479C8.24665 20.4101 8.63524 19.8307 9.125 19.3438C9.61476 18.8568 10.1967 18.4715 10.8359 18.21C11.4752 17.9484 12.1599 17.8164 12.8506 17.8203H18.9004C19.5906 17.8164 20.2744 17.9483 20.9131 18.21C21.5517 18.4716 22.1321 18.8576 22.6211 19.3447C23.1101 19.8318 23.4976 20.4112 23.7617 21.0488C24.0258 21.6865 24.1615 22.3694 24.1602 23.0596C24.1602 23.3809 24.0907 23.6985 23.9561 23.9902C23.8214 24.282 23.6245 24.5416 23.3799 24.75C21.2839 26.5318 18.6211 27.5069 15.8701 27.5V27.5195Z" fill="#1C2A40"/>
</svg>
