<svg width="55" height="54" viewBox="0 0 55 54" fill="none" xmlns="http://www.w3.org/2000/svg">
<path d="M46.8003 0H8.18018C3.93311 0 0.490234 3.44293 0.490234 7.69V46.31C0.490234 50.5571 3.93311 54 8.18018 54H46.8003C51.0474 54 54.4902 50.5571 54.4902 46.31V7.69C54.4902 3.44293 51.0474 0 46.8003 0Z" fill="#7A8091"/>
<path fill-rule="evenodd" clip-rule="evenodd" d="M15.7598 13.0312H39.2305C39.8078 13.0339 40.3613 13.2646 40.7695 13.6729C41.1778 14.0811 41.4075 14.6336 41.4102 15.2109V38.6807C41.4075 39.258 41.1778 39.8115 40.7695 40.2197C40.3613 40.628 39.8078 40.8587 39.2305 40.8613H15.7598C15.1824 40.8587 14.629 40.628 14.2207 40.2197C13.8124 39.8115 13.5827 39.258 13.5801 38.6807V15.2109C13.5827 14.6336 13.8124 14.0811 14.2207 13.6729C14.629 13.2646 15.1824 13.0339 15.7598 13.0312ZM20.2891 24.4209H18.0508C17.911 24.4235 17.7766 24.4803 17.6777 24.5791C17.5789 24.6779 17.5221 24.8114 17.5195 24.9512V27.1914C17.5221 27.3312 17.5789 27.4637 17.6777 27.5625C17.7766 27.6613 17.911 27.7181 18.0508 27.7207H20.2891C20.4288 27.7181 20.5633 27.6613 20.6621 27.5625C20.761 27.4637 20.8177 27.3312 20.8203 27.1914V24.9512C20.8177 24.8114 20.761 24.6779 20.6621 24.5791C20.5633 24.4803 20.4288 24.4235 20.2891 24.4209ZM32.9902 24.8408C33.292 24.1959 33.448 23.4933 33.4492 22.7812C33.4481 22.1412 33.3214 21.5074 33.0742 20.917C32.8271 20.3266 32.4649 19.7908 32.0098 19.3408C31.5552 18.8869 31.0156 18.5266 30.4219 18.2812C29.8282 18.0359 29.1932 17.9105 28.5508 17.9111H21.9492C21.8006 17.9103 21.6549 17.9385 21.5176 17.9951C21.3802 18.0518 21.2552 18.1359 21.1504 18.2412C21.0451 18.346 20.961 18.4701 20.9043 18.6074C20.8476 18.7448 20.8195 18.8924 20.8203 19.041V21.1211H23.5898C23.7296 21.1237 23.864 21.1805 23.9629 21.2793C24.0617 21.3781 24.1166 21.5116 24.1191 21.6514V24.4209H26.8906C27.0304 24.4235 27.1629 24.4803 27.2617 24.5791C27.3606 24.6779 27.4174 24.8114 27.4199 24.9512V27.1914C27.4174 27.3312 27.3606 27.4637 27.2617 27.5625C27.1629 27.6613 27.0304 27.7181 26.8906 27.7207H24.1191V30.4912C24.1166 30.631 24.0617 30.7644 23.9629 30.8633C23.864 30.9621 23.7296 31.0179 23.5898 31.0205H20.8203V34.8311C20.8195 34.9796 20.8476 35.1263 20.9043 35.2637C20.961 35.401 21.0451 35.5261 21.1504 35.6309C21.2552 35.7362 21.3802 35.8193 21.5176 35.876C21.6549 35.9326 21.8006 35.9617 21.9492 35.9609H29.3105C30.0021 35.9603 30.6858 35.8236 31.3242 35.5576C31.9626 35.2916 32.5419 34.9018 33.0293 34.4111C33.5199 33.9237 33.9098 33.3444 34.1758 32.7061C34.4418 32.0677 34.5795 31.383 34.5801 30.6914C34.5826 29.709 34.3078 28.7454 33.7891 27.9111C33.3532 27.209 32.7626 26.6165 32.0605 26.1807C32.4427 25.7849 32.7566 25.3292 32.9902 24.8311V24.8408Z" fill="#F3F5FA"/>
</svg>
