<svg width="210" height="54" viewBox="0 0 210 54" fill="none" xmlns="http://www.w3.org/2000/svg">
<path d="M46.8003 0H8.18018C3.93311 0 0.490234 3.44293 0.490234 7.69V46.31C0.490234 50.5571 3.93311 54 8.18018 54H46.8003C51.0474 54 54.4902 50.5571 54.4902 46.31V7.69C54.4902 3.44293 51.0474 0 46.8003 0Z" fill="#7A8091"/>
<path fill-rule="evenodd" clip-rule="evenodd" d="M15.7598 13.0312H39.2305C39.8078 13.0339 40.3613 13.2646 40.7695 13.6729C41.1778 14.0811 41.4075 14.6336 41.4102 15.2109V38.6807C41.4075 39.258 41.1778 39.8115 40.7695 40.2197C40.3613 40.628 39.8078 40.8587 39.2305 40.8613H15.7598C15.1824 40.8587 14.629 40.628 14.2207 40.2197C13.8124 39.8115 13.5827 39.258 13.5801 38.6807V15.2109C13.5827 14.6336 13.8124 14.0811 14.2207 13.6729C14.629 13.2646 15.1824 13.0339 15.7598 13.0312ZM20.2891 24.4209H18.0508C17.911 24.4235 17.7766 24.4803 17.6777 24.5791C17.5789 24.6779 17.5221 24.8114 17.5195 24.9512V27.1914C17.5221 27.3312 17.5789 27.4637 17.6777 27.5625C17.7766 27.6613 17.911 27.7181 18.0508 27.7207H20.2891C20.4288 27.7181 20.5633 27.6613 20.6621 27.5625C20.761 27.4637 20.8177 27.3312 20.8203 27.1914V24.9512C20.8177 24.8114 20.761 24.6779 20.6621 24.5791C20.5633 24.4803 20.4288 24.4235 20.2891 24.4209ZM32.9902 24.8408C33.292 24.1959 33.448 23.4933 33.4492 22.7812C33.4481 22.1412 33.3214 21.5074 33.0742 20.917C32.8271 20.3266 32.4649 19.7908 32.0098 19.3408C31.5552 18.8869 31.0156 18.5266 30.4219 18.2812C29.8282 18.0359 29.1932 17.9105 28.5508 17.9111H21.9492C21.8006 17.9103 21.6549 17.9385 21.5176 17.9951C21.3802 18.0518 21.2552 18.1359 21.1504 18.2412C21.0451 18.346 20.961 18.4701 20.9043 18.6074C20.8476 18.7448 20.8195 18.8924 20.8203 19.041V21.1211H23.5898C23.7296 21.1237 23.864 21.1805 23.9629 21.2793C24.0617 21.3781 24.1166 21.5116 24.1191 21.6514V24.4209H26.8906C27.0304 24.4235 27.1629 24.4803 27.2617 24.5791C27.3606 24.6779 27.4174 24.8114 27.4199 24.9512V27.1914C27.4174 27.3312 27.3606 27.4637 27.2617 27.5625C27.1629 27.6613 27.0304 27.7181 26.8906 27.7207H24.1191V30.4912C24.1166 30.631 24.0617 30.7644 23.9629 30.8633C23.864 30.9621 23.7296 31.0179 23.5898 31.0205H20.8203V34.8311C20.8195 34.9796 20.8476 35.1263 20.9043 35.2637C20.961 35.401 21.0451 35.5261 21.1504 35.6309C21.2552 35.7362 21.3802 35.8193 21.5176 35.876C21.6549 35.9326 21.8006 35.9617 21.9492 35.9609H29.3105C30.0021 35.9603 30.6858 35.8236 31.3242 35.5576C31.9626 35.2916 32.5419 34.9018 33.0293 34.4111C33.5199 33.9237 33.9098 33.3444 34.1758 32.7061C34.4418 32.0677 34.5795 31.383 34.5801 30.6914C34.5826 29.709 34.3078 28.7454 33.7891 27.9111C33.3532 27.209 32.7626 26.6165 32.0605 26.1807C32.4427 25.7849 32.7566 25.3292 32.9902 24.8311V24.8408Z" fill="#F3F5FA"/>
<path fill-rule="evenodd" clip-rule="evenodd" d="M73.8399 35.6797C71.9834 35.6797 70.2034 34.9426 68.8907 33.6299C67.5779 32.3171 66.8399 30.5362 66.8399 28.6797V19C66.8386 18.8976 66.8586 18.7963 66.8965 18.7012C66.9345 18.606 66.9891 18.5187 67.0606 18.4453C67.1321 18.372 67.2184 18.3138 67.3126 18.2734C67.4067 18.233 67.507 18.2113 67.6094 18.21C67.7136 18.2086 67.8177 18.2284 67.9141 18.2676C68.0106 18.3068 68.0983 18.3648 68.1719 18.4385C68.2456 18.5121 68.3026 18.5998 68.3419 18.6963C68.3811 18.7927 68.4018 18.8959 68.4005 19V28.6797C68.4005 30.1278 68.9761 31.5171 70.0001 32.541C71.024 33.565 72.4114 34.1396 73.8594 34.1396C74.5772 34.1423 75.2896 34.0029 75.9532 33.7295C76.6168 33.456 77.2191 33.0544 77.7266 32.5469C78.2342 32.0393 78.6368 31.4361 78.9102 30.7725C79.1837 30.1088 79.323 29.3974 79.3204 28.6797V19C79.319 18.8959 79.3378 18.7927 79.377 18.6963C79.4162 18.5998 79.4753 18.5121 79.5489 18.4385C79.6225 18.3648 79.7102 18.3068 79.8067 18.2676C79.9032 18.2284 80.0053 18.2086 80.1094 18.21C80.2136 18.2086 80.3177 18.2284 80.4141 18.2676C80.5106 18.3068 80.5983 18.3648 80.6719 18.4385C80.7456 18.5121 80.8026 18.5998 80.8419 18.6963C80.8811 18.7927 80.9018 18.8959 80.9005 19V28.6797C80.9005 30.5362 80.1624 32.3171 78.8497 33.6299C77.5369 34.9426 75.757 35.6797 73.9005 35.6797H73.8399ZM97.6192 35.6797H93.6192C93.5151 35.681 93.4129 35.6623 93.3165 35.623C93.22 35.5838 93.1323 35.5248 93.0587 35.4512C92.985 35.3775 92.926 35.2908 92.8868 35.1943C92.8476 35.0979 92.8288 34.9938 92.8301 34.8896V18.96C92.8288 18.8558 92.8476 18.7527 92.8868 18.6562C92.926 18.5598 92.985 18.4721 93.0587 18.3984C93.1323 18.3248 93.22 18.2668 93.3165 18.2275C93.4129 18.1883 93.5151 18.1686 93.6192 18.1699H97.6192C99.9425 18.1699 102.172 19.0925 103.815 20.7354C105.457 22.3782 106.381 24.6064 106.381 26.9297C106.381 29.253 105.457 31.4812 103.815 33.124C102.172 34.7668 99.9425 35.6904 97.6192 35.6904V35.6797ZM94.3907 34.0898H97.6192C99.5236 34.0899 101.352 33.336 102.701 31.9922C104.051 30.6484 104.812 28.8243 104.82 26.9199C104.82 25.0104 104.061 23.1794 102.711 21.8291C101.361 20.4788 99.5288 19.7197 97.6192 19.7197H94.3907V34.0898ZM127.051 35.6797C124.727 35.6744 122.499 34.7483 120.857 33.1045C119.216 31.4607 118.292 29.2336 118.289 26.9102C118.294 24.5885 119.22 22.3634 120.861 20.7217C122.503 19.08 124.729 18.1557 127.051 18.1504C128.301 18.1536 129.536 18.4222 130.674 18.9395C131.812 19.4567 132.826 20.2107 133.65 21.1504C133.72 21.2283 133.773 21.3184 133.807 21.417C133.841 21.5156 133.854 21.6205 133.848 21.7246C133.841 21.8287 133.816 21.9308 133.77 22.0244C133.724 22.118 133.659 22.2008 133.58 22.2695C133.503 22.3415 133.413 22.398 133.315 22.4336C133.216 22.4692 133.109 22.4841 133.004 22.4775C132.899 22.471 132.797 22.4422 132.703 22.3945C132.609 22.3469 132.528 22.2812 132.461 22.2002C131.788 21.4267 130.955 20.8062 130.022 20.3818C129.088 19.9574 128.076 19.739 127.051 19.7402C125.146 19.7482 123.322 20.51 121.979 21.8594C120.635 23.2088 119.881 25.0361 119.881 26.9404C119.884 28.8421 120.639 30.6651 121.982 32.0107C123.326 33.3564 125.149 34.1148 127.051 34.1201C128.025 34.1208 128.989 33.9234 129.885 33.54C130.78 33.1567 131.588 32.5949 132.26 31.8896V28.3701H127.67C127.566 28.3715 127.462 28.3517 127.365 28.3125C127.269 28.2733 127.181 28.2152 127.107 28.1416C127.034 28.068 126.977 27.9802 126.938 27.8838C126.898 27.7873 126.88 27.6842 126.881 27.5801C126.88 27.4755 126.898 27.3714 126.938 27.2744C126.977 27.1774 127.034 27.0891 127.107 27.0146C127.181 26.9402 127.269 26.8811 127.365 26.8408C127.462 26.8005 127.565 26.7803 127.67 26.7803H133.061C133.165 26.7803 133.269 26.8005 133.365 26.8408C133.462 26.8811 133.55 26.9402 133.623 27.0146C133.697 27.0891 133.754 27.1774 133.793 27.2744C133.832 27.3714 133.851 27.4755 133.85 27.5801V32.2002C133.847 32.3919 133.777 32.576 133.65 32.7197C132.829 33.6624 131.814 34.418 130.676 34.9355C129.537 35.4531 128.301 35.7204 127.051 35.7197V35.6797ZM157.211 34.0898H147.609V27.3096H154.529C154.738 27.307 154.938 27.2238 155.086 27.0762C155.234 26.9286 155.318 26.7282 155.32 26.5195C155.315 26.3135 155.23 26.1185 155.082 25.9746C154.935 25.8308 154.735 25.7499 154.529 25.75H147.609V19.75H157.211C157.417 19.7501 157.614 19.6692 157.762 19.5254C157.909 19.3815 157.995 19.1865 158 18.9805C157.997 18.7718 157.913 18.5714 157.766 18.4238C157.618 18.2762 157.42 18.193 157.211 18.1904H146.811C146.706 18.1891 146.602 18.2078 146.506 18.2471C146.409 18.2863 146.322 18.3443 146.248 18.418C146.174 18.4916 146.117 18.5793 146.078 18.6758C146.039 18.7722 146.018 18.8764 146.02 18.9805V34.9102C146.018 35.0143 146.039 35.1174 146.078 35.2139C146.117 35.3103 146.174 35.3981 146.248 35.4717C146.322 35.5453 146.409 35.6034 146.506 35.6426C146.602 35.6818 146.706 35.7015 146.811 35.7002H157.211C157.42 35.6976 157.618 35.6134 157.766 35.4658C157.913 35.3182 157.997 35.1189 158 34.9102C157.993 34.703 157.906 34.5059 157.76 34.3594C157.613 34.2128 157.418 34.1276 157.211 34.1201V34.0898ZM182.551 18.1602H170.711C170.607 18.1588 170.503 18.1785 170.406 18.2178C170.31 18.257 170.222 18.315 170.148 18.3887C170.075 18.4623 170.016 18.55 169.977 18.6465C169.937 18.7429 169.919 18.8461 169.92 18.9502C169.921 19.0526 169.942 19.1539 169.982 19.248C170.023 19.3422 170.083 19.4275 170.156 19.499C170.23 19.5705 170.315 19.6261 170.41 19.6641C170.505 19.702 170.609 19.721 170.711 19.7197H175.85V34.8799C175.848 34.984 175.869 35.0871 175.908 35.1836C175.947 35.28 176.005 35.3678 176.078 35.4414C176.152 35.515 176.24 35.5731 176.336 35.6123C176.432 35.6515 176.537 35.6713 176.641 35.6699C176.743 35.6686 176.843 35.6469 176.938 35.6064C177.032 35.566 177.118 35.5079 177.19 35.4346C177.261 35.3612 177.316 35.2748 177.354 35.1797C177.392 35.0845 177.412 34.9823 177.41 34.8799V19.7197H182.551C182.653 19.721 182.755 19.702 182.85 19.6641C182.945 19.6261 183.03 19.5705 183.104 19.499C183.177 19.4275 183.237 19.3422 183.277 19.248C183.318 19.1539 183.339 19.0526 183.34 18.9502C183.341 18.8461 183.322 18.7429 183.283 18.6465C183.244 18.55 183.185 18.4623 183.111 18.3887C183.038 18.315 182.95 18.257 182.854 18.2178C182.757 18.1785 182.655 18.1588 182.551 18.1602ZM207.891 18.1602H196.051C195.947 18.1588 195.843 18.1785 195.746 18.2178C195.65 18.257 195.562 18.315 195.488 18.3887C195.415 18.4623 195.358 18.55 195.318 18.6465C195.279 18.7429 195.258 18.8461 195.26 18.9502C195.261 19.0526 195.282 19.1539 195.322 19.248C195.363 19.3422 195.423 19.4275 195.496 19.499C195.57 19.5705 195.655 19.6261 195.75 19.6641C195.845 19.702 195.948 19.721 196.051 19.7197H201.19V34.8799C201.188 34.984 201.209 35.0871 201.248 35.1836C201.287 35.28 201.344 35.3678 201.418 35.4414C201.492 35.515 201.579 35.5731 201.676 35.6123C201.772 35.6515 201.876 35.6713 201.981 35.6699C202.083 35.6686 202.183 35.6469 202.277 35.6064C202.372 35.566 202.458 35.5079 202.529 35.4346C202.601 35.3612 202.657 35.2748 202.695 35.1797C202.733 35.0845 202.751 34.9823 202.75 34.8799V19.7197H207.891C207.993 19.721 208.094 19.702 208.19 19.6641C208.285 19.6261 208.372 19.5705 208.445 19.499C208.519 19.4275 208.577 19.3422 208.617 19.248C208.658 19.1539 208.678 19.0526 208.68 18.9502C208.681 18.8461 208.662 18.7429 208.623 18.6465C208.584 18.55 208.525 18.4623 208.451 18.3887C208.378 18.315 208.29 18.257 208.193 18.2178C208.097 18.1785 207.995 18.1588 207.891 18.1602Z" fill="#7A8091" stroke="#7A8091" stroke-width="1.0287" stroke-miterlimit="22.9256"/>
</svg>
