<svg width="224" height="35" viewBox="0 0 224 35" fill="none" xmlns="http://www.w3.org/2000/svg">
<path fill-rule="evenodd" clip-rule="evenodd" d="M57.0001 27.96C55.8641 27.9573 54.7399 27.7311 53.6914 27.2939C52.6429 26.8568 51.6908 26.2172 50.8895 25.4121C50.0881 24.607 49.4531 23.652 49.0209 22.6016C48.5886 21.5511 48.3674 20.426 48.3701 19.29V7.39014C48.3266 7.2411 48.3184 7.08389 48.3462 6.93115C48.374 6.77841 48.4369 6.63396 48.5301 6.50977C48.6232 6.38557 48.744 6.28476 48.8829 6.21533C49.0217 6.1459 49.1748 6.10986 49.3301 6.10986C49.4853 6.10986 49.6384 6.1459 49.7773 6.21533C49.9162 6.28476 50.0369 6.38557 50.1301 6.50977C50.2232 6.63396 50.2862 6.77841 50.314 6.93115C50.3417 7.08389 50.3336 7.2411 50.2901 7.39014V19.29C50.2901 21.071 50.9975 22.7788 52.2569 24.0381C53.5162 25.2974 55.2242 26.0049 57.0051 26.0049C58.786 26.0049 60.494 25.2974 61.7533 24.0381C63.0126 22.7788 63.7201 21.071 63.7201 19.29V7.39014C63.7201 7.12492 63.8254 6.87064 64.013 6.68311C64.2005 6.49557 64.4549 6.39014 64.7201 6.39014C64.9853 6.39014 65.2396 6.49557 65.4272 6.68311C65.6147 6.87064 65.7201 7.12492 65.7201 7.39014V19.29C65.7214 20.429 65.498 21.5569 65.0628 22.6094C64.6276 23.6619 63.989 24.618 63.1836 25.4233C62.3783 26.2287 61.422 26.8675 60.3695 27.3027C59.317 27.738 58.189 27.9613 57.0501 27.96H57.0001ZM86.2301 27.96H81.2901C81.0249 27.96 80.7705 27.8545 80.583 27.667C80.3954 27.4795 80.2901 27.2252 80.2901 26.96V7.37012C80.2901 7.1049 80.3954 6.85062 80.583 6.66309C80.7705 6.47555 81.0249 6.37012 81.2901 6.37012H86.2301C89.0865 6.37012 91.8259 7.50465 93.8456 9.52441C95.8654 11.5442 97.0001 14.2838 97.0001 17.1401C97.0001 19.9965 95.8654 22.7356 93.8456 24.7554C91.8259 26.7751 89.0865 27.9102 86.2301 27.9102V27.96ZM82.2301 25.96H86.2301C88.572 25.96 90.8179 25.0295 92.4738 23.3735C94.1298 21.7176 95.0601 19.4717 95.0601 17.1299C95.0601 14.788 94.1298 12.5422 92.4738 10.8862C90.8179 9.23028 88.572 8.2998 86.2301 8.2998H82.2301V25.96ZM122.38 27.96C120.581 27.9549 118.812 27.499 117.234 26.6343C115.656 25.7695 114.32 24.5232 113.348 23.0093C112.376 21.4954 111.799 19.7622 111.669 17.9678C111.539 16.1733 111.86 14.375 112.604 12.7368C113.348 11.0987 114.491 9.67286 115.928 8.58984C117.364 7.50683 119.049 6.80082 120.829 6.53662C122.609 6.27242 124.426 6.45821 126.116 7.07715C127.805 7.69608 129.312 8.72869 130.5 10.0801C130.663 10.2768 130.744 10.528 130.727 10.7827C130.711 11.0374 130.597 11.2765 130.41 11.4502C130.213 11.6129 129.962 11.694 129.707 11.6772C129.452 11.6605 129.214 11.5469 129.04 11.3599C127.867 10.0203 126.315 9.06712 124.59 8.625C122.865 8.18288 121.047 8.27278 119.374 8.88281C117.7 9.49284 116.251 10.5942 115.215 12.043C114.179 13.4917 113.606 15.22 113.57 17.0005C113.534 18.781 114.037 20.5307 115.014 22.02C115.99 23.5093 117.394 24.6687 119.042 25.3457C120.689 26.0227 122.502 26.1857 124.244 25.8135C125.985 25.4413 127.574 24.5509 128.8 23.2598V18.9302H123.16C122.895 18.9302 122.64 18.8247 122.453 18.6372C122.265 18.4497 122.16 18.1954 122.16 17.9302C122.16 17.665 122.265 17.4102 122.453 17.2227C122.64 17.0351 122.895 16.9302 123.16 16.9302H129.78C130.045 16.9302 130.3 17.0351 130.487 17.2227C130.675 17.4102 130.78 17.665 130.78 17.9302V23.6099C130.778 23.8448 130.693 24.0715 130.54 24.25C129.53 25.4104 128.282 26.3405 126.881 26.9771C125.48 27.6136 123.959 27.9418 122.42 27.9399L122.38 27.96ZM159.45 25.96H147.71V17.6299H156.22C156.369 17.6734 156.526 17.6816 156.679 17.6538C156.832 17.626 156.976 17.5634 157.1 17.4702C157.224 17.3771 157.325 17.256 157.394 17.1172C157.464 16.9783 157.5 16.8252 157.5 16.6699C157.5 16.5147 157.464 16.3615 157.394 16.2227C157.325 16.0838 157.224 15.9633 157.1 15.8701C156.976 15.777 156.832 15.7138 156.679 15.686C156.526 15.6583 156.369 15.6665 156.22 15.71H147.71V8.2998H159.52C159.669 8.34327 159.826 8.3515 159.979 8.32373C160.132 8.29596 160.276 8.23328 160.4 8.14014C160.524 8.04699 160.625 7.92596 160.694 7.78711C160.764 7.64825 160.8 7.49509 160.8 7.33984C160.8 7.1846 160.764 7.03143 160.694 6.89258C160.625 6.75372 160.524 6.63319 160.4 6.54004C160.276 6.44689 160.132 6.38373 159.979 6.35596C159.826 6.32819 159.669 6.33641 159.52 6.37988H146.73C146.465 6.37988 146.211 6.48532 146.023 6.67285C145.835 6.86039 145.73 7.11467 145.73 7.37988V26.9702C145.73 27.2354 145.835 27.4897 146.023 27.6772C146.211 27.8648 146.465 27.9702 146.73 27.9702H159.51C159.775 27.9702 160.03 27.8648 160.217 27.6772C160.405 27.4897 160.51 27.2354 160.51 26.9702C160.51 26.705 160.405 26.4502 160.217 26.2627C160.03 26.0752 159.775 25.9702 159.51 25.9702L159.45 25.96ZM190.6 6.37012H176.11C175.961 6.32665 175.804 6.31842 175.651 6.34619C175.498 6.37396 175.354 6.43664 175.23 6.52979C175.106 6.62293 175.005 6.74396 174.936 6.88281C174.866 7.02167 174.83 7.17483 174.83 7.33008C174.83 7.48532 174.866 7.63849 174.936 7.77734C175.005 7.9162 175.106 8.03674 175.23 8.12988C175.354 8.22303 175.498 8.28619 175.651 8.31396C175.804 8.34174 175.961 8.33351 176.11 8.29004H182.43V26.9302C182.387 27.0792 182.378 27.2359 182.406 27.3887C182.434 27.5414 182.497 27.6859 182.59 27.8101C182.683 27.9343 182.804 28.0351 182.943 28.1045C183.082 28.1739 183.235 28.21 183.39 28.21C183.545 28.21 183.698 28.1739 183.837 28.1045C183.976 28.0351 184.097 27.9343 184.19 27.8101C184.283 27.6859 184.346 27.5414 184.374 27.3887C184.402 27.2359 184.394 27.0792 184.35 26.9302V8.29004H190.67C190.819 8.33351 190.976 8.34174 191.129 8.31396C191.282 8.28619 191.426 8.22303 191.55 8.12988C191.674 8.03674 191.775 7.9162 191.844 7.77734C191.914 7.63849 191.95 7.48532 191.95 7.33008C191.95 7.17483 191.914 7.02167 191.844 6.88281C191.775 6.74396 191.674 6.62293 191.55 6.52979C191.426 6.43664 191.282 6.37396 191.129 6.34619C190.976 6.31842 190.819 6.32665 190.67 6.37012H190.6ZM221.75 6.37012H207.26C207.111 6.32665 206.954 6.31842 206.801 6.34619C206.648 6.37396 206.504 6.43664 206.38 6.52979C206.256 6.62293 206.155 6.74396 206.086 6.88281C206.016 7.02167 205.98 7.17483 205.98 7.33008C205.98 7.48532 206.016 7.63849 206.086 7.77734C206.155 7.9162 206.256 8.03674 206.38 8.12988C206.504 8.22303 206.648 8.28619 206.801 8.31396C206.954 8.34174 207.111 8.33351 207.26 8.29004H213.58V26.9302C213.537 27.0792 213.528 27.2359 213.556 27.3887C213.584 27.5414 213.647 27.6859 213.74 27.8101C213.833 27.9343 213.954 28.0351 214.093 28.1045C214.232 28.1739 214.385 28.21 214.54 28.21C214.695 28.21 214.848 28.1739 214.987 28.1045C215.126 28.0351 215.247 27.9343 215.34 27.8101C215.433 27.6859 215.496 27.5414 215.524 27.3887C215.552 27.2359 215.544 27.0792 215.5 26.9302V8.29004H221.82C221.969 8.33351 222.126 8.34174 222.279 8.31396C222.432 8.28619 222.576 8.22303 222.7 8.12988C222.824 8.03674 222.925 7.9162 222.995 7.77734C223.064 7.63849 223.1 7.48532 223.1 7.33008C223.1 7.17483 223.064 7.02167 222.995 6.88281C222.925 6.74396 222.824 6.62293 222.7 6.52979C222.576 6.43664 222.432 6.37396 222.279 6.34619C222.126 6.31842 221.969 6.32665 221.82 6.37012H221.75Z" fill="#F2F4F9" stroke="#F2F4F9" stroke-width="0.1474" stroke-miterlimit="22.9256"/>
<path fill-rule="evenodd" clip-rule="evenodd" d="M3.68024 0.109863H32.5302C33.2437 0.109863 33.9279 0.393476 34.4324 0.897949C34.9368 1.40242 35.2202 2.08637 35.2202 2.7998V31.6499C35.2202 32.3633 34.9368 33.0478 34.4324 33.5522C33.9279 34.0567 33.2437 34.3398 32.5302 34.3398H3.68024C2.9668 34.3398 2.28261 34.0567 1.77814 33.5522C1.27366 33.0478 0.990234 32.3633 0.990234 31.6499V2.7998C0.990234 2.08637 1.27366 1.40242 1.77814 0.897949C2.28261 0.393476 2.9668 0.109863 3.68024 0.109863ZM9.25024 14.1099H6.50024C6.3252 14.1099 6.15731 14.1794 6.03354 14.3032C5.90976 14.427 5.84024 14.595 5.84024 14.77V17.48C5.84024 17.655 5.90976 17.823 6.03354 17.9468C6.15731 18.0706 6.3252 18.1401 6.50024 18.1401H9.25024C9.42529 18.1401 9.59318 18.0706 9.71695 17.9468C9.84072 17.823 9.91025 17.655 9.91025 17.48V14.73C9.91025 14.5549 9.84072 14.387 9.71695 14.2632C9.59318 14.1394 9.42529 14.0698 9.25024 14.0698V14.1099ZM24.8702 14.6299C25.2961 13.7141 25.4839 12.7055 25.4163 11.6978C25.3486 10.69 25.0276 9.71588 24.4832 8.86523C23.9387 8.01459 23.1883 7.31543 22.3015 6.83203C21.4147 6.34863 20.4202 6.09681 19.4102 6.1001H11.3002C11.1173 6.09877 10.936 6.13374 10.7668 6.20312C10.5975 6.27251 10.4437 6.37457 10.3144 6.50391C10.1851 6.63325 10.0827 6.7873 10.0133 6.95654C9.94395 7.12579 9.90892 7.30684 9.91025 7.48975V10.04H13.3203C13.4953 10.04 13.6632 10.1096 13.7869 10.2334C13.9107 10.3572 13.9803 10.5252 13.9803 10.7002V14.1099H17.3903C17.5653 14.1099 17.7332 14.1794 17.8569 14.3032C17.9807 14.427 18.0502 14.595 18.0502 14.77V17.48C18.0502 17.655 17.9807 17.823 17.8569 17.9468C17.7332 18.0706 17.5653 18.1401 17.3903 18.1401H14.0002V21.5498C14.0002 21.6365 13.9832 21.7227 13.95 21.8027C13.9168 21.8828 13.8682 21.9553 13.8069 22.0166C13.7457 22.0779 13.6729 22.1265 13.5928 22.1597C13.5127 22.1928 13.4269 22.21 13.3402 22.21H9.93024V26.8901C9.92647 27.0751 9.95994 27.2589 10.0287 27.4307C10.0974 27.6025 10.1999 27.7588 10.3302 27.8901C10.4616 28.0204 10.6178 28.1227 10.7896 28.1914C10.9614 28.2601 11.1452 28.2938 11.3302 28.29H20.3302C21.4849 28.2914 22.6189 27.9837 23.6146 27.3989C24.6103 26.8142 25.4313 25.9735 25.9925 24.9644C26.5537 23.9552 26.8346 22.8145 26.8061 21.6602C26.7775 20.5058 26.4406 19.3801 25.8302 18.3999C25.2927 17.5388 24.5638 16.8133 23.7003 16.2798C24.1798 15.7954 24.5753 15.2347 24.8702 14.6201V14.6299Z" fill="#F2F4F9"/>
</svg>
