<svg width="674" height="104" viewBox="0 0 674 104" fill="none" xmlns="http://www.w3.org/2000/svg">
<path fill-rule="evenodd" clip-rule="evenodd" d="M170.379 84.67C163.425 84.6541 156.762 81.8783 151.853 76.9526C146.944 72.0269 144.191 65.354 144.199 58.3999V22.32C144.199 21.5469 144.506 20.8054 145.053 20.2588C145.6 19.7121 146.341 19.4049 147.114 19.4049C147.887 19.4049 148.629 19.7121 149.175 20.2588C149.722 20.8054 150.029 21.5469 150.029 22.32V58.3999C150.029 63.7984 152.174 68.9758 155.991 72.7931C159.808 76.6104 164.986 78.755 170.384 78.755C175.783 78.755 180.96 76.6104 184.777 72.7931C188.595 68.9758 190.739 63.7984 190.739 58.3999V22.32C190.855 21.6184 191.216 20.9808 191.758 20.5208C192.3 20.0608 192.988 19.8082 193.699 19.8082C194.41 19.8082 195.098 20.0608 195.64 20.5208C196.182 20.9808 196.543 21.6184 196.659 22.32V58.3999C196.661 61.8501 195.982 65.2668 194.662 68.4546C193.342 71.6424 191.408 74.5389 188.968 76.9785C186.528 79.4182 183.632 81.3532 180.444 82.6729C177.256 83.9927 173.839 84.6713 170.389 84.67H170.379ZM259.009 84.67H243.999C243.602 84.681 243.207 84.6109 242.838 84.4641C242.469 84.3172 242.134 84.0966 241.853 83.8158C241.573 83.535 241.352 83.1999 241.205 82.8309C241.058 82.4619 240.988 82.0669 240.999 81.67V22.32C240.988 21.923 241.058 21.5279 241.205 21.159C241.352 20.79 241.573 20.4548 241.853 20.174C242.134 19.8932 242.469 19.6727 242.838 19.5258C243.207 19.379 243.602 19.3089 243.999 19.32H258.999C267.661 19.32 275.968 22.7609 282.093 28.8858C288.218 35.0108 291.659 43.318 291.659 51.9799C291.659 60.6419 288.218 68.9491 282.093 75.0741C275.968 81.199 267.661 84.6399 258.999 84.6399L259.009 84.67ZM247.009 78.75H259.009C266.113 78.75 272.926 75.928 277.949 70.9048C282.972 65.8817 285.794 59.0688 285.794 51.9649C285.794 44.8611 282.972 38.0483 277.949 33.0251C272.926 28.002 266.113 25.18 259.009 25.18H246.999V78.75H247.009ZM368.759 84.67C363.295 84.6701 357.918 83.2996 353.12 80.6841C348.323 78.0685 344.258 74.2913 341.298 69.6983C338.337 65.1052 336.576 59.8431 336.176 54.3935C335.776 48.9439 336.749 43.4809 339.006 38.5046C341.263 33.5283 344.732 29.1976 349.096 25.909C353.46 22.6204 358.579 20.4789 363.985 19.6806C369.391 18.8822 374.91 19.4524 380.039 21.3391C385.167 23.2258 389.74 26.3686 393.339 30.4799C393.596 30.7704 393.793 31.109 393.918 31.4761C394.043 31.8432 394.094 32.2315 394.068 32.6184C394.042 33.0054 393.94 33.3834 393.767 33.7304C393.593 34.0774 393.353 34.3865 393.059 34.6399C392.773 34.9061 392.436 35.1109 392.068 35.2416C391.699 35.3723 391.308 35.4262 390.919 35.3999C390.529 35.3737 390.149 35.2679 389.801 35.089C389.454 34.9101 389.147 34.662 388.899 34.36C385.341 30.2973 380.637 27.4055 375.406 26.0639C370.175 24.7224 364.66 24.9939 359.586 26.8428C354.512 28.6917 350.115 32.0315 346.973 36.424C343.831 40.8165 342.09 46.0563 341.98 51.4557C341.869 56.8552 343.393 62.162 346.353 66.6795C349.312 71.1971 353.568 74.7143 358.562 76.7696C363.557 78.8248 369.056 79.322 374.337 78.196C379.619 77.07 384.437 74.3733 388.159 70.4599V57.2899H370.999C370.284 57.188 369.63 56.8316 369.156 56.286C368.683 55.7404 368.422 55.0423 368.422 54.32C368.422 53.5976 368.683 52.8995 369.156 52.3539C369.63 51.8083 370.284 51.4518 370.999 51.3499H391.079C391.476 51.3404 391.87 51.4114 392.238 51.5587C392.607 51.7061 392.941 51.9267 393.222 52.2072C393.502 52.4878 393.723 52.8223 393.87 53.1906C394.018 53.559 394.089 53.9534 394.079 54.3499V71.56C394.071 72.2741 393.809 72.962 393.339 73.5C390.276 77.017 386.494 79.8359 382.249 81.7663C378.003 83.6967 373.393 84.6937 368.729 84.69L368.759 84.67ZM481.169 78.75H445.369V53.4799H471.179C471.952 53.4799 472.694 53.1729 473.24 52.6262C473.787 52.0795 474.094 51.3381 474.094 50.565C474.094 49.7919 473.787 49.0504 473.24 48.5038C472.694 47.9571 471.952 47.6499 471.179 47.6499H445.369V25.19H481.169C481.942 25.19 482.684 24.8828 483.23 24.3361C483.777 23.7895 484.084 23.048 484.084 22.2749C484.084 21.5018 483.777 20.7604 483.23 20.2137C482.684 19.667 481.942 19.36 481.169 19.36H442.409C442.012 19.3489 441.617 19.419 441.248 19.5658C440.879 19.7127 440.544 19.9333 440.263 20.2141C439.983 20.4949 439.762 20.83 439.615 21.1989C439.468 21.5679 439.398 21.963 439.409 22.36V81.75C439.398 82.1469 439.468 82.542 439.615 82.9109C439.762 83.2799 439.983 83.615 440.263 83.8958C440.544 84.1767 440.879 84.3972 441.248 84.5441C441.617 84.691 442.012 84.761 442.409 84.75H481.169C481.965 84.75 482.728 84.4339 483.29 83.8712C483.853 83.3086 484.169 82.5456 484.169 81.75C484.169 80.9543 483.853 80.1912 483.29 79.6286C482.728 79.066 481.965 78.75 481.169 78.75ZM575.629 19.36H531.499C530.726 19.36 529.985 19.667 529.438 20.2137C528.891 20.7604 528.584 21.5018 528.584 22.2749C528.584 23.048 528.891 23.7895 529.438 24.3361C529.985 24.8828 530.726 25.19 531.499 25.19H550.649V81.7199C550.649 82.493 550.956 83.2345 551.503 83.7812C552.05 84.3278 552.791 84.635 553.564 84.635C554.337 84.635 555.079 84.3278 555.625 83.7812C556.172 83.2345 556.479 82.493 556.479 81.7199V25.19H575.629C576.402 25.19 577.144 24.8828 577.69 24.3361C578.237 23.7895 578.544 23.048 578.544 22.2749C578.544 21.5018 578.237 20.7604 577.69 20.2137C577.144 19.667 576.402 19.36 575.629 19.36ZM670.089 19.36H625.959C625.186 19.36 624.445 19.667 623.898 20.2137C623.351 20.7604 623.044 21.5018 623.044 22.2749C623.044 23.048 623.351 23.7895 623.898 24.3361C624.445 24.8828 625.186 25.19 625.959 25.19H645.109V81.7199C645.109 82.493 645.416 83.2345 645.963 83.7812C646.51 84.3278 647.251 84.635 648.024 84.635C648.797 84.635 649.539 84.3278 650.085 83.7812C650.632 83.2345 650.939 82.493 650.939 81.7199V25.19H669.999C670.772 25.19 671.514 24.8828 672.06 24.3361C672.607 23.7895 672.914 23.048 672.914 22.2749C672.914 21.5018 672.607 20.7604 672.06 20.2137C671.514 19.667 670.772 19.36 669.999 19.36H670.089Z" fill="#241D4A" stroke="#241D4A" stroke-width="1.4173" stroke-miterlimit="22.9256"/>
<path fill-rule="evenodd" clip-rule="evenodd" d="M8.82947 0.23999H96.2795C98.4367 0.245271 100.504 1.10454 102.029 2.62994C103.555 4.15535 104.414 6.22277 104.419 8.38V95.83C104.414 97.9872 103.555 100.055 102.029 101.58C100.504 103.105 98.4367 103.965 96.2795 103.97H8.82947C6.67223 103.965 4.60481 103.105 3.07941 101.58C1.554 100.055 0.694734 97.9872 0.689453 95.83V8.38C0.694734 6.22277 1.554 4.15535 3.07941 2.62994C4.60481 1.10454 6.67223 0.245271 8.82947 0.23999ZM25.6995 42.67H17.3594C16.829 42.67 16.3203 42.8807 15.9453 43.2557C15.5702 43.6308 15.3594 44.1395 15.3594 44.67V53.01C15.3594 53.5404 15.5702 54.0491 15.9453 54.4242C16.3203 54.7993 16.829 55.01 17.3594 55.01H25.6995C26.2299 55.01 26.7386 54.7993 27.1136 54.4242C27.4887 54.0491 27.6995 53.5404 27.6995 53.01V44.67C27.6995 44.1395 27.4887 43.6308 27.1136 43.2557C26.7386 42.8807 26.2299 42.67 25.6995 42.67ZM72.9995 44.23C74.2798 41.4536 74.8409 38.3996 74.631 35.3494C74.4212 32.2992 73.4471 29.3508 71.7986 26.7759C70.15 24.201 67.8801 22.0824 65.1977 20.6151C62.5153 19.1479 59.5069 18.3792 56.4495 18.38H31.9094C31.3554 18.376 30.8062 18.4822 30.2936 18.6923C29.7811 18.9025 29.3154 19.2125 28.9236 19.6042C28.5319 19.9959 28.2219 20.4616 28.0118 20.9742C27.8016 21.4868 27.6955 22.036 27.6995 22.59V30.33H37.9995C38.5299 30.33 39.0386 30.5407 39.4136 30.9158C39.7887 31.2908 39.9995 31.7995 39.9995 32.33V42.66H50.3295C50.8599 42.66 51.3686 42.8707 51.7437 43.2458C52.1187 43.6209 52.3295 44.1295 52.3295 44.66V53C52.3295 53.5304 52.1187 54.0391 51.7437 54.4142C51.3686 54.7893 50.8599 55 50.3295 55H39.9995V65.33C39.9995 65.8604 39.7887 66.3691 39.4136 66.7442C39.0386 67.1193 38.5299 67.33 37.9995 67.33H27.6995V81.48C27.6936 82.036 27.7984 82.5875 28.0079 83.1026C28.2173 83.6177 28.5272 84.0859 28.9194 84.48C29.3139 84.8718 29.7821 85.1813 30.2971 85.3907C30.8121 85.6002 31.3635 85.7053 31.9194 85.7H59.3494C62.8516 85.7036 66.2909 84.7699 69.3104 82.9955C72.3298 81.2212 74.8192 78.671 76.5203 75.6097C78.2213 72.5484 79.072 69.0877 78.9839 65.5866C78.8959 62.0856 77.8723 58.6718 76.0195 55.7C74.3897 53.088 72.179 50.8875 69.5594 49.27C70.9763 47.7913 72.1387 46.0883 72.9995 44.23Z" fill="url(#paint0_linear)"/>
<defs>
<linearGradient id="paint0_linear" x1="71206.1" y1="69574" x2="77244.3" y2="61254.9" gradientUnits="userSpaceOnUse">
<stop stop-color="#1E1347"/>
<stop offset="1" stop-color="#996C95"/>
</linearGradient>
</defs>
</svg>
