<svg width="112" height="150" viewBox="0 0 112 150" fill="none" xmlns="http://www.w3.org/2000/svg">
<path fill-rule="evenodd" clip-rule="evenodd" d="M96.2521 39.1178L35.024 3.77034C31.5354 1.75707 28.3697 1.49587 26.0029 2.67924L23.6054 4.21608L5.99317 15.0821C5.947 15.1052 5.91131 15.1444 5.89411 15.1931C5.87692 15.2418 5.87948 15.2962 5.90087 15.3432C6.79224 17.2028 15.1219 34.5835 15.8596 37.7955C16.1823 39.148 18.7798 52.4426 21.792 67.9186V75.7259C21.9659 80.4795 23.3804 85.1041 25.8952 89.1418C28.9689 105.279 31.6892 119.064 31.7661 119.433L40.8333 140.841C40.8447 140.87 40.8621 140.897 40.8844 140.918C40.9066 140.939 40.9332 140.956 40.9624 140.966C40.9916 140.976 41.0224 140.979 41.0532 140.977C41.084 140.974 41.1138 140.964 41.1406 140.949L61.8727 128.87C61.9163 128.844 61.9496 128.804 61.9665 128.756C61.9833 128.708 61.9828 128.656 61.965 128.609L60.4281 124.243C59.9951 122.011 59.7126 119.752 59.5828 117.482L86.001 146.882C86.0398 146.914 86.0889 146.932 86.1395 146.932C86.1901 146.932 86.2392 146.914 86.2779 146.882L105.58 134.955L105.888 134.771C108.163 133.342 109.561 130.437 109.561 126.334V62.232C109.592 53.7179 103.583 43.3595 96.2521 39.1178Z" fill="#AFC3D5"/>
<path fill-rule="evenodd" clip-rule="evenodd" d="M57.3367 111.797L86.5368 144.362L104.549 133.236L105.917 134.773L104.84 133.051C106.592 131.945 107.561 129.562 107.561 126.335V62.2333C107.561 54.549 101.921 44.728 95.266 40.8705L34.0383 5.52308C31.3027 3.98623 28.7821 3.5714 26.9379 4.49351L8.49575 15.8818C10.9393 21.0148 17.1791 34.3242 17.886 37.2595C18.1627 38.4429 20.1143 48.3254 23.8334 67.4591V67.8884V75.5726C24.0148 79.9633 25.3334 84.2325 27.6602 87.9604L27.8448 88.2831L27.9371 88.7123L33.7614 118.789L41.9683 138.246L59.6266 127.963L58.5047 124.737C58.049 122.398 57.7511 120.03 57.6133 117.651L57.306 111.888L57.3367 111.797ZM86.2603 148.958C85.945 148.958 85.6329 148.893 85.3444 148.766C85.0559 148.639 84.7973 148.453 84.585 148.22L62.4699 123.631V123.707L64.0068 127.948C64.1815 128.445 64.1772 128.988 63.9948 129.481C63.8124 129.975 63.4632 130.39 63.0076 130.654L41.4918 143.195L40.4468 142.933C40.1424 142.832 39.8632 142.667 39.6274 142.45C39.3915 142.233 39.2047 141.968 39.0792 141.673L29.8581 119.773L24.0642 89.8499C21.4515 85.567 19.9953 80.6801 19.8379 75.6656V68.073C16.1955 49.3696 14.2129 39.3191 13.9516 38.2126C13.4445 36.0917 8.51099 25.3033 4.14635 16.1744C3.90541 15.672 3.86007 15.0966 4.01916 14.5625C4.17824 14.0285 4.53045 13.5741 5.00708 13.2853L24.9861 0.990583C28.2288 -0.638473 32.117 -0.239734 36.082 2.05017L97.3101 37.3976C105.225 42.0081 111.68 53.1356 111.68 62.2798V126.382C111.68 130.992 110.035 134.665 107.069 136.54L87.4591 148.665C87.0814 148.899 86.6429 149.017 86.1987 149.003L86.2603 148.958Z" fill="#1C2A40"/>
<path fill-rule="evenodd" clip-rule="evenodd" d="M96.1893 39.1175L38.8034 6.10535L9.94141 24.2098L71.4152 56.4836L84.3249 58.5277L104.181 46.7252C102.096 43.6438 99.3696 41.0486 96.1893 39.1175Z" fill="#FEFEFE"/>
<path fill-rule="evenodd" clip-rule="evenodd" d="M72.017 54.594L83.866 56.4685L101.155 46.2029C99.497 44.0811 97.4661 42.2793 95.1619 40.8854L38.8363 8.48861L14.0164 24.0717L72.017 54.609V54.594ZM84.6806 60.7413L70.4186 58.3745L5.87109 24.3944L38.7594 3.755L97.1595 37.381C100.603 39.4807 103.546 42.3074 105.781 45.6641L107.026 47.462L84.6806 60.7413Z" fill="#1C2A40"/>
<path fill-rule="evenodd" clip-rule="evenodd" d="M89.2572 69.0875C89.2572 69.0875 64.468 74.9432 62.8697 75.5426C61.5326 76.0344 37.2504 95.6292 28.9668 104.743L31.7944 119.311L40.862 140.72C40.8733 140.748 40.8907 140.775 40.913 140.796C40.9353 140.818 40.9619 140.834 40.991 140.844C41.0202 140.854 41.0511 140.858 41.0818 140.856C41.1126 140.853 41.1425 140.843 41.1693 140.828L61.9013 128.748C61.945 128.723 61.9782 128.682 61.9951 128.634C62.012 128.586 62.0114 128.535 61.9936 128.487L60.4567 124.121C60.0237 121.889 59.7412 119.631 59.6114 117.36L86.0297 146.76C86.0684 146.792 86.1175 146.81 86.1681 146.81C86.2187 146.81 86.2678 146.792 86.3066 146.76L105.609 134.833L105.917 134.65C108.191 133.22 109.59 130.315 109.59 126.212V62.1102C109.578 60.4746 109.383 58.8452 109.006 57.2535L89.2572 69.0875Z" fill="#1C2A40"/>
<path d="M46.6523 30.9914L31.9023 39.9099L33.3165 42.2487L48.0664 33.3301L46.6523 30.9914Z" fill="#AFC3D5"/>
<path d="M106.463 123.941L91.791 132.823L93.1994 135.149L107.871 126.267L106.463 123.941Z" fill="#AFC3D5"/>
<path fill-rule="evenodd" clip-rule="evenodd" d="M76.6693 51.3365L15.3336 15.9891C8.01821 11.7628 2.10156 15.1899 2.10156 23.6733V87.8981C2.10156 96.3354 8.03357 106.601 15.3336 110.828L22.3263 114.854C23.0029 115.299 23.5811 115.877 24.0252 116.553C24.4693 117.23 24.7697 117.991 24.9081 118.788C26.3312 127.679 31.1529 135.669 38.3555 141.072C40.2919 142.502 41.8443 141.272 41.2603 138.798C40.412 135.272 39.9382 131.666 39.8466 128.041C39.8466 126.35 41.0453 125.689 42.5053 126.504L76.6693 146.221C83.9847 150.447 89.9013 147.02 89.9013 138.537V74.3127C89.9167 65.8293 83.9847 55.5628 76.6693 51.3365Z" fill="#AFC3D5"/>
<path fill-rule="evenodd" clip-rule="evenodd" d="M41.3106 124.012C42.0921 124.03 42.8552 124.252 43.5236 124.658L77.6876 144.376C80.5615 146.035 83.1742 146.358 85.0184 145.297C86.8626 144.237 87.8771 141.809 87.8771 138.489V74.2496C87.6355 70.004 86.3963 65.8749 84.2601 62.1979C82.1239 58.521 79.1509 55.3991 75.5823 53.0864L14.2466 17.739C11.3727 16.0792 8.76002 15.7417 6.9158 16.8175C5.07159 17.8933 4.05748 20.2903 4.05748 23.6252V87.85C4.29903 92.0956 5.53789 96.2247 7.67409 99.9017C9.8103 103.579 12.7836 106.701 16.3522 109.013L23.3446 113.038C24.2862 113.633 25.0921 114.42 25.7091 115.347C26.3262 116.274 26.7406 117.319 26.9256 118.417C28.2034 126.661 32.6062 134.097 39.2203 139.181C38.3185 135.51 37.8034 131.756 37.6835 127.978C37.6427 127.294 37.7866 126.612 38.1003 126.004C38.414 125.396 38.8861 124.883 39.4665 124.52C39.9889 124.216 40.583 124.055 41.1875 124.057L41.3106 124.012ZM82.59 149.985C80.1367 149.906 77.7469 149.185 75.6589 147.894L41.8483 128.407C41.9671 131.722 42.4151 135.017 43.1855 138.243C43.4712 139.109 43.4764 140.043 43.2005 140.912C42.9246 141.782 42.3816 142.542 41.6487 143.084C40.9289 143.5 40.0965 143.68 39.2691 143.597C38.4417 143.515 37.6612 143.174 37.0381 142.623C29.3857 136.92 24.2715 128.446 22.7915 119.018C22.6199 118.021 22.0692 117.128 21.2547 116.528L14.262 112.486C6.27037 107.876 0 97.0249 0 87.7885V23.5637C0 18.7226 1.73691 15.05 4.88744 13.2365C8.03797 11.423 12.0951 11.6991 16.2907 14.158L77.6261 49.5055C85.6177 54.116 91.888 64.9666 91.888 74.203V138.443C91.888 143.284 90.1515 146.957 86.9856 148.771C85.6543 149.56 84.1379 149.984 82.59 150V149.985Z" fill="#1C2A40"/>
<path fill-rule="evenodd" clip-rule="evenodd" d="M72.5341 106.971L67.6624 100.916C68.1817 98.9079 68.4399 96.8418 68.4309 94.7681C68.4084 92.3971 68.151 90.0345 67.6624 87.7142L72.5341 87.2835C73.2411 87.2835 73.4717 86.316 73.0722 85.2709L68.6616 73.9127C68.262 72.8676 67.3552 72.0697 66.6636 72.1312L61.807 72.5604C59.1604 67.9686 55.8104 63.82 51.879 60.2656V53.719C51.8453 53.202 51.6883 52.7011 51.4209 52.2572C51.1535 51.8134 50.7835 51.4392 50.3422 51.1676L41.5207 46.0813C40.7061 45.6203 39.9838 45.9888 39.9838 46.9263V53.4114C38.3537 52.8949 36.6379 52.7054 34.9343 52.8531C33.2307 53.0008 31.5728 53.4836 30.0559 54.2729L25.1996 48.232C24.4926 47.356 23.6626 47.1261 23.1862 47.6947L18.7753 53.9652C18.6047 54.4089 18.5648 54.8923 18.6601 55.358C18.7554 55.8236 18.9822 56.2521 19.3133 56.5931L24.185 62.6475C23.6658 64.6551 23.4075 66.7212 23.4166 68.7948C23.4391 71.1658 23.6965 73.53 24.185 75.8502L19.3133 76.2795C18.6064 76.2795 18.3757 77.2485 18.7753 78.2936L23.1862 89.6503C23.5858 90.6954 24.4926 91.4948 25.1996 91.4333L30.0559 91.0026C32.6999 95.5961 36.0502 99.7451 39.9838 103.297V109.799C40.0188 110.316 40.1766 110.817 40.4438 111.261C40.7111 111.704 41.0802 112.078 41.5207 112.35L50.3422 117.437C51.1567 117.913 51.879 117.529 51.879 116.592V110.107C53.5093 110.622 55.225 110.811 56.9285 110.663C58.632 110.516 60.2897 110.034 61.807 109.245L66.6636 115.284C67.3706 116.16 68.2005 116.392 68.6616 115.823L73.0722 109.553C73.2333 109.115 73.2682 108.64 73.1731 108.184C73.078 107.728 72.8565 107.308 72.5341 106.971Z" fill="#AFC3D5"/>
<path fill-rule="evenodd" clip-rule="evenodd" d="M56.6316 87.9293C56.6316 94.7068 51.8675 97.4577 45.9968 94.0767C42.8996 92.056 40.3231 89.333 38.4777 86.1283C36.6323 82.9235 35.5699 79.3276 35.377 75.6345C35.377 68.857 40.1414 66.1061 45.9968 69.4871C49.0969 71.5061 51.676 74.2292 53.5242 77.434C55.3723 80.6389 56.437 84.2349 56.6316 87.9293Z" fill="#AFC3D5"/>
<path fill-rule="evenodd" clip-rule="evenodd" d="M41.2658 69.4237C40.5352 69.4101 39.8138 69.5901 39.1755 69.946C37.6387 70.8527 36.7476 72.8813 36.7476 75.6476C36.9384 79.0977 37.9376 82.4553 39.6648 85.448C41.3921 88.4407 43.799 90.986 46.6909 92.8771C49.0884 94.2602 51.3015 94.5207 52.8383 93.614C54.3752 92.7072 55.2663 90.6787 55.2663 87.9123C55.0762 84.4603 54.0755 81.1021 52.3453 78.109C50.6151 75.1158 48.204 72.5719 45.3075 70.6844C44.0889 69.914 42.6907 69.4742 41.2504 69.4087L41.2658 69.4237ZM50.7634 96.8723C48.8426 96.8066 46.9723 96.2392 45.3383 95.2274C42.024 93.1068 39.267 90.2222 37.2988 86.8152C35.3305 83.4083 34.2087 79.5781 34.0273 75.6476C34.0273 71.867 35.3797 69.0096 37.8233 67.5957C40.2669 66.1818 43.4175 66.4573 46.6909 68.3476C50.0053 70.4681 52.7622 73.3542 54.7305 76.7612C56.6987 80.1682 57.8205 83.9969 58.0019 87.9274C58.0019 91.708 56.6495 94.5669 54.2059 95.9808C53.1579 96.5783 51.9697 96.8861 50.7634 96.8723Z" fill="#FEFEFE"/>
<path fill-rule="evenodd" clip-rule="evenodd" d="M26.2051 69.6384C26.2051 86.1021 37.7343 106.117 52.0229 114.349C66.3115 122.581 77.8407 115.886 77.8407 99.4453C77.8407 83.0046 66.3115 62.9591 52.0229 54.7272C37.7343 46.4953 26.2051 53.1746 26.2051 69.6384Z" fill="#FEFEFE"/>
<path fill-rule="evenodd" clip-rule="evenodd" d="M33.075 49.9004C31.1414 49.8682 29.234 50.351 27.5486 51.2993C23.4519 53.6667 21.1998 58.8625 21.1998 65.903C21.1998 81.5751 32.2372 100.698 45.7955 108.531C51.9445 112.066 57.54 112.712 61.6367 110.337C65.7335 107.962 67.9855 102.774 67.9855 95.7331C67.9855 80.0686 56.9482 60.9454 43.3898 53.1056C39.7004 50.9842 36.1878 49.9004 33.075 49.9004ZM56.1334 116.593C52.1751 116.593 47.8324 115.302 43.3821 112.75C28.4863 104.149 16.3652 83.1508 16.3652 65.9492C16.3652 57.087 19.4781 50.4077 25.1352 47.1488C30.7922 43.8898 38.094 44.4971 45.7802 48.932C60.6837 57.5328 72.8047 78.5314 72.8047 95.7331C72.8047 104.595 69.6919 111.274 64.0425 114.533C61.6355 115.909 58.9058 116.62 56.1334 116.593Z" fill="#1C2A40"/>
<path fill-rule="evenodd" clip-rule="evenodd" d="M32.7905 88.2082L30.9766 83.7349L42.183 79.2V63.9353H47.0176V82.459L32.7905 88.2082Z" fill="#1C2A40"/>
</svg>
