<svg width="50" height="50" viewBox="0 0 50 50" fill="none" xmlns="http://www.w3.org/2000/svg">
<path fill-rule="evenodd" clip-rule="evenodd" d="M22.9716 40.7366V33.505C22.9716 32.094 23.7618 31.1909 25.0318 31.1274C26.1112 31.071 27.0354 32.0658 27.0354 33.505V39.0856C28.5664 39.0856 29.5753 39.5654 29.5753 41.3715C29.5753 43.5939 24.7143 43.5375 23.6983 42.5497C23.4443 42.326 23.2477 42.0445 23.1249 41.729C23.0021 41.4135 22.9568 41.0732 22.9928 40.7366H22.9716ZM39.4666 44.5464H34.14C32.609 44.5464 31.6918 41.943 33.4345 40.913C34.9796 39.9958 38.9587 41.3433 40.2215 40.0804C41.8866 38.4154 39.0363 32.3621 42.7826 32.3621C43.2618 32.3768 43.7192 32.5653 44.0697 32.8924C44.4202 33.2195 44.6397 33.663 44.6875 34.14C44.6875 38.0697 45.393 42.0982 41.6043 44.0172C40.9415 44.3369 40.2224 44.5238 39.4878 44.5675L39.4666 44.5464ZM5.33371 39.0927V34.274C5.34562 33.8594 5.48873 33.4591 5.74242 33.1309C5.99612 32.8027 6.34736 32.5633 6.74565 32.4473C7.14393 32.3313 7.56874 32.3445 7.95903 32.4851C8.34932 32.6257 8.68498 32.8865 8.91775 33.2299C9.91958 34.6409 8.50855 38.6835 9.73615 40.0311C10.9637 41.3786 14.9852 40.031 16.5021 40.8777C18.2941 41.9077 17.5039 44.5605 15.8671 44.5605C13.5318 44.5605 10.1454 44.8709 8.41684 44.0102C7.27508 43.4129 6.35694 42.4626 5.79935 41.301C5.5007 40.6051 5.34245 39.857 5.33371 39.0998V39.0927ZM11.4223 36.5528C11.4175 36.821 11.4668 37.0874 11.5672 37.336C11.6677 37.5847 11.8172 37.8106 12.0068 38.0003C12.1964 38.1899 12.4223 38.3394 12.671 38.4398C12.9197 38.5402 13.1861 38.5895 13.4542 38.5847H19.2888C19.5559 38.5857 19.8206 38.5338 20.0675 38.432C20.3145 38.3302 20.5388 38.1806 20.7277 37.9917C20.9166 37.8028 21.0662 37.5785 21.168 37.3315C21.2698 37.0846 21.3217 36.8199 21.3207 36.5528V30.8452C21.3265 30.5601 21.2746 30.2768 21.1681 30.0123C21.0617 29.7477 20.9029 29.5075 20.7012 29.3058C20.4996 29.1042 20.2593 28.9454 19.9948 28.8389C19.7303 28.7325 19.4469 28.6806 19.1618 28.6863H13.5812C13.3044 28.671 13.0273 28.7122 12.7668 28.8072C12.5064 28.9023 12.268 29.0493 12.066 29.2393C11.8641 29.4294 11.703 29.6584 11.5923 29.9127C11.4817 30.1669 11.4238 30.441 11.4223 30.7182V36.5528V36.5528ZM28.6793 36.2989C28.6477 36.5854 28.6766 36.8754 28.7641 37.15C28.8516 37.4247 28.9957 37.6779 29.1872 37.8933C29.3787 38.1088 29.6133 38.2817 29.8758 38.4008C30.1383 38.5199 30.4229 38.5825 30.7112 38.5847H36.5387C37.036 38.5871 37.5169 38.4077 37.8911 38.0803C38.2653 37.7528 38.507 37.3 38.5706 36.8068V30.7182C38.5691 30.441 38.5113 30.1669 38.4006 29.9127C38.29 29.6584 38.1288 29.4294 37.9269 29.2393C37.725 29.0493 37.4866 28.9023 37.2261 28.8072C36.9657 28.7122 36.6886 28.671 36.4118 28.6863H30.8311C30.546 28.6806 30.2627 28.7325 29.9982 28.8389C29.7336 28.9454 29.4933 29.1042 29.2917 29.3058C29.0901 29.5075 28.9313 29.7477 28.8248 30.0123C28.7184 30.2768 28.6665 30.5601 28.6722 30.8452V36.2989H28.6793ZM24.8765 28.2701C22.8094 28.2701 19.8039 28.771 19.8039 26.1112C19.8039 25.1305 20.7987 24.2063 22.2168 24.2063H22.9787V13.0732C22.9787 10.7168 25.441 10.1383 26.5063 11.4576C26.8477 11.8792 27.0367 12.4038 27.0425 12.9462V25.8925C27.0425 27.3035 26.2382 28.3053 24.8836 28.3053L24.8765 28.2701ZM16.3751 27.0002H11.3024V28.1431C11.3024 30.4431 7.3656 30.5207 7.3656 28.2701C7.3656 22.0827 6.6601 22.9434 16.3751 22.9434C16.914 22.9434 17.4308 23.1575 17.8118 23.5385C18.1929 23.9196 18.4069 24.4364 18.4069 24.9753C18.4069 25.5142 18.1929 26.031 17.8118 26.4121C17.4308 26.7931 16.914 27.0072 16.3751 27.0072V27.0002ZM34.013 22.9364H38.9516C38.9516 21.5253 38.74 20.0155 41.2375 20.0155C43.354 20.0155 42.8884 23.7336 42.8884 25.0882C42.8352 25.6195 42.5831 26.111 42.1827 26.4643C41.7824 26.8175 41.2633 27.0064 40.7295 26.9931H34.0059C30.9228 26.9931 30.8382 22.9293 34.0059 22.9293L34.013 22.9364ZM11.6763 19.8039C11.7208 20.2265 11.9091 20.621 12.2096 20.9215C12.5101 21.222 12.9046 21.4103 13.3272 21.4548H19.7968C20.2194 21.4103 20.614 21.222 20.9145 20.9215C21.215 20.621 21.4032 20.2265 21.4477 19.8039V13.3343C21.4032 12.9116 21.215 12.5171 20.9145 12.2166C20.614 11.9161 20.2194 11.7279 19.7968 11.6834H13.3272C12.9046 11.7279 12.5101 11.9161 12.2096 12.2166C11.9091 12.5171 11.7208 12.9116 11.6763 13.3343V19.8039V19.8039ZM28.6793 19.4229C28.6769 19.9201 28.8563 20.4011 29.1837 20.7753C29.5112 21.1495 29.964 21.3911 30.4572 21.4548H36.8068C37.2028 21.4237 37.5774 21.2625 37.8722 20.9962C38.0996 20.8317 38.283 20.6136 38.406 20.3614C38.5291 20.1091 38.588 19.8304 38.5777 19.5499V13.4542C38.5305 12.9674 38.3012 12.5163 37.9357 12.1913C37.7758 12.0182 37.5797 11.8824 37.3615 11.7934C37.1433 11.7044 36.9082 11.6644 36.6728 11.6763H30.5842C30.3253 11.6836 30.0705 11.742 29.8344 11.8483C29.5983 11.9546 29.3855 12.1065 29.2084 12.2954C29.0314 12.4843 28.8934 12.7064 28.8026 12.9489C28.7118 13.1914 28.6699 13.4494 28.6793 13.7082V19.4158V19.4229ZM32.4891 7.6196C32.4891 6.38494 33.1099 5.46072 34.14 5.46072C36.4752 5.46072 39.8617 5.15029 41.5902 6.01102C45.4353 7.93003 44.6734 12.1137 44.6734 15.7401C44.6614 16.1548 44.5184 16.555 44.2647 16.8832C44.011 17.2114 43.6597 17.4508 43.2614 17.5668C42.8631 17.6828 42.4383 17.6696 42.048 17.529C41.6577 17.3884 41.3221 17.1276 41.0893 16.7843C40.0875 15.3732 41.4985 11.3377 40.2709 9.99013C39.0433 8.64259 35.0219 9.99014 33.505 9.14352C33.2324 8.9818 32.9995 8.76089 32.8237 8.49712C32.6478 8.23336 32.5335 7.93348 32.4891 7.6196ZM7.23861 17.645C6.89659 17.6482 6.56053 17.5553 6.26868 17.377C5.97682 17.1986 5.74088 16.9419 5.58771 16.6361C5.09384 15.7895 5.34077 11.8668 5.34077 10.6674C5.44224 9.31814 6.01401 8.04727 6.95641 7.07634C7.40479 6.66505 7.89964 6.30754 8.43094 6.01102C10.1524 5.15029 13.5459 5.46072 15.8812 5.46072C17.2922 5.46072 18.4069 7.90886 16.5867 9.09413C15.9941 9.48216 15.2674 9.39749 14.3502 9.39749C8.9389 9.39749 9.27049 9.08001 9.27755 14.4702C9.27755 15.4367 9.4116 16.0787 8.97418 16.7066C8.79104 16.9985 8.53577 17.2381 8.23299 17.4025C7.9302 17.5669 7.59015 17.6504 7.24568 17.645H7.23861ZM0.00706206 8.12757V41.8795C0.0568558 42.9991 0.342979 44.0955 0.846629 45.0967C1.75641 46.833 3.17405 48.2507 4.91042 49.1604C5.91637 49.6512 7.01006 49.9367 8.12757 50H41.8795C42.997 49.9367 44.0907 49.6512 45.0967 49.1604C47.6577 47.9117 50 44.8427 50 41.8795V8.12051C50 4.14845 45.8868 0 41.8795 0H8.12051C4.13434 0 0 4.13434 0 8.12051L0.00706206 8.12757Z" fill="#E4E8F2"/>
<path fill-rule="evenodd" clip-rule="evenodd" d="M32.3613 16.276C32.3613 16.9815 32.4813 17.9269 33.6313 17.9269C33.9776 17.924 34.31 17.7899 34.5614 17.5516C34.8128 17.3133 34.9644 16.9885 34.9859 16.6428C35.0705 14.7379 32.3613 15.006 32.3613 16.276Z" fill="#E4E8F2"/>
<path d="M17.5182 15.6064H15.6133V17.5113H17.5182V15.6064Z" fill="#E4E8F2"/>
<path fill-rule="evenodd" clip-rule="evenodd" d="M15.373 34.2602C15.373 34.5495 15.4648 34.6412 15.754 34.6412H17.278V32.7363H15.373V34.2602Z" fill="#E4E8F2"/>
<path fill-rule="evenodd" clip-rule="evenodd" d="M32.7422 34.6197H34.2661C34.5554 34.6197 34.6471 34.528 34.6471 34.2388V32.7148H32.7422V34.6197Z" fill="#E4E8F2"/>
</svg>
