<svg width="18" height="19" viewBox="0 0 18 19" fill="none" xmlns="http://www.w3.org/2000/svg">
<path fill-rule="evenodd" clip-rule="evenodd" d="M8.87012 17.0996C10.9918 17.0996 13.0267 16.2571 14.527 14.7568C16.0273 13.2565 16.8701 11.2213 16.8701 9.09961C16.8701 6.97788 16.0273 4.94365 14.527 3.44336C13.0267 1.94307 10.9918 1.09961 8.87012 1.09961C6.74839 1.09961 4.71355 1.94307 3.21326 3.44336C1.71297 4.94365 0.870117 6.97788 0.870117 9.09961C0.870117 11.2213 1.71297 13.2565 3.21326 14.7568C4.71355 16.2571 6.74839 17.0996 8.87012 17.0996Z" stroke="#FEFEFE" stroke-width="1.527" stroke-miterlimit="22.9256"/>
<path d="M6.78721 5.83368C6.93769 5.69731 7.10228 5.56799 7.28097 5.44573C7.45966 5.32347 7.65481 5.21531 7.86642 5.12127C8.07802 5.02722 8.30609 4.95433 8.55061 4.9026C8.79514 4.84617 9.06083 4.81796 9.34767 4.81796C9.72386 4.81796 10.0718 4.87204 10.3916 4.98019C10.7114 5.08835 10.9865 5.24353 11.2169 5.44573C11.452 5.64323 11.6354 5.88541 11.7671 6.17225C11.8987 6.4544 11.9646 6.77181 11.9646 7.12449C11.9646 7.48187 11.9105 7.79223 11.8023 8.05556C11.6989 8.3142 11.5672 8.53991 11.4073 8.73271C11.2474 8.92551 11.0711 9.09479 10.8783 9.24057C10.6902 9.38164 10.5115 9.51566 10.3422 9.64262C10.1776 9.76959 10.0342 9.89655 9.91196 10.0235C9.7897 10.1458 9.71916 10.2845 9.70035 10.4397L9.56633 11.5118H8.64937L8.56472 10.3409C8.54121 10.1293 8.57883 9.94358 8.67758 9.7837C8.77633 9.62381 8.90565 9.47569 9.06553 9.33932C9.22541 9.19825 9.3994 9.06188 9.58749 8.93021C9.78029 8.79854 9.95898 8.65277 10.1236 8.49289C10.2929 8.3283 10.4339 8.14256 10.5468 7.93565C10.6596 7.72875 10.7161 7.48422 10.7161 7.20208C10.7161 7.00458 10.6761 6.82589 10.5962 6.666C10.5209 6.50612 10.4151 6.36975 10.2787 6.25689C10.1471 6.14404 9.9919 6.05939 9.81321 6.00297C9.63452 5.94183 9.44172 5.91127 9.23481 5.91127C8.95267 5.91127 8.7105 5.94654 8.50829 6.01707C8.30609 6.08291 8.13445 6.15814 7.99338 6.24279C7.85231 6.32273 7.7371 6.39797 7.64775 6.4685C7.55841 6.53434 7.48552 6.56725 7.42909 6.56725C7.30213 6.56725 7.20808 6.51318 7.14695 6.40502L6.78721 5.83368ZM8.16267 14.2416C8.16267 14.1146 8.18618 13.997 8.2332 13.8889C8.28023 13.776 8.34371 13.6773 8.42365 13.5926C8.50359 13.508 8.59999 13.4422 8.71285 13.3951C8.82571 13.3481 8.94562 13.3246 9.07258 13.3246C9.19955 13.3246 9.31711 13.3481 9.42526 13.3951C9.53812 13.4422 9.63452 13.508 9.71446 13.5926C9.7991 13.6773 9.86494 13.776 9.91196 13.8889C9.95898 13.997 9.9825 14.1146 9.9825 14.2416C9.9825 14.3732 9.95898 14.4955 9.91196 14.6084C9.86494 14.7165 9.7991 14.8129 9.71446 14.8976C9.63452 14.9775 9.53812 15.041 9.42526 15.088C9.31711 15.135 9.19955 15.1585 9.07258 15.1585C8.94562 15.1585 8.82571 15.135 8.71285 15.088C8.59999 15.041 8.50359 14.9775 8.42365 14.8976C8.34371 14.8129 8.28023 14.7165 8.2332 14.6084C8.18618 14.4955 8.16267 14.3732 8.16267 14.2416Z" fill="#FEFEFE"/>
</svg>
