<svg width="8" height="14" viewBox="0 0 8 14" fill="none" xmlns="http://www.w3.org/2000/svg">
    <path d="M0 1.332C0.216 1.146 0.447 0.972001 0.693 0.81C0.945 0.648001 1.215 0.507001 1.503 0.387001C1.797 0.267 2.112 0.174 2.448 0.108001C2.79 0.0360003 3.156 0 3.546 0C4.086 0 4.575 0.0750003 5.013 0.225001C5.451 0.369 5.826 0.579 6.138 0.855C6.45 1.125 6.69 1.452 6.858 1.836C7.032 2.22 7.119 2.649 7.119 3.123C7.119 3.579 7.053 3.975 6.921 4.311C6.795 4.641 6.633 4.929 6.435 5.175C6.243 5.421 6.03 5.634 5.796 5.814C5.562 5.994 5.34 6.162 5.13 6.318C4.92 6.474 4.737 6.63 4.581 6.786C4.431 6.936 4.338 7.104 4.302 7.29L4.077 8.577H2.376L2.205 7.119C2.163 6.831 2.199 6.582 2.313 6.372C2.427 6.156 2.58 5.961 2.772 5.787C2.964 5.607 3.177 5.436 3.411 5.274C3.651 5.106 3.873 4.929 4.077 4.743C4.287 4.551 4.461 4.338 4.599 4.104C4.743 3.864 4.815 3.582 4.815 3.258C4.815 2.862 4.677 2.547 4.401 2.313C4.131 2.079 3.771 1.962 3.321 1.962C2.991 1.962 2.712 1.998 2.484 2.07C2.262 2.142 2.07 2.223 1.908 2.313C1.746 2.397 1.608 2.475 1.494 2.547C1.38 2.619 1.272 2.655 1.17 2.655C0.942 2.655 0.771 2.556 0.657 2.358L0 1.332ZM1.683 11.898C1.683 11.7 1.719 11.514 1.791 11.34C1.869 11.16 1.974 11.007 2.106 10.881C2.238 10.749 2.391 10.647 2.565 10.575C2.745 10.497 2.94 10.458 3.15 10.458C3.354 10.458 3.546 10.497 3.726 10.575C3.906 10.647 4.062 10.749 4.194 10.881C4.326 11.007 4.428 11.16 4.5 11.34C4.578 11.514 4.617 11.7 4.617 11.898C4.617 12.102 4.578 12.291 4.5 12.465C4.428 12.639 4.326 12.792 4.194 12.924C4.062 13.05 3.906 13.149 3.726 13.221C3.546 13.293 3.354 13.329 3.15 13.329C2.94 13.329 2.745 13.293 2.565 13.221C2.391 13.149 2.238 13.05 2.106 12.924C1.974 12.792 1.869 12.639 1.791 12.465C1.719 12.291 1.683 12.102 1.683 11.898Z" fill="#FEFEFE"/>
</svg>
