<svg width="7" height="10" viewBox="0 0 7 10" fill="none" xmlns="http://www.w3.org/2000/svg">
<path fill-rule="evenodd" clip-rule="evenodd" d="M1.76999 9.71994C1.58527 9.85494 1.3562 9.91452 1.12912 9.88657C0.902046 9.85862 0.694044 9.74525 0.547578 9.56949C0.401111 9.39373 0.327091 9.16879 0.340546 8.9404C0.354002 8.71201 0.453996 8.49734 0.620088 8.34L4.54001 5.09L0.620088 1.84C0.435762 1.6875 0.319472 1.468 0.296967 1.22983C0.274463 0.99166 0.347593 0.754305 0.500092 0.56998C0.652592 0.385655 0.872029 0.269425 1.1102 0.246921C1.34837 0.224417 1.58566 0.297485 1.76999 0.449985L6.51999 4.38999L6.64011 4.50998C6.71587 4.60114 6.77285 4.70636 6.80783 4.81961C6.84282 4.93286 6.85511 5.05189 6.84396 5.16989C6.83281 5.2879 6.79847 5.40254 6.74289 5.50724C6.68731 5.61193 6.61149 5.70465 6.51999 5.78L1.76999 9.71994Z" fill="#FDFDFD"/>
</svg>
