<svg width="119" height="159" viewBox="0 0 119 159" fill="none" xmlns="http://www.w3.org/2000/svg">
    <path fill-rule="evenodd" clip-rule="evenodd" d="M76.9055 72.8604H52.3104C52.2442 72.8604 52.1787 72.8734 52.1175 72.8987C52.0563 72.9241 52.0007 72.9613 51.9539 73.0081C51.907 73.0549 51.8699 73.1105 51.8446 73.1716C51.8192 73.2328 51.8062 73.2984 51.8062 73.3646V80.9522C51.8925 81.4187 52.0911 81.8572 52.3846 82.23C52.678 82.6027 53.0577 82.8985 53.4909 83.0919L60.8695 87.3592C61.9211 87.9442 63.0953 88.2745 64.2977 88.3237C65.5001 88.3728 66.6971 88.1393 67.793 87.6421L76.18 82.7968C76.5456 82.6436 76.8576 82.3854 77.0765 82.0549C77.2954 81.7243 77.4114 81.3363 77.4098 80.9399V73.3154C77.3975 73.1903 77.339 73.0744 77.2457 72.9902C77.1524 72.906 77.0311 72.8598 76.9055 72.8604Z" fill="#39A1FF"/>
    <path fill-rule="evenodd" clip-rule="evenodd" d="M52.5208 80.8668V80.9405C52.6045 81.2801 52.7657 81.5955 52.9919 81.8623C53.2181 82.129 53.503 82.3397 53.8243 82.4777L61.2028 86.745C62.1381 87.2586 63.1785 87.5512 64.2443 87.6002C65.3102 87.6493 66.3732 87.4535 67.3516 87.0279L75.7386 82.1826C75.9672 82.0867 76.1641 81.9287 76.3076 81.7266C76.451 81.5245 76.5351 81.2863 76.5502 81.0389V80.2273H76.6117V73.6112H52.5331V80.8176L52.5208 80.8668ZM64.7568 89.143C63.2572 89.1552 61.7795 88.7826 60.465 88.0608L53.0865 83.7936C52.2315 83.3575 51.5568 82.635 51.1803 81.7521H51.0327V73.4144C51.0327 73.0883 51.1624 72.7755 51.393 72.5449C51.6236 72.3143 51.9363 72.1847 52.2625 72.1847H76.8576C77.025 72.1774 77.1921 72.2066 77.3471 72.2703C77.5021 72.334 77.6414 72.4307 77.7553 72.5536C77.8745 72.6704 77.9687 72.8102 78.0321 72.9645C78.0955 73.1189 78.1269 73.2845 78.1243 73.4513V81.8259H78.0383C77.7989 82.5846 77.268 83.2171 76.5625 83.5845L68.1756 88.4298C67.1151 88.9531 65.9377 89.1944 64.7568 89.1307V89.143Z" fill="#150035"/>
    <path fill-rule="evenodd" clip-rule="evenodd" d="M76.9065 72.8744H65.5928V88.3325C66.3756 88.2797 67.1383 88.0617 67.8309 87.693L76.2177 82.8477C76.5834 82.6945 76.8955 82.4363 77.1144 82.1058C77.3333 81.7752 77.4491 81.3872 77.4475 80.9908V73.3663C77.446 73.2979 77.4307 73.2305 77.4023 73.1683C77.374 73.106 77.3333 73.0502 77.2827 73.0042C77.232 72.9582 77.1726 72.9229 77.1079 72.9006C77.0433 72.8783 76.9747 72.8694 76.9065 72.8744Z" fill="#150035"/>
    <path fill-rule="evenodd" clip-rule="evenodd" d="M76.1682 74.7538L67.7812 79.5991C66.6856 80.0973 65.4884 80.3313 64.2858 80.2822C63.0833 80.2331 61.9089 79.9022 60.8576 79.3163L53.4791 75.049C51.4254 73.8193 51.2042 72.073 52.9873 71.0523L61.3865 66.2071C62.4821 65.7089 63.6794 65.4749 64.882 65.524C66.0845 65.5731 67.2587 65.904 68.31 66.4899L75.6886 70.7571C77.7177 71.9377 77.939 73.7208 76.1682 74.7538Z" fill="white"/>
    <path fill-rule="evenodd" clip-rule="evenodd" d="M64.3514 66.2582C63.4424 66.2296 62.541 66.4327 61.732 66.8484L53.345 71.6937C53.1264 71.7883 52.936 71.9376 52.7917 72.1271C52.6474 72.3166 52.5543 72.54 52.5212 72.7759C52.5212 73.3047 53.013 73.9072 53.8369 74.3745L61.2155 78.6418C62.1507 79.1555 63.1911 79.448 64.257 79.4971C65.3229 79.5461 66.3858 79.3503 67.3643 78.9247L75.7513 74.0794C75.9676 73.9831 76.1555 73.8332 76.2976 73.6438C76.4396 73.4544 76.5309 73.2318 76.5628 72.9972C76.5628 72.4684 76.071 71.8659 75.247 71.3986L67.8685 67.1313C66.7796 66.5485 65.5618 66.2482 64.3268 66.2582H64.3514ZM64.7695 81.0153C63.27 81.0264 61.7926 80.6539 60.4777 79.9331L53.0991 75.6658C52.5273 75.4053 52.0342 74.9987 51.6694 74.4871C51.3046 73.9754 51.0808 73.3768 51.0208 72.7513C51.0438 72.2487 51.2023 71.7616 51.4794 71.3417C51.7564 70.9217 52.1419 70.5845 52.5949 70.3656L60.9819 65.5204C62.193 64.952 63.5222 64.6811 64.8591 64.7303C66.196 64.7795 67.5019 65.1473 68.6679 65.8032L76.0464 70.0704C76.619 70.3299 77.1127 70.7362 77.4776 71.2481C77.8426 71.7599 78.0658 72.359 78.1246 72.9849C78.1038 73.4896 77.9464 73.9793 77.6692 74.4016C77.392 74.8239 77.0053 75.1631 76.5505 75.383L68.1636 80.2282C67.1171 80.7877 65.9436 81.0674 64.7572 81.0399L64.7695 81.0153Z" fill="#150035"/>
    <path d="M62.3954 79.6992H60.8828V87.7542H62.3954V79.6992Z" fill="#150035"/>
    <path d="M75.0618 77.6572H73.8936V81.6048H75.0618V77.6572Z" fill="#39A1FF"/>
    <path fill-rule="evenodd" clip-rule="evenodd" d="M73.7813 43.1C73.7075 42.9894 73.5354 43.0017 73.4002 43.2476L62.2585 63.2312L61.3362 63.3296L58.3233 61.5218L57.6715 60.7348L53.4657 58.595C53.269 58.472 52.937 58.9516 53.0846 59.1607L61.6929 71.6796L65.6036 73.7948H65.6896L66.452 67.646L76.6098 48.1052L77.9995 45.3382L77.9256 45.1045L73.7813 43.1Z" fill="#39A1FF"/>
    <path fill-rule="evenodd" clip-rule="evenodd" d="M62.0517 71.2139L65.1629 72.8986L65.8885 67.3524L77.2392 45.4381L73.7958 43.7657L62.6297 63.7984L61.2031 63.946L57.8705 61.9046L57.2925 61.216L54.0706 59.5804L62.064 71.2384L62.0517 71.2139ZM65.6302 74.4481L65.2983 74.3005L61.2523 72.1116L52.644 59.482C52.5307 59.2864 52.4873 59.0583 52.5208 58.8348C52.5543 58.6113 52.6629 58.4059 52.8285 58.2522C52.9463 58.1091 53.1106 58.0121 53.2928 57.9784C53.4751 57.9446 53.6634 57.9763 53.8246 58.0678L58.1779 60.3428L58.7682 61.0561L61.5228 62.7162H61.9532L72.9473 43.0401C73.018 42.8922 73.1273 42.7662 73.2636 42.6753C73.4 42.5843 73.5584 42.532 73.7221 42.5236C73.8114 42.5184 73.9008 42.5309 73.9852 42.5604C74.0697 42.59 74.1475 42.636 74.214 42.6958L78.1984 44.6388C78.383 44.7284 78.5245 44.8877 78.5919 45.0815C78.6318 45.1748 78.6524 45.2752 78.6524 45.3767C78.6524 45.4781 78.6318 45.5785 78.5919 45.6718L77.2022 48.4388L66.983 67.7951L66.196 74.1038L65.6302 74.4481Z" fill="#150035"/>
    <path fill-rule="evenodd" clip-rule="evenodd" d="M57.2305 61.2904L65.8388 73.8093L65.9618 73.7355L77.9642 45.5126C78.1241 45.1314 77.7921 45.0207 77.5831 45.3896L66.2201 65.7666L66.1093 65.8282L57.6363 60.7247C57.4641 60.614 57.1321 61.0813 57.2305 61.2904Z" fill="#150035"/>
    <path fill-rule="evenodd" clip-rule="evenodd" d="M58.3742 61.8433L65.7528 72.6774L74.5331 52.0421L66.5889 66.2704L66.2815 66.4057C66.1996 66.4294 66.1139 66.4361 66.0293 66.4256C65.9447 66.415 65.8631 66.3873 65.7896 66.3442L58.325 61.8556L58.3742 61.8433ZM65.5929 74.436L65.3592 74.1286L56.7509 61.6219C56.6361 61.4277 56.5907 61.2003 56.6219 60.9769C56.6532 60.7535 56.7594 60.5474 56.9231 60.3922C57.0408 60.2491 57.2053 60.1522 57.3875 60.1184C57.5697 60.0847 57.7581 60.1163 57.9192 60.2077L65.9248 65.0284L76.9926 45.0817C77.0821 44.8742 77.2497 44.7101 77.459 44.6249C77.6684 44.5398 77.9028 44.5404 78.1117 44.6267C78.2982 44.7304 78.4364 44.9035 78.4962 45.1083C78.556 45.3132 78.5328 45.5333 78.4315 45.7212L66.5275 73.9441C66.4798 74.063 66.4009 74.1669 66.2992 74.2448C66.1975 74.3227 66.0767 74.3717 65.9494 74.3868L65.5929 74.436Z" fill="#150035"/>
    <path fill-rule="evenodd" clip-rule="evenodd" d="M31.0731 52.4599C31.0731 52.4599 17.1892 47.0736 11.7291 57.133C6.26898 67.1924 18.3698 75.8868 18.3698 75.8868C20.153 77.3871 22.846 77.4117 25.8221 75.5793C28.5364 73.7051 30.7705 71.2172 32.3431 68.3177C33.9157 65.4182 34.7825 62.1888 34.8731 58.8915C34.7993 55.3744 33.3113 53.124 31.0731 52.4599Z" fill="#AFC3D5"/>
    <path fill-rule="evenodd" clip-rule="evenodd" d="M18.2096 74.9406L18.7753 75.408C20.4231 76.7976 22.8703 76.6377 25.5143 75.0514C28.138 73.2354 30.2977 70.8276 31.8188 68.0226C33.3398 65.2176 34.1795 62.0942 34.2702 58.9047C34.1841 55.8057 32.9543 53.6782 30.9007 53.0633L30.1505 52.842C27.3467 51.9565 16.7217 49.251 12.2577 57.4658C7.79363 65.6806 15.9469 73.1944 18.185 75.0144L18.2096 74.9406ZM21.4808 77.5969C20.248 77.6141 19.0477 77.201 18.0867 76.4287H18.0128C17.8899 76.3426 5.54318 67.2916 11.1878 56.8755C16.8324 46.4595 31.1467 51.8704 31.2943 51.9565H31.3926L31.8845 52.1533H31.9582C34.1226 53.1617 35.4015 55.5597 35.4876 58.8677C35.6598 65.1026 31.4663 72.8378 26.1415 76.0843C24.7596 77.0188 23.1472 77.5549 21.4808 77.6338V77.5969Z" fill="#150035"/>
    <path fill-rule="evenodd" clip-rule="evenodd" d="M32.6963 125.066C32.6963 125.066 37.0004 158.33 62.7761 158.269C88.5518 158.207 92.733 124.93 92.733 124.93C93.7906 119.79 90.9253 114.44 84.1247 110.505C72.3067 103.705 53.1594 103.742 41.3537 110.579C34.4671 114.526 31.6142 119.925 32.6963 125.066Z" fill="white"/>
    <path fill-rule="evenodd" clip-rule="evenodd" d="M33.3863 125.594C34.161 130.193 39.7933 157.641 62.7159 157.641C85.614 157.641 91.1725 130.267 91.9596 125.532L92.0948 124.794C93.1401 119.703 90.1027 114.686 83.7449 111.021C72.1114 104.331 53.1977 104.368 41.5888 111.095C35.2432 114.784 32.218 119.802 33.2879 124.893L33.4355 125.581L33.3863 125.594ZM62.7159 158.871C36.7312 158.871 32.1074 125.434 32.0705 125.102V124.831C31.0621 119.297 34.3087 113.923 41.0108 110.074C52.9641 103.151 72.4187 103.114 84.3965 110C91.1479 113.886 94.4191 119.285 93.3738 124.868V125.04C93.3738 125.372 88.8237 158.883 62.8021 158.92L62.7159 158.871Z" fill="#150035"/>
    <path fill-rule="evenodd" clip-rule="evenodd" d="M84.0767 110.566C95.8824 117.392 95.8824 128.435 84.0767 135.26C72.271 142.085 53.1238 142.073 41.3059 135.26C29.4879 128.447 29.5002 117.392 41.3059 110.566C53.1115 103.741 72.271 103.754 84.0767 110.566Z" fill="#150035"/>
    <path fill-rule="evenodd" clip-rule="evenodd" d="M62.689 106.077C55.0522 106.077 47.4279 107.749 41.6111 111.106C36.1018 114.291 33.0028 118.485 33.0028 122.924C33.0028 127.364 36.0403 131.533 41.6111 134.742C53.2323 141.457 72.1459 141.457 83.7671 134.742C89.2764 131.557 92.3754 127.364 92.3754 122.924C92.3754 118.485 89.3379 114.316 83.7671 111.106C77.9503 107.749 70.3258 106.077 62.689 106.077ZM62.689 140.977C54.8309 140.977 46.9852 139.255 40.9962 135.8C35.0073 132.344 31.8345 127.819 31.8345 122.924C31.8345 118.03 35.0934 113.455 40.9962 110.049C52.9618 103.137 72.4164 103.137 84.3819 110.049C90.2971 113.455 93.5437 118.042 93.5437 122.924C93.5437 127.806 90.2848 132.393 84.3819 135.8C78.4791 139.206 70.5472 140.977 62.689 140.977Z" fill="#150035"/>
    <path fill-rule="evenodd" clip-rule="evenodd" d="M112.053 105.72C112.047 104.479 111.903 103.241 111.623 102.031C108.836 82.4802 102.288 63.6542 92.3406 46.5938L62.691 49.0533L33.0416 46.5938C23.0944 63.6543 16.5464 82.4802 13.7591 102.031C11.853 110.492 16.5261 119.358 27.7907 125.864C47.061 136.932 78.3212 136.932 97.5915 125.864C107.233 120.305 112.053 113.001 112.053 105.72Z" fill="white"/>
    <path fill-rule="evenodd" clip-rule="evenodd" d="M33.3721 47.2453C23.5739 64.1471 17.1192 82.7763 14.3601 102.117C12.4294 110.725 17.4345 119.186 28.0842 125.335C47.1578 136.403 78.1968 136.403 97.2704 125.335C106.395 120.059 111.425 113.037 111.425 105.659C111.421 104.463 111.285 103.271 111.019 102.105C108.266 82.7471 101.811 64.1005 92.007 47.1839L62.7387 49.6434L33.3721 47.1839V47.2453ZM62.6895 134.804C49.9369 134.804 37.1967 132 27.4817 126.393C16.3278 119.949 11.1136 111.021 13.155 101.896C15.9544 82.2829 22.5276 63.3983 32.5113 46.2862L32.7081 45.9541L62.7387 48.4874L92.6709 45.9541L92.8677 46.2862C102.863 63.4164 109.44 82.3225 112.236 101.957C112.518 103.192 112.662 104.454 112.667 105.72C112.667 113.566 107.428 120.908 97.9097 126.405C88.1946 132 75.442 134.804 62.6895 134.804Z" fill="#150035"/>
    <path fill-rule="evenodd" clip-rule="evenodd" d="M84.0767 37.7034C95.8824 44.5285 95.8824 55.5717 84.0767 62.3969C72.271 69.222 53.1238 69.2097 41.3059 62.3969C29.4879 55.584 29.5002 44.5285 41.3059 37.7034C53.1115 30.8782 72.271 30.9028 84.0767 37.7034Z" fill="#AFC3D5"/>
    <path fill-rule="evenodd" clip-rule="evenodd" d="M62.689 33.2025C55.0522 33.2025 47.4279 34.875 41.6111 38.2323C36.1018 41.4174 33.0028 45.6108 33.0028 50.0502C33.0028 54.4897 36.0403 58.6585 41.6111 61.8682C53.2323 68.5826 72.1459 68.5826 83.7671 61.8682C89.2764 58.6831 92.3754 54.4897 92.3754 50.0502C92.3754 45.6108 89.3379 41.4419 83.7671 38.2323C77.9503 34.875 70.3258 33.2025 62.689 33.2025ZM62.689 68.1031C54.8309 68.1031 46.9852 66.3814 40.9962 62.9257C35.0073 59.4701 31.8345 54.9324 31.8345 50.0502C31.8345 45.1681 35.0934 40.5811 40.9962 37.1746C52.9618 30.2634 72.4164 30.2634 84.3819 37.1746C90.2971 40.5811 93.5437 45.1558 93.5437 50.0502C93.5437 54.9447 90.2848 59.5193 84.3819 62.9257C78.4791 66.3322 70.5472 68.1031 62.689 68.1031Z" fill="#150035"/>
    <path fill-rule="evenodd" clip-rule="evenodd" d="M92.696 43.1995C92.696 43.1995 88.4656 9.99609 62.6899 9.99609C36.9142 9.99609 32.6347 43.1995 32.6347 43.1995C31.5648 48.3399 34.4179 53.7016 41.243 57.6369C53.0487 64.4497 72.196 64.4497 84.014 57.6369C90.9129 53.7262 93.7659 48.3768 92.696 43.1995Z" fill="white"/>
    <path fill-rule="evenodd" clip-rule="evenodd" d="M33.3961 42.6235L33.2608 43.3613C32.2032 48.4525 35.2284 53.4823 41.5863 57.1469C53.2075 63.8614 72.1212 63.8614 83.7424 57.1469C90.0879 53.4577 93.1253 48.4648 92.0677 43.3613L91.9201 42.6235C91.1208 37.8889 85.5132 10.576 62.6151 10.5637C39.7416 10.5637 34.1339 37.8889 33.3345 42.6235H33.3961ZM62.7011 63.394C54.843 63.394 46.9849 61.6724 41.0083 58.2168C34.257 54.3185 31.0104 48.9075 32.0557 43.3367V43.1645C32.0557 42.8325 36.6673 9.33398 62.6643 9.33398C88.686 9.33398 93.2483 42.8202 93.2975 43.1645V43.4105C94.2936 48.9567 91.0471 54.3307 84.3326 58.1676C78.4052 61.6478 70.5469 63.394 62.6888 63.394H62.7011Z" fill="#150035"/>
    <path fill-rule="evenodd" clip-rule="evenodd" d="M66.6266 13.3411C68.791 14.5709 68.791 16.6246 66.6266 17.8789C65.4106 18.4948 64.0667 18.8158 62.7036 18.8158C61.3406 18.8158 59.9967 18.4948 58.7807 17.8789C56.6164 16.6491 56.6164 14.5955 58.7807 13.3411C59.9967 12.7252 61.3406 12.4043 62.7036 12.4043C64.0667 12.4043 65.4106 12.7252 66.6266 13.3411Z" fill="#AFC3D5"/>
    <path fill-rule="evenodd" clip-rule="evenodd" d="M62.7014 13.0222C61.4436 12.9922 60.1991 13.2843 59.086 13.8707C58.7045 13.9732 58.3674 14.1986 58.127 14.5121C57.8867 14.8256 57.7564 15.2096 57.7564 15.6046C57.7564 15.9997 57.8867 16.3837 58.127 16.6972C58.3674 17.0107 58.7045 17.2361 59.086 17.3386C60.2096 17.8965 61.4469 18.187 62.7014 18.187C63.9559 18.187 65.1934 17.8965 66.317 17.3386C66.6985 17.2361 67.0355 17.0107 67.2759 16.6972C67.5163 16.3837 67.6466 15.9997 67.6466 15.6046C67.6466 15.2096 67.5163 14.8256 67.2759 14.5121C67.0355 14.1986 66.6985 13.9732 66.317 13.8707C65.2039 13.2843 63.9592 12.9922 62.7014 13.0222ZM62.7014 19.4292C61.2261 19.4531 59.7694 19.0974 58.4711 18.3962C57.9018 18.1825 57.4111 17.8001 57.0648 17.3002C56.7185 16.8003 56.533 16.2066 56.533 15.5985C56.533 14.9903 56.7185 14.3967 57.0648 13.8968C57.4111 13.3969 57.9018 13.0146 58.4711 12.8008C59.7791 12.1257 61.2295 11.7734 62.7014 11.7734C64.1733 11.7734 65.6239 12.1257 66.9318 12.8008C67.5012 13.0146 67.9918 13.3969 68.3381 13.8968C68.6845 14.3967 68.87 14.9903 68.87 15.5985C68.87 16.2066 68.6845 16.8003 68.3381 17.3002C67.9918 17.8001 67.5012 18.1825 66.9318 18.3962C65.6347 19.1017 64.1778 19.4616 62.7014 19.4415V19.4292Z" fill="#150035"/>
    <path fill-rule="evenodd" clip-rule="evenodd" d="M102.904 88.4051C102.904 88.4051 118.891 84.9249 117.784 72.4183C116.677 59.9117 100.334 59.2599 100.334 59.2599C97.7883 58.9647 95.3164 60.5757 93.6932 64.056C90.8893 70.0818 91.7009 79.3787 95.5255 84.8265C97.739 87.987 100.457 89.143 102.904 88.4051Z" fill="#AFC3D5"/>
    <path fill-rule="evenodd" clip-rule="evenodd" d="M99.7417 59.851C97.5773 59.851 95.5974 61.4497 94.257 64.3273C91.5392 70.1687 92.3387 79.2074 96.0279 84.4831C97.9955 87.2869 100.43 88.5044 102.73 87.8157L103.529 87.5698C106.604 86.6966 118.09 82.7245 117.18 72.4192C116.27 62.1138 103.935 60.1216 100.959 59.8756L100.271 59.8018H99.7417V59.851ZM101.426 89.2422C99.1391 89.2422 96.8641 87.828 95.0194 85.1964C91.0965 79.601 90.2603 70.0088 93.1379 63.8109C94.7981 60.2569 97.3929 58.363 100.271 58.6459H100.369C100.541 58.6459 117.278 59.4575 118.397 72.3577C119.516 85.2578 103.197 88.9717 103.037 89.0086H102.927L102.349 89.1315C102.049 89.1923 101.745 89.2294 101.439 89.2422H101.426Z" fill="#150035"/>
    <path fill-rule="evenodd" clip-rule="evenodd" d="M47.5271 32.6974C42.3375 29.709 40.333 25.454 41.5381 21.5065C41.5516 21.4654 41.5501 21.4208 41.5341 21.3806C41.518 21.3405 41.4884 21.3072 41.4503 21.2867C41.4122 21.2662 41.3681 21.2597 41.3257 21.2684C41.2833 21.2772 41.2453 21.3004 41.2184 21.3343C38.1808 25.6838 35.8791 30.5032 34.4055 35.5996C33.2987 40.5186 36.0903 45.6467 42.5588 49.3852C48.5589 52.58 55.2656 54.2165 62.0629 54.1443C63.4234 54.1541 64.7615 53.7972 65.9365 53.1113C67.1115 52.4253 68.08 51.4355 68.7404 50.2459L68.8019 50.123C69.7288 48.4606 70.1853 46.5771 70.1225 44.6749C70.0596 42.7726 69.4798 40.9233 68.4452 39.3257C67.8573 38.3989 67.0457 37.6351 66.0851 37.1043C65.1245 36.5734 64.0457 36.2928 62.9482 36.2882C57.5842 36.4417 52.2716 35.2047 47.5271 32.6974Z" fill="#AFC3D5"/>
    <path fill-rule="evenodd" clip-rule="evenodd" d="M40.5799 23.3631C38.1589 27.2325 36.2805 31.4158 34.9969 35.796C33.927 40.5059 36.866 45.4127 42.8673 48.8806C48.7741 52.0335 55.3809 53.645 62.0761 53.566C63.3296 53.5857 64.5648 53.2628 65.6484 52.6322C66.7319 52.0015 67.6228 51.0871 68.2248 49.9874L68.2864 49.8644C69.1609 48.3014 69.5922 46.5294 69.5337 44.7393C69.4752 42.9493 68.929 41.2091 67.9543 39.7066C67.4251 38.8774 66.6991 38.192 65.8408 37.7114C64.9826 37.2308 64.0188 36.9699 63.0353 36.9519H62.6909C57.3071 37.0688 51.9838 35.7983 47.233 33.2627C42.7689 30.6925 40.4078 27.1139 40.6045 23.4246L40.5799 23.3631ZM62.1499 54.7834H62.0761C55.1698 54.8607 48.3557 53.1942 42.2647 49.9382C35.7716 46.1874 32.6111 40.7888 33.8163 35.4762C35.3155 30.3031 37.65 25.4098 40.7275 20.9897C40.8367 20.8364 40.9972 20.7273 41.1799 20.6821C41.3627 20.637 41.5557 20.6589 41.7237 20.7438C41.8921 20.8284 42.0252 20.9699 42.0994 21.1431C42.1737 21.3164 42.1843 21.5103 42.1294 21.6907C40.9612 25.5152 43.101 29.4259 47.8355 32.1682C52.3975 34.6025 57.5092 35.822 62.6788 35.7099H63.023C64.2157 35.7195 65.3869 36.0286 66.429 36.6088C67.4711 37.1889 68.3509 38.0215 68.9874 39.0302C70.0827 40.7207 70.6957 42.678 70.7608 44.6911C70.8258 46.7043 70.3402 48.6971 69.3563 50.4547L69.2949 50.5777C68.5868 51.8519 67.551 52.9137 66.2948 53.6531C65.0386 54.3926 63.6076 54.7828 62.1499 54.7834Z" fill="#150035"/>
    <path fill-rule="evenodd" clip-rule="evenodd" d="M62.4563 51.3156C55.3852 51.2541 51.1302 50.6515 45.3257 47.5526C38.7342 44.0355 35.377 39.8666 37.1724 33.767C38.1825 30.3603 39.5339 27.0642 41.2061 23.929C41.1817 23.0965 41.2939 22.2657 41.5381 21.4695C41.5516 21.4283 41.5502 21.3838 41.5341 21.3436C41.518 21.3034 41.4884 21.2701 41.4503 21.2496C41.4122 21.2291 41.3681 21.2226 41.3257 21.2313C41.2833 21.24 41.2453 21.2634 41.2184 21.2973C38.1808 25.6467 35.8791 30.4661 34.4055 35.5624C33.2987 40.4815 36.0903 45.6096 42.5588 49.348C48.5469 52.5742 55.2618 54.2127 62.0629 54.1072C64.8544 54.1072 66.9819 52.1027 68.3592 50.6147C68.3869 50.5951 68.4057 50.5654 68.4114 50.5319C68.4172 50.4985 68.4094 50.4641 68.3898 50.4364C68.3703 50.4087 68.3406 50.3898 68.3071 50.3841C68.2737 50.3783 68.2394 50.386 68.2116 50.4056C66.354 51.0138 64.411 51.321 62.4563 51.3156Z" fill="#150035"/>
    <path fill-rule="evenodd" clip-rule="evenodd" d="M40.5923 23.3385C38.1616 27.2103 36.2748 31.3979 34.9847 35.7837C33.9148 40.4936 36.854 45.4004 42.8552 48.8683C48.7453 52.0533 55.3566 53.667 62.0517 53.5537C63.7519 53.4653 65.3593 52.7513 66.5648 51.5491C65.2044 51.8201 63.8199 51.952 62.4328 51.9427C55.3863 51.8812 50.9838 51.2909 45.0194 48.1058C37.5179 44.1091 34.8248 39.4976 36.571 33.5947C37.5797 30.1912 38.9226 26.8958 40.58 23.7567C40.58 23.5968 40.58 23.4369 40.58 23.2894L40.5923 23.3385ZM62.064 54.7834C55.1535 54.8982 48.33 53.2294 42.2525 49.9382C35.7594 46.1874 32.5989 40.7765 33.8041 35.4762C35.3035 30.3032 37.638 25.41 40.7153 20.9897C40.8245 20.8364 40.9851 20.7273 41.1679 20.6821C41.3506 20.637 41.5435 20.6589 41.7115 20.7438C41.8799 20.8284 42.0129 20.9699 42.0872 21.1431C42.1615 21.3164 42.1721 21.5103 42.1172 21.6907C41.892 22.4231 41.7881 23.1874 41.8098 23.9534V24.1133L41.7361 24.2608C40.0878 27.3499 38.753 30.5962 37.7517 33.9513C36.1899 39.2639 38.6125 43.2852 45.6098 47.0237C51.3405 50.0857 55.6077 50.6514 62.4575 50.7129C64.3468 50.7428 66.2285 50.4645 68.0283 49.889C68.1875 49.8309 68.3617 49.8285 68.5225 49.8821C68.6833 49.9357 68.8211 50.0422 68.9137 50.1841C69.0037 50.3234 69.0441 50.489 69.0285 50.6541C69.0129 50.8192 68.9422 50.9742 68.8277 51.0941C66.983 53.0372 64.8924 54.7834 62.064 54.7834Z" fill="#150035"/>
    <path d="M43.1788 36.2497C43.3479 34.1102 42.6508 32.3098 41.6217 32.2284C40.5926 32.1471 39.6211 33.8156 39.452 35.9551C39.2829 38.0946 39.9801 39.8951 41.0092 39.9764C42.0383 40.0578 43.0097 38.3893 43.1788 36.2497Z" fill="white"/>
    <path fill-rule="evenodd" clip-rule="evenodd" d="M41.6499 32.9077C41.1457 32.9077 40.3095 34.1375 40.1619 36.0682C40.0144 37.9989 40.6539 39.3885 41.1581 39.4254C41.3795 39.4254 41.7114 39.1672 41.982 38.6999C42.3864 37.9394 42.6214 37.1003 42.6707 36.2404C42.8306 34.2728 42.1787 32.92 41.6745 32.8831L41.6499 32.9077ZM41.1826 40.6675H41.0596C39.6454 40.5568 38.7354 38.54 38.9322 35.9821C39.129 33.4242 40.3588 31.5796 41.7607 31.6903C43.1626 31.801 44.0849 33.8178 43.8881 36.3756C43.8251 37.4137 43.5354 38.4252 43.0395 39.3393C42.8797 39.6964 42.6305 40.0062 42.316 40.2389C42.0015 40.4715 41.6323 40.6192 41.2441 40.6675H41.1826Z" fill="#150035"/>
    <path d="M62.2215 43.6841C62.2382 41.2323 60.2808 39.2314 57.8494 39.2148C55.418 39.1983 53.4334 41.1724 53.4167 43.6242C53.4 46.0759 55.3575 48.0769 57.7889 48.0934C60.2203 48.11 62.2048 46.1359 62.2215 43.6841Z" fill="white"/>
    <path fill-rule="evenodd" clip-rule="evenodd" d="M57.8938 39.8675C57.4003 39.863 56.9109 39.9576 56.4546 40.1456C55.9984 40.3336 55.5845 40.6112 55.2375 40.962C54.7022 41.4917 54.3354 42.1678 54.1828 42.9052C54.0302 43.6427 54.0987 44.4088 54.3797 45.1075C54.6608 45.8062 55.1418 46.4064 55.7626 46.8327C56.3834 47.2591 57.1162 47.4927 57.8692 47.5043C58.3668 47.5121 58.8607 47.4192 59.3214 47.2311C59.7821 47.043 60.2 46.7636 60.55 46.4098C60.9063 46.0573 61.1897 45.638 61.3839 45.1759C61.578 44.7138 61.6791 44.2179 61.6814 43.7166C61.6912 42.7076 61.3007 41.7359 60.5953 41.0144C59.8899 40.2929 58.9274 39.8804 57.9184 39.8675H57.8938ZM57.8938 48.7464C56.9052 48.7267 55.9439 48.4175 55.1292 47.8571C54.3146 47.2966 53.6822 46.5095 53.3104 45.5932C52.9387 44.6769 52.8439 43.6717 53.0378 42.7021C53.2317 41.7324 53.7057 40.841 54.4012 40.1381C54.8661 39.6703 55.4203 39.3008 56.0308 39.0515C56.6414 38.8022 57.2958 38.6782 57.9552 38.687C58.9438 38.7066 59.9051 39.0157 60.7197 39.5762C61.5344 40.1366 62.1668 40.9238 62.5386 41.8401C62.9103 42.7564 63.0051 43.7615 62.8112 44.7312C62.6173 45.7008 62.1433 46.5924 61.4478 47.2952C60.9844 47.7615 60.4322 48.1302 59.8238 48.3794C59.2155 48.6286 58.5635 48.7534 57.9061 48.7464H57.8938Z" fill="#150035"/>
    <path fill-rule="evenodd" clip-rule="evenodd" d="M69.8475 97.4319L66.8347 88.1473C66.6533 87.6031 66.302 87.1315 65.8328 86.8017C65.3635 86.4719 64.8008 86.3013 64.2274 86.3149C53.2818 86.5717 42.4857 83.7373 33.0778 78.137C32.5351 77.7958 31.8882 77.6603 31.2543 77.7551C30.6203 77.8498 30.0413 78.1686 29.6222 78.6536L25.9329 82.9085C23.5619 85.6327 21.8456 88.8633 20.9154 92.353C15.7997 112.029 20.3129 120.232 20.3867 120.367C22.6014 122.44 25.0532 124.244 27.6914 125.741C39.0421 132.296 54.537 134.989 69.3063 133.82C72.8603 123.982 72.2825 112.005 71.5692 105.536C71.2748 102.783 70.6979 100.067 69.8475 97.4319Z" fill="#AFC3D5"/>
    <path fill-rule="evenodd" clip-rule="evenodd" d="M20.9147 119.985C23.0775 121.994 25.4671 123.744 28.035 125.2C38.8323 131.434 53.7 134.349 68.8875 133.23C72.2693 123.49 71.6544 111.758 70.9904 105.585C70.6888 102.877 70.1121 100.207 69.2688 97.6161L66.2558 88.3314C66.1196 87.9155 65.854 87.5539 65.4979 87.2995C65.1417 87.0451 64.7136 86.9112 64.2759 86.9172C53.2137 87.1636 42.305 84.2958 32.7942 78.641C32.376 78.3759 31.8766 78.2698 31.3868 78.3421C30.8971 78.4143 30.4494 78.66 30.1256 79.0345L26.4363 83.2894C24.1184 85.9416 22.436 89.0876 21.5173 92.488C16.7581 110.738 20.472 119.1 20.9024 119.973L20.9147 119.985ZM62.5052 134.742C49.3836 134.742 36.8893 131.779 27.4202 126.319C24.7551 124.794 22.2786 122.962 20.0416 120.859L19.931 120.711C19.7342 120.367 15.2579 111.955 20.3983 92.2421C21.3532 88.6633 23.1111 85.3492 25.5386 82.5516L29.2279 78.2966C29.7408 77.6989 30.4514 77.3054 31.2303 77.188C32.0091 77.0707 32.8043 77.2372 33.4706 77.6572C42.7793 83.1953 53.4596 85.9996 64.2882 85.7489C64.9923 85.7383 65.6814 85.9519 66.2561 86.3586C66.8309 86.7653 67.2614 87.3442 67.4856 88.0117L70.4986 97.3086C71.3707 99.9792 71.9681 102.732 72.2817 105.523C72.9703 111.881 73.5975 124.056 69.982 134.091L69.8468 134.46H69.4532C67.0674 134.607 64.7802 134.693 62.4928 134.693L62.5052 134.742Z" fill="#150035"/>
    <path d="M23.7193 118.671C24.4731 118.671 25.0844 117.79 25.0844 116.703C25.0844 115.616 24.4731 114.735 23.7193 114.735C22.9654 114.735 22.3542 115.616 22.3542 116.703C22.3542 117.79 22.9654 118.671 23.7193 118.671Z" fill="white"/>
    <path fill-rule="evenodd" clip-rule="evenodd" d="M23.7314 115.362C23.3747 115.362 22.9812 115.94 22.9812 116.714C22.9812 117.489 23.3747 118.055 23.7314 118.055C24.088 118.055 24.4938 117.477 24.4938 116.714C24.4938 115.952 24.088 115.362 23.7314 115.362ZM23.7314 119.285C22.6123 119.285 21.7515 118.153 21.7515 116.714C21.7515 115.276 22.6246 114.132 23.7314 114.132C24.8381 114.132 25.7112 115.263 25.7112 116.714C25.7112 118.165 24.8381 119.297 23.7314 119.297V119.285Z" fill="#150035"/>
    <path d="M32.4807 84.3927C32.9902 83.4329 32.8682 82.3708 32.2084 82.0206C31.5485 81.6703 30.6005 82.1644 30.091 83.1243C29.5815 84.0841 29.7034 85.1462 30.3633 85.4965C31.0232 85.8468 31.9712 85.3526 32.4807 84.3927Z" fill="white"/>
    <path fill-rule="evenodd" clip-rule="evenodd" d="M31.7738 82.5521C31.645 82.5564 31.5188 82.5901 31.4049 82.6505C31.0912 82.8413 30.8351 83.1136 30.664 83.4384C30.4929 83.7633 30.4132 84.1285 30.4333 84.4951C30.4228 84.5905 30.4413 84.6868 30.4861 84.7717C30.531 84.8565 30.6003 84.926 30.6851 84.971C30.7698 85.0161 30.8661 85.0346 30.9616 85.0243C31.057 85.014 31.1472 84.9753 31.2204 84.9132C31.5379 84.7285 31.7943 84.4549 31.9582 84.1262C32.3148 83.4498 32.241 82.7611 31.9582 82.589H31.7862L31.7738 82.5521ZM30.8515 86.2413C30.5901 86.2426 30.3323 86.1792 30.1012 86.0568C29.8463 85.9107 29.6312 85.7042 29.4747 85.4555C29.3181 85.2067 29.225 84.9234 29.2035 84.6303C29.1587 84.0189 29.2873 83.4073 29.5745 82.8656C29.8616 82.324 30.2957 81.8743 30.8269 81.5683C31.0863 81.4304 31.3755 81.3584 31.6692 81.3584C31.963 81.3584 32.2523 81.4304 32.5117 81.5683C33.0014 81.9255 33.3312 82.4607 33.4301 83.0588C33.529 83.6568 33.389 84.2697 33.0404 84.7656C32.7664 85.3076 32.3386 85.7568 31.8106 86.0568C31.5147 86.1945 31.1898 86.2578 30.8638 86.2413H30.8515Z" fill="#150035"/>
    <path d="M64.4117 130.29C65.4984 130.29 66.3793 129.409 66.3793 128.322C66.3793 127.235 65.4984 126.354 64.4117 126.354C63.325 126.354 62.4441 127.235 62.4441 128.322C62.4441 129.409 63.325 130.29 64.4117 130.29Z" fill="white"/>
    <path fill-rule="evenodd" clip-rule="evenodd" d="M64.4235 126.982C64.1559 126.982 63.8944 127.062 63.672 127.21C63.4495 127.359 63.2761 127.57 63.1737 127.817C63.0713 128.065 63.0445 128.337 63.0967 128.599C63.1489 128.861 63.2777 129.102 63.4669 129.292C63.6561 129.481 63.8971 129.61 64.1596 129.662C64.422 129.714 64.694 129.687 64.9412 129.585C65.1884 129.482 65.3996 129.309 65.5483 129.087C65.6969 128.864 65.7762 128.603 65.7762 128.335C65.7762 127.976 65.6337 127.632 65.38 127.379C65.1263 127.125 64.7822 126.982 64.4235 126.982ZM64.4235 130.905C63.9127 130.905 63.4135 130.754 62.9888 130.47C62.5641 130.186 62.2331 129.783 62.0377 129.311C61.8422 128.839 61.791 128.32 61.8907 127.819C61.9903 127.318 62.2363 126.858 62.5974 126.497C62.9586 126.135 63.4187 125.89 63.9197 125.79C64.4206 125.69 64.9399 125.741 65.4118 125.937C65.8837 126.132 66.287 126.463 66.5707 126.888C66.8545 127.313 67.0059 127.812 67.0059 128.323C67.0059 129.008 66.7339 129.664 66.2496 130.149C65.7653 130.633 65.1084 130.905 64.4235 130.905Z" fill="#150035"/>
    <path d="M61.9907 94.7389C63.0774 94.7389 63.9583 93.858 63.9583 92.7713C63.9583 91.6846 63.0774 90.8037 61.9907 90.8037C60.904 90.8037 60.0229 91.6846 60.0229 92.7713C60.0229 93.858 60.904 94.7389 61.9907 94.7389Z" fill="white"/>
    <path fill-rule="evenodd" clip-rule="evenodd" d="M62.0027 91.4305C61.7352 91.4305 61.4737 91.5099 61.2512 91.6585C61.0288 91.8071 60.8554 92.0184 60.753 92.2656C60.6506 92.5128 60.6238 92.7848 60.676 93.0472C60.7282 93.3096 60.857 93.5506 61.0462 93.7398C61.2353 93.929 61.4764 94.0578 61.7388 94.11C62.0012 94.1622 62.2731 94.1354 62.5203 94.033C62.7675 93.9306 62.9787 93.7573 63.1274 93.5348C63.276 93.3124 63.3554 93.0508 63.3554 92.7833C63.3554 92.4245 63.2129 92.0804 62.9593 91.8267C62.7056 91.573 62.3615 91.4305 62.0027 91.4305ZM62.0027 95.3534C61.4919 95.3534 60.9926 95.202 60.5679 94.9182C60.1432 94.6344 59.8122 94.2311 59.6168 93.7592C59.4213 93.2873 59.3701 92.7681 59.4698 92.2672C59.5694 91.7662 59.8154 91.306 60.1765 90.9448C60.5377 90.5837 60.998 90.3377 61.4989 90.2381C61.9999 90.1385 62.519 90.1896 62.9909 90.3851C63.4628 90.5805 63.8662 90.9115 64.15 91.3362C64.4337 91.7609 64.5852 92.2602 64.5852 92.7709C64.5852 93.4559 64.313 94.1127 63.8287 94.597C63.3444 95.0813 62.6876 95.3534 62.0027 95.3534Z" fill="#150035"/>
    <path fill-rule="evenodd" clip-rule="evenodd" d="M104.146 88.5531C95.9927 84.5318 96.0173 72.8122 96.0173 72.3203H97.2471C97.2471 72.431 97.2471 83.757 104.626 87.434L104.146 88.5531Z" fill="#150035"/>
    <path fill-rule="evenodd" clip-rule="evenodd" d="M97.2471 69.7137L96.0173 69.6276C96.2336 67.0639 97.0783 64.5931 98.4768 62.4336L99.4606 63.1714C98.2122 65.1448 97.4533 67.3878 97.2471 69.7137Z" fill="#150035"/>
    <path fill-rule="evenodd" clip-rule="evenodd" d="M12.7493 64.1057C12.7493 63.8597 11.704 57.9569 18.1603 53.665L18.8367 54.698C13.0445 58.5102 13.9177 63.8474 13.9177 63.8966L12.7493 64.1057Z" fill="#150035"/>
    <path fill-rule="evenodd" clip-rule="evenodd" d="M63.0097 22.4032C55.3484 22.4032 53.5038 17.4841 53.4177 17.2013L54.5736 16.7832C54.6474 16.9923 56.492 21.8621 64.6945 21.0874L64.8053 22.3171C64.1781 22.3786 63.5754 22.4032 63.0097 22.4032Z" fill="#150035"/>
    <path fill-rule="evenodd" clip-rule="evenodd" d="M74.8771 129.713L74.7295 128.483C74.8525 128.483 87.0272 126.897 96.6561 121.104L97.2955 122.15C87.4943 128.053 75 129.7 74.8771 129.713Z" fill="#150035"/>
    <path fill-rule="evenodd" clip-rule="evenodd" d="M106.838 112.656L106.1 111.672C107.576 110.297 108.575 108.488 108.953 106.507L110.183 106.79C109.747 109.061 108.571 111.124 106.838 112.656Z" fill="#150035"/>
    <path fill-rule="evenodd" clip-rule="evenodd" d="M61.3379 155.648C49.3232 155.365 44.9576 147.765 44.7854 147.445L45.8553 146.843C45.8553 146.917 50.0979 154.147 61.3625 154.418L61.3379 155.648Z" fill="#150035"/>
    <path fill-rule="evenodd" clip-rule="evenodd" d="M42.3992 15.4081L41.5261 14.5472C46.7948 9.74587 53.4609 6.75536 60.5504 6.0127L60.6858 7.24245C53.8866 7.98558 47.4911 10.8413 42.3992 15.4081Z" fill="#150035"/>
    <path fill-rule="evenodd" clip-rule="evenodd" d="M10.2298 104.502L9 104.318C9 104.183 11.0906 90.9874 13.6362 83.4121L14.8044 83.8056C12.308 91.2703 10.2544 104.367 10.2298 104.502Z" fill="#150035"/>
    <path fill-rule="evenodd" clip-rule="evenodd" d="M71.9139 8.23817C69.5158 7.36504 63.9943 7.22976 63.9451 7.22976V6C64.1787 6 69.725 6.14758 72.3075 7.08219L71.9139 8.23817Z" fill="#150035"/>
    <path fill-rule="evenodd" clip-rule="evenodd" d="M36.1277 100.47L33.496 99.744C33.3329 99.6986 33.1585 99.7198 33.011 99.8027C32.8635 99.8857 32.755 100.024 32.7091 100.187L32.0081 102.806C31.9662 102.976 31.9914 103.155 32.0785 103.306C32.1656 103.457 32.3078 103.569 32.4754 103.618L35.1563 104.368C35.2395 104.392 35.3266 104.399 35.4126 104.388C35.4985 104.377 35.5813 104.349 35.656 104.305C35.7308 104.262 35.7958 104.203 35.8473 104.134C35.8988 104.064 35.9356 103.985 35.9555 103.901L36.6073 101.257C36.6452 101.087 36.6166 100.91 36.5273 100.761C36.4381 100.612 36.2949 100.504 36.1277 100.457V100.47ZM51.1555 105.13C50.7661 105.657 50.2824 106.108 49.7289 106.459C50.492 107.23 51.0866 108.151 51.475 109.164C51.9388 110.37 52.0747 111.676 51.8687 112.952C51.7378 113.829 51.4238 114.669 50.9471 115.417C50.4704 116.165 49.8417 116.804 49.1017 117.293C48.3536 117.78 47.5085 118.098 46.6251 118.225C45.7416 118.353 44.841 118.286 43.9859 118.031L39.3006 116.702L34.6521 115.374C34.2693 115.259 33.947 114.999 33.7544 114.649C33.6498 114.464 33.5829 114.26 33.5576 114.049C33.5322 113.838 33.549 113.624 33.6068 113.419L34.8366 108.5L38.2307 109.459C38.3164 109.483 38.4059 109.489 38.494 109.477C38.5821 109.465 38.6667 109.435 38.7427 109.389C38.8188 109.342 38.8846 109.281 38.9361 109.209C38.9876 109.136 39.0237 109.054 39.0422 108.967L39.817 105.549L43.1742 106.483C43.2566 106.509 43.3436 106.517 43.4294 106.507C43.5152 106.497 43.5977 106.469 43.672 106.425C43.7462 106.381 43.8104 106.322 43.8602 106.251C43.9101 106.181 43.9445 106.101 43.9613 106.016L44.5147 103.335C44.546 103.161 44.5118 102.982 44.4187 102.832C44.3255 102.682 44.1801 102.572 44.0105 102.523L40.7147 101.613L41.4403 98.4282C41.4738 98.2606 41.4413 98.0865 41.3497 97.9422C41.258 97.7979 41.1144 97.6945 40.9484 97.6535L37.7265 96.7804L38.2921 94.4807C38.3325 94.3182 38.4059 94.1656 38.5074 94.0324C38.6089 93.8992 38.7364 93.7881 38.8824 93.706C39.1872 93.5404 39.5448 93.5007 39.8785 93.5953L43.6538 94.616L47.4416 95.6367C48.9502 96.0578 50.2587 97.0042 51.1308 98.3053C52.0164 99.595 52.3769 101.174 52.1392 102.72C52.0167 103.597 51.6787 104.429 51.1555 105.143V105.13Z" fill="#272F3C"/>
    <mask id="path-57-inside-1_60_22002" fill="white">
        <path fill-rule="evenodd" clip-rule="evenodd" d="M25.5516 28.8873C27.7023 26.3578 29 23.0804 29 19.5C29 11.4919 22.5081 5 14.5 5C6.49187 5 0 11.4919 0 19.5C0 27.5081 6.49187 34 14.5 34C16.9159 34 19.1938 33.4092 21.1971 32.3641L26.8095 36.0359L25.5516 28.8873Z"/>
    </mask>
    <path fill-rule="evenodd" clip-rule="evenodd" d="M25.5516 28.8873C27.7023 26.3578 29 23.0804 29 19.5C29 11.4919 22.5081 5 14.5 5C6.49187 5 0 11.4919 0 19.5C0 27.5081 6.49187 34 14.5 34C16.9159 34 19.1938 33.4092 21.1971 32.3641L26.8095 36.0359L25.5516 28.8873Z" fill="white"/>
    <path d="M25.5516 28.8873L24.7897 28.2395L24.4852 28.5977L24.5667 29.0606L25.5516 28.8873ZM21.1971 32.3641L21.7445 31.5273L21.2541 31.2065L20.7346 31.4775L21.1971 32.3641ZM26.8095 36.0359L26.262 36.8727L28.1946 38.137L27.7944 35.8626L26.8095 36.0359ZM28 19.5C28 22.8343 26.7925 25.884 24.7897 28.2395L26.3134 29.5351C28.6121 26.8315 30 23.3266 30 19.5H28ZM14.5 6C21.9558 6 28 12.0442 28 19.5H30C30 10.9396 23.0604 4 14.5 4V6ZM1 19.5C1 12.0442 7.04416 6 14.5 6V4C5.93959 4 -1 10.9396 -1 19.5H1ZM14.5 33C7.04416 33 1 26.9558 1 19.5H-1C-1 28.0604 5.93959 35 14.5 35V33ZM20.7346 31.4775C18.8707 32.4498 16.751 33 14.5 33V35C17.0807 35 19.5169 34.3685 21.6596 33.2507L20.7346 31.4775ZM20.6496 33.201L26.262 36.8727L27.357 35.199L21.7445 31.5273L20.6496 33.201ZM27.7944 35.8626L26.5364 28.714L24.5667 29.0606L25.8246 36.2092L27.7944 35.8626Z" fill="black" mask="url(#path-57-inside-1_60_22002)"/>
    <path d="M7.903 19.572C7.903 19.355 7.9415 19.1485 8.0185 18.9525C8.10249 18.7565 8.21449 18.5885 8.35449 18.4485C8.49449 18.3085 8.66249 18.1965 8.85849 18.1125C9.05449 18.0285 9.26449 17.9865 9.48849 17.9865C9.71249 17.9865 9.91899 18.0285 10.108 18.1125C10.304 18.1965 10.472 18.3085 10.612 18.4485C10.759 18.5885 10.8745 18.7565 10.9585 18.9525C11.0425 19.1485 11.0845 19.355 11.0845 19.572C11.0845 19.796 11.0425 20.006 10.9585 20.202C10.8745 20.391 10.759 20.5555 10.612 20.6955C10.472 20.8355 10.304 20.944 10.108 21.021C9.91899 21.105 9.71249 21.147 9.48849 21.147C9.26449 21.147 9.05449 21.105 8.85849 21.021C8.66249 20.944 8.49449 20.8355 8.35449 20.6955C8.21449 20.5555 8.10249 20.391 8.0185 20.202C7.9415 20.006 7.903 19.796 7.903 19.572ZM12.8864 19.572C12.8864 19.355 12.9249 19.1485 13.0019 18.9525C13.0859 18.7565 13.1979 18.5885 13.3379 18.4485C13.4779 18.3085 13.6459 18.1965 13.8419 18.1125C14.0379 18.0285 14.2479 17.9865 14.4719 17.9865C14.6959 17.9865 14.9024 18.0285 15.0914 18.1125C15.2874 18.1965 15.4554 18.3085 15.5954 18.4485C15.7424 18.5885 15.8579 18.7565 15.9419 18.9525C16.0259 19.1485 16.0679 19.355 16.0679 19.572C16.0679 19.796 16.0259 20.006 15.9419 20.202C15.8579 20.391 15.7424 20.5555 15.5954 20.6955C15.4554 20.8355 15.2874 20.944 15.0914 21.021C14.9024 21.105 14.6959 21.147 14.4719 21.147C14.2479 21.147 14.0379 21.105 13.8419 21.021C13.6459 20.944 13.4779 20.8355 13.3379 20.6955C13.1979 20.5555 13.0859 20.391 13.0019 20.202C12.9249 20.006 12.8864 19.796 12.8864 19.572ZM17.8697 19.572C17.8697 19.355 17.9082 19.1485 17.9852 18.9525C18.0692 18.7565 18.1812 18.5885 18.3212 18.4485C18.4612 18.3085 18.6292 18.1965 18.8252 18.1125C19.0212 18.0285 19.2312 17.9865 19.4552 17.9865C19.6792 17.9865 19.8857 18.0285 20.0747 18.1125C20.2707 18.1965 20.4387 18.3085 20.5787 18.4485C20.7257 18.5885 20.8412 18.7565 20.9252 18.9525C21.0092 19.1485 21.0512 19.355 21.0512 19.572C21.0512 19.796 21.0092 20.006 20.9252 20.202C20.8412 20.391 20.7257 20.5555 20.5787 20.6955C20.4387 20.8355 20.2707 20.944 20.0747 21.021C19.8857 21.105 19.6792 21.147 19.4552 21.147C19.2312 21.147 19.0212 21.105 18.8252 21.021C18.6292 20.944 18.4612 20.8355 18.3212 20.6955C18.1812 20.5555 18.0692 20.391 17.9852 20.202C17.9082 20.006 17.8697 19.796 17.8697 19.572Z" fill="#1C2A40"/>
</svg>
