<svg width="11" height="15" viewBox="0 0 11 15" fill="none" xmlns="http://www.w3.org/2000/svg">
<path fill-rule="evenodd" clip-rule="evenodd" d="M3.17041 9.32927V14.5593H1.28955V0.55974H5.42041C6.20162 0.546343 6.97995 0.650422 7.72998 0.86931C8.32572 1.04579 8.87778 1.3455 9.3501 1.74919C9.78982 2.1178 10.1331 2.58816 10.3501 3.11931C10.5694 3.69027 10.6783 4.29778 10.6704 4.90935C10.6789 5.52284 10.5625 6.13175 10.3296 6.69939C10.1064 7.23568 9.76452 7.71426 9.32959 8.09929C8.85336 8.50969 8.29897 8.81942 7.69971 9.00945C6.9759 9.24027 6.2191 9.35181 5.45947 9.33953L3.17041 9.32927ZM3.17041 7.82927H5.42041C5.90542 7.83894 6.38835 7.76802 6.8501 7.61931C7.21947 7.48665 7.55922 7.28319 7.8501 7.0197C8.13137 6.76636 8.35004 6.45111 8.48975 6.09929C8.63462 5.72302 8.70587 5.32226 8.69971 4.91912C8.72229 4.53217 8.66061 4.14517 8.51904 3.78435C8.37748 3.42353 8.16006 3.09762 7.88037 2.82927C7.16667 2.27469 6.27059 2.00716 5.36963 2.07927H3.11963L3.17041 7.82927Z" fill="#FEFEFE"/>
<path d="M5.77002 10.6094H0.459961V12.1094H5.77002V10.6094Z" fill="#FEFEFE"/>
</svg>
