<svg width="53" height="52" viewBox="0 0 53 52" fill="none" xmlns="http://www.w3.org/2000/svg">
<path fill-rule="evenodd" clip-rule="evenodd" d="M40.7798 29.2691C40.4193 29.642 40.2183 30.1406 40.2183 30.6592C40.2183 31.1779 40.4193 31.6759 40.7798 32.0489L41.48 32.7491C41.5398 32.8107 41.5737 32.8932 41.5737 32.9791C41.5737 33.065 41.5398 33.1474 41.48 33.209C41.4184 33.2689 41.3354 33.3023 41.2495 33.3023C41.1636 33.3023 41.0816 33.2689 41.02 33.209L39.3999 31.5889C39.027 31.2284 38.5289 31.0269 38.0103 31.0269C37.4916 31.0269 36.9926 31.2284 36.6196 31.5889C36.2591 31.9619 36.0581 32.4604 36.0581 32.9791C36.0581 33.4977 36.2591 33.9963 36.6196 34.3692L38.2397 35.9893C38.2996 36.0509 38.3335 36.1334 38.3335 36.2193C38.3335 36.3052 38.2996 36.3877 38.2397 36.4493C38.1782 36.5091 38.0961 36.5425 38.0103 36.5425C37.9244 36.5425 37.8414 36.5091 37.7798 36.4493L35.23 33.899C34.857 33.5385 34.359 33.337 33.8403 33.337C33.3217 33.337 32.8226 33.5385 32.4497 33.899C32.0892 34.2719 31.8882 34.7704 31.8882 35.2891C31.8882 35.8078 32.0892 36.3063 32.4497 36.6793L34.9995 39.2291C35.0594 39.2907 35.0933 39.3731 35.0933 39.459C35.0933 39.5449 35.0594 39.6274 34.9995 39.689C34.9379 39.7489 34.8559 39.7823 34.77 39.7823C34.6841 39.7823 34.6011 39.7489 34.5396 39.689L25.4897 30.6392C25.1168 30.2787 24.6188 30.0772 24.1001 30.0772C23.5814 30.0772 23.0824 30.2787 22.7095 30.6392C22.349 31.0121 22.1479 31.5102 22.1479 32.0289C22.1479 32.5475 22.349 33.0461 22.7095 33.419L33.6001 44.3091C32.1701 44.0891 29.7703 43.9893 28.3003 45.4693C26.8303 46.9493 26.9504 47.8093 27.3804 48.2393C28.5504 49.4093 29.4496 47.5589 34.7896 50.1089C40.1296 52.6589 43.5499 52.4489 45.8999 50.1089L49.1304 46.879C52.4104 43.599 53.3496 39.1091 50.0396 35.7891L43.5396 29.2891C43.1702 28.9318 42.6775 28.7303 42.1636 28.7266C41.6497 28.7229 41.1543 28.9172 40.7798 29.2691Z" fill="#1C2A40"/>
<path fill-rule="evenodd" clip-rule="evenodd" d="M41.3599 0.160156H6.85986C6.01021 0.160156 5.16925 0.327196 4.38428 0.652344C3.5993 0.977492 2.88546 1.45438 2.28467 2.05518C1.68387 2.65597 1.20747 3.36883 0.882324 4.15381C0.557176 4.93879 0.390137 5.78023 0.390137 6.62988C0.390137 8.34583 1.07131 9.99172 2.28467 11.2051C3.49803 12.4184 5.14391 13.1001 6.85986 13.1001H41.3599C43.0758 13.1001 44.7217 12.4184 45.9351 11.2051C47.1484 9.99172 47.8296 8.34583 47.8296 6.62988C47.8296 5.78023 47.6626 4.93879 47.3374 4.15381C47.0123 3.36883 46.5359 2.65597 45.9351 2.05518C45.3343 1.45438 44.6204 0.977492 43.8354 0.652344C43.0505 0.327196 42.2095 0.160156 41.3599 0.160156ZM6.85986 8.79004C6.287 8.79004 5.7376 8.56231 5.33252 8.15723C4.92744 7.75215 4.69971 7.20275 4.69971 6.62988C4.69971 6.05702 4.92744 5.50762 5.33252 5.10254C5.7376 4.69746 6.287 4.47021 6.85986 4.47021C7.43273 4.47021 7.98213 4.69746 8.38721 5.10254C8.79229 5.50762 9.02002 6.05702 9.02002 6.62988C9.02002 7.20275 8.79229 7.75215 8.38721 8.15723C7.98213 8.56231 7.43273 8.79004 6.85986 8.79004ZM15.4897 8.79004C14.9169 8.79004 14.3675 8.56231 13.9624 8.15723C13.5573 7.75215 13.3296 7.20275 13.3296 6.62988C13.3296 6.05702 13.5573 5.50762 13.9624 5.10254C14.3675 4.69746 14.9169 4.47021 15.4897 4.47021C16.0626 4.47021 16.612 4.69746 17.0171 5.10254C17.4222 5.50762 17.6499 6.05702 17.6499 6.62988C17.65 6.91779 17.5926 7.20289 17.481 7.46826C17.3693 7.73364 17.2054 7.97405 16.9995 8.17529C16.7936 8.37654 16.5496 8.53457 16.2817 8.64014C16.0139 8.7457 15.7278 8.7967 15.4399 8.79004H15.4897Z" fill="#1C2A40"/>
<path fill-rule="evenodd" clip-rule="evenodd" d="M41.3599 17.4107H6.85987C6.00985 17.4093 5.1679 17.5757 4.38233 17.9004C3.59676 18.2251 2.8828 18.7017 2.28175 19.3027C1.68069 19.9038 1.20408 20.6173 0.879402 21.4028C0.554721 22.1884 0.388828 23.0304 0.390144 23.8804C0.388828 24.7304 0.554721 25.5723 0.879402 26.3579C1.20408 27.1435 1.68069 27.8574 2.28175 28.4585C2.8828 29.0596 3.59676 29.5362 4.38233 29.8608C5.1679 30.1855 6.00985 30.3519 6.85987 30.3506H18.0698C18.3597 29.2991 18.9181 28.3409 19.6899 27.5703C20.2724 26.9862 20.9642 26.5228 21.7261 26.2066C22.488 25.8903 23.3055 25.7275 24.1304 25.7275C24.9553 25.7275 25.7718 25.8903 26.5337 26.2066C27.2956 26.5228 27.9874 26.9862 28.5698 27.5703L30.7896 29.7905C31.5056 29.3812 32.2993 29.1258 33.1196 29.0405C34.1453 27.7496 35.6418 26.9187 37.2798 26.7305C39.1598 24.2205 43.4404 23.0505 47.1304 26.7305C47.5907 25.8443 47.827 24.8589 47.8198 23.8604C47.8211 23.0103 47.6553 22.1684 47.3306 21.3828C47.0059 20.5972 46.5293 19.8838 45.9282 19.2827C45.3272 18.6817 44.6132 18.2051 43.8276 17.8804C43.0421 17.5557 42.2001 17.3893 41.3501 17.3906L41.3599 17.4107ZM6.85987 26.0405C6.287 26.0405 5.73761 25.8128 5.33253 25.4077C4.92745 25.0026 4.69971 24.4532 4.69971 23.8804C4.69971 23.3075 4.92745 22.7581 5.33253 22.353C5.73761 21.948 6.287 21.7207 6.85987 21.7207C7.43274 21.7207 7.98214 21.948 8.38721 22.353C8.79229 22.7581 9.02003 23.3075 9.02003 23.8804C9.02003 24.4532 8.79229 25.0026 8.38721 25.4077C7.98214 25.8128 7.43274 26.0405 6.85987 26.0405ZM15.4898 26.0405C14.9169 26.0405 14.3675 25.8128 13.9624 25.4077C13.5573 25.0026 13.3296 24.4532 13.3296 23.8804C13.3296 23.3075 13.5573 22.7581 13.9624 22.353C14.3675 21.948 14.9169 21.7207 15.4898 21.7207C16.0626 21.7207 16.612 21.948 17.0171 22.353C17.4222 22.7581 17.6499 23.3075 17.6499 23.8804C17.65 24.1683 17.5926 24.4534 17.481 24.7188C17.3693 24.9841 17.2054 25.2245 16.9995 25.4258C16.7936 25.627 16.5496 25.7851 16.2817 25.8906C16.0139 25.9962 15.7278 26.0472 15.4399 26.0405H15.4898Z" fill="#1C2A40"/>
<path fill-rule="evenodd" clip-rule="evenodd" d="M19.7095 36.4302C19.1936 35.9169 18.7706 35.318 18.4595 34.6602H6.85987C6.00985 34.6588 5.1679 34.8252 4.38233 35.1499C3.59676 35.4746 2.8828 35.9512 2.28175 36.5523C1.68069 37.1533 1.20408 37.8668 0.879402 38.6524C0.554721 39.4379 0.388828 40.2799 0.390144 41.1299C0.388828 41.9799 0.554721 42.8219 0.879402 43.6074C1.20408 44.393 1.68069 45.107 2.28175 45.708C2.8828 46.3091 3.59676 46.7857 4.38233 47.1104C5.1679 47.435 6.00985 47.6014 6.85987 47.6001H22.8599C22.908 46.5699 23.1664 45.5602 23.6187 44.6333C24.0709 43.7064 24.7073 42.8819 25.4898 42.21L19.73 36.4302H19.7095ZM6.85987 43.29C6.287 43.29 5.73761 43.0623 5.33253 42.6572C4.92745 42.2522 4.69971 41.7028 4.69971 41.1299C4.69971 40.557 4.92745 40.0076 5.33253 39.6025C5.73761 39.1975 6.287 38.9702 6.85987 38.9702C7.43274 38.9702 7.98214 39.1975 8.38721 39.6025C8.79229 40.0076 9.02003 40.557 9.02003 41.1299C9.02003 41.7028 8.79229 42.2522 8.38721 42.6572C7.98214 43.0623 7.43274 43.29 6.85987 43.29ZM15.4898 43.29C14.9169 43.29 14.3675 43.0623 13.9624 42.6572C13.5573 42.2522 13.3296 41.7028 13.3296 41.1299C13.3296 40.557 13.5573 40.0076 13.9624 39.6025C14.3675 39.1975 14.9169 38.9702 15.4898 38.9702C16.0626 38.9702 16.612 39.1975 17.0171 39.6025C17.4222 40.0076 17.6499 40.557 17.6499 41.1299C17.65 41.4178 17.5926 41.7029 17.481 41.9683C17.3693 42.2336 17.2054 42.4741 16.9995 42.6753C16.7936 42.8765 16.5496 43.0346 16.2817 43.1401C16.0139 43.2457 15.7278 43.2967 15.4399 43.29H15.4898Z" fill="#1C2A40"/>
</svg>
