<svg width="89" height="50" viewBox="0 0 89 50" fill="none" xmlns="http://www.w3.org/2000/svg">
<path d="M88.0794 18.5526V30.7767H83.7144V22.2018H79.5115V30.7767H75.1465V18.5518H88.0794V18.5526Z" fill="#E4E8F2"/>
<path fill-rule="evenodd" clip-rule="evenodd" d="M66.1831 31.2137C70.0906 31.2137 72.9923 28.8179 72.9923 25.1858C72.9923 21.6704 70.8514 19.3879 67.2735 19.3879C65.6223 19.3879 64.2598 19.9692 63.2335 20.9721C63.4785 18.8992 65.2314 17.3858 67.1614 17.3858C67.6068 17.3858 70.9602 17.3787 70.9602 17.3787L72.8564 13.75C72.8564 13.75 68.6464 13.8458 66.6893 13.8458C62.2177 13.9237 59.1973 17.9883 59.1973 22.925C59.1973 28.6762 62.1431 31.2137 66.1831 31.2137ZM66.2068 22.6021C67.6577 22.6021 68.6635 23.5554 68.6635 25.1854C68.6635 26.6525 67.7698 27.8612 66.2068 27.8646C64.7118 27.8646 63.706 26.7446 63.706 25.2104C63.706 23.58 64.7118 22.6021 66.2068 22.6021Z" fill="#E4E8F2"/>
<path d="M55.6452 26.6842C55.6452 26.6842 54.6144 27.2783 53.0748 27.3908C51.3048 27.4433 49.7277 26.3254 49.7277 24.3392C49.7277 22.4017 51.1194 21.2912 53.0302 21.2912C54.2019 21.2912 55.7519 22.1033 55.7519 22.1033C55.7519 22.1033 56.8861 20.0221 57.4736 18.9812C56.3977 18.1658 54.9648 17.7188 53.2981 17.7188C49.0919 17.7188 45.834 20.4612 45.834 24.3146C45.834 28.2171 48.8961 30.8958 53.2981 30.815C54.5286 30.7692 56.2261 30.3371 57.2606 29.6725L55.6452 26.6842Z" fill="#E4E8F2"/>
<path d="M0 10.8828L6.05499 21.7057V28.3074L0.00708333 39.109L0 10.8828Z" fill="#E4E8F2"/>
<path d="M23.248 17.7676L28.9218 14.2901L40.5334 14.2793L23.248 24.8685V17.7676Z" fill="#E4E8F2"/>
<path d="M23.2168 10.8196L23.2488 25.1487L17.1797 21.4196V0L23.2172 10.8196H23.2168Z" fill="#E4E8F2"/>
<path d="M40.5342 14.2796L28.9222 14.2904L23.2168 10.8196L17.1797 0L40.5338 14.2796H40.5342Z" fill="#E4E8F2"/>
<path d="M23.2488 39.17V32.2179L17.1797 28.5596L17.183 50.0004L23.2488 39.17Z" fill="#E4E8F2"/>
<path d="M28.9083 35.7232L6.05458 21.7057L0 10.8828L40.5095 35.709L28.9079 35.7232H28.9083Z" fill="#E4E8F2"/>
<path d="M17.1836 49.9994L23.2486 39.169L28.9082 35.7231L40.5094 35.709L17.1836 49.9994Z" fill="#E4E8F2"/>
<path d="M0.0078125 39.1093L17.2299 28.5593L11.4399 25.0068L6.05572 28.3077L0.0078125 39.1093Z" fill="#E4E8F2"/>
</svg>
