<svg width="26" height="23" viewBox="0 0 26 23" fill="none" xmlns="http://www.w3.org/2000/svg">
<path fill-rule="evenodd" clip-rule="evenodd" d="M0.919922 11.0801L6.78955 13.2701L9.05957 20.5801C9.09274 20.6887 9.15237 20.7875 9.23291 20.8677C9.31345 20.9478 9.41265 21.0068 9.52148 21.0395C9.63032 21.0721 9.74558 21.0774 9.85693 21.0548C9.96829 21.0323 10.0722 20.9825 10.1597 20.91L13.4297 18.24C13.6019 18.1126 13.8107 18.0437 14.0249 18.0437C14.2391 18.0437 14.4474 18.1126 14.6196 18.24L20.5195 22.5301C20.6129 22.5976 20.7217 22.6405 20.8359 22.6552C20.9502 22.6698 21.0664 22.6557 21.1738 22.6139C21.2812 22.5722 21.3768 22.5041 21.4512 22.4161C21.5255 22.3281 21.5764 22.2229 21.5996 22.11L25.9199 1.31004C25.9252 1.26018 25.9252 1.20987 25.9199 1.16001C25.9194 1.04809 25.8914 0.937973 25.8389 0.839152C25.7863 0.74033 25.7107 0.655805 25.6182 0.592814C25.5256 0.529822 25.4188 0.490255 25.3076 0.477579C25.1964 0.464903 25.0838 0.479505 24.9795 0.52006L0.879883 9.82005C0.749066 9.86976 0.6361 9.95808 0.556641 10.0733C0.477181 10.1885 0.43457 10.3251 0.43457 10.4651C0.43457 10.605 0.477181 10.7416 0.556641 10.8568C0.6361 10.972 0.749066 11.0603 0.879883 11.11L0.919922 11.0801ZM8.69971 12.0801L20.1997 5.00004C20.2421 4.96821 20.2956 4.95457 20.3481 4.96208C20.4007 4.96958 20.4477 4.99758 20.4795 5.04002C20.5113 5.08245 20.5251 5.13582 20.5176 5.18833C20.5101 5.24084 20.4824 5.28822 20.4399 5.32005L10.9697 14.12C10.6399 14.4298 10.425 14.8422 10.3599 15.29L10.0396 17.68C10.0226 17.744 9.98507 17.8006 9.93262 17.841C9.88017 17.8814 9.8157 17.9032 9.74951 17.9032C9.68332 17.9032 9.61935 17.8814 9.56689 17.841C9.51444 17.8006 9.47642 17.744 9.45947 17.68L8.19971 13.4001C8.12938 13.1585 8.14016 12.9006 8.23047 12.6658C8.32078 12.4309 8.48564 12.2322 8.69971 12.1V12.0801Z" fill="#FEFEFE"/>
</svg>
