<svg viewBox="0 0 206 28" fill="none" xmlns="http://www.w3.org/2000/svg">
<path fill-rule="evenodd" clip-rule="evenodd" d="M11.4353 26.5574C8.75368 26.5513 6.18417 25.4809 4.29124 23.5815C2.39831 21.682 1.33678 19.1089 1.33985 16.4272V2.51422C1.33985 2.2161 1.45827 1.93018 1.66907 1.71938C1.87988 1.50857 2.16579 1.39013 2.46391 1.39013C2.76204 1.39013 3.04795 1.50857 3.25875 1.71938C3.46956 1.93018 3.588 2.2161 3.588 2.51422V16.4272C3.588 18.509 4.41495 20.5055 5.88697 21.9775C7.35898 23.4495 9.35548 24.2765 11.4372 24.2765C13.519 24.2765 15.5154 23.4495 16.9874 21.9775C18.4595 20.5055 19.2864 18.509 19.2864 16.4272V2.51422C19.3311 2.2437 19.4703 1.99781 19.6794 1.82042C19.8884 1.64302 20.1537 1.54563 20.4279 1.54563C20.702 1.54563 20.9673 1.64302 21.1764 1.82042C21.3854 1.99781 21.5247 2.2437 21.5693 2.51422V16.4272C21.5698 17.7577 21.3081 19.0752 20.7992 20.3045C20.2903 21.5338 19.5441 22.6507 18.6034 23.5915C17.6626 24.5322 16.5457 25.2784 15.3164 25.7873C14.0871 26.2962 12.7696 26.5579 11.4391 26.5574H11.4353ZM45.6125 26.5574H39.8244C39.6713 26.5617 39.519 26.5346 39.3767 26.478C39.2344 26.4214 39.1052 26.3363 38.9969 26.228C38.8886 26.1198 38.8036 25.9905 38.7469 25.8482C38.6903 25.706 38.6633 25.5536 38.6675 25.4006V2.51422C38.6633 2.36114 38.6903 2.20879 38.7469 2.06651C38.8036 1.92423 38.8886 1.79499 38.9969 1.68671C39.1052 1.57843 39.2344 1.49339 39.3767 1.43676C39.519 1.38012 39.6713 1.35311 39.8244 1.35737H45.6086C48.9488 1.35737 52.1522 2.68424 54.5141 5.04612C56.876 7.408 58.2029 10.6114 58.2029 13.9516C58.2029 17.2918 56.876 20.4952 54.5141 22.8571C52.1522 25.2189 48.9488 26.5458 45.6086 26.5458L45.6125 26.5574ZM40.9851 24.2746H45.6125C48.3518 24.2746 50.979 23.1863 52.916 21.2493C54.853 19.3123 55.9412 16.6852 55.9412 13.9458C55.9412 11.2065 54.853 8.57931 52.916 6.6423C50.979 4.70528 48.3518 3.61708 45.6125 3.61708H40.9812V24.2746H40.9851ZM87.9339 26.5574C85.8268 26.5575 83.7533 26.029 81.9033 25.0204C80.0532 24.0118 78.4857 22.5552 77.3442 20.7841C76.2027 19.0129 75.5237 16.9837 75.3693 14.8823C75.215 12.7808 75.5902 10.6742 76.4606 8.75528C77.331 6.83634 78.6688 5.16636 80.3516 3.89822C82.0344 2.63007 84.0084 1.80429 86.0929 1.49642C88.1774 1.18855 90.3059 1.40843 92.2834 2.13597C94.2609 2.8635 96.0244 4.07544 97.4124 5.66084C97.5115 5.77284 97.5874 5.90341 97.6357 6.04497C97.6839 6.18653 97.7036 6.33625 97.6936 6.48548C97.6835 6.6347 97.644 6.78044 97.5771 6.91426C97.5104 7.04807 97.4176 7.16728 97.3044 7.26499C97.1941 7.36763 97.064 7.44661 96.922 7.49701C96.78 7.54742 96.6293 7.56818 96.479 7.55807C96.3286 7.54795 96.182 7.50715 96.0481 7.43817C95.9141 7.3692 95.7958 7.27352 95.7002 7.15703C94.3281 5.59042 92.5143 4.47526 90.497 3.95795C88.4798 3.44064 86.3532 3.54534 84.3965 4.25829C82.4398 4.97125 80.7444 6.25914 79.5327 7.95296C78.3211 9.64677 77.6499 11.6673 77.6072 13.7494C77.5645 15.8316 78.1524 17.878 79.2935 19.62C80.4348 21.362 82.076 22.7183 84.0018 23.5109C85.9277 24.3034 88.0482 24.4952 90.085 24.0609C92.1218 23.6267 93.9797 22.5868 95.4149 21.0778V15.9992H88.7977C88.5219 15.9599 88.2696 15.8225 88.0871 15.6121C87.9045 15.4017 87.804 15.1325 87.804 14.8539C87.804 14.5754 87.9045 14.3062 88.0871 14.0958C88.2696 13.8854 88.5219 13.7479 88.7977 13.7087H96.5409C96.6938 13.705 96.8459 13.7323 96.9879 13.7892C97.1299 13.846 97.2589 13.9311 97.3671 14.0392C97.4753 14.1474 97.5604 14.2764 97.6172 14.4185C97.674 14.5605 97.7014 14.7126 97.6977 14.8655V21.502C97.6947 21.7774 97.5935 22.0426 97.4124 22.2501C96.2312 23.6063 94.7729 24.6933 93.1357 25.4377C91.4986 26.1821 89.7208 26.5666 87.9223 26.5651L87.9339 26.5574ZM131.281 24.2746H117.476V14.53H127.429C127.727 14.53 128.013 14.4116 128.224 14.2008C128.434 13.99 128.553 13.7041 128.553 13.406C128.553 13.1078 128.434 12.8219 128.224 12.6111C128.013 12.4003 127.727 12.2819 127.429 12.2819H117.476V3.62094H131.281C131.579 3.62094 131.865 3.50249 132.076 3.29169C132.287 3.08088 132.405 2.79497 132.405 2.49685C132.405 2.19873 132.287 1.91281 132.076 1.70201C131.865 1.4912 131.579 1.37278 131.281 1.37278H116.335C116.182 1.36853 116.029 1.39554 115.887 1.45217C115.745 1.5088 115.615 1.59387 115.507 1.70215C115.399 1.81043 115.314 1.93965 115.257 2.08193C115.2 2.22421 115.173 2.37656 115.178 2.52963V25.4314C115.173 25.5845 115.2 25.7368 115.257 25.8791C115.314 26.0214 115.399 26.1506 115.507 26.2589C115.615 26.3672 115.745 26.4522 115.887 26.5089C116.029 26.5655 116.182 26.5925 116.335 26.5883H131.281C131.588 26.5883 131.882 26.4664 132.099 26.2494C132.316 26.0325 132.438 25.7382 132.438 25.4314C132.438 25.1246 132.316 24.8303 132.099 24.6134C131.882 24.3964 131.588 24.2746 131.281 24.2746ZM167.706 1.37278H150.689C150.391 1.37278 150.105 1.4912 149.894 1.70201C149.684 1.91281 149.565 2.19873 149.565 2.49685C149.565 2.79497 149.684 3.08088 149.894 3.29169C150.105 3.50249 150.391 3.62094 150.689 3.62094H158.074V25.4198C158.074 25.7179 158.192 26.0039 158.403 26.2147C158.614 26.4255 158.9 26.5439 159.198 26.5439C159.496 26.5439 159.782 26.4255 159.993 26.2147C160.203 26.0039 160.322 25.7179 160.322 25.4198V3.62094H167.706C168.005 3.62094 168.29 3.50249 168.501 3.29169C168.712 3.08088 168.831 2.79497 168.831 2.49685C168.831 2.19873 168.712 1.91281 168.501 1.70201C168.29 1.4912 168.005 1.37278 167.706 1.37278ZM204.132 1.37278H187.114C186.816 1.37278 186.53 1.4912 186.32 1.70201C186.109 1.91281 185.99 2.19873 185.99 2.49685C185.99 2.79497 186.109 3.08088 186.32 3.29169C186.53 3.50249 186.816 3.62094 187.114 3.62094H194.499V25.4198C194.499 25.7179 194.617 26.0039 194.828 26.2147C195.039 26.4255 195.325 26.5439 195.623 26.5439C195.921 26.5439 196.207 26.4255 196.418 26.2147C196.629 26.0039 196.747 25.7179 196.747 25.4198V3.62094H204.097C204.395 3.62094 204.681 3.50249 204.892 3.29169C205.103 3.08088 205.221 2.79497 205.221 2.49685C205.221 2.19873 205.103 1.91281 204.892 1.70201C204.681 1.4912 204.395 1.37278 204.097 1.37278H204.132Z" fill="#241D4A" stroke="#241D4A" stroke-width="1.4173" stroke-miterlimit="22.9256"/>
</svg>
