<svg width="16" height="16" viewBox="0 0 16 16" fill="none" xmlns="http://www.w3.org/2000/svg">
<path fill-rule="evenodd" clip-rule="evenodd" d="M5.20996 10.9399V10.6099C5.23869 10.1148 5.40576 9.63779 5.69214 9.23297C5.97852 8.82815 6.37284 8.51179 6.83008 8.31989C6.99141 8.25112 7.1588 8.19752 7.33008 8.15985C7.88534 8.03284 8.46649 8.08539 8.98999 8.30988C9.45244 8.49956 9.8519 8.81617 10.1421 9.22314C10.4323 9.63012 10.6013 10.1108 10.6299 10.6099V10.9399C10.5908 11.6196 10.2899 12.2576 9.79004 12.7198C9.40146 13.0793 8.91776 13.3195 8.39648 13.4117C7.87521 13.5039 7.33841 13.4443 6.8501 13.2399C6.38765 13.0502 5.98819 12.7336 5.698 12.3266C5.40781 11.9196 5.23859 11.4389 5.20996 10.9399ZM3.3999 7.59985V2.41986C3.38446 2.3004 3.3945 2.17908 3.42896 2.06366C3.46341 1.94824 3.5217 1.84132 3.6001 1.74988C3.67236 1.66509 3.76095 1.59572 3.8606 1.5459C3.96024 1.49608 4.06874 1.46684 4.17993 1.4599H11.6499C11.8695 1.47398 12.0746 1.57466 12.22 1.73987C12.3017 1.82778 12.3637 1.93217 12.4016 2.04602C12.4396 2.15987 12.4525 2.28056 12.4399 2.3999V3.8999H13.53C13.53 3.0599 13.53 2.22989 13.53 2.06989C13.4578 1.60828 13.2262 1.18651 12.8755 0.877808C12.5248 0.569106 12.0771 0.392954 11.6101 0.379883H4.26001C4.01261 0.38327 3.76821 0.434219 3.54004 0.529907C3.33437 0.607072 3.147 0.726251 2.98999 0.879883C2.09999 1.61988 2.34009 2.74988 2.34009 3.87988C2.34009 5.30988 2.34009 6.9999 2.34009 8.3999C2.34009 8.6199 2.27994 8.5599 1.93994 8.8999L1.48999 9.34985L0.22998 10.7999C0.260244 10.8824 0.308138 10.9575 0.370117 11.0199L0.540039 11.2399C0.660039 11.3999 0.779902 11.5099 0.899902 11.6699L1.27002 12.0799C1.90194 12.7586 2.59492 13.3779 3.34009 13.9299C4.61419 15.0385 6.24614 15.6492 7.93506 15.6492C9.62398 15.6492 11.2559 15.0385 12.53 13.9299L13.8 12.9299C14.4729 12.2923 15.0916 11.5999 15.6499 10.8599C15.0656 10.1047 14.4238 9.3959 13.73 8.73987C13.0383 8.13505 12.2993 7.58661 11.52 7.09985L11.28 6.96985L11.03 6.8299L10.49 6.5899C9.50677 6.15684 8.43077 5.9766 7.36011 6.06567C6.28944 6.15475 5.25824 6.51027 4.36011 7.09985C4.00011 7.19985 3.6399 7.46985 3.3999 7.59985Z" fill="#1C2A40"/>
<path fill-rule="evenodd" clip-rule="evenodd" d="M6.22998 10.7599C6.23576 11.0899 6.3381 11.4108 6.52417 11.6833C6.71024 11.9558 6.97192 12.1679 7.2771 12.2934C7.58228 12.4189 7.91752 12.4523 8.24146 12.3895C8.56539 12.3266 8.86393 12.1704 9.1001 11.9399C9.33437 11.7099 9.49409 11.4149 9.55884 11.0931C9.62359 10.7712 9.59024 10.4374 9.46313 10.1347C9.33603 9.832 9.12107 9.57438 8.84595 9.39525C8.57083 9.21613 8.24816 9.12371 7.91992 9.12993C7.48122 9.13132 7.0595 9.29929 6.73999 9.5999C6.42598 9.90579 6.2431 10.3218 6.22998 10.7599Z" fill="#1C2A40"/>
</svg>
