<svg width="22" height="23" viewBox="0 0 22 23" fill="none" xmlns="http://www.w3.org/2000/svg">
<path fill-rule="evenodd" clip-rule="evenodd" d="M21.1495 14.8692C20.7726 16.0185 20.1198 17.058 19.2481 17.8966C18.3765 18.7351 17.3125 19.3472 16.1495 19.6793C14.4258 20.0102 12.6752 20.1776 10.92 20.1793C10.4067 20.1793 9.8933 20.1793 9.37996 20.1793L7.00985 22.6392C6.88014 22.7751 6.712 22.8694 6.5284 22.9092C6.3448 22.9491 6.15393 22.9328 5.97957 22.8629C5.80522 22.7929 5.65602 22.6723 5.55086 22.5167C5.4457 22.361 5.38953 22.1772 5.38973 21.9893V19.6495C4.28871 19.2806 3.28816 18.6598 2.46883 17.837C1.6495 17.0142 1.03422 16.0118 0.670002 14.9092C0.0299212 12.0075 0.0299212 9.00098 0.670002 6.09919C1.04686 4.94987 1.6997 3.91039 2.57137 3.07184C3.44304 2.2333 4.50695 1.6212 5.67 1.28913C9.12193 0.627582 12.6673 0.627582 16.1192 1.28913C17.2823 1.6212 18.3462 2.2333 19.2179 3.07184C20.0895 3.91039 20.7424 4.94987 21.1192 6.09919C21.7593 9.00098 21.7593 12.0075 21.1192 14.9092L21.1495 14.8692ZM15.7491 3.09919C12.5415 2.48608 9.24677 2.48608 6.03914 3.09919C5.23355 3.35914 4.49821 3.79842 3.8868 4.38386C3.27539 4.96929 2.80452 5.68601 2.50985 6.47956C1.92798 9.11448 1.92798 11.8446 2.50985 14.4796C2.80452 15.2731 3.27539 15.9893 3.8868 16.5748C4.49821 17.1602 5.23355 17.5995 6.03914 17.8594C6.07005 17.8643 6.09902 17.88 6.11922 17.9039C6.13943 17.9278 6.14987 17.958 6.14949 17.9893V21.8594C6.15153 21.9014 6.16524 21.9419 6.18953 21.9761C6.21382 22.0104 6.24731 22.0365 6.28621 22.0523C6.32511 22.0681 6.36799 22.0727 6.40926 22.065C6.45053 22.0574 6.48895 22.038 6.51961 22.0093L8.35946 20.1192L10.0899 18.3492C10.1058 18.3426 10.1226 18.3394 10.1397 18.3394C10.1569 18.3394 10.1737 18.3426 10.1895 18.3492C12.0537 18.4 13.9174 18.2494 15.7491 17.8995C16.5547 17.6395 17.291 17.2002 17.9024 16.6148C18.5138 16.0294 18.9847 15.3131 19.2794 14.5196C19.8616 11.8847 19.8616 9.15449 19.2794 6.5196C18.9854 5.72567 18.5149 5.00844 17.9034 4.42292C17.2919 3.8374 16.555 3.39852 15.7491 3.13923V3.09919ZM15.7491 14.6392C15.8219 14.491 15.8411 14.3223 15.8028 14.1617C15.7645 14.0011 15.671 13.8587 15.5391 13.7593C15.2511 13.5173 14.9513 13.2901 14.6397 13.0792C14.3297 12.8592 14.0097 12.6293 13.6397 12.4293C13.4951 12.3221 13.3198 12.2642 13.1397 12.2642C12.9597 12.2642 12.7844 12.3221 12.6397 12.4293C12.3297 12.6793 12.1891 13.1693 11.7491 13.2193C11.4975 13.2232 11.2495 13.161 11.0294 13.0391C10.3609 12.7551 9.76247 12.3289 9.27547 11.7901C8.78847 11.2513 8.4243 10.6132 8.20906 9.9195C8.16748 9.83379 8.14656 9.73986 8.14656 9.6446C8.14656 9.54933 8.16748 9.45492 8.20906 9.36921C8.26879 9.28059 8.34389 9.20283 8.42977 9.13923C8.52977 9.05923 8.61981 8.97925 8.71981 8.90925C8.90802 8.77756 9.03856 8.57903 9.08504 8.35407C9.13152 8.12911 9.09042 7.89478 8.96981 7.69929C8.5857 7.02783 8.13271 6.39794 7.61922 5.8194C7.52154 5.68832 7.38164 5.59555 7.22274 5.5572C7.06383 5.51884 6.89582 5.53735 6.7491 5.60944C6.33622 5.80061 5.96913 6.07666 5.67 6.4195C5.4831 6.59084 5.34573 6.80975 5.27352 7.0528C5.20131 7.29585 5.19682 7.55379 5.25985 7.79938C5.47985 8.33938 5.69906 8.88925 5.95906 9.40925C6.48384 10.5214 7.15661 11.5575 7.95906 12.4893C9.42071 14.0488 11.2208 15.2529 13.2198 16.0093C13.4199 16.0828 13.6228 16.1461 13.8292 16.1993C14.0178 16.1567 14.2027 16.0968 14.38 16.0196C14.9484 15.7011 15.397 15.206 15.6593 14.6094L15.7491 14.6392ZM13.1895 10.0093C13.2436 10.0019 13.2936 9.9777 13.3331 9.94001C13.3726 9.90232 13.3993 9.85305 13.4093 9.79938C13.4222 9.71655 13.4222 9.63221 13.4093 9.54938C13.408 9.31176 13.3597 9.07664 13.2667 8.85798C13.1736 8.63932 13.0376 8.44163 12.8673 8.27595C12.6969 8.11026 12.4956 7.98008 12.2745 7.89313C12.0533 7.80619 11.8168 7.76428 11.5792 7.7696C11.503 7.76327 11.4272 7.78498 11.3663 7.83112C11.3054 7.87726 11.2636 7.94458 11.2491 8.0196C11.2374 8.09631 11.2561 8.17446 11.3009 8.23786C11.3456 8.30126 11.4131 8.34481 11.4893 8.35944C11.6493 8.35944 11.8198 8.35927 11.9698 8.42927C12.0955 8.46508 12.2136 8.52253 12.3194 8.59919C12.5393 8.7673 12.6915 9.00866 12.7491 9.27936C12.778 9.41458 12.7986 9.55169 12.8097 9.68952C12.8109 9.73155 12.8207 9.77277 12.838 9.8111C12.8553 9.84943 12.8796 9.88387 12.9102 9.91266C12.9409 9.94145 12.9773 9.96421 13.0167 9.97907C13.056 9.99393 13.0977 10.0009 13.1397 9.99958C13.1397 9.99958 13.0397 9.99958 13.1397 9.99958L13.1895 10.0093ZM12.5597 7.29938C13.0744 7.55728 13.5016 7.96078 13.7891 8.45954C14.0592 8.94182 14.1976 9.48643 14.1895 10.0391C14.1757 10.1219 14.1757 10.2064 14.1895 10.2891C14.2061 10.3507 14.2424 10.4051 14.293 10.4439C14.3437 10.4827 14.406 10.504 14.4698 10.504C14.5336 10.504 14.595 10.4827 14.6456 10.4439C14.6962 10.4051 14.7325 10.3507 14.7491 10.2891C14.7539 10.2292 14.7539 10.1693 14.7491 10.1094C14.7491 9.92944 14.7491 9.79925 14.7491 9.65925C14.7491 9.51925 14.7491 9.54958 14.7491 9.49958C14.6825 8.93461 14.4768 8.39474 14.1505 7.92878C13.8241 7.46281 13.3881 7.08489 12.88 6.82917C12.3519 6.56085 11.7717 6.41076 11.1798 6.38923C11.1406 6.385 11.1011 6.38927 11.0636 6.40143C11.026 6.4136 10.9913 6.43359 10.962 6.46003C10.9327 6.48646 10.9095 6.51867 10.8936 6.55475C10.8777 6.59084 10.869 6.63006 10.8692 6.6695C10.8636 6.70865 10.8662 6.74865 10.877 6.78669C10.8879 6.82472 10.9072 6.85997 10.9327 6.8902C10.9582 6.92044 10.9898 6.94486 11.0255 6.96198C11.0611 6.9791 11.1002 6.98832 11.1397 6.98932L11.5899 7.04938C11.9362 7.09955 12.2732 7.20045 12.5899 7.34919L12.5597 7.29938ZM15.8897 11.0196C15.9343 11.0176 15.978 11.0059 16.0177 10.9854C16.0573 10.965 16.0917 10.9361 16.1192 10.9009C16.1468 10.8658 16.1665 10.8252 16.1768 10.7818C16.1872 10.7384 16.1885 10.6933 16.1798 10.6495C16.1798 10.2095 16.1191 9.7594 16.0391 9.3194C15.8235 8.10084 15.1871 6.99666 14.2403 6.19977C13.2936 5.40288 12.0969 4.96405 10.8595 4.95954C11.0095 4.95954 13.3495 5.02954 10.8595 4.95954H10.7091C10.6643 4.96059 10.6206 4.97067 10.5802 4.98981C10.5397 5.00895 10.5039 5.03645 10.4747 5.07038C10.4455 5.10431 10.4232 5.1442 10.4102 5.18708C10.3973 5.22995 10.3939 5.27498 10.3995 5.3194C10.3995 5.5494 10.6792 5.55917 10.8692 5.57917C11.0592 5.59917 11.4591 5.57927 11.7491 5.67927C12.6988 5.85617 13.5699 6.32503 14.2403 7.02057C14.9108 7.71612 15.3474 8.60356 15.4893 9.55915C15.5393 9.92915 15.5599 10.2995 15.5899 10.6695C15.6299 10.8495 15.6898 11.0296 15.9298 11.0196H15.8897Z" fill="#FEFEFE"/>
</svg>
