<svg width="24" height="23" viewBox="0 0 24 23" fill="none" xmlns="http://www.w3.org/2000/svg">
<path fill-rule="evenodd" clip-rule="evenodd" d="M12.0898 21.93C10.2425 21.9357 8.42429 21.4675 6.80957 20.5701L0.80957 22.49L2.80957 16.7001C1.54915 14.6404 1.00722 12.2211 1.26807 9.82048C1.52891 7.41989 2.57808 5.17341 4.25146 3.43254C5.92485 1.69167 8.1282 0.554586 10.5166 0.199084C12.905 -0.156419 15.3438 0.289769 17.4517 1.46782C19.5595 2.64587 21.2173 4.48933 22.166 6.70989C23.1147 8.93044 23.3008 11.4028 22.6948 13.7403C22.0889 16.0777 20.7249 18.1484 18.8169 19.6285C16.9089 21.1085 14.5646 21.9144 12.1499 21.92L12.0898 21.93ZM17.4497 14.87C17.615 14.4889 17.6534 14.0647 17.5596 13.66C17.4996 13.55 17.3098 13.49 17.0498 13.35C16.7898 13.21 15.4697 12.56 15.2197 12.48C14.9697 12.4 14.7999 12.37 14.6299 12.62C14.373 12.975 14.0887 13.3093 13.7798 13.62C13.6398 13.79 13.4697 13.82 13.2197 13.68C12.4354 13.3567 11.7093 12.9075 11.0698 12.35C10.4908 11.8056 9.98639 11.1869 9.56982 10.5101C9.39982 10.2601 9.56969 10.12 9.67969 9.97002C9.78969 9.82002 9.92959 9.66007 10.0796 9.52007C10.1736 9.37623 10.2571 9.22583 10.3296 9.07006C10.364 9.00004 10.3818 8.92303 10.3818 8.84502C10.3818 8.767 10.364 8.69005 10.3296 8.62004L9.50977 6.62004C9.27977 6.08004 9.08992 6.17003 8.91992 6.17003H8.40967C8.13839 6.18902 7.88457 6.31062 7.69971 6.51006C7.39685 6.7893 7.15698 7.13002 6.99658 7.50945C6.83619 7.88888 6.7588 8.29827 6.76953 8.71007C6.85202 9.71331 7.23551 10.6683 7.86963 11.4501C8.98741 13.1858 10.5714 14.572 12.4399 15.4501C15.1799 16.4501 15.1797 16.16 15.6597 16.1C16.0322 16.0234 16.385 15.8712 16.6963 15.6528C17.0076 15.4343 17.2709 15.1543 17.4697 14.8301L17.4497 14.87ZM12.0898 2.00005C10.8918 1.99478 9.7043 2.22589 8.5957 2.6801C7.48711 3.13431 6.47931 3.80273 5.62939 4.64708C4.77947 5.49143 4.10407 6.49511 3.64258 7.6007C3.18108 8.70627 2.94256 9.89204 2.93994 11.0901C2.93838 13.0112 3.55162 14.8824 4.68994 16.43L3.52979 19.8201L7.05957 18.6901C8.43958 19.5913 10.0365 20.1053 11.6831 20.1783C13.3297 20.2512 14.9656 19.8805 16.4199 19.1048C17.8742 18.3291 19.0936 17.1769 19.9502 15.7688C20.8068 14.3606 21.2694 12.7482 21.2896 11.1C21.2684 8.67576 20.2895 6.35832 18.5659 4.65343C16.8423 2.94854 14.5142 1.99467 12.0898 2.00005Z" fill="#FEFEFE"/>
</svg>
