<svg width="51" height="60" viewBox="0 0 51 60" fill="none" xmlns="http://www.w3.org/2000/svg">
<path fill-rule="evenodd" clip-rule="evenodd" d="M34.9099 48.2426C34.7239 49.0552 31.738 54.3611 31.043 55.5653L28.5955 60C32.3058 60 35.5364 59.8531 39.2075 59.8531L47.2448 59.7161C48.2238 59.7161 48.7328 59.5693 49.8195 59.5693C49.8195 58.0029 50.0349 56.3876 50.1034 55.1247C50.1034 54.5667 50.1034 53.9598 50.1034 53.4018C50.1034 52.6969 50.2307 52.6871 50.26 51.9725C50.3384 49.2412 50.26 41.478 49.9859 39.3243C49.9272 38.7663 49.9859 38.1984 49.9859 37.6404C48.8993 27.8508 48.5468 17.0039 43.4562 8.46729C40.5193 3.57247 33.8526 -1.65522 28.0767 0.498507C25.8838 1.32084 25.3356 6.294 25.7663 7.8016C25.9817 8.55541 27.2446 9.02532 28.5466 9.8966C29.8486 10.7679 31.0919 11.6195 32.3841 12.6572C36.0944 15.6431 38.6006 23.651 39.3935 28.3207C40.5781 35.33 39.3152 43.4261 33.3435 47.5084C31.337 48.9419 29.0837 49.9938 26.6964 50.6117C24.386 51.1991 23.2896 51.1208 21.4198 50.1712C18.9136 48.8887 16.4368 45.9323 14.8998 43.6415C13.0193 40.7604 11.8299 37.4838 11.4245 34.0672C11.023 31.1312 11.1524 28.1469 11.8063 25.2566C12.0119 24.2776 12.2273 23.5042 12.4426 22.5937C13.2748 22.5252 14.009 22.1826 15.0173 22.163C18.1696 22.0749 20.0002 22.0358 20.7247 25.5013C21.6449 29.9556 19.2367 34.4001 19.3639 35.2909C19.4618 36.0741 19.7555 36.0252 20.6072 36.1916L22.1637 36.4951C23.1585 36.7737 24.1783 36.954 25.2083 37.0335C25.6195 36.4265 25.6391 36.8769 25.6391 35.8881C24.1835 35.2521 22.6315 34.8649 21.0477 34.7427C21.6249 33.1072 22.0541 31.4231 22.3302 29.7108C22.7022 26.3921 22.4868 21.9476 18.8842 20.8414C16.9263 20.2247 14.7432 20.6848 13.0104 20.8414C13.0104 20.2638 14.195 17.0528 14.4593 16.2696C15.4383 13.3327 16.9165 10.9147 19.8338 9.59313C21.2887 8.95942 22.7953 8.45171 24.337 8.07568C24.337 5.95133 24.3958 3.4746 25.1985 1.76141C25.316 1.52646 25.6586 1.02719 25.551 0.782444C25.4433 0.537703 24.8755 0.576843 24.4056 0.518105C23.9225 0.440544 23.4301 0.440544 22.9469 0.518105C20.3082 0.717797 17.8221 1.83271 15.9179 3.67034L14.4201 5.17799C13.3146 6.48501 12.3315 7.89082 11.4832 9.37772C4.327 21.791 5.34513 36.3678 2.1537 49.8089C1.9677 50.6019 0 58.786 0 59.4126C8.23309 59.4126 16.0061 59.5595 24.2391 59.5595C25.365 57.2099 24.8167 54.4395 24.8167 52.5305C28.1256 51.7571 29.3885 51.7865 32.7855 49.7502C33.5099 49.2803 34.1757 48.7321 34.9099 48.2426Z" fill="#1C2A40"/>
<path fill-rule="evenodd" clip-rule="evenodd" d="M25.0117 41.0769C23.2893 41.166 21.5623 41.0642 19.8623 40.7734C19.6372 40.7734 18.6778 40.5385 18.531 40.5385C17.6499 40.5385 17.2681 41.7818 18.531 42.1146C19.0153 42.2267 19.5056 42.3117 19.9994 42.3692C22.6566 42.7743 25.3599 42.7743 28.0171 42.3692C29.5051 42.1146 30.6212 42.1244 30.6212 41.0965C30.6212 40.7539 30.3862 40.6755 30.1904 40.3818C29.1821 40.3818 27.4591 41.0769 25.0117 41.0769Z" fill="#1C2A40"/>
<path fill-rule="evenodd" clip-rule="evenodd" d="M26.4238 22.1441C26.4302 22.3891 26.4799 22.6311 26.5707 22.8588C28.0979 23.221 28.9789 22.2812 32.7382 22.2812C34.2751 22.2812 36.1841 23.4168 36.1841 21.9973C36.1841 20.9302 33.3549 20.7051 32.1703 20.7051C31.3186 20.7149 26.4238 21.0673 26.4238 22.1441Z" fill="#1C2A40"/>
<path fill-rule="evenodd" clip-rule="evenodd" d="M29.6036 26.5881C29.5842 26.9308 29.7016 27.2672 29.9302 27.5233C30.1588 27.7794 30.4797 27.9342 30.8225 27.9537C31.1652 27.9732 31.5016 27.8557 31.7577 27.6272C32.0138 27.3986 32.1687 27.0776 32.1881 26.7349C32.1978 26.5652 32.1739 26.3953 32.1179 26.2348C32.0618 26.0744 31.9747 25.9265 31.8616 25.7997C31.7484 25.6728 31.6113 25.5696 31.4582 25.4957C31.3051 25.4219 31.139 25.3789 30.9693 25.3693C30.7996 25.3596 30.6297 25.3835 30.4692 25.4395C30.3087 25.4956 30.1609 25.5826 30.0341 25.6958C29.9073 25.809 29.804 25.946 29.7301 26.0991C29.6563 26.2522 29.6133 26.4184 29.6036 26.5881Z" fill="#1C2A40"/>
<path fill-rule="evenodd" clip-rule="evenodd" d="M14.9805 26.451C14.9805 28.8299 17.4181 28.1838 17.4181 26.8818C17.4428 26.5734 17.3517 26.2669 17.1626 26.0221C16.9734 25.7773 16.6998 25.6119 16.3951 25.558C16.0905 25.5042 15.7767 25.5659 15.5152 25.731C15.2536 25.8961 15.0629 26.1529 14.9805 26.451Z" fill="#1C2A40"/>
</svg>
