<svg width="45" height="60" viewBox="0 0 45 60" fill="none" xmlns="http://www.w3.org/2000/svg">
<path fill-rule="evenodd" clip-rule="evenodd" d="M31.3862 31.2514C31.3556 30.5784 31.4617 29.9061 31.6982 29.2752C31.9347 28.6443 32.2966 28.0678 32.762 27.5807C33.2275 27.0935 33.7869 26.7058 34.4064 26.4409C35.0259 26.176 35.6927 26.0394 36.3665 26.0394C37.0402 26.0394 37.707 26.176 38.3265 26.4409C38.946 26.7058 39.5054 27.0935 39.9709 27.5807C40.4363 28.0678 40.7982 28.6443 41.0347 29.2752C41.2712 29.9061 41.3773 30.5784 41.3467 31.2514C41.3467 33.9913 39.2351 36.0823 36.0626 36.0823C34.8209 36.0057 33.6527 35.4676 32.7875 34.5738C31.9222 33.6799 31.4224 32.4949 31.3862 31.2514ZM15.2455 31.0969C15.2654 30.1311 15.5638 29.1917 16.1047 28.3914C16.6457 27.591 17.4062 26.9639 18.2949 26.5854C19.1837 26.2068 20.1628 26.0929 21.1147 26.2573C22.0665 26.4218 22.9507 26.8576 23.6609 27.5124C26.8128 30.4377 24.8557 36.0823 20.5708 36.0823C19.846 36.1493 19.1156 36.0443 18.4391 35.7758C17.7625 35.5074 17.1588 35.083 16.6772 34.5373C15.8023 33.6031 15.3066 32.3766 15.2867 31.0969H15.2455ZM0.0111898 20.9922C-0.0584302 24.1756 0.196959 27.3577 0.773409 30.4892C1.16482 32.3123 0.773432 31.6531 0.47472 33.2291C0.0833052 35.2892 1.21634 37.0608 1.84466 38.9252C2.9468 42.2213 3.06011 43.7046 7.25237 44.6831C7.37099 47.3319 7.30216 49.9857 7.04638 52.6248C6.94338 53.3252 6.50046 54.4582 6.50046 54.9526C6.50046 55.9208 7.9116 56.7243 8.47812 53.9226C9.03677 50.625 9.13383 47.2658 8.76653 43.9415C8.55022 42.314 6.13992 43.8076 4.37855 41.2325L1.97857 34.2694C1.97857 32.0549 3.52362 31.2617 5.19229 33.0231C5.70731 33.5587 5.83093 34.0531 6.65496 34.2694C7.30388 33.9295 7.40688 33.9192 7.41718 32.9201C7.42748 31.921 7.5614 31.684 7.5614 30.9527C9.62148 30.9527 11.6816 30.2008 13.7416 30.2008C13.7416 31.9621 13.6386 33.7544 15.2043 35.351C15.8426 36.0921 16.6329 36.6873 17.5215 37.0961C18.4102 37.5049 19.3763 37.7177 20.3545 37.7201C22.0715 37.7075 23.7146 37.0192 24.9279 35.8042C28.2652 32.3227 25.9579 29.624 27.1527 29.624L29.872 29.7784C29.8493 30.2374 29.8012 30.6948 29.7278 31.1484C29.6557 32.4359 30.6343 39.1415 30.6343 41.0986C28.9965 41.0986 27.5442 40.7999 25.8034 40.7999C25.6901 40.9647 25.3502 41.3046 25.3502 41.4076C25.3502 42.7879 26.7716 42.4377 27.9562 42.5716C33.3742 43.2926 32.3957 42.5716 32.1484 39.7286C32.0454 38.5029 31.8291 37.1638 31.8291 35.969C33.5184 37.102 34.0849 37.7819 36.5055 37.7819C39.9664 37.7819 41.0892 35.4849 41.9338 34.9184C42.3767 35.8454 42.2325 37.8437 42.2325 39.0385C42.1307 43.3245 40.9053 47.5086 38.6789 51.1724C37.8961 52.3672 36.9793 53.387 36.1141 54.4891C35.2831 55.6105 34.274 56.5883 33.127 57.3835C31.2729 58.6196 28.7905 58.3415 26.545 58.3415C23.0532 58.3415 20.5914 56.9509 18.0472 55.0659C16.7315 53.9748 15.4764 52.8125 14.2876 51.5844C13.9373 51.2651 13.8034 51.2239 13.4532 50.9045C13.103 50.5852 13 50.4101 12.7013 50.1423C11.7949 49.3183 10.3425 50.1423 11.9391 51.6668L14.5039 54.0771L15.3279 54.9114C17.0213 56.5684 18.9907 57.9174 21.1476 58.8977C23.5579 60.041 27.2145 59.9998 30.0059 59.9998C33.8686 59.9998 35.9287 57.3217 37.9579 54.8496C38.661 54.0336 39.3112 53.1735 39.9046 52.2745C41.0893 50.409 42.0178 48.3926 42.6651 46.2797C43.8461 42.3979 44.1383 38.3001 43.5201 34.29C43.2022 33.0851 43.0225 31.848 42.9845 30.6025C43.8188 30.7982 44.3441 30.6025 44.3441 29.6961C44.3441 28.7896 43.0566 29.284 42.5312 28.7896C42.346 28.5098 42.1874 28.2132 42.0574 27.9038C41.8717 27.5949 41.6652 27.2989 41.4394 27.0179C40.4471 25.888 39.1091 25.1179 37.6337 24.8273C36.1582 24.5367 34.6282 24.7419 33.2815 25.4111C32.0547 26.0593 31.0688 27.0849 30.4695 28.3364C28.5742 27.8935 27.8738 28.1819 26.0918 28.1819C23.9287 24.0617 18.0266 23.4746 15.3485 26.8017C15.0964 27.107 14.8625 27.4268 14.648 27.7596C13.9579 28.872 13.9373 28.5321 12.3305 28.7896L10.8781 28.9956C10.0747 29.1089 8.65324 29.4076 7.78801 29.4179C8.38543 28.1716 9.03434 22.9184 9.41546 21.3939C9.92992 18.9992 10.9871 16.7545 12.5056 14.8326C17.3365 8.90987 21.6111 8.60081 29.2025 8.60081C33.5596 8.60081 37.1235 11.7527 39.1939 15.0592C41.0131 17.8626 42.0448 21.1037 42.181 24.4428C42.181 25.3081 41.7484 27.7595 42.933 27.9141C44.3956 28.0995 46.0231 20.9098 43.1905 15.2858L41.1922 11.8558C39.9046 10.0326 40.9141 10.4549 40.4918 7.42661C40.2481 5.8613 39.566 4.39701 38.5244 3.20341C37.9353 2.66823 37.2301 2.27689 36.4643 2.06008C31.4583 0.0721028 27.8017 0 22.2395 0C19.1382 0.0219995 16.0705 0.644658 13.206 1.8335C11.3847 2.59971 9.72732 3.70812 8.32362 5.09871L6.88157 6.37595C6.35625 6.90127 6.12962 7.2927 5.6043 7.80772C5.15628 8.27099 4.74316 8.76676 4.36827 9.29098C1.81377 12.6695 0.000879341 15.9038 0.000879341 20.9922H0.0111898Z" fill="#1C2A40"/>
<path fill-rule="evenodd" clip-rule="evenodd" d="M30.1824 46.4872C28.0051 46.566 25.8249 46.473 23.6622 46.2091L20.7678 45.7971C20.2734 45.7971 19.8717 45.9619 19.8202 46.5181C19.804 46.6823 19.8401 46.8474 19.9233 46.9898C20.0066 47.1322 20.1327 47.2448 20.2837 47.3113C21.6433 48.0117 28.215 48.1353 30.1721 48.1353C31.3962 48.1152 32.6149 47.9667 33.8081 47.6924C38.4536 46.7653 36.0742 45.416 36.0536 45.416L33.3034 46.137C32.2785 46.3647 31.2322 46.4821 30.1824 46.4872Z" fill="#1C2A40"/>
<path fill-rule="evenodd" clip-rule="evenodd" d="M12.3718 24.9164C12.3718 25.6374 12.1864 25.3079 12.8044 25.8435L12.8868 25.9053L12.9692 25.9671C13.9993 25.7302 16.0593 23.8554 18.8507 23.8554C20.0008 23.7773 21.1561 23.8396 22.2911 24.0409C23.8155 24.4117 22.8267 24.6177 24.1348 24.3087C24.2303 24.0691 24.2826 23.8146 24.2893 23.5568C24.2893 22.0529 19.6851 22.1971 18.552 22.1971C17.1203 22.1971 12.3718 23.9482 12.3718 24.9164Z" fill="#1C2A40"/>
<path fill-rule="evenodd" clip-rule="evenodd" d="M31.8516 23.5573C31.8516 26.3487 35.0447 21.9298 39.752 24.5873C40.1415 24.8647 40.5512 25.1127 40.9777 25.329C42.0077 25.5556 42.8627 23.959 39.7932 22.7333C36.1056 21.2397 31.8516 22.6611 31.8516 23.5573Z" fill="#1C2A40"/>
<path fill-rule="evenodd" clip-rule="evenodd" d="M3.47266 34.4449C3.5335 35.1154 3.78352 35.7547 4.19367 36.2886C5.84173 38.9873 5.49154 40.9341 6.78939 40.9341C8.75676 40.9341 5.65632 35.5367 5.08979 34.4861C4.52327 33.4354 3.47266 33.9196 3.47266 34.4449Z" fill="#1C2A40"/>
<path fill-rule="evenodd" clip-rule="evenodd" d="M36.5161 32.004C39.1942 32.004 37.4329 27.8838 35.6303 29.7585C35.4454 29.9384 35.3178 30.169 35.2636 30.4213C35.2094 30.6735 35.231 30.9361 35.3257 31.1761C35.4203 31.4161 35.5839 31.6228 35.7957 31.7701C36.0075 31.9174 36.2582 31.9988 36.5161 32.004Z" fill="#1C2A40"/>
<path fill-rule="evenodd" clip-rule="evenodd" d="M19.1614 30.7985C19.1454 30.9765 19.1667 31.156 19.2239 31.3254C19.2811 31.4948 19.3729 31.6504 19.4936 31.7823C19.6142 31.9143 19.761 32.0197 19.9246 32.0917C20.0882 32.1638 20.265 32.2011 20.4438 32.2011C20.6226 32.2011 20.7994 32.1638 20.963 32.0917C21.1266 32.0197 21.2734 31.9143 21.3941 31.7823C21.5147 31.6504 21.6065 31.4948 21.6637 31.3254C21.7209 31.156 21.7422 30.9765 21.7262 30.7985C21.6975 30.4782 21.5499 30.1803 21.3126 29.9633C21.0753 29.7463 20.7654 29.626 20.4438 29.626C20.1222 29.626 19.8123 29.7463 19.575 29.9633C19.3377 30.1803 19.1901 30.4782 19.1614 30.7985Z" fill="#1C2A40"/>
</svg>
