<svg width="46" height="60" viewBox="0 0 46 60" fill="none" xmlns="http://www.w3.org/2000/svg">
<path fill-rule="evenodd" clip-rule="evenodd" d="M1.90892 29.9617C1.95789 31.2026 2.20043 32.4282 2.62777 33.5943C3.58623 35.9809 3.12617 34.0639 3.1645 37.5527C3.1645 38.9138 3.72999 39.9009 3.0399 39.8913C2.3498 39.8818 2.15811 38.5974 2.08143 37.9744C1.74597 35.6837 1.82265 34.2077 1.6022 32.5591C1.44846 31.8905 1.44846 31.1958 1.6022 30.5272C1.65233 30.3259 1.75872 30.1431 1.90892 30V29.9617ZM9.76833 35.3003C8.06226 35.3003 6.18367 35.3003 4.8514 34.4569C4.8514 32.6741 5.57026 31.6869 5.55109 28.7061C5.55109 26.7891 5.28272 27.115 6.96004 26.885C9.41543 26.429 11.9423 26.5371 14.3498 27.2013C15.3083 27.4601 15.3083 27.5464 15.4712 28.6198C15.5659 30.5977 14.8771 32.5331 13.5543 34.0064C12.4914 34.8631 11.1621 35.3209 9.79708 35.3003H9.76833ZM3.73 31.7924C3.7875 31.1502 3.95045 30.7476 4.01754 29.9712C4.21882 27.4888 4.40092 27.3259 3.30827 27.5847L3.73 31.7924ZM20.1581 29.1278C20.1581 27.4121 20.5511 27.3451 22.075 26.9904C25.4201 26.2237 29.0718 26.8179 32.3594 27.5847L32.0814 30.5368C31.3626 34.6965 30.107 34.9745 26.9057 35.3291C24.9888 35.54 22.9472 35.0511 21.9313 33.9393C20.8311 32.5779 20.2022 30.8963 20.1389 29.147L20.1581 29.1278ZM2.60859 16.9169C2.60859 19.9745 2.09102 20.9904 6.81626 20.9904C14.321 20.9904 23.1964 15.6805 30.567 13.8594C31.1302 13.7508 31.6845 13.6003 32.2252 13.409C32.4169 15.6901 34.8897 21.2109 35.7907 23.7412C36.2555 24.8588 36.6587 26.0011 36.9984 27.1629C34.0175 27.0959 29.4265 24.1246 22.3146 25.3993C21.5601 25.5201 20.821 25.7226 20.1102 26.0032C17.3594 27.0863 17.9824 26.7892 15.1549 25.8499C13.6115 25.4423 12.0322 25.1855 10.4393 25.0831C9.31605 25.0724 8.19392 25.1558 7.08463 25.3323C6.53002 25.4243 5.96941 25.4756 5.40731 25.4856C5.40731 22.6102 5.23479 22.2172 3.86418 22.5335C3.72007 23.6581 3.76869 24.7991 4.00796 25.9074C3.36909 25.9466 2.75141 26.1514 2.21562 26.5016C1.65012 26.9808 1.76514 27.4601 1.76514 28.4185C-0.516012 28.9457 0.0590731 31.639 0.0782424 33.3355C0.0782424 33.9105 0.183676 34.8882 0.260353 35.5399C0.4808 37.2652 0.346619 39.7285 1.71723 40.9553C2.31147 41.492 2.67568 41.329 3.73 41.329C3.95044 43.984 5.94405 47.5878 6.97919 50.1565C7.33383 51.0287 7.66929 51.115 7.7939 52.2939L8.46482 57.7955C8.58942 58.754 8.30188 60 9.34661 60C10.7651 60 9.62457 55.7061 9.62457 54.3834C10.8322 55.1885 11.1773 55.7923 12.7683 56.4345C14.8259 57.139 16.9988 57.4448 19.1709 57.3354C23.7044 57.3354 27.1837 55.0064 30.0207 52.1789C31.9377 50.262 33.4616 49.2268 31.813 48.345C30.1932 49.2076 26.0143 55.7827 19.7364 55.7827C16.7747 55.7827 13.3817 55.8403 11.206 53.6454C8.62776 51.0288 6.89293 46.6006 5.75236 43.1022C5.01361 40.8553 4.66354 38.4988 4.71721 36.1342C6.20047 36.665 7.77272 36.9027 9.34661 36.8339C10.9182 36.8674 12.4702 36.4802 13.8418 35.7124C13.8418 37.4281 12.9984 39.0479 12.9984 40.7636C12.9984 41.8658 15.0111 41.3195 15.9409 41.3195H19.8706C20.1485 40.9074 20.2923 40.8211 20.2923 40.361C20.2923 39.2588 15.5575 39.9393 14.6757 39.9393C14.7766 39.0555 14.9303 38.1786 15.1357 37.3131C15.2891 36.3547 16.4968 28.0064 18.8929 31.5144C19.1468 31.9408 19.3525 32.3941 19.5063 32.8658C21.2316 37.0352 25.9568 37.5048 29.9249 36.3834C33.0399 35.5016 33.7587 31.2652 33.7587 28.1501C35.0239 28.1501 36.2891 28.8211 37.5926 28.8499C38.1102 31.0927 37.6789 32.8754 37.1421 35.0032C36.4808 37.6198 35.2252 39.7955 36.8929 39.7955C37.583 39.7955 37.8514 38.2716 37.9952 37.6678L38.9536 33.738C39.0686 33.1533 39.0207 32.8466 39.4328 32.5399C40.9281 31.4089 44.4648 30.5655 43.2667 34.8499C42.615 37.2364 41.6948 40.1885 39.96 41.9329C39.4616 42.4409 39.222 42.9393 38.4744 42.5176C36.3274 41.3099 36.3274 39.6422 35.3881 46.1981C34.8993 49.5719 34.2763 55.7827 35.5798 59.1469C35.8099 59.7316 35.9057 59.7029 36.5383 59.8562C37.746 58.8115 36.5383 58.2651 36.3945 55.6485L36.8162 47.5879C37.0754 46.3237 37.242 45.0424 37.3147 43.754C38.8578 43.8786 38.6948 44.9808 40.6118 43.5336C42.5287 42.0863 45.0399 36.0192 45.0399 33.6422C45.0399 32.262 44.9632 31.2556 43.6405 30.5559C44.6284 27.7539 45.1968 24.8213 45.3274 21.8531C45.4257 19.608 45.1603 17.3617 44.5415 15.2013C44.1429 13.978 43.5187 12.8402 42.7012 11.8467C41.8917 10.9282 41.1303 9.96848 40.4201 8.97128C39.4647 7.36152 38.2391 5.92837 36.7971 4.73482C33.4616 1.55272 27.7779 0 23.0047 0C15.9313 0 7.6693 3.09587 4.19965 9.13421C3.16451 10.8019 2.60859 14.1182 2.60859 16.9169Z" fill="#1C2A40"/>
<path fill-rule="evenodd" clip-rule="evenodd" d="M10.9474 44.2277C10.8592 44.4489 10.8109 44.684 10.8047 44.922C10.8047 46.13 16.4544 46.4533 18.0523 46.4533C19.8965 46.429 21.7329 46.209 23.5307 45.7971C24.3487 45.6354 24.4248 45.5307 24.6055 44.7793C24.6055 44.7793 24.5579 44.6747 24.5484 44.7032C24.5389 44.7318 24.2441 44.2277 24.0539 44.2277C21.8853 44.2277 20.1923 45.4642 14.2953 44.6557C12.6118 44.4274 11.8034 43.8948 10.9474 44.2277Z" fill="#1C2A40"/>
<path fill-rule="evenodd" clip-rule="evenodd" d="M38.8171 35.4492C38.8171 36.1054 39.3783 35.9247 39.3783 37.399C39.3783 37.903 38.8361 37.8936 38.6459 38.4928C38.2274 39.8339 40.9096 39.8814 40.9096 36.99C40.9096 35.8581 40.1106 35.6204 40.5957 34.8785C41.2139 33.9274 42.4409 34.7739 42.4409 33.5089C42.4409 32.7955 41.0332 32.32 39.7587 33.604C39.2438 34.0938 38.9116 34.7448 38.8171 35.4492Z" fill="#1C2A40"/>
<path fill-rule="evenodd" clip-rule="evenodd" d="M8.72468 29.7326C8.71531 29.8975 8.73851 30.0626 8.79295 30.2185C8.84739 30.3744 8.93201 30.5181 9.04196 30.6413C9.15192 30.7645 9.28508 30.8648 9.43382 30.9366C9.58255 31.0083 9.74397 31.0501 9.90884 31.0595C10.2418 31.0784 10.5687 30.9642 10.8175 30.7422C10.9407 30.6322 11.041 30.4991 11.1128 30.3504C11.1845 30.2016 11.2263 30.0402 11.2356 29.8753C11.234 29.6447 11.1658 29.4195 11.0393 29.2266C10.9128 29.0338 10.7334 28.8816 10.5225 28.7882C10.3117 28.6949 10.0784 28.6642 9.85056 28.7002C9.62276 28.7361 9.41018 28.837 9.2383 28.9908C9.01423 29.197 8.83879 29.4503 8.72468 29.7326Z" fill="#1C2A40"/>
<path fill-rule="evenodd" clip-rule="evenodd" d="M23.7711 30.0178C23.7547 30.3457 23.8692 30.6667 24.0895 30.9102C24.3098 31.1537 24.6178 31.2997 24.9457 31.3161C25.2736 31.3325 25.5947 31.2179 25.8381 30.9976C26.0816 30.7773 26.2276 30.4694 26.244 30.1414C26.3201 28.553 23.7711 28.4199 23.7711 30.0178Z" fill="#1C2A40"/>
</svg>
