<svg width="107" height="107" viewBox="0 0 107 107" fill="none" xmlns="http://www.w3.org/2000/svg">
<path fill-rule="evenodd" clip-rule="evenodd" d="M1.77051 27.0298L2.3905 14.0298L8.1405 10.7798L14.1405 10.5298L14.4505 17.5298L18.0205 19.0298L20.6405 14.9698V10.3398L32.6405 10.5298L33.6405 17.5298L36.8905 19.2798L40.1405 16.7798L40.0205 10.8999L53.4505 10.6499L54.2005 17.2798L57.6405 19.2198L60.3905 16.8999L60.6405 10.5898L73.0805 10.7798L73.2705 16.6499L76.7705 18.8398L79.2705 17.0298L79.7005 10.6499L86.5205 11.2198L90.7605 14.0898L92.5105 21.8398L91.8305 26.8398L84.7705 27.5298L1.77051 27.0298Z" fill="#AFC3D5"/>
<path fill-rule="evenodd" clip-rule="evenodd" d="M85.2705 103.529C90.141 103.519 94.8089 101.579 98.252 98.1338C101.695 94.6889 103.633 90.0199 103.641 85.1494C103.63 80.2806 101.691 75.6146 98.248 72.1719C94.8053 68.7291 90.1393 66.7899 85.2705 66.7793C80.4017 66.7899 75.7357 68.7291 72.293 72.1719C68.8502 75.6146 66.911 80.2806 66.9004 85.1494C66.9083 90.0199 68.846 94.6889 72.2891 98.1338C75.7321 101.579 80.4 103.519 85.2705 103.529Z" fill="#AFC3D5"/>
<path fill-rule="evenodd" clip-rule="evenodd" d="M67.7305 85.2002C67.7891 83.9024 67.9532 82.6111 68.2207 81.3398C68.9541 78.1671 70.5735 75.2676 72.8906 72.9795C75.355 70.4764 78.5293 68.7919 81.9834 68.1533C85.4375 67.5147 89.0038 67.9536 92.2002 69.4102C107.48 76.5402 104.921 98.2601 88.9609 102.08C85.2735 102.953 81.3997 102.562 77.9609 100.97C74.1095 99.2181 71.0221 96.1307 69.2705 92.2793C68.799 91.2378 68.431 90.1533 68.1709 89.04C67.9034 87.7688 67.7393 86.4775 67.6807 85.1797L67.7305 85.2002ZM71.2002 57.3994H78.1504V64.3496H71.2002V57.3994ZM67.7305 55.6602C67.7142 55.4275 67.7484 55.1931 67.8301 54.9746C67.9118 54.7561 68.0392 54.5585 68.2041 54.3936C68.369 54.2286 68.5676 54.1002 68.7861 54.0186C69.0046 53.9369 69.238 53.9036 69.4707 53.9199H79.8906C80.1233 53.9036 80.3567 53.9369 80.5752 54.0186C80.7937 54.1002 80.9923 54.2286 81.1572 54.3936C81.3222 54.5585 81.4496 54.7561 81.5312 54.9746C81.6129 55.1931 81.6472 55.4275 81.6309 55.6602V64.5596C82.6309 64.5596 82.4909 64.3398 83.6309 64.3398C85.4209 64.3398 88.8904 64.2893 90.3604 64.9893V29.5898H3.49023V86.4893C3.4395 87.5862 3.72685 88.6723 4.31348 89.6006C4.90011 90.5288 5.75799 91.2547 6.77051 91.6797C8.77051 92.4397 12.1205 92.1396 14.7705 92.1396H65.3701C64.7573 90.2411 64.3911 88.2713 64.2803 86.2793C64.2803 80.4993 65.2803 76.81 68.5303 72.5C69.9732 70.7625 71.6069 69.192 73.4004 67.8193C66.5604 67.8193 67.75 69.4502 67.75 55.6602H67.7305ZM3.4502 17.8701C3.4502 11.8701 8.76062 12.2197 12.1406 12.2197V16.1299C12.1406 18.7899 14.42 20.9102 17.79 20.9102C19.03 20.826 20.1983 20.2948 21.0771 19.416C21.956 18.5372 22.4861 17.3699 22.5703 16.1299V12.2197H31.2607V16.1299C31.2607 18.7899 33.5402 20.9102 36.9102 20.9102C38.1502 20.826 39.3184 20.2948 40.1973 19.416C41.0761 18.5372 41.6062 17.3699 41.6904 16.1299V12.2197H52.1104V16.1299C52.1104 18.7899 54.3907 20.9102 57.7607 20.9102C59.0007 20.826 60.168 20.2948 61.0469 19.416C61.9257 18.5372 62.4558 17.3699 62.54 16.1299V12.2197H71.2305V16.1299C71.2305 18.7899 73.5109 20.9102 76.8809 20.9102C78.1209 20.826 79.2882 20.2948 80.167 19.416C81.0458 18.5372 81.576 17.3699 81.6602 16.1299V12.2197C84.9602 12.2197 90.3506 11.8801 90.3506 17.8701V26.1201H3.48047V17.8701H3.4502ZM74.6807 15.4795C74.6625 15.7184 74.6935 15.9583 74.7725 16.1846C74.8514 16.4108 74.9768 16.6182 75.1396 16.7939C75.3025 16.9697 75.5001 17.1102 75.7197 17.2061C75.9393 17.3019 76.1754 17.3516 76.415 17.3516C76.6546 17.3516 76.8917 17.3019 77.1113 17.2061C77.3309 17.1102 77.5285 16.9697 77.6914 16.7939C77.8543 16.6182 77.9796 16.4108 78.0586 16.1846C78.1376 15.9583 78.1685 15.7184 78.1504 15.4795V5.47949C78.1685 5.24057 78.1376 5.00064 78.0586 4.77441C77.9796 4.54819 77.8543 4.34077 77.6914 4.16504C77.5285 3.98931 77.3309 3.8488 77.1113 3.75293C76.8917 3.65706 76.6546 3.6084 76.415 3.6084C76.1754 3.6084 75.9393 3.65706 75.7197 3.75293C75.5001 3.8488 75.3025 3.98931 75.1396 4.16504C74.9768 4.34077 74.8514 4.54819 74.7725 4.77441C74.6935 5.00064 74.6625 5.24057 74.6807 5.47949V15.4795ZM55.5703 15.4795C55.5522 15.7184 55.5841 15.9583 55.6631 16.1846C55.7421 16.4108 55.8664 16.6182 56.0293 16.7939C56.1922 16.9697 56.3898 17.1102 56.6094 17.2061C56.829 17.3019 57.0661 17.3516 57.3057 17.3516C57.5453 17.3516 57.7824 17.3019 58.002 17.2061C58.2215 17.1102 58.4191 16.9697 58.582 16.7939C58.7449 16.6182 58.8693 16.4108 58.9482 16.1846C59.0272 15.9583 59.0582 15.7184 59.04 15.4795V5.47949C59.0582 5.24057 59.0272 5.00064 58.9482 4.77441C58.8693 4.54819 58.7449 4.34077 58.582 4.16504C58.4191 3.98931 58.2215 3.8488 58.002 3.75293C57.7824 3.65706 57.5453 3.6084 57.3057 3.6084C57.0661 3.6084 56.829 3.65706 56.6094 3.75293C56.3898 3.8488 56.1922 3.98931 56.0293 4.16504C55.8664 4.34077 55.7421 4.54819 55.6631 4.77441C55.5841 5.00064 55.5522 5.24057 55.5703 5.47949V15.4795ZM34.7207 15.4795C34.7026 15.7184 34.7335 15.9583 34.8125 16.1846C34.8915 16.4108 35.0168 16.6182 35.1797 16.7939C35.3426 16.9697 35.5392 17.1102 35.7588 17.2061C35.9784 17.3019 36.2155 17.3516 36.4551 17.3516C36.6947 17.3516 36.9318 17.3019 37.1514 17.2061C37.371 17.1102 37.5686 16.9697 37.7314 16.7939C37.8943 16.6182 38.0197 16.4108 38.0986 16.1846C38.1776 15.9583 38.2086 15.7184 38.1904 15.4795V5.47949C38.2086 5.24057 38.1776 5.00064 38.0986 4.77441C38.0197 4.54819 37.8943 4.34077 37.7314 4.16504C37.5686 3.98931 37.371 3.8488 37.1514 3.75293C36.9318 3.65706 36.6947 3.6084 36.4551 3.6084C36.2155 3.6084 35.9784 3.65706 35.7588 3.75293C35.5392 3.8488 35.3426 3.98931 35.1797 4.16504C35.0168 4.34077 34.8915 4.54819 34.8125 4.77441C34.7335 5.00064 34.7026 5.24057 34.7207 5.47949V15.4795ZM15.6104 15.4795C15.5922 15.7184 15.6242 15.9583 15.7031 16.1846C15.7821 16.4108 15.9065 16.6182 16.0693 16.7939C16.2322 16.9697 16.4298 17.1102 16.6494 17.2061C16.869 17.3019 17.1061 17.3516 17.3457 17.3516C17.5853 17.3516 17.8224 17.3019 18.042 17.2061C18.2616 17.1102 18.4592 16.9697 18.6221 16.7939C18.785 16.6182 18.9093 16.4108 18.9883 16.1846C19.0672 15.9583 19.0982 15.7184 19.0801 15.4795V5.47949C19.0982 5.24057 19.0672 5.00064 18.9883 4.77441C18.9093 4.54819 18.785 4.34077 18.6221 4.16504C18.4592 3.98931 18.2616 3.8488 18.042 3.75293C17.8224 3.65706 17.5853 3.6084 17.3457 3.6084C17.1061 3.6084 16.869 3.65706 16.6494 3.75293C16.4298 3.8488 16.2322 3.98931 16.0693 4.16504C15.9065 4.34077 15.7821 4.54819 15.7031 4.77441C15.6242 5.00064 15.5922 5.24057 15.6104 5.47949V15.4795ZM12.1309 4.83984V8.75H8C4 8.75 0 12.75 0 16.75V87.5498C0.0592961 88.7434 0.376379 89.9099 0.928711 90.9697C1.48104 92.0295 2.25576 92.9572 3.2002 93.6895C5.2002 95.4995 6.96062 95.5898 10.6406 95.5898H67.1104C70.1104 101.27 77.3408 106.01 84.0508 106.01C89.2208 106.01 93.1309 105.169 97.2109 102.229L102.11 97.3594C104.38 94.1938 105.722 90.4577 105.985 86.5713C106.249 82.6848 105.423 78.8021 103.601 75.3594C101.861 72.0194 97.1103 67.0093 93.8203 66.2393V17.1494C93.8203 12.8094 90.0003 8.68945 85.8203 8.68945H81.6904V4.7793C81.6904 2.1193 79.41 0 76.04 0C74.8 0.0841934 73.6327 0.614331 72.7539 1.49316C71.8751 2.372 71.3449 3.53929 71.2607 4.7793V8.68945H62.5703V4.7793C62.5703 2.1193 60.2909 0 56.9209 0C55.6809 0.0841934 54.5126 0.614331 53.6338 1.49316C52.755 2.372 52.2248 3.53929 52.1406 4.7793V8.68945H41.7207V4.7793C41.7207 2.1193 39.4403 0 36.0703 0C34.8303 0.0841934 33.663 0.614331 32.7842 1.49316C31.9053 2.372 31.3742 3.53929 31.29 4.7793V8.68945H22.6006V4.7793C22.6006 2.1193 20.3202 0 16.9502 0C15.6883 0.071874 14.4973 0.606282 13.6045 1.50098C12.7116 2.39567 12.1796 3.58752 12.1104 4.84961L12.1309 4.83984Z" fill="#1C2A40"/>
<path fill-rule="evenodd" clip-rule="evenodd" d="M13.8409 76.5197H20.7901V83.4699H13.8409V76.5197ZM10.3604 74.7794V85.2003C10.3441 85.433 10.3783 85.6664 10.46 85.8849C10.5417 86.1034 10.6691 86.301 10.834 86.4659C10.999 86.6309 11.1976 86.7593 11.4161 86.8409C11.6346 86.9226 11.8679 86.9559 12.1006 86.9396H22.5206C22.7533 86.9559 22.9866 86.9226 23.2051 86.8409C23.4236 86.7593 23.6222 86.6309 23.7872 86.4659C23.9521 86.301 24.0795 86.1034 24.1612 85.8849C24.2429 85.6664 24.2771 85.433 24.2608 85.2003V74.7794C24.2771 74.5467 24.2429 74.3134 24.1612 74.0949C24.0795 73.8763 23.9521 73.6778 23.7872 73.5128C23.6222 73.3479 23.4236 73.2205 23.2051 73.1388C22.9866 73.0571 22.7533 73.0239 22.5206 73.0402H12.1006C11.8687 73.0253 11.6363 73.0604 11.419 73.1427C11.2017 73.225 11.0047 73.3529 10.8409 73.5177C10.677 73.6825 10.5499 73.88 10.4688 74.0978C10.3877 74.3155 10.354 74.5476 10.3702 74.7794H10.3604Z" fill="#1C2A40"/>
<path fill-rule="evenodd" clip-rule="evenodd" d="M32.9611 76.5194H39.9103V83.4696H32.9611V76.5194ZM29.4904 74.7792V85.2001C29.4741 85.4328 29.5083 85.6661 29.59 85.8846C29.6717 86.1031 29.7991 86.3007 29.964 86.4657C30.129 86.6306 30.3275 86.759 30.5461 86.8407C30.7646 86.9224 30.9979 86.9556 31.2306 86.9393H41.6505C41.8832 86.9556 42.1166 86.9224 42.3351 86.8407C42.5536 86.759 42.7522 86.6306 42.9171 86.4657C43.0821 86.3007 43.2095 86.1031 43.2912 85.8846C43.3728 85.6661 43.4071 85.4328 43.3908 85.2001V74.7792C43.4071 74.5465 43.3728 74.3131 43.2912 74.0946C43.2095 73.8761 43.0821 73.6775 42.9171 73.5126C42.7522 73.3476 42.5536 73.2202 42.3351 73.1385C42.1166 73.0569 41.8832 73.0236 41.6505 73.0399H31.2306C30.9971 73.0221 30.7628 73.0546 30.5431 73.1356C30.3234 73.2166 30.1232 73.3435 29.9572 73.5086C29.7911 73.6738 29.6625 73.8734 29.5802 74.0926C29.498 74.3119 29.4641 74.5456 29.4806 74.7792H29.4904Z" fill="#1C2A40"/>
<path fill-rule="evenodd" clip-rule="evenodd" d="M52.0705 76.5194H59.0207V83.4696H52.0705V76.5194ZM48.6007 74.7792V85.2001C48.5844 85.4328 48.6177 85.6661 48.6994 85.8846C48.781 86.1031 48.9094 86.3007 49.0744 86.4657C49.2393 86.6306 49.4379 86.759 49.6564 86.8407C49.8749 86.9224 50.1083 86.9556 50.341 86.9393H60.7609C60.9936 86.9556 61.227 86.9224 61.4455 86.8407C61.664 86.759 61.8625 86.6306 62.0275 86.4657C62.1924 86.3007 62.3198 86.1031 62.4015 85.8846C62.4832 85.6661 62.5165 85.4328 62.5002 85.2001V74.7792C62.5165 74.5465 62.4832 74.3131 62.4015 74.0946C62.3198 73.8761 62.1924 73.6775 62.0275 73.5126C61.8625 73.3476 61.664 73.2202 61.4455 73.1385C61.227 73.0569 60.9936 73.0236 60.7609 73.0399H50.341C50.1075 73.0221 49.8722 73.0546 49.6525 73.1356C49.4328 73.2166 49.2336 73.3435 49.0675 73.5086C48.9015 73.6738 48.7728 73.8734 48.6906 74.0926C48.6083 74.3119 48.5745 74.5456 48.591 74.7792H48.6007Z" fill="#1C2A40"/>
<path fill-rule="evenodd" clip-rule="evenodd" d="M13.8409 38.2901H20.7901V45.2393H13.8409V38.2901ZM10.3604 36.5499V46.9698C10.3441 47.2025 10.3783 47.4358 10.46 47.6544C10.5417 47.8729 10.6691 48.0714 10.834 48.2364C10.999 48.4013 11.1976 48.5287 11.4161 48.6104C11.6346 48.6921 11.8679 48.7263 12.1006 48.71H22.5206C22.7533 48.7263 22.9866 48.6921 23.2051 48.6104C23.4236 48.5287 23.6222 48.4013 23.7872 48.2364C23.9521 48.0714 24.0795 47.8729 24.1612 47.6544C24.2429 47.4358 24.2771 47.2025 24.2608 46.9698V36.5499C24.2771 36.3172 24.2429 36.0838 24.1612 35.8653C24.0795 35.6468 23.9521 35.4482 23.7872 35.2833C23.6222 35.1183 23.4236 34.9909 23.2051 34.9092C22.9866 34.8276 22.7533 34.7933 22.5206 34.8096H12.1006C11.8687 34.7948 11.6363 34.8298 11.419 34.9122C11.2017 34.9945 11.0047 35.1224 10.8409 35.2872C10.677 35.4519 10.5499 35.6495 10.4688 35.8672C10.3877 36.085 10.354 36.3181 10.3702 36.5499H10.3604Z" fill="#1C2A40"/>
<path fill-rule="evenodd" clip-rule="evenodd" d="M32.9611 38.2899H39.9103V45.2391H32.9611V38.2899ZM29.4904 36.5497V46.9696C29.4741 47.2023 29.5083 47.4357 29.59 47.6542C29.6717 47.8727 29.7991 48.0712 29.964 48.2362C30.129 48.4011 30.3275 48.5285 30.5461 48.6102C30.7646 48.6919 30.9979 48.7261 31.2306 48.7098H41.6505C41.8832 48.7261 42.1166 48.6919 42.3351 48.6102C42.5536 48.5285 42.7522 48.4011 42.9171 48.2362C43.0821 48.0712 43.2095 47.8727 43.2912 47.6542C43.3728 47.4357 43.4071 47.2023 43.3908 46.9696V36.5497C43.4071 36.317 43.3728 36.0836 43.2912 35.8651C43.2095 35.6466 43.0821 35.448 42.9171 35.2831C42.7522 35.1181 42.5536 34.9907 42.3351 34.909C42.1166 34.8274 41.8832 34.7931 41.6505 34.8094H31.2306C30.9971 34.7916 30.7628 34.8241 30.5431 34.9051C30.3234 34.9861 30.1232 35.114 29.9572 35.2792C29.7911 35.4443 29.6625 35.6429 29.5802 35.8622C29.498 36.0814 29.4641 36.3161 29.4806 36.5497H29.4904Z" fill="#1C2A40"/>
<path fill-rule="evenodd" clip-rule="evenodd" d="M52.0705 38.2899H59.0207V45.2391H52.0705V38.2899ZM48.6007 36.5497V46.9696C48.5844 47.2023 48.6177 47.4357 48.6994 47.6542C48.781 47.8727 48.9094 48.0712 49.0744 48.2362C49.2393 48.4011 49.4379 48.5285 49.6564 48.6102C49.8749 48.6919 50.1083 48.7261 50.341 48.7098H60.7609C60.9936 48.7261 61.227 48.6919 61.4455 48.6102C61.664 48.5285 61.8625 48.4011 62.0275 48.2362C62.1924 48.0712 62.3198 47.8727 62.4015 47.6542C62.4832 47.4357 62.5165 47.2023 62.5002 46.9696V36.5497C62.5165 36.317 62.4832 36.0836 62.4015 35.8651C62.3198 35.6466 62.1924 35.448 62.0275 35.2831C61.8625 35.1181 61.664 34.9907 61.4455 34.909C61.227 34.8274 60.9936 34.7931 60.7609 34.8094H50.341C50.1075 34.7916 49.8722 34.8241 49.6525 34.9051C49.4328 34.9861 49.2336 35.114 49.0675 35.2792C48.9015 35.4443 48.7728 35.6429 48.6906 35.8622C48.6083 36.0814 48.5745 36.3161 48.591 36.5497H48.6007Z" fill="#1C2A40"/>
<path fill-rule="evenodd" clip-rule="evenodd" d="M71.1808 38.2901H78.131V45.2393H71.1808V38.2901ZM67.7111 36.5499V46.9698C67.6947 47.2025 67.728 47.4358 67.8097 47.6544C67.8914 47.8729 68.0188 48.0714 68.1837 48.2364C68.3487 48.4013 68.5472 48.5287 68.7657 48.6104C68.9843 48.6921 69.2176 48.7263 69.4503 48.71H79.8702C80.1029 48.7263 80.3363 48.6921 80.5548 48.6104C80.7733 48.5287 80.9719 48.4013 81.1368 48.2364C81.3018 48.0714 81.4302 47.8729 81.5118 47.6544C81.5935 47.4358 81.6268 47.2025 81.6105 46.9698V36.5499C81.6268 36.3172 81.5935 36.0838 81.5118 35.8653C81.4302 35.6468 81.3018 35.4482 81.1368 35.2833C80.9719 35.1183 80.7733 34.9909 80.5548 34.9092C80.3363 34.8276 80.1029 34.7933 79.8702 34.8096H69.4503C69.2192 34.7963 68.9887 34.8321 68.7726 34.9151C68.5565 34.9981 68.3601 35.1265 68.1974 35.2911C68.0347 35.4557 67.9087 35.6532 67.8282 35.8702C67.7477 36.0872 67.7146 36.3189 67.7306 36.5499H67.7111Z" fill="#1C2A40"/>
<path fill-rule="evenodd" clip-rule="evenodd" d="M52.0703 57.3993H59.0205V64.3495H52.0703V57.3993ZM48.6006 55.66V66.08C48.5842 66.3127 48.6175 66.546 48.6992 66.7645C48.7809 66.983 48.9092 67.1816 49.0742 67.3466C49.2391 67.5115 49.4377 67.6389 49.6562 67.7206C49.8747 67.8023 50.1081 67.8355 50.3408 67.8192H60.7607C60.9934 67.8355 61.2268 67.8023 61.4453 67.7206C61.6638 67.6389 61.8624 67.5115 62.0273 67.3466C62.1923 67.1816 62.3197 66.983 62.4013 66.7645C62.483 66.546 62.5163 66.3127 62.5 66.08V55.66C62.5163 55.4273 62.483 55.193 62.4013 54.9745C62.3197 54.756 62.1923 54.5584 62.0273 54.3934C61.8624 54.2285 61.6638 54.1001 61.4453 54.0184C61.2268 53.9368 60.9934 53.9035 60.7607 53.9198H50.3408C50.1064 53.9018 49.8708 53.9349 49.6504 54.0165C49.4299 54.0981 49.2297 54.2262 49.0634 54.3925C48.8972 54.5587 48.7681 54.7589 48.6865 54.9794C48.6049 55.1999 48.5728 55.4354 48.5908 55.6698L48.6006 55.66Z" fill="#1C2A40"/>
<path fill-rule="evenodd" clip-rule="evenodd" d="M13.8409 57.3995H20.7901V64.3497H13.8409V57.3995ZM10.3604 55.6603V66.0802C10.3441 66.3129 10.3783 66.5463 10.46 66.7648C10.5417 66.9833 10.6691 67.1819 10.834 67.3468C10.999 67.5118 11.1976 67.6392 11.4161 67.7208C11.6346 67.8025 11.8679 67.8358 12.1006 67.8195H22.5206C22.7533 67.8358 22.9866 67.8025 23.2051 67.7208C23.4236 67.6392 23.6222 67.5118 23.7872 67.3468C23.9521 67.1819 24.0795 66.9833 24.1612 66.7648C24.2429 66.5463 24.2771 66.3129 24.2608 66.0802V55.6603C24.2771 55.4276 24.2429 55.1932 24.1612 54.9747C24.0795 54.7562 23.9521 54.5586 23.7872 54.3937C23.6222 54.2287 23.4236 54.1004 23.2051 54.0187C22.9866 53.937 22.7533 53.9037 22.5206 53.92H12.1006C11.8678 53.9051 11.6341 53.9397 11.4161 54.0226C11.198 54.1055 11.001 54.2346 10.837 54.4005C10.673 54.5664 10.5463 54.7655 10.4659 54.9845C10.3855 55.2035 10.3525 55.4374 10.3702 55.67L10.3604 55.6603Z" fill="#1C2A40"/>
<path fill-rule="evenodd" clip-rule="evenodd" d="M32.9608 57.3993H39.91V64.3495H32.9608V57.3993ZM29.4901 55.66V66.08C29.4738 66.3127 29.5081 66.546 29.5897 66.7645C29.6714 66.983 29.7988 67.1816 29.9638 67.3466C30.1287 67.5115 30.3273 67.6389 30.5458 67.7206C30.7643 67.8023 30.9977 67.8355 31.2304 67.8192H41.6503C41.883 67.8355 42.1163 67.8023 42.3348 67.7206C42.5534 67.6389 42.7519 67.5115 42.9169 67.3466C43.0818 67.1816 43.2092 66.983 43.2909 66.7645C43.3726 66.546 43.4068 66.3127 43.3905 66.08V55.66C43.4068 55.4273 43.3726 55.193 43.2909 54.9745C43.2092 54.756 43.0818 54.5584 42.9169 54.3934C42.7519 54.2285 42.5534 54.1001 42.3348 54.0184C42.1163 53.9368 41.883 53.9035 41.6503 53.9198H31.2304C30.996 53.9018 30.7604 53.9349 30.5399 54.0165C30.3194 54.0981 30.1192 54.2262 29.953 54.3925C29.7868 54.5587 29.6586 54.7589 29.577 54.9794C29.4955 55.1999 29.4624 55.4354 29.4804 55.6698L29.4901 55.66Z" fill="#1C2A40"/>
<path fill-rule="evenodd" clip-rule="evenodd" d="M83.3408 81.7295C83.3408 82.3595 82.4801 82.8201 82.1201 83.3301C81.6466 84.0791 81.4623 84.9743 81.6006 85.8496C81.015 86.0897 80.487 86.4515 80.0508 86.9102L75.3008 90.6299C75.8713 91.6345 76.5414 92.5795 77.3008 93.4502C78.7508 93.1102 82.0302 89.6493 83.4902 88.7793C84.5802 88.1293 84.8504 89.1297 86.4404 88.4697C88.0304 87.8097 88.6006 86.3898 88.6006 84.7598C88.6006 83.1298 86.8604 82.5998 86.8604 81.7598V71.3398H83.3906L83.3408 81.7295Z" fill="#1C2A40"/>
</svg>
