<svg width="108" height="108" viewBox="0 0 108 108" fill="none" xmlns="http://www.w3.org/2000/svg">
<path fill-rule="evenodd" clip-rule="evenodd" d="M84.0498 92.3994C86.6105 89.4599 89.3711 86.7003 92.3105 84.1396L101.54 90.9902C104.75 93.3702 105.131 99.0894 102.061 102.149C98.9905 105.209 93.2704 104.84 90.9004 101.63L84.0498 92.3994ZM82.5303 78.2803L80.4199 80.7295C79.5599 81.5595 78.8802 81.81 78.2402 82.79L83.4502 87.8896L87.79 83.4395L82.5205 78.2803H82.5303ZM58.7998 36.6699C55.6076 36.9331 52.4989 37.8246 49.6523 39.293C46.8058 40.7613 44.2777 42.778 42.2129 45.2266C40.1481 47.6752 38.5878 50.5069 37.6211 53.5605C36.6544 56.6142 36.3005 59.8288 36.5801 63.0195C37.14 69.4241 40.212 75.3466 45.125 79.4932C50.038 83.6398 56.3922 85.6733 62.7998 85.1494C65.9956 84.8888 69.1087 83.9988 71.959 82.5303C74.8093 81.0617 77.341 79.0438 79.4082 76.5928C81.4754 74.1417 83.0373 71.3062 84.0039 68.249C84.9705 65.1918 85.3223 61.9742 85.04 58.7803C84.4752 52.3756 81.3983 46.4545 76.4814 42.3115C71.5646 38.1686 65.2075 36.1403 58.7998 36.6699ZM59.5098 88.6699C61.6909 88.6929 63.8711 88.5494 66.0303 88.2402V97.3594H10.4297V13.96H22.3701C23.0401 13.96 22.9901 14.39 23.3701 14.96C23.6408 15.4053 23.9781 15.8061 24.3701 16.1494C25.1853 16.9234 26.248 17.3847 27.3701 17.4502H49.0898C50.1889 17.3895 51.2399 16.9797 52.0898 16.2803C55.5298 13.4703 48.6198 13.9697 66.0898 13.9697V33.5195C64.0038 33.2163 61.8979 33.0729 59.79 33.0898C56.0284 33.1903 52.329 34.0755 48.9297 35.6895C41.9997 39.1095 38.6096 43.1595 35.3896 49.5195C33.8504 53.0473 32.9888 56.8333 32.8496 60.6797C32.9412 64.5562 33.7556 68.3819 35.25 71.96C39.5 81.43 49.2503 88.6895 59.5703 88.6895L59.5098 88.6699ZM26.0605 12.0098C26.0605 12.5402 26.2704 13.0488 26.6455 13.4238C27.0206 13.7989 27.5301 14.0098 28.0605 14.0098H48.4697C49.0002 14.0098 49.5097 13.7989 49.8848 13.4238C50.2598 13.0488 50.4697 12.5402 50.4697 12.0098V5.49023C50.4697 4.9598 50.2598 4.45027 49.8848 4.0752C49.5097 3.70012 49.0002 3.49023 48.4697 3.49023H28.0605C27.5301 3.49023 27.0206 3.70012 26.6455 4.0752C26.2704 4.45027 26.0605 4.9598 26.0605 5.49023V12.0098ZM53.8604 7.00977H71.0205C73.5405 7.00977 73.0205 10.1402 73.0205 12.6602V35.8994C71.8605 35.2794 70.7098 34.8999 69.5498 34.3799V15.2695C69.5498 13.0295 70.0705 10.4902 67.8105 10.4902H53.9102V7.01953L53.8604 7.00977ZM6.9502 12.2197V99.0898C6.93388 99.3225 6.96715 99.5559 7.04883 99.7744C7.1305 99.9929 7.25888 100.191 7.42383 100.356C7.58878 100.521 7.78735 100.649 8.00586 100.73C8.22436 100.812 8.45773 100.846 8.69043 100.83H67.7598C70.1698 100.83 69.5 97.4497 69.5 94.9697V87.3701C70.67 86.8101 71.8097 86.4696 72.9697 85.8496V101.06C72.9697 102.88 72.8097 104.31 70.9697 104.31H5.37988C4.84945 104.31 4.34089 104.099 3.96582 103.724C3.59075 103.349 3.37988 102.84 3.37988 102.31V8.91992C3.37988 8.38949 3.59075 7.88093 3.96582 7.50586C4.34089 7.13079 4.84945 6.91992 5.37988 6.91992H22.54V10.3896H8.63965C8.40695 10.3733 8.17358 10.4076 7.95508 10.4893C7.73657 10.5709 7.53799 10.6983 7.37305 10.8633C7.2081 11.0282 7.0807 11.2268 6.99902 11.4453C6.91735 11.6638 6.88408 11.8972 6.90039 12.1299L6.9502 12.2197ZM22.7998 3.53027H9.12012C6.77012 3.53027 4.35 3.23938 2.75 4.10938C1.96203 4.50484 1.29252 5.10224 0.80957 5.83984C0.326619 6.57744 0.0473933 7.4292 0 8.30957V103C0.0841934 104.24 0.615307 105.407 1.49414 106.286C2.37297 107.165 3.54027 107.696 4.78027 107.78H71.6699C72.4881 107.728 73.281 107.475 73.9785 107.044C74.676 106.613 75.2568 106.018 75.6699 105.31C76.7199 103.56 76.4102 101.92 76.4102 99.3096V86.0596L80.8105 90.3496C79.1705 92.6996 79.61 92.4196 82.96 96.8896L86.3105 101.359C89.4805 105.589 91.4005 107.78 97.3105 107.78C102.671 107.78 107.73 102.709 107.73 97.3594C107.904 94.8714 107.215 92.3996 105.78 90.3594C104.576 88.8785 103.148 87.5937 101.55 86.5498C100.49 85.7598 93.3098 79.9395 92.0898 79.9395C91.0898 79.9395 90.9596 80.3996 90.3496 80.8096L84.6504 75.2197C87.6504 69.5597 88.6504 66.68 88.6504 59.75C88.5562 55.1198 87.2309 50.5977 84.8105 46.6494C82.7487 43.106 79.9023 40.0822 76.4902 37.8096C76.4902 28.3296 76.4302 18.8094 76.4902 9.35938C76.6257 8.3319 76.4516 7.28739 75.9902 6.35938C74.2502 2.93937 71.3302 3.46973 67.9902 3.46973H53.6602C52.7202 1.68973 51.4496 0 49.0996 0H27.3799C25.0099 0.1 23.7505 1.84031 22.8105 3.57031L22.7998 3.53027Z" fill="#1C2A40"/>
<path fill-rule="evenodd" clip-rule="evenodd" d="M59.0205 40.1491C64.504 39.6767 69.9509 41.3929 74.1738 44.9226C78.3967 48.4523 81.0527 53.5097 81.5605 58.99C81.8166 61.7148 81.5323 64.4629 80.7246 67.0779C79.9169 69.6928 78.6007 72.1225 76.8525 74.2282C75.1044 76.334 72.9588 78.0752 70.5371 79.3503C68.1154 80.6254 65.4657 81.4102 62.7402 81.6599C60.0084 81.9184 57.2524 81.6338 54.6309 80.823C52.0093 80.0122 49.5737 78.691 47.4648 76.9353C45.356 75.1796 43.6153 73.0236 42.3428 70.5925C41.0702 68.1614 40.2908 65.5027 40.0498 62.7693C39.8056 60.0358 40.1039 57.2816 40.9277 54.6638C41.7515 52.046 43.085 49.6164 44.8506 47.5154C46.6162 45.4143 48.779 43.683 51.2158 42.4206C53.6527 41.1583 56.3151 40.3901 59.0498 40.1599L59.0205 40.1491ZM58.7998 36.6697C55.6076 36.9328 52.4989 37.8243 49.6523 39.2927C46.8058 40.7611 44.2777 42.7777 42.2129 45.2263C40.1481 47.6749 38.5878 50.5066 37.6211 53.5603C36.6544 56.6139 36.3005 59.8285 36.5801 63.0193C37.14 69.4238 40.212 75.3463 45.125 79.4929C50.038 83.6395 56.3922 85.673 62.7998 85.1491C65.9956 84.8886 69.1087 83.9985 71.959 82.53C74.8093 81.0615 77.341 79.0435 79.4082 76.5925C81.4754 74.1415 83.0373 71.3059 84.0039 68.2488C84.9705 65.1916 85.3223 61.9739 85.04 58.78C84.4752 52.3753 81.3983 46.4542 76.4814 42.3113C71.5646 38.1683 65.2075 36.1401 58.7998 36.6697Z" fill="#AFC3D5"/>
<path fill-rule="evenodd" clip-rule="evenodd" d="M60.8105 81.6602C66.3105 81.6496 71.5816 79.4594 75.4707 75.5703C79.3598 71.6812 81.55 66.4102 81.5605 60.9102C81.55 55.4102 79.3598 50.1381 75.4707 46.249C71.5816 42.3599 66.3105 40.1707 60.8105 40.1602C55.3106 40.1707 50.0385 42.3599 46.1494 46.249C42.2603 50.1381 40.0711 55.4102 40.0605 60.9102C40.0711 66.4102 42.2603 71.6812 46.1494 75.5703C50.0385 79.4594 55.3106 81.6496 60.8105 81.6602Z" fill="white"/>
<path fill-rule="evenodd" clip-rule="evenodd" d="M43.4401 60.9104C43.5052 56.9955 44.8682 53.2124 47.3151 50.1556C49.7619 47.0987 53.1539 44.9406 56.9596 44.0198C60.6475 43.1539 64.519 43.5449 67.9596 45.1302C69.8758 45.9872 71.613 47.1987 73.0797 48.7005C84.2597 59.8805 75.73 78.2903 60.86 78.2903C57.5272 78.2427 54.2758 77.2513 51.483 75.4319C48.6902 73.6125 46.4701 71.0394 45.0797 68.01C44.1218 65.7599 43.5831 63.3542 43.4899 60.9104H43.4401ZM59.0201 40.1497C56.2854 40.3799 53.623 41.1491 51.1861 42.4114C48.7493 43.6738 46.5855 45.4051 44.8199 47.5061C43.0544 49.6072 41.7219 52.0358 40.8981 54.6536C40.0743 57.2714 39.7759 60.0265 40.0201 62.76C40.2611 65.4935 41.0396 68.1522 42.3121 70.5833C43.5847 73.0144 45.3263 75.1704 47.4352 76.9261C49.544 78.6817 51.9787 80.0029 54.6002 80.8138C57.2217 81.6246 59.9777 81.9082 62.7096 81.6497C65.435 81.4 68.0848 80.6152 70.5065 79.3401C72.9282 78.065 75.0747 76.3248 76.8229 74.219C78.571 72.1132 79.8862 69.6836 80.694 67.0686C81.5017 64.4537 81.7859 61.7046 81.5299 58.9798C81.0194 53.5069 78.367 48.4577 74.151 44.9309C69.935 41.4042 64.4971 39.6855 59.0201 40.1497Z" fill="#1C2A40"/>
<path fill-rule="evenodd" clip-rule="evenodd" d="M84.0498 92.3994L90.9004 101.63C93.2804 104.84 99.0005 105.219 102.061 102.149C105.121 99.0794 104.75 93.3602 101.54 90.9902L92.3105 84.1396C89.3711 86.7003 86.6105 89.4599 84.0498 92.3994Z" fill="#AFC3D5"/>
<path fill-rule="evenodd" clip-rule="evenodd" d="M17.38 76.5499H24.3302V83.5001H17.38V76.5499ZM13.9005 74.8096V85.2295C13.8842 85.4622 13.9175 85.6956 13.9991 85.9141C14.0808 86.1326 14.2082 86.3312 14.3732 86.4961C14.5381 86.6611 14.7367 86.7895 14.9552 86.8711C15.1737 86.9528 15.4071 86.9861 15.6398 86.9698H26.0607C26.2934 86.9861 26.5267 86.9528 26.7452 86.8711C26.9637 86.7895 27.1613 86.6611 27.3263 86.4961C27.4912 86.3312 27.6196 86.1326 27.7013 85.9141C27.783 85.6956 27.8162 85.4622 27.7999 85.2295V74.8399C27.8162 74.6072 27.783 74.3738 27.7013 74.1553C27.6196 73.9368 27.4912 73.7382 27.3263 73.5733C27.1613 73.4083 26.9637 73.2809 26.7452 73.1993C26.5267 73.1176 26.2934 73.0834 26.0607 73.0997H15.6398C15.4079 73.0848 15.1764 73.1199 14.9591 73.2022C14.7418 73.2845 14.5438 73.4124 14.38 73.5772C14.2162 73.742 14.09 73.9395 14.0089 74.1573C13.9278 74.375 13.8941 74.6081 13.9103 74.8399L13.9005 74.8096Z" fill="#1C2A40"/>
<path fill-rule="evenodd" clip-rule="evenodd" d="M17.38 24.42H24.3302V31.3702H17.38V24.42ZM13.9005 22.6797V33.0997C13.8842 33.3324 13.9175 33.5657 13.9991 33.7842C14.0808 34.0027 14.2082 34.2013 14.3732 34.3663C14.5381 34.5312 14.7367 34.6586 14.9552 34.7403C15.1737 34.822 15.4071 34.8562 15.6398 34.8399H26.0607C26.2934 34.8562 26.5267 34.822 26.7452 34.7403C26.9637 34.6586 27.1613 34.5312 27.3263 34.3663C27.4912 34.2013 27.6196 34.0027 27.7013 33.7842C27.783 33.5657 27.8162 33.3324 27.7999 33.0997V22.6797C27.8162 22.447 27.783 22.2137 27.7013 21.9952C27.6196 21.7767 27.4912 21.5781 27.3263 21.4131C27.1613 21.2482 26.9637 21.1208 26.7452 21.0391C26.5267 20.9574 26.2934 20.9232 26.0607 20.9395H15.6398C15.407 20.9245 15.1742 20.9601 14.9562 21.043C14.7381 21.126 14.5401 21.2551 14.3761 21.421C14.2121 21.5868 14.0854 21.786 14.005 22.0049C13.9246 22.2239 13.8926 22.4569 13.9103 22.6895L13.9005 22.6797Z" fill="#1C2A40"/>
<path fill-rule="evenodd" clip-rule="evenodd" d="M17.38 41.8399H24.3302V48.7901H17.38V41.8399ZM13.9005 40.0997V50.5196C13.8842 50.7523 13.9175 50.9857 13.9991 51.2042C14.0808 51.4227 14.2082 51.6212 14.3732 51.7862C14.5381 51.9511 14.7367 52.0795 14.9552 52.1612C15.1737 52.2429 15.4071 52.2761 15.6398 52.2598H26.0607C26.2934 52.2761 26.5267 52.2429 26.7452 52.1612C26.9637 52.0795 27.1613 51.9511 27.3263 51.7862C27.4912 51.6212 27.6196 51.4227 27.7013 51.2042C27.783 50.9857 27.8162 50.7523 27.7999 50.5196V40.0997C27.8162 39.867 27.783 39.6336 27.7013 39.4151C27.6196 39.1966 27.4912 38.998 27.3263 38.8331C27.1613 38.6681 26.9637 38.5407 26.7452 38.459C26.5267 38.3774 26.2934 38.3431 26.0607 38.3594H15.6398C15.4114 38.3452 15.1832 38.38 14.9689 38.46C14.7545 38.54 14.5588 38.6639 14.3956 38.8243C14.2325 38.9846 14.1053 39.1778 14.0216 39.3907C13.9379 39.6036 13.9 39.8311 13.9103 40.0596L13.9005 40.0997Z" fill="#1C2A40"/>
<path fill-rule="evenodd" clip-rule="evenodd" d="M17.38 59.17H24.3302V66.1202H17.38V59.17ZM13.9005 57.4297V67.8497C13.8842 68.0824 13.9175 68.3157 13.9991 68.5342C14.0808 68.7527 14.2082 68.9513 14.3732 69.1163C14.5381 69.2812 14.7367 69.4086 14.9552 69.4903C15.1737 69.572 15.4071 69.6062 15.6398 69.5899H26.0607C26.2934 69.6062 26.5267 69.572 26.7452 69.4903C26.9637 69.4086 27.1613 69.2812 27.3263 69.1163C27.4912 68.9513 27.6196 68.7527 27.7013 68.5342C27.783 68.3157 27.8162 68.0824 27.7999 67.8497V57.4297C27.8162 57.197 27.783 56.9637 27.7013 56.7452C27.6196 56.5267 27.4912 56.3281 27.3263 56.1631C27.1613 55.9982 26.9637 55.8708 26.7452 55.7891C26.5267 55.7074 26.2934 55.6732 26.0607 55.6895H15.6398C15.4079 55.6747 15.1764 55.7097 14.9591 55.792C14.7418 55.8744 14.5438 56.0023 14.38 56.167C14.2162 56.3318 14.09 56.5303 14.0089 56.7481C13.9278 56.9659 13.8941 57.1979 13.9103 57.4297H13.9005Z" fill="#1C2A40"/>
<path d="M59.0803 27.8906H31.2803V31.3606H59.0803V27.8906Z" fill="#1C2A40"/>
<path fill-rule="evenodd" clip-rule="evenodd" d="M50.8799 68.3407L53.2599 70.8507L70.8599 53.3607L68.3599 50.9707L50.8799 68.3407Z" fill="#1C2A40"/>
<path fill-rule="evenodd" clip-rule="evenodd" d="M53.8701 53.96C53.8701 51.77 57.3496 51.77 57.3496 53.96C57.3496 56.15 53.8701 56.15 53.8701 53.96ZM50.4004 53.5303C50.4004 61.1003 60.8203 61.1003 60.8203 53.5303C60.8203 50.8703 58.5399 48.75 55.1699 48.75C53.9299 48.8342 52.7626 49.3643 51.8838 50.2432C51.005 51.122 50.4738 52.2903 50.3896 53.5303H50.4004Z" fill="#1C2A40"/>
<path fill-rule="evenodd" clip-rule="evenodd" d="M64.29 67.8398C64.29 65.6498 67.7598 65.6498 67.7598 67.8398C67.7598 70.0298 64.29 70.0298 64.29 67.8398ZM60.8105 67.4102C60.8105 74.9802 71.2305 74.9802 71.2305 67.4102C71.2305 64.7502 68.9501 62.6299 65.5801 62.6299C64.342 62.719 63.1777 63.2533 62.3027 64.1338C61.4278 65.0142 60.9016 66.1813 60.8203 67.4199L60.8105 67.4102Z" fill="#1C2A40"/>
</svg>
