<svg width="108" height="108" viewBox="0 0 108 108" fill="none" xmlns="http://www.w3.org/2000/svg">
<path fill-rule="evenodd" clip-rule="evenodd" d="M20.9044 69.5924H104.304V104.352H20.9044V69.5924ZM3.53423 97.3922H17.4336V104.342H3.53423V97.3922ZM19.1143 51.2916L11.3438 59.1617C12.9038 59.1617 13.9542 59.3219 13.9542 60.9019V93.9019H17.4336V67.8424C17.4336 65.4124 20.6838 66.1021 24.3838 66.1021C24.3838 60.0021 23.694 59.2121 27.044 59.1021L19.1143 51.2818V51.2916ZM43.4336 35.6519L51.3643 43.4723C49.7543 43.5223 48.7042 43.6823 48.7042 45.2623V66.1119H38.2842V45.2623C38.2842 43.6823 37.2339 43.5221 35.6739 43.5221L43.4444 35.6519H43.4336ZM67.754 25.232L75.6836 33.0523C74.0736 33.1023 73.0245 33.2624 73.0245 34.8424V66.1119H62.6036V34.8424C62.6036 33.2624 61.5542 33.1021 59.9942 33.1021L67.754 25.232ZM92.0743 13.0719L100.004 20.8922C98.394 20.9422 97.3438 21.1022 97.3438 22.6822V66.1217H86.9239V22.6822C86.9239 21.1022 85.8735 20.942 84.3135 20.942L92.0743 13.0719ZM78.2237 22.6822C78.2237 24.9522 80.8236 24.4224 83.4336 24.4224V66.1217H76.4844V36.5816C79.0944 36.5816 81.6944 37.1124 81.6944 34.8424C81.6944 33.6624 79.7936 32.182 78.6036 30.982L71.6544 24.0318C67.0443 19.4218 68.5639 19.4123 60.4639 27.5123L56.9942 30.982C55.8042 32.172 53.9044 33.6524 53.9044 34.8424C53.9044 37.1124 56.5043 36.5816 59.1143 36.5816V66.1217H52.1641V47.0123C54.7741 47.0123 57.3741 47.5421 57.3741 45.2721C57.3741 44.0921 55.4742 42.6124 54.2842 41.4224L50.8135 37.942L45.6036 32.732C43.0936 30.192 42.7536 31.3423 39.6036 34.4723L30.9141 43.1617C30.3241 43.7417 29.5538 44.2218 29.5538 45.2818C29.5538 47.5518 32.1537 47.0221 34.7637 47.0221V66.1324H27.8135V62.6617C30.4235 62.6617 33.0245 63.1924 33.0245 60.9224C33.0245 59.8624 32.2541 59.3823 31.6641 58.8023L21.2442 48.3824C19.3842 46.5024 18.864 46.5024 17.004 48.3824L6.58404 58.8023C5.99404 59.3823 5.22369 59.8624 5.22369 60.9224C5.22369 63.1924 7.82365 62.6617 10.4336 62.6617V93.9322H1.7442C1.5115 93.9159 1.27813 93.9492 1.05962 94.0308C0.84112 94.1125 0.64254 94.2409 0.477594 94.4058C0.312647 94.5708 0.185244 94.7684 0.10357 94.9869C0.0218965 95.2054 -0.0123526 95.4398 0.00396072 95.6724V106.092C-0.0123526 106.325 0.0218965 106.558 0.10357 106.777C0.185244 106.995 0.312647 107.194 0.477594 107.359C0.64254 107.524 0.84112 107.651 1.05962 107.733C1.27813 107.815 1.5115 107.848 1.7442 107.832H106.044C106.277 107.848 106.51 107.815 106.729 107.733C106.947 107.651 107.146 107.524 107.311 107.359C107.476 107.194 107.603 106.995 107.685 106.777C107.766 106.558 107.801 106.325 107.784 106.092V67.8717C107.784 65.4417 104.534 66.1324 100.834 66.1324V24.4322C103.444 24.4322 106.044 24.962 106.044 22.692C106.044 21.512 104.144 20.0324 102.954 18.8424L96.004 11.8922L94.2637 10.1519C91.7537 7.61194 91.4137 8.77218 88.2637 11.8922L84.794 15.3619L81.3135 18.8424C80.1435 20.0224 78.2442 21.5222 78.2442 22.6822H78.2237Z" fill="#1C2A40"/>
<path fill-rule="evenodd" clip-rule="evenodd" d="M79.9844 85.2324H90.4043V88.7021H79.9844V85.2324ZM34.8135 85.2324H45.2344V88.7021H34.8135V85.2324ZM76.4238 88.4922C76.2215 90.3159 75.6605 92.0818 74.7725 93.6875C73.8844 95.2932 72.6872 96.707 71.25 97.8477C69.8128 98.9883 68.1638 99.8337 66.3984 100.334C64.6331 100.834 62.7859 100.98 60.9639 100.763C57.3163 100.314 53.9932 98.4435 51.7178 95.5576C49.4424 92.6717 48.3985 89.0041 48.8135 85.3525C49.2518 81.6907 51.1252 78.3516 54.0215 76.0684C56.9177 73.7851 60.6006 72.7443 64.2637 73.1729C71.2037 74.0029 77.4438 80.4522 76.4238 88.4922ZM79.9941 73.0723V76.542H97.3936L97.4443 97.3926H80.0137V100.862H98.4736C100.194 100.862 100.864 100.203 100.864 98.4727V75.4727C100.864 73.7427 100.204 73.082 98.4736 73.082L79.9941 73.0723ZM27.8643 97.3926L27.8135 76.542H45.2441V73.0723H26.7842C25.0542 73.0723 24.3936 73.7229 24.3936 75.4629V98.4629C24.3936 100.193 25.0542 100.853 26.7842 100.853H45.2441V97.3828L27.8643 97.3926ZM20.9141 104.393H104.313V69.6328H20.9141V104.393Z" fill="#AFC3D5"/>
<path fill-rule="evenodd" clip-rule="evenodd" d="M4.03724 21.2499C4.38132 25.4745 6.38231 29.3914 9.60383 32.1465C12.8253 34.9015 17.0056 36.2706 21.233 35.9556C25.4628 35.6262 29.3892 33.6317 32.1491 30.41C34.9091 27.1884 36.2773 23.0031 35.9532 18.7735C35.6148 14.5448 33.6155 10.6223 30.3933 7.86239C27.1712 5.10247 22.9874 3.72949 18.7562 4.04428C14.5423 4.40301 10.6385 6.40267 7.88515 9.61231C5.13179 12.8219 3.75012 16.9851 4.03724 21.2038V21.2499Z" fill="#AFC3D5"/>
<path fill-rule="evenodd" clip-rule="evenodd" d="M4.06522 21.2909C3.76556 17.0724 5.14139 12.9056 7.89542 9.69187C10.6494 6.47815 14.5595 4.47536 18.781 4.11742C23.0112 3.80322 27.1941 5.17363 30.4155 7.92838C33.637 10.6831 35.6359 14.5983 35.9741 18.8191C36.2982 23.0408 34.9303 27.2182 32.1709 30.4339C29.4116 33.6495 25.4861 35.6402 21.2572 35.969C17.0307 36.2834 12.8514 34.9169 9.63059 32.167C6.40978 29.4171 4.40922 25.5076 4.06522 21.2909ZM0.0112454 18.992C0.0112454 25.4864 1.79612 30.1535 5.76891 34.1651C9.54339 37.9029 14.645 40 19.9618 40C25.2786 40 30.3801 37.9029 34.1546 34.1651C37.8992 30.3974 40 25.305 40 19.9978C40 14.6905 37.8992 9.59809 34.1546 5.83039C30.3787 2.09535 25.2776 0 19.9618 0C14.6459 0 9.54486 2.09535 5.76891 5.83039C3.06281 8.64657 0 13.693 0 19.084L0.0112454 18.992Z" fill="#1C2A40"/>
<path fill-rule="evenodd" clip-rule="evenodd" d="M52.1839 86.9724C52.1956 85.2389 52.6394 83.5357 53.474 82.0163C54.3085 80.497 55.5075 79.209 56.9642 78.2693C58.4209 77.3296 60.0894 76.7675 61.8177 76.6335C63.546 76.4996 65.2805 76.7986 66.8646 77.5027C68.6788 78.3422 70.2196 79.6754 71.3109 81.3503C72.4021 83.0252 72.9995 84.9737 73.0345 86.9724C72.9447 89.6665 71.8785 92.2356 70.0345 94.2019C69.1535 95.0796 68.1414 95.8157 67.0345 96.3826C65.1222 97.2775 62.9816 97.5653 60.9007 97.2077C58.8199 96.8502 56.8978 95.8645 55.3939 94.3826C53.399 92.414 52.2517 89.7442 52.1947 86.9421L52.1839 86.9724ZM76.4144 88.4919C77.4144 80.4919 71.1942 74.0026 64.2542 73.1726C60.5912 72.744 56.9073 73.7848 54.0111 76.0681C51.1148 78.3514 49.2424 81.6904 48.804 85.3523C48.3891 89.0038 49.433 92.6715 51.7083 95.5574C53.9837 98.4433 57.3069 100.314 60.9544 100.762C62.7742 100.98 64.6186 100.835 66.3822 100.337C68.1458 99.8383 69.7939 98.9957 71.2308 97.8581C72.6677 96.7205 73.8646 95.31 74.7542 93.7077C75.6439 92.1055 76.2085 90.3433 76.4144 88.5222V88.4919Z" fill="#1C2A40"/>
<path fill-rule="evenodd" clip-rule="evenodd" d="M79.9541 76.5225H97.3535L97.4043 97.3721H79.9736V100.843H98.4336C100.154 100.843 100.824 100.182 100.824 98.4521V75.4521C100.824 73.7221 100.164 73.0625 98.4336 73.0625H79.9736L79.9541 76.5225Z" fill="#1C2A40"/>
<path fill-rule="evenodd" clip-rule="evenodd" d="M27.8037 76.5225H45.2344V73.0527H26.7744C25.0444 73.0527 24.3838 73.7024 24.3838 75.4424V98.4424C24.3838 100.172 25.0444 100.832 26.7744 100.832H45.2344V97.3623H27.8535L27.8037 76.5225Z" fill="#1C2A40"/>
<path d="M45.2237 85.2324H34.8037V88.7025H45.2237V85.2324Z" fill="#1C2A40"/>
<path d="M90.4044 85.2324H79.9844V88.7025H90.4044V85.2324Z" fill="#1C2A40"/>
<path d="M17.8758 23.365V31H13.8408V9.31007H20.8908C22.3408 9.31007 23.5958 9.48007 24.6558 9.82007C25.7158 10.1601 26.5908 10.6351 27.2808 11.2451C27.9708 11.8551 28.4808 12.5851 28.8108 13.4351C29.1508 14.2851 29.3208 15.2151 29.3208 16.225C29.3208 17.275 29.1458 18.24 28.7958 19.12C28.4458 19.99 27.9208 20.74 27.2208 21.37C26.5208 22 25.6408 22.49 24.5808 22.84C23.5308 23.19 22.3008 23.365 20.8908 23.365H17.8758ZM17.8758 20.215H20.8908C21.6308 20.215 22.2758 20.125 22.8258 19.945C23.3758 19.755 23.8308 19.49 24.1908 19.15C24.5608 18.8 24.8358 18.38 25.0158 17.89C25.1958 17.39 25.2858 16.835 25.2858 16.225C25.2858 15.645 25.1958 15.1201 25.0158 14.6501C24.8358 14.1801 24.5658 13.7801 24.2058 13.4501C23.8458 13.1201 23.3908 12.8701 22.8408 12.7001C22.2908 12.5201 21.6408 12.4301 20.8908 12.4301H17.8758V20.215Z" fill="#1C2A40"/>
<path d="M22.3603 24.4199H12.5703V27.2299H22.3603V24.4199Z" fill="#1C2A40"/>
</svg>
