<svg width="98" height="108" viewBox="0 0 98 108" fill="none" xmlns="http://www.w3.org/2000/svg">
<path fill-rule="evenodd" clip-rule="evenodd" d="M48.9336 107.013C54.2002 107.002 59.2476 104.905 62.9717 101.181C66.6957 97.4566 68.7922 92.4092 68.8027 87.1426C68.7922 81.876 66.6957 76.8276 62.9717 73.1035C59.2476 69.3795 54.2002 67.283 48.9336 67.2725C43.667 67.283 38.6186 69.3795 34.8945 73.1035C31.1705 76.8276 29.074 81.876 29.0635 87.1426C29.074 92.4092 31.1705 97.4566 34.8945 101.181C38.6186 104.905 43.667 107.002 48.9336 107.013Z" fill="white"/>
<path fill-rule="evenodd" clip-rule="evenodd" d="M31.3236 86.8818C31.3236 74.6318 44.4033 65.7825 55.7933 71.1025C58.8341 72.471 61.4154 74.6889 63.2259 77.4892C65.0364 80.2895 65.9994 83.553 65.9994 86.8876C65.9994 90.2222 65.0364 93.4858 63.2259 96.2861C61.4154 99.0863 58.8341 101.303 55.7933 102.672C54.7448 103.128 53.661 103.499 52.5531 103.782C48.8641 104.632 44.9979 104.242 41.5531 102.672C37.7022 100.919 34.616 97.8333 32.8636 93.9824C31.9057 91.7323 31.367 89.3255 31.2738 86.8818H31.3236ZM46.9632 40.1923V66.0322H50.4437V40.1923C47.1237 39.9123 50.2932 39.9123 46.9632 40.1923ZM44.2435 10.622C46.3735 10.532 48.2437 10.4024 50.4437 10.4824C53.6537 10.5924 53.0034 10.3927 54.3734 12.8027C59.5579 21.6521 62.3748 31.6876 62.5531 41.9423C62.0483 41.599 61.5706 41.2182 61.1234 40.8027C58.2595 38.5331 54.8313 37.0858 51.2074 36.6171C47.5834 36.1485 43.9001 36.6762 40.5531 38.1425C39.5038 38.6291 38.4998 39.2076 37.5531 39.872L34.8832 41.9423C35.0493 33.3796 37.0444 24.9515 40.7337 17.2226L44.2835 10.6318L44.2435 10.622ZM66.0238 42.0224C66.6138 41.7524 74.8038 33.2221 87.0238 37.7021C90.0238 38.8021 91.4034 40.1717 92.4134 40.5917C91.9734 37.4617 88.7939 31.8126 87.3539 29.7626C80.9339 20.6326 69.5231 12.7619 57.5931 11.2919C57.8631 12.0919 58.7735 13.5924 59.2035 14.4824C60.9483 17.8541 62.3613 21.3872 63.4232 25.0322C65.016 30.5634 65.8864 36.2775 66.013 42.0322L66.0238 42.0224ZM4.973 40.5917C5.793 40.2517 6.61393 39.4825 7.68393 38.9325C8.70245 38.3867 9.76232 37.9213 10.8539 37.5419C13.4002 36.7429 16.0685 36.4042 18.7337 36.5419C22.3312 36.6807 25.8085 37.8741 28.7337 39.9726C30.2337 40.9726 30.6534 41.6922 31.3734 42.0322C31.5021 32.5056 33.8044 23.1338 38.1039 14.6318C38.5339 13.7718 39.5133 12.0919 39.7933 11.2919C32.4033 12.0819 23.3631 16.7219 17.8431 21.2919C14.8986 23.7114 12.3012 26.5248 10.1234 29.6523C8.64339 31.7323 5.403 37.4623 4.973 40.6523V40.5917ZM45.223 7.08196C45.573 2.25196 51.8234 2.32239 52.1634 7.02239L45.223 7.08196ZM41.7435 6.53216V7.40228C38.8335 7.40228 32.2739 9.40259 29.3939 10.4726C25.7745 11.8513 22.3357 13.664 19.1537 15.872L14.7533 19.2919C10.4633 23.2919 7.21346 26.6724 4.45346 32.2324C3.2097 34.6104 2.20478 37.1062 1.45346 39.6825C0.398723 43.1549 -0.0879837 46.7747 0.0130349 50.4023C0.0130346 50.6308 0.0584043 50.8572 0.145847 51.0683C0.23329 51.2794 0.361227 51.4712 0.522801 51.6327C0.684374 51.7943 0.876147 51.9223 1.08725 52.0097C1.29836 52.0971 1.52477 52.1425 1.75327 52.1425C1.98177 52.1425 2.20818 52.0971 2.41928 52.0097C2.63039 51.9223 2.82216 51.7943 2.98374 51.6327C3.14531 51.4712 3.27325 51.2794 3.36069 51.0683C3.44813 50.8572 3.4935 50.6308 3.4935 50.4023C3.57556 49.0726 3.93098 47.7744 4.53843 46.5888C5.14587 45.4032 5.99252 44.356 7.02378 43.5126C7.68188 43.0022 8.36933 42.5312 9.08335 42.1025C12.9233 39.6725 19.0838 39.5022 23.2738 41.0322C24.8998 41.5854 26.4135 42.4258 27.7435 43.5126C29.0239 44.5922 30.0253 45.9642 30.6634 47.5126C31.5834 50.0626 30.8238 52.1025 33.0238 52.1025C36.5838 52.1025 32.3032 47.5019 39.7132 42.5019C40.8594 41.7384 42.123 41.1681 43.4535 40.8124V66.6523C41.3027 67.1943 39.2528 68.079 37.3832 69.2724C32.3832 72.2724 27.8236 79.2124 27.8236 85.7724C27.8236 89.7724 27.9536 92.1524 29.8236 95.7724C30.3382 96.8089 30.9197 97.811 31.5638 98.7724L33.7835 101.542C36.7835 104.542 42.4937 107.672 46.9837 107.672C53.1837 107.672 55.6239 107.332 60.9339 103.812L63.6634 101.542C66.7734 98.3619 69.5736 92.712 69.5736 88.122V85.7324C69.5736 80.2624 66.5736 75.1725 63.5736 72.1825C62.5055 71.0632 61.3066 70.0757 60.0033 69.2421C58.1336 68.0488 56.0847 67.164 53.9339 66.622V40.8222C57.6739 41.6922 61.4239 44.7323 62.3539 48.6923C62.7339 50.3223 62.3539 52.1122 64.3539 52.1122C67.9739 52.1122 63.5131 44.8419 74.0931 41.0019C80.9931 38.5019 90.883 40.9026 93.263 47.5126C93.5833 48.4377 93.7916 49.3973 93.8832 50.372C93.8832 50.8335 94.0666 51.2762 94.3929 51.6025C94.7192 51.9288 95.1619 52.1122 95.6234 52.1122C96.0849 52.1122 96.5275 51.9288 96.8539 51.6025C97.1802 51.2762 97.3636 50.8335 97.3636 50.372C97.4653 46.8037 96.9955 43.2423 95.973 39.8222C93.783 32.0322 89.7036 26.0221 84.0736 20.4521C79.4073 16.2165 74.0226 12.8469 68.1732 10.5019C66.8232 9.99189 65.6038 9.50228 64.3138 9.15228C62.8338 8.74228 61.7537 8.47228 60.1537 8.15228C58.686 7.76973 57.1859 7.5218 55.6732 7.41204C55.7606 6.42302 55.6266 5.42668 55.2806 4.49603C54.9346 3.56537 54.3854 2.72392 53.6732 2.03216C49.3632 -2.27784 41.7533 0.762393 41.7533 6.52239L41.7435 6.53216Z" fill="#1C2A40"/>
<path fill-rule="evenodd" clip-rule="evenodd" d="M44.2031 10.6127L40.6533 17.2025C36.964 24.9315 34.9688 33.3595 34.8027 41.9222L37.4727 39.8529C38.4194 39.1884 39.4234 38.609 40.4727 38.1224C43.8197 36.6561 47.503 36.1294 51.127 36.598C54.7509 37.0666 58.179 38.5131 61.043 40.7826C61.4902 41.1981 61.9679 41.5789 62.4727 41.9222C62.2943 31.6675 59.4774 21.632 54.293 12.7826C52.923 10.3626 53.5733 10.5723 50.3633 10.4623C48.2933 10.3923 46.3731 10.5227 44.2031 10.6127Z" fill="#AFC3D5"/>
<path fill-rule="evenodd" clip-rule="evenodd" d="M66.0332 42.0127C66.6232 41.7427 74.8132 33.2124 87.0332 37.6924C90.0332 38.7924 91.4129 40.162 92.4229 40.582C91.9829 37.452 88.8033 31.802 87.3633 29.752C80.9433 20.622 69.5335 12.7522 57.6035 11.2822C57.8735 12.0822 58.7829 13.5827 59.2129 14.4727C60.9577 17.8445 62.3717 21.3775 63.4336 25.0225C65.0289 30.5501 65.9025 36.261 66.0332 42.0127Z" fill="#AFC3D5"/>
<path fill-rule="evenodd" clip-rule="evenodd" d="M4.97266 40.5723C5.79266 40.2323 6.61359 39.4621 7.68359 38.9121C8.70211 38.3662 9.76198 37.9018 10.8535 37.5225C13.3999 36.7234 16.0682 36.3848 18.7334 36.5225C22.3308 36.6612 25.8082 37.8536 28.7334 39.9521C30.2334 40.9521 30.653 41.6727 31.373 42.0127C31.5017 32.4862 33.804 23.1144 38.1035 14.6123C38.5335 13.7523 39.513 12.0725 39.793 11.2725C32.403 12.0625 23.3628 16.7025 17.8428 21.2725C14.8983 23.692 12.3009 26.5044 10.123 29.6318C8.64305 31.7018 5.41266 37.4323 4.97266 40.5723Z" fill="#AFC3D5"/>
<path fill-rule="evenodd" clip-rule="evenodd" d="M73.8428 71.292C75.4528 71.242 76.5029 71.082 76.5029 69.502V50.3926H83.4531V69.502C83.4531 71.082 84.5035 71.2422 86.0635 71.2422L80.0635 77.3721L73.873 71.292H73.8428ZM73.0234 48.6524V67.7628C70.4134 67.7628 67.8135 67.232 67.8135 69.502C67.8135 70.802 72.4227 74.872 73.5127 75.962C81.0327 83.482 78.9136 83.482 86.4336 75.962C87.5336 74.862 92.1328 70.802 92.1328 69.502C92.1328 67.232 89.5329 67.7628 86.9229 67.7628V48.6524C86.9392 48.4197 86.9059 48.1863 86.8242 47.9678C86.7425 47.7493 86.6142 47.5507 86.4492 47.3858C86.2843 47.2208 86.0867 47.0934 85.8682 47.0118C85.6497 46.9301 85.4163 46.8959 85.1836 46.9122H74.7627C74.53 46.8959 74.2966 46.9301 74.0781 47.0118C73.8596 47.0934 73.661 47.2208 73.4961 47.3858C73.3311 47.5507 73.2037 47.7493 73.1221 47.9678C73.0404 48.1863 73.0071 48.4197 73.0234 48.6524Z" fill="#1C2A40"/>
<path fill-rule="evenodd" clip-rule="evenodd" d="M11.293 71.292C12.903 71.242 13.9531 71.082 13.9531 69.502V50.3926H20.9531V69.502C20.9531 71.082 22.0035 71.2422 23.5635 71.2422L17.5635 77.3721L11.373 71.292H11.293ZM10.4727 48.6524V67.7628C7.86266 67.7628 5.2627 67.232 5.2627 69.502C5.2627 70.802 9.87289 74.872 10.9629 75.962C18.4829 83.482 16.3628 83.482 23.8828 75.962L26.8828 72.962C27.6428 72.202 29.543 70.772 29.543 69.542C29.543 67.272 26.943 67.8028 24.333 67.8028V48.6924C24.3493 48.4597 24.316 48.2264 24.2344 48.0079C24.1527 47.7894 24.0243 47.5908 23.8594 47.4258C23.6944 47.2609 23.4958 47.1335 23.2773 47.0518C23.0588 46.9701 22.8255 46.9359 22.5928 46.9522H12.2031C11.9756 46.9394 11.7483 46.9741 11.5352 47.0547C11.322 47.1354 11.1279 47.2598 10.9658 47.42C10.8037 47.5802 10.6769 47.7732 10.5938 47.9854C10.5106 48.1976 10.4733 48.4247 10.4834 48.6524H10.4727Z" fill="#1C2A40"/>
<path fill-rule="evenodd" clip-rule="evenodd" d="M38.6533 94.423L41.1533 96.813L58.7433 79.333L56.1333 76.833L38.6533 94.423Z" fill="#1C2A40"/>
<path fill-rule="evenodd" clip-rule="evenodd" d="M41.7529 79.9326C41.7529 77.7426 45.2227 77.7426 45.2227 79.9326C45.2227 82.1226 41.7529 82.1226 41.7529 79.9326ZM38.2734 79.502C38.2734 87.072 48.6934 87.072 48.6934 79.502C48.6934 76.842 46.413 74.7227 43.043 74.7227C41.8063 74.8089 40.6432 75.3383 39.7666 76.2148C38.8901 77.0914 38.3597 78.2556 38.2734 79.4922V79.502Z" fill="#1C2A40"/>
<path fill-rule="evenodd" clip-rule="evenodd" d="M52.2031 93.8223C52.2031 91.6323 55.6836 91.6323 55.6836 93.8223C55.6836 96.0123 52.2031 96.0123 52.2031 93.8223ZM48.7334 93.3926C48.7334 100.963 59.1533 100.963 59.1533 93.3926C59.1533 90.7326 56.8729 88.6123 53.5029 88.6123C52.2594 88.6918 51.0871 89.2203 50.2041 90.0996C49.3211 90.9789 48.7879 92.1494 48.7031 93.3926H48.7334Z" fill="#1C2A40"/>
<path fill-rule="evenodd" clip-rule="evenodd" d="M45.2031 7.07229L52.1436 7.01272C51.8336 2.31272 45.5831 2.24229 45.2031 7.07229Z" fill="#AFC3D5"/>
</svg>
