<svg width="99" height="112" viewBox="0 0 99 112" fill="none" xmlns="http://www.w3.org/2000/svg">
<path fill-rule="evenodd" clip-rule="evenodd" d="M1.86035 29.6602H39.4303L41.4303 38.0402L54.2403 39.4102V95.1602H1.86035V29.6602Z" fill="#AFC3D5"/>
<path fill-rule="evenodd" clip-rule="evenodd" d="M20.4302 58.6596L15.9902 62.9696L24.2402 71.7896L40.4302 56.9096L36.8003 52.8496L25.1202 63.0996L20.4302 58.6596Z" fill="#FEFEFE"/>
<path d="M96.3604 10.6602H39.8604V20.7902H96.3604V10.6602Z" fill="#AFC3D5"/>
<path fill-rule="evenodd" clip-rule="evenodd" d="M48.21 107.739H8.20996C6.96996 107.655 5.80266 107.125 4.92383 106.246C4.04499 105.367 3.51388 104.2 3.42969 102.96V97.0996H52.9502C52.9502 99.9296 53.36 103.97 51.71 105.85C51.2845 106.393 50.7511 106.842 50.1436 107.169C49.536 107.496 48.8673 107.694 48.1797 107.75L48.21 107.739ZM45.3799 0.0195312C44.3026 0.0890151 43.252 0.384459 42.2959 0.885742C41.3398 1.38703 40.4999 2.08313 39.8301 2.92969C38.4201 4.79969 38.0098 6.64004 38.0098 9.79004V16.0898H8.69043C3.95043 16.0898 0 20.0898 0 24.3398V102.96C0 107.19 4.08 111.21 8 111.21H48.1904C49.3538 111.146 50.4913 110.847 51.5361 110.331C52.581 109.815 53.5117 109.094 54.2705 108.21C55.8663 106.242 56.6433 103.735 56.4404 101.21V90.1299H80.7598C84.6698 90.1299 88.1396 87.4294 88.1396 83.6094V41.04H91.4004C95.0704 41.04 98.5703 37.3892 98.5703 33.6592V7.37988C98.4938 5.44704 97.691 3.61389 96.3232 2.24609C94.9555 0.878301 93.1233 0.0764658 91.1904 0L45.3799 0.0195312ZM3.46973 31.0801H38C38 34.1701 38.3502 36.2601 39.7002 38.0801C42.6502 42.0201 47.4205 41.0801 52.9805 41.0801V93.6396H3.45996V31.0898L3.46973 31.0801ZM80.79 86.6797H56.4697V74.7393H84.7002V83.4297C84.7002 85.5197 82.93 86.6895 80.79 86.6895V86.6797ZM56.4697 67.3496H82.0996C82.9944 67.2486 83.8723 67.0297 84.71 66.6992V71.2598H56.4805V67.3496H56.4697ZM81.8799 63.8799H56.4697V48.2393H84.7002V61.0498C84.6241 61.7717 84.3023 62.4457 83.7891 62.959C83.2758 63.4723 82.6018 63.793 81.8799 63.8691V63.8799ZM56.4697 41.0801H84.7002V44.7695H56.4697V41.0801ZM41.4697 31.96V22.3994H95.1104V33.4795C95.1119 34.5378 94.7071 35.5567 93.9795 36.3252C93.2519 37.0937 92.257 37.553 91.2002 37.6094H45.2002C42.7902 37.6094 41.5098 34.83 41.5098 31.96H41.4697ZM3.46973 24.3594C3.56638 23.0491 4.1598 21.8257 5.12793 20.9375C6.09606 20.0493 7.36593 19.5638 8.67969 19.5801H38V27.5801H3.46973V24.3193V24.3594ZM41.4697 18.2793V12.1992H95.1104V18.9297H42.1104C41.6104 18.9297 41.46 18.7793 41.46 18.2793H41.4697ZM45.5996 3.50977H91.4199C92.4026 3.65361 93.3067 4.12972 93.9805 4.85938C95.1605 6.10938 95.1104 7.13949 95.1104 8.72949H41.4697C41.4178 7.46376 41.7679 6.21378 42.4697 5.15918C42.8331 4.66186 43.3048 4.25407 43.8486 3.96484C44.3924 3.67562 44.9949 3.51255 45.6104 3.48926L45.5996 3.50977Z" fill="#1C2A40"/>
<path fill-rule="evenodd" clip-rule="evenodd" d="M27.1504 44.7594C33.2604 44.7594 36.7396 46.0195 40.8896 50.1295C51.8896 61.0495 43.2096 79.9391 28.8896 79.9391C26.0791 80.0748 23.2788 79.5228 20.7305 78.3297C19.7609 77.899 18.8418 77.3618 17.9902 76.7291C11.5002 72.4391 8.68965 63.0995 11.8896 55.5495C12.5012 54.0778 13.3089 52.6949 14.29 51.4391C17.06 48.0791 21.5102 44.7594 27.1602 44.7594H27.1504ZM7.15039 60.609C7.15039 65.099 7.15023 67.5294 9.24023 71.7594C10.3227 73.8986 11.7633 75.8361 13.5 77.4889C15.5096 79.4267 17.8832 80.9475 20.4834 81.9635C23.0836 82.9796 25.8594 83.4707 28.6504 83.4088C41.9804 83.4088 53.7605 69.2191 47.5205 53.8991C46.5051 51.5846 45.1012 49.4604 43.3701 47.6188C41.5815 45.925 39.5613 44.4941 37.3701 43.3688C34.5194 41.9896 31.3972 41.2621 28.2305 41.2379C25.0637 41.2137 21.9311 41.8937 19.0596 43.2291C14.8146 45.3136 11.3593 48.7169 9.20996 52.9293C8.02095 55.3233 7.32408 57.9313 7.16016 60.5993L7.15039 60.609Z" fill="#1C2A40"/>
<path fill-rule="evenodd" clip-rule="evenodd" d="M25.04 70.0001L18.04 63.1592L20.54 60.5499L22.71 63.2598C23.35 63.9298 24.3601 65.5899 25.3701 65.5899C26.8101 65.5899 27.4802 64.0801 28.2402 63.2501L36.0098 54.7295C36.8037 55.3153 37.5312 55.986 38.1797 56.7295L24.9902 70.0294L25.04 70.0001ZM25.4199 61.2598C25.2199 60.4998 24.9399 60.5094 24.4199 59.8594C20.8199 55.3494 20.97 55.1697 17 59.1397C16.5 59.6397 13.9102 62.2994 13.9102 62.7794C13.9102 64.6394 16.78 66.5394 18.96 68.7794C20.04 69.8994 23.4605 73.7797 24.4805 74.1397C25.7305 74.5897 27.2005 72.6001 28.4805 71.2901L35.6504 64.1192C44.0804 55.6892 43.8504 57.4398 39.6504 53.2598C35.2004 48.8098 35.7699 50.1298 33.1299 52.7198L28 58.4493C27.72 58.8893 25.7202 61.0598 25.4102 61.2598H25.4199Z" fill="#1C2A40"/>
<path fill-rule="evenodd" clip-rule="evenodd" d="M23.45 103.83H33.2196C35.5896 103.83 35.9203 100.35 33.4403 100.35H22.5799C22.3638 100.382 22.1562 100.458 21.9705 100.573C21.7849 100.688 21.625 100.84 21.4998 101.02C20.8698 101.9 21.04 103.83 23.45 103.83Z" fill="#1C2A40"/>
<path fill-rule="evenodd" clip-rule="evenodd" d="M61.8896 28.8994C61.8896 29.6194 61.7899 31.0693 63.6299 31.0693H72.75C75.91 31.0693 75.3497 27.5898 73.1797 27.5898H63.6201C62.8401 27.5998 61.8896 28.1994 61.8896 28.8994Z" fill="#1C2A40"/>
<path fill-rule="evenodd" clip-rule="evenodd" d="M44.5205 28.8994C44.5205 30.0294 44.7798 31.0693 46.2598 31.0693H55.8203C56.2818 31.0693 56.7245 30.8859 57.0508 30.5596C57.3771 30.2333 57.5596 29.7916 57.5596 29.3301C57.5596 28.8686 57.3771 28.4259 57.0508 28.0996C56.7245 27.7733 56.2818 27.5898 55.8203 27.5898H46.2598C45.4598 27.5998 44.5205 28.1994 44.5205 28.8994Z" fill="#1C2A40"/>
<path fill-rule="evenodd" clip-rule="evenodd" d="M78.4004 29.3398C78.4639 29.824 78.7019 30.2683 79.0703 30.5889C79.4387 30.9094 79.9121 31.0842 80.4004 31.0801H89.7402C90.2017 31.0801 90.6444 30.8966 90.9707 30.5703C91.297 30.244 91.4805 29.8013 91.4805 29.3398C91.4805 28.8784 91.297 28.4357 90.9707 28.1094C90.6444 27.7831 90.2017 27.5996 89.7402 27.5996H79.9697C79.5534 27.6772 79.1743 27.8897 78.8906 28.2041C78.6069 28.5185 78.4349 28.9177 78.4004 29.3398Z" fill="#1C2A40"/>
</svg>
