<svg width="92" height="92" viewBox="0 0 92 92" fill="none" xmlns="http://www.w3.org/2000/svg">
<path fill-rule="evenodd" clip-rule="evenodd" d="M45.5901 4.50429e-05C51.5785 -0.00838661 57.5095 1.16701 63.0423 3.45805C68.5751 5.74909 73.6007 9.11119 77.8301 13.3506C82.07 17.5797 85.4321 22.6048 87.7232 28.1377C90.0143 33.6706 91.1892 39.6014 91.1802 45.5899C91.1887 51.5783 90.0135 57.5092 87.7225 63.042C85.4314 68.5749 82.0696 73.6007 77.8301 77.8301C73.6007 82.0696 68.5751 85.4317 63.0423 87.7227C57.5095 90.0137 51.5785 91.1882 45.5901 91.1797C39.6017 91.1882 33.6708 90.0137 28.138 87.7227C22.6052 85.4317 17.5796 82.0696 13.3501 77.8301C9.1107 73.6007 5.74885 68.5749 3.45781 63.042C1.16678 57.5092 -0.00838057 51.5783 5.10847e-05 45.5899C-0.00892858 39.6014 1.16601 33.6706 3.45708 28.1377C5.74815 22.6048 9.11026 17.5797 13.3501 13.3506C17.5796 9.11119 22.6052 5.74909 28.138 3.45805C33.6708 1.16701 39.6017 -0.00838661 45.5901 4.50429e-05ZM74.3401 16.8399C70.5706 13.0548 66.09 10.0523 61.1561 8.00493C56.2221 5.95754 50.932 4.90598 45.5901 4.9102C40.2496 4.90336 34.9603 5.95221 30.0264 7.99614C25.0925 10.0401 20.6113 13.0389 16.8401 16.8204C13.0587 20.5915 10.0598 25.073 8.01592 30.0069C5.972 34.9408 4.92338 40.2299 4.93023 45.5704C4.92338 50.9109 5.972 56.1999 8.01592 61.1338C10.0598 66.0677 13.0587 70.5492 16.8401 74.3204C20.6113 78.1018 25.0925 81.1007 30.0264 83.1446C34.9603 85.1885 40.2496 86.2374 45.5901 86.2305C50.9306 86.2374 56.22 85.1885 61.1539 83.1446C66.0878 81.1007 70.569 78.1018 74.3401 74.3204C78.1216 70.5492 81.1204 66.0677 83.1644 61.1338C85.2083 56.1999 86.2569 50.9109 86.2501 45.5704C86.2516 40.2294 85.1978 34.941 83.1487 30.0088C81.0997 25.0766 78.0958 20.5976 74.3101 16.8301L74.3401 16.8399Z" fill="#AEC2D4"/>
<path fill-rule="evenodd" clip-rule="evenodd" d="M43.9989 50.3291C44.1518 50.3268 44.3042 50.3508 44.4491 50.3994C44.5907 50.4481 44.7202 50.526 44.829 50.6289C44.9391 50.7318 45.0246 50.8584 45.079 50.999C45.1328 51.1394 45.16 51.2891 45.1591 51.4395V53.1494H35.4291V52.0391C35.4194 51.9393 35.4194 51.839 35.4291 51.7393C35.4512 51.6371 35.4811 51.5369 35.5189 51.4395C35.5597 51.3301 35.6136 51.2255 35.6791 51.1289C35.7459 51.031 35.823 50.941 35.9091 50.8594L39.9091 46.8594L40.369 46.3691L40.7789 45.9092C40.8989 45.7692 41.019 45.6195 41.119 45.4795C41.219 45.3395 41.3191 45.1888 41.3991 45.0488C41.4766 44.9127 41.5466 44.7726 41.609 44.6289C41.6708 44.4923 41.7242 44.3521 41.7689 44.209C41.8094 44.0714 41.8396 43.9311 41.859 43.7891C41.8689 43.6392 41.8689 43.4887 41.859 43.3389C41.8693 43.2091 41.8693 43.079 41.859 42.9492C41.8425 42.8435 41.8156 42.7401 41.7789 42.6396C41.745 42.5486 41.7016 42.4607 41.6491 42.3789C41.6004 42.3028 41.5432 42.2324 41.4789 42.1689C41.415 42.108 41.3446 42.0542 41.2689 42.0088C41.1904 41.9594 41.1066 41.92 41.0189 41.8896L40.7189 41.8193H40.359H40.0289L39.7389 41.8896L39.4689 41.999L39.2389 42.1494C39.1674 42.2038 39.1006 42.2637 39.0389 42.3291C38.9771 42.3947 38.9203 42.4649 38.869 42.5391C38.8194 42.612 38.7758 42.6894 38.7389 42.7695C38.7015 42.8535 38.6716 42.9402 38.6491 43.0293C38.5961 43.1853 38.5221 43.3328 38.4291 43.4688C38.3393 43.5953 38.2233 43.7016 38.089 43.7793C37.7966 43.9193 37.4659 43.9584 37.1491 43.8896C36.6314 43.8261 36.1174 43.7355 35.609 43.6191L35.6591 43.2695C35.7032 42.951 35.7734 42.6362 35.869 42.3291C35.9573 42.0381 36.0744 41.7569 36.2189 41.4893C36.3563 41.2381 36.5173 41.0004 36.6991 40.7793C36.8757 40.5635 37.0731 40.366 37.2889 40.1895C37.5034 40.014 37.7344 39.86 37.9789 39.7295C38.228 39.5954 38.4892 39.4849 38.7589 39.3994C39.0336 39.3143 39.3145 39.2504 39.599 39.209C39.8939 39.1681 40.1912 39.1485 40.4889 39.1494C40.8003 39.1478 41.1114 39.1706 41.4191 39.2188C41.7119 39.2655 41.9996 39.3399 42.2789 39.4395C42.5429 39.5315 42.7974 39.6484 43.0389 39.7891C43.2713 39.9267 43.4892 40.088 43.6891 40.2695C43.8872 40.4495 44.0647 40.6503 44.2189 40.8691C44.3724 41.0886 44.5032 41.3233 44.609 41.5693C44.8338 42.1006 44.9462 42.6723 44.9391 43.249C44.9383 43.5002 44.9182 43.7509 44.879 43.999C44.8437 44.2403 44.7869 44.4779 44.7091 44.709C44.5562 45.1516 44.3514 45.5743 44.099 45.9688C43.969 46.1688 43.8391 46.3588 43.6891 46.5488C43.5391 46.7388 43.3889 46.9194 43.2189 47.1094L42.7289 47.6396L42.2091 48.1787L40.099 50.3389H40.2189H40.639L43.9989 50.3291ZM29.7389 26.5693C29.5383 26.5027 29.3548 26.3932 29.2011 26.248C29.0473 26.1029 28.9272 25.9259 28.849 25.7295C28.7175 25.385 28.7175 25.0037 28.849 24.6592C28.9685 24.3123 29.2102 24.0205 29.5289 23.8389C29.7073 23.7354 29.9058 23.6711 30.111 23.6504C30.3162 23.6297 30.5234 23.653 30.7189 23.7188C30.9017 23.7798 31.0713 23.875 31.2189 23.999C31.3682 24.1217 31.4938 24.2713 31.589 24.4395C31.6894 24.6173 31.7512 24.8142 31.7701 25.0176C31.7891 25.2209 31.7649 25.4258 31.6991 25.6191C31.6331 25.8213 31.5236 26.0067 31.3785 26.1621C31.2335 26.3176 31.0561 26.4397 30.859 26.5195C30.6874 26.5908 30.5046 26.6315 30.319 26.6396C30.1323 26.6459 29.946 26.6187 29.7689 26.5596L29.7389 26.5693ZM44.9889 60.4287C44.6192 60.2778 44.3246 59.9869 44.1691 59.6191C44.0185 59.2506 44.0185 58.8373 44.1691 58.4688C44.2434 58.2854 44.3531 58.1192 44.4921 57.9785C44.6311 57.8378 44.7965 57.7259 44.9789 57.6494C45.3472 57.4977 45.7607 57.4977 46.129 57.6494C46.4987 57.8004 46.7936 58.0912 46.9491 58.459C47.1008 58.8273 47.1008 59.241 46.9491 59.6094C46.8748 59.7927 46.7649 59.9589 46.6259 60.0996C46.4868 60.2403 46.3215 60.3522 46.139 60.4287C45.9568 60.5044 45.7614 60.5439 45.5641 60.5439C45.3668 60.5439 45.1712 60.5044 44.9889 60.4287ZM65.299 45.6689C65.1004 45.6678 64.9035 45.7067 64.7199 45.7822C64.5362 45.8578 64.3692 45.9689 64.2289 46.1094C64.0884 46.2497 63.9773 46.4159 63.9017 46.5996C63.8262 46.7833 63.7878 46.9801 63.7889 47.1787C63.7913 51.81 62.0243 56.2682 58.849 59.6396C55.7654 62.9353 51.5668 64.9661 47.069 65.3389V63.7393C47.0785 63.4471 46.9958 63.1594 46.8324 62.917C46.669 62.6746 46.4334 62.4904 46.1591 62.3896C45.9676 62.3162 45.764 62.2786 45.559 62.2793C45.3539 62.2786 45.1506 62.3162 44.9591 62.3896C44.6848 62.4904 44.4491 62.6746 44.2858 62.917C44.1224 63.1594 44.0394 63.4471 44.049 63.7393V65.3389C39.7528 64.9826 35.7232 63.1119 32.6791 60.0596C29.6246 57.0129 27.753 52.9784 27.3991 48.6787H28.9491C29.2412 48.6882 29.5288 48.6058 29.7711 48.4424C30.0135 48.279 30.1982 48.0439 30.299 47.7695C30.3724 47.578 30.4098 47.374 30.4091 47.1689C30.41 46.9638 30.3726 46.7608 30.299 46.5693C30.1995 46.2941 30.0153 46.0571 29.7726 45.8936C29.5299 45.73 29.2415 45.6481 28.9491 45.6592H27.3991C27.753 41.3595 29.6246 37.326 32.6791 34.2793C35.7232 31.2269 39.7528 29.3553 44.049 28.999V30.6787C44.0486 30.9755 44.1394 31.2652 44.309 31.5088C44.4531 31.7152 44.6453 31.8836 44.869 31.999C45.0911 32.1161 45.338 32.1775 45.589 32.1787C45.8857 32.179 46.1755 32.0885 46.4191 31.9189L56.2889 25.0889C56.4338 24.9892 56.5594 24.8636 56.6591 24.7188C56.8359 24.4632 56.9301 24.1604 56.9291 23.8496C56.9301 23.5388 56.8359 23.2351 56.6591 22.9795C56.5592 22.8347 56.4337 22.7093 56.2889 22.6094L46.4191 15.7793C46.1755 15.6097 45.8857 15.5192 45.589 15.5195C45.3381 15.5211 45.0912 15.5825 44.869 15.6992C44.6453 15.8147 44.4531 15.9831 44.309 16.1895C44.14 16.4333 44.0493 16.7229 44.049 17.0195V18.7695C42.2995 18.8585 40.5621 19.1096 38.859 19.5195C37.0566 19.9562 35.3014 20.5692 33.619 21.3496C33.3491 21.4624 33.1215 21.6567 32.9689 21.9063C32.8163 22.1558 32.7463 22.4476 32.7689 22.7393C32.7824 22.9435 32.8333 23.1433 32.9191 23.3291C33.004 23.5159 33.1225 23.6854 33.2689 23.8291C33.4768 24.0349 33.7445 24.17 34.0336 24.2148C34.3226 24.2597 34.6185 24.2122 34.879 24.0791C36.5437 23.3086 38.2872 22.7218 40.079 22.3291C41.879 21.9353 43.7164 21.7377 45.559 21.7393C45.7575 21.7399 45.9542 21.7015 46.1378 21.626C46.3214 21.5505 46.4884 21.4389 46.629 21.2988C46.7691 21.1582 46.88 20.9912 46.9555 20.8076C47.031 20.624 47.0696 20.428 47.069 20.2295V19.8896L52.7889 23.8896L47.069 27.8896V27.5195C47.0696 27.321 47.031 27.124 46.9555 26.9404C46.88 26.7568 46.7691 26.5899 46.629 26.4492C46.4884 26.3091 46.3214 26.1985 46.1378 26.123C45.9542 26.0475 45.7575 26.0082 45.559 26.0088C42.7718 26.0092 40.0121 26.5598 37.4381 27.6289C34.8641 28.698 32.5263 30.2649 30.559 32.2393C28.5846 34.2066 27.0179 36.5441 25.9489 39.1182C24.8798 41.6922 24.3294 44.4521 24.329 47.2393C24.3294 50.0265 24.8798 52.7863 25.9489 55.3604C27.0179 57.9344 28.5846 60.2719 30.559 62.2393C32.5263 64.2136 34.8641 65.7805 37.4381 66.8496C40.0121 67.9187 42.7718 68.4684 45.559 68.4688C50.9839 68.4717 56.203 66.3924 60.139 62.6592C64.0127 59.0101 66.3721 54.0379 66.7489 48.7295H70.9491C70.7756 51.7522 70.0608 54.719 68.839 57.4893C67.5654 60.3685 65.7683 62.9859 63.5389 65.209C61.1828 67.5764 58.3826 69.4559 55.299 70.7393C52.2102 72.0137 48.9003 72.6661 45.559 72.6592C42.2176 72.6661 38.9078 72.0137 35.819 70.7393C32.7353 69.4559 29.9352 67.5764 27.579 65.209C25.2107 62.8497 23.3314 60.0461 22.049 56.959C20.7745 53.8702 20.1222 50.5601 20.129 47.2188C20.1237 43.8552 20.7865 40.5243 22.079 37.4189C23.3756 34.316 25.2758 31.5022 27.6691 29.1396C27.8859 28.9419 28.0346 28.68 28.0939 28.3926C28.1532 28.1052 28.1198 27.8064 27.9989 27.5391C27.918 27.3495 27.8029 27.1769 27.6591 27.0293C27.5158 26.8824 27.3462 26.7631 27.1591 26.6787C26.8937 26.5554 26.596 26.5195 26.3087 26.5752C26.0214 26.6309 25.7591 26.7757 25.559 26.9893C22.8833 29.6318 20.7589 32.7791 19.309 36.249C17.8587 39.7344 17.1176 43.4739 17.129 47.249C17.1229 50.9851 17.8534 54.6863 19.2789 58.1396C20.7118 61.5929 22.8121 64.7289 25.4591 67.3691C28.0993 70.0162 31.2359 72.116 34.6891 73.5488C38.1424 74.9746 41.8429 75.7056 45.579 75.6992C49.315 75.7056 53.0156 74.9746 56.4689 73.5488C59.922 72.1158 63.0587 70.016 65.6991 67.3691C68.3462 64.7289 70.4462 61.5929 71.879 58.1396C73.3048 54.6863 74.0353 50.9851 74.0289 47.249C74.0301 47.0504 73.9919 46.8536 73.9164 46.6699C73.8409 46.4862 73.7295 46.3191 73.589 46.1787C73.4487 46.0382 73.2817 45.9271 73.098 45.8516C72.9144 45.776 72.7175 45.7381 72.5189 45.7393L65.299 45.6689ZM51.6991 47.4688H48.809L51.7091 43.4688V47.4688H51.6991ZM56.0389 47.8389V49.1396C56.0377 49.2425 56.0173 49.344 55.9789 49.4395C55.943 49.5357 55.8887 49.6238 55.819 49.6992C55.7398 49.7883 55.6403 49.8571 55.5289 49.8994C55.4237 49.9399 55.3119 49.9598 55.1991 49.959H54.369V53.1592H51.6791V49.959H46.589C46.473 49.9588 46.3579 49.939 46.2489 49.8994C46.1398 49.8605 46.0385 49.8031 45.9491 49.7295C45.8623 49.659 45.7877 49.5745 45.7289 49.4795C45.6719 49.3836 45.6314 49.2783 45.609 49.1689L45.339 47.8691C47.4723 45.0091 49.6123 42.1522 51.7589 39.2988H54.4291V47.4688H56.079L56.0389 47.8389Z" fill="#1C2A40"/>
</svg>
