<svg width="60" height="59" viewBox="0 0 60 59" fill="none" xmlns="http://www.w3.org/2000/svg">
<path fill-rule="evenodd" clip-rule="evenodd" d="M30.1406 57.3698C35.6291 57.3698 40.9943 55.7425 45.5577 52.6933C50.1212 49.6441 53.678 45.3101 55.7783 40.2395C57.8787 35.1688 58.4282 29.5892 57.3574 24.2063C56.2867 18.8233 53.6437 13.8787 49.7628 9.99777C45.8819 6.11686 40.9373 3.47378 35.5543 2.40304C30.1713 1.3323 24.5918 1.88205 19.5211 3.98239C14.4505 6.08272 10.1166 9.63938 7.06738 14.2028C4.01817 18.7663 2.39062 24.1314 2.39062 29.6198C2.40384 36.9755 5.33169 44.0262 10.533 49.2275C15.7342 54.4288 22.7849 57.3566 30.1406 57.3698V57.3698Z" stroke="#585F69" stroke-width="2.8346" stroke-miterlimit="22.9256"/>
<path d="M28.2479 37.6569C27.5326 37.6569 26.8801 37.5628 26.2903 37.3746C25.7005 37.1801 25.1954 36.9103 24.775 36.5652C24.3546 36.2138 24.0283 35.7903 23.7961 35.2946C23.564 34.7989 23.4479 34.2467 23.4479 33.6381C23.4479 32.86 23.6361 32.1949 24.0126 31.6428C24.3891 31.0843 24.9914 30.6671 25.8197 30.391C25.1734 30.1086 24.6903 29.7133 24.3703 29.2051C24.0565 28.6969 23.8997 28.0914 23.8997 27.3886C23.8997 26.8615 24.0063 26.3753 24.2197 25.9298C24.433 25.478 24.731 25.089 25.1138 24.7627C25.5028 24.4302 25.964 24.1698 26.4973 23.9815C27.0307 23.7933 27.6142 23.6992 28.2479 23.6992C28.8817 23.6992 29.4652 23.7933 29.9985 23.9815C30.5319 24.1698 30.9899 24.4302 31.3727 24.7627C31.7617 25.089 32.0629 25.478 32.2762 25.9298C32.4895 26.3753 32.5962 26.8615 32.5962 27.3886C32.5962 28.0914 32.4362 28.6969 32.1162 29.2051C31.7962 29.7133 31.3162 30.1086 30.6762 30.391C31.4982 30.6671 32.0974 31.0843 32.4739 31.6428C32.8566 32.1949 33.048 32.86 33.048 33.6381C33.048 34.2467 32.9319 34.7989 32.6997 35.2946C32.4676 35.7903 32.1413 36.2138 31.7209 36.5652C31.3005 36.9103 30.7954 37.1801 30.2056 37.3746C29.6158 37.5628 28.9632 37.6569 28.2479 37.6569ZM28.2479 35.671C28.6056 35.671 28.9162 35.6177 29.1797 35.511C29.4495 35.4044 29.6723 35.2601 29.848 35.0781C30.0236 34.8899 30.1554 34.6702 30.2432 34.4193C30.3311 34.162 30.375 33.8859 30.375 33.591C30.375 32.9134 30.1993 32.3894 29.848 32.0192C29.5028 31.6428 28.9695 31.4545 28.2479 31.4545C27.5264 31.4545 26.9899 31.6428 26.6385 32.0192C26.2934 32.3894 26.1209 32.9134 26.1209 33.591C26.1209 33.8859 26.1648 34.162 26.2526 34.4193C26.3405 34.6702 26.4722 34.8899 26.6479 35.0781C26.8236 35.2601 27.0432 35.4044 27.3068 35.511C27.5766 35.6177 27.8903 35.671 28.2479 35.671ZM28.2479 29.4498C28.6056 29.4498 28.9005 29.3933 29.1326 29.2804C29.3648 29.1674 29.5499 29.0169 29.6879 28.8286C29.826 28.6404 29.9232 28.427 29.9797 28.1886C30.0362 27.9439 30.0644 27.6929 30.0644 27.4357C30.0644 27.1972 30.0299 26.9682 29.9609 26.7486C29.8919 26.529 29.7821 26.3376 29.6315 26.1745C29.4872 26.0051 29.2989 25.8702 29.0668 25.7698C28.8409 25.6694 28.5679 25.6192 28.2479 25.6192C27.9279 25.6192 27.6519 25.6694 27.4197 25.7698C27.1938 25.8702 27.0056 26.0051 26.855 26.1745C26.7107 26.3376 26.604 26.529 26.535 26.7486C26.466 26.9682 26.4314 27.1972 26.4314 27.4357C26.4314 27.6929 26.4597 27.9439 26.5162 28.1886C26.5726 28.427 26.6699 28.6404 26.8079 28.8286C26.946 29.0169 27.1311 29.1674 27.3632 29.2804C27.5954 29.3933 27.8903 29.4498 28.2479 29.4498ZM40.8142 27.1533C40.8142 27.6616 40.7264 28.1227 40.5507 28.5369C40.375 28.951 40.1366 29.3086 39.8354 29.6098C39.5405 29.9047 39.1985 30.1337 38.8095 30.2969C38.4205 30.4537 38.0158 30.5322 37.5954 30.5322C37.1311 30.5322 36.7044 30.4537 36.3154 30.2969C35.9263 30.1337 35.5875 29.9047 35.2989 29.6098C35.0165 29.3086 34.7938 28.951 34.6306 28.5369C34.4738 28.1227 34.3953 27.6616 34.3953 27.1533C34.3953 26.6262 34.4738 26.1525 34.6306 25.7321C34.7938 25.3055 35.0165 24.9447 35.2989 24.6498C35.5875 24.3486 35.9263 24.1164 36.3154 23.9533C36.7044 23.7901 37.1311 23.7086 37.5954 23.7086C38.0597 23.7086 38.4895 23.7901 38.8848 23.9533C39.2801 24.1164 39.6189 24.3486 39.9013 24.6498C40.1899 24.9447 40.4127 25.3055 40.5695 25.7321C40.7327 26.1525 40.8142 26.6262 40.8142 27.1533ZM38.8189 27.1533C38.8189 26.8145 38.7875 26.5321 38.7248 26.3062C38.662 26.0741 38.5742 25.889 38.4613 25.7509C38.3546 25.6129 38.226 25.5157 38.0754 25.4592C37.9248 25.3964 37.7648 25.3651 37.5954 25.3651C37.426 25.3651 37.266 25.3964 37.1154 25.4592C36.9711 25.5157 36.8456 25.6129 36.7389 25.7509C36.6385 25.889 36.5569 26.0741 36.4942 26.3062C36.4377 26.5321 36.4095 26.8145 36.4095 27.1533C36.4095 27.4859 36.4377 27.7619 36.4942 27.9816C36.5569 28.2012 36.6385 28.38 36.7389 28.518C36.8456 28.6498 36.9711 28.7439 37.1154 28.8004C37.266 28.8569 37.426 28.8851 37.5954 28.8851C37.7648 28.8851 37.9248 28.8569 38.0754 28.8004C38.226 28.7439 38.3546 28.6498 38.4613 28.518C38.5742 28.38 38.662 28.2012 38.7248 27.9816C38.7875 27.7619 38.8189 27.4859 38.8189 27.1533ZM45.2378 24.2451C45.3256 24.1447 45.4292 24.0537 45.5484 23.9721C45.6739 23.8905 45.8464 23.8498 46.066 23.8498H47.9578L37.746 37.1299C37.6581 37.2365 37.5515 37.3275 37.426 37.4028C37.3005 37.4718 37.1467 37.5063 36.9648 37.5063H35.0353L45.2378 24.2451ZM48.5884 34.2969C48.5884 34.8051 48.5006 35.2663 48.3249 35.6804C48.1492 36.0946 47.9108 36.4522 47.6096 36.7534C47.3147 37.0483 46.9727 37.2773 46.5837 37.4405C46.1947 37.5973 45.79 37.6758 45.3696 37.6758C44.9052 37.6758 44.4786 37.5973 44.0895 37.4405C43.7005 37.2773 43.3617 37.0483 43.0731 36.7534C42.7907 36.4522 42.568 36.0946 42.4048 35.6804C42.248 35.2663 42.1695 34.8051 42.1695 34.2969C42.1695 33.7698 42.248 33.2961 42.4048 32.8757C42.568 32.449 42.7907 32.0883 43.0731 31.7934C43.3617 31.4922 43.7005 31.2632 44.0895 31.1063C44.4786 30.9432 44.9052 30.8616 45.3696 30.8616C45.8339 30.8616 46.2637 30.9432 46.659 31.1063C47.0543 31.2632 47.3931 31.4922 47.6755 31.7934C47.9641 32.0883 48.1868 32.449 48.3437 32.8757C48.5068 33.2961 48.5884 33.7698 48.5884 34.2969ZM46.5931 34.2969C46.5931 33.9581 46.5617 33.6757 46.499 33.4498C46.4362 33.2177 46.3484 33.0326 46.2355 32.8945C46.1288 32.7565 46.0002 32.6592 45.8496 32.6028C45.699 32.54 45.539 32.5087 45.3696 32.5087C45.2001 32.5087 45.0401 32.54 44.8896 32.6028C44.7452 32.6592 44.6198 32.7565 44.5131 32.8945C44.4127 33.0326 44.3311 33.2177 44.2684 33.4498C44.2119 33.6757 44.1837 33.9581 44.1837 34.2969C44.1837 34.6295 44.2119 34.9055 44.2684 35.1251C44.3311 35.3448 44.4127 35.5236 44.5131 35.6616C44.6198 35.7934 44.7452 35.8875 44.8896 35.944C45.0401 36.0005 45.2001 36.0287 45.3696 36.0287C45.539 36.0287 45.699 36.0005 45.8496 35.944C46.0002 35.8875 46.1288 35.7934 46.2355 35.6616C46.3484 35.5236 46.4362 35.3448 46.499 35.1251C46.5617 34.9055 46.5931 34.6295 46.5931 34.2969Z" fill="#1C2A40"/>
<path d="M49.7695 9.98999L10.5195 49.24" stroke="#585F69" stroke-width="2.8346" stroke-miterlimit="22.9256"/>
</svg>
