<svg width="44" height="44" viewBox="0 0 44 44" fill="none" xmlns="http://www.w3.org/2000/svg">
<path fill-rule="evenodd" clip-rule="evenodd" d="M21.7823 0.177756C24.617 0.173764 27.4246 0.730167 30.0437 1.81468C32.6628 2.8992 35.0417 4.49072 37.0438 6.49756C39.0509 8.4995 40.6424 10.8783 41.7269 13.4974C42.8115 16.1165 43.3677 18.924 43.3634 21.7587C43.3674 24.5935 42.8111 27.401 41.7266 30.0201C40.6421 32.6392 39.0507 35.0183 37.0438 37.0204C35.0417 39.0272 32.6628 40.6188 30.0437 41.7033C27.4246 42.7878 24.617 43.3437 21.7823 43.3397C18.9476 43.3437 16.14 42.7878 13.5209 41.7033C10.9018 40.6188 8.52286 39.0272 6.52077 37.0204C4.51393 35.0183 2.92252 32.6392 1.83801 30.0201C0.753492 27.401 0.197205 24.5935 0.201196 21.7587C0.196945 18.924 0.75313 16.1165 1.83766 13.4974C2.92219 10.8783 4.51372 8.4995 6.52077 6.49756C8.52286 4.49072 10.9018 2.8992 13.5209 1.81468C16.14 0.730167 18.9476 0.173764 21.7823 0.177756V0.177756ZM35.3918 8.14928C33.6074 6.35753 31.4864 4.93623 29.1508 3.96705C26.8152 2.99787 24.311 2.50009 21.7823 2.50209C19.2543 2.49885 16.7504 2.99535 14.4149 3.96289C12.0793 4.93043 9.958 6.35 8.17284 8.14003C6.3828 9.9252 4.96323 12.0466 3.99569 14.3822C3.02815 16.7178 2.53177 19.2215 2.53501 21.7495C2.53177 24.2776 3.02815 26.7813 3.99569 29.1168C4.96323 31.4524 6.3828 33.5738 8.17284 35.359C9.958 37.149 12.0793 38.5686 14.4149 39.5361C16.7504 40.5037 19.2543 41.0002 21.7823 40.9969C24.3104 41.0002 26.8142 40.5037 29.1497 39.5361C31.4853 38.5686 33.6066 37.149 35.3918 35.359C37.1818 33.5738 38.6014 31.4524 39.5689 29.1168C40.5365 26.7813 41.0328 24.2776 41.0296 21.7495C41.0304 19.2213 40.5315 16.7179 39.5615 14.3831C38.5915 12.0483 37.1696 9.92809 35.3776 8.14466L35.3918 8.14928Z" fill="#AEC2D4"/>
<path fill-rule="evenodd" clip-rule="evenodd" d="M27.0951 34.6595V31.3306C28.2351 31.9343 30.4077 31.9224 31.5336 31.3306V34.6595C31.1482 34.4553 29.6687 33.5499 29.4253 33.5499C28.8934 33.5499 28.6974 33.7429 28.1256 34.081C27.7712 34.2911 27.4443 34.4745 27.0951 34.6595ZM25.3197 26.0045C25.3369 25.4432 25.4625 24.8906 25.6896 24.3771C27.2105 21.2354 31.4189 21.2332 32.9391 24.3771C33.1755 24.887 33.298 25.4424 33.298 26.0045C33.298 26.5666 33.1755 27.122 32.9391 27.6319C31.4182 30.7743 27.2098 30.7743 25.6896 27.6319C25.4625 27.1184 25.3369 26.5657 25.3197 26.0045V26.0045ZM23.5444 25.6716C23.5444 24.9163 23.8402 24.0153 24.0992 23.5079C25.1096 21.4987 26.9842 20.2352 29.3136 20.2352V10.6926C29.3149 10.6631 29.31 10.6337 29.2993 10.6062C29.2886 10.5787 29.2723 10.5537 29.2514 10.5329C29.2305 10.512 29.2056 10.4957 29.1781 10.485C29.1506 10.4743 29.1212 10.4694 29.0917 10.4707H13.5571C13.5276 10.4694 13.4982 10.4743 13.4707 10.485C13.4432 10.4957 13.4183 10.512 13.3974 10.5329C13.3765 10.5537 13.3602 10.5787 13.3495 10.6062C13.3388 10.6337 13.3339 10.6631 13.3352 10.6926V31.1094C13.3339 31.1389 13.3388 31.1683 13.3495 31.1958C13.3602 31.2233 13.3765 31.2483 13.3974 31.2692C13.4183 31.29 13.4432 31.3063 13.4707 31.317C13.4982 31.3277 13.5276 31.3326 13.5571 31.3314H25.319C25.319 29.7365 25.4484 30.4821 24.6843 29.4702C24.4725 29.1913 24.2886 28.8922 24.1354 28.5773C23.6006 27.5062 23.5436 26.8456 23.5436 25.6738L23.5444 25.6716ZM11.5605 10.4167V31.3868C11.5605 32.1732 12.4941 33.1067 13.2804 33.1067H25.3197V36.3239C25.3197 36.7263 25.7044 37.1006 26.3184 37.1006C26.6683 37.1006 29.0806 35.5168 29.3136 35.5168C29.5622 35.5168 31.9286 37.1006 32.3088 37.1006C33.6137 37.1006 33.3075 35.8793 33.3075 34.5485C33.3075 33.5942 33.2586 31.2197 33.303 30.3838C33.3208 30.0583 33.4384 30.0916 33.6167 29.8659C34.6641 28.5344 35.0821 27.7207 35.0821 25.784C35.0821 24.4651 34.4474 23.158 33.8445 22.4175C33.1787 21.5964 32.1653 20.7649 31.0882 20.5141V13.7462C31.0882 12.715 31.1622 11.3532 31.0882 10.3634C31.052 9.90624 30.7805 9.52527 30.5216 9.26563C30.2745 9.01855 29.8359 8.69824 29.3698 8.69824H13.2819C12.4956 8.6975 11.562 9.63106 11.562 10.4174L11.5605 10.4167Z" fill="#1C2A40"/>
<path fill-rule="evenodd" clip-rule="evenodd" d="M16 17.4628C16 18.0767 16.3743 18.4614 16.7767 18.4614H24.5396C24.942 18.4614 25.3163 18.0767 25.3163 17.4628C25.3163 17.1166 24.8858 16.686 24.5396 16.686H16.7723C16.4091 16.686 16 17.0959 16 17.4628Z" fill="#1C2A40"/>
<path fill-rule="evenodd" clip-rule="evenodd" d="M16 13.912C16 14.526 16.3743 14.9106 16.7767 14.9106H24.5396C24.942 14.9106 25.3163 14.526 25.3163 13.912C25.3163 13.5658 24.8858 13.1353 24.5396 13.1353H16.7723C16.4298 13.136 16 13.5658 16 13.912Z" fill="#1C2A40"/>
<path fill-rule="evenodd" clip-rule="evenodd" d="M28.6477 26.116C28.1654 25.9873 28.2357 25.6167 27.4271 25.6167C26.9633 25.6167 26.6504 26.0324 26.6504 26.6153C26.6504 27.0725 27.2422 27.3995 27.5492 27.6029C29.2461 28.734 29.2239 28.4965 30.412 26.7152C30.8817 26.0102 31.5327 25.2734 31.5327 24.618C31.5327 24.2156 31.148 23.8413 30.534 23.8413C30.0162 23.8413 29.7003 24.5071 29.4799 24.84C29.2173 25.235 28.8674 25.704 28.6477 26.116Z" fill="#1C2A40"/>
<path fill-rule="evenodd" clip-rule="evenodd" d="M16 21.0126C16 21.6266 16.3743 22.0112 16.7767 22.0112H21.4371C21.8395 22.0112 22.2138 21.6266 22.2138 21.0126C22.2138 20.6664 21.7833 20.2358 21.4371 20.2358H16.7767C16.4091 20.2358 16 20.6457 16 21.0126Z" fill="#1C2A40"/>
</svg>
