<svg width="90" height="90" viewBox="0 0 90 90" fill="none" xmlns="http://www.w3.org/2000/svg">
<path fill-rule="evenodd" clip-rule="evenodd" d="M45 3.79949e-05C50.9107 -0.00765587 56.7646 1.15321 62.2254 3.41508C67.6861 5.67694 72.646 8.99587 76.8201 13.1807C81.0049 17.3548 84.3236 22.3147 86.5855 27.7754C88.8474 33.2362 90.0077 39.0894 90 45C90.0077 50.9107 88.8474 56.7649 86.5855 62.2256C84.3236 67.6864 81.0049 72.6463 76.8201 76.8204C72.646 81.0052 67.6861 84.3241 62.2254 86.586C56.7646 88.8478 50.9107 90.0077 45 90C39.0894 90.0077 33.2357 88.8478 27.7749 86.586C22.3142 84.3241 17.3543 81.0052 13.1802 76.8204C8.99538 72.6463 5.6767 67.6864 3.41483 62.2256C1.15297 56.7649 -0.00765586 50.9107 3.80029e-05 45C-0.00765586 39.0894 1.15297 33.2362 3.41483 27.7754C5.6767 22.3147 8.99538 17.3548 13.1802 13.1807C17.3543 8.99587 22.3142 5.67694 27.7749 3.41508C33.2357 1.15321 39.0894 -0.00765587 45 3.79949e-05ZM73.3802 16.6202C69.6573 12.8882 65.2335 9.92863 60.3631 7.91215C55.4926 5.89567 50.2714 4.86206 45 4.87016C39.7287 4.86206 34.5077 5.89567 29.6372 7.91215C24.7668 9.92863 20.3431 12.8882 16.6202 16.6202C12.8882 20.3431 9.92887 24.7673 7.91239 29.6377C5.89591 34.5082 4.86206 39.7287 4.87016 45C4.86206 50.2714 5.89591 55.4929 7.91239 60.3633C9.92887 65.2338 12.8882 69.657 16.6202 73.3799C20.3431 77.1119 24.7668 80.0714 29.6372 82.0879C34.5077 84.1044 39.7287 85.138 45 85.1299C50.2714 85.138 55.4926 84.1044 60.3631 82.0879C65.2335 80.0714 69.6573 77.1119 73.3802 73.3799C77.1121 69.657 80.0714 65.2338 82.0879 60.3633C84.1044 55.4929 85.1383 50.2714 85.1302 45C85.137 39.728 84.1015 34.5072 82.0833 29.6368C80.0651 24.7663 77.1039 20.3422 73.3702 16.6202H73.3802Z" fill="white"/>
<path fill-rule="evenodd" clip-rule="evenodd" d="M60.4805 65.092H28.7405C27.2712 65.1572 25.8078 64.8689 24.4731 64.2512C23.1385 63.6335 21.9714 62.7045 21.0703 61.5422C16.6703 55.7022 21.1504 47.5422 27.7104 47.5422H61.5103C63.7406 47.6157 65.8557 48.5517 67.4104 50.1526C72.4104 55.1526 69.6205 65.0823 60.4705 65.0823L60.4805 65.092ZM35.8403 43.0325V29.8723C35.839 29.5843 35.8948 29.2988 36.0044 29.0325C36.114 28.7662 36.2751 28.5242 36.4788 28.3206C36.6824 28.1169 36.9244 27.9565 37.1907 27.8469C37.457 27.7373 37.7423 27.6815 38.0303 27.6829H51.1904C51.4784 27.6815 51.7637 27.7373 52.03 27.8469C52.2963 27.9565 52.5383 28.1169 52.7419 28.3206C52.9456 28.5242 53.1067 28.7662 53.2163 29.0325C53.3259 29.2988 53.3817 29.5843 53.3804 29.8723V43.0325C53.3858 43.3216 53.3327 43.609 53.2246 43.8772C53.1165 44.1453 52.9554 44.3886 52.751 44.593C52.5465 44.7975 52.3031 44.9585 52.0349 45.0666C51.7668 45.1748 51.4795 45.2283 51.1904 45.2229H38.0303C37.7412 45.2283 37.4539 45.1748 37.1858 45.0666C36.9176 44.9585 36.6742 44.7975 36.4697 44.593C36.2653 44.3886 36.1042 44.1453 35.9961 43.8772C35.888 43.609 35.8349 43.3216 35.8403 43.0325ZM40.2305 22.3928C40.2059 21.793 40.3041 21.1936 40.519 20.6331C40.734 20.0725 41.0612 19.5618 41.4805 19.1321C41.8794 18.7 42.3632 18.3552 42.9019 18.1194C43.4405 17.8836 44.0223 17.762 44.6104 17.762C45.1984 17.762 45.7802 17.8836 46.3188 18.1194C46.8575 18.3552 47.3416 18.7 47.7405 19.1321C49.3405 20.8021 48.9905 22.7825 48.9905 25.3625H40.2205V22.3625L40.2305 22.3928ZM71.5203 52.4924C70.9086 50.9492 69.9979 49.5426 68.8403 48.3528C68.5499 48.0844 68.2462 47.83 67.9304 47.592C64.3904 44.702 60.5703 45.2327 55.0703 45.2327C55.5623 44.313 55.7843 43.273 55.7104 42.2327V30.3625C55.7866 29.3377 55.5233 28.3166 54.9612 27.4563C54.3991 26.596 53.5694 25.9447 52.6003 25.6028C51.9803 25.3928 51.5203 25.6029 51.3403 25.1829C50.8903 23.9829 52.1404 20.2827 49.4204 17.5627C48.5988 16.6993 47.5597 16.0728 46.4126 15.7493C45.2655 15.4257 44.0526 15.417 42.9009 15.7239C41.7492 16.0307 40.7013 16.642 39.8672 17.4934C39.0331 18.3448 38.4435 19.405 38.1604 20.5627C37.8404 21.8027 38.0404 24.4623 37.9104 25.0823C37.7304 25.9123 37.5604 24.9823 35.6704 26.0823C35.0103 26.4906 34.4743 27.0712 34.1204 27.762C33.6911 28.5701 33.484 29.4785 33.5203 30.3928V42.5227C33.4827 43.4687 33.7078 44.4066 34.1704 45.2327C29.1704 45.2327 25.5004 44.7928 22.3804 46.8528C21.0059 47.6756 19.8338 48.7958 18.9504 50.1321C17.9376 51.6199 17.3183 53.3401 17.1504 55.1321V57.6721C17.1504 57.7821 17.1505 57.9321 17.2305 58.1321C17.5515 60.0176 18.3585 61.7875 19.572 63.2659C20.7856 64.7442 22.3636 65.8805 24.1504 66.5627C25.1619 66.9672 26.2326 67.2028 27.3203 67.262H61.6404C66.5204 67.262 71.0505 63.262 71.9705 58.262C72.0061 58.01 72.0663 57.7629 72.1504 57.5227L72.1003 55.1623L71.5203 52.4924Z" fill="#1C2A40"/>
<path fill-rule="evenodd" clip-rule="evenodd" d="M42.3705 35.41C42.3705 32.41 46.7604 32.5702 46.7604 35.2802C46.7604 36.4802 46.0504 36.7102 45.7604 37.3602C45.6398 37.8199 45.5926 38.2959 45.6205 38.7704C45.6364 39.0436 45.5432 39.3121 45.3613 39.5165C45.1793 39.7209 44.9237 39.8443 44.6506 39.8602C44.3774 39.8761 44.1091 39.7824 43.9047 39.6005C43.7003 39.4186 43.5764 39.1637 43.5605 38.8905C43.5528 38.4087 43.5162 37.9274 43.4506 37.4501C43.2906 37.0201 42.3906 36.3301 42.3906 35.4501L42.3705 35.41ZM40.1806 35.0204C40.086 35.9379 40.2929 36.8611 40.7704 37.6503C41.1104 38.1503 41.1306 37.8799 41.2106 38.4999C41.2073 38.9126 41.2784 39.3224 41.4206 39.7098C41.6739 40.452 42.1802 41.0819 42.851 41.4882C43.5218 41.8945 44.3142 42.0517 45.0893 41.9325C45.8644 41.8132 46.5729 41.4249 47.0905 40.8358C47.6081 40.2467 47.9021 39.4939 47.9206 38.7098C48.0406 37.0898 48.9206 38.0403 48.9206 34.9803C48.8584 33.837 48.3501 32.7634 47.5048 31.9911C46.6595 31.2187 45.5448 30.8095 44.4006 30.8505C43.3084 30.9016 42.2747 31.3576 41.5016 32.1307C40.7285 32.9038 40.2717 33.938 40.2206 35.0302L40.1806 35.0204Z" fill="#1C2A40"/>
<path fill-rule="evenodd" clip-rule="evenodd" d="M59.9617 54.1221C59.3717 53.7221 58.4815 52.9619 57.7715 52.9619C56.8515 52.9619 55.9817 54.2423 57.6917 55.3623C58.1091 55.6964 58.5699 55.9725 59.0615 56.1826C58.4215 57.0526 56.7417 57.182 56.7417 58.502C56.726 58.6762 56.7561 58.8519 56.8294 59.0107C56.9026 59.1696 57.0162 59.306 57.159 59.4072C57.3017 59.5084 57.4684 59.5713 57.6426 59.5879C57.8168 59.6045 57.9924 59.5744 58.1516 59.502C58.8416 59.272 59.3317 58.652 59.9717 58.502C59.9717 59.662 59.9716 60.6924 61.1316 60.6924C62.2916 60.6924 62.2915 59.692 62.2915 58.502C62.9115 58.672 63.2916 59.212 63.9116 59.502C64.0885 59.6004 64.2893 59.6479 64.4915 59.6387C64.6937 59.6294 64.8895 59.5644 65.0567 59.4502C65.2238 59.336 65.3556 59.1772 65.4378 58.9922C65.5199 58.8072 65.5489 58.6029 65.5215 58.4023C65.5215 57.3123 63.7517 56.9619 63.2017 56.2119C63.3917 56.1619 65.5215 55.1323 65.5215 54.1523C65.5215 53.3423 65.1716 52.9922 64.3616 52.9922C63.8416 52.9922 62.7015 53.8823 62.3015 54.1523C62.3015 53.3423 62.4616 51.832 61.1416 51.832C59.8216 51.832 59.9617 53.5121 59.9617 54.1221Z" fill="#1C2A40"/>
<path fill-rule="evenodd" clip-rule="evenodd" d="M26.9303 54.1229C26.3303 53.7229 25.4504 52.9627 24.7404 52.9627C23.7404 52.9627 23.7404 53.7527 23.7404 54.3827C23.7404 55.0127 25.7402 56.1132 26.0602 56.1932C25.4202 57.0632 23.7404 57.1925 23.7404 58.5125C23.7247 58.6868 23.7548 58.8624 23.828 59.0213C23.9013 59.1802 24.0149 59.3176 24.1576 59.4188C24.3003 59.52 24.4671 59.5819 24.6413 59.5985C24.8154 59.6151 24.991 59.585 25.1503 59.5125C25.8403 59.2825 26.3304 58.6625 26.9704 58.5125C26.9704 59.6725 26.9703 60.703 28.1303 60.703C29.2903 60.703 29.2902 59.7025 29.2902 58.5125C29.9102 58.6825 30.2903 59.2225 30.9103 59.5125C31.0872 59.611 31.2879 59.6585 31.4901 59.6493C31.6924 59.64 31.8882 59.575 32.0553 59.4608C32.2225 59.3466 32.3543 59.1878 32.4364 59.0028C32.5186 58.8178 32.5476 58.6135 32.5202 58.4129C32.5202 57.3229 30.7503 56.9735 30.2003 56.2235C30.6921 56.0135 31.1528 55.7373 31.5702 55.4032C33.2802 54.2832 32.4104 53.0028 31.4904 53.0028C30.7804 53.0028 29.8902 53.7629 29.3002 54.1629C29.3002 53.4229 29.4203 52.6029 28.8603 52.1629C28.8003 52.1629 28.2802 51.8534 28.2702 51.8534C26.9202 51.8034 26.9303 52.8029 26.9303 54.1229Z" fill="#1C2A40"/>
<path fill-rule="evenodd" clip-rule="evenodd" d="M48.9907 54.1221C48.4507 53.8321 47.4005 52.9619 46.8005 52.9619C46.4945 52.9671 46.2025 53.0912 45.9861 53.3076C45.7696 53.5241 45.6458 53.816 45.6406 54.1221C45.6406 54.8321 47.4906 56.0226 48.0906 56.1826C47.5406 56.9326 45.6406 57.372 45.6406 58.502C45.6608 58.6752 45.7188 58.8419 45.8105 58.9902C45.9023 59.1385 46.0257 59.2649 46.1716 59.3604C46.3176 59.4558 46.4826 59.5175 46.6553 59.542C46.8279 59.5665 47.0039 59.553 47.1707 59.502C47.8061 59.1624 48.4146 58.7744 48.9907 58.3418C48.931 58.8818 48.9511 59.4278 49.0505 59.9619C49.2605 60.5619 51.3105 61.8227 51.3105 58.4727C51.9205 58.6327 52.4505 59.2627 53.0105 59.4727C54.0105 59.8727 55.5906 58.4726 53.6106 57.1826L52.2107 56.252C52.7607 55.502 54.5305 55.1525 54.5305 54.0625C54.5408 53.9075 54.518 53.7519 54.4634 53.6064C54.4087 53.461 54.3237 53.3286 54.2139 53.2188C54.104 53.1089 53.9718 53.0244 53.8264 52.9697C53.681 52.9151 53.5256 52.892 53.3706 52.9023C52.8506 52.9023 51.7105 53.7925 51.3105 54.0625C51.3105 53.2925 51.3106 51.7422 50.1506 51.7422C48.9906 51.7422 48.9907 52.8921 48.9907 54.1221Z" fill="#1C2A40"/>
<path fill-rule="evenodd" clip-rule="evenodd" d="M37.9005 54.1227C37.0705 53.5727 36.6204 52.9626 35.5804 52.9626C35.3128 53.009 35.0723 53.1542 34.9058 53.3688C34.7394 53.5834 34.6591 53.852 34.6805 54.1227C34.6805 55.2127 36.4503 55.5631 37.0003 56.3131L35.6805 57.193C33.6205 58.553 35.1404 59.8224 36.1004 59.5524C36.7604 59.3624 37.2405 58.6824 37.9005 58.5524C37.9005 61.8924 39.9005 60.6125 40.1305 60.1325C40.2619 59.5725 40.2958 58.994 40.2306 58.4225C41.2306 59.1025 42.0905 59.9924 42.9805 59.5124C43.2723 59.3153 43.4848 59.0221 43.5804 58.6833C43.5804 57.3133 41.7505 57.0731 41.1305 56.2331C41.6105 56.1031 43.5804 54.7826 43.5804 54.2926C43.5941 54.1307 43.5745 53.9682 43.5228 53.8141C43.471 53.66 43.3883 53.518 43.2796 53.3971C43.1709 53.2763 43.0385 53.1788 42.8907 53.111C42.743 53.0432 42.583 53.0061 42.4205 53.0026C41.8105 53.0026 40.7706 53.8828 40.2306 54.1628C40.2878 53.6285 40.2608 53.089 40.1505 52.5631C39.9105 51.9431 37.9005 50.6127 37.9005 54.1227Z" fill="#1C2A40"/>
</svg>
