<svg width="90" height="90" viewBox="0 0 90 90" fill="none" xmlns="http://www.w3.org/2000/svg">
<path fill-rule="evenodd" clip-rule="evenodd" d="M45 3.79949e-05C50.9107 -0.00765587 56.7646 1.15321 62.2254 3.41508C67.6861 5.67694 72.646 8.9949 76.8201 13.1797C81.0049 17.3538 84.3236 22.3137 86.5855 27.7745C88.8474 33.2352 90.0077 39.0894 90 45C90.0077 50.9107 88.8474 56.7649 86.5855 62.2256C84.3236 67.6864 81.0049 72.6463 76.8201 76.8204C72.646 81.0052 67.6861 84.3241 62.2254 86.586C56.7646 88.8478 50.9107 90.0077 45 90C39.0894 90.0077 33.2357 88.8478 27.7749 86.586C22.3142 84.3241 17.3543 81.0052 13.1802 76.8204C8.99538 72.6463 5.67645 67.6864 3.41459 62.2256C1.15272 56.7649 -0.00765585 50.9107 3.80108e-05 45C-0.00765585 39.0894 1.15272 33.2352 3.41459 27.7745C5.67645 22.3137 8.99538 17.3538 13.1802 13.1797C17.3543 8.9949 22.3142 5.67694 27.7749 3.41508C33.2357 1.15321 39.0894 -0.00765587 45 3.79949e-05ZM73.3802 16.6202C69.6573 12.8882 65.2333 9.92863 60.3628 7.91215C55.4924 5.89567 50.2714 4.86206 45 4.87016C39.7287 4.86206 34.5077 5.89567 29.6372 7.91215C24.7668 9.92863 20.3431 12.8882 16.6202 16.6202C12.8882 20.3431 9.92887 24.7673 7.91239 29.6377C5.89591 34.5082 4.86206 39.7287 4.87016 45C4.86206 50.2714 5.89591 55.4929 7.91239 60.3633C9.92887 65.2338 12.8882 69.657 16.6202 73.3799C20.3431 77.1119 24.7668 80.0714 29.6372 82.0879C34.5077 84.1044 39.7287 85.138 45 85.1299C50.2714 85.138 55.4924 84.1044 60.3628 82.0879C65.2333 80.0714 69.6573 77.1119 73.3802 73.3799C77.1121 69.657 80.0712 65.2338 82.0877 60.3633C84.1042 55.4929 85.1383 50.2714 85.1302 45C85.1383 39.7287 84.1042 34.5082 82.0877 29.6377C80.0712 24.7673 77.1121 20.3431 73.3802 16.6202Z" fill="#AEC2D4"/>
<path d="M52.4798 43.6212C51.9689 43.9335 51.4579 44.2031 50.9469 44.4302C50.4644 44.6289 49.9534 44.7709 49.4141 44.856C50.5211 45.0263 51.5431 45.4237 52.4798 46.0482L59.25 50.0082L56.7804 54.2661L50.0102 50.3062C49.4992 49.994 49.0167 49.6675 48.5625 49.3269C48.1367 48.9862 47.7677 48.6172 47.4554 48.2198C47.8244 49.1566 48.0089 50.2352 48.0089 51.4559V59.2905H42.9845V51.4984C42.9845 50.9307 43.0129 50.3772 43.0697 49.8378C43.1549 49.2985 43.2826 48.7875 43.4529 48.305C43.1407 48.7024 42.7716 49.0572 42.3458 49.3695C41.9201 49.6817 41.4659 49.994 40.9833 50.3062L34.2557 54.2235L31.7435 49.9656L38.5137 46.0482C39.5924 45.4237 40.6143 45.0263 41.5794 44.856C40.5859 44.6857 39.564 44.2741 38.5137 43.6212L31.7435 39.6613L34.2131 35.4033L40.9833 39.4058C41.4943 39.7181 41.9626 40.0445 42.3884 40.3852C42.8142 40.6974 43.1974 41.0522 43.5381 41.4496C43.1691 40.5129 42.9845 39.4484 42.9845 38.2562V30.3789H48.0089V38.171C48.0089 38.7671 47.9664 39.3349 47.8812 39.8742C47.8244 40.4135 47.6967 40.9245 47.498 41.4071C47.8386 41.0097 48.2218 40.6548 48.6476 40.3426C49.0734 40.0303 49.5276 39.7181 50.0102 39.4058L56.7378 35.4885L59.25 39.7465L52.4798 43.6212Z" fill="#1C2A40"/>
<path d="M71.2487 13.1908L11.0527 73.3867L14.4957 76.8297L74.6917 16.6338L71.2487 13.1908Z" fill="#AEC2D4"/>
</svg>
