<svg width="59" height="59" viewBox="0 0 59 59" fill="none" xmlns="http://www.w3.org/2000/svg">
<path fill-rule="evenodd" clip-rule="evenodd" d="M29.2891 57.0899C34.7775 57.0899 40.1426 55.4623 44.7061 52.4131C49.2695 49.3639 52.8263 45.03 54.9266 39.9594C57.027 34.8887 57.5766 29.3091 56.5059 23.9262C55.4351 18.5432 52.7922 13.5986 48.9113 9.71768C45.0303 5.83677 40.0857 3.19381 34.7028 2.12307C29.3198 1.05233 23.7402 1.60184 18.6696 3.70217C13.5989 5.80251 9.26491 9.35929 6.2157 13.9228C3.16649 18.4862 1.53906 23.8514 1.53906 29.3399C1.55228 36.6956 4.48012 43.7463 9.6814 48.9475C14.8827 54.1488 21.9334 57.0767 29.2891 57.0899V57.0899Z" stroke="#585F69" stroke-width="2.8346" stroke-miterlimit="22.9256"/>
<path fill-rule="evenodd" clip-rule="evenodd" d="M35.9194 11.48H22.6694C21.7924 11.4826 20.952 11.8322 20.3318 12.4524C19.7116 13.0726 19.362 13.913 19.3594 14.79V43.96C19.362 44.837 19.7116 45.6774 20.3318 46.2976C20.952 46.9178 21.7924 47.2674 22.6694 47.27H35.9194C36.7965 47.2674 37.6368 46.9178 38.257 46.2976C38.8771 45.6774 39.2267 44.837 39.2294 43.96V14.79C39.2267 13.913 38.8771 13.0726 38.257 12.4524C37.6368 11.8322 36.7965 11.4826 35.9194 11.48ZM37.0194 43.96C37.0168 44.2509 36.9001 44.5291 36.6943 44.7349C36.4886 44.9406 36.2104 45.0573 35.9194 45.0599H22.6694C22.3785 45.0573 22.1001 44.9406 21.8944 44.7349C21.6887 44.5291 21.5719 44.2509 21.5693 43.96V14.79C21.5719 14.4991 21.6887 14.2207 21.8944 14.015C22.1001 13.8093 22.3785 13.6926 22.6694 13.6899H24.6694L24.8994 14.37C24.9703 14.5817 25.1038 14.7669 25.2825 14.9009C25.4611 15.0348 25.6763 15.1112 25.8994 15.12H32.6594C32.8825 15.1112 33.0976 15.0348 33.2762 14.9009C33.4549 14.7669 33.5886 14.5817 33.6594 14.37L33.8894 13.6899H35.8894C36.1803 13.6926 36.4586 13.8093 36.6643 14.015C36.87 14.2207 36.9868 14.4991 36.9894 14.79L37.0194 43.96Z" fill="#1C2A40"/>
</svg>
