<svg width="59" height="60" viewBox="0 0 59 60" fill="none" xmlns="http://www.w3.org/2000/svg">
<path fill-rule="evenodd" clip-rule="evenodd" d="M29.73 57.8501C35.2193 57.8541 40.5864 56.2299 45.1525 53.1831C49.7186 50.1363 53.2785 45.8037 55.3819 40.7334C57.4853 35.6631 58.0377 30.0828 56.9692 24.6985C55.9008 19.3142 53.2594 14.3678 49.3793 10.4849C45.4992 6.60199 40.5546 3.95716 35.1711 2.8848C29.7876 1.81244 24.207 2.36074 19.1352 4.46049C14.0633 6.56023 9.72819 10.117 6.6781 14.6809C3.62801 19.2448 2 24.6109 2 30.1001C2.0132 37.4524 4.93836 44.4998 10.1353 49.7005C15.3323 54.9012 22.3778 57.8316 29.73 57.8501Z" stroke="#585F69" stroke-width="2.8346" stroke-miterlimit="22.9256"/>
<path fill-rule="evenodd" clip-rule="evenodd" d="M32.6096 29.2901C32.3018 28.4033 31.6666 27.6674 30.8341 27.2335C30.0016 26.7996 29.0348 26.7004 28.1314 26.9559C27.2281 27.2115 26.4565 27.8025 25.9747 28.6083C25.4929 29.414 25.3373 30.3734 25.5396 31.2901C26.8696 35.9001 31.7196 40.0401 36.1596 43.5501C36.2329 43.6262 36.3215 43.6857 36.4197 43.7247C36.5178 43.7637 36.6232 43.7813 36.7286 43.7762C36.8341 43.7711 36.9373 43.7435 37.0312 43.6952C37.1251 43.6469 37.2076 43.579 37.2732 43.4962C37.3387 43.4134 37.3857 43.3174 37.4111 43.2149C37.4365 43.1124 37.4397 43.0058 37.4204 42.902C37.4011 42.7981 37.3599 42.6994 37.2993 42.6129C37.2388 42.5263 37.1605 42.4538 37.0696 42.4C32.8096 39.03 28.1596 35.08 26.9496 30.89C26.7879 30.3264 26.8566 29.7217 27.1407 29.2088C27.4248 28.6959 27.901 28.3169 28.4646 28.1551C29.0282 27.9933 29.633 28.0619 30.1459 28.346C30.6588 28.6302 31.0379 29.1064 31.1996 29.67C31.9996 32.47 35.9996 35.93 39.8096 38.94C39.9647 39.0411 40.1519 39.0806 40.3345 39.0504C40.5171 39.0202 40.6818 38.9226 40.796 38.777C40.9103 38.6313 40.9658 38.4483 40.9516 38.2638C40.9375 38.0792 40.8547 37.9066 40.7196 37.7801C38.7196 36.2201 33.3996 32.0101 32.6096 29.2901Z" fill="#1C2A40"/>
<path fill-rule="evenodd" clip-rule="evenodd" d="M38.1891 27.39C37.3774 25.0514 35.6921 23.1178 33.4862 21.9945C31.2803 20.8711 28.7253 20.6452 26.3565 21.3641C23.9878 22.083 21.9892 23.6908 20.7798 25.8507C19.5704 28.0105 19.244 30.5548 19.8691 32.95C21.0791 37.15 18.4891 38.3201 17.6591 38.5701C17.4833 38.6374 17.3398 38.769 17.2577 38.9383C17.1756 39.1076 17.1611 39.3019 17.2172 39.4815C17.2732 39.6612 17.3956 39.8127 17.5595 39.9053C17.7233 39.9979 17.9163 40.0247 18.0991 39.98C20.3491 39.28 22.5391 36.9101 21.2791 32.5401C20.6922 30.4795 20.9456 28.2703 21.9839 26.3961C23.0222 24.5219 24.7608 23.1353 26.8191 22.5401C28.8649 21.9622 31.0554 22.2066 32.9236 23.221C34.7918 24.2354 36.1897 25.9395 36.8191 27.97C36.8357 28.026 36.8593 28.0797 36.8891 28.1299C36.9691 28.2599 37.1191 28.5199 41.8891 32.3699C42.0421 32.4691 42.2263 32.5085 42.4064 32.4803C42.5865 32.452 42.7499 32.3581 42.8651 32.2169C42.9804 32.0756 43.0394 31.8968 43.0309 31.7147C43.0224 31.5325 42.947 31.36 42.8191 31.23C41.0691 29.81 38.5591 27.73 38.1891 27.39Z" fill="#1C2A40"/>
<path fill-rule="evenodd" clip-rule="evenodd" d="M35.4398 28.4801C34.9516 26.7925 33.8145 25.3672 32.2776 24.5162C30.7407 23.6653 28.9292 23.4581 27.2398 23.9401C25.5769 24.453 24.1758 25.5876 23.3283 27.1075C22.4808 28.6275 22.2521 30.4159 22.6898 32.1002C24.1798 38.8802 23.0698 40.44 20.0098 41.4C19.9116 41.424 19.8193 41.4679 19.7387 41.5289C19.6581 41.5899 19.5908 41.6667 19.5411 41.7548C19.4913 41.8428 19.4602 41.9401 19.4495 42.0406C19.4388 42.1412 19.4488 42.243 19.4789 42.3395C19.509 42.436 19.5586 42.5253 19.6246 42.6019C19.6906 42.6785 19.7715 42.7407 19.8625 42.7848C19.9535 42.8289 20.0525 42.8539 20.1535 42.8583C20.2546 42.8626 20.3554 42.8463 20.4498 42.8102C24.7098 41.4802 25.6398 38.7002 24.1298 31.8102C23.7751 30.4913 23.9431 29.0863 24.5989 27.8883C25.2547 26.6903 26.3477 25.7918 27.6498 25.38C28.9652 25.0064 30.3751 25.1692 31.5708 25.8326C32.7666 26.4961 33.6507 27.6062 34.0298 28.92C34.3198 29.92 35.1098 31.3002 41.1398 36.0802C41.2131 36.1563 41.3017 36.2158 41.3998 36.2548C41.498 36.2937 41.6034 36.3111 41.7088 36.306C41.8143 36.3009 41.9175 36.2735 42.0114 36.2252C42.1053 36.1769 42.1878 36.1091 42.2533 36.0262C42.3189 35.9434 42.3659 35.8475 42.3913 35.745C42.4167 35.6425 42.4199 35.5358 42.4006 35.432C42.3813 35.3282 42.3401 35.2295 42.2795 35.1429C42.219 35.0564 42.1407 34.9838 42.0498 34.93C36.5898 30.56 35.6498 29.1801 35.4398 28.4801Z" fill="#1C2A40"/>
<path fill-rule="evenodd" clip-rule="evenodd" d="M37.4692 38.7199C34.9792 36.8299 30.8092 33.66 29.7792 30.1C29.7172 29.9208 29.5888 29.7723 29.4205 29.685C29.2522 29.5977 29.0567 29.5782 28.8746 29.6308C28.6924 29.6834 28.5374 29.8039 28.4415 29.9675C28.3456 30.131 28.3161 30.3253 28.3592 30.5099C29.5192 34.5099 33.9392 37.8998 36.5792 39.8998C37.1165 40.2867 37.6338 40.7006 38.1292 41.1398C38.269 41.2137 38.4289 41.241 38.5853 41.2175C38.7416 41.1939 38.8864 41.1208 38.9982 41.009C39.11 40.8971 39.1831 40.7523 39.2067 40.5959C39.2302 40.4395 39.2031 40.2797 39.1292 40.1398C38.6031 39.6356 38.0489 39.1616 37.4692 38.7199Z" fill="#1C2A40"/>
<path fill-rule="evenodd" clip-rule="evenodd" d="M33.4806 43.8501C33.1147 43.1692 32.5902 42.5863 31.9513 42.1511C31.3125 41.7159 30.5782 41.4413 29.8106 41.3501C27.3106 41.3501 26.9205 45.61 26.8605 46.46C26.8496 46.6547 26.9159 46.8459 27.0451 46.9919C27.1744 47.138 27.356 47.2271 27.5505 47.24C27.7384 47.2404 27.9195 47.1694 28.0569 47.0413C28.1943 46.9131 28.2779 46.7375 28.2906 46.55C28.3806 45.03 28.9606 42.8201 29.7606 42.8201C30.8506 42.8201 31.6306 43.87 32.2506 44.72C32.4549 45.0114 32.6788 45.2888 32.9206 45.55C33.0604 45.6239 33.2202 45.651 33.3766 45.6274C33.533 45.6039 33.6777 45.5308 33.7896 45.4189C33.9014 45.3071 33.9745 45.1625 33.998 45.0061C34.0216 44.8497 33.9945 44.6899 33.9206 44.55C33.7592 44.3263 33.6123 44.0925 33.4806 43.8501Z" fill="#1C2A40"/>
<path fill-rule="evenodd" clip-rule="evenodd" d="M26.829 37.4801C26.7534 37.3171 26.6211 37.1872 26.4568 37.1146C26.2925 37.042 26.1073 37.0317 25.9359 37.0856C25.7646 37.1394 25.6186 37.2538 25.5254 37.4073C25.4321 37.5609 25.3979 37.7431 25.429 37.92C26.059 39.92 24.819 43.76 22.959 44.36C22.8608 44.3839 22.7686 44.4279 22.688 44.4889C22.6073 44.5499 22.5401 44.6269 22.4903 44.7149C22.4406 44.803 22.4094 44.9001 22.3987 45.0006C22.388 45.1011 22.398 45.2029 22.4281 45.2994C22.4583 45.3959 22.5078 45.4853 22.5738 45.5619C22.6398 45.6385 22.7208 45.7009 22.8117 45.745C22.9027 45.7891 23.0018 45.8139 23.1028 45.8182C23.2038 45.8226 23.3046 45.8063 23.399 45.7701C26.239 44.8201 27.609 39.8901 26.829 37.4801Z" fill="#1C2A40"/>
<path fill-rule="evenodd" clip-rule="evenodd" d="M42.5605 27.3899C41.6405 27.0999 40.9205 25.9201 40.0805 24.5701C38.3105 21.7001 35.8705 17.78 29.0805 17.78C25.7617 17.7853 22.5802 19.1061 20.2334 21.4529C17.8866 23.7997 16.5658 26.9812 16.5605 30.3C16.5816 30.4802 16.6681 30.6463 16.8036 30.7668C16.9391 30.8874 17.1142 30.9541 17.2956 30.9541C17.477 30.9541 17.652 30.8874 17.7875 30.7668C17.923 30.6463 18.0095 30.4802 18.0305 30.3C18.0463 27.3875 19.2103 24.5988 21.2698 22.5393C23.3293 20.4798 26.118 19.3158 29.0305 19.3C35.0305 19.3 37.1005 22.6799 38.7805 25.3999C39.7805 26.9999 40.6205 28.4001 42.0605 28.8401C42.1715 28.8817 42.2908 28.8962 42.4085 28.8821C42.5262 28.868 42.6388 28.8257 42.7368 28.759C42.8348 28.6924 42.9153 28.6033 42.9717 28.499C43.028 28.3948 43.0585 28.2784 43.0605 28.1599C43.0564 28.0091 43.0064 27.8632 42.917 27.7417C42.8276 27.6202 42.7033 27.5289 42.5605 27.48V27.3899Z" fill="#1C2A40"/>
<path fill-rule="evenodd" clip-rule="evenodd" d="M18.0004 36.2C18.1262 36.1996 18.2499 36.167 18.3597 36.1055C18.4695 36.044 18.5618 35.9555 18.6279 35.8484C18.6939 35.7413 18.7316 35.6191 18.7373 35.4934C18.743 35.3677 18.7165 35.2425 18.6604 35.1299C18.3455 34.5407 18.1229 33.9067 18.0004 33.25C18.0125 33.1463 18.0025 33.0412 17.9711 32.9417C17.9397 32.8421 17.8876 32.7501 17.8182 32.6721C17.7487 32.5941 17.6636 32.5318 17.5683 32.489C17.473 32.4463 17.3698 32.4241 17.2654 32.4241C17.161 32.4241 17.0577 32.4463 16.9625 32.489C16.8672 32.5318 16.782 32.5941 16.7126 32.6721C16.6432 32.7501 16.5911 32.8421 16.5597 32.9417C16.5283 33.0412 16.5183 33.1463 16.5304 33.25C16.6472 34.1381 16.9215 34.9983 17.3404 35.79C17.4016 35.9128 17.4957 36.0162 17.6122 36.0886C17.7288 36.161 17.8632 36.1995 18.0004 36.2Z" fill="#1C2A40"/>
<path fill-rule="evenodd" clip-rule="evenodd" d="M17.6408 20.6199C17.8073 20.7164 18.0048 20.7444 18.1915 20.6978C18.3782 20.6511 18.5394 20.5334 18.6408 20.3699C19.2808 19.3199 22.4308 16.3101 28.3208 16.3101C33.9808 16.3101 38.0108 19.1799 38.7408 20.3699C38.8513 20.5151 39.0116 20.6147 39.1908 20.6489C39.3701 20.6832 39.5557 20.6499 39.712 20.5557C39.8683 20.4614 39.9843 20.3127 40.0376 20.1382C40.0909 19.9636 40.0778 19.7754 40.0008 19.6099C39.0008 17.9499 34.5308 14.8401 28.3208 14.8401C21.7208 14.8401 18.1908 18.2899 17.3808 19.6099C17.282 19.7784 17.254 19.9792 17.3027 20.1685C17.3514 20.3577 17.4729 20.5199 17.6408 20.6199Z" fill="#1C2A40"/>
<path fill-rule="evenodd" clip-rule="evenodd" d="M21.9992 14.77C22.3392 14.62 22.6192 14.4801 22.8892 14.3301C23.9992 13.7701 24.7892 13.3301 28.3292 13.3301C30.7158 13.1985 33.1028 13.5803 35.3292 14.4499L36.1892 14.76C36.2833 14.8049 36.3857 14.8295 36.4899 14.832C36.5941 14.8346 36.6977 14.8151 36.7938 14.7749C36.89 14.7347 36.9765 14.6746 37.0479 14.5986C37.1192 14.5226 37.1736 14.4322 37.2076 14.3337C37.2416 14.2352 37.2545 14.1307 37.2452 14.0268C37.236 13.923 37.205 13.8224 37.1542 13.7314C37.1033 13.6404 37.0339 13.561 36.9503 13.4988C36.8667 13.4365 36.771 13.3925 36.6692 13.3699L35.8392 13.0801C33.4501 12.1477 30.8906 11.7317 28.3292 11.8598C24.4292 11.8598 23.4592 12.36 22.2192 13C21.9692 13.13 21.7092 13.2599 21.3992 13.3999C21.2361 13.4839 21.11 13.6257 21.0454 13.7973C20.9808 13.969 20.9823 14.1584 21.0496 14.3291C21.1169 14.4998 21.2451 14.6395 21.4095 14.7209C21.5739 14.8024 21.7627 14.8199 21.9392 14.77H21.9992Z" fill="#1C2A40"/>
<path fill-rule="evenodd" clip-rule="evenodd" d="M41.6305 24.6398C41.7061 24.8028 41.8384 24.9327 42.0027 25.0053C42.1671 25.0779 42.3522 25.0882 42.5236 25.0343C42.6949 24.9805 42.8409 24.8661 42.9341 24.7126C43.0274 24.559 43.0617 24.3768 43.0305 24.1999C42.6121 23.117 42.0932 22.0759 41.4805 21.09C41.4371 20.9943 41.3738 20.9089 41.2949 20.8395C41.216 20.7701 41.1232 20.7184 41.0227 20.6877C40.9223 20.6569 40.8164 20.6479 40.7122 20.6613C40.6079 20.6747 40.5077 20.7102 40.4183 20.7653C40.3288 20.8204 40.2521 20.8938 40.1933 20.9809C40.1344 21.0679 40.0948 21.1666 40.0771 21.2702C40.0593 21.3737 40.0638 21.4798 40.0902 21.5815C40.1167 21.6831 40.1645 21.778 40.2305 21.8598C40.7791 22.7428 41.2476 23.6732 41.6305 24.6398Z" fill="#1C2A40"/>
<path fill-rule="evenodd" clip-rule="evenodd" d="M36.6096 43.74C36.4426 43.7401 36.2805 43.6838 36.1496 43.5801C31.7096 40.0601 26.8596 35.9301 25.5396 31.3201C25.3373 30.4034 25.4929 29.4439 25.9747 28.6382C26.4565 27.8325 27.2281 27.2412 28.1314 26.9856C29.0348 26.7301 30.0016 26.8295 30.8341 27.2635C31.6666 27.6974 32.3018 28.4332 32.6096 29.3201C33.3896 32.0401 38.7096 36.2601 40.7096 37.8401C40.8441 37.9641 40.928 38.1335 40.9449 38.3157C40.9618 38.4979 40.9107 38.6798 40.8013 38.8264C40.6919 38.9731 40.532 39.0741 40.3526 39.1099C40.1732 39.1456 39.9869 39.1136 39.8296 39.02C36.0196 36.02 32.0196 32.55 31.2196 29.75C31.0579 29.1864 30.6788 28.7102 30.1659 28.426C29.653 28.1419 29.0482 28.0731 28.4846 28.2349C27.921 28.3967 27.4448 28.7759 27.1607 29.2888C26.8766 29.8018 26.8079 30.4064 26.9696 30.97C28.1696 35.16 32.8196 39.11 37.0796 42.48C37.1962 42.5765 37.2804 42.7063 37.3209 42.8521C37.3613 42.9978 37.3562 43.1525 37.306 43.2952C37.2559 43.4379 37.1633 43.562 37.0405 43.6504C36.9178 43.7389 36.7709 43.7877 36.6196 43.7901L36.6096 43.74Z" fill="#1C2A40"/>
<path fill-rule="evenodd" clip-rule="evenodd" d="M17.8809 40.0099C17.7074 40.0054 17.541 39.9399 17.4108 39.8251C17.2806 39.7103 17.1949 39.5536 17.1686 39.382C17.1424 39.2104 17.1774 39.0351 17.2673 38.8866C17.3573 38.7382 17.4966 38.6261 17.6609 38.57C18.4809 38.31 21.0809 37.1499 19.8709 32.9499C19.1701 30.5085 19.4674 27.8888 20.6976 25.6666C21.9277 23.4445 23.9899 21.8021 26.4309 21.1C28.824 20.4281 31.3841 20.7075 33.5759 21.8798C35.7677 23.0521 37.4213 25.0263 38.1909 27.3898C38.5609 27.7298 41.0709 29.8099 42.7909 31.2099C42.9188 31.3398 42.9942 31.5124 43.0027 31.6945C43.0112 31.8766 42.9522 32.0554 42.837 32.1967C42.7217 32.338 42.5583 32.4319 42.3782 32.4601C42.1981 32.4884 42.0139 32.4492 41.8609 32.35C37.1209 28.51 36.9709 28.2398 36.8609 28.1098C36.8313 28.0594 36.8078 28.0058 36.7909 27.9499C36.4895 26.9295 35.9901 25.9784 35.3212 25.151C34.6523 24.3237 33.8269 23.6362 32.8923 23.1278C31.9577 22.6194 30.9321 22.3002 29.874 22.1881C28.816 22.0761 27.7463 22.1736 26.7259 22.475C25.7055 22.7764 24.7545 23.2756 23.9271 23.9445C23.0998 24.6134 22.4123 25.4388 21.9039 26.3734C21.3955 27.3081 21.0761 28.3337 20.9641 29.3917C20.8521 30.4498 20.9495 31.5196 21.2509 32.5399C22.5009 36.8999 20.3209 39.2699 18.0709 39.9799C18.0092 39.9982 17.9453 40.0083 17.8809 40.0099Z" fill="#1C2A40"/>
<path fill-rule="evenodd" clip-rule="evenodd" d="M20.2305 42.82C20.057 42.8155 19.8906 42.75 19.7604 42.6352C19.6302 42.5204 19.5445 42.3634 19.5183 42.1918C19.492 42.0203 19.527 41.8449 19.617 41.6965C19.7069 41.5481 19.8462 41.436 20.0105 41.3798C23.0605 40.3798 24.1705 38.86 22.6805 32.08C22.2428 30.3957 22.4715 28.6073 23.319 27.0874C24.1665 25.5674 25.5676 24.4329 27.2305 23.9199C28.9198 23.4407 30.7301 23.6492 32.2663 24.4997C33.8025 25.3503 34.94 26.7739 35.4305 28.4599C35.6305 29.1699 36.5705 30.5398 42.0405 34.8698C42.175 34.9938 42.2588 35.1635 42.2758 35.3457C42.2927 35.5278 42.2415 35.7097 42.1321 35.8564C42.0227 36.0031 41.8629 36.1041 41.6835 36.1398C41.504 36.1756 41.3177 36.1436 41.1605 36.05C35.1605 31.27 34.3405 29.8898 34.0505 28.8898C33.6714 27.576 32.7872 26.4659 31.5915 25.8024C30.3958 25.139 28.9859 24.9764 27.6705 25.3501C26.3684 25.7619 25.2754 26.6604 24.6196 27.8584C23.9638 29.0563 23.7957 30.4611 24.1505 31.78C25.6705 38.69 24.7405 41.47 20.4705 42.78C20.3933 42.8066 20.3122 42.8202 20.2305 42.82Z" fill="#1C2A40"/>
<path fill-rule="evenodd" clip-rule="evenodd" d="M38.6495 41.3502C38.4539 41.3485 38.267 41.2692 38.1295 41.13C37.634 40.691 37.1166 40.2771 36.5795 39.89C33.9395 37.89 29.5295 34.5401 28.3595 30.5001C28.3216 30.3192 28.3527 30.1307 28.4468 29.9716C28.5409 29.8125 28.6911 29.6942 28.8679 29.6403C29.0447 29.5863 29.2353 29.6008 29.4021 29.6803C29.569 29.7598 29.7001 29.8989 29.7695 30.0702C30.7695 33.6402 34.9695 36.8001 37.4595 38.6901C38.0513 39.1147 38.6189 39.5722 39.1595 40.0602C39.2617 40.1636 39.3312 40.2949 39.3592 40.4376C39.3872 40.5803 39.3726 40.728 39.3171 40.8624C39.2616 40.9968 39.1678 41.1118 39.0473 41.1932C38.9268 41.2746 38.785 41.3189 38.6395 41.3202L38.6495 41.3502Z" fill="#1C2A40"/>
<path fill-rule="evenodd" clip-rule="evenodd" d="M27.5994 47.24C27.4048 47.2271 27.2232 47.138 27.0939 46.9919C26.9647 46.8459 26.8984 46.6547 26.9094 46.46C26.9594 45.61 27.3494 41.3501 29.8594 41.3501C30.6285 41.4405 31.3645 41.7147 32.005 42.1499C32.6456 42.5851 33.1719 43.1684 33.5394 43.8501C33.7008 44.0851 33.8779 44.3088 34.0694 44.52C34.1433 44.6599 34.1704 44.8197 34.1468 44.9761C34.1233 45.1325 34.0502 45.2771 33.9384 45.3889C33.8265 45.5007 33.6818 45.5738 33.5254 45.5974C33.369 45.621 33.2092 45.5939 33.0694 45.52C32.8272 45.2591 32.6033 44.9817 32.3994 44.6899C31.7694 43.8399 30.9994 42.79 29.8994 42.79C29.0994 42.79 28.5194 45 28.4294 46.52C28.4273 46.6236 28.4036 46.7255 28.3597 46.8193C28.3158 46.9131 28.2527 46.9966 28.1744 47.0645C28.0962 47.1323 28.0046 47.1831 27.9055 47.2134C27.8065 47.2436 27.7022 47.2526 27.5994 47.24Z" fill="#1C2A40"/>
<path fill-rule="evenodd" clip-rule="evenodd" d="M23.1794 45.7701C23.0051 45.7678 22.8372 45.7039 22.7053 45.5899C22.5734 45.4759 22.486 45.3189 22.4585 45.1468C22.431 44.9746 22.4652 44.7984 22.555 44.649C22.6448 44.4995 22.7845 44.3866 22.9494 44.3301C24.8094 43.7201 26.0394 39.8599 25.4194 37.8899C25.379 37.7983 25.3577 37.6994 25.3566 37.5992C25.3556 37.499 25.375 37.3997 25.4135 37.3072C25.452 37.2147 25.5089 37.1309 25.5807 37.0611C25.6525 36.9912 25.7378 36.9368 25.8313 36.9009C25.9248 36.865 26.0247 36.8485 26.1248 36.8523C26.2249 36.8562 26.3232 36.8802 26.4137 36.9231C26.5042 36.9661 26.5851 37.027 26.6514 37.1021C26.7177 37.1772 26.768 37.2648 26.7994 37.3599V37.45C27.5794 39.9 26.2094 44.82 23.3794 45.74C23.3145 45.7594 23.2471 45.7695 23.1794 45.7701Z" fill="#1C2A40"/>
<path fill-rule="evenodd" clip-rule="evenodd" d="M17.2908 31.04C17.0945 31.04 16.9063 30.962 16.7675 30.8232C16.6288 30.6845 16.5508 30.4963 16.5508 30.3C16.5561 26.9812 17.8769 23.7997 20.2237 21.4529C22.5705 19.1061 25.7519 17.7853 29.0708 17.78C35.8708 17.78 38.3008 21.7101 40.0708 24.5701C40.9108 25.9201 41.6308 27.0899 42.5508 27.3899C42.6972 27.4354 42.8259 27.5254 42.9191 27.6472C43.0123 27.769 43.0653 27.9168 43.0708 28.0701C43.0703 28.1894 43.041 28.3068 42.9854 28.4124C42.9297 28.5179 42.8493 28.6085 42.7511 28.6763C42.6528 28.7441 42.5397 28.7869 42.4212 28.8015C42.3027 28.8161 42.1825 28.8019 42.0708 28.76C40.6408 28.29 39.7808 26.9101 38.7908 25.3201C37.1108 22.6001 35.0108 19.23 29.0408 19.23C26.1283 19.2457 23.3395 20.4097 21.28 22.4692C19.2205 24.5287 18.0566 27.3175 18.0408 30.23C18.0507 30.3337 18.0385 30.4384 18.0051 30.5371C17.9717 30.6358 17.9179 30.7265 17.8471 30.803C17.7763 30.8794 17.6901 30.9401 17.5943 30.981C17.4984 31.0218 17.395 31.0419 17.2908 31.04Z" fill="#1C2A40"/>
<path fill-rule="evenodd" clip-rule="evenodd" d="M18.0004 36.2C17.8632 36.1995 17.7288 36.161 17.6122 36.0886C17.4957 36.0162 17.4016 35.9128 17.3404 35.79C16.9211 34.9985 16.6467 34.1382 16.5304 33.25C16.5183 33.1463 16.5283 33.0412 16.5597 32.9417C16.5911 32.8421 16.6432 32.7501 16.7126 32.6721C16.782 32.5941 16.8672 32.5318 16.9625 32.489C17.0577 32.4463 17.161 32.4241 17.2654 32.4241C17.3698 32.4241 17.473 32.4463 17.5683 32.489C17.6636 32.5318 17.7487 32.5941 17.8182 32.6721C17.8876 32.7501 17.9397 32.8421 17.9711 32.9417C18.0025 33.0412 18.0125 33.1463 18.0004 33.25C18.1232 33.9067 18.3458 34.5405 18.6604 35.1299C18.7165 35.2425 18.743 35.3677 18.7373 35.4934C18.7316 35.6191 18.6939 35.7413 18.6279 35.8484C18.5618 35.9555 18.4695 36.044 18.3597 36.1055C18.2499 36.167 18.1262 36.1996 18.0004 36.2Z" fill="#1C2A40"/>
<path fill-rule="evenodd" clip-rule="evenodd" d="M39.3906 20.73C39.2635 20.7291 39.1388 20.6956 39.0284 20.6326C38.9181 20.5695 38.8258 20.4789 38.7606 20.3699C38.0406 19.1699 34.0006 16.3101 28.3406 16.3101C22.4506 16.3101 19.3406 19.3099 18.6606 20.3699C18.6168 20.4608 18.5548 20.5418 18.4786 20.6079C18.4023 20.674 18.3133 20.724 18.2171 20.7544C18.1209 20.7848 18.0194 20.7951 17.919 20.7849C17.8186 20.7747 17.7214 20.7443 17.6333 20.6951C17.5451 20.6459 17.468 20.5791 17.4066 20.499C17.3452 20.4189 17.3008 20.3271 17.2762 20.2292C17.2516 20.1314 17.2473 20.0295 17.2635 19.9299C17.2798 19.8303 17.3162 19.7349 17.3706 19.6499C18.1806 18.3199 21.7106 14.8799 28.3106 14.8799C34.5106 14.8799 38.9806 17.9899 39.9906 19.6499C40.0575 19.7618 40.0938 19.8896 40.0955 20.02C40.0973 20.1505 40.0645 20.2791 40.0006 20.3928C39.9366 20.5065 39.8437 20.6012 39.7313 20.6675C39.6189 20.7337 39.491 20.7691 39.3605 20.77L39.3906 20.73Z" fill="#1C2A40"/>
<path fill-rule="evenodd" clip-rule="evenodd" d="M36.4409 14.8401C36.3614 14.8533 36.2803 14.8533 36.2009 14.8401L35.3409 14.53C33.1145 13.6604 30.7275 13.2783 28.3409 13.4099C24.8009 13.4099 24.0109 13.8199 22.9109 14.4099L22.0209 14.8501C21.8443 14.9162 21.6491 14.9123 21.4752 14.8394C21.3013 14.7664 21.1618 14.6298 21.0853 14.4575C21.0087 14.2852 21.0008 14.0901 21.0631 13.9121C21.1255 13.7342 21.2535 13.5868 21.4209 13.5C21.7309 13.36 21.9909 13.2201 22.2409 13.1001C23.4709 12.4701 24.4509 11.97 28.3409 11.97H29.2709C31.5087 11.9768 33.7259 12.3972 35.8109 13.21L36.6409 13.5C36.8066 13.5568 36.9468 13.6706 37.0365 13.821C37.1262 13.9715 37.1596 14.1487 37.1308 14.3215C37.102 14.4943 37.0129 14.6514 36.8792 14.7646C36.7456 14.8779 36.576 14.9399 36.4009 14.9399L36.4409 14.8401Z" fill="#1C2A40"/>
<path fill-rule="evenodd" clip-rule="evenodd" d="M42.3304 25.1498C42.175 25.1491 42.0237 25.0995 41.898 25.008C41.7724 24.9164 41.6788 24.7876 41.6305 24.6398C41.2474 23.6733 40.7789 22.743 40.2305 21.8598C40.1645 21.778 40.1167 21.6831 40.0902 21.5815C40.0638 21.4798 40.0593 21.3737 40.0771 21.2702C40.0948 21.1666 40.1344 21.0679 40.1933 20.9809C40.2521 20.8938 40.3288 20.8204 40.4183 20.7653C40.5077 20.7102 40.6079 20.6747 40.7122 20.6613C40.8164 20.6479 40.9223 20.6569 41.0227 20.6877C41.1232 20.7184 41.216 20.7701 41.2949 20.8395C41.3738 20.9089 41.4371 20.9943 41.4805 21.09C42.0931 22.076 42.612 23.1171 43.0305 24.1999C43.0727 24.3124 43.0869 24.4336 43.0718 24.5529C43.0567 24.6721 43.0128 24.7857 42.9439 24.8842C42.875 24.9827 42.7831 25.0628 42.6762 25.1178C42.5693 25.1728 42.4506 25.201 42.3304 25.1999V25.1498Z" fill="#1C2A40"/>
</svg>
