<svg width="7" height="5" viewBox="0 0 7 5" fill="none" xmlns="http://www.w3.org/2000/svg">
<path fill-rule="evenodd" clip-rule="evenodd" d="M0.152434 3.55954C0.0998099 3.61968 0.0597041 3.68971 0.0345143 3.76554C0.00932444 3.84137 -0.000480933 3.92147 0.00570566 4.00113C0.0118923 4.0808 0.0339301 4.15843 0.070525 4.22947C0.10712 4.3005 0.157564 4.36351 0.21884 4.4148C0.280117 4.46609 0.351028 4.50461 0.427398 4.52813C0.503767 4.55164 0.584032 4.55966 0.663543 4.55172C0.743053 4.54378 0.8202 4.52003 0.89041 4.48188C0.96062 4.44373 1.02249 4.39194 1.07242 4.32955L3.23239 1.72954L5.39242 4.32955C5.49571 4.44757 5.64109 4.52045 5.79745 4.5326C5.95382 4.54474 6.10876 4.49517 6.22903 4.39451C6.34931 4.29384 6.42536 4.15009 6.44095 3.99402C6.45654 3.83796 6.41039 3.68201 6.31241 3.55954L3.69241 0.399541L3.6124 0.319539C3.49005 0.219606 3.33326 0.171963 3.17599 0.18694C3.01873 0.201918 2.87372 0.278309 2.77243 0.399541L0.152434 3.55954Z" fill="#1C2A40"/>
</svg>
