<svg width="40" height="35" viewBox="0 0 40 35" fill="none" xmlns="http://www.w3.org/2000/svg">
<path fill-rule="evenodd" clip-rule="evenodd" d="M9.92714 30.9993C9.92714 29.2088 9.92714 27.4185 9.92714 25.6287C9.92714 23.6099 9.51983 23.9169 7.80098 23.6989C6.19008 23.4943 4.54251 22.4251 3.61079 21.1574C2.84403 20.1178 2.28704 18.804 2.28704 17.035V9.20864C2.28704 8.10769 2.48357 7.05075 2.82163 6.29257C3.94886 3.76224 6.13509 2.30216 9.3121 2.30216H29.7794C34.0561 2.30216 36.8055 5.13023 36.8055 9.20761V16.8815C36.8055 19.1325 35.8391 21.3487 34.1488 22.4987C32.0572 23.921 30.8811 23.788 28.3294 23.788H18.0978C16.885 23.7828 16.9939 23.9384 16.3606 24.5748L11.2448 29.7152C10.9037 30.058 10.2713 30.7691 9.92714 31.0004V30.9993ZM0 8.44125V17.8023C0 20.7031 2.09866 23.7112 4.60666 25.0669C5.2553 25.4169 6.7043 26.0124 7.63602 26.0124V33.9932C7.63602 34.6664 8.71947 35.576 9.75607 34.5119L17.9206 26.2958C18.111 26.1044 18.0601 26.1024 18.3971 26.084L23.6718 26.0901C25.6818 26.0901 30.6419 26.2415 32.3841 25.8671C33.9879 25.5233 35.3493 24.6495 36.4928 23.5496C37.951 22.1468 39.0966 19.8712 39.0966 17.6489V8.44023C39.0966 6.20969 38.0223 4.09989 36.5193 2.58967C35.8391 1.90619 34.9756 1.21042 34.0683 0.831847C33.1163 0.43383 32.0654 0 30.6968 0H8.39667C5.80619 0 2.97234 1.68006 1.61396 3.69676C0.702607 5.05759 0 6.61078 0 8.44125Z" fill="#1C2A40"/>
<path fill-rule="evenodd" clip-rule="evenodd" d="M27.7198 16.7283C27.4683 16.5942 27.3543 16.5001 27.2504 16.2034C27.004 15.5004 27.1099 12.3235 27.1099 11.3576C27.1099 9.1956 29.7828 9.48005 29.7828 11.0506V15.6549C29.7886 15.8644 29.7428 16.0721 29.6496 16.2595C29.5563 16.4469 29.4185 16.6083 29.2482 16.7293C29.2482 14.6236 27.9153 15.4861 27.7921 15.7266C27.6791 15.9476 27.7208 16.3855 27.7208 16.7293L27.7198 16.7283ZM24.665 11.9715C24.665 13.6915 24.4277 16.6679 25.3778 17.7821C26.0906 18.6181 26.5223 18.7501 27.7198 19.0314C27.7198 19.9012 27.6017 20.643 28.4835 20.643C29.3653 20.643 29.2126 19.5246 29.2411 19.2555C29.2849 18.835 29.4794 18.9782 29.9213 18.8647C31.2033 18.5352 32.2257 17.3504 32.2257 15.7327V11.0496C32.2114 10.5488 32.1079 10.0547 31.9202 9.59055C30.7818 7.02544 26.7596 7.36513 25.5621 8.72801C24.8758 9.51381 24.665 10.5186 24.665 11.9705V11.9715Z" fill="#1C2A40"/>
<path fill-rule="evenodd" clip-rule="evenodd" d="M18.7097 10.7434L19.8553 14.7338H17.6405L18.7097 10.7434ZM14.2812 17.9558C14.2812 18.5236 15.1315 18.9534 15.885 18.9534C16.607 18.9534 16.6579 18.5195 16.8015 17.9568C16.8666 17.702 16.9247 17.4994 16.997 17.2324C17.2342 16.3565 16.6793 16.5745 20.1608 16.5745C20.4347 16.5745 20.4265 16.8814 20.4998 17.1546C20.5732 17.4278 20.6292 17.6273 20.6943 17.88C20.9173 18.7354 20.9153 18.9534 21.7635 18.9534C22.2879 18.9534 23.2146 18.5103 23.2146 18.0325C23.2146 17.745 22.9213 16.8906 22.8235 16.5837C22.4559 15.4224 20.4204 8.46473 20.1648 8.13015C19.6435 7.45588 18.0153 7.43337 17.4033 8.0483C17.1212 8.33172 17.0153 8.95279 16.887 9.37025L14.2812 17.9558Z" fill="#1C2A40"/>
<path fill-rule="evenodd" clip-rule="evenodd" d="M7.56445 8.66938V17.9537C7.56445 19.4015 10.0083 19.1314 10.0083 18.1839V14.2723C11.0266 14.2723 12.4603 14.4514 12.8177 14.0268C13.2423 13.5234 13.1812 12.3549 12.0693 12.3549H10.0083V9.82251H14.0549C14.7677 9.82251 15.1211 7.67383 13.7494 7.67383H8.86173C8.11839 7.67383 7.56445 7.91734 7.56445 8.66938Z" fill="#1C2A40"/>
</svg>
