<svg width="45" height="25" viewBox="0 0 45 25" fill="none" xmlns="http://www.w3.org/2000/svg">
<path fill-rule="evenodd" clip-rule="evenodd" d="M24.8439 1.12287C24.8439 2.0791 26.361 2.92468 26.8845 3.71101H7.0007C4.54936 3.71101 3.06845 3.47863 1.66722 4.99206C0.936484 5.781 0.732422 6.91624 0.732422 8.10551V12.6953C0.732422 13.3527 0.806273 13.9503 1.38024 14.2439C1.93736 14.5296 2.64348 14.4021 3.00626 13.9523C3.28742 13.604 3.2615 13.2961 3.2615 12.6953C3.2615 11.7024 3.2615 10.7095 3.2615 9.71659C3.2615 8.92505 3.14036 7.40185 3.40791 6.88565C3.80243 6.1247 4.62645 6.25033 5.74005 6.25033H26.9331C26.4057 7.04122 24.8439 7.9252 24.8439 8.88729C24.8439 9.61635 25.4982 10.1566 26.1557 10.1566C26.7277 10.1566 27.3263 9.4445 27.6502 9.11903L30.1767 6.58036C30.7481 6.00623 31.2093 5.72502 31.2093 4.88336C31.2093 4.33136 30.5369 3.79238 30.2253 3.47928L27.8439 1.08642C26.9428 0.180962 26.9234 0.0227829 26.4051 0H25.6698C25.2565 0 24.8439 0.673073 24.8439 1.12287Z" fill="#1C2A40"/>
<path fill-rule="evenodd" clip-rule="evenodd" d="M16.827 18.7498C17.5118 17.7219 19.8679 16.6016 18.5165 15.2457C18.3824 15.1103 18.3507 15.0563 18.1557 14.9736C17.4392 14.669 17.0058 15.0055 16.632 15.3805L12.8494 19.197C12.5462 19.5563 12.5508 19.6845 12.5508 20.1174C12.5508 20.6622 13.2038 21.1888 13.5102 21.4967C13.8989 21.8873 16.9048 25.0001 17.1185 25.0001H18.0669C18.3002 24.9675 18.4686 24.8699 18.6616 24.5978C19.6334 23.2406 17.5487 22.2993 16.8756 21.2891H38.2317C40.8832 21.2891 42.9213 21.5338 44.0958 19.1735C44.4151 18.5317 44.5 17.8313 44.5 16.8952V12.3048C44.5 11.6473 44.4261 11.0498 43.8522 10.7562C43.2782 10.4626 42.5922 10.5961 42.2268 11.0478C41.945 11.3961 41.9709 11.7033 41.9709 12.3048C41.9709 13.2977 41.9709 14.2906 41.9709 15.2835C41.9709 16.075 42.0921 17.5982 41.8245 18.1144C41.43 18.8754 40.606 18.7498 39.4924 18.7498H16.827Z" fill="#1C2A40"/>
</svg>
