<svg width="44" height="25" viewBox="0 0 44 25" fill="none" xmlns="http://www.w3.org/2000/svg">
<path fill-rule="evenodd" clip-rule="evenodd" d="M0 23.013C0 22.8579 0.0616 22.7092 0.171273 22.5995C0.280947 22.4898 0.429701 22.4282 0.584802 22.4282C0.739904 22.4282 0.888657 22.4898 0.998331 22.5995C1.108 22.7092 1.1696 22.8579 1.1696 23.013V24.3633C1.1696 24.5184 1.108 24.6672 0.998331 24.7769C0.888657 24.8865 0.739904 24.9481 0.584802 24.9481C0.429701 24.9481 0.280947 24.8865 0.171273 24.7769C0.0616 24.6672 0 24.5184 0 24.3633V23.013Z" fill="#1C2A40"/>
<path fill-rule="evenodd" clip-rule="evenodd" d="M1.83637 23.0124C1.82908 22.9321 1.83856 22.8512 1.86428 22.7748C1.89 22.6985 1.93141 22.6283 1.98576 22.5688C2.04011 22.5093 2.10621 22.4617 2.17996 22.4292C2.2537 22.3967 2.33343 22.3799 2.41403 22.3799C2.49463 22.3799 2.57436 22.3967 2.6481 22.4292C2.72184 22.4617 2.78801 22.5093 2.84236 22.5688C2.89671 22.6283 2.93806 22.6985 2.96378 22.7748C2.98949 22.8512 2.99898 22.9321 2.99169 23.0124V24.3627C2.99898 24.443 2.98949 24.5239 2.96378 24.6003C2.93806 24.6766 2.89671 24.7468 2.84236 24.8063C2.78801 24.8659 2.72184 24.9134 2.6481 24.9459C2.57436 24.9784 2.49463 24.9952 2.41403 24.9952C2.33343 24.9952 2.2537 24.9784 2.17996 24.9459C2.10621 24.9134 2.04011 24.8659 1.98576 24.8063C1.93141 24.7468 1.89 24.6766 1.86428 24.6003C1.83856 24.5239 1.82908 24.443 1.83637 24.3627V23.0124Z" fill="#1C2A40"/>
<path fill-rule="evenodd" clip-rule="evenodd" d="M3.71917 23.012C3.71185 22.9311 3.72149 22.8495 3.74744 22.7726C3.77338 22.6956 3.8151 22.6248 3.8699 22.5649C3.9247 22.5049 3.99139 22.457 4.06572 22.4242C4.14006 22.3914 4.22036 22.3745 4.30159 22.3745C4.38283 22.3745 4.46319 22.3914 4.53752 22.4242C4.61186 22.457 4.67855 22.5049 4.73335 22.5649C4.78814 22.6248 4.82987 22.6956 4.85581 22.7726C4.88175 22.8495 4.89139 22.9311 4.88408 23.012V24.3623C4.89139 24.4432 4.88175 24.5248 4.85581 24.6017C4.82987 24.6787 4.78814 24.7495 4.73335 24.8094C4.67855 24.8694 4.61186 24.9173 4.53752 24.9501C4.46319 24.9829 4.38283 24.9998 4.30159 24.9998C4.22036 24.9998 4.14006 24.9829 4.06572 24.9501C3.99139 24.9173 3.9247 24.8694 3.8699 24.8094C3.8151 24.7495 3.77338 24.6787 3.74744 24.6017C3.72149 24.5248 3.71185 24.4432 3.71917 24.3623V23.012Z" fill="#1C2A40"/>
<path fill-rule="evenodd" clip-rule="evenodd" d="M11.5532 23.0124C11.5459 22.9321 11.5554 22.8512 11.5811 22.7748C11.6068 22.6985 11.6482 22.6283 11.7025 22.5688C11.7569 22.5093 11.8231 22.4617 11.8968 22.4292C11.9705 22.3967 12.0503 22.3799 12.1309 22.3799C12.2115 22.3799 12.2911 22.3967 12.3649 22.4292C12.4386 22.4617 12.5048 22.5093 12.5591 22.5688C12.6135 22.6283 12.6548 22.6985 12.6806 22.7748C12.7063 22.8512 12.7158 22.9321 12.7085 23.0124V24.3627C12.7158 24.443 12.7063 24.5239 12.6806 24.6003C12.6548 24.6766 12.6135 24.7468 12.5591 24.8063C12.5048 24.8659 12.4386 24.9134 12.3649 24.9459C12.2911 24.9784 12.2115 24.9952 12.1309 24.9952C12.0503 24.9952 11.9705 24.9784 11.8968 24.9459C11.8231 24.9134 11.7569 24.8659 11.7025 24.8063C11.6482 24.7468 11.6068 24.6766 11.5811 24.6003C11.5554 24.5239 11.5459 24.443 11.5532 24.3627V23.0124Z" fill="#1C2A40"/>
<path fill-rule="evenodd" clip-rule="evenodd" d="M9.67034 23.0124C9.66305 22.9321 9.6726 22.8512 9.69832 22.7748C9.72404 22.6985 9.76538 22.6283 9.81974 22.5688C9.87409 22.5093 9.94025 22.4617 10.014 22.4292C10.0877 22.3967 10.1674 22.3799 10.248 22.3799C10.3286 22.3799 10.4083 22.3967 10.4821 22.4292C10.5558 22.4617 10.622 22.5093 10.6763 22.5688C10.7307 22.6283 10.772 22.6985 10.7978 22.7748C10.8235 22.8512 10.833 22.9321 10.8257 23.0124V24.3627C10.833 24.443 10.8235 24.5239 10.7978 24.6003C10.772 24.6766 10.7307 24.7468 10.6763 24.8063C10.622 24.8659 10.5558 24.9134 10.4821 24.9459C10.4083 24.9784 10.3286 24.9952 10.248 24.9952C10.1674 24.9952 10.0877 24.9784 10.014 24.9459C9.94025 24.9134 9.87409 24.8659 9.81974 24.8063C9.76538 24.7468 9.72404 24.6766 9.69832 24.6003C9.6726 24.5239 9.66305 24.443 9.67034 24.3627V23.0124Z" fill="#1C2A40"/>
<path fill-rule="evenodd" clip-rule="evenodd" d="M21.1543 23.013C21.1543 22.8579 21.2159 22.7092 21.3256 22.5995C21.4352 22.4898 21.584 22.4282 21.7391 22.4282C21.8942 22.4282 22.043 22.4898 22.1526 22.5995C22.2623 22.7092 22.3239 22.8579 22.3239 23.013V24.3633C22.3239 24.5184 22.2623 24.6672 22.1526 24.7769C22.043 24.8865 21.8942 24.9481 21.7391 24.9481C21.584 24.9481 21.4352 24.8865 21.3256 24.7769C21.2159 24.6672 21.1543 24.5184 21.1543 24.3633V23.013Z" fill="#1C2A40"/>
<path fill-rule="evenodd" clip-rule="evenodd" d="M19.3325 23.0124C19.3252 22.9321 19.3347 22.8512 19.3604 22.7748C19.3861 22.6985 19.4275 22.6283 19.4818 22.5688C19.5362 22.5093 19.6024 22.4617 19.6761 22.4292C19.7498 22.3967 19.8296 22.3799 19.9102 22.3799C19.9908 22.3799 20.0704 22.3967 20.1442 22.4292C20.2179 22.4617 20.2841 22.5093 20.3384 22.5688C20.3928 22.6283 20.4342 22.6985 20.4599 22.7748C20.4856 22.8512 20.4951 22.9321 20.4878 23.0124V24.3627C20.4951 24.443 20.4856 24.5239 20.4599 24.6003C20.4342 24.6766 20.3928 24.7468 20.3384 24.8063C20.2841 24.8659 20.2179 24.9134 20.1442 24.9459C20.0704 24.9784 19.9908 24.9952 19.9102 24.9952C19.8296 24.9952 19.7498 24.9784 19.6761 24.9459C19.6024 24.9134 19.5362 24.8659 19.4818 24.8063C19.4275 24.7468 19.3861 24.6766 19.3604 24.6003C19.3347 24.5239 19.3252 24.443 19.3325 24.3627V23.0124Z" fill="#1C2A40"/>
<path fill-rule="evenodd" clip-rule="evenodd" d="M24.2126 24.3677C24.2126 24.5228 24.151 24.6716 24.0413 24.7812C23.9316 24.8909 23.7829 24.9525 23.6278 24.9525C23.4727 24.9525 23.3239 24.8909 23.2142 24.7812C23.1046 24.6716 23.043 24.5228 23.043 24.3677V23.0174C23.043 22.8623 23.1046 22.7136 23.2142 22.6039C23.3239 22.4942 23.4727 22.4326 23.6278 22.4326C23.7829 22.4326 23.9316 22.4942 24.0413 22.6039C24.151 22.7136 24.2126 22.8623 24.2126 23.0174V24.3677Z" fill="#1C2A40"/>
<path fill-rule="evenodd" clip-rule="evenodd" d="M30.5742 23.013C30.5742 22.8579 30.6358 22.7092 30.7455 22.5995C30.8552 22.4898 31.0039 22.4282 31.159 22.4282C31.3141 22.4282 31.4629 22.4898 31.5725 22.5995C31.6822 22.7092 31.7438 22.8579 31.7438 23.013V24.3633C31.7438 24.5184 31.6822 24.6672 31.5725 24.7769C31.4629 24.8865 31.3141 24.9481 31.159 24.9481C31.0039 24.9481 30.8552 24.8865 30.7455 24.7769C30.6358 24.6672 30.5742 24.5184 30.5742 24.3633V23.013Z" fill="#1C2A40"/>
<path fill-rule="evenodd" clip-rule="evenodd" d="M28.7524 23.0124C28.7451 22.9321 28.7546 22.8512 28.7803 22.7748C28.8061 22.6985 28.8474 22.6283 28.9018 22.5688C28.9561 22.5093 29.0223 22.4617 29.096 22.4292C29.1698 22.3967 29.2495 22.3799 29.3301 22.3799C29.4107 22.3799 29.4904 22.3967 29.5641 22.4292C29.6379 22.4617 29.704 22.5093 29.7584 22.5688C29.8127 22.6283 29.8541 22.6985 29.8798 22.7748C29.9056 22.8512 29.915 22.9321 29.9078 23.0124V24.3627C29.915 24.443 29.9056 24.5239 29.8798 24.6003C29.8541 24.6766 29.8127 24.7468 29.7584 24.8063C29.704 24.8659 29.6379 24.9134 29.5641 24.9459C29.4904 24.9784 29.4107 24.9952 29.3301 24.9952C29.2495 24.9952 29.1698 24.9784 29.096 24.9459C29.0223 24.9134 28.9561 24.8659 28.9018 24.8063C28.8474 24.7468 28.8061 24.6766 28.7803 24.6003C28.7546 24.5239 28.7451 24.443 28.7524 24.3627V23.0124Z" fill="#1C2A40"/>
<path fill-rule="evenodd" clip-rule="evenodd" d="M33.6325 24.3677C33.6325 24.5228 33.5709 24.6716 33.4612 24.7812C33.3515 24.8909 33.2028 24.9525 33.0477 24.9525C32.8926 24.9525 32.7438 24.8909 32.6342 24.7812C32.5245 24.6716 32.4629 24.5228 32.4629 24.3677V23.0174C32.4629 22.8623 32.5245 22.7136 32.6342 22.6039C32.7438 22.4942 32.8926 22.4326 33.0477 22.4326C33.2028 22.4326 33.3515 22.4942 33.4612 22.6039C33.5709 22.7136 33.6325 22.8623 33.6325 23.0174V24.3677Z" fill="#1C2A40"/>
<path fill-rule="evenodd" clip-rule="evenodd" d="M40.4805 0.637544C40.4805 0.482442 40.5421 0.333696 40.6517 0.224022C40.7614 0.114349 40.9102 0.0527344 41.0653 0.0527344C41.2204 0.0527344 41.3691 0.114349 41.4788 0.224022C41.5885 0.333696 41.6501 0.482442 41.6501 0.637544V24.3676C41.6501 24.5227 41.5885 24.6714 41.4788 24.7811C41.3691 24.8908 41.2204 24.9524 41.0653 24.9524C40.9102 24.9524 40.7614 24.8908 40.6517 24.7811C40.5421 24.6714 40.4805 24.5227 40.4805 24.3676V0.637544Z" fill="#1C2A40"/>
<path fill-rule="evenodd" clip-rule="evenodd" d="M38.6504 0.637544C38.6504 0.482442 38.712 0.333696 38.8217 0.224022C38.9314 0.114349 39.0801 0.0527344 39.2353 0.0527344C39.3904 0.0527344 39.5391 0.114349 39.6488 0.224022C39.7585 0.333696 39.8201 0.482442 39.8201 0.637544V24.3676C39.8201 24.5227 39.7585 24.6714 39.6488 24.7811C39.5391 24.8908 39.3904 24.9524 39.2353 24.9524C39.0801 24.9524 38.9314 24.8908 38.8217 24.7811C38.712 24.6714 38.6504 24.5227 38.6504 24.3676V0.637544Z" fill="#1C2A40"/>
<path fill-rule="evenodd" clip-rule="evenodd" d="M43.5325 18.8998C43.5398 18.9807 43.5302 19.0622 43.5042 19.1392C43.4783 19.2162 43.4366 19.2869 43.3818 19.3469C43.327 19.4069 43.2603 19.4548 43.186 19.4876C43.1116 19.5203 43.0313 19.5373 42.95 19.5373C42.8688 19.5373 42.7884 19.5203 42.7141 19.4876C42.6398 19.4548 42.5731 19.4069 42.5183 19.3469C42.4635 19.2869 42.4218 19.2162 42.3959 19.1392C42.3699 19.0622 42.3603 18.9807 42.3676 18.8998V0.637487C42.3603 0.556578 42.3699 0.475032 42.3959 0.398047C42.4218 0.321062 42.4635 0.25033 42.5183 0.190354C42.5731 0.130377 42.6398 0.0824766 42.7141 0.0497033C42.7884 0.0169299 42.8688 0 42.95 0C43.0313 0 43.1116 0.0169299 43.186 0.0497033C43.2603 0.0824766 43.327 0.130377 43.3818 0.190354C43.4366 0.25033 43.4783 0.321062 43.5042 0.398047C43.5302 0.475032 43.5398 0.556578 43.5325 0.637487V18.8998Z" fill="#1C2A40"/>
<path fill-rule="evenodd" clip-rule="evenodd" d="M42.3715 21.4528C42.3642 21.3726 42.3737 21.2917 42.3994 21.2153C42.4252 21.1389 42.4665 21.0687 42.5209 21.0092C42.5752 20.9497 42.6414 20.9022 42.7151 20.8696C42.7889 20.8371 42.8686 20.8203 42.9492 20.8203C43.0298 20.8203 43.1095 20.8371 43.1833 20.8696C43.257 20.9022 43.3232 20.9497 43.3775 21.0092C43.4319 21.0687 43.4732 21.1389 43.4989 21.2153C43.5246 21.2917 43.5341 21.3726 43.5268 21.4528V24.3674C43.5341 24.4476 43.5246 24.5286 43.4989 24.6049C43.4732 24.6813 43.4319 24.7515 43.3775 24.811C43.3232 24.8705 43.257 24.9181 43.1833 24.9506C43.1095 24.9831 43.0298 24.9999 42.9492 24.9999C42.8686 24.9999 42.7889 24.9831 42.7151 24.9506C42.6414 24.9181 42.5752 24.8705 42.5209 24.811C42.4665 24.7515 42.4252 24.6813 42.3994 24.6049C42.3737 24.5286 42.3642 24.4476 42.3715 24.3674V21.4528Z" fill="#1C2A40"/>
<path fill-rule="evenodd" clip-rule="evenodd" d="M13.375 23.013C13.375 22.8572 13.4369 22.7079 13.547 22.5978C13.6571 22.4876 13.8064 22.4258 13.9622 22.4258C14.1179 22.4258 14.2673 22.4876 14.3774 22.5978C14.4875 22.7079 14.5494 22.8572 14.5494 23.013V24.3633C14.5494 24.519 14.4875 24.6684 14.3774 24.7785C14.2673 24.8886 14.1179 24.9505 13.9622 24.9505C13.8064 24.9505 13.6571 24.8886 13.547 24.7785C13.4369 24.6684 13.375 24.519 13.375 24.3633V23.013Z" fill="#1C2A40"/>
</svg>
