<svg width="50" height="25" viewBox="0 0 50 25" fill="none" xmlns="http://www.w3.org/2000/svg">
<path fill-rule="evenodd" clip-rule="evenodd" d="M32.95 14.6959L31.192 12.9473C31.131 12.8877 31.0588 12.8408 30.9795 12.8091C30.9003 12.7775 30.8157 12.7618 30.7304 12.7628C30.6451 12.7639 30.5609 12.7818 30.4825 12.8154C30.4041 12.8491 30.3331 12.8978 30.2736 12.9589C30.214 13.02 30.1671 13.0922 30.1354 13.1714C30.1038 13.2506 30.0881 13.3353 30.0892 13.4205C30.0902 13.5058 30.1081 13.5901 30.1417 13.6685C30.1754 13.7468 30.2241 13.8178 30.2852 13.8774L32.0431 15.626C32.1665 15.7463 32.3325 15.8126 32.5048 15.8104C32.677 15.8082 32.8414 15.7377 32.9616 15.6144C33.0819 15.491 33.1482 15.325 33.146 15.1527C33.1438 14.9805 33.0733 14.8161 32.95 14.6959ZM24.1139 6.46899L22.3559 4.72037C22.2326 4.60011 22.0665 4.53377 21.8943 4.53596C21.722 4.53814 21.5577 4.60865 21.4374 4.732C21.3172 4.85534 21.2509 5.0214 21.253 5.19365C21.2552 5.3659 21.3257 5.53023 21.4491 5.65049L23.207 7.39911C23.2681 7.45865 23.3402 7.50559 23.4194 7.53723C23.4987 7.56887 23.5834 7.58461 23.6687 7.58353C23.754 7.58245 23.8382 7.56457 23.9166 7.53094C23.995 7.4973 24.0659 7.44856 24.1255 7.38749C24.185 7.32641 24.232 7.25421 24.2636 7.175C24.2953 7.09578 24.311 7.01112 24.3099 6.92583C24.3088 6.84054 24.2909 6.7563 24.2573 6.67791C24.2237 6.59953 24.1749 6.52854 24.1139 6.46899ZM20.9794 3.35775C21.051 3.41216 21.1104 3.48102 21.1536 3.55985C21.1969 3.63869 21.2231 3.72574 21.2306 3.81537C21.2381 3.90499 21.2267 3.99519 21.1971 4.08011C21.1675 4.16503 21.1203 4.24278 21.0587 4.30831C20.9971 4.37384 20.9224 4.42569 20.8395 4.4605C20.7566 4.49531 20.6672 4.51231 20.5773 4.51038C20.4874 4.50845 20.3989 4.48765 20.3175 4.44932C20.2362 4.41098 20.1638 4.35597 20.1051 4.28786C18.6083 2.90307 16.7619 1.95305 14.765 1.54021C12.7681 1.12736 10.6964 1.26735 8.77322 1.94508C6.85001 2.62282 5.14827 3.81258 3.85138 5.38615C2.55449 6.95971 1.71166 8.8574 1.41374 10.8746C1.11582 12.8919 1.37412 14.9522 2.16077 16.8335C2.94743 18.7147 4.23259 20.3456 5.87778 21.5504C7.52297 22.7551 9.46577 23.488 11.4967 23.67C13.5277 23.852 15.5698 23.4763 17.403 22.5833C17.479 22.5443 17.562 22.5209 17.6471 22.5144C17.7322 22.5079 17.8178 22.5184 17.8988 22.5454C17.9798 22.5723 18.0546 22.6152 18.1188 22.6714C18.183 22.7276 18.2354 22.7961 18.2729 22.8729C18.3103 22.9496 18.332 23.033 18.3368 23.1182C18.3416 23.2035 18.3293 23.2888 18.3007 23.3692C18.2721 23.4497 18.2278 23.5236 18.1703 23.5867C18.1128 23.6498 18.0433 23.7007 17.9658 23.7366C15.9217 24.7332 13.6444 25.1529 11.3794 24.9505C9.11439 24.748 6.94759 23.9311 5.11269 22.5878C3.27779 21.2445 1.8444 19.4258 0.967073 17.3278C0.0897464 15.2298 -0.198239 12.9321 0.134202 10.6825C0.466643 8.43284 1.40689 6.31664 2.85354 4.56207C4.30018 2.8075 6.19835 1.48112 8.34335 0.725958C10.4884 -0.0292027 12.7988 -0.184495 15.0256 0.276831C17.2523 0.738156 19.3109 1.79859 20.9794 3.34379V3.35775ZM20.3515 22.2252C20.2189 22.3251 20.0526 22.3698 19.8877 22.3497C19.7228 22.3296 19.5721 22.2464 19.4674 22.1175C19.3626 21.9886 19.3118 21.8241 19.3258 21.6586C19.3398 21.4931 19.4174 21.3394 19.5423 21.23C19.839 20.9889 20.123 20.7328 20.3934 20.4626L24.3975 16.4724L32.8197 8.10135C33.6838 7.24197 34.7803 6.65412 35.9743 6.41024C37.1683 6.16637 38.4076 6.27712 39.5394 6.72885C40.6712 7.18058 41.6462 7.95355 42.3441 8.95252C43.0421 9.9515 43.4326 11.1328 43.4674 12.351C43.5023 13.5691 43.18 14.7709 42.5403 15.8081C41.9007 16.8454 40.9715 17.6728 39.8673 18.1885C38.7632 18.7043 37.5323 18.8857 36.3263 18.7105C35.1203 18.5353 33.992 18.0111 33.0802 17.2025C33.017 17.1467 32.9654 17.0789 32.9284 17.0031C32.8914 16.9272 32.8697 16.8449 32.8645 16.7607C32.854 16.5906 32.9115 16.4233 33.0244 16.2957C33.1373 16.168 33.2962 16.0904 33.4662 16.08C33.6363 16.0695 33.8036 16.127 33.9312 16.2399C34.6559 16.8819 35.5525 17.2979 36.5106 17.4367C37.4688 17.5755 38.4466 17.431 39.3236 17.0209C40.2007 16.6109 40.9385 15.9532 41.4464 15.129C41.9543 14.3048 42.2101 13.35 42.1821 12.3822C42.1541 11.4145 41.8436 10.4761 41.2888 9.68263C40.7341 8.88916 39.9594 8.27529 39.0602 7.91664C38.1609 7.558 37.1764 7.47025 36.2279 7.66421C35.2793 7.85816 34.4083 8.32535 33.722 9.00821L25.2998 17.3793L21.2956 21.3695C21.0034 21.6702 20.696 21.9558 20.3748 22.2252H20.3515Z" fill="#1C2A40"/>
<path fill-rule="evenodd" clip-rule="evenodd" d="M28.5876 15.6259L31.378 18.4163C31.7711 18.8089 32.2027 19.161 32.6662 19.4673C32.7363 19.5186 32.816 19.5551 32.9006 19.5746C32.9853 19.5942 33.073 19.5963 33.1585 19.581C33.244 19.5656 33.3254 19.5331 33.3979 19.4853C33.4705 19.4376 33.5326 19.3756 33.5805 19.3031C33.6283 19.2307 33.661 19.1493 33.6765 19.0638C33.692 18.9784 33.69 18.8906 33.6706 18.806C33.6512 18.7213 33.6149 18.6415 33.5637 18.5713C33.5126 18.5011 33.4477 18.4421 33.3731 18.3977C32.9817 18.1385 32.6171 17.8409 32.2848 17.5094L29.4944 14.7191C29.3711 14.5988 29.205 14.5325 29.0328 14.5346C28.8605 14.5368 28.6962 14.6073 28.576 14.7307C28.4557 14.854 28.3894 15.0201 28.3916 15.1923C28.3938 15.3646 28.4643 15.5289 28.5876 15.6492V15.6259ZM35.2287 20.5881C35.0634 20.5468 34.9212 20.4415 34.8336 20.2954C34.7459 20.1493 34.72 19.9744 34.7613 19.8091C34.8026 19.6438 34.9078 19.5018 35.0539 19.4141C35.2 19.3264 35.3749 19.3004 35.5402 19.3417C36.1059 19.4837 36.687 19.5555 37.2703 19.5557C38.3978 19.5511 39.5078 19.2758 40.5068 18.7529C41.5058 18.23 42.3646 17.4749 43.011 16.551C43.6573 15.6271 44.0724 14.5615 44.2212 13.4438C44.37 12.3261 44.2481 11.189 43.8659 10.1282C43.4837 9.06734 42.8524 8.11382 42.0249 7.34783C41.1975 6.58184 40.1981 6.02578 39.111 5.72642C38.0239 5.42706 36.8809 5.39316 35.778 5.62758C34.675 5.86199 33.6445 6.35787 32.7731 7.07348C32.7081 7.12723 32.6331 7.16763 32.5525 7.1924C32.4718 7.21716 32.387 7.22579 32.303 7.2178C32.219 7.20981 32.1374 7.18536 32.0629 7.14584C31.9883 7.10631 31.9224 7.05249 31.8686 6.98745C31.8149 6.92241 31.7745 6.84741 31.7497 6.76676C31.7249 6.6861 31.7163 6.60135 31.7243 6.51736C31.7322 6.43337 31.7567 6.35177 31.7962 6.27722C31.8358 6.20268 31.8896 6.13665 31.9546 6.08291C32.9855 5.2305 34.2063 4.63874 35.514 4.35763C36.8218 4.07653 38.178 4.11433 39.4681 4.46785C40.7581 4.82137 41.9441 5.48021 42.9259 6.38872C43.9076 7.29723 44.6562 8.42869 45.1085 9.68752C45.5608 10.9464 45.7034 12.2956 45.5243 13.6211C45.3452 14.9467 44.8497 16.2097 44.0796 17.3034C43.3095 18.3971 42.2875 19.2893 41.0999 19.9047C39.9122 20.5202 38.5939 20.8407 37.2563 20.8392C36.5665 20.8399 35.8792 20.7555 35.21 20.5881H35.2287ZM29.8526 8.14312C29.9759 8.02286 30.142 7.95652 30.3142 7.9587C30.4865 7.96088 30.6508 8.0314 30.771 8.15474C30.8913 8.27809 30.9577 8.44415 30.9555 8.6164C30.9533 8.78865 30.8828 8.95298 30.7595 9.07324L24.3137 15.4445L23.5557 16.1979C23.4324 16.3182 23.2663 16.3845 23.094 16.3824C22.9218 16.3802 22.7574 16.3097 22.6372 16.1863C22.5169 16.063 22.4506 15.8969 22.4528 15.7247C22.455 15.5524 22.5255 15.3881 22.6488 15.2678L23.4068 14.5144L29.834 8.11056L29.8526 8.14312ZM21.2769 16.6862L18.9516 19.0115C17.7868 20.1691 16.331 20.9907 14.738 21.3896C13.145 21.7884 11.4739 21.7497 9.90106 21.2776C8.32822 20.8055 6.91199 19.9174 5.802 18.7072C4.692 17.4969 3.9294 16.0094 3.59467 14.4017C3.25994 12.794 3.36551 11.1258 3.90026 9.57312C4.43501 8.02045 5.37911 6.64097 6.63282 5.58034C7.88654 4.5197 9.40336 3.81727 11.0232 3.5472C12.643 3.27713 14.3057 3.44945 15.8357 4.04595C15.9149 4.08058 16.0004 4.09883 16.0869 4.09961C16.1734 4.10039 16.2591 4.08368 16.3389 4.05049C16.4188 4.0173 16.4911 3.9683 16.5516 3.90646C16.6121 3.84461 16.6594 3.77117 16.6907 3.69057C16.7221 3.60997 16.7369 3.52387 16.7341 3.43743C16.7314 3.35099 16.7112 3.26599 16.6747 3.18755C16.6383 3.10911 16.5864 3.03884 16.5221 2.98097C16.4579 2.92309 16.3825 2.87879 16.3007 2.85075C14.4151 2.11525 12.3563 1.94346 10.3748 2.35628C8.39331 2.76909 6.57441 3.74872 5.13932 5.17604C4.17132 6.14221 3.40315 7.28957 2.87857 8.55263C2.354 9.81569 2.08333 11.1697 2.08204 12.5374C2.08074 13.905 2.34884 15.2595 2.87102 16.5236C3.39321 17.7876 4.15925 18.9365 5.12541 19.9045C6.09158 20.8725 7.23891 21.6407 8.50197 22.1653C9.76503 22.6898 11.119 22.9605 12.4867 22.9618C13.8544 22.9631 15.2089 22.695 16.4729 22.1728C17.737 21.6506 18.8858 20.8846 19.8538 19.9184L22.1791 17.5931C22.3024 17.4698 22.3717 17.3025 22.3717 17.1281C22.3717 16.9536 22.3024 16.7863 22.1791 16.663C22.0557 16.5397 21.8885 16.4704 21.714 16.4704C21.5396 16.4704 21.3723 16.5397 21.249 16.663L21.2769 16.6862ZM17.8913 5.16674C18.2554 5.43527 18.5989 5.73063 18.919 6.05036L21.7094 8.84071C21.7704 8.90026 21.8426 8.94719 21.9219 8.97883C22.0011 9.01047 22.0857 9.0262 22.171 9.02512C22.2563 9.02404 22.3406 9.00617 22.4189 8.97254C22.4973 8.9389 22.5684 8.89015 22.6279 8.82908C22.6875 8.76801 22.7344 8.69581 22.766 8.6166C22.7977 8.53739 22.8134 8.45272 22.8123 8.36743C22.8112 8.28214 22.7934 8.1979 22.7597 8.11951C22.7261 8.04113 22.6773 7.97014 22.6163 7.91059L19.8259 5.12024C19.4595 4.75494 19.0662 4.4176 18.6493 4.11106C18.5815 4.06098 18.5045 4.02474 18.4227 4.00442C18.3409 3.98409 18.256 3.98008 18.1726 3.9926C18.0893 4.00513 18.0092 4.03395 17.937 4.07741C17.8647 4.12088 17.8018 4.17814 17.7517 4.24593C17.7016 4.31372 17.6654 4.39071 17.6451 4.4725C17.6248 4.5543 17.6208 4.6393 17.6333 4.72264C17.6458 4.80599 17.6746 4.88605 17.7181 4.95826C17.7616 5.03047 17.8188 5.09341 17.8866 5.14349L17.8913 5.16674Z" fill="#1C2A40"/>
<path fill-rule="evenodd" clip-rule="evenodd" d="M25.6159 18.5652L26.4158 19.3604C26.5391 19.4807 26.7052 19.547 26.8774 19.5448C27.0497 19.5426 27.2141 19.4721 27.3343 19.3488C27.4546 19.2254 27.5209 19.0594 27.5187 18.8871C27.5165 18.7149 27.446 18.5505 27.3227 18.4303L26.5228 17.635C26.4617 17.5755 26.3895 17.5286 26.3103 17.4969C26.2311 17.4653 26.1464 17.4495 26.0611 17.4506C25.9758 17.4517 25.8915 17.4696 25.8132 17.5032C25.7348 17.5368 25.6638 17.5856 25.6042 17.6467C25.5447 17.7077 25.4978 17.7799 25.4661 17.8591C25.4345 17.9384 25.4188 18.023 25.4199 18.1083C25.4209 18.1936 25.4388 18.2778 25.4724 18.3562C25.5061 18.4346 25.5548 18.5056 25.6159 18.5652ZM27.6528 20.5882C27.5918 20.5286 27.543 20.4576 27.5094 20.3792C27.4757 20.3009 27.4579 20.2166 27.4568 20.1313C27.4557 20.046 27.4714 19.9614 27.5031 19.8822C27.5347 19.8029 27.5817 19.7307 27.6412 19.6697C27.7008 19.6086 27.7717 19.5598 27.8501 19.5262C27.9285 19.4926 28.0127 19.4747 28.098 19.4736C28.1833 19.4725 28.268 19.4883 28.3473 19.5199C28.4265 19.5516 28.4986 19.5985 28.5597 19.658L29.3364 20.4347C30.6418 21.7368 32.2482 22.6969 34.0133 23.2299C35.7785 23.763 37.6478 23.8525 39.4558 23.4906C41.2637 23.1286 42.9545 22.3264 44.3784 21.155C45.8023 19.9835 46.9153 18.479 47.6189 16.7747C48.3225 15.0704 48.5949 13.2188 48.4121 11.3841C48.2292 9.54932 47.5966 7.78799 46.5705 6.25607C45.5444 4.72415 44.1563 3.46893 42.5292 2.60158C40.9021 1.73423 39.0862 1.28153 37.2424 1.28357C36.9602 1.28357 36.6781 1.29441 36.396 1.31612C36.3102 1.32596 36.2233 1.31839 36.1405 1.29387C36.0577 1.26935 35.9808 1.22839 35.9142 1.17342C35.8476 1.11845 35.7928 1.05062 35.7531 0.973979C35.7133 0.89734 35.6895 0.813468 35.6829 0.727385C35.6763 0.641303 35.6872 0.554779 35.7148 0.472992C35.7425 0.391206 35.7863 0.315843 35.8438 0.251405C35.9012 0.186968 35.9711 0.134782 36.0492 0.0979777C36.1273 0.0611733 36.212 0.0405032 36.2983 0.0372056C36.6083 0.0124024 36.9184 0 37.2284 0C39.2807 0.00338742 41.3006 0.512403 43.1095 1.48203C44.9183 2.45167 46.4603 3.85204 47.5993 5.55935C48.7382 7.26665 49.4389 9.22828 49.6395 11.2708C49.84 13.3133 49.5343 15.3738 48.7492 17.27C47.9641 19.1662 46.7238 20.8398 45.1381 22.1427C43.5525 23.4457 41.6702 24.3378 39.6577 24.7403C37.6452 25.1429 35.5646 25.0433 33.5997 24.4505C31.6349 23.8577 29.8463 22.7899 28.3923 21.3415L27.6157 20.5649L27.6528 20.5882ZM34.1963 0.395303C34.3615 0.353984 34.5364 0.380012 34.6825 0.467663C34.8286 0.555315 34.9339 0.697412 34.9752 0.862689C35.0165 1.02797 34.9905 1.20289 34.9028 1.34897C34.8152 1.49506 34.6731 1.60034 34.5078 1.64166C32.5508 2.13028 30.7634 3.14136 29.3364 4.56688L16.91 16.9467C16.0946 17.7609 15.069 18.3325 13.9476 18.5977C13.7817 18.6372 13.6069 18.6091 13.4617 18.5197C13.3165 18.4303 13.2127 18.2869 13.1732 18.121C13.1338 17.9551 13.1618 17.7803 13.2512 17.6351C13.3406 17.4899 13.484 17.3862 13.6499 17.3467C14.5409 17.1365 15.3557 16.6824 16.0031 16.0352L28.4295 3.65536C30.0203 2.06893 32.0118 0.943831 34.1916 0.399951L34.1963 0.395303ZM11.7572 17.4211C10.9821 17.3035 10.2458 17.0038 9.60882 16.5468C8.97185 16.0897 8.45228 15.4882 8.09261 14.7916C7.73295 14.095 7.54346 13.323 7.53967 12.5391C7.53589 11.7551 7.71794 10.9814 8.07087 10.2813C8.4238 9.58124 8.93757 8.97477 9.5701 8.51158C10.2026 8.04839 10.9359 7.74167 11.7098 7.61654C12.4838 7.49142 13.2764 7.55146 14.0226 7.79174C14.7689 8.03202 15.4476 8.44571 16.0031 8.99889L16.7565 9.74764C16.8799 9.86789 17.0459 9.93423 17.2182 9.93205C17.3904 9.92987 17.5548 9.85935 17.675 9.73601C17.7953 9.61267 17.8616 9.4466 17.8594 9.27435C17.8572 9.1021 17.7867 8.93778 17.6634 8.81752L16.91 8.06877C16.2079 7.37783 15.3524 6.86261 14.4134 6.56513C13.4743 6.26765 12.4783 6.19633 11.5064 6.35699C10.5345 6.51765 9.61439 6.90573 8.82103 7.4896C8.02766 8.07347 7.38352 8.83658 6.94115 9.71671C6.49877 10.5968 6.27067 11.5691 6.27546 12.5541C6.28026 13.5391 6.51782 14.5091 6.96874 15.3849C7.41966 16.2607 8.07118 17.0175 8.87019 17.5936C9.6692 18.1697 10.5931 18.5488 11.5665 18.7C11.7348 18.7253 11.9064 18.6827 12.0433 18.5815C12.1802 18.4803 12.2713 18.3289 12.2966 18.1605C12.3219 17.9922 12.2793 17.8207 12.1781 17.6838C12.0769 17.5468 11.9255 17.4557 11.7572 17.4304V17.4211ZM18.1843 11.1707L18.8028 11.7846C18.8638 11.8441 18.936 11.8911 19.0152 11.9227C19.0945 11.9544 19.1791 11.9701 19.2644 11.969C19.3497 11.9679 19.4339 11.9501 19.5123 11.9164C19.5907 11.8828 19.6618 11.834 19.7213 11.773C19.7808 11.7119 19.8278 11.6397 19.8594 11.5605C19.8911 11.4813 19.9068 11.3966 19.9057 11.3113C19.9046 11.226 19.8868 11.1418 19.8531 11.0634C19.8195 10.985 19.7707 10.914 19.7097 10.8545L19.0911 10.2406C18.9678 10.1203 18.8017 10.054 18.6294 10.0562C18.4572 10.0584 18.2929 10.1289 18.1726 10.2522C18.0524 10.3756 17.986 10.5416 17.9882 10.7139C17.9904 10.8861 18.0609 11.0505 18.1843 11.1707Z" fill="#1C2A40"/>
<path fill-rule="evenodd" clip-rule="evenodd" d="M27.0902 17.0957L29.1225 19.1187C29.2458 19.2389 29.4119 19.3053 29.5841 19.3031C29.7564 19.3009 29.9207 19.2304 30.041 19.107C30.1612 18.9837 30.2275 18.8176 30.2254 18.6454C30.2232 18.4731 30.1527 18.3088 30.0293 18.1885L27.997 16.1655C27.8737 16.0453 27.7076 15.9789 27.5354 15.9811C27.3631 15.9833 27.1988 16.0538 27.0785 16.1772C26.9583 16.3005 26.892 16.4666 26.8942 16.6388C26.8963 16.8111 26.9668 16.9754 27.0902 17.0957ZM30.3735 20.3511C30.2452 20.2388 30.1667 20.0802 30.1554 19.9102C30.1441 19.7401 30.2008 19.5725 30.313 19.4442C30.4252 19.3159 30.5839 19.2375 30.7539 19.2262C30.924 19.2148 31.0916 19.2715 31.2199 19.3837C31.3935 19.5357 31.5703 19.6798 31.7501 19.8162C31.8864 19.9186 31.9764 20.0709 32.0004 20.2397C32.0244 20.4085 31.9803 20.5798 31.8779 20.7161C31.7755 20.8524 31.6232 20.9425 31.4545 20.9664C31.2857 20.9904 31.1144 20.9464 30.9781 20.844C30.7703 20.689 30.5688 20.5247 30.3735 20.3511ZM30.9781 20.844C32.3924 21.9078 34.0546 22.5934 35.8076 22.836C37.5606 23.0785 39.3466 22.8701 40.9966 22.2304C42.6467 21.5907 44.1063 20.5408 45.2377 19.1799C46.3691 17.819 47.1348 16.1922 47.4624 14.453C47.79 12.7139 47.6688 10.9199 47.1101 9.2407C46.5515 7.56146 45.5739 6.0524 44.2697 4.85614C42.9655 3.65987 41.3779 2.81591 39.6568 2.404C37.9356 1.9921 36.1379 2.02586 34.4334 2.5021C34.3522 2.5247 34.2763 2.56307 34.2099 2.61503C34.1435 2.66699 34.0879 2.73153 34.0465 2.80494C33.9627 2.95321 33.9413 3.12866 33.987 3.2927C34.0326 3.45674 34.1416 3.59595 34.2898 3.67967C34.4381 3.7634 34.6136 3.7848 34.7776 3.73916C35.5815 3.51442 36.4123 3.40021 37.247 3.39967C38.6928 3.40164 40.1175 3.74714 41.4035 4.40771C42.6896 5.06828 43.8002 6.025 44.644 7.19903C45.4878 8.37306 46.0405 9.73079 46.2566 11.1603C46.4727 12.5899 46.346 14.0503 45.8869 15.4213C45.4278 16.7922 44.6496 18.0345 43.6162 19.0457C42.5829 20.0569 41.324 20.808 39.9434 21.2372C38.5628 21.6664 37.0999 21.7614 35.6754 21.5144C34.2509 21.2673 32.9055 20.6853 31.7501 19.8162C31.6138 19.7245 31.4476 19.6885 31.2856 19.7156C31.1237 19.7427 30.9782 19.8309 30.8793 19.962C30.7804 20.0931 30.7354 20.2572 30.7538 20.4204C30.7722 20.5836 30.8525 20.7335 30.9781 20.8394V20.844ZM31.5594 3.79962C31.6299 3.75214 31.7092 3.71915 31.7925 3.70256C31.8759 3.68597 31.9617 3.68611 32.0451 3.70297C32.1284 3.71983 32.2076 3.75307 32.2779 3.80078C32.3483 3.84848 32.4085 3.90969 32.455 3.98085C32.5015 4.05201 32.5334 4.13169 32.5489 4.21529C32.5643 4.29888 32.563 4.38471 32.545 4.4678C32.527 4.55089 32.4927 4.62957 32.4441 4.69929C32.3954 4.769 32.3334 4.82836 32.2616 4.8739C31.7356 5.21648 31.2463 5.61232 30.8013 6.05515L27.0809 9.77562C27.0198 9.83517 26.9476 9.8821 26.8684 9.91374C26.7892 9.94538 26.7045 9.96112 26.6192 9.96004C26.5339 9.95896 26.4497 9.94108 26.3713 9.90745C26.2929 9.87381 26.2219 9.82507 26.1624 9.764C26.1028 9.70293 26.0559 9.63072 26.0243 9.55151C25.9926 9.4723 25.9769 9.38763 25.9779 9.30234C25.979 9.21706 25.9969 9.13281 26.0306 9.05442C26.0642 8.97604 26.113 8.90505 26.174 8.8455L29.8945 5.12503C30.4015 4.61935 30.9595 4.1674 31.5594 3.77637V3.79962ZM24.8067 10.2128L18.2541 16.7236C18.193 16.7847 18.1445 16.8572 18.1115 16.937C18.0784 17.0168 18.0614 17.1023 18.0614 17.1887C18.0614 17.275 18.0784 17.3606 18.1115 17.4404C18.1445 17.5201 18.193 17.5926 18.2541 17.6537C18.3151 17.7148 18.3876 17.7632 18.4674 17.7963C18.5472 17.8293 18.6327 17.8464 18.7191 17.8464C18.8055 17.8464 18.891 17.8293 18.9708 17.7963C19.0506 17.7632 19.1231 17.7148 19.1842 17.6537L25.7368 11.1429C25.8602 11.0196 25.9295 10.8523 25.9295 10.6778C25.9295 10.5034 25.8602 10.3361 25.7368 10.2128C25.6135 10.0894 25.4462 10.0201 25.2718 10.0201C25.0974 10.0201 24.9301 10.0894 24.8067 10.2128ZM16.6357 18.235C15.5812 18.9978 14.3359 19.4533 13.0382 19.5511C11.7404 19.6489 10.441 19.3851 9.28414 18.789C8.12727 18.1929 7.15823 17.2878 6.48464 16.1743C5.81105 15.0608 5.45929 13.7823 5.46835 12.481C5.47741 11.1796 5.84699 9.90616 6.53602 8.80212C7.22505 7.69808 8.20656 6.80662 9.37162 6.2267C10.5367 5.64677 11.8397 5.4011 13.1359 5.51694C14.4322 5.63279 15.6709 6.10563 16.7147 6.88295C16.7819 6.9372 16.8593 6.97733 16.9423 7.00095C17.0254 7.02457 17.1123 7.03119 17.198 7.02042C17.2836 7.00965 17.3662 6.98172 17.4408 6.93828C17.5154 6.89484 17.5806 6.83678 17.6322 6.76761C17.6839 6.69843 17.721 6.61954 17.7414 6.53567C17.7619 6.45179 17.7652 6.36465 17.7512 6.27946C17.7372 6.19427 17.7061 6.11279 17.6599 6.03989C17.6136 5.96698 17.5531 5.90416 17.482 5.85518C16.248 4.9362 14.7834 4.37722 13.2508 4.24031C11.7183 4.1034 10.1778 4.39392 8.80034 5.0796C7.42292 5.76529 6.26251 6.81932 5.44791 8.12465C4.63332 9.42998 4.19641 10.9355 4.18575 12.4742C4.17508 14.0128 4.59108 15.5242 5.38751 16.8407C6.18393 18.1572 7.32963 19.2272 8.69742 19.9319C10.0652 20.6367 11.6015 20.9485 13.1358 20.8328C14.6701 20.7172 16.1424 20.1786 17.3891 19.2768C17.4575 19.2273 17.5154 19.1649 17.5597 19.093C17.604 19.0211 17.6336 18.9412 17.647 18.8579C17.6604 18.7745 17.6572 18.6893 17.6377 18.6072C17.6182 18.5251 17.5827 18.4476 17.5332 18.3792C17.4837 18.3108 17.4213 18.2528 17.3494 18.2086C17.2775 18.1643 17.1976 18.1346 17.1143 18.1212C17.0309 18.1078 16.9458 18.111 16.8637 18.1305C16.7815 18.1501 16.7041 18.1856 16.6357 18.235ZM18.2634 8.32464C18.2023 8.26509 18.1535 8.1941 18.1199 8.11572C18.0863 8.03734 18.0684 7.95309 18.0673 7.8678C18.0662 7.78251 18.082 7.69785 18.1136 7.61864C18.1453 7.53942 18.1922 7.46722 18.2517 7.40615C18.3113 7.34507 18.3823 7.29633 18.4606 7.2627C18.539 7.22906 18.6233 7.21118 18.7086 7.21011C18.7938 7.20903 18.8785 7.22476 18.9577 7.2564C19.0369 7.28804 19.1091 7.33498 19.1702 7.39452L21.1792 9.39428C21.3026 9.51453 21.3731 9.67886 21.3753 9.85111C21.3775 10.0234 21.3111 10.1894 21.1909 10.3128C21.0706 10.4361 20.9063 10.5066 20.7341 10.5088C20.5618 10.511 20.3957 10.4447 20.2724 10.3244L18.2634 8.32464Z" fill="#1C2A40"/>
</svg>
