<svg width="44" height="25" viewBox="0 0 44 25" fill="none" xmlns="http://www.w3.org/2000/svg">
<path fill-rule="evenodd" clip-rule="evenodd" d="M0 0.636934C0 0.481865 0.0615872 0.333149 0.171238 0.223498C0.280889 0.113848 0.429611 0.0522461 0.584681 0.0522461C0.73975 0.0522461 0.888473 0.113848 0.998124 0.223498C1.10777 0.333149 1.16936 0.481865 1.16936 0.636934V24.362C1.16936 24.5171 1.10777 24.6658 0.998124 24.7755C0.888473 24.8851 0.73975 24.9467 0.584681 24.9467C0.429611 24.9467 0.280889 24.8851 0.171238 24.7755C0.0615872 24.6658 0 24.5171 0 24.362V0.636934Z" fill="#1C2A40"/>
<path fill-rule="evenodd" clip-rule="evenodd" d="M1.8344 14.7559C1.82712 14.6757 1.83666 14.5948 1.86237 14.5184C1.88809 14.442 1.92943 14.3719 1.98377 14.3124C2.03811 14.2529 2.10425 14.2054 2.17798 14.1728C2.25171 14.1403 2.33137 14.1235 2.41195 14.1235C2.49253 14.1235 2.57224 14.1403 2.64597 14.1728C2.7197 14.2054 2.78585 14.2529 2.84019 14.3124C2.89453 14.3719 2.93587 14.442 2.96158 14.5184C2.98729 14.5948 2.99684 14.6757 2.98955 14.7559V24.3629C2.99684 24.4432 2.98729 24.524 2.96158 24.6004C2.93587 24.6768 2.89453 24.747 2.84019 24.8065C2.78585 24.866 2.7197 24.9135 2.64597 24.946C2.57224 24.9785 2.49253 24.9953 2.41195 24.9953C2.33137 24.9953 2.25171 24.9785 2.17798 24.946C2.10425 24.9135 2.03811 24.866 1.98377 24.8065C1.92943 24.747 1.88809 24.6768 1.86237 24.6004C1.83666 24.524 1.82712 24.4432 1.8344 24.3629V14.7559Z" fill="#1C2A40"/>
<path fill-rule="evenodd" clip-rule="evenodd" d="M1.8344 0.637269C1.82712 0.557019 1.83666 0.476132 1.86237 0.399764C1.88809 0.323397 1.92943 0.253224 1.98377 0.193725C2.03811 0.134225 2.10425 0.0867056 2.17798 0.0541913C2.25171 0.0216771 2.33137 0.00488281 2.41195 0.00488281C2.49253 0.00488281 2.57224 0.0216771 2.64597 0.0541913C2.7197 0.0867056 2.78585 0.134225 2.84019 0.193725C2.89453 0.253224 2.93587 0.323397 2.96158 0.399764C2.98729 0.476132 2.99684 0.557019 2.98955 0.637269V12.2978C2.99684 12.378 2.98729 12.4589 2.96158 12.5353C2.93587 12.6117 2.89453 12.6818 2.84019 12.7413C2.78585 12.8008 2.7197 12.8484 2.64597 12.8809C2.57224 12.9134 2.49253 12.9302 2.41195 12.9302C2.33137 12.9302 2.25171 12.9134 2.17798 12.8809C2.10425 12.8484 2.03811 12.8008 1.98377 12.7413C1.92943 12.6818 1.88809 12.6117 1.86237 12.5353C1.83666 12.4589 1.82712 12.378 1.8344 12.2978V0.637269Z" fill="#1C2A40"/>
<path fill-rule="evenodd" clip-rule="evenodd" d="M3.71722 6.1232C3.7099 6.04231 3.71954 5.96078 3.74548 5.88381C3.77142 5.80684 3.81313 5.73612 3.86791 5.67615C3.9227 5.61619 3.98938 5.5683 4.0637 5.53553C4.13802 5.50277 4.21836 5.48584 4.29958 5.48584C4.3808 5.48584 4.46108 5.50277 4.5354 5.53553C4.60972 5.5683 4.6764 5.61619 4.73118 5.67615C4.78597 5.73612 4.82768 5.80684 4.85362 5.88381C4.87956 5.96078 4.8892 6.04231 4.88188 6.1232V24.3627C4.8892 24.4436 4.87956 24.5251 4.85362 24.6021C4.82768 24.679 4.78597 24.7498 4.73118 24.8097C4.6764 24.8697 4.60972 24.9176 4.5354 24.9503C4.46108 24.9831 4.3808 25 4.29958 25C4.21836 25 4.13802 24.9831 4.0637 24.9503C3.98938 24.9176 3.9227 24.8697 3.86791 24.8097C3.81313 24.7498 3.77142 24.679 3.74548 24.6021C3.71954 24.5251 3.7099 24.4436 3.71722 24.3627V6.1232Z" fill="#1C2A40"/>
<path fill-rule="evenodd" clip-rule="evenodd" d="M4.87822 3.55121C4.88551 3.63146 4.87597 3.71235 4.85025 3.78872C4.82454 3.86509 4.7832 3.93526 4.72886 3.99476C4.67452 4.05426 4.60837 4.10178 4.53464 4.13429C4.46091 4.16681 4.38126 4.1836 4.30068 4.1836C4.2201 4.1836 4.14038 4.16681 4.06665 4.13429C3.99293 4.10178 3.92678 4.05426 3.87244 3.99476C3.8181 3.93526 3.77676 3.86509 3.75105 3.78872C3.72533 3.71235 3.71579 3.63146 3.72308 3.55121V0.637269C3.71579 0.557019 3.72533 0.476132 3.75105 0.399764C3.77676 0.323397 3.8181 0.253224 3.87244 0.193725C3.92678 0.134225 3.99293 0.0867056 4.06665 0.0541913C4.14038 0.0216771 4.2201 0.00488281 4.30068 0.00488281C4.38126 0.00488281 4.46091 0.0216771 4.53464 0.0541913C4.60837 0.0867056 4.67452 0.134225 4.72886 0.193725C4.7832 0.253224 4.82454 0.323397 4.85025 0.399764C4.87597 0.476132 4.88551 0.557019 4.87822 0.637269V3.55121Z" fill="#1C2A40"/>
<path fill-rule="evenodd" clip-rule="evenodd" d="M13.3613 0.636802C13.3613 0.480472 13.4234 0.330543 13.534 0.220001C13.6445 0.109459 13.7944 0.0473633 13.9508 0.0473633C14.1071 0.0473633 14.257 0.109459 14.3676 0.220001C14.4781 0.330543 14.5402 0.480472 14.5402 0.636802V6.86874C14.5402 7.02507 14.4781 7.175 14.3676 7.28554C14.257 7.39609 14.1071 7.45819 13.9508 7.45819C13.7944 7.45819 13.6445 7.39609 13.534 7.28554C13.4234 7.175 13.3613 7.02507 13.3613 6.86874V0.636802Z" fill="#1C2A40"/>
<path fill-rule="evenodd" clip-rule="evenodd" d="M11.5492 18.7012C11.542 18.621 11.5515 18.5401 11.5772 18.4637C11.6029 18.3874 11.6443 18.3172 11.6986 18.2577C11.753 18.1982 11.8191 18.1507 11.8928 18.1182C11.9666 18.0856 12.0463 18.0688 12.1268 18.0688C12.2074 18.0688 12.2871 18.0856 12.3608 18.1182C12.4345 18.1507 12.5007 18.1982 12.555 18.2577C12.6094 18.3172 12.6508 18.3874 12.6765 18.4637C12.7022 18.5401 12.7117 18.621 12.7044 18.7012V24.358C12.7117 24.4382 12.7022 24.5191 12.6765 24.5955C12.6508 24.6719 12.6094 24.742 12.555 24.8015C12.5007 24.861 12.4345 24.9086 12.3608 24.9411C12.2871 24.9736 12.2074 24.9904 12.1268 24.9904C12.0463 24.9904 11.9666 24.9736 11.8928 24.9411C11.8191 24.9086 11.753 24.861 11.6986 24.8015C11.6443 24.742 11.6029 24.6719 11.5772 24.5955C11.5515 24.5191 11.542 24.4382 11.5492 24.358V18.7012Z" fill="#1C2A40"/>
<path fill-rule="evenodd" clip-rule="evenodd" d="M11.5469 0.636934C11.5469 0.481865 11.6085 0.333149 11.7181 0.223499C11.8278 0.113848 11.9765 0.0522461 12.1316 0.0522461C12.2866 0.0522461 12.4353 0.113848 12.545 0.223499C12.6546 0.333149 12.7162 0.481865 12.7162 0.636934V16.5186C12.7162 16.6737 12.6546 16.8224 12.545 16.9321C12.4353 17.0417 12.2866 17.1033 12.1316 17.1033C11.9765 17.1033 11.8278 17.0417 11.7181 16.9321C11.6085 16.8224 11.5469 16.6737 11.5469 16.5186V0.636934Z" fill="#1C2A40"/>
<path fill-rule="evenodd" clip-rule="evenodd" d="M9.66644 12.8687C9.65915 12.7885 9.66869 12.7076 9.6944 12.6312C9.72012 12.5548 9.76146 12.4847 9.8158 12.4252C9.87014 12.3657 9.93629 12.3182 10.01 12.2856C10.0837 12.2531 10.1635 12.2363 10.244 12.2363C10.3246 12.2363 10.4043 12.2531 10.478 12.2856C10.5517 12.3182 10.6179 12.3657 10.6722 12.4252C10.7266 12.4847 10.7679 12.5548 10.7936 12.6312C10.8193 12.7076 10.8289 12.7885 10.8216 12.8687V24.3629C10.8289 24.4431 10.8193 24.524 10.7936 24.6004C10.7679 24.6767 10.7266 24.7469 10.6722 24.8064C10.6179 24.8659 10.5517 24.9134 10.478 24.9459C10.4043 24.9785 10.3246 24.9953 10.244 24.9953C10.1635 24.9953 10.0837 24.9785 10.01 24.9459C9.93629 24.9134 9.87014 24.8659 9.8158 24.8064C9.76146 24.7469 9.72012 24.6767 9.6944 24.6004C9.66869 24.524 9.65915 24.4431 9.66644 24.3629V12.8687Z" fill="#1C2A40"/>
<path fill-rule="evenodd" clip-rule="evenodd" d="M10.8311 10.5248C10.8384 10.6057 10.8288 10.6872 10.8028 10.7642C10.7769 10.8412 10.7352 10.9119 10.6804 10.9718C10.6256 11.0318 10.5589 11.0797 10.4846 11.1125C10.4103 11.1452 10.33 11.1622 10.2487 11.1622C10.1675 11.1622 10.0872 11.1452 10.0129 11.1125C9.9386 11.0797 9.87192 11.0318 9.81713 10.9718C9.76235 10.9119 9.72064 10.8412 9.6947 10.7642C9.66876 10.6872 9.65912 10.6057 9.66644 10.5248V0.637355C9.65912 0.556463 9.66876 0.474934 9.6947 0.397964C9.72064 0.320995 9.76235 0.250278 9.81713 0.190314C9.87192 0.13035 9.9386 0.0824595 10.0129 0.0496929C10.0872 0.0169264 10.1675 0 10.2487 0C10.33 0 10.4103 0.0169264 10.4846 0.0496929C10.5589 0.0824595 10.6256 0.13035 10.6804 0.190314C10.7352 0.250278 10.7769 0.320995 10.8028 0.397964C10.8288 0.474934 10.8384 0.556463 10.8311 0.637355V10.5248Z" fill="#1C2A40"/>
<path fill-rule="evenodd" clip-rule="evenodd" d="M21.1484 0.636934C21.1484 0.481865 21.21 0.333149 21.3197 0.223498C21.4293 0.113848 21.578 0.0522461 21.7331 0.0522461C21.8882 0.0522461 22.0369 0.113848 22.1466 0.223498C22.2562 0.333149 22.3178 0.481865 22.3178 0.636934V24.362C22.3178 24.5171 22.2562 24.6658 22.1466 24.7755C22.0369 24.8851 21.8882 24.9467 21.7331 24.9467C21.578 24.9467 21.4293 24.8851 21.3197 24.7755C21.21 24.6658 21.1484 24.5171 21.1484 24.362V0.636934Z" fill="#1C2A40"/>
<path fill-rule="evenodd" clip-rule="evenodd" d="M19.3286 14.7559C19.3213 14.6757 19.3308 14.5948 19.3565 14.5184C19.3822 14.442 19.4235 14.3719 19.4779 14.3124C19.5322 14.2529 19.5983 14.2054 19.6721 14.1728C19.7458 14.1403 19.8255 14.1235 19.9061 14.1235C19.9867 14.1235 20.0664 14.1403 20.1401 14.1728C20.2138 14.2054 20.28 14.2529 20.3343 14.3124C20.3887 14.3719 20.43 14.442 20.4557 14.5184C20.4814 14.5948 20.4909 14.6757 20.4836 14.7559V24.3629C20.4909 24.4432 20.4814 24.524 20.4557 24.6004C20.43 24.6768 20.3887 24.747 20.3343 24.8065C20.28 24.866 20.2138 24.9135 20.1401 24.946C20.0664 24.9785 19.9867 24.9953 19.9061 24.9953C19.8255 24.9953 19.7458 24.9785 19.6721 24.946C19.5983 24.9135 19.5322 24.866 19.4779 24.8065C19.4235 24.747 19.3822 24.6768 19.3565 24.6004C19.3308 24.524 19.3213 24.4432 19.3286 24.3629V14.7559Z" fill="#1C2A40"/>
<path fill-rule="evenodd" clip-rule="evenodd" d="M19.3286 0.637269C19.3213 0.557019 19.3308 0.476132 19.3565 0.399764C19.3822 0.323397 19.4235 0.253224 19.4779 0.193725C19.5322 0.134225 19.5983 0.0867056 19.6721 0.0541913C19.7458 0.0216771 19.8255 0.00488281 19.9061 0.00488281C19.9867 0.00488281 20.0664 0.0216771 20.1401 0.0541913C20.2138 0.0867056 20.28 0.134225 20.3343 0.193725C20.3887 0.253224 20.43 0.323397 20.4557 0.399764C20.4814 0.476132 20.4909 0.557019 20.4836 0.637269V12.2978C20.4909 12.378 20.4814 12.4589 20.4557 12.5353C20.43 12.6117 20.3887 12.6818 20.3343 12.7413C20.28 12.8008 20.2138 12.8484 20.1401 12.8809C20.0664 12.9134 19.9867 12.9302 19.9061 12.9302C19.8255 12.9302 19.7458 12.9134 19.6721 12.8809C19.5983 12.8484 19.5322 12.8008 19.4779 12.7413C19.4235 12.6818 19.3822 12.6117 19.3565 12.5353C19.3308 12.4589 19.3213 12.378 19.3286 12.2978V0.637269Z" fill="#1C2A40"/>
<path fill-rule="evenodd" clip-rule="evenodd" d="M24.2065 24.362C24.2065 24.5171 24.1449 24.6658 24.0352 24.7755C23.9256 24.8851 23.7769 24.9467 23.6218 24.9467C23.4667 24.9467 23.318 24.8851 23.2083 24.7755C23.0987 24.6658 23.0371 24.5171 23.0371 24.362V0.636934C23.0371 0.481865 23.0987 0.333149 23.2083 0.223498C23.318 0.113848 23.4667 0.0522461 23.6218 0.0522461C23.7769 0.0522461 23.9256 0.113848 24.0352 0.223498C24.1449 0.333149 24.2065 0.481865 24.2065 0.636934V24.362Z" fill="#1C2A40"/>
<path fill-rule="evenodd" clip-rule="evenodd" d="M28.9766 0.636934C28.9766 0.481865 29.0381 0.333149 29.1478 0.223498C29.2575 0.113848 29.4062 0.0522461 29.5612 0.0522461C29.7163 0.0522461 29.865 0.113848 29.9747 0.223498C30.0843 0.333149 30.146 0.481865 30.146 0.636934V24.362C30.146 24.5171 30.0843 24.6658 29.9747 24.7755C29.865 24.8851 29.7163 24.9467 29.5612 24.9467C29.4062 24.9467 29.2575 24.8851 29.1478 24.7755C29.0381 24.6658 28.9766 24.5171 28.9766 24.362V0.636934Z" fill="#1C2A40"/>
<path fill-rule="evenodd" clip-rule="evenodd" d="M30.8188 14.7559C30.8115 14.6757 30.821 14.5948 30.8467 14.5184C30.8725 14.442 30.9138 14.3719 30.9681 14.3124C31.0225 14.2529 31.0886 14.2054 31.1624 14.1728C31.2361 14.1403 31.3158 14.1235 31.3964 14.1235C31.477 14.1235 31.5566 14.1403 31.6303 14.1728C31.7041 14.2054 31.7702 14.2529 31.8246 14.3124C31.8789 14.3719 31.9202 14.442 31.946 14.5184C31.9717 14.5948 31.9812 14.6757 31.9739 14.7559V24.3629C31.9812 24.4432 31.9717 24.524 31.946 24.6004C31.9202 24.6768 31.8789 24.747 31.8246 24.8065C31.7702 24.866 31.7041 24.9135 31.6303 24.946C31.5566 24.9785 31.477 24.9953 31.3964 24.9953C31.3158 24.9953 31.2361 24.9785 31.1624 24.946C31.0886 24.9135 31.0225 24.866 30.9681 24.8065C30.9138 24.747 30.8725 24.6768 30.8467 24.6004C30.821 24.524 30.8115 24.4432 30.8188 24.3629V14.7559Z" fill="#1C2A40"/>
<path fill-rule="evenodd" clip-rule="evenodd" d="M30.8188 0.637269C30.8115 0.557019 30.821 0.476132 30.8467 0.399764C30.8725 0.323397 30.9138 0.253224 30.9681 0.193725C31.0225 0.134225 31.0886 0.0867056 31.1624 0.0541913C31.2361 0.0216771 31.3158 0.00488281 31.3964 0.00488281C31.477 0.00488281 31.5566 0.0216771 31.6303 0.0541913C31.7041 0.0867056 31.7702 0.134225 31.8246 0.193725C31.8789 0.253224 31.9202 0.323397 31.946 0.399764C31.9717 0.476132 31.9812 0.557019 31.9739 0.637269V12.2978C31.9812 12.378 31.9717 12.4589 31.946 12.5353C31.9202 12.6117 31.8789 12.6818 31.8246 12.7413C31.7702 12.8008 31.7041 12.8484 31.6303 12.8809C31.5566 12.9134 31.477 12.9302 31.3964 12.9302C31.3158 12.9302 31.2361 12.9134 31.1624 12.8809C31.0886 12.8484 31.0225 12.8008 30.9681 12.7413C30.9138 12.6818 30.8725 12.6117 30.8467 12.5353C30.821 12.4589 30.8115 12.378 30.8188 12.2978V0.637269Z" fill="#1C2A40"/>
<path fill-rule="evenodd" clip-rule="evenodd" d="M32.6953 6.12278C32.6953 5.96771 32.7569 5.81899 32.8666 5.70934C32.9762 5.59969 33.1249 5.53809 33.28 5.53809C33.4351 5.53809 33.5838 5.59969 33.6934 5.70934C33.8031 5.81899 33.8647 5.96771 33.8647 6.12278V24.3623C33.8647 24.5173 33.8031 24.666 33.6934 24.7757C33.5838 24.8853 33.4351 24.9469 33.28 24.9469C33.1249 24.9469 32.9762 24.8853 32.8666 24.7757C32.7569 24.666 32.6953 24.5173 32.6953 24.3623V6.12278Z" fill="#1C2A40"/>
<path fill-rule="evenodd" clip-rule="evenodd" d="M33.8587 3.55121C33.866 3.63146 33.8565 3.71235 33.8308 3.78872C33.8051 3.86509 33.7637 3.93526 33.7093 3.99476C33.655 4.05426 33.5888 4.10178 33.5151 4.13429C33.4414 4.16681 33.3617 4.1836 33.2811 4.1836C33.2006 4.1836 33.1209 4.16681 33.0471 4.13429C32.9734 4.10178 32.9072 4.05426 32.8529 3.99476C32.7986 3.93526 32.7572 3.86509 32.7315 3.78872C32.7058 3.71235 32.6963 3.63146 32.7035 3.55121V0.637269C32.6963 0.557019 32.7058 0.476132 32.7315 0.399764C32.7572 0.323397 32.7986 0.253224 32.8529 0.193725C32.9072 0.134225 32.9734 0.0867056 33.0471 0.0541913C33.1209 0.0216771 33.2006 0.00488281 33.2811 0.00488281C33.3617 0.00488281 33.4414 0.0216771 33.5151 0.0541913C33.5888 0.0867056 33.655 0.134225 33.7093 0.193725C33.7637 0.253224 33.8051 0.323397 33.8308 0.399764C33.8565 0.476132 33.866 0.557019 33.8587 0.637269V3.55121Z" fill="#1C2A40"/>
<path fill-rule="evenodd" clip-rule="evenodd" d="M40.459 0.636934C40.459 0.481865 40.5206 0.333149 40.6302 0.223498C40.7399 0.113848 40.8886 0.0522461 41.0437 0.0522461C41.1987 0.0522461 41.3475 0.113848 41.4571 0.223498C41.5668 0.333149 41.6283 0.481865 41.6283 0.636934V24.362C41.6283 24.5171 41.5668 24.6658 41.4571 24.7755C41.3475 24.8851 41.1987 24.9467 41.0437 24.9467C40.8886 24.9467 40.7399 24.8851 40.6302 24.7755C40.5206 24.6658 40.459 24.5171 40.459 24.362V0.636934Z" fill="#1C2A40"/>
<path fill-rule="evenodd" clip-rule="evenodd" d="M38.6426 0.636934C38.6426 0.481865 38.7042 0.333149 38.8138 0.223498C38.9235 0.113848 39.0722 0.0522461 39.2273 0.0522461C39.3823 0.0522461 39.5311 0.113848 39.6407 0.223498C39.7504 0.333149 39.8119 0.481865 39.8119 0.636934V24.362C39.8119 24.5171 39.7504 24.6658 39.6407 24.7755C39.5311 24.8851 39.3823 24.9467 39.2273 24.9467C39.0722 24.9467 38.9235 24.8851 38.8138 24.7755C38.7042 24.6658 38.6426 24.5171 38.6426 24.362V0.636934Z" fill="#1C2A40"/>
<path fill-rule="evenodd" clip-rule="evenodd" d="M43.524 18.8955C43.5108 19.0409 43.4438 19.176 43.3361 19.2745C43.2283 19.3729 43.0876 19.4275 42.9417 19.4275C42.7957 19.4275 42.6551 19.3729 42.5473 19.2745C42.4396 19.176 42.3725 19.0409 42.3594 18.8955V0.637002C42.3725 0.491643 42.4396 0.356458 42.5473 0.258012C42.6551 0.159566 42.7957 0.10498 42.9417 0.10498C43.0876 0.10498 43.2283 0.159566 43.3361 0.258012C43.4438 0.356458 43.5108 0.491643 43.524 0.637002V18.8955Z" fill="#1C2A40"/>
<path fill-rule="evenodd" clip-rule="evenodd" d="M42.3578 21.4478C42.3506 21.3676 42.3601 21.2867 42.3858 21.2103C42.4115 21.1339 42.4529 21.0638 42.5072 21.0043C42.5615 20.9448 42.6277 20.8973 42.7014 20.8647C42.7751 20.8322 42.8548 20.8154 42.9354 20.8154C43.016 20.8154 43.0957 20.8322 43.1694 20.8647C43.2431 20.8973 43.3093 20.9448 43.3636 21.0043C43.418 21.0638 43.4593 21.1339 43.485 21.2103C43.5107 21.2867 43.5203 21.3676 43.513 21.4478V24.3618C43.5203 24.442 43.5107 24.5229 43.485 24.5993C43.4593 24.6756 43.418 24.7458 43.3636 24.8053C43.3093 24.8648 43.2431 24.9123 43.1694 24.9448C43.0957 24.9774 43.016 24.9941 42.9354 24.9941C42.8548 24.9941 42.7751 24.9774 42.7014 24.9448C42.6277 24.9123 42.5615 24.8648 42.5072 24.8053C42.4529 24.7458 42.4115 24.6756 42.3858 24.5993C42.3601 24.5229 42.3506 24.442 42.3578 24.3618V21.4478Z" fill="#1C2A40"/>
<path fill-rule="evenodd" clip-rule="evenodd" d="M13.3613 9.44058C13.3613 9.28488 13.4232 9.13556 13.5333 9.02546C13.6434 8.91537 13.7927 8.85352 13.9484 8.85352C14.1041 8.85352 14.2534 8.91537 14.3635 9.02546C14.4736 9.13556 14.5354 9.28488 14.5354 9.44058V24.3621C14.5354 24.5178 14.4736 24.6671 14.3635 24.7772C14.2534 24.8873 14.1041 24.9491 13.9484 24.9491C13.7927 24.9491 13.6434 24.8873 13.5333 24.7772C13.4232 24.6671 13.3613 24.5178 13.3613 24.3621V9.44058Z" fill="#1C2A40"/>
</svg>
