<svg width="36" height="35" viewBox="0 0 36 35" fill="none" xmlns="http://www.w3.org/2000/svg">
<path fill-rule="evenodd" clip-rule="evenodd" d="M23.2448 33.2855H20.7574C19.4995 33.2855 19.5934 31.5711 20.6152 31.5711H23.3879C24.4164 31.5711 24.4808 33.2855 23.2457 33.2855H23.2448ZM31.9883 24.6427C31.8189 24.6419 31.6565 24.574 31.5367 24.4535C31.4169 24.3331 31.3492 24.17 31.3485 23.9998V17.2143C31.3485 16.2094 32.904 16.5266 33.4946 17.2724C33.8586 17.7324 33.9789 18.2677 33.9789 19.0716V22.2862C33.9789 23.6035 33.3154 24.6436 31.9883 24.6436V24.6427ZM1.70625 22.2862V18.9287C1.70625 18.1991 1.86455 17.6905 2.19158 17.2733C2.80583 16.4923 4.33671 16.2313 4.33671 17.2143V23.9998C4.33671 25.1427 1.70625 24.8999 1.70625 22.2853V22.2862ZM2.2039 15.1426C1.45126 15.5426 1.27589 15.6646 0.73179 16.3065C0.405708 16.6875 0 17.6029 0 18.2858V22.7853C0 24.556 1.34035 25.8942 2.71293 26.2733C4.61919 26.8001 6.1131 25.6504 6.1131 23.7854V17.4286C6.13183 16.7894 5.92009 16.165 5.51686 15.6703C5.19931 15.2664 4.53293 14.9035 3.98029 14.8569C3.98029 11.9042 5.51212 8.6076 7.37477 6.48261C9.73983 3.78527 13.0458 2.10404 16.6094 1.78637C20.1731 1.46871 23.722 2.5389 26.5226 4.77576C26.8351 5.03107 27.1341 5.30258 27.4184 5.58918C29.8233 7.90372 31.702 11.3355 31.702 14.8569C31.1494 14.9026 30.484 15.2664 30.1655 15.6703C29.7623 16.165 29.5505 16.7894 29.5692 17.4286V23.715C29.5692 25.2218 30.557 26.3581 31.7731 26.3581C31.7731 28.3678 31.9893 29.7966 30.0546 31.0596C29.5162 31.411 29.0223 31.5034 28.1483 31.5006C27.3426 31.5006 26.5369 31.5006 25.7311 31.5006C25.6278 31.0548 25.1804 30.569 24.8591 30.3052C23.9756 29.5775 22.0902 29.7861 20.7546 29.7861C19.8237 29.7861 19.1128 30.1823 18.5744 30.8776C17.3137 32.4969 18.5839 35 20.4702 35H23.5272C24.5387 35 25.5397 34.1113 25.7311 33.2855C28.0251 33.2855 30.1626 33.5941 31.8632 31.8759C33.6567 30.0661 33.5505 28.6374 33.5505 26C34.1145 25.8676 34.6595 25.2789 34.9828 24.8684C35.2909 24.4779 35.6823 23.6083 35.6823 22.9292V18.2858C35.6823 16.798 34.6207 15.7503 33.4784 15.1426C33.4784 9.41817 29.7361 4.0433 24.5936 1.49921C22.0817 0.256219 20.0692 0 17.1288 0C13.3751 0 9.37867 1.96688 6.73304 4.62527C6.1151 5.24941 5.55038 5.92455 5.0448 6.64358C3.35183 9.05432 2.2039 12.1328 2.2039 15.1436V15.1426Z" fill="#1C2A40"/>
<path fill-rule="evenodd" clip-rule="evenodd" d="M10.4492 19.4997V11.7846C10.4492 10.9559 11.3298 10.0701 12.1555 10.0701H23.5304C24.3665 10.0701 25.2367 10.9445 25.2367 11.7846V19.4997C25.2367 20.0712 24.8575 20.597 24.5182 20.8494C23.9399 21.2828 23.7598 21.2142 22.8195 21.2142H18.6942C17.5756 21.2142 17.2837 21.8152 16.2296 22.8772L14.1508 24.9308C14.1508 24.1688 14.1508 23.4068 14.1508 22.6448C14.1508 21.8181 13.9925 21.3695 13.2702 21.2437C12.3716 21.0866 12.0019 21.439 11.2929 20.9447C10.8947 20.6675 10.4521 20.1503 10.4521 19.5035L10.4492 19.4997ZM8.67188 11.9284V19.3578C8.68198 19.8599 8.79424 20.3545 9.00175 20.8113C9.62927 22.1038 10.689 23.002 12.3678 23.002V25.0022C12.3678 25.9004 13.2456 26.7167 14.1451 26.7167C14.9215 26.7167 15.3604 26.2471 15.7623 25.8414L18.2847 23.3021C18.6553 22.9125 18.5577 22.9934 19.2629 22.9992H23.0309C23.903 22.9992 24.5798 22.8811 25.1353 22.542C26.0955 21.9562 27.0112 20.8589 27.0112 19.3559V12.0713C27.0112 9.93584 25.3485 8.28613 23.3854 8.28613H12.2948C10.3544 8.28518 8.67188 9.97584 8.67188 11.9284Z" fill="#1C2A40"/>
<path fill-rule="evenodd" clip-rule="evenodd" d="M16.5625 15.7859C16.5625 17.4813 19.1219 17.4813 19.1219 15.7859C19.1219 14.0904 16.5625 14.0914 16.5625 15.7859Z" fill="#1C2A40"/>
<path fill-rule="evenodd" clip-rule="evenodd" d="M20.6855 15.7852C20.6855 17.3615 23.2449 17.6349 23.2449 15.7137C23.2449 14.6165 21.8411 14.0945 21.0647 14.8775C20.845 15.1315 20.7121 15.4497 20.6855 15.7852Z" fill="#1C2A40"/>
<path fill-rule="evenodd" clip-rule="evenodd" d="M12.4395 15.7136C12.4395 17.6348 14.9988 17.3614 14.9988 15.7851C14.9988 15.4498 14.795 15.0841 14.613 14.8869C13.8755 14.0906 12.4395 14.6116 12.4395 15.7136Z" fill="#1C2A40"/>
</svg>
