<svg width="90" height="38" viewBox="0 0 90 38" fill="none" xmlns="http://www.w3.org/2000/svg">
<path fill-rule="evenodd" clip-rule="evenodd" d="M74.5096 37.3101C78.6096 37.3101 80.5096 35.7498 82.2196 31.0098L89.5996 10.3101H85.3297L80.3297 26.3101H80.2396L75.2396 10.3101H70.8496L77.9696 30.02L77.5897 31.2202C76.9497 33.2202 75.9096 34.0298 74.0496 34.0298C73.7196 34.0298 73.0496 34.03 72.8196 33.96V37.21C73.3798 37.2844 73.9446 37.318 74.5096 37.3101Z" fill="black"/>
<path fill-rule="evenodd" clip-rule="evenodd" d="M59.13 30.1602C60.3781 30.1887 61.6111 29.8828 62.7012 29.2744C63.7914 28.666 64.699 27.7774 65.33 26.7002H65.42V29.9502H69.31V16.48C69.31 12.57 66.18 10.0498 61.37 10.0498C56.91 10.0498 53.61 12.5999 53.48 16.1099H57.27C57.58 14.4399 59.13 13.3501 61.27 13.3501C63.84 13.3501 65.27 14.55 65.27 16.75V18.2397L60.02 18.5498C55.14 18.8498 52.5 20.8398 52.5 24.3198C52.5 27.7998 55.23 30.1602 59.13 30.1602ZM60.26 26.9502C58.02 26.9502 56.6 25.8702 56.6 24.2202C56.6 22.5702 57.97 21.5301 60.6 21.3701L65.27 21.0698V22.6001C65.27 25.1401 63.11 26.9399 60.26 26.9399V26.9502Z" fill="black"/>
<path fill-rule="evenodd" clip-rule="evenodd" d="M32.3906 2.87028V29.9504H36.5906V20.6901H42.4106C47.7206 20.6901 51.4106 17.0399 51.4106 11.7599C51.468 10.5756 51.2767 9.39269 50.8489 8.28678C50.4212 7.18087 49.7665 6.17653 48.9271 5.33903C48.0877 4.50152 47.0822 3.84924 45.9754 3.42399C44.8685 2.99874 43.6848 2.81023 42.5006 2.87028H32.3906ZM36.5906 6.41032H41.4406C45.0906 6.41032 47.1706 8.35994 47.1706 11.7799C47.1706 15.1999 45.0906 17.1603 41.4206 17.1603H36.5906V6.41032Z" fill="black"/>
<path fill-rule="evenodd" clip-rule="evenodd" d="M18.4408 7.91005C16.0308 7.77005 13.9608 9.27968 12.8108 9.27968C11.6608 9.27968 9.89081 7.97966 7.98081 8.00966C6.73749 8.04123 5.52404 8.39779 4.46097 9.04335C3.39791 9.68891 2.52221 10.6012 1.92081 11.6898C-0.689187 16.1698 1.24081 22.8101 3.76081 26.4501C4.99081 28.2601 6.4708 30.2398 8.4108 30.1698C10.3508 30.0998 10.9808 28.9701 13.2008 28.9701C15.4208 28.9701 16.0808 30.1698 18.0308 30.1298C19.9808 30.0898 21.3108 28.3199 22.5508 26.5199C23.4163 25.2415 24.09 23.8435 24.5508 22.37C23.3832 21.8604 22.3896 21.0211 21.6915 19.9555C20.9935 18.8898 20.6214 17.6439 20.6208 16.37C20.6376 15.2459 20.9379 14.144 21.4938 13.1669C22.0497 12.1897 22.8432 11.3686 23.8008 10.7797C23.187 9.92262 22.3844 9.21822 21.455 8.72059C20.5257 8.22297 19.4944 7.94581 18.4408 7.91005Z" fill="black"/>
<path fill-rule="evenodd" clip-rule="evenodd" d="M16.9305 5.47998C16.4089 6.13878 15.7423 6.66831 14.9826 7.02734C14.2229 7.38638 13.3906 7.56506 12.5505 7.5498C12.4964 6.72895 12.6066 5.90573 12.8744 5.12793C13.1423 4.35013 13.5625 3.63356 14.1105 3.02002C15.2129 1.74009 16.7686 0.936977 18.4505 0.779785C18.5724 2.48427 18.0274 4.16964 16.9305 5.47998Z" fill="black"/>
</svg>
