<svg width="57" height="57" viewBox="0 0 57 57" fill="none" xmlns="http://www.w3.org/2000/svg">
<path fill-rule="evenodd" clip-rule="evenodd" d="M21.9998 51.6299C21.7598 50.2499 23.4598 50.5398 24.5398 50.5298H31.8798C33.0398 50.5298 34.7498 50.2199 34.8798 51.3399C35.0198 52.6499 33.3898 52.3399 32.3298 52.3399H24.9998C23.9198 52.3399 22.2098 52.6201 21.9998 51.6001V51.6299ZM26.9498 40.2798C26.5898 39.6098 25.6298 39.36 25.6998 38.46C25.6998 37.84 26.3998 37.11 27.5598 38.25C28.0998 38.77 28.5598 39.25 29.0598 39.77C29.4198 40.13 30.4798 40.8401 30.2098 41.6401C30.1398 41.8401 27.5097 44.4998 27.2097 44.7798C27.0673 44.908 26.888 44.988 26.6974 45.0083C26.5068 45.0286 26.3147 44.9884 26.1484 44.8931C25.9822 44.7977 25.8502 44.6523 25.7715 44.4775C25.6927 44.3028 25.6711 44.1076 25.7097 43.9199C25.8097 43.3899 26.8597 42.64 27.1497 42.27C27.1497 42.27 27.0898 42.21 27.0698 42.27C27.0498 42.33 27.0097 42.27 26.9897 42.27C25.8897 41.89 24.6998 42.27 21.5598 40.46C20.7498 40 17.7998 37.9499 17.6698 36.8999C17.65 36.7831 17.6546 36.6633 17.6832 36.5483C17.7119 36.4334 17.764 36.3258 17.8363 36.2319C17.9086 36.138 17.9995 36.06 18.1034 36.0029C18.2072 35.9458 18.3217 35.9106 18.4398 35.8999C19.0398 35.8199 19.3198 36.2498 19.5598 36.5298C20.1469 37.204 20.8192 37.799 21.5598 38.2998C23.1525 39.4397 25.0125 40.1493 26.9597 40.3599L26.9498 40.2798ZM29.7097 14.5801L29.8698 14.6602C30.8698 15.0202 32.5798 14.76 35.7798 16.75C36.609 17.2712 37.3888 17.8668 38.1097 18.5298C38.8161 19.2231 39.419 20.0147 39.8998 20.8799C39.935 21.0216 39.9344 21.1701 39.898 21.3115C39.8616 21.4529 39.7906 21.5828 39.6914 21.6899C39.5922 21.7971 39.4679 21.8782 39.3297 21.9253C39.1915 21.9724 39.0438 21.9842 38.8998 21.96C38.1998 21.9 37.6398 20.45 35.7498 18.96C34.0492 17.6551 32.0283 16.833 29.8997 16.5801C30.2498 17.2101 31.2198 17.5801 31.1498 18.3901C31.1498 19.0401 30.3898 19.6902 29.3498 18.6602C28.8098 18.1302 28.3498 17.6601 27.8498 17.1401C25.5798 14.8701 26.5098 15.63 29.5098 12.25C29.6281 12.0674 29.808 11.9334 30.0167 11.8721C30.2255 11.8107 30.4493 11.826 30.6476 11.9155C30.846 12.005 31.0057 12.1627 31.0978 12.3599C31.1899 12.557 31.2084 12.7802 31.1498 12.9898C31.0698 13.4398 29.9797 14.3299 29.7097 14.5899V14.5801ZM39.4897 6.39991C39.4097 5.64991 39.4097 4.93013 39.9297 4.62013C40.0621 4.53952 40.2129 4.49381 40.3678 4.4878C40.5227 4.48179 40.6765 4.51534 40.8147 4.58546C40.9529 4.65557 41.071 4.76017 41.1576 4.88868C41.2442 5.01719 41.2966 5.1654 41.3098 5.31983C41.6898 7.81983 39.6097 7.56016 39.4897 6.41016V6.39991ZM17.3098 6.62013C16.8298 7.99013 14.8597 6.94005 15.6097 5.04005C16.0897 3.83005 17.9898 4.67013 17.3098 6.62013ZM12.7697 33.0298V35.8101C13.9697 35.9801 13.6797 37.1398 13.6797 38.2598V48.48C13.6797 50.82 13.3197 52.8301 15.0797 53.8301C16.2297 54.4901 19.9498 54.1999 21.5098 54.1899C26.0398 54.1899 30.5797 54.1899 35.1097 54.1899C36.5897 54.1899 40.5097 54.4401 41.6097 53.8901C43.4797 52.9501 43.1597 51.0902 43.1597 48.7202C42.4497 48.5402 35.5998 48.7202 34.0298 48.6602C32.4598 48.6002 32.0297 47.6601 32.1097 46.1001C32.0662 45.5011 32.2221 44.9044 32.5532 44.4033C32.8842 43.9023 33.3717 43.525 33.9398 43.3301C33.9398 42.1101 33.9397 40.1599 35.7897 39.6499V33.9199C33.4297 33.9199 33.0198 33.4099 33.0298 31.0899C33.0298 28.2499 33.0298 28.7699 35.0798 27.6099C36.2798 26.9199 37.3498 26.2799 38.5798 25.6099C41.4098 24.0599 40.9198 25.0199 43.1498 24.6699C43.2198 20.0999 43.1498 15.4802 43.1498 10.9102C43.1498 9.47016 43.3397 5.31979 42.9197 4.27979C42.7528 3.8896 42.4982 3.54335 42.1756 3.26759C41.853 2.99182 41.4712 2.79413 41.0598 2.68995C39.9172 2.56518 38.7654 2.54863 37.6198 2.64014C37.6198 4.10014 37.9298 6.78018 35.2598 7.18018C32.978 7.2995 30.6915 7.2995 28.4098 7.18018C26.5398 7.18018 23.2498 7.38018 21.5598 7.18018C18.8798 6.83018 19.2198 4.04014 19.1998 2.64014C18.2011 2.56648 17.1984 2.56648 16.1998 2.64014C13.1198 2.91014 13.5298 6.55979 13.6598 9.02979C15.5898 9.35979 15.6598 8.46997 18.2298 9.95997C19.3798 10.62 20.5598 11.29 21.7298 11.96C23.8098 13.17 23.7298 12.5902 23.7798 15.4502C23.7798 17.7402 23.3398 18.27 21.0298 18.27V24C22.9098 24.47 22.8698 26.4302 22.8698 27.6802C23.4593 27.8789 23.9636 28.272 24.2998 28.7954C24.636 29.3188 24.7841 29.9413 24.7198 30.5601C24.7198 32.3401 24.1297 33.0198 22.3597 33.0098C19.1697 32.9998 15.9998 33.0798 12.7598 33.0298H12.7697Z" fill="#C1DCF0"/>
<path fill-rule="evenodd" clip-rule="evenodd" d="M54.1796 46.8501H33.9996C33.7296 44.5001 34.8596 45 38.0496 45H50.0496C51.0496 45 52.0496 45 53.0496 45C54.2096 45 54.3296 45.7401 54.1896 46.8501H54.1796ZM15.9396 0.790039C15.3941 0.848645 14.8665 1.01884 14.3896 1.29004C11.3896 2.79004 11.8396 5.72975 11.8396 8.98975C9.4196 8.98975 8.8396 8.98994 7.2796 9.93994C6.0796 10.6599 4.93959 11.2899 3.70959 11.9399C1.42959 13.2099 1.70959 12.9402 1.70959 15.4302C1.70959 16.6002 1.63959 17.0602 2.26959 17.6802C2.89959 18.3002 3.21959 18.2397 4.51959 18.2397V23.96C3.88942 24.1578 3.35725 24.5866 3.0296 25.1602C2.67769 25.9327 2.5595 26.791 2.68961 27.6299C2.13094 27.7892 1.6482 28.1441 1.32959 28.6299C1.06625 29.0618 0.90231 29.5467 0.849609 30.0498V31.25C0.870161 31.5294 0.950662 31.8009 1.08563 32.0464C1.2206 32.2918 1.40685 32.5054 1.63174 32.6724C1.85664 32.8394 2.11488 32.9559 2.38889 33.0142C2.66289 33.0724 2.94622 33.0709 3.2196 33.0098C4.8896 33.0098 11.8596 33.1098 12.8296 33.0098C16.0296 33.0598 19.2396 33.0098 22.4396 33.0098C24.2096 33.0098 24.8196 32.3401 24.7996 30.5601C24.864 29.9413 24.7159 29.3188 24.3797 28.7954C24.0434 28.272 23.5391 27.8789 22.9496 27.6802C22.9496 26.4302 22.9496 24.47 21.1096 24V18.27C23.4096 18.27 23.8596 17.7402 23.8596 15.4502C23.8596 12.5902 23.8596 13.17 21.8096 11.96C20.6396 11.28 19.4596 10.61 18.3096 9.95996C15.7096 8.46996 15.6696 9.35979 13.7396 9.02979C13.6196 6.55978 13.1996 2.91014 16.2796 2.64014C17.2782 2.56647 18.281 2.56647 19.2796 2.64014C19.2796 4.04014 18.9696 6.83018 21.6396 7.18018C23.3396 7.41018 26.6396 7.18018 28.4896 7.18018C30.7714 7.29949 33.0579 7.29949 35.3396 7.18018C38.0196 6.78018 37.6796 4.10014 37.6996 2.64014C38.8453 2.54862 39.9971 2.56517 41.1396 2.68994C41.551 2.79413 41.9329 2.99181 42.2555 3.26758C42.5781 3.54334 42.8327 3.8896 42.9996 4.27979C43.4196 5.27979 43.2296 9.47016 43.2296 10.9102C43.2296 15.4802 43.2896 20.0999 43.2296 24.6699C40.9996 25.0199 41.4896 24.0599 38.6596 25.6099C37.4296 26.2799 36.3596 26.9199 35.1596 27.6099C33.1596 28.7799 33.1596 28.2598 33.1096 31.0898C33.1096 33.4098 33.5096 33.9199 35.8696 33.9199V39.6499C33.9896 40.1599 34.0196 42.1101 34.0196 43.3301C33.4516 43.525 32.964 43.9022 32.633 44.4033C32.3019 44.9044 32.1461 45.5011 32.1896 46.1001C32.1896 47.6301 32.5896 48.6002 34.1096 48.6602C35.6296 48.7202 42.5296 48.5402 43.2396 48.7202C43.2396 51.0902 43.5596 52.9501 41.6896 53.8901C40.5896 54.4401 36.6896 54.1899 35.1896 54.1899C30.6596 54.1899 26.1196 54.1899 21.5896 54.1899C20.0296 54.1899 16.3096 54.4901 15.1596 53.8301C13.3996 52.8301 13.7596 50.83 13.7596 48.48V38.2202C13.7596 37.1002 14.0396 35.94 12.8496 35.77C11.6596 35.6 11.8496 37.3 11.8496 38.54V50.2002C11.8496 52.3902 12.0696 54.2802 14.2596 55.4502C14.9091 55.8457 15.6596 56.0435 16.4196 56.02H40.7496C41.7767 55.967 42.753 55.5565 43.5096 54.8599C45.3196 53.1099 45.0996 52.0202 45.0996 48.6802C48.0996 48.6802 51.1796 48.7502 54.1696 48.6802C55.9096 48.6802 56.0896 47.4499 56.1096 46.3599V45.8501C56.1226 45.2919 55.9542 44.7444 55.6296 44.29C55.2918 43.8228 54.8163 43.4732 54.2696 43.29C54.3992 42.4825 54.2879 41.6548 53.9496 40.9102C53.8003 40.601 53.5879 40.3262 53.3261 40.104C53.0644 39.8818 52.759 39.7172 52.4296 39.6201V34.0098C53.1902 34.108 53.9596 33.9114 54.5796 33.46C54.8482 33.24 55.0436 32.9435 55.1396 32.6099C55.2289 32.1827 55.2625 31.7459 55.2396 31.3101C55.2396 28.1601 55.3496 28.9102 53.2396 27.6602L49.7296 25.6602C47.4296 24.4302 48.2496 24.7202 45.0496 24.7202V8.47998C45.0496 4.98998 45.3296 3.71992 43.4096 1.91992C42.5918 1.23494 41.566 0.847105 40.4996 0.819824H15.9396V0.790039ZM52.3196 43.1499H35.8196C35.4396 40.7899 37.0496 41.2998 38.8896 41.2998H49.1496C51.0096 41.2998 52.7396 40.7599 52.3296 43.1299L52.3196 43.1499ZM48.6796 38.79V33.9502H50.4896V39.4502H48.6396V38.75L48.6796 38.79ZM46.7596 39.4102C44.9565 39.6152 43.1374 39.6384 41.3296 39.48C41.2236 37.6415 41.2236 35.7984 41.3296 33.96L46.9096 33.8799L46.7896 39.4102H46.7596ZM39.4196 39.4102L37.6596 39.46C37.5078 37.6138 37.4844 35.7595 37.5896 33.9102C38.2145 33.764 38.8647 33.764 39.4896 33.9102C39.5496 34.8102 39.4896 35.7702 39.4896 36.6802C39.5677 37.5769 39.5409 38.4796 39.4096 39.3701L39.4196 39.4102ZM34.8696 31.1099V30.25H53.2896V32.0898C47.6096 32.1898 40.6496 32.0898 34.8796 32.0898V31.0898L34.8696 31.1099ZM22.8696 31.1602H2.66962C2.28962 28.8302 3.66961 29.2801 6.72961 29.3101H18.7296C21.9396 29.3101 23.2196 28.8501 22.8896 31.1401L22.8696 31.1602ZM37.5296 28.3599C41.1296 26.2299 40.1096 26.5601 44.0896 26.5601C45.2096 26.5601 47.1796 26.3601 48.0396 26.8301L50.6696 28.3999H37.5396L37.5296 28.3599ZM4.5296 27.46C4.5296 26.61 4.45961 25.7899 5.31961 25.6499H12.8296C14.5196 25.6499 16.2096 25.6499 17.8996 25.6499C20.8496 25.6499 21.0596 25.2897 21.1096 27.4897H4.51959L4.5296 27.46ZM17.4496 18.2598H19.2696V23.75H17.4696V18.25L17.4496 18.2598ZM10.1696 18.2598H15.5096C15.6696 18.4398 15.5696 18.1301 15.6596 18.5801C15.7796 19.2001 15.6596 23.6898 15.5796 23.8198H9.9996C9.85056 22.4016 9.81711 20.9735 9.8996 19.5498C9.8996 19.2098 9.7996 18.42 10.0896 18.27L10.1696 18.2598ZM6.37961 18.2598H8.20959V23.7998H6.3696V18.2998L6.37961 18.2598ZM3.6196 14.5801C9.4096 14.5801 16.3196 14.4901 22.0296 14.5801V16.48H3.3696L3.54959 15.0698V14.6401L3.6196 14.5801ZM6.25961 12.7002C7.10675 12.141 7.98482 11.6299 8.88962 11.1699C9.88962 10.6499 11.6396 10.8799 12.8296 10.8799C14.0196 10.8799 15.8296 10.6799 16.7696 11.1699L19.3896 12.73H6.25961V12.7002ZM35.8296 2.60986C36.0796 5.23986 35.9696 5.42012 33.5596 5.37012C31.8596 5.37012 30.1796 5.37012 28.4896 5.37012C20.2896 5.37012 21.0296 5.87984 21.1196 2.58984L35.8296 2.60986Z" fill="#363636"/>
<path fill-rule="evenodd" clip-rule="evenodd" d="M35.7595 2.6499H21.0395C20.9495 5.9399 20.2195 5.43018 28.4095 5.43018C30.1095 5.43018 31.7895 5.43018 33.4795 5.43018C35.9095 5.48018 35.9995 5.2699 35.7595 2.6499Z" fill="#494957"/>
<path fill-rule="evenodd" clip-rule="evenodd" d="M29.7002 14.58C29.9702 14.31 31.0502 13.4199 31.1402 12.9799C31.1988 12.7703 31.1803 12.5466 31.0882 12.3495C30.9961 12.1524 30.8364 11.9946 30.6381 11.9052C30.4398 11.8157 30.2159 11.8003 30.0072 11.8617C29.7984 11.9231 29.6186 12.057 29.5002 12.2396C26.5002 15.6196 25.5602 14.8598 27.8402 17.1298C28.3702 17.6598 28.8402 18.1298 29.3402 18.6498C30.3402 19.6498 31.0902 19.0298 31.1402 18.3798C31.2102 17.5198 30.2402 17.1997 29.8902 16.5697C32.0188 16.8226 34.0397 17.6452 35.7402 18.9501C37.6302 20.4501 38.2002 21.9501 38.8902 21.9501C39.0342 21.9743 39.182 21.962 39.3202 21.9149C39.4584 21.8678 39.5827 21.7872 39.6819 21.6801C39.7811 21.5729 39.8521 21.4426 39.8885 21.3011C39.9248 21.1597 39.9254 21.0117 39.8902 20.87C39.4095 20.0048 38.8066 19.2132 38.1002 18.5199C37.3793 17.8569 36.5994 17.2609 35.7702 16.7396C32.5702 14.7396 30.8602 15.0198 29.8602 14.6498L29.7002 14.58Z" fill="#363636"/>
<path fill-rule="evenodd" clip-rule="evenodd" d="M25.6695 43.9102C25.6308 44.0979 25.6524 44.293 25.7312 44.4678C25.81 44.6425 25.9419 44.7875 26.1082 44.8828C26.2744 44.9781 26.4666 45.0188 26.6571 44.9985C26.8477 44.9782 27.027 44.8982 27.1695 44.77C27.4895 44.5 30.1695 41.8299 30.1695 41.6299C30.4495 40.8299 29.3795 40.1198 29.0195 39.7598C28.4895 39.2298 28.0195 38.7597 27.5195 38.2397C26.3595 37.1097 25.7095 37.8402 25.6595 38.4502C25.5895 39.3502 26.5495 39.6 26.9095 40.27C24.9622 40.0595 23.1022 39.3499 21.5095 38.21C20.7689 37.7092 20.0966 37.1142 19.5095 36.4399C19.2695 36.1599 18.9995 35.7301 18.3895 35.8101C18.2715 35.8208 18.157 35.8555 18.0531 35.9126C17.9493 35.9697 17.8583 36.0477 17.786 36.1416C17.7137 36.2355 17.6616 36.3435 17.6329 36.4585C17.6043 36.5735 17.5997 36.6932 17.6195 36.8101C17.7495 37.8601 20.6995 39.9101 21.5095 40.3701C24.6495 42.1401 25.8395 41.8002 26.9395 42.1802C26.9395 42.1802 26.9995 42.2402 27.0195 42.1802C27.0395 42.1202 27.0695 42.1802 27.0995 42.1802C26.8195 42.6402 25.7595 43.3802 25.6695 43.9102Z" fill="#363636"/>
<path fill-rule="evenodd" clip-rule="evenodd" d="M22.8593 31.1803C23.1893 28.8903 21.8593 29.3102 18.6993 29.3502H6.69932C3.69932 29.3502 2.26933 28.8703 2.63933 31.2003L22.8593 31.1803Z" fill="#B9BEC8"/>
<path fill-rule="evenodd" clip-rule="evenodd" d="M54.1806 46.8502C54.3206 45.7402 54.1806 45.0401 53.0406 45.0001C52.0406 45.0001 51.0406 45.0001 50.0406 45.0001H38.0006C34.8106 45.0001 33.6806 44.5002 33.9506 46.8502H54.1806Z" fill="#B9BEC8"/>
<path fill-rule="evenodd" clip-rule="evenodd" d="M3.54913 15.04L3.36914 16.4502H21.9991V14.6201C16.2891 14.5301 9.37914 14.6201 3.58914 14.6201L3.54913 15.04Z" fill="#ECEEF0"/>
<path fill-rule="evenodd" clip-rule="evenodd" d="M34.8694 32.1001C40.6394 32.1001 47.5994 32.2001 53.2794 32.1001V30.2598H34.8594V32.1001H34.8694Z" fill="#ECEEF0"/>
<path fill-rule="evenodd" clip-rule="evenodd" d="M52.3197 43.1501C52.7397 40.7801 51.0097 41.32 49.1397 41.32H38.8897C37.0497 41.32 35.4397 40.8101 35.8197 43.1701L52.3197 43.1501Z" fill="#ECEEF0"/>
<path fill-rule="evenodd" clip-rule="evenodd" d="M4.46033 27.4799H21.0503C20.9903 25.2799 20.7903 25.6401 17.8403 25.6401C16.1503 25.6401 14.4603 25.6401 12.7703 25.6401H5.26035C4.39035 25.8201 4.46033 26.6399 4.46033 27.4799Z" fill="#ECEEF0"/>
<path fill-rule="evenodd" clip-rule="evenodd" d="M15.4394 18.2798H10.0994C9.95536 20.0995 9.92862 21.9268 10.0194 23.75H15.4894L15.4394 18.2798Z" fill="#71717A"/>
<path fill-rule="evenodd" clip-rule="evenodd" d="M46.7494 39.4102L46.8094 33.9702L41.4194 34.02L41.3594 39.3901L46.7494 39.4102Z" fill="#71717A"/>
<path fill-rule="evenodd" clip-rule="evenodd" d="M21.9996 51.6297C22.1696 52.6297 23.8896 52.3899 24.9996 52.3699H32.3396C33.3996 52.3699 35.0296 52.6499 34.8896 51.3699C34.7696 50.2499 33.0696 50.5599 31.8896 50.5599H24.5496C23.4496 50.5399 21.7596 50.2497 21.9996 51.6297Z" fill="#363636"/>
<path fill-rule="evenodd" clip-rule="evenodd" d="M6.18945 12.7396H19.3195L16.6995 11.1801C15.7995 10.6901 13.9095 10.89 12.7595 10.89C11.6095 10.89 9.75946 10.6601 8.81946 11.1801C7.91395 11.6498 7.03587 12.1702 6.18945 12.7396Z" fill="#B9BEC8"/>
<path fill-rule="evenodd" clip-rule="evenodd" d="M37.5098 28.3797H50.6398L48.0098 26.8099C47.1498 26.3299 45.1798 26.5399 44.0598 26.5399C40.0898 26.5799 41.1098 26.2497 37.5098 28.3797Z" fill="#B9BEC8"/>
<path fill-rule="evenodd" clip-rule="evenodd" d="M6.31055 23.79L8.15054 23.8198L8.14056 18.2798L6.31055 18.29V23.79Z" fill="#B8BDC7"/>
<path fill-rule="evenodd" clip-rule="evenodd" d="M48.6797 39.48L50.5297 39.4502L50.5097 33.9502L48.6997 33.9399L48.6797 38.7798V39.48Z" fill="#B8BDC7"/>
<path fill-rule="evenodd" clip-rule="evenodd" d="M17.3594 23.7798L19.1594 23.8198L19.1994 18.3198L17.3794 18.2798L17.3594 23.7798Z" fill="#B8BDC7"/>
<path fill-rule="evenodd" clip-rule="evenodd" d="M39.4204 39.4199L39.4004 33.96H37.6504L37.6904 39.3901L39.4204 39.4199Z" fill="#B8BDC7"/>
<path fill-rule="evenodd" clip-rule="evenodd" d="M17.3 6.61999C17.98 4.61999 16.08 3.82992 15.6 5.03992C14.85 6.93992 16.82 7.98999 17.3 6.61999Z" fill="#373737"/>
<path fill-rule="evenodd" clip-rule="evenodd" d="M39.4801 6.4001C39.6001 7.5601 41.6901 7.82026 41.3001 5.31026C41.287 5.15583 41.2346 5.00713 41.148 4.87862C41.0613 4.7501 40.9433 4.64599 40.8051 4.57588C40.6669 4.50577 40.5131 4.47222 40.3582 4.47822C40.2033 4.48423 40.0525 4.52945 39.9201 4.61006C39.4001 4.93006 39.4001 5.6501 39.4801 6.4001Z" fill="#353535"/>
<path fill-rule="evenodd" clip-rule="evenodd" d="M46.7505 39.4102H41.3505L41.4104 34.04L46.8105 33.9897L46.7505 39.4102ZM46.7505 39.4102L46.8705 33.8799L41.2905 33.96C41.1844 35.7984 41.1844 37.6415 41.2905 39.48C43.1082 39.6405 44.9375 39.6172 46.7505 39.4102Z" fill="#59595E"/>
<path fill-rule="evenodd" clip-rule="evenodd" d="M15.4405 18.2798V23.73H9.97046C9.87968 21.9068 9.90639 20.0795 10.0504 18.2598C9.75044 18.4098 9.86044 19.2 9.86044 19.54C9.77795 20.9637 9.8114 22.3918 9.96045 23.8101H15.4604C15.4604 23.6801 15.6605 19.1898 15.5405 18.5698C15.5005 18.1498 15.6005 18.4798 15.4405 18.2798Z" fill="#525257"/>
<path fill-rule="evenodd" clip-rule="evenodd" d="M39.4197 39.43H37.6897V33.9998H39.4397L39.4197 39.43ZM39.4197 39.43C39.551 38.5395 39.5779 37.6363 39.4997 36.7395C39.4997 35.8295 39.5497 34.87 39.4997 33.97C38.8748 33.8238 38.2246 33.8238 37.5997 33.97C37.4945 35.8194 37.5179 37.6737 37.6697 39.5198L39.4197 39.43Z" fill="#7F8085"/>
</svg>
