<svg width="91" height="36" viewBox="0 0 91 36" fill="none" xmlns="http://www.w3.org/2000/svg">
<g clip-path="url(#clip0_1315_8)">
<path fill-rule="evenodd" clip-rule="evenodd" d="M41.69 16.1499H36.4V7.1499H42.21C42.941 7.19371 43.6504 7.41428 44.2771 7.79297C44.9039 8.17165 45.4292 8.69704 45.8079 9.32373C46.1867 9.95042 46.4076 10.6597 46.4515 11.3906C46.4954 12.1216 46.361 12.8525 46.06 13.5201C45.8212 14.0214 45.4807 14.4676 45.06 14.8301C44.6258 15.268 44.1035 15.6085 43.5277 15.8291C42.9518 16.0498 42.3357 16.1455 41.72 16.1099L41.69 16.1499ZM33 29.7398H36.4V19.3399H42.4C43.4416 19.303 44.4637 19.0475 45.4 18.5899C46.7227 17.9858 47.8452 17.0161 48.6354 15.7954C49.4255 14.5748 49.8505 13.1538 49.8601 11.6997C49.8764 10.6816 49.6742 9.67203 49.267 8.73877C48.8599 7.8055 48.2573 6.97061 47.5 6.29004C46.0468 4.83391 44.0772 4.0108 42.02 4H33.02L33 29.7398Z" fill="#5F6367"/>
<path fill-rule="evenodd" clip-rule="evenodd" d="M57.0631 26.7904C55.3831 26.7904 53.4931 25.5603 53.4931 24.1303C53.3966 23.4212 53.5834 22.7026 54.0131 22.1303C55.5731 20.0703 59.4431 20.0303 61.6231 21.1303C61.9531 21.2903 62.1531 21.4605 62.4631 21.6205C62.4015 23.0108 61.8075 24.3242 60.8041 25.2885C59.8006 26.2528 58.4647 26.7939 57.0731 26.8002L57.0631 26.7904ZM50.6431 14.4804C51.5831 15.1104 52.5831 15.6702 53.5131 16.3002C53.9673 15.6295 54.5698 15.0728 55.2738 14.6723C55.9778 14.2717 56.7645 14.0385 57.5731 13.9906C58.2669 13.9213 58.9673 14.0133 59.6196 14.2597C60.2719 14.506 60.8584 14.8999 61.3331 15.4106C62.2331 16.3006 62.4731 17.0802 62.4731 18.8202C61.922 18.5181 61.3383 18.28 60.7331 18.1103C60.0503 17.9275 59.3494 17.8204 58.6431 17.7904C57.1875 17.6561 55.7197 17.8092 54.3231 18.2406C50.8031 19.4106 49.0931 22.5404 50.4831 26.0204C50.7167 26.6241 51.0784 27.17 51.5431 27.6205C51.9719 28.0902 52.4671 28.4942 53.0131 28.8202C54.2467 29.5754 55.6839 29.9303 57.1272 29.8354C58.5705 29.7405 59.949 29.2007 61.0731 28.2904C61.5606 27.8841 61.9706 27.3926 62.2831 26.8402H62.4931V29.2206H65.6431V19.3402C65.6874 18.1331 65.5492 16.9266 65.2331 15.7607C64.9896 14.9268 64.5625 14.158 63.9831 13.5107C63.2661 12.6686 62.3475 12.0215 61.3131 11.6303C58.4931 10.4903 53.9931 10.8503 51.7531 13.0902C51.3097 13.4899 50.9348 13.9596 50.6431 14.4804Z" fill="#5E6267"/>
<path fill-rule="evenodd" clip-rule="evenodd" d="M73.19 27.5699C73.19 27.7099 71.4 31.48 71.19 32C71.1 32.21 71.03 32.3101 70.94 32.5201L69.14 36.4703H72.57C72.7 36.2303 72.81 35.9502 72.92 35.7002C73.03 35.4502 73.16 35.17 73.26 34.92C74.26 32.43 75.65 29.47 76.72 26.92C77.18 25.84 77.64 24.8 78.1 23.75C79.03 21.63 79.91 19.5299 80.86 17.3999L83.64 11H80C79.89 11.22 79.8 11.49 79.7 11.75L75.19 22.9302C75.07 23.2302 75 23.5502 74.82 23.6802L71.58 15.7901C71.38 15.2801 69.66 11.3103 69.64 11.0103H66C66.17 11.9003 73.19 27.2899 73.19 27.5699Z" fill="#5F6367"/>
<path fill-rule="evenodd" clip-rule="evenodd" d="M2.13086 8.25L4.60083 10.1401C5.42083 10.8001 6.23083 11.3798 7.04083 12.0498L7.13086 11.8599C7.13086 11.7799 7.19082 11.6801 7.22083 11.6001C7.64794 10.4765 8.30541 9.45459 9.15088 8.6001C10.073 7.61339 11.2183 6.86242 12.4908 6.41016C14.0482 5.87587 15.7223 5.77875 17.3309 6.12988C18.5359 6.40299 19.6574 6.96195 20.6008 7.75977C20.7161 7.87847 20.8398 7.98883 20.9708 8.08984C21.2408 8.01984 21.8409 7.32984 22.0709 7.08984L23.1208 6.04004L25.2408 3.89014C24.4987 3.16771 23.6728 2.5362 22.7809 2.00977C20.6957 0.767214 18.3273 0.0787245 15.9009 0.00976562H14.9009C12.2259 0.0784415 9.62251 0.888865 7.38086 2.3501C6.92789 2.63534 6.49368 2.94926 6.08087 3.29004L3.88086 5.5C3.17207 6.33052 2.58302 7.25617 2.13086 8.25Z" fill="#E94434"/>
<path fill-rule="evenodd" clip-rule="evenodd" d="M2.13086 21.48C2.57926 22.4377 3.14711 23.3348 3.82086 24.1499C4.45352 24.9582 5.1784 25.69 5.98083 26.3301C7.69041 27.7131 9.6794 28.7093 11.8109 29.25C13.0921 29.5515 14.4046 29.6992 15.7208 29.6899L17.7208 29.5098C20.2433 29.1921 22.6283 28.1814 24.6108 26.5898C24.8142 26.4316 25.0079 26.2616 25.1909 26.0801C24.3309 25.4801 23.5909 24.83 22.7609 24.21C22.3309 23.9 22.0009 23.61 21.5809 23.29C21.1609 22.97 20.8108 22.6601 20.3608 22.3701C19.2037 23.1286 17.8785 23.5922 16.5009 23.7202C15.1278 23.8856 13.7352 23.7233 12.4368 23.2471C11.1385 22.7708 9.97134 21.9939 9.03088 20.98L7.90088 19.48C7.59088 18.96 7.11088 17.79 7.03088 17.71C6.68088 17.92 2.52086 21.29 2.13086 21.48Z" fill="#34A653"/>
<path fill-rule="evenodd" clip-rule="evenodd" d="M20.3403 22.3795C20.7803 22.6695 21.1403 22.9894 21.5603 23.2994C21.9803 23.6094 22.3203 23.8998 22.7403 24.2198C23.5803 24.8398 24.3103 25.4894 25.1703 26.0894C25.5799 25.7186 25.961 25.3178 26.3103 24.8897C26.5003 24.6597 26.6203 24.4994 26.8003 24.2594L27.2803 23.5494C27.9072 22.5711 28.4047 21.516 28.7603 20.4098C29.3685 18.4397 29.6323 16.3792 29.5403 14.3194C29.4403 13.6494 29.4703 12.9495 29.2903 12.1895H15.2903V17.3097C15.2903 18.0597 15.1703 17.9395 16.4103 17.9395H23.2703C23.1109 18.8405 22.7687 19.6994 22.2648 20.463C21.7609 21.2266 21.106 21.8787 20.3403 22.3795Z" fill="#4184F2"/>
<path fill-rule="evenodd" clip-rule="evenodd" d="M2.13096 21.4805C2.52096 21.2805 6.68099 17.9105 7.03099 17.7305C6.96099 16.7905 6.33093 15.9107 6.72093 13.4107L7.03099 12.0405C6.23099 11.3705 5.42098 10.7904 4.59098 10.1304L2.12095 8.24023C1.62369 9.17063 1.24089 10.1583 0.980938 11.1807C0.355312 13.5772 0.355312 16.0937 0.980938 18.4902C1.12094 19.0702 1.27098 19.4905 1.46098 20.0405L2.00096 21.3203C2.14096 21.5603 2.00096 21.4105 2.13096 21.4805Z" fill="#F9BA05"/>
</g>
<defs>
<clipPath id="clip0_1315_8">
<rect width="91" height="36" fill="white"/>
</clipPath>
</defs>
</svg>
