<svg width="77" height="48" viewBox="0 0 77 48" fill="none" xmlns="http://www.w3.org/2000/svg">
<path d="M48.4298 5.91016H27.8398V42.9102H48.4298V5.91016Z" fill="#FF5F00"/>
<path fill-rule="evenodd" clip-rule="evenodd" d="M29.1509 24.4103C29.1572 20.8473 29.9702 17.3315 31.5289 14.1275C33.0876 10.9236 35.3515 8.11449 38.1509 5.91026C34.6788 3.17838 30.508 1.47857 26.1155 1.00548C21.7229 0.532381 17.2859 1.30507 13.3117 3.23497C9.33755 5.16487 5.98671 8.17392 3.64233 11.9186C1.29796 15.6632 0.0546875 19.9923 0.0546875 24.4103C0.0546875 28.8282 1.29796 33.1568 3.64233 36.9015C5.98671 40.6461 9.33755 43.6557 13.3117 45.5856C17.2859 47.5155 21.7229 48.2877 26.1155 47.8146C30.508 47.3415 34.6788 45.6421 38.1509 42.9103C35.346 40.711 33.078 37.9025 31.5188 34.6974C29.9596 31.4923 29.1499 27.9745 29.1509 24.4103Z" fill="#EA001B"/>
<path fill-rule="evenodd" clip-rule="evenodd" d="M76.2207 24.41C76.2181 28.8161 74.9775 33.1326 72.6402 36.8676C70.3029 40.6026 66.9631 43.6054 63.0016 45.5341C59.0402 47.4627 54.6164 48.2393 50.2349 47.7753C45.8533 47.3113 41.6904 45.6256 38.2207 42.91C41.012 40.7016 43.2674 37.8897 44.8179 34.6859C46.3684 31.4821 47.1738 27.9693 47.1738 24.41C47.1738 20.8507 46.3684 17.3375 44.8179 14.1337C43.2674 10.9298 41.012 8.11848 38.2207 5.91004C41.6904 3.19446 45.8533 1.50832 50.2349 1.04432C54.6164 0.580316 59.0402 1.35691 63.0016 3.28553C66.9631 5.21415 70.3029 8.21704 72.6402 11.952C74.9775 15.687 76.2181 20.004 76.2207 24.41Z" fill="#F69D1B"/>
<path fill-rule="evenodd" clip-rule="evenodd" d="M16.9998 27.5898V24.1699C17.0258 23.8784 16.9875 23.5847 16.8877 23.3096C16.7878 23.0345 16.6288 22.7846 16.4219 22.5776C16.2149 22.3707 15.9651 22.2117 15.69 22.1118C15.4149 22.012 15.1213 21.974 14.8298 22C14.4481 21.9884 14.0698 22.0741 13.7304 22.249C13.391 22.424 13.1017 22.6824 12.8898 23C12.7062 22.6811 12.4383 22.4191 12.1154 22.2427C11.7925 22.0662 11.4273 21.9822 11.0598 22C10.747 21.9862 10.436 22.0524 10.156 22.1924C9.87603 22.3324 9.6364 22.5414 9.45978 22.7998V22.1201H8.25977V27.6001H9.45978V24.6001C9.45978 23.6001 9.96978 23.1699 10.7698 23.1699C11.5698 23.1699 11.9697 23.6801 11.9697 24.6001V27.6001H13.1697V24.6001C13.1445 24.4167 13.1601 24.23 13.2153 24.0532C13.2704 23.8765 13.3639 23.7137 13.489 23.5771C13.614 23.4406 13.7677 23.3336 13.9389 23.2632C14.1102 23.1928 14.2948 23.1609 14.4797 23.1699C15.2797 23.1699 15.6797 23.6801 15.6797 24.6001V27.6001L16.9998 27.5898ZM34.7498 22.1099H32.8098V20.48H31.6097V22.1401H30.5298V23.2202H31.6097V25.73C31.6097 26.99 32.1197 27.73 33.4897 27.73C34.0083 27.7189 34.5162 27.5817 34.9697 27.3301L34.6298 26.3301C34.3304 26.519 33.9837 26.6195 33.6298 26.6201C33.0598 26.6201 32.8298 26.28 32.8298 25.71V23.2598H34.7698V22.1802L34.7498 22.1099ZM44.9097 22C44.6216 21.9931 44.3369 22.0639 44.0854 22.2046C43.8339 22.3453 43.6247 22.5507 43.4797 22.7998V22.1201H42.2798V27.6001H43.4797V24.48C43.4797 23.57 43.8797 23.0498 44.6198 23.0498C44.8698 23.0587 45.118 23.096 45.3597 23.1602L45.6998 22.02C45.436 21.9716 45.1678 21.9515 44.8998 21.96L44.9097 22ZM29.5598 22.5698C28.8902 22.161 28.1134 21.9626 27.3298 22C25.9598 22 25.0497 22.68 25.0497 23.77C25.0497 24.68 25.7297 25.2001 26.9297 25.3701L27.4998 25.4302C28.1298 25.5402 28.4998 25.72 28.4998 26C28.4998 26.28 28.0397 26.6802 27.2397 26.6802C26.5853 26.6849 25.9457 26.4853 25.4097 26.1099L24.8398 27.02C25.5301 27.4845 26.348 27.7224 27.1797 27.7002C28.7797 27.7002 29.6898 26.9602 29.6898 25.9302C29.6898 24.9002 28.9498 24.45 27.8098 24.27L27.2397 24.21C26.7297 24.15 26.3298 24.0402 26.3298 23.7002C26.3298 23.3602 26.7298 23.0698 27.3298 23.0698C27.9264 23.0971 28.5099 23.254 29.0397 23.5298L29.5497 22.5298L29.5598 22.5698ZM61.4097 22C61.1216 21.9931 60.8369 22.0639 60.5854 22.2046C60.3339 22.3453 60.1247 22.5507 59.9797 22.7998V22.1201H58.7798V27.6001H59.9998V24.48C59.9998 23.57 60.3998 23.0498 61.1398 23.0498C61.3898 23.0587 61.638 23.096 61.8798 23.1602L62.2197 22.02C61.956 21.9716 61.6878 21.9515 61.4197 21.96L61.4097 22ZM46.1097 24.8501C46.0936 25.2338 46.1582 25.6165 46.2996 25.9736C46.4409 26.3308 46.6557 26.6541 46.9301 26.9229C47.2045 27.1916 47.5323 27.3998 47.8923 27.5337C48.2523 27.6676 48.6365 27.7244 49.0198 27.7002C49.7221 27.7377 50.4134 27.5128 50.9598 27.0698L50.3898 26.0698C49.9842 26.3961 49.4803 26.576 48.9598 26.5801C48.7305 26.5867 48.5023 26.5447 48.2905 26.4565C48.0787 26.3684 47.888 26.2362 47.7311 26.0688C47.5741 25.9015 47.4545 25.7029 47.3802 25.4858C47.3058 25.2688 47.2784 25.0385 47.2997 24.8101C47.2876 24.5837 47.3214 24.357 47.3991 24.144C47.4768 23.931 47.5969 23.7362 47.752 23.5708C47.9071 23.4054 48.094 23.2728 48.3016 23.1816C48.5092 23.0904 48.7331 23.0424 48.9598 23.04C49.4804 23.0433 49.9846 23.2228 50.3898 23.5498L50.9598 22.5498C50.4134 22.1068 49.7221 21.8824 49.0198 21.9199C48.6365 21.8958 48.2523 21.9526 47.8923 22.0864C47.5323 22.2203 47.2045 22.428 46.9301 22.6968C46.6557 22.9655 46.4409 23.2894 46.2996 23.6465C46.1582 24.0036 46.0936 24.3863 46.1097 24.77V24.8501ZM57.1797 24.8501V22.1099H55.9998V22.79C55.7991 22.53 55.5393 22.3218 55.2418 22.1826C54.9444 22.0435 54.6179 21.9771 54.2897 21.9897C53.5618 22.0328 52.8778 22.3526 52.3776 22.8833C51.8774 23.414 51.5988 24.116 51.5988 24.8452C51.5988 25.5745 51.8774 26.276 52.3776 26.8066C52.8778 27.3373 53.5618 27.6571 54.2897 27.7002C54.6195 27.7254 54.9503 27.6651 55.2499 27.5249C55.5495 27.3847 55.8078 27.1692 55.9998 26.8999V27.5898H57.1998V24.8501H57.1797ZM52.7897 24.8501C52.772 24.6219 52.8016 24.3924 52.8768 24.1763C52.9519 23.9601 53.0709 23.7617 53.2263 23.5938C53.3817 23.4258 53.5702 23.2919 53.7798 23.2002C53.9895 23.1085 54.2159 23.061 54.4448 23.061C54.6736 23.061 54.9 23.1085 55.1097 23.2002C55.3194 23.2919 55.5078 23.4258 55.6632 23.5938C55.8186 23.7617 55.9376 23.9601 56.0128 24.1763C56.0879 24.3924 56.1175 24.6219 56.0997 24.8501C56.1175 25.0783 56.0879 25.3073 56.0128 25.5234C55.9376 25.7396 55.8186 25.938 55.6632 26.106C55.5078 26.2739 55.3194 26.4079 55.1097 26.4995C54.9 26.5912 54.6736 26.6387 54.4448 26.6387C54.2159 26.6387 53.9895 26.5912 53.7798 26.4995C53.5702 26.4079 53.3817 26.2739 53.2263 26.106C53.0709 25.938 52.9519 25.7396 52.8768 25.5234C52.8016 25.3073 52.772 25.0783 52.7897 24.8501ZM38.4598 22C37.7318 22.0501 37.0505 22.3766 36.5553 22.9126C36.0601 23.4486 35.7886 24.1536 35.7963 24.8833C35.8039 25.613 36.0903 26.3119 36.5966 26.8374C37.1029 27.3629 37.7909 27.6752 38.5198 27.71C39.3263 27.7284 40.1143 27.4672 40.7498 26.9702L40.1797 26.1099C39.7206 26.4652 39.1601 26.6651 38.5798 26.6802C38.1881 26.715 37.798 26.5985 37.4894 26.355C37.1807 26.1114 36.9769 25.7591 36.9197 25.3701H40.9998V24.9102C41.0564 24.5489 41.0337 24.1797 40.9333 23.8281C40.8329 23.4765 40.6572 23.1509 40.4183 22.874C40.1795 22.5972 39.8833 22.3755 39.5503 22.2246C39.2173 22.0737 38.8554 21.997 38.4897 22H38.4598ZM38.4598 23C38.6358 22.996 38.8108 23.0266 38.9749 23.0903C39.139 23.154 39.2889 23.2494 39.4161 23.3711C39.5434 23.4927 39.6454 23.6382 39.7164 23.7993C39.7873 23.9604 39.8259 24.1341 39.8298 24.3101H36.9998C37.035 23.945 37.2074 23.6068 37.482 23.3638C37.7566 23.1207 38.1131 22.9907 38.4797 23H38.4598ZM68.1998 24.8301V19.9199H66.9998V22.77C66.7991 22.51 66.5393 22.3018 66.2418 22.1626C65.9444 22.0234 65.6179 21.9576 65.2897 21.9702C64.5618 22.0133 63.8778 22.3326 63.3776 22.8633C62.8774 23.394 62.5988 24.0959 62.5988 24.8252C62.5988 25.5545 62.8774 26.2559 63.3776 26.7866C63.8778 27.3173 64.5618 27.6371 65.2897 27.6802C65.6195 27.7054 65.9503 27.645 66.2499 27.5049C66.5495 27.3647 66.8078 27.1492 66.9998 26.8799V27.5601H68.1998V24.8198V24.8301ZM63.8098 24.8301C63.792 24.6019 63.8216 24.3724 63.8967 24.1562C63.9719 23.9401 64.0909 23.7417 64.2463 23.5737C64.4017 23.4058 64.5902 23.2718 64.7999 23.1802C65.0095 23.0885 65.2359 23.041 65.4648 23.041C65.6936 23.041 65.92 23.0885 66.1296 23.1802C66.3393 23.2718 66.5278 23.4058 66.6832 23.5737C66.8386 23.7417 66.9577 23.9401 67.0328 24.1562C67.1079 24.3724 67.1375 24.6019 67.1198 24.8301C67.1375 25.0582 67.1079 25.2873 67.0328 25.5034C66.9577 25.7196 66.8386 25.918 66.6832 26.0859C66.5278 26.2539 66.3393 26.3883 66.1296 26.48C65.92 26.5716 65.6936 26.6187 65.4648 26.6187C65.2359 26.6187 65.0095 26.5716 64.7999 26.48C64.5902 26.3883 64.4017 26.2539 64.2463 26.0859C64.0909 25.918 63.9719 25.7196 63.8967 25.5034C63.8216 25.2873 63.792 25.0582 63.8098 24.8301ZM23.7397 24.8301V22.0898H22.5397V22.77C22.3391 22.51 22.0793 22.3018 21.7818 22.1626C21.4843 22.0234 21.1579 21.9576 20.8298 21.9702C20.1018 22.0133 19.4177 22.3326 18.9175 22.8633C18.4174 23.394 18.1388 24.0959 18.1388 24.8252C18.1388 25.5545 18.4174 26.2559 18.9175 26.7866C19.4177 27.3173 20.1018 27.6371 20.8298 27.6802C21.1596 27.7054 21.4903 27.645 21.7899 27.5049C22.0895 27.3647 22.3478 27.1492 22.5397 26.8799V27.5698H23.7397V24.8301ZM19.2897 24.8301C19.272 24.6019 19.3016 24.3724 19.3768 24.1562C19.4519 23.9401 19.5709 23.7417 19.7263 23.5737C19.8817 23.4058 20.0702 23.2718 20.2798 23.1802C20.4895 23.0885 20.7159 23.041 20.9448 23.041C21.1736 23.041 21.4 23.0885 21.6097 23.1802C21.8194 23.2718 22.0078 23.4058 22.1632 23.5737C22.3186 23.7417 22.4376 23.9401 22.5128 24.1562C22.5879 24.3724 22.6175 24.6019 22.5997 24.8301C22.6175 25.0582 22.5879 25.2873 22.5128 25.5034C22.4376 25.7196 22.3186 25.918 22.1632 26.0859C22.0078 26.2539 21.8194 26.3883 21.6097 26.48C21.4 26.5716 21.1736 26.6187 20.9448 26.6187C20.7159 26.6187 20.4895 26.5716 20.2798 26.48C20.0702 26.3883 19.8817 26.2539 19.7263 26.0859C19.5709 25.918 19.4519 25.7196 19.3768 25.5034C19.3016 25.2873 19.272 25.0582 19.2897 24.8301Z" fill="black"/>
</svg>
