<svg width="111" height="32" viewBox="0 0 111 32" fill="none" xmlns="http://www.w3.org/2000/svg">
<path fill-rule="evenodd" clip-rule="evenodd" d="M29.8607 0.399902C29.8607 0.399902 25.5707 0.399981 24.4207 4.47998C23.4207 8.22998 20.4208 18.5801 20.3408 18.8701H19.5208C19.5208 18.8701 16.5207 8.28021 15.4407 4.47021C14.3007 0.380215 10.0007 0.390137 10.0007 0.390137H0.220703V31.48H10.0007V13H10.8207L16.5308 31.48H23.3207L29.0308 13.0098H29.8507V31.48H39.6307V0.359863L29.8607 0.399902Z" fill="#4DB35E"/>
<path fill-rule="evenodd" clip-rule="evenodd" d="M65.5897 0.399902C64.6687 0.540601 63.7987 0.913955 63.0621 1.48438C62.3254 2.05479 61.7464 2.8037 61.3796 3.66016L54.4496 18.8799H53.6296V0.399902H43.8496V31.48H53.0897C54.0307 31.3471 54.9228 30.9786 55.6833 30.4087C56.4438 29.8388 57.0479 29.0861 57.4396 28.2202L64.2296 13H64.9996V31.48H74.7797V0.359863L65.5897 0.399902Z" fill="#4DB35E"/>
<path fill-rule="evenodd" clip-rule="evenodd" d="M79.1797 14.48V31.48H88.9997V21.5601H99.5997C101.794 21.5626 103.934 20.8837 105.725 19.6172C107.517 18.3507 108.87 16.5588 109.6 14.4897L79.1797 14.48Z" fill="#4DB35E"/>
<path d="M77.81 0.390137H77.75V13.1602H77.81V0.390137Z" fill="#00B3E5"/>
<path d="M77.8795 0.390137H77.6895V13.1602H77.8795V0.390137Z" fill="#00B3E5"/>
<path d="M77.9986 0.390137H77.8086V13.1602H77.9986V0.390137Z" fill="#00B3E5"/>
<path d="M78.1295 0.390137H77.9395V13.1602H78.1295V0.390137Z" fill="#00B3E5"/>
<path d="M78.2603 0.390137H78.0703V13.1602H78.2603V0.390137Z" fill="#00B3E5"/>
<path d="M78.3795 0.390137H78.1895V13.1602H78.3795V0.390137Z" fill="#00B3E5"/>
<path d="M78.5103 0.390137H78.3203V13.1602H78.5103V0.390137Z" fill="#00B3E5"/>
<path d="M78.6392 0.390137H78.4492V13.1602H78.6392V0.390137Z" fill="#00B3E5"/>
<path d="M78.7603 0.390137H78.5703V13.1602H78.7603V0.390137Z" fill="#00B3E5"/>
<path d="M78.8892 0.390137H78.6992V13.1602H78.8892V0.390137Z" fill="#00B3E5"/>
<path d="M79.0201 0.390137H78.8301V13.1602H79.0201V0.390137Z" fill="#00B3E5"/>
<path d="M79.149 0.390137H78.959V13.1602H79.149V0.390137Z" fill="#00B3E5"/>
<path d="M79.2701 0.390137H79.0801V13.1602H79.2701V0.390137Z" fill="#00B3E5"/>
<path d="M79.399 0.390137H79.209V13.1602H79.399V0.390137Z" fill="#00B3E5"/>
<path d="M79.5298 0.390137H79.3398V13.1602H79.5298V0.390137Z" fill="#00B3E5"/>
<path d="M79.649 0.390137H79.459V13.1602H79.649V0.390137Z" fill="#00B3E5"/>
<path d="M79.7798 0.390137H79.5898V13.1602H79.7798V0.390137Z" fill="#00B3E5"/>
<path d="M79.9088 0.390137H79.7188V13.1602H79.9088V0.390137Z" fill="#00B3E5"/>
<path d="M80.0298 0.390137H79.8398V13.1602H80.0298V0.390137Z" fill="#00B3E5"/>
<path d="M80.1588 0.390137H79.9688V13.1602H80.1588V0.390137Z" fill="#00B3E5"/>
<path d="M80.2896 0.390137H80.0996V13.1602H80.2896V0.390137Z" fill="#00B3E5"/>
<path d="M80.4088 0.390137H80.2188V13.1602H80.4088V0.390137Z" fill="#00B3E5"/>
<path d="M80.5396 0.390137H80.3496V13.1602H80.5396V0.390137Z" fill="#00B3E5"/>
<path d="M80.6685 0.390137H80.4785V13.1602H80.6685V0.390137Z" fill="#00B3E5"/>
<path d="M80.7896 0.390137H80.5996V13.1602H80.7896V0.390137Z" fill="#00B3E5"/>
<path d="M80.9185 0.390137H80.7285V13.1602H80.9185V0.390137Z" fill="#00B3E5"/>
<path d="M81.0494 0.390137H80.8594V13.1602H81.0494V0.390137Z" fill="#00B3E5"/>
<path d="M81.1685 0.390137H80.9785V13.1602H81.1685V0.390137Z" fill="#00B3E5"/>
<path d="M81.2994 0.390137H81.1094V13.1602H81.2994V0.390137Z" fill="#00B3E5"/>
<path d="M81.4302 0.390137H81.2402V13.1602H81.4302V0.390137Z" fill="#00B3E5"/>
<path d="M81.5591 0.390137H81.3691V13.1602H81.5591V0.390137Z" fill="#00B3E5"/>
<path d="M81.6802 0.390137H81.4902V13.1602H81.6802V0.390137Z" fill="#00B3E5"/>
<path d="M81.8091 0.390137H81.6191V13.1602H81.8091V0.390137Z" fill="#00B3E5"/>
<path d="M81.94 0.390137H81.75V13.1602H81.94V0.390137Z" fill="#00B3E5"/>
<path d="M82.0591 0.390137H81.8691V13.1602H82.0591V0.390137Z" fill="#00B3E5"/>
<path d="M82.19 0.390137H82V13.1602H82.19V0.390137Z" fill="#00B3E5"/>
<path d="M82.3189 0.390137H82.1289V13.1602H82.3189V0.390137Z" fill="#00B3E5"/>
<path d="M82.44 0.390137H82.25V13.1602H82.44V0.390137Z" fill="#00B3E5"/>
<path d="M82.5689 0.390137H82.3789V13.1602H82.5689V0.390137Z" fill="#00B3E5"/>
<path d="M82.6998 0.390137H82.5098V13.1602H82.6998V0.390137Z" fill="#00B3E5"/>
<path d="M82.8189 0.390137H82.6289V13.1602H82.8189V0.390137Z" fill="#00B3E5"/>
<path d="M82.9498 0.390137H82.7598V13.1602H82.9498V0.390137Z" fill="#00B3E5"/>
<path d="M83.0787 0.390137H82.8887V13.1602H83.0787V0.390137Z" fill="#00B3E5"/>
<path d="M83.1998 0.390137H83.0098V13.1602H83.1998V0.390137Z" fill="#00B3E5"/>
<path d="M83.3287 0.390137H83.1387V13.1602H83.3287V0.390137Z" fill="#00B3E5"/>
<path d="M83.4595 0.390137H83.2695V13.1602H83.4595V0.390137Z" fill="#00B3E5"/>
<path d="M83.5904 0.390137H83.4004V13.1602H83.5904V0.390137Z" fill="#00B3E5"/>
<path d="M83.7095 0.390137H83.5195V13.1602H83.7095V0.390137Z" fill="#00B3E5"/>
<path d="M83.8404 0.390137H83.6504V13.1602H83.8404V0.390137Z" fill="#00B3E5"/>
<path d="M83.9692 0.390137H83.7793V13.1602H83.9692V0.390137Z" fill="#00B3E5"/>
<path d="M84.0904 0.390137H83.9004V13.1602H84.0904V0.390137Z" fill="#00B3E5"/>
<path d="M84.2192 0.390137H84.0293V13.1602H84.2192V0.390137Z" fill="#00B3E5"/>
<path d="M84.3502 0.390137H84.1602V13.1602H84.3502V0.390137Z" fill="#00B3E5"/>
<path d="M84.4692 0.390137H84.2793V13.1602H84.4692V0.390137Z" fill="#00B3E5"/>
<path d="M84.6002 0.390137H84.4102V13.1602H84.6002V0.390137Z" fill="#00B3E5"/>
<path d="M84.7291 0.390137H84.5391V13.1602H84.7291V0.390137Z" fill="#00B3E5"/>
<path d="M84.8502 0.390137H84.6602V13.1602H84.8502V0.390137Z" fill="#00B3E5"/>
<path d="M84.9791 0.390137H84.7891V13.1602H84.9791V0.390137Z" fill="#00B3E5"/>
<path d="M85.1099 0.390137H84.9199V13.1602H85.1099V0.390137Z" fill="#00B3E5"/>
<path d="M85.2291 0.390137H85.0391V13.1602H85.2291V0.390137Z" fill="#00B3E5"/>
<path d="M85.3599 0.390137H85.1699V13.1602H85.3599V0.390137Z" fill="#00B3E5"/>
<path d="M85.4888 0.390137H85.2988V13.1602H85.4888V0.390137Z" fill="#00B3E5"/>
<path d="M85.6099 0.390137H85.4199V13.1602H85.6099V0.390137Z" fill="#00B3E5"/>
<path d="M85.7388 0.390137H85.5488V13.1602H85.7388V0.390137Z" fill="#00B3E5"/>
<path d="M85.8697 0.390137H85.6797V13.1602H85.8697V0.390137Z" fill="#00B3E5"/>
<path d="M85.9986 0.390137H85.8086V13.1602H85.9986V0.390137Z" fill="#00B3E5"/>
<path d="M86.1197 0.390137H85.9297V13.1602H86.1197V0.390137Z" fill="#00B3E5"/>
<path d="M86.2486 0.390137H86.0586V13.1602H86.2486V0.390137Z" fill="#00B3E5"/>
<path d="M86.3795 0.390137H86.1895V13.1602H86.3795V0.390137Z" fill="#00B3E5"/>
<path d="M86.4986 0.390137H86.3086V13.1602H86.4986V0.390137Z" fill="#00B3E5"/>
<path d="M86.6295 0.390137H86.4395V13.1602H86.6295V0.390137Z" fill="#00B3E5"/>
<path d="M86.7603 0.390137H86.5703V13.1602H86.7603V0.390137Z" fill="#00B3E5"/>
<path d="M86.8795 0.390137H86.6895V13.1602H86.8795V0.390137Z" fill="#00B3E5"/>
<path d="M87.0103 0.390137H86.8203V13.1602H87.0103V0.390137Z" fill="#00B3E5"/>
<path d="M87.1392 0.390137H86.9492V13.1602H87.1392V0.390137Z" fill="#00B3E5"/>
<path d="M87.2603 0.390137H87.0703V13.1602H87.2603V0.390137Z" fill="#00B3E5"/>
<path d="M87.3892 0.390137H87.1992V13.1602H87.3892V0.390137Z" fill="#00B3E5"/>
<path d="M87.5201 0.390137H87.3301V13.1602H87.5201V0.390137Z" fill="#00B3E5"/>
<path d="M87.6392 0.390137H87.4492V13.1602H87.6392V0.390137Z" fill="#00B3E5"/>
<path d="M87.7701 0.390137H87.5801V13.1602H87.7701V0.390137Z" fill="#00B2E5"/>
<path d="M87.899 0.390137H87.709V13.1602H87.899V0.390137Z" fill="#00B2E4"/>
<path d="M88.0298 0.390137H87.8398V13.1602H88.0298V0.390137Z" fill="#00B2E4"/>
<path d="M88.149 0.390137H87.959V13.1602H88.149V0.390137Z" fill="#00B2E4"/>
<path d="M88.2798 0.390137H88.0898V13.1602H88.2798V0.390137Z" fill="#00B2E4"/>
<path d="M88.4088 0.390137H88.2188V13.1602H88.4088V0.390137Z" fill="#00B1E4"/>
<path d="M88.5298 0.390137H88.3398V13.1602H88.5298V0.390137Z" fill="#00B1E4"/>
<path d="M88.6588 0.390137H88.4688V13.1602H88.6588V0.390137Z" fill="#00B1E4"/>
<path d="M88.7896 0.390137H88.5996V13.1602H88.7896V0.390137Z" fill="#00B1E3"/>
<path d="M88.9088 0.390137H88.7188V13.1602H88.9088V0.390137Z" fill="#01B0E3"/>
<path d="M89.0396 0.390137H88.8496V13.1602H89.0396V0.390137Z" fill="#01B0E3"/>
<path d="M89.1685 0.390137H88.9785V13.1602H89.1685V0.390137Z" fill="#01B0E3"/>
<path d="M89.2896 0.390137H89.0996V13.1602H89.2896V0.390137Z" fill="#01B0E3"/>
<path d="M89.4185 0.390137H89.2285V13.1602H89.4185V0.390137Z" fill="#01B0E3"/>
<path d="M89.5494 0.390137H89.3594V13.1602H89.5494V0.390137Z" fill="#01AFE3"/>
<path d="M89.6685 0.390137H89.4785V13.1602H89.6685V0.390137Z" fill="#01AFE2"/>
<path d="M89.7994 0.390137H89.6094V13.1602H89.7994V0.390137Z" fill="#01AFE2"/>
<path d="M89.9302 0.390137H89.7402V13.1602H89.9302V0.390137Z" fill="#01AFE2"/>
<path d="M90.0591 0.390137H89.8691V13.1602H90.0591V0.390137Z" fill="#01AEE2"/>
<path d="M90.1802 0.390137H89.9902V13.1602H90.1802V0.390137Z" fill="#01AEE2"/>
<path d="M90.3091 0.390137H90.1191V13.1602H90.3091V0.390137Z" fill="#01AEE2"/>
<path d="M90.44 0.390137H90.25V13.1602H90.44V0.390137Z" fill="#01AEE1"/>
<path d="M90.5591 0.390137H90.3691V13.1602H90.5591V0.390137Z" fill="#01AEE1"/>
<path d="M90.69 0.390137H90.5V13.1602H90.69V0.390137Z" fill="#01ADE1"/>
<path d="M90.8189 0.390137H90.6289V13.1602H90.8189V0.390137Z" fill="#01ADE1"/>
<path d="M90.94 0.390137H90.75V13.1602H90.94V0.390137Z" fill="#01ADE1"/>
<path d="M91.0689 0.390137H90.8789V13.1602H91.0689V0.390137Z" fill="#01ADE1"/>
<path d="M91.1998 0.390137H91.0098V13.1602H91.1998V0.390137Z" fill="#01ACE1"/>
<path d="M91.3189 0.390137H91.1289V13.1602H91.3189V0.390137Z" fill="#01ACE0"/>
<path d="M91.4498 0.390137H91.2598V13.1602H91.4498V0.390137Z" fill="#01ACE0"/>
<path d="M91.5787 0.390137H91.3887V13.1602H91.5787V0.390137Z" fill="#01ACE0"/>
<path d="M91.6998 0.390137H91.5098V13.1602H91.6998V0.390137Z" fill="#02ABE0"/>
<path d="M91.8287 0.390137H91.6387V13.1602H91.8287V0.390137Z" fill="#02ABE0"/>
<path d="M91.9595 0.390137H91.7695V13.1602H91.9595V0.390137Z" fill="#02ABE0"/>
<path d="M92.0787 0.390137H91.8887V13.1602H92.0787V0.390137Z" fill="#02ABDF"/>
<path d="M92.2095 0.390137H92.0195V13.1602H92.2095V0.390137Z" fill="#02ABDF"/>
<path d="M92.3404 0.390137H92.1504V13.1602H92.3404V0.390137Z" fill="#02AADF"/>
<path d="M92.4692 0.390137H92.2793V13.1602H92.4692V0.390137Z" fill="#02AADF"/>
<path d="M92.5904 0.390137H92.4004V13.1602H92.5904V0.390137Z" fill="#02AADF"/>
<path d="M92.7192 0.390137H92.5293V13.1602H92.7192V0.390137Z" fill="#02AADF"/>
<path d="M92.8502 0.390137H92.6602V13.1602H92.8502V0.390137Z" fill="#02A9DF"/>
<path d="M92.9692 0.390137H92.7793V13.1602H92.9692V0.390137Z" fill="#02A9DE"/>
<path d="M93.1002 0.390137H92.9102V13.1602H93.1002V0.390137Z" fill="#02A9DE"/>
<path d="M93.2291 0.390137H93.0391V13.1602H93.2291V0.390137Z" fill="#02A9DE"/>
<path d="M93.3502 0.390137H93.1602V13.1602H93.3502V0.390137Z" fill="#02A9DE"/>
<path d="M93.4791 0.390137H93.2891V13.1602H93.4791V0.390137Z" fill="#02A8DE"/>
<path d="M93.6099 0.390137H93.4199V13.1602H93.6099V0.390137Z" fill="#02A8DE"/>
<path d="M93.7291 0.390137H93.5391V13.1602H93.7291V0.390137Z" fill="#02A8DE"/>
<path d="M93.8599 0.390137H93.6699V13.1602H93.8599V0.390137Z" fill="#02A8DD"/>
<path d="M93.9888 0.390137H93.7988V13.1602H93.9888V0.390137Z" fill="#02A7DD"/>
<path d="M94.1099 0.390137H93.9199V13.1602H94.1099V0.390137Z" fill="#02A7DD"/>
<path d="M94.2388 0.390137H94.0488V13.1602H94.2388V0.390137Z" fill="#02A7DD"/>
<path d="M94.3697 0.390137H94.1797V13.1602H94.3697V0.390137Z" fill="#02A7DD"/>
<path d="M94.4986 0.390137H94.3086V13.1602H94.4986V0.390137Z" fill="#02A7DD"/>
<path d="M94.6197 0.390137H94.4297V13.1602H94.6197V0.390137Z" fill="#03A6DC"/>
<path d="M94.7486 0.390137H94.5586V13.1602H94.7486V0.390137Z" fill="#03A6DC"/>
<path d="M94.8795 0.390137H94.6895V13.1602H94.8795V0.390137Z" fill="#03A6DC"/>
<path d="M94.9986 0.390137H94.8086V13.1602H94.9986V0.390137Z" fill="#03A6DC"/>
<path d="M95.1295 0.390137H94.9395V13.1602H95.1295V0.390137Z" fill="#03A5DC"/>
<path d="M95.2603 0.390137H95.0703V13.1602H95.2603V0.390137Z" fill="#03A5DC"/>
<path d="M95.3795 0.390137H95.1895V13.1602H95.3795V0.390137Z" fill="#03A5DC"/>
<path d="M95.5103 0.390137H95.3203V13.1602H95.5103V0.390137Z" fill="#03A5DB"/>
<path d="M95.6392 0.390137H95.4492V13.1602H95.6392V0.390137Z" fill="#03A5DB"/>
<path d="M95.7603 0.390137H95.5703V13.1602H95.7603V0.390137Z" fill="#03A4DB"/>
<path d="M95.8892 0.390137H95.6992V13.1602H95.8892V0.390137Z" fill="#03A4DB"/>
<path d="M96.0201 0.390137H95.8301V13.1602H96.0201V0.390137Z" fill="#03A4DB"/>
<path d="M96.1392 0.390137H95.9492V13.1602H96.1392V0.390137Z" fill="#03A4DB"/>
<path d="M96.2701 0.390137H96.0801V13.1602H96.2701V0.390137Z" fill="#03A3DA"/>
<path d="M96.399 0.390137H96.209V13.1602H96.399V0.390137Z" fill="#03A3DA"/>
<path d="M96.5201 0.390137H96.3301V13.1602H96.5201V0.390137Z" fill="#03A3DA"/>
<path d="M96.649 0.390137H96.459V13.1602H96.649V0.390137Z" fill="#03A3DA"/>
<path d="M96.7798 0.390137H96.5898V13.1602H96.7798V0.390137Z" fill="#03A3DA"/>
<path d="M96.9088 0.390137H96.7188V13.1602H96.9088V0.390137Z" fill="#03A2DA"/>
<path d="M97.0298 0.390137H96.8398V13.1602H97.0298V0.390137Z" fill="#03A2DA"/>
<path d="M97.1588 0.390137H96.9688V13.1602H97.1588V0.390137Z" fill="#03A2D9"/>
<path d="M97.2896 0.390137H97.0996V13.1602H97.2896V0.390137Z" fill="#03A2D9"/>
<path d="M97.4088 0.390137H97.2188V13.1602H97.4088V0.390137Z" fill="#04A1D9"/>
<path d="M97.5396 0.390137H97.3496V13.1602H97.5396V0.390137Z" fill="#04A1D9"/>
<path d="M97.6685 0.390137H97.4785V13.1602H97.6685V0.390137Z" fill="#04A1D9"/>
<path d="M97.7896 0.390137H97.5996V13.1602H97.7896V0.390137Z" fill="#04A1D9"/>
<path d="M97.9185 0.390137H97.7285V13.1602H97.9185V0.390137Z" fill="#04A1D9"/>
<path d="M98.0494 0.390137H97.8594V13.1602H98.0494V0.390137Z" fill="#04A0D8"/>
<path d="M98.1685 0.390137H97.9785V13.1602H98.1685V0.390137Z" fill="#04A0D8"/>
<path d="M98.2994 0.390137H98.1094V13.1602H98.2994V0.390137Z" fill="#04A0D8"/>
<path d="M98.4302 0.390137H98.2402V13.1602H98.4302V0.390137Z" fill="#04A0D8"/>
<path d="M98.5494 0.390137H98.3594V13.1602H98.5494V0.390137Z" fill="#049FD8"/>
<path d="M98.6802 0.390137H98.4902V13.1602H98.6802V0.390137Z" fill="#049FD8"/>
<path d="M98.8091 0.390137H98.6191V13.1602H98.8091V0.390137Z" fill="#049FD7"/>
<path d="M98.94 0.390137H98.75V13.1602H98.94V0.390137Z" fill="#049FD7"/>
<path d="M99.0591 0.390137H98.8691V13.1602H99.0591V0.390137Z" fill="#049ED7"/>
<path d="M99.19 0.390137H99V13.1602H99.19V0.390137Z" fill="#049ED7"/>
<path d="M99.3189 0.390137H99.1289V13.1602H99.3189V0.390137Z" fill="#049ED7"/>
<path d="M99.44 0.390137H99.25V13.1602H99.44V0.390137Z" fill="#049ED7"/>
<path d="M99.5689 0.390137H99.3789V13.1602H99.5689V0.390137Z" fill="#049ED7"/>
<path d="M99.6998 0.390137H99.5098V13.1602H99.6998V0.390137Z" fill="#049DD6"/>
<path d="M99.8189 0.390137H99.6289V13.1602H99.8189V0.390137Z" fill="#049DD6"/>
<path d="M99.9498 0.390137H99.7598V13.1602H99.9498V0.390137Z" fill="#049DD6"/>
<path d="M100.079 0.390137H99.8887V13.1602H100.079V0.390137Z" fill="#049DD6"/>
<path d="M100.2 0.390137H100.01V13.1602H100.2V0.390137Z" fill="#059CD6"/>
<path d="M100.329 0.390137H100.139V13.1602H100.329V0.390137Z" fill="#059CD6"/>
<path d="M100.46 0.390137H100.27V13.1602H100.46V0.390137Z" fill="#059CD5"/>
<path d="M100.579 0.390137H100.389V13.1602H100.579V0.390137Z" fill="#059CD5"/>
<path d="M100.71 0.390137H100.52V13.1602H100.71V0.390137Z" fill="#059CD5"/>
<path d="M100.84 0.390137H100.65V13.1602H100.84V0.390137Z" fill="#059BD5"/>
<path d="M100.969 0.390137H100.779V13.1602H100.969V0.390137Z" fill="#059BD5"/>
<path d="M101.09 0.390137H100.9V13.1602H101.09V0.390137Z" fill="#059BD5"/>
<path d="M101.219 0.390137H101.029V13.1602H101.219V0.390137Z" fill="#059BD5"/>
<path d="M101.35 0.390137H101.16V13.1602H101.35V0.390137Z" fill="#059AD4"/>
<path d="M101.469 0.390137H101.279V13.1602H101.469V0.390137Z" fill="#059AD4"/>
<path d="M101.6 0.390137H101.41V13.1602H101.6V0.390137Z" fill="#059AD4"/>
<path d="M101.729 0.390137H101.539V13.1602H101.729V0.390137Z" fill="#059AD4"/>
<path d="M101.85 0.390137H101.66V13.1602H101.85V0.390137Z" fill="#059AD4"/>
<path d="M101.979 0.390137H101.789V13.1602H101.979V0.390137Z" fill="#0599D4"/>
<path d="M102.11 0.390137H101.92V13.1602H102.11V0.390137Z" fill="#0599D4"/>
<path d="M102.229 0.390137H102.039V13.1602H102.229V0.390137Z" fill="#0599D3"/>
<path d="M102.36 0.390137H102.17V13.1602H102.36V0.390137Z" fill="#0599D3"/>
<path d="M102.489 0.390137H102.299V13.1602H102.489V0.390137Z" fill="#0598D3"/>
<path d="M102.61 0.390137H102.42V13.1602H102.61V0.390137Z" fill="#0598D3"/>
<path d="M102.739 0.390137H102.549V13.1602H102.739V0.390137Z" fill="#0598D3"/>
<path d="M102.87 0.390137H102.68V13.1602H102.87V0.390137Z" fill="#0598D3"/>
<path d="M102.989 0.390137H102.799V13.1602H102.989V0.390137Z" fill="#0598D2"/>
<path d="M103.12 0.390137H102.93V13.1602H103.12V0.390137Z" fill="#0697D2"/>
<path d="M103.249 0.390137H103.059V13.1602H103.249V0.390137Z" fill="#0697D2"/>
<path d="M103.379 0.390137H103.189V13.1602H103.379V0.390137Z" fill="#0697D2"/>
<path d="M103.499 0.390137H103.309V13.1602H103.499V0.390137Z" fill="#0697D2"/>
<path d="M103.629 0.390137H103.439V13.1602H103.629V0.390137Z" fill="#0696D2"/>
<path d="M103.76 0.390137H103.57V13.1602H103.76V0.390137Z" fill="#0696D2"/>
<path d="M103.879 0.390137H103.689V13.1602H103.879V0.390137Z" fill="#0696D1"/>
<path d="M104.01 0.390137H103.82V13.1602H104.01V0.390137Z" fill="#0696D1"/>
<path d="M104.139 0.390137H103.949V13.1602H104.139V0.390137Z" fill="#0696D1"/>
<path d="M104.26 0.390137H104.07V13.1602H104.26V0.390137Z" fill="#0695D1"/>
<path d="M104.389 0.390137H104.199V13.1602H104.389V0.390137Z" fill="#0695D1"/>
<path d="M104.52 0.390137H104.33V13.1602H104.52V0.390137Z" fill="#0695D1"/>
<path d="M104.639 0.390137H104.449V13.1602H104.639V0.390137Z" fill="#0695D1"/>
<path d="M104.77 0.390137H104.58V13.1602H104.77V0.390137Z" fill="#0694D0"/>
<path d="M104.899 0.390137H104.709V13.1602H104.899V0.390137Z" fill="#0694D0"/>
<path d="M105.02 0.390137H104.83V13.1602H105.02V0.390137Z" fill="#0694D0"/>
<path d="M105.149 0.390137H104.959V13.1602H105.149V0.390137Z" fill="#0694D0"/>
<path d="M105.28 0.390137H105.09V13.1602H105.28V0.390137Z" fill="#0694D0"/>
<path d="M105.409 0.390137H105.219V13.1602H105.409V0.390137Z" fill="#0693D0"/>
<path d="M105.53 0.390137H105.34V13.1602H105.53V0.390137Z" fill="#0693CF"/>
<path d="M105.659 0.390137H105.469V13.1602H105.659V0.390137Z" fill="#0693CF"/>
<path d="M105.79 0.390137H105.6V13.1602H105.79V0.390137Z" fill="#0693CF"/>
<path d="M105.909 0.390137H105.719V13.1602H105.909V0.390137Z" fill="#0792CF"/>
<path d="M106.04 0.390137H105.85V13.1602H106.04V0.390137Z" fill="#0792CF"/>
<path d="M106.169 0.390137H105.979V13.1602H106.169V0.390137Z" fill="#0792CF"/>
<path d="M106.29 0.390137H106.1V13.1602H106.29V0.390137Z" fill="#0792CF"/>
<path d="M106.419 0.390137H106.229V13.1602H106.419V0.390137Z" fill="#0791CE"/>
<path d="M106.549 0.390137H106.359V13.1602H106.549V0.390137Z" fill="#0791CE"/>
<path d="M106.669 0.390137H106.479V13.1602H106.669V0.390137Z" fill="#0791CE"/>
<path d="M106.799 0.390137H106.609V13.1602H106.799V0.390137Z" fill="#0791CE"/>
<path d="M106.93 0.390137H106.74V13.1602H106.93V0.390137Z" fill="#0791CE"/>
<path d="M107.049 0.390137H106.859V13.1602H107.049V0.390137Z" fill="#0790CE"/>
<path d="M107.18 0.390137H106.99V13.1602H107.18V0.390137Z" fill="#0790CD"/>
<path d="M107.309 0.390137H107.119V13.1602H107.309V0.390137Z" fill="#0790CD"/>
<path d="M107.43 0.390137H107.24V13.1602H107.43V0.390137Z" fill="#0790CD"/>
<path d="M107.559 0.390137H107.369V13.1602H107.559V0.390137Z" fill="#078FCD"/>
<path d="M107.69 0.390137H107.5V13.1602H107.69V0.390137Z" fill="#078FCD"/>
<path d="M107.819 0.390137H107.629V13.1602H107.819V0.390137Z" fill="#078FCD"/>
<path d="M107.94 0.390137H107.75V13.1602H107.94V0.390137Z" fill="#078FCD"/>
<path d="M108.069 0.390137H107.879V13.1602H108.069V0.390137Z" fill="#078FCC"/>
<path d="M108.2 0.390137H108.01V13.1602H108.2V0.390137Z" fill="#078ECC"/>
<path d="M108.319 0.390137H108.129V13.1602H108.319V0.390137Z" fill="#078ECC"/>
<path d="M108.45 0.390137H108.26V13.1602H108.45V0.390137Z" fill="#078ECC"/>
<path d="M108.579 0.390137H108.389V13.1602H108.579V0.390137Z" fill="#078ECC"/>
<path d="M108.7 0.390137H108.51V13.1602H108.7V0.390137Z" fill="#088DCC"/>
<path d="M108.829 0.390137H108.639V13.1602H108.829V0.390137Z" fill="#088DCC"/>
<path d="M108.96 0.390137H108.77V13.1602H108.96V0.390137Z" fill="#088DCB"/>
<path d="M109.079 0.390137H108.889V13.1602H109.079V0.390137Z" fill="#088DCB"/>
<path d="M109.21 0.390137H109.02V13.1602H109.21V0.390137Z" fill="#088DCB"/>
<path d="M109.34 0.390137H109.15V13.1602H109.34V0.390137Z" fill="#088CCB"/>
<path d="M109.46 0.390137H109.27V13.1602H109.46V0.390137Z" fill="#088CCB"/>
<path d="M109.59 0.390137H109.4V13.1602H109.59V0.390137Z" fill="#088CCB"/>
<path d="M109.719 0.390137H109.529V13.1602H109.719V0.390137Z" fill="#088CCA"/>
<path d="M109.85 0.390137H109.66V13.1602H109.85V0.390137Z" fill="#088BCA"/>
<path d="M109.969 0.390137H109.779V13.1602H109.969V0.390137Z" fill="#088BCA"/>
<path d="M110.16 0.390137H109.91V13.1602H110.16V0.390137Z" fill="#088BCA"/>
</svg>
