<svg width="112" height="51" viewBox="0 0 112 51" fill="none" xmlns="http://www.w3.org/2000/svg">
<path fill-rule="evenodd" clip-rule="evenodd" d="M22.5909 45.0698C24.5158 45.0752 26.4392 44.965 28.3509 44.7397L30.8609 44.5498C36.3609 44.3998 37.9409 44.1797 43.3909 46.9897L47.7009 50.0698C47.9809 50.2898 48.0909 50.5498 48.5209 50.5498C48.9509 50.5498 48.9609 50.2099 48.9609 49.9399C48.9609 49.4499 46.0509 46.5698 45.1609 45.8198C42.5645 43.6573 39.4721 42.1732 36.1609 41.5C32.8309 40.66 30.6409 40.2701 27.8309 37.9101L26.8309 36.9897C26.7109 36.8597 26.6809 36.7698 26.5209 36.6098C26.3609 36.4498 26.1209 36.1801 25.8709 35.8701L24.2709 33.5498C24.0809 33.2198 23.9809 32.8998 23.6209 32.7998C23.1609 33.7498 23.7109 36.8 23.7109 37.5C22.2037 37.6002 20.6906 37.4341 19.2409 37.0097C15.9167 36.0818 13.0269 34.0104 11.0809 31.1601C10.8429 30.8115 10.6226 30.4509 10.4209 30.08C10.1912 29.6871 9.98743 29.2794 9.81091 28.8598C8.79906 26.5924 8.38985 24.1023 8.62286 21.6303C8.85587 19.1584 9.72321 16.7884 11.1409 14.75C12.7654 12.4169 15.0247 10.5982 17.6509 9.50973C17.8909 9.40973 18.0609 9.37001 18.3009 9.29001C19.269 8.93647 20.2763 8.70123 21.3009 8.58981C21.7309 8.53981 22.5209 8.46014 22.9709 8.43014C24.0484 8.46941 25.1215 8.58961 26.1809 8.79001C27.1332 8.98758 28.0618 9.28607 28.9509 9.68014C31.4912 10.7932 33.6616 12.6072 35.2078 14.9096C36.7539 17.2121 37.6118 19.9076 37.6809 22.6801L37.5909 24.5898C36.9809 24.5898 36.7409 24.5 36.1109 24.5C35.4809 24.5 33.3209 24.5 32.9309 24.5C32.5409 24.5 32.7209 24.5002 32.5409 24.7202C32.7409 25.0002 33.6109 25.0698 34.3309 25.2798C35.4679 25.6099 36.5449 26.1199 37.5209 26.79C37.7474 26.9362 37.9645 27.0965 38.1709 27.27L38.8209 27.8398C39.5922 28.6717 40.2327 29.6161 40.7209 30.6401C41.2385 31.8021 41.5757 33.036 41.7209 34.2998C42.0809 34.2998 42.0709 34.2201 42.2209 33.9301C42.3709 33.6401 42.3909 33.5501 42.5109 33.3501C42.737 32.9568 42.9374 32.549 43.1109 32.1298C45.4608 26.9762 45.7471 21.118 43.9109 15.7597C43.5674 14.7791 43.1565 13.8237 42.6809 12.8999C42.0955 11.7973 41.4269 10.7407 40.6809 9.73971C39.9574 8.76244 39.1402 7.85845 38.2409 7.04001L37.1509 6.04001C36.0163 5.07956 34.7788 4.24784 33.4609 3.56003C33.1909 3.42003 33.0809 3.32014 32.7909 3.18014C32.5009 3.04014 32.3409 2.98983 32.0609 2.85983C28.0045 1.01595 23.4837 0.447158 19.097 1.22897C14.7102 2.01078 10.6644 4.10651 7.49469 7.23825C4.32501 10.37 2.18095 14.3905 1.34637 18.7675C0.511794 23.1445 1.02602 27.6716 2.82092 31.75C3.23169 32.6746 3.69921 33.573 4.22088 34.4399C4.72922 35.2773 5.29386 36.079 5.91089 36.8398L7.33093 38.4599C7.49749 38.6436 7.67801 38.8144 7.87091 38.9702C8.29091 39.3002 8.56089 39.6002 8.98089 39.9702C10.1187 40.9292 11.3558 41.7637 12.6709 42.4599C13.5998 42.9632 14.566 43.3945 15.5609 43.75C17.8119 44.5872 20.1895 45.0335 22.5909 45.0698Z" fill="#FF8B00"/>
<path fill-rule="evenodd" clip-rule="evenodd" d="M80.3691 8.25996C80.5432 8.97712 80.7739 9.67943 81.0591 10.3601L85.6891 24.1804C86.0391 25.2604 86.0192 24.9704 89.0692 24.9704C89.7692 24.9704 89.8792 23.9703 90.2592 22.8503L91.9391 17.9104C92.2584 17.0923 92.5223 16.2535 92.7291 15.4001H92.8992C92.8992 15.8101 94.2591 19.6103 94.4991 20.3303L95.7191 23.9899C96.1391 25.2799 95.9091 24.9899 99.1691 24.9899C99.6791 24.9899 99.7891 24.68 99.9191 24.26L105.169 8.61006C105.319 8.15006 105.099 7.84004 104.559 7.84004C100.459 7.84004 100.799 7.50023 100.369 8.79023L98.0591 16.4001C97.9891 16.6401 97.9191 16.7999 97.8691 16.9899C97.7591 17.3399 97.8691 17.41 97.5991 17.59C97.5144 17.1553 97.3871 16.7299 97.2191 16.32L94.6292 8.64033C94.2992 7.64033 93.9691 7.85029 91.9391 7.85029C90.9391 7.85029 91.0591 8.09029 90.4691 9.85029L89.5991 12.4602C89.2991 13.3602 89.0092 14.15 88.7092 15.05C88.4965 15.9288 88.1775 16.7787 87.7592 17.5803C87.7592 17.2003 85.3991 9.57994 85.1191 8.73994C84.7091 7.49994 84.8291 7.84004 80.9791 7.84004C80.9078 7.83131 80.8354 7.83745 80.7665 7.85811C80.6977 7.87876 80.6339 7.91359 80.5792 7.96016C80.4841 8.04007 80.4117 8.14332 80.3691 8.25996Z" fill="#FF8B00"/>
<path fill-rule="evenodd" clip-rule="evenodd" d="M62.1804 11.48H63.0504C64.2139 11.5943 65.2885 12.1532 66.0504 13.0401C66.6503 13.7071 67.0597 14.5231 67.2357 15.4029C67.4116 16.2826 67.3476 17.1936 67.0504 18.0401C65.717 17.9492 64.3782 17.9791 63.0504 18.1299C62.9104 18.7399 63.0504 18.6598 63.7604 19.5098C64.1204 19.9598 64.4704 20.3501 64.7604 20.8301C63.756 21.3141 62.6167 21.4409 61.5304 21.19C57.0504 19.98 56.9704 14.19 60.1304 12.19C60.7321 11.8046 61.4185 11.5711 62.1304 11.5098L62.1804 11.48ZM53.6504 16.3501C53.6636 17.9484 54.1021 19.5142 54.921 20.8868C55.7398 22.2593 56.9094 23.3889 58.3095 24.1597C59.7096 24.9305 61.2897 25.3147 62.8875 25.2725C64.4852 25.2303 66.0429 24.7635 67.4004 23.92C67.7404 24.15 68.1304 24.92 68.4004 24.92H72.5804C72.6292 24.92 72.6774 24.9087 72.7213 24.8872C72.7652 24.8658 72.8035 24.8345 72.8334 24.7959C72.8634 24.7573 72.8841 24.7124 72.8939 24.6646C72.9038 24.6167 72.9026 24.5674 72.8904 24.5201C72.5337 24.0139 72.1428 23.5328 71.7203 23.0801L70.1404 21.2701C70.5356 20.6082 70.8703 19.912 71.1404 19.19C71.8272 17.0245 71.6773 14.6805 70.7203 12.6202C70.2646 11.6546 69.6456 10.7749 68.8904 10.0201C68.6604 9.79005 68.5504 9.74007 68.3304 9.54007C66.6258 8.10989 64.4459 7.37277 62.2231 7.47464C60.0003 7.57652 57.897 8.50976 56.3304 10.0899C55.5523 10.8307 54.9331 11.7223 54.5104 12.71C53.983 13.8536 53.6906 15.0915 53.6504 16.3501Z" fill="#FF8B00"/>
<path fill-rule="evenodd" clip-rule="evenodd" d="M74.7104 8.48006V24.4102C74.6987 24.4931 74.7064 24.5775 74.7329 24.6568C74.7595 24.7361 74.8041 24.8081 74.8633 24.8673C74.9224 24.9264 74.9944 24.9711 75.0738 24.9976C75.1531 25.0242 75.2375 25.0318 75.3203 25.0201H78.3203C78.6103 25.0201 78.9303 24.8702 78.9303 24.5802V8.31014C78.9193 8.19719 78.8694 8.09156 78.7892 8.01131C78.7089 7.93106 78.6033 7.88124 78.4903 7.8702H75.2704C75.1915 7.8666 75.1127 7.88013 75.0398 7.91024C74.9668 7.94034 74.9013 7.98635 74.8479 8.04451C74.7945 8.10267 74.7545 8.17186 74.7307 8.24715C74.707 8.32244 74.7 8.40179 74.7104 8.48006Z" fill="#FF8B00"/>
<path fill-rule="evenodd" clip-rule="evenodd" d="M106.48 8.2597V24.5297C106.48 24.8097 106.801 24.9701 107.091 24.9701H110.091C110.173 24.9818 110.258 24.9737 110.337 24.9472C110.416 24.9207 110.488 24.876 110.548 24.8168C110.607 24.7577 110.651 24.6857 110.678 24.6064C110.704 24.5271 110.712 24.4426 110.701 24.3598V8.47992C110.712 8.39709 110.704 8.31266 110.678 8.23333C110.651 8.15401 110.607 8.08203 110.548 8.02288C110.488 7.96374 110.416 7.91904 110.337 7.89251C110.258 7.86598 110.173 7.85839 110.091 7.87005H106.87C106.774 7.8884 106.685 7.93526 106.615 8.00482C106.546 8.07437 106.499 8.16306 106.48 8.2597Z" fill="#FF8B00"/>
<path fill-rule="evenodd" clip-rule="evenodd" d="M71.3203 38.6299H80.5403V31.75H78.8003V37.1499H76.7203V31.75H75.0603V37.1499H72.9703V31.75H71.3203V38.6299Z" fill="#2D343E"/>
<path fill-rule="evenodd" clip-rule="evenodd" d="M55 38.6299H56.83V34.48C58.19 34.48 57.89 34.2902 58.51 35.4102C59.13 36.5302 59.69 37.7302 60.31 38.6602H62.31L60.17 34.9702C59.91 34.5202 59.71 34.1002 59.44 33.7002C60.21 32.2502 61.38 30.5098 62.14 29.0898H60.23C59.83 29.6798 59.53 30.31 59.14 30.96L58.06 32.96H56.75V29.1299H55V38.6299Z" fill="#2D343E"/>
<path fill-rule="evenodd" clip-rule="evenodd" d="M64.1808 35.2397C64.1808 34.7092 64.3916 34.2007 64.7667 33.8256C65.1417 33.4505 65.6504 33.2397 66.1808 33.2397C66.7113 33.2397 67.22 33.4505 67.5951 33.8256C67.9702 34.2007 68.1808 34.7092 68.1808 35.2397C68.1884 35.7341 68.022 36.2158 67.7109 36.6C67.4439 36.9231 67.0822 37.1542 66.6769 37.2607C66.2715 37.3671 65.8429 37.3431 65.4517 37.1928C65.0605 37.0425 64.7264 36.7732 64.4966 36.4228C64.2667 36.0723 64.1528 35.6584 64.1708 35.2397H64.1808ZM62.4408 35.1498C62.4268 35.6421 62.5186 36.1316 62.7101 36.5854C62.9016 37.0391 63.1883 37.4463 63.5508 37.7797C65.7508 39.9697 70.0109 38.4599 70.0109 35.2299C69.9854 34.5 69.7606 33.7913 69.3608 33.1801C68.9842 32.6203 68.4525 32.1822 67.8309 31.9198C67.2705 31.641 66.6489 31.5077 66.0235 31.5321C65.398 31.5566 64.7888 31.7382 64.2519 32.06C63.715 32.3817 63.2677 32.8335 62.9512 33.3735C62.6347 33.9135 62.4592 34.5242 62.4408 35.1498Z" fill="#2D353F"/>
<path fill-rule="evenodd" clip-rule="evenodd" d="M86.6298 34.2798H83.6298C83.6674 34.009 83.776 33.7529 83.9445 33.5376C84.1131 33.3223 84.3355 33.1558 84.5894 33.0542C84.8433 32.9527 85.1195 32.9198 85.3901 32.9595C85.6606 32.9992 85.9158 33.1096 86.1298 33.2798C86.3819 33.5571 86.5395 33.9072 86.5798 34.2798H86.6298ZM81.8398 34.7998V35.5801C81.8917 36.4326 82.2596 37.2351 82.8718 37.8306C83.4839 38.4261 84.2963 38.7715 85.1498 38.7998C85.7118 38.8492 86.278 38.7865 86.8154 38.6148C87.3528 38.4431 87.8506 38.1659 88.2798 37.7998L87.6698 36.5801C87.2098 36.5801 85.6698 37.9898 84.2498 36.7798C83.6598 36.2598 83.7498 35.8901 83.5798 35.5401H88.2798C88.4619 34.8521 88.4109 34.1233 88.1348 33.4673C87.8588 32.8114 87.3732 32.2653 86.754 31.9146C86.1347 31.5638 85.4168 31.4278 84.7122 31.5283C84.0077 31.6289 83.3562 31.9603 82.8598 32.4702C82.24 33.0908 81.879 33.9232 81.8498 34.7998H81.8398Z" fill="#2D3540"/>
<path fill-rule="evenodd" clip-rule="evenodd" d="M101.779 34.28H98.7794C98.817 34.0092 98.9256 33.7531 99.0941 33.5378C99.2626 33.3225 99.4851 33.156 99.739 33.0544C99.9929 32.9529 100.269 32.92 100.54 32.9597C100.81 32.9994 101.065 33.1098 101.279 33.28C101.699 33.65 101.539 33.9 101.729 34.28H101.779ZM100.389 38.8C101.481 38.8681 102.557 38.5096 103.389 37.8L102.779 36.5803C102.309 36.5803 100.779 37.99 99.3594 36.78C99.1764 36.641 99.0262 36.4634 98.9194 36.26C98.7994 36 98.7994 35.77 98.6894 35.53H103.389C103.559 34.8032 103.499 34.0421 103.219 33.3503C102.269 31.0803 99.3294 31.0503 97.8894 32.5403C97.2518 33.2451 96.8958 34.1597 96.8894 35.1101C96.865 35.5843 96.9371 36.0586 97.1013 36.5041C97.2655 36.9497 97.5184 37.3569 97.8446 37.7019C98.1709 38.0469 98.5638 38.3222 98.9994 38.511C99.4351 38.6997 99.9046 38.798 100.379 38.8H100.389Z" fill="#2D3540"/>
<path fill-rule="evenodd" clip-rule="evenodd" d="M90.5502 34.54C90.5502 35.65 90.3202 36.8799 89.1602 37.1499V38.7202C92.1102 38.7202 92.2902 35.4599 92.2902 33.1499H93.8602V38.6299H95.6002V31.7598H90.6002L90.5502 34.54Z" fill="#2C3540"/>
<path fill-rule="evenodd" clip-rule="evenodd" d="M104.82 38.6299H106.56V35.8501C107.56 35.8501 107.46 35.7301 108.73 37.8501C108.906 38.0923 109.054 38.3538 109.17 38.6299H111.26L108.82 35.0601L109.9 33.4399C110.27 32.8799 110.7 32.31 111 31.75H109.09C108.92 32.01 107.57 34.3599 107.26 34.3599H106.65V31.75H104.82V38.6299Z" fill="#2C3540"/>
<path fill-rule="evenodd" clip-rule="evenodd" d="M32.9395 36.9801C32.9395 40.2201 36.9395 40.1703 36.9395 38.2003C36.9395 36.9003 34.6094 35.02 33.3494 36.09C33.1236 36.3368 32.9803 36.648 32.9395 36.9801Z" fill="#FF8B00"/>
<path fill-rule="evenodd" clip-rule="evenodd" d="M38.0801 32.8903C38.0801 34.7603 40.4301 36.89 40.4301 34.8C40.4301 31.93 38.0801 31.4803 38.0801 32.8903Z" fill="#FF8B00"/>
</svg>
