<svg width="55" height="55" viewBox="0 0 55 55" fill="none" xmlns="http://www.w3.org/2000/svg">
<path fill-rule="evenodd" clip-rule="evenodd" d="M25.2688 44.8102V36.8555C25.2688 35.3034 26.138 34.31 27.5349 34.2402C28.7223 34.1781 29.739 35.2724 29.739 36.8555V42.9942C31.423 42.9942 32.5328 43.522 32.5328 45.5087C32.5328 47.9533 27.1857 47.8912 26.0682 46.8047C25.7887 46.5586 25.5724 46.249 25.4374 45.9019C25.3023 45.5549 25.2525 45.1805 25.2921 44.8102H25.2688ZM43.4133 49.001H37.554C35.8699 49.001 34.861 46.1373 36.7779 45.0043C38.4775 43.9954 42.8545 45.4776 44.2437 44.0885C46.0752 42.257 42.9399 35.5983 47.0608 35.5983C47.5879 35.6145 48.0912 35.8219 48.4767 36.1817C48.8622 36.5415 49.1037 37.0293 49.1562 37.554C49.1562 41.8767 49.9323 46.308 45.7648 48.419C45.0356 48.7706 44.2447 48.9762 43.4366 49.0243L43.4133 49.001ZM5.86708 43.002V37.7014C5.88019 37.2453 6.0376 36.805 6.31667 36.444C6.59573 36.083 6.9821 35.8197 7.42021 35.692C7.85833 35.5644 8.32562 35.579 8.75493 35.7336C9.18425 35.8883 9.55348 36.1751 9.80952 36.5529C10.9115 38.105 9.35941 42.5519 10.7098 44.0342C12.0601 45.5165 16.4837 44.0342 18.1523 44.9654C20.1235 46.0985 19.2543 49.0165 17.4538 49.0165C14.885 49.0165 11.1599 49.358 9.25852 48.4112C8.00259 47.7542 6.99263 46.7089 6.37929 45.4311C6.05077 44.6656 5.8767 43.8427 5.86708 43.0098V43.002ZM12.5646 40.2081C12.5593 40.5031 12.6135 40.7961 12.724 41.0696C12.8344 41.3432 12.9989 41.5917 13.2075 41.8003C13.4161 42.0089 13.6646 42.1733 13.9381 42.2838C14.2117 42.3943 14.5047 42.4485 14.7996 42.4432H21.2177C21.5115 42.4442 21.8026 42.3871 22.0743 42.2752C22.3459 42.1632 22.5927 41.9986 22.8005 41.7909C23.0082 41.5831 23.1728 41.3363 23.2848 41.0647C23.3967 40.793 23.4538 40.5019 23.4528 40.2081V33.9297C23.4591 33.6161 23.4021 33.3045 23.285 33.0135C23.1679 32.7225 22.9932 32.4582 22.7714 32.2364C22.5496 32.0146 22.2852 31.8399 21.9943 31.7228C21.7033 31.6057 21.3916 31.5486 21.078 31.555H14.9393C14.6348 31.5381 14.33 31.5834 14.0435 31.688C13.757 31.7925 13.4948 31.9542 13.2727 32.1633C13.0506 32.3723 12.8733 32.6243 12.7515 32.9039C12.6298 33.1836 12.5662 33.4851 12.5646 33.79V40.2081ZM31.5472 39.9288C31.5124 40.2439 31.5442 40.5629 31.6405 40.865C31.7367 41.1671 31.8953 41.4457 32.1059 41.6827C32.3166 41.9197 32.5747 42.1098 32.8634 42.2408C33.1522 42.3718 33.4652 42.4408 33.7823 42.4432H40.1926C40.7396 42.4458 41.2686 42.2485 41.6802 41.8883C42.0919 41.5281 42.3577 41.03 42.4277 40.4875V33.79C42.4261 33.4851 42.3624 33.1836 42.2407 32.9039C42.119 32.6243 41.9417 32.3723 41.7196 32.1633C41.4975 31.9542 41.2353 31.7925 40.9487 31.688C40.6622 31.5834 40.3575 31.5381 40.0529 31.555H33.9142C33.6006 31.5486 33.289 31.6057 32.998 31.7228C32.707 31.8399 32.4427 32.0146 32.2209 32.2364C31.9991 32.4582 31.8244 32.7225 31.7073 33.0135C31.5902 33.3045 31.5331 33.6161 31.5395 33.9297V39.9288H31.5472ZM27.3642 31.0971C25.0903 31.0971 21.7843 31.6481 21.7843 28.7223C21.7843 27.6436 22.8785 26.6269 24.4384 26.6269H25.2766V14.3806C25.2766 11.7885 27.9851 11.1521 29.1569 12.6034C29.5325 13.0671 29.7404 13.6441 29.7467 14.2409V28.4817C29.7467 30.0339 28.862 31.1359 27.372 31.1359L27.3642 31.0971ZM18.0126 29.7002H12.4326V30.9574C12.4326 33.4874 8.10216 33.5727 8.10216 31.0971C8.10216 24.291 7.32611 25.2378 18.0126 25.2378C18.6054 25.2378 19.1739 25.4732 19.593 25.8924C20.0122 26.3116 20.2476 26.8801 20.2476 27.4728C20.2476 28.0656 20.0122 28.6341 19.593 29.0533C19.1739 29.4724 18.6054 29.7079 18.0126 29.7079V29.7002ZM37.4143 25.23H42.8468C42.8468 23.6779 42.614 22.0171 45.3612 22.0171C47.6894 22.0171 47.1772 26.107 47.1772 27.597C47.1187 28.1814 46.8414 28.7221 46.401 29.1107C45.9606 29.4993 45.3896 29.7071 44.8025 29.6924H37.4065C34.0151 29.6924 33.922 25.2222 37.4065 25.2222L37.4143 25.23ZM12.844 21.7843C12.8929 22.2491 13.1 22.6831 13.4305 23.0137C13.7611 23.3442 14.1951 23.5513 14.66 23.6003H21.7765C22.2414 23.5513 22.6754 23.3442 23.0059 23.0137C23.3365 22.6831 23.5435 22.2491 23.5925 21.7843V14.6677C23.5435 14.2028 23.3365 13.7688 23.0059 13.4383C22.6754 13.1078 22.2414 12.9007 21.7765 12.8517H14.66C14.1951 12.9007 13.7611 13.1078 13.4305 13.4383C13.1 13.7688 12.8929 14.2028 12.844 14.6677V21.7843ZM31.5472 21.3652C31.5446 21.9121 31.7419 22.4412 32.1021 22.8528C32.4623 23.2644 32.9605 23.5302 33.5029 23.6003H40.4875C40.9231 23.5661 41.3352 23.3887 41.6594 23.0958C41.9096 22.9149 42.1112 22.675 42.2466 22.3975C42.382 22.12 42.4468 21.8134 42.4355 21.5049V14.7996C42.3836 14.2641 42.1313 13.768 41.7292 13.4105C41.5533 13.22 41.3377 13.0706 41.0977 12.9727C40.8576 12.8748 40.599 12.8309 40.3401 12.844H33.6426C33.3579 12.852 33.0776 12.9163 32.8179 13.0331C32.5581 13.15 32.3241 13.3172 32.1293 13.525C31.9345 13.7328 31.7828 13.9771 31.6829 14.2438C31.583 14.5105 31.5368 14.7944 31.5472 15.079V21.3574V21.3652ZM35.738 8.38156C35.738 7.02344 36.4209 6.00679 37.554 6.00679C40.1228 6.00679 43.8479 5.66532 45.7493 6.61212C49.9788 8.72303 49.1407 13.3251 49.1407 17.3141C49.1276 17.7702 48.9702 18.2105 48.6911 18.5715C48.4121 18.9326 48.0257 19.1959 47.5876 19.3235C47.1495 19.4511 46.6822 19.4366 46.2528 19.2819C45.8235 19.1272 45.4543 18.8404 45.1983 18.4627C44.0963 16.9105 45.6484 12.4714 44.298 10.9891C42.9477 9.50685 38.5241 10.9892 36.8555 10.0579C36.5556 9.87998 36.2995 9.63698 36.106 9.34684C35.9126 9.0567 35.7868 8.72683 35.738 8.38156ZM7.96247 19.4095C7.58625 19.413 7.21659 19.3109 6.89555 19.1147C6.5745 18.9185 6.31497 18.6361 6.14648 18.2997C5.60323 17.3684 5.87485 13.0535 5.87485 11.7342C5.98646 10.25 6.61542 8.852 7.65205 7.78397C8.14527 7.33156 8.68961 6.93829 9.27403 6.61212C11.1676 5.66532 14.9005 6.00679 17.4693 6.00679C19.0215 6.00679 20.2476 8.69974 18.2454 10.0035C17.5935 10.4304 16.7941 10.3372 15.7852 10.3372C9.83279 10.3372 10.1975 9.98802 10.2053 15.9172C10.2053 16.9804 10.3528 17.6866 9.8716 18.3773C9.67015 18.6983 9.38935 18.9619 9.05628 19.1427C8.72322 19.3235 8.34917 19.4154 7.97024 19.4095H7.96247ZM0.00776827 8.94033V46.0675C0.0625414 47.299 0.377276 48.5051 0.931292 49.6063C1.93205 51.5163 3.49146 53.0757 5.40146 54.0765C6.50801 54.6164 7.71106 54.9303 8.94033 55H46.0675C47.2967 54.9303 48.4998 54.6164 49.6063 54.0765C52.4235 52.7028 55 49.327 55 46.0675V8.93256C55 4.56329 50.4755 0 46.0675 0H8.93256C4.54777 0 0 4.54777 0 8.93256L0.00776827 8.94033Z" fill="#1C2A40"/>
<path fill-rule="evenodd" clip-rule="evenodd" d="M35.6016 17.9036C35.6016 18.6796 35.7335 19.7196 36.9985 19.7196C37.3795 19.7164 37.7451 19.5689 38.0216 19.3067C38.2981 19.0446 38.465 18.6874 38.4885 18.3071C38.5817 16.2117 35.6016 16.5066 35.6016 17.9036Z" fill="#1C2A40"/>
<path d="M19.2673 17.167H17.1719V19.2624H19.2673V17.167Z" fill="#1C2A40"/>
<path fill-rule="evenodd" clip-rule="evenodd" d="M16.9062 37.6863C16.9062 38.0045 17.0071 38.1054 17.3253 38.1054H19.0016V36.01H16.9062V37.6863Z" fill="#1C2A40"/>
<path fill-rule="evenodd" clip-rule="evenodd" d="M36.0156 38.0817H37.6919C38.0101 38.0817 38.111 37.9808 38.111 37.6626V35.9863H36.0156V38.0817Z" fill="#1C2A40"/>
</svg>
