<svg width="97" height="55" viewBox="0 0 97 55" fill="none" xmlns="http://www.w3.org/2000/svg">
<path d="M96.8902 20.4074V33.8539H92.0887V24.4215H87.4655V33.8539H82.6641V20.4065H96.8902V20.4074Z" fill="#1C2A40"/>
<path fill-rule="evenodd" clip-rule="evenodd" d="M72.7977 34.3348C77.0959 34.3348 80.2877 31.6994 80.2877 27.7041C80.2877 23.8372 77.9328 21.3264 73.9971 21.3264C72.1807 21.3264 70.682 21.9658 69.5531 23.069C69.8226 20.7888 71.7508 19.1241 73.8738 19.1241C74.3638 19.1241 78.0524 19.1164 78.0524 19.1164L80.1383 15.1248C80.1383 15.1248 75.5073 15.2302 73.3545 15.2302C68.4357 15.3159 65.1133 19.7869 65.1133 25.2172C65.1133 31.5435 68.3537 34.3348 72.7977 34.3348ZM72.8238 24.862C74.4197 24.862 75.5261 25.9106 75.5261 27.7036C75.5261 29.3174 74.543 30.647 72.8238 30.6507C71.1793 30.6507 70.0729 29.4187 70.0729 27.7311C70.0729 25.9377 71.1793 24.862 72.8238 24.862Z" fill="#1C2A40"/>
<path d="M61.2064 29.3524C61.2064 29.3524 60.0725 30.006 58.3789 30.1297C56.4319 30.1875 54.6972 28.9578 54.6972 26.7729C54.6972 24.6417 56.228 23.4202 58.3299 23.4202C59.6187 23.4202 61.3237 24.3135 61.3237 24.3135C61.3237 24.3135 62.5713 22.0241 63.2175 20.8792C62.0341 19.9823 60.4579 19.4905 58.6246 19.4905C53.9977 19.4905 50.4141 22.5072 50.4141 26.7458C50.4141 31.0386 53.7823 33.9852 58.6246 33.8963C59.978 33.8458 61.8453 33.3706 62.9833 32.6395L61.2064 29.3524Z" fill="#1C2A40"/>
<path d="M0 11.9712L6.66046 23.8763V31.1381L0.00779162 43.0199L0 11.9712Z" fill="#5B57A2"/>
<path d="M25.5742 19.5449L31.8153 15.7197L44.5881 15.7078L25.5742 27.3558V19.5449Z" fill="#D90751"/>
<path d="M25.5392 11.9015L25.5745 27.6634L18.8984 23.5614V0L25.5396 11.9015H25.5392Z" fill="#FAB718"/>
<path d="M44.5883 15.7074L31.8151 15.7194L25.5392 11.9015L18.8984 0L44.5879 15.7074H44.5883Z" fill="#ED6F26"/>
<path d="M25.5745 43.0867V35.4394L18.8984 31.4153L18.9021 55.0001L25.5745 43.0867Z" fill="#63B22F"/>
<path d="M31.799 39.2955L6.66 23.8763L0 11.9712L44.5603 39.2799L31.7985 39.2955H31.799Z" fill="#1487C9"/>
<path d="M18.9023 54.9994L25.5738 43.086L31.7993 39.2956L44.5606 39.28L18.9023 54.9994Z" fill="#017F36"/>
<path d="M0.0078125 43.0205L18.952 31.4155L12.583 27.5078L6.66048 31.1387L0.0078125 43.0205Z" fill="#984995"/>
</svg>
