<svg width="101" height="33" viewBox="0 0 101 33" fill="none" xmlns="http://www.w3.org/2000/svg">
<path fill-rule="evenodd" clip-rule="evenodd" d="M43.8007 32.5098H35.7207L40.7807 1.25977H48.8607L43.8007 32.5098Z" fill="#00579E"/>
<path fill-rule="evenodd" clip-rule="evenodd" d="M73.0991 2.03001C70.7863 1.1393 68.3275 0.688647 65.8491 0.70042C57.8491 0.70042 52.2491 4.96026 52.2191 11.0403C52.1491 15.5303 56.2191 18.0402 59.2991 19.5202C62.3791 21.0002 63.4891 22.0504 63.4891 23.4104C63.4891 25.5004 60.9592 26.4704 58.6392 26.4704C56.0149 26.5438 53.4125 25.9737 51.0591 24.8103L49.9991 24.3103L48.8691 31.3103C51.7389 32.4217 54.7917 32.9849 57.8691 32.9704C66.3491 32.9704 71.8691 28.78 71.9291 22.3C71.9291 18.74 69.7992 16.0203 65.1492 13.7903C62.3192 12.3603 60.5892 11.4004 60.5892 9.9304C60.5892 8.4604 62.0491 7.23997 65.2391 7.23997C67.3039 7.18355 69.3549 7.59393 71.2391 8.44017L71.9691 8.77024L73.0692 2.02024L73.0991 2.03001Z" fill="#00579E"/>
<path fill-rule="evenodd" clip-rule="evenodd" d="M83.8392 21.48L87.0692 12.7397C87.0692 12.8097 87.7292 10.9097 88.1292 9.73975L88.6891 12.4302C88.6891 12.4302 90.2191 19.9102 90.5491 21.4302L83.8392 21.48ZM93.8392 1.2998H87.5892C85.6592 1.2998 84.1991 1.86014 83.3691 3.89014L71.3691 32.5498H79.8491L81.5491 27.8599H91.9291C92.1591 28.9599 92.9291 32.5498 92.9291 32.5498H100.409L93.8892 1.2998H93.8392Z" fill="#00579E"/>
<path fill-rule="evenodd" clip-rule="evenodd" d="M29.0005 1.25977L21.0905 22.5698L20.2306 18.25C18.7706 13.25 14.1805 7.8399 9.06055 5.1499L16.3105 32.48H24.8506L37.5505 1.25977H29.0005Z" fill="#00579E"/>
<path fill-rule="evenodd" clip-rule="evenodd" d="M13.7101 1.25977H0.710083L0.580078 1.89014C10.7201 4.48014 17.4401 10.73 20.2001 18.25L17.3701 3.89014C16.9001 1.89014 15.4701 1.32977 13.7101 1.25977Z" fill="#F9A51A"/>
</svg>
