<svg width="148" height="29" viewBox="0 0 148 29" fill="none" xmlns="http://www.w3.org/2000/svg">
<path fill-rule="evenodd" clip-rule="evenodd" d="M7.83026 15.6698L3.74023 24.8598H0.740234L5.23022 15.0297C4.18164 14.493 3.30242 13.6762 2.69025 12.6698C1.9693 11.3733 1.62308 9.90182 1.69025 8.41984C1.66967 7.29542 1.8561 6.177 2.24023 5.12004C2.56689 4.23338 3.08209 3.42783 3.75024 2.75968C4.38302 2.13414 5.14378 1.65344 5.98022 1.35002C6.83853 1.03639 7.74646 0.880591 8.66022 0.890055H12.5103V24.8901H10.0002V15.7001H7.86023L7.83026 15.6698ZM9.97021 3.0297H8.60022C8.08408 3.03079 7.57249 3.12594 7.09027 3.30998C6.58956 3.50876 6.14132 3.82029 5.78027 4.22013C5.36323 4.70089 5.04997 5.26254 4.86023 5.87004C4.40583 7.50573 4.40583 9.23434 4.86023 10.87C5.03356 11.453 5.33026 11.9919 5.73022 12.4501C6.08574 12.8446 6.53691 13.1406 7.04022 13.31C7.55211 13.4843 8.08949 13.572 8.63025 13.5697H10.0002L9.97021 3.0297Z" fill="#ED2E24"/>
<path fill-rule="evenodd" clip-rule="evenodd" d="M25.0004 7.9602V24.8601H22.4203V17.2903H18.5304V24.8601H15.9004V7.9602H18.5204V15.1404H22.4103V7.9602H25.0004ZM38.4504 28.1702H36.1003V24.8503H28.8604V28.1702H26.5004V22.7004H27.5004C27.9048 21.7339 28.2097 20.7288 28.4103 19.7004C28.6303 18.6104 28.8003 17.5003 28.9203 16.3503C29.0403 15.2003 29.1204 14.0303 29.1504 12.8303C29.1804 11.6303 29.1504 10.4803 29.1504 9.35033V7.93041H36.9904V22.6902H38.3404V28.1501L38.4504 28.1702ZM34.5204 10.1003H31.6003V10.4104C31.6003 11.3004 31.6003 12.2803 31.6003 13.3303C31.6003 14.3803 31.4904 15.4703 31.3804 16.5603C31.2704 17.6503 31.1103 18.7303 30.9203 19.7903C30.7427 20.7902 30.4612 21.7687 30.0804 22.7102H34.5704V10.0901L34.5204 10.1003ZM49.8104 23.7205C49.2546 24.1559 48.6291 24.494 47.9604 24.7205C47.2169 24.9736 46.4358 25.0984 45.6504 25.0901C44.8519 25.1228 44.0578 24.9571 43.3389 24.6081C42.62 24.2592 41.9986 23.7377 41.5304 23.0901C40.4106 21.3163 39.882 19.2335 40.0204 17.1404C40.0138 15.8816 40.1074 14.624 40.3004 13.3801C40.4575 12.3415 40.7641 11.331 41.2104 10.3801C41.5632 9.59003 42.1102 8.90202 42.8004 8.38012C43.4748 7.90294 44.2843 7.65418 45.1104 7.67016C45.7709 7.66088 46.4247 7.80455 47.0204 8.09008C47.6292 8.39902 48.1412 8.86988 48.5004 9.45043C48.9502 10.2008 49.2681 11.0224 49.4404 11.8801C49.6801 13.0748 49.7908 14.2917 49.7704 15.51V16.9504H42.7704C42.6825 18.445 42.9497 19.9389 43.5504 21.3103C43.7568 21.7601 44.0901 22.1397 44.5094 22.4026C44.9287 22.6655 45.4156 22.8003 45.9103 22.7903C46.598 22.8146 47.2822 22.681 47.9103 22.4001C48.3893 22.1956 48.8452 21.9411 49.2704 21.6404L49.8904 23.6404L49.8104 23.7205ZM45.1104 9.87035C44.7147 9.87475 44.3318 10.0108 44.0222 10.2571C43.7125 10.5034 43.4937 10.8457 43.4004 11.2302C43.0097 12.4022 42.794 13.6252 42.7604 14.8601H47.0904C47.0904 14.1501 47.0904 13.4801 46.9904 12.8601C46.9419 12.32 46.8346 11.787 46.6703 11.2703C46.5541 10.8933 46.3483 10.5502 46.0704 10.2703C45.9372 10.1444 45.78 10.0467 45.6082 9.98315C45.4363 9.91956 45.2534 9.89127 45.0704 9.90014L45.1104 9.87035ZM55.1104 16.4402V24.8601H52.4904V7.9602H55.1104V15.78L59.1703 7.9602H61.8304L57.6304 15.9602L62.4304 24.9602H59.5804L55.1104 16.53V16.4402ZM68.5604 25.0901C67.7247 25.1185 66.8955 24.9345 66.1504 24.5549C65.4053 24.1754 64.7687 23.6128 64.3004 22.9202C63.2737 21.4735 62.7604 19.3001 62.7604 16.4001C62.7422 15.192 62.8732 13.9864 63.1504 12.8103C63.3636 11.8393 63.7497 10.9146 64.2903 10.0803C64.7652 9.35622 65.4064 8.7562 66.1603 8.33031C66.956 7.90447 67.8481 7.69082 68.7504 7.7102C69.3773 7.69171 70.0028 7.77987 70.6003 7.97045C71.045 8.13012 71.4709 8.33766 71.8704 8.59008L71.5004 11.0701C71.1175 10.738 70.6941 10.4559 70.2404 10.2302C69.7674 9.98602 69.2427 9.859 68.7104 9.8601C68.2149 9.88138 67.7353 10.0418 67.3268 10.323C66.9182 10.6042 66.5972 10.9952 66.4004 11.4504C65.7036 12.9573 65.3909 14.6131 65.4904 16.2703C65.4187 17.9508 65.6769 19.629 66.2504 21.2102C66.4091 21.7126 66.723 22.1519 67.1471 22.4646C67.5712 22.7773 68.0835 22.9474 68.6104 22.9504C69.1879 22.9662 69.7617 22.8534 70.2903 22.6204C70.7134 22.426 71.1072 22.1736 71.4604 21.8704L72.0604 23.8201C71.6061 24.2008 71.097 24.5109 70.5504 24.74C69.904 24.9916 69.2137 25.1108 68.5204 25.0901H68.5604Z" fill="black"/>
<path fill-rule="evenodd" clip-rule="evenodd" d="M89.82 24.8599H79.55L79.32 28.8599H78V23.48H78.71C79.413 22.7621 79.8835 21.849 80.06 20.8599C80.4134 19.3899 80.6574 17.8961 80.79 16.3901C80.97 14.6001 81.1 12.39 81.16 9.79004C81.22 7.19004 81.28 4.2001 81.33 0.850098H89.71V23.4897H91.35V28.8301H90.04L89.81 24.8301L89.82 24.8599ZM88 2.22021H82.8C82.8 5.29021 82.69 8.00006 82.6 10.3101C82.51 12.6201 82.4 14.6699 82.27 16.4199C82.1545 17.9295 81.9374 19.4298 81.62 20.9102C81.4408 21.8461 81.0697 22.7346 80.53 23.52H88V2.22998V2.22021Z" fill="black"/>
<path fill-rule="evenodd" clip-rule="evenodd" d="M94.58 16.6802C94.5374 18.5104 94.8781 20.3292 95.58 22.02C95.7985 22.5689 96.1783 23.0387 96.6693 23.3672C97.1602 23.6957 97.7393 23.8673 98.33 23.8599C98.8366 23.8716 99.3402 23.7797 99.81 23.5898C100.2 23.427 100.564 23.2081 100.89 22.9399C101.228 22.6828 101.522 22.3721 101.76 22.02L102.26 23.29C101.992 23.6827 101.653 24.0219 101.26 24.29C100.879 24.5629 100.461 24.7815 100.02 24.9399C99.458 25.1367 98.8654 25.2318 98.27 25.2202C97.4507 25.2669 96.6356 25.073 95.9249 24.6626C95.2143 24.2522 94.6391 23.6432 94.27 22.9102C93.3228 20.8902 92.8866 18.6681 93 16.4399C92.9869 15.1934 93.111 13.9493 93.37 12.73C93.5609 11.7613 93.8981 10.8272 94.37 9.95996C94.7437 9.26961 95.2747 8.67698 95.92 8.22998C96.5153 7.84307 97.21 7.63721 97.92 7.63721C98.63 7.63721 99.3247 7.84307 99.92 8.22998C100.542 8.66341 101.039 9.25321 101.36 9.93994C101.781 10.8368 102.055 11.7957 102.17 12.7798C102.319 14.0889 102.319 15.4111 102.17 16.7202L94.58 16.6802ZM97.97 8.97021C97.4724 9.00875 96.9949 9.18273 96.5894 9.47363C96.1839 9.76454 95.8659 10.1611 95.67 10.6201C94.9385 12.1193 94.5784 13.7723 94.62 15.4399H100.76C100.982 13.7713 100.757 12.0738 100.11 10.52C99.9359 10.0919 99.6466 9.7204 99.2741 9.44678C98.9016 9.17316 98.4606 9.00829 98 8.97021H97.97Z" fill="black"/>
<path fill-rule="evenodd" clip-rule="evenodd" d="M112.561 16.7798H106.791V24.8701H105.211V7.95996H106.791V15.4399H112.561V7.95996H114.131V24.8599H112.561V16.7798Z" fill="black"/>
<path fill-rule="evenodd" clip-rule="evenodd" d="M117.85 7.95996H119.43V14.2202H120.67C122.073 14.15 123.45 14.6182 124.52 15.5298C125.036 16.0518 125.433 16.6803 125.681 17.3711C125.93 18.0619 126.025 18.7985 125.96 19.5298C126.011 20.266 125.903 21.0049 125.642 21.6953C125.382 22.3857 124.975 23.0113 124.45 23.5298C123.37 24.4539 121.98 24.9362 120.56 24.8799H117.84V7.97998L117.85 7.95996ZM119.43 15.4702V23.6201H120.43C121.483 23.6541 122.513 23.298 123.32 22.6201C123.722 22.2114 124.029 21.7187 124.219 21.1777C124.409 20.6367 124.478 20.0603 124.42 19.4897C124.473 18.9306 124.411 18.3667 124.24 17.832C124.068 17.2974 123.789 16.8033 123.42 16.3799C122.65 15.6912 121.641 15.3321 120.61 15.3799L119.43 15.4702Z" fill="black"/>
<path fill-rule="evenodd" clip-rule="evenodd" d="M130.23 9.29004V24.8599H128.68V7.95996H135.83V9.31006H130.23V9.29004Z" fill="black"/>
<path fill-rule="evenodd" clip-rule="evenodd" d="M146.121 13.0898C146.121 12.6398 146.121 12.2301 146.121 11.8701C146.121 11.5101 146.181 11.1398 146.221 10.7798H146.121C146.015 11.1527 145.881 11.5174 145.721 11.8701L145.221 12.96L139.731 24.8701H138.381V7.97021H139.861V19.7002C139.861 20.1502 139.861 20.5599 139.861 20.9399C139.861 21.3199 139.801 21.7001 139.761 22.0801H139.861C139.97 21.6954 140.104 21.3181 140.261 20.9502C140.421 20.5802 140.581 20.1998 140.761 19.8198L146.251 7.9502H147.621V24.8501H146.111L146.121 13.0898Z" fill="black"/>
</svg>
