<svg width="148" height="31" viewBox="0 0 148 31" fill="none" xmlns="http://www.w3.org/2000/svg">
<path d="M28.1528 0C25.0872 0 22.0905 0.909059 19.5415 2.61222C16.9925 4.31538 15.0059 6.73615 13.8327 9.56841C12.6595 12.4007 12.3526 15.5172 12.9507 18.5239C13.5487 21.5306 15.025 24.2924 17.1927 26.4602C19.3604 28.6279 22.1222 30.1041 25.1289 30.7022C28.1356 31.3002 31.2522 30.9933 34.0844 29.8201C36.9167 28.647 39.3375 26.6603 41.0406 24.1113C42.7438 21.5624 43.6528 18.5656 43.6528 15.5C43.6528 11.3891 42.0198 7.44666 39.113 4.53985C36.2062 1.63303 32.2637 0 28.1528 0V0ZM28.1528 21.2846C27.009 21.2834 25.8912 20.9431 24.9408 20.3067C23.9903 19.6703 23.2499 18.7665 22.813 17.7094C22.3761 16.6523 22.2624 15.4894 22.4863 14.3677C22.7102 13.246 23.2617 12.2159 24.0709 11.4075C24.8801 10.5991 25.9109 10.0488 27.0328 9.8261C28.1547 9.6034 29.3175 9.71832 30.3741 10.1563C31.4308 10.5943 32.3338 11.3358 32.9692 12.2869C33.6045 13.238 33.9436 14.3562 33.9436 15.5C33.942 17.0342 33.3322 18.5053 32.2479 19.5907C31.1636 20.6762 29.6933 21.2875 28.159 21.2908" fill="#8B3FFD"/>
<path d="M12.6542 4.51355V27.0754H7.0618L0 4.51355H12.6542Z" fill="#8B3FFD"/>
<path d="M143.425 8.5374L139.99 16.9756C139.914 17.0911 139.879 17.2286 139.891 17.3662L139.791 17.5646L139.692 17.3662C139.692 17.267 139.593 17.0686 139.593 16.9756L136.158 8.5374H131.75L137.541 22.94L135.061 28.4332H139.5L147.641 8.5188L143.425 8.5374Z" fill="black"/>
<path d="M110.856 9.29984C109.987 8.66714 108.953 8.29898 107.88 8.23964C106.952 8.13882 106.013 8.24499 105.13 8.55052C104.248 8.85606 103.444 9.35336 102.777 10.0066V8.43804H98.7534V22.8592H102.777V15.3014C102.777 13.6336 103.069 13.1438 103.397 12.7532C103.67 12.3557 104.043 12.0373 104.479 11.8304C104.914 11.6235 105.397 11.5355 105.877 11.5752C106.375 11.5585 106.869 11.6666 107.314 11.8897C107.759 12.1128 108.141 12.4438 108.425 12.8524C108.675 13.4085 108.808 14.0099 108.816 14.6194V22.8592H112.84V14.1234C112.84 11.8666 112.152 10.298 110.881 9.31844" fill="black"/>
<path d="M91.1402 8.63035C89.1509 7.94092 86.9723 8.0453 85.058 8.92175C83.7312 9.51328 82.6293 10.5152 81.9146 11.78C81.2245 12.9696 80.8849 14.3301 80.935 15.7046C80.8849 17.079 81.2245 18.4395 81.9146 19.6292C82.5727 20.7447 83.5222 21.6599 84.6612 22.2766C85.8465 22.8865 87.1541 23.2213 88.4866 23.2562C89.1758 23.245 89.8602 23.1386 90.5202 22.94C91.1251 22.7537 91.7157 22.5237 92.2872 22.2518C93.4255 21.6341 94.3748 20.7191 95.0338 19.6044C95.7233 18.4145 96.0629 17.0541 96.0134 15.6798C96.0853 14.1332 95.6475 12.6058 94.7671 11.3322C93.8867 10.0587 92.6125 9.10945 91.1402 8.63035ZM92.3182 15.8906C92.3101 17.0339 91.8511 18.1279 91.041 18.9348C90.2989 19.4844 89.4093 19.7997 88.4866 19.84C87.5563 19.8804 86.6454 19.5656 85.9384 18.9596C85.1283 18.1527 84.6693 17.0587 84.6612 15.9154C84.5963 15.2553 84.7072 14.5899 84.9827 13.9866C85.2582 13.3833 85.6885 12.8637 86.2298 12.4806C86.867 12.0449 87.6159 11.8017 88.3874 11.78C89.1888 11.7965 89.9699 12.0347 90.6442 12.4682C91.2214 12.8214 91.6853 13.3327 91.9809 13.9414C92.2765 14.5502 92.3914 15.2309 92.312 15.903" fill="black"/>
<path d="M76.3218 9.30014C75.4635 8.66638 74.4414 8.29199 73.3768 8.22134H72.6886C71.8907 8.23157 71.1054 8.42203 70.3914 8.77847C69.6775 9.13492 69.0533 9.64813 68.5656 10.2797L68.3672 10.5773H67.9766C67.6957 10.1192 67.3295 9.71934 66.8978 9.39934C66.0395 8.76558 65.0174 8.39119 63.9528 8.32054C63.0975 8.20628 62.2273 8.30814 61.4215 8.61681C60.6157 8.92547 59.9001 9.43112 59.34 10.0875V8.63054H55.3286V23.0517H59.3524V15.3017C59.3524 13.7331 59.5508 13.3425 59.8422 12.8217C60.0846 12.4239 60.4342 12.1024 60.8509 11.8941C61.2676 11.6858 61.7345 11.599 62.1982 11.6437C62.6671 11.6389 63.1295 11.7536 63.5417 11.9771C63.9539 12.2005 64.3024 12.5254 64.5542 12.9209C64.8801 13.5215 65.0163 14.2068 64.9448 14.8863V22.9401H68.9686V15.2087C68.9686 13.7393 69.167 13.2433 69.4584 12.7287C69.7164 12.3461 70.0688 12.0365 70.4816 11.8301C70.8944 11.6237 71.3535 11.5275 71.8144 11.5507C72.2696 11.5467 72.7179 11.6626 73.114 11.8868C73.5102 12.111 73.8404 12.4356 74.0712 12.8279C74.3249 13.2763 74.4594 13.7822 74.4618 14.2973V22.8595H78.4856V14.0307C78.4917 13.2687 78.3936 12.5094 78.1942 11.7739C77.8435 10.7759 77.1941 9.91006 76.3342 9.29394" fill="black"/>
<path d="M127.925 18.544C126.902 19.5714 125.545 20.1983 124.1 20.311C123.438 20.381 122.769 20.3027 122.142 20.0817C121.515 19.8608 120.944 19.5028 120.473 19.0338C120.066 18.5829 119.766 18.047 119.592 17.4652H130.678V17.3598C130.792 16.8107 130.859 16.2527 130.876 15.692C130.845 14.9994 130.743 14.3118 130.572 13.6398C130.106 12.0688 129.142 10.6917 127.826 9.71524C126.889 8.97575 125.772 8.50049 124.589 8.33884C123.103 8.10144 121.58 8.30014 120.205 8.91089C118.829 9.52163 117.66 10.5182 116.839 11.7798C116.051 13.085 115.675 14.5976 115.761 16.1198C115.767 17.896 116.43 19.6072 117.621 20.9248C119.679 23.1816 122.525 23.2808 123.411 23.4048C127.336 23.504 129.983 21.0488 130.572 20.559L127.925 18.544ZM121.055 12.4618C121.688 12.0189 122.441 11.7809 123.213 11.7798C124.014 11.7964 124.796 12.0346 125.47 12.468C126.06 12.9404 126.529 13.546 126.84 14.235H119.784C119.854 13.8645 120.004 13.5139 120.225 13.2084C120.446 12.9029 120.732 12.6501 121.062 12.468" fill="black"/>
</svg>
