<svg width="62" height="49" viewBox="0 0 62 49" fill="none" xmlns="http://www.w3.org/2000/svg">
<path fill-rule="evenodd" clip-rule="evenodd" d="M55.7305 1.67188H20.3403C18.9435 1.67452 17.6044 2.23059 16.6167 3.21834C15.629 4.20608 15.073 5.54499 15.0703 6.94186C15.073 8.33874 15.629 9.67766 16.6167 10.6654C17.6044 11.6531 18.9435 12.2092 20.3403 12.2119H55.7305C57.1273 12.2092 58.4664 11.6531 59.4541 10.6654C60.4418 9.67766 60.9978 8.33874 61.0005 6.94186C60.9978 5.54499 60.4418 4.20608 59.4541 3.21834C58.4664 2.23059 57.1273 1.67452 55.7305 1.67188Z" fill="#7A8091" stroke="#FAFBFD" stroke-width="1.4173" stroke-miterlimit="10"/>
<path fill-rule="evenodd" clip-rule="evenodd" d="M55.7305 19.2383H20.3403C18.9435 19.2409 17.6044 19.797 16.6167 20.7847C15.629 21.7725 15.073 23.1114 15.0703 24.5083C15.073 25.9052 15.629 27.2441 16.6167 28.2318C17.6044 29.2196 18.9435 29.7756 20.3403 29.7783H55.7305C57.1273 29.7756 58.4664 29.2196 59.4541 28.2318C60.4418 27.2441 60.9978 25.9052 61.0005 24.5083C60.9978 23.1114 60.4418 21.7725 59.4541 20.7847C58.4664 19.797 57.1273 19.2409 55.7305 19.2383Z" fill="#7A8091" stroke="#FAFBFD" stroke-width="1.4173" stroke-miterlimit="10"/>
<path fill-rule="evenodd" clip-rule="evenodd" d="M55.7305 36.8203H20.3403C18.9435 36.823 17.6044 37.379 16.6167 38.3668C15.629 39.3545 15.073 40.6934 15.0703 42.0903C15.073 43.4872 15.629 44.8261 16.6167 45.8138C17.6044 46.8016 18.9435 47.3577 20.3403 47.3603H55.7305C57.1273 47.3577 58.4664 46.8016 59.4541 45.8138C60.4418 44.8261 60.9978 43.4872 61.0005 42.0903C60.9978 40.6934 60.4418 39.3545 59.4541 38.3668C58.4664 37.379 57.1273 36.823 55.7305 36.8203Z" fill="#7A8091" stroke="#FAFBFD" stroke-width="1.4173" stroke-miterlimit="10"/>
<path d="M6.27002 12.2118C9.18056 12.2118 11.54 9.85231 11.54 6.94177C11.54 4.03123 9.18056 1.67188 6.27002 1.67188C3.35948 1.67188 1 4.03123 1 6.94177C1 9.85231 3.35948 12.2118 6.27002 12.2118Z" fill="#7A8091" stroke="#FAFBFD" stroke-width="1.4173" stroke-miterlimit="10"/>
<path d="M6.27002 29.79C9.18056 29.79 11.54 27.4306 11.54 24.52C11.54 21.6095 9.18056 19.25 6.27002 19.25C3.35948 19.25 1 21.6095 1 24.52C1 27.4306 3.35948 29.79 6.27002 29.79Z" fill="#7A8091" stroke="#FAFBFD" stroke-width="1.4173" stroke-miterlimit="10"/>
<path d="M6.27002 47.3604C9.18056 47.3604 11.54 45.0009 11.54 42.0903C11.54 39.1798 9.18056 36.8203 6.27002 36.8203C3.35948 36.8203 1 39.1798 1 42.0903C1 45.0009 3.35948 47.3604 6.27002 47.3604Z" fill="#7A8091" stroke="#FAFBFD" stroke-width="1.4173" stroke-miterlimit="10"/>
</svg>
