<svg width="46" height="56" viewBox="0 0 46 56" fill="none" xmlns="http://www.w3.org/2000/svg">
<path fill-rule="evenodd" clip-rule="evenodd" d="M22.9995 32.9609C19.2695 32.9609 14.9395 33.9609 14.9395 35.3509V36.5009C17.2103 38.371 20.0577 39.3991 22.9995 39.4109C25.9413 39.3991 28.7887 38.371 31.0596 36.5009V35.3509C31.0596 33.9609 26.7295 32.9609 22.9995 32.9609Z" fill="#7A8091"/>
<path fill-rule="evenodd" clip-rule="evenodd" d="M22.9995 13.6094C19.5825 13.6147 16.3068 14.9744 13.8906 17.3906C11.4744 19.8068 10.1147 23.0824 10.1094 26.4994C10.1077 28.9853 10.8306 31.4178 12.1895 33.4994C14.1895 29.8694 21.9895 29.7394 22.9995 29.7394C21.2889 29.7394 19.6481 29.0598 18.4385 27.8502C17.2289 26.6406 16.5493 25 16.5493 23.2894C16.5493 21.5787 17.2289 19.9382 18.4385 18.7285C19.6481 17.5189 21.2889 16.8394 22.9995 16.8394C24.7102 16.8394 26.3505 17.5189 27.5601 18.7285C28.7697 19.9382 29.4492 21.5787 29.4492 23.2894C29.4492 25 28.7697 26.6406 27.5601 27.8502C26.3505 29.0598 24.7102 29.7394 22.9995 29.7394C23.9995 29.7394 31.8096 29.8594 33.8096 33.4994C35.1684 31.4178 35.8913 28.9853 35.8897 26.4994C35.8844 23.0824 34.5246 19.8068 32.1084 17.3906C29.6922 14.9744 26.4165 13.6147 22.9995 13.6094Z" fill="#7A8091"/>
<path d="M22.9993 26.4907C24.7776 26.4907 26.2192 25.0491 26.2192 23.2708C26.2192 21.4924 24.7776 20.0508 22.9993 20.0508C21.2209 20.0508 19.7793 21.4924 19.7793 23.2708C19.7793 25.0491 21.2209 26.4907 22.9993 26.4907Z" fill="#7A8091"/>
<path fill-rule="evenodd" clip-rule="evenodd" d="M44.4199 7.0212L23.4697 0.571202C23.1602 0.476266 22.8296 0.476266 22.52 0.571202L1.56982 7.0212C1.2399 7.1219 0.951332 7.3259 0.746094 7.60315C0.540855 7.88041 0.42966 8.21626 0.429688 8.56121V24.8912C0.429688 48.3712 22.2898 55.3712 22.5098 55.4312C22.6621 55.4777 22.8207 55.5012 22.98 55.5012C23.1392 55.5012 23.2974 55.4777 23.4497 55.4312C23.6697 55.3612 45.5298 48.3612 45.5298 24.8912V8.56121C45.5298 8.21626 45.4191 7.88041 45.2139 7.60315C45.0086 7.3259 44.7201 7.1219 44.3901 7.0212H44.4199ZM33.9297 38.2712C33.7671 38.5015 33.5466 38.6844 33.29 38.8012C30.4178 41.248 26.7731 42.601 23 42.6212C19.2269 42.601 15.5822 41.248 12.71 38.8012C12.4534 38.6844 12.2324 38.5015 12.0698 38.2712C10.4392 36.7743 9.13723 34.9554 8.24561 32.9295C7.35399 30.9036 6.89246 28.7147 6.89014 26.5012C6.89543 22.2302 8.59419 18.1356 11.6143 15.1156C14.6343 12.0955 18.729 10.3965 23 10.3912C27.271 10.3965 31.3657 12.0955 34.3857 15.1156C37.4058 18.1356 39.1046 22.2302 39.1099 26.5012C39.1062 28.713 38.644 30.9 37.7524 32.9241C36.8609 34.9482 35.559 36.7655 33.9297 38.2612V38.2712Z" fill="#7A8091"/>
</svg>
