<svg width="51" height="51" viewBox="0 0 51 51" fill="none" xmlns="http://www.w3.org/2000/svg">
<path fill-rule="evenodd" clip-rule="evenodd" d="M50 25.9609C50 19.3305 47.3662 12.9717 42.6777 8.28326C37.9893 3.59485 31.6304 0.960938 25 0.960938C18.3696 0.960938 12.0107 3.59485 7.32228 8.28326C2.63387 12.9717 1.27367e-05 19.3305 1.27367e-05 25.9609C-0.00450666 30.4322 1.19378 34.8223 3.46974 38.6709L0.10011 50.8709L12.2998 47.5009C16.1485 49.7769 20.5385 50.9755 25.0098 50.9709C31.6402 50.9709 37.9991 48.337 42.6875 43.6486C47.3759 38.9602 50.0098 32.6013 50.0098 25.9709L50 25.9609ZM21.1597 20.1409H17.3198C17.3225 18.1075 18.1315 16.1582 19.5693 14.7204C21.0072 13.2825 22.9564 12.4736 24.9898 12.4709C27.0232 12.4736 28.9728 13.2825 30.4107 14.7204C31.8485 16.1582 32.657 18.1075 32.6597 20.1409C32.6589 21.2053 32.4374 22.258 32.0088 23.2322C31.5802 24.2065 30.9541 25.0812 30.1699 25.8009L26.9097 28.8009V31.8009H23.0698V27.1209L27.5801 23.0009C27.9753 22.6433 28.2905 22.2065 28.5059 21.7189C28.7212 21.2313 28.8319 20.7039 28.8301 20.1709C28.8301 19.1525 28.4252 18.1758 27.7051 17.4556C26.985 16.7355 26.0082 16.3309 24.9898 16.3309C23.9713 16.3309 22.9946 16.7355 22.2744 17.4556C21.5543 18.1758 21.1499 19.1525 21.1499 20.1709L21.1597 20.1409ZM23.0801 35.6109H26.9199V39.4509H23.0801V35.6109Z" fill="#7A8091"/>
</svg>
