<svg width="64" height="64" viewBox="0 0 64 64" fill="none" xmlns="http://www.w3.org/2000/svg">
<path fill-rule="evenodd" clip-rule="evenodd" d="M32 61.9609C39.9516 61.9451 47.5731 58.7793 53.1958 53.1566C58.8185 47.534 61.9841 39.9126 62 31.9609C61.9841 24.0093 58.8185 16.3879 53.1958 10.7652C47.5731 5.14259 39.9516 1.97679 32 1.96094C24.0484 1.97679 16.4269 5.14259 10.8042 10.7652C5.18154 16.3879 2.01586 24.0093 2 31.9609C2.01586 39.9126 5.18154 47.534 10.8042 53.1566C16.4269 58.7793 24.0484 61.9451 32 61.9609Z" fill="#FEFEFE" stroke="#F76083" stroke-width="3.8849" stroke-miterlimit="22.9256"/>
<path fill-rule="evenodd" clip-rule="evenodd" d="M32.0005 51.4312C37.1573 51.4207 42.099 49.3647 45.7417 45.7145C49.3844 42.0643 51.4302 37.1181 51.4302 31.9612C51.4196 26.8113 49.3696 21.8754 45.728 18.2338C42.0865 14.5923 37.1504 12.5418 32.0005 12.5312C26.8506 12.5418 21.9145 14.5923 18.2729 18.2338C14.6314 21.8754 12.5809 26.8113 12.5703 31.9612C12.5703 37.1181 14.6161 42.0643 18.2588 45.7145C21.9015 49.3647 26.8437 51.4207 32.0005 51.4312Z" fill="#F76083"/>
</svg>
