<svg width="50" height="50" viewBox="0 0 50 50" fill="none" xmlns="http://www.w3.org/2000/svg">
<path fill-rule="evenodd" clip-rule="evenodd" d="M25 50C29.9445 50 34.778 48.5338 38.8892 45.7867C43.0005 43.0397 46.2048 39.1352 48.097 34.5671C49.9892 29.9989 50.4842 24.9723 49.5196 20.1227C48.555 15.2732 46.174 10.8187 42.6777 7.32234C39.1813 3.82603 34.7268 1.44501 29.8772 0.480379C25.0277 -0.484251 20.0011 0.0108322 15.4329 1.90302C10.8648 3.79521 6.96029 6.99952 4.21326 11.1108C1.46622 15.222 0 20.0555 0 25C0.0128311 31.6265 2.65087 37.9779 7.3365 42.6635C12.0221 47.3491 18.3735 49.9872 25 50Z" fill="#7A8091"/>
<path fill-rule="evenodd" clip-rule="evenodd" d="M29.5848 24.7646V32.2658C29.5848 33.4951 30.7193 34.727 32.2816 34.727C32.6068 34.727 32.6299 34.6681 32.9269 34.6681C32.7605 35.3851 31.923 36.1867 31.1342 36.3839C30.3941 36.5658 28.6424 36.4864 27.6615 36.4864C27.4668 35.6464 26.4117 34.727 25.3745 34.727H25.0236C23.7969 34.727 22.5625 35.9614 22.5625 37.1881V37.539C22.5625 38.7657 23.7969 40.0001 25.0236 40.0001H25.3745C26.3989 40.0001 27.4643 39.0832 27.6615 38.2407C28.5988 38.2407 29.5387 38.2407 30.4786 38.2407C32.868 38.2407 34.8733 36.2815 34.8733 34.0201V24.7646C34.8733 23.5379 33.6389 22.3035 32.4122 22.3035H32.0613C30.8192 22.3035 29.5848 23.5379 29.5848 24.7646Z" fill="white"/>
<path fill-rule="evenodd" clip-rule="evenodd" d="M12.0006 23.1815C12.208 23.1252 13.025 22.485 13.8163 22.4132C13.8163 20.787 14.4899 19.0839 15.2249 17.6651C15.302 17.5078 15.3874 17.3548 15.481 17.2067C15.8311 16.6502 16.2242 16.1219 16.6565 15.6266C17.3166 14.894 18.0621 14.2432 18.8769 13.6879C19.4398 13.3054 20.0405 12.9819 20.6696 12.7224C21.8969 12.1741 23.2168 11.863 24.5598 11.8055C24.8799 11.8055 24.9619 11.7441 25.2026 11.7441L26.4601 11.8362C26.8852 11.9003 27.2924 11.9464 27.6663 12.0386C28.3775 12.1956 29.0709 12.4248 29.7356 12.7224C30.3649 12.9814 30.9657 13.305 31.5283 13.6879C32.3346 14.2324 33.0709 14.8741 33.7206 15.5984C33.8486 15.7316 33.9178 15.8366 34.0381 15.9851C34.1585 16.1336 34.2481 16.2412 34.3583 16.3667L35.7975 19.0148C35.9256 19.3067 36.0536 19.7344 36.1586 20.0622C36.2637 20.39 36.3354 20.8024 36.4148 21.1583C36.4916 21.573 36.542 21.9922 36.5658 22.4132C37.3572 22.4798 38.1742 23.1201 38.3816 23.1815C38.403 21.3435 38.0228 19.5229 37.2676 17.847L36.74 16.7918C36.0802 15.604 35.2453 14.5222 34.2635 13.5829L32.4247 12.1384C32.2403 12.0181 32.102 11.9438 31.9125 11.8286C31.723 11.7133 31.5924 11.6519 31.3849 11.5366C29.6426 10.5935 27.7052 10.0675 25.7251 10H24.6161C23.7176 10.0342 22.8251 10.1612 21.9527 10.379C20.749 10.6838 20.6133 10.817 19.5812 11.2318L18.5568 11.785C17.5415 12.3768 16.6089 13.1001 15.7832 13.9363L15.0303 14.7661C14.5319 15.3768 14.0864 16.0288 13.6985 16.715L13.1505 17.8085C12.3754 19.4927 11.9827 21.3276 12.0006 23.1815Z" fill="white"/>
<path d="M18.3302 22.3035H17.9768C16.6175 22.3035 15.5156 23.4054 15.5156 24.7646V32.2684C15.5156 33.6276 16.6175 34.7295 17.9768 34.7295H18.3302C19.6894 34.7295 20.7913 33.6276 20.7913 32.2684V24.7646C20.7913 23.4054 19.6894 22.3035 18.3302 22.3035Z" fill="white"/>
<path fill-rule="evenodd" clip-rule="evenodd" d="M36.6162 25.4176V31.6307C36.6162 32.1275 36.5573 32.3759 36.5573 32.8625C36.6699 32.801 36.7468 32.7806 36.8799 32.7165C37.0131 32.6525 37.1181 32.5859 37.2154 32.5245C37.551 32.303 37.8304 32.0065 38.0318 31.6585C38.2331 31.3105 38.3508 30.9205 38.3756 30.5192V26.524C38.3756 25.6251 37.7404 24.7723 36.9184 24.3471C36.7954 24.2831 36.6751 24.2421 36.5573 24.1807C36.5496 24.6647 36.6162 24.9054 36.6162 25.4176Z" fill="white"/>
<path fill-rule="evenodd" clip-rule="evenodd" d="M12 26.524V30.5089C12 31.4079 12.6351 32.2607 13.4572 32.6858C13.5801 32.7498 13.7005 32.7908 13.8183 32.8523C13.8183 32.3682 13.7594 32.1173 13.7594 31.6204V25.4176C13.7594 24.9208 13.8183 24.6724 13.8183 24.1858L13.1601 24.5238C12.8253 24.7448 12.5462 25.0405 12.3449 25.3875C12.1436 25.7346 12.0255 26.1236 12 26.524Z" fill="white"/>
</svg>
